<?xml version="1.0" encoding="UTF-8"?><svg id="Lager_25" xmlns="http://www.w3.org/2000/svg" xmlns:xlink="http://www.w3.org/1999/xlink" viewBox="0 0 262 280"><defs><style>.cls-1{fill:url(#Namnlös_övertoning_2144);}.cls-2{fill:url(#linear-gradient);}.cls-3{fill:#ecceb7;}.cls-4{fill:#fdffff;}.cls-5{fill:#b6dec0;}.cls-6{fill:#ddded6;}.cls-7{fill:#d0997d;}.cls-8{fill:#d9ad96;}.cls-9{fill:#251a1e;}.cls-10{fill:#284b4d;}.cls-11{fill:#647d6d;}.cls-12{fill:url(#Namnlös_övertoning_85-2);opacity:.37;}.cls-13{fill:url(#Namnlös_övertoning_373);}.cls-14{fill:url(#Namnlös_övertoning_131);}.cls-15{fill:url(#Namnlös_övertoning_2144-2);}.cls-16{fill:url(#Namnlös_övertoning_2144-4);}.cls-17{fill:url(#Namnlös_övertoning_2144-3);}.cls-18{fill:url(#Namnlös_övertoning_373-3);}.cls-19{fill:url(#Namnlös_övertoning_373-4);}.cls-20{fill:url(#Namnlös_övertoning_373-2);}.cls-21{fill:url(#Namnlös_övertoning_373-5);}.cls-22{fill:url(#Namnlös_övertoning_131-2);}.cls-23{fill:url(#linear-gradient-3);}.cls-24{fill:url(#linear-gradient-2);}.cls-25{fill:url(#linear-gradient-5);}.cls-26{fill:url(#Namnlös_övertoning_85);opacity:.44;}.cls-27{fill:url(#linear-gradient-8);opacity:.38;}.cls-28{fill:url(#linear-gradient-4);opacity:.67;}.cls-29{fill:url(#linear-gradient-7);opacity:.65;}.cls-30{fill:url(#linear-gradient-6);opacity:.79;}</style><linearGradient id="Namnlös_övertoning_373" x1="122.77" y1="163.92" x2="171.68" y2="163.92" gradientUnits="userSpaceOnUse"><stop offset="0" stop-color="#c3997d"/><stop offset="1" stop-color="#e7c5a3"/></linearGradient><linearGradient id="Namnlös_övertoning_373-2" x1="146.96" y1="172.66" x2="105.27" y2="129.32" xlink:href="#Namnlös_övertoning_373"/><linearGradient id="Namnlös_övertoning_373-3" x1="192.27" y1="110.47" x2="203.36" y2="110.47" xlink:href="#Namnlös_övertoning_373"/><linearGradient id="Namnlös_övertoning_373-4" x1="107.35" y1="98.79" x2="112.32" y2="87.88" xlink:href="#Namnlös_övertoning_373"/><linearGradient id="linear-gradient" x1="111.87" y1="94.59" x2="118.29" y2="92.45" gradientUnits="userSpaceOnUse"><stop offset=".05" stop-color="#c18b79"/><stop offset="1" stop-color="#f5c5a3"/></linearGradient><linearGradient id="linear-gradient-2" x1="135.16" y1="90.77" x2="160.2" y2="75.86" gradientUnits="userSpaceOnUse"><stop offset="0" stop-color="#5e5550"/><stop offset=".62" stop-color="#897b73"/><stop offset="1" stop-color="#95877f"/></linearGradient><linearGradient id="linear-gradient-3" x1="171.43" y1="95.06" x2="192.31" y2="95.06" gradientUnits="userSpaceOnUse"><stop offset="0" stop-color="#766960"/><stop offset=".62" stop-color="#897b73"/><stop offset="1" stop-color="#95877f"/></linearGradient><linearGradient id="Namnlös_övertoning_2144" x1="135.2" y1="98.44" x2="152.7" y2="98.44" gradientUnits="userSpaceOnUse"><stop offset="0" stop-color="#c3997d"/><stop offset=".02" stop-color="#40250c"/><stop offset="1" stop-color="#d9bdb4"/></linearGradient><linearGradient id="Namnlös_övertoning_2144-2" x1="169.87" y1="103.33" x2="185.92" y2="103.33" xlink:href="#Namnlös_övertoning_2144"/><linearGradient id="Namnlös_övertoning_373-5" x1="141.29" y1="134.1" x2="165.97" y2="134.1" xlink:href="#Namnlös_övertoning_373"/><linearGradient id="Namnlös_övertoning_131" x1="134.01" y1="133.03" x2="167.44" y2="143.86" gradientUnits="userSpaceOnUse"><stop offset="0" stop-color="#bf6851"/><stop offset="1" stop-color="#d29e82"/></linearGradient><linearGradient id="Namnlös_övertoning_131-2" x1="134.92" y1="134.09" x2="171.29" y2="134.09" xlink:href="#Namnlös_övertoning_131"/><linearGradient id="linear-gradient-4" x1="123.91" y1="121.83" x2="147.51" y2="121.83" gradientUnits="userSpaceOnUse"><stop offset="0" stop-color="#aa785d"/><stop offset="1" stop-color="#d0997d"/></linearGradient><linearGradient id="Namnlös_övertoning_85" x1="169.97" y1="128.62" x2="184.75" y2="128.62" gradientUnits="userSpaceOnUse"><stop offset="0" stop-color="#aa8260"/><stop offset="1" stop-color="#d0997d"/></linearGradient><linearGradient id="Namnlös_övertoning_2144-3" x1="142.92" y1="98.94" x2="136.61" y2="109.17" xlink:href="#Namnlös_övertoning_2144"/><linearGradient id="Namnlös_övertoning_2144-4" x1="174.17" y1="102.5" x2="172.23" y2="105.64" xlink:href="#Namnlös_övertoning_2144"/><linearGradient id="Namnlös_övertoning_85-2" x1="111.1" y1="89.48" x2="164.05" y2="89.48" xlink:href="#Namnlös_övertoning_85"/><linearGradient id="linear-gradient-5" x1="136.62" y1="100.46" x2="192.99" y2="24.49" gradientUnits="userSpaceOnUse"><stop offset="0" stop-color="#766960"/><stop offset=".73" stop-color="#897b73"/><stop offset="1" stop-color="#b9b3aa"/></linearGradient><linearGradient id="linear-gradient-6" x1="145.83" y1="142.27" x2="151.06" y2="194.01" xlink:href="#linear-gradient-2"/><linearGradient id="linear-gradient-7" x1="114.54" y1="143.18" x2="180.99" y2="103.64" xlink:href="#linear-gradient-2"/><linearGradient id="linear-gradient-8" x1="150.85" y1="144.83" x2="147.24" y2="162.4" gradientUnits="userSpaceOnUse"><stop offset="0" stop-color="#766960"/><stop offset=".46" stop-color="#82746c"/><stop offset=".73" stop-color="#897b73"/><stop offset="1" stop-color="#b9b3aa"/></linearGradient></defs><g id="BG-3"><circle class="cls-5" cx="131.72" cy="132.28" r="129"/></g><path class="cls-11" d="M100.16,144.56s-26.05,10.54-32.2,15.22c0,0-24,12.29-31.9,14.05,0,0-12.29,3.8-19.61,11.71,0,0-7.61,4.68-8.78,8.2,0,0-3.35,4.68-7.02,17.49,0,0-1.46,4.75,3.51,10.9,0,0,15.8,14.63,22.83,17.56,0,0,15.51,10.54,31.32,14.93,0,0,32.59,15.36,72.64,17.12,0,0,29.51,3.37,56.73-3.65,0,0,23.87-6.81,38.05-18.15,0,0,5.37-3.37,17.27-15.66,0,0,6.15-4.98,8.78-10.83,0,0,5.27-5.71,1.46-10.32,0,0-2.93-11.2-4.1-11.49,0,0-3.22-7.32-5.27-6.73,0,0-2.63-3.22-4.1-4.68,0,0-6.44-4.68-8.78-4.39,0,0-5.56-7.02-15.51-6.73,0,0-4.98-1.17-7.61-3.22,0,0-6.73-4.98-14.63-7.32,0,0-14.93-7.32-19.02-8.49,0,0-7.32,120.59-74.05-15.51Z"/><path class="cls-13" d="M110.57,117.78s-3.39,23.27-1.48,33.22c0,0,7.32,26.49,21.52,45.07,0,0,5.85,13.32,16.24,13.9,0,0,4.68,1.02,10.39-3.8,0,0,6.15-6,14.93-21.95,0,0,.44-9.95,.88-15.51,0,0,5.56-12.15,7.32-15.37,0,0-8.63,9.8-22.54,15.51,0,0-16.24,2.05-27.66-6,0,0-18.29-10.39-18-25.61,0,0-2.9-14.05-1.6-19.46Z"/><path class="cls-20" d="M144.79,216.56s21.83-46.44,25.51-58.1l7.28-.59-2.93,10.54-2.49,15.8-7.32,17.12-.19,14.8s-7.57,17.39-19.87,.42Z"/><path class="cls-10" d="M183.87,163.2c.24-1.29,4.68,11.8,5.56,20.58,0,0,2.88,13.17-.88,25.46,0,0-2.87,5.49-4.92,.81,0,0-1.13-9.59-3.96-10.76,0,0-1.53-1.46-4.52,.59,0,0-4.73,6.91-5.18,10.19,0,0-2.49,5.91-4.54,9.13,0,0-6.15,9.07-5.56,12.29,0,0,2.34,4.1,.59,7.32,0,0-5.56,5.71-6.7,31.61,0,0-1.61-24.29,3.34-31.32,0,0,1.32-4.1,0-7.61,0,0,3.22-10.28,6.15-13.83,0,0,6.29-5.94,5.41-10.69,0,0-3.05-4.75-5.18-4.46,0,0-3.01-6.44,.79-9.95,0,0,18.44-23.21,19.61-29.36Z"/><path class="cls-10" d="M98.71,147.52s-5.41-1-5.85,10.42c0,0,.04,9.3,2.41,16.24,0,0,1.1,10.54,2.41,17.12,0,0,1.76,9.66,5.27,10.1,0,0,4.26-.19,6.44-1.76,0,0,5.65-6.16,13.6-6.79,0,0,10.38,5.8,15.41,17.25,0,0,2.99,4.56,4.75,6.52,1.04,1.16,2.53,4.1,2.53,4.1,0,0,7.46,16.04,9.44,20.18,0,0,4.79-16.16,7.79-24.64,1.82-5.14,4.87-13.86,1.64-12-3.28,1.89-4.88,17.06-8.33,19.56-3.01-4.74-9.36-19.87-10.53-21.11,0,0-.86-14.75-4.97-16.24,0,0-10.1-10.98-16.24-7.9,0,0-18.88,13.17-20.2,18,0,0-6.59-14.93-6.15-22.83,0,0-4.68-21.83,.59-26.22Z"/><path class="cls-11" d="M178.31,158.31s5.94,2.15,6.53,6.24c0,0,1.52,15.96,3.57,23.57,0,0,.43,10.58-1.32,16.72,0,0-.14,3.06-1.36,3.49-.73,.26-1.37-.56-1.01-1.24,.54-1.03,1.2-.79,.32-5.18,0,0-3.8-6.44-6.73-11.41,0,0-.94-5.9-4.1-5.27,0,0-4.1,6.15-5.85,8.2,0,0-2.34,3.51-3.51,4.98,0,0-2.63,.88-.88,3.22,0,0,4.68,2.47,4.68,5.33,0,0,.59,2.57-2.05,5.2,0,0-3.22,6.44-4.39,9.37,0,0-3.51,4.68-3.8,8.49,0,0-.59,1.76,.88,4.39,0,0-.04,4.98-4.14,9.95,0,0-1.91,3.8-3,8.49,0,0,.37-7.32,2.42-11.12,0,0,4.14-3.22,2.53-8.2,0,0-1.03-5.27,1.32-8.49,0,0,6.15-12.88,7.02-15.8,0,0,1.63-1.76-1.97-3.8,0,0-3.89-5.56-2.43-7.61,0,0,2.34-6.73,4.39-8.78,0,0,7.07-12.59,7.61-20.34,0,0,2.68-5.98,3.22-8.93,0,0,.59-3.39,2.05-1.46Z"/><path class="cls-18" d="M197.92,99.78s.41-3.7,3.19-4.73c0,0,1.7,.35,2.23,1.51,0,0,.29,2.05-1.02,3.8,0,0-1.02,1.17-2.49,4.54,0,0-1.52,5.28-.79,8.06,0,0-.17,4.37-1.11,7.89,0,0-1.84,5.19-4.77,5.05,0,0-3.14-2.7,2.43-13.53,0,0,2.63-10.54,2.34-12.59Z"/><path class="cls-7" d="M201.29,99.19s-2.99,2.05-3.47,6.44c0,0,.69-1.02,1.57-2.05,0,0,2.49-3.66,1.9-4.39Z"/><path class="cls-19" d="M116.55,86.46c.19-.4-2.78-6.88-5.27-9.37,0,0-2.05-2.05-4.24-.15,0,0-2.2,2.2-2.34,3.95,0,0-.29,2.78,0,8.34,0,0,.59,3.51,.29,6.88,0,0-1.02,4.68,.59,9.95,0,0,2.07,8.05,4.98,9.8,0,0-.74-15.51,5.99-29.41Z"/><path class="cls-7" d="M111.72,82.8s-1.9-3.95-3.8-1.61c0,0-1.46,.88-1.46,3.66,0,0-.15,2.2,.73,4.1,0,0,1.02-1.02,.88-3.66,0,0,.59-3.95,3.66-2.49Z"/><path class="cls-2" d="M115.24,91.43s.32-2.77-2.63-2.34c0,0-2.34-.59-3.8,3.8,0,0-.88,5.85,.29,6.29,0,0,2.35,2.05,3.81,.15,0,0,1.02-6,2.34-7.9Z"/><path class="cls-3" d="M182.48,32.82s18.02,10.54,17.85,37.9c0,0,.73,6.73-.88,14.49,0,0-.74,5.42-.68,10.09,0,0,.54,12.44-2.24,19.61,0,0-1.17,2.63-2.2,5.71,0,0-.51,2.14-.59,6.15,0,0,.11,2.43-.44,6.73,0,0-.88,12.15-15.95,24.73,0,0-7.76,6-9.51,7.17,0,0-5.56,4.54-16.54,4.68,0,0-7.76-.15-9.95-1.32,0,0-7.02-2.34-11.27-4.83,0,0-8.34-5.12-11.12-8.78,0,0-4.16-5.77-5.91-14.4,0,0-4.18-10.91-3.01-26.57,0,0,.88-14.63,5.29-25.87,0,0,.56-3.25,.85-6.03,2.63-12.8,4.13-16.72,5.85-22.1,0,0,3.95-17.85,11.41-25.76,0,0,5.27-6,13.61-7.32,0,0,11.41-2.34,21.22,.29,0,0,10.68,2.05,14.2,5.41Z"/><path class="cls-8" d="M151.31,170.09s-7.76-.15-9.95-1.32c0,0-7.02-2.34-11.27-4.83,0,0-8.34-5.12-11.12-8.78,0,0-5.27-4.83-7.02-13.46-.85-6.8-2.57-11.58-1.9-27.51,0,0,1.99-14.04,5.29-25.87,0,0,.56-3.25,.85-6.03,2.63-12.8,4.13-16.72,5.85-22.1,0,0,3.95-17.85,11.41-25.76,0,0,5.27-6,13.61-7.32,0,0,11.41-2.34,21.22,.29,0,0,10.61,13.17,5.56,30.95,0,0-7.02,23.49-10.98,33.15,0,0-1.54,5.12-1.76,11.34,0,0-.66,8.41-1.54,12.15,0,0,.08,5.91-2.49,8.88s0,0,0,0c0,0-1.78,2.43-1.73,9.29,.05,6.86,0,0,0,0l-2.46,12.81s-2.32,1.52-2.1,4.81c0,0,1.68,15.37,.51,19.32Z"/><path class="cls-24" d="M126.21,87.04s2.16-2.34,3.35-2.78c0,0,2.65-1.61,7.19-.88,0,0,4.83,.29,14.78,3.37,0,0,2.68,.73,3.83,1.76,0,0-.32,1.02-4.12,.44,0,0-6.73-.44-10.68-1.76,0,0-10.24-2.63-14.34-.15Z"/><path class="cls-23" d="M171.72,91.14s-1.17,1.17,1.12,2.26c0,0,.46,.22,4.12,.66,0,0,3.4,.95,7.93,.99,0,0,3.95-.25,5.12,1.36,0,0,1.22,1.23,1.9,2.78,0,0,1.32-3.07-.88-5.56,0,0-1.32-2.2-5.41-2.05,0,0-5.56,0-8.93-.59,0,0-3.1-.23-4.98,.15Z"/><path class="cls-9" d="M128.28,90.85s3.06,.37,4.96-.66c0,0,2.2-.94,5.91-.92,0,0,6.24,.56,8.58,1.29,0,0,2.2,.59,2.78,1.61,0,0,.29,1.46,1.02,2.05,0,0,1.76,.15,2.34,.59,0,0-2.63,.62-3.8-.2,0,0-1.32-3.3-6.88-3.67,0,0-6.29,.27-9.07,1.22,0,0-3.64-.2-5.84-1.3Z"/><path class="cls-9" d="M140.5,95.61s2.2,.36,3.22-.63c0,0,1.46-1.17,.73-3.51,0,0-2.2-2.33-6.15-.95,0,0-1.32,1.68-.59,3.29,0,0,.29,1.79,2.78,1.8Z"/><path class="cls-9" d="M168.65,98.75s-1.02-1.46,.44-1.46c0,0,.87,.44,2.34-.15,0,0,.59-1.25,4.84-1.14,0,0,6.15,.4,9.22,2.16,0,0,2.41,1.24,2.34,2.34,0,0,.07,.73,2.27,1.32,0,0-2.41,1.2-3.73-.55,0,0-2.05-2.81-4.83-3.25,0,0-4.68-1.76-8.49,0,0,0-1.02,1.02-3.22,.29,0,0-1.02-.59-1.17,.44Z"/><path class="cls-9" d="M176.35,97.43s-1.58,1.67,.33,3.57c0,0,.26,.78,2.75,.93,0,0,2.2,.01,2.49-1.32,0,0,1.16-2.05-.3-3.07,0,0-3.99-1.42-5.26-.11Z"/><path class="cls-7" d="M148.6,110.72s-5.17-.85-7.51,3.1c0,0-1.27,3.07-3.32,5.12,0,0-2.05,3.66-4.54,6.73,0,0-2.63,3.07-1.9,5.41,0,0-.42,2.15,.31,2.3,0,0-2.65-1.71-1.77-6.25,0,0,1.17-2.34,3.07-4.98,0,0,1.94-2.49,3.37-4.39,0,0,1.2-1.02,2.98-4.24,0,0,3.16-5.41,9.31-2.81Z"/><path class="cls-7" d="M169.97,115.43s1.02,1.17,1.9,3.07c0,0,3.24,7.2,5.85,9.95,2.63,3.07,3.71,4.39,1.17,8.05,0,0-.68,2.14-1.56,2.28,0,0,.67-2.07,.68-5.21,0,0-.13-1.37-1.02-3.07,0,0-3.37-5.85-4.39-8.34,0,0-1.32-5.12-2.63-6.73Z"/><path class="cls-1" d="M152.7,96.41s-3.66,3.39-12.73,3.01c0,0-3.54,.21-4.77-.53,0,0,2.14,2.05,9.6,1.46,0,0,3.81,.44,7.91-3.95Z"/><path class="cls-15" d="M170.26,100.47s1.61,3.99,5.41,4.43c0,0,8.49,1.17,10.24-.59,0,0-.73,2.93-11.57,1.47,0,0-6.05-2.2-4.09-5.31Z"/><path class="cls-9" d="M136.22,132.07s.3-.2,1.61-.49c0,0,3.07-.74,8.78,.36,0,0,6.29,2.12,13.32,2.12,0,0,4.19-.15,7.76,2.05,0,0,.97,.13,1.7,.86,0,0,1.33,.39,1.9,.73,0,0,.04,.03-.58,.4-1.01,.61-1.61,.66-2.49,.66,0,0-2.06,.58-3.82,1.31s-3.29,1.35-7.54,2.08c0,0-4.1,.7-8.2-1.35,0,0-4.45-1.61-7.37-4.39,0,0-1.32-1.14-3.52-2.9,0,0-.76-.71-1.55-1.44Z"/><path class="cls-11" d="M109.09,128.62s.11,1.3-3.71,5.25c0,0-7.77,8.78-8.65,13.17,0,0-2.63,4.83-2.2,7.46,0,0,.44,21.51,6.15,38.63,0,0,1.32,6.15,2.63,5.71,0,0,3.07-1.76,5.27-4.83,0,0,10.1-10.1,21.07-12.29,0,0,9.22,3.51,10.98,7.02,0,0,2.2,3.51,2.63,9.22,0,0,.44,6.59,3.07,13.61,0,0,9.6,23.17,9.6,28.88,0,0,4.11-3.93,1.4-13.13-2.12-7.19-6.29-17.73-8.62-21.52,0,0-3.25-6.08-3.47-11.79,0,0,1.16-8.93-9.52-14.49,0,0-13.65-6.15-24.34-27.66,0,0-4.09-8.54-2.29-23.25Z"/><path class="cls-6" d="M145.53,139.95s-.05-2.01,1.48-2.12c0,0,2.7,.32,3.2,1.61l-.35,2.38,.94-2.16s2.49-.29,3.37,.66l.15,2.41,.35-2.38s1.41-.26,3.24,.11c0,0,.8,.22,.8,1.76v1.32l-6.8,.66-6.37-4.24Z"/><path class="cls-4" d="M141.58,131.13s-.49,2.41,.05,3.95c0,0,.11,.44,.71,.6,0,0,.16,.02,.49,.16,0,0,0,.4,.57,.87,0,0,1.61,.66,2.12,.12,0,0,.12,.59,.44,.71,0,0,1.85,.84,2.93,.4l.02-.43s-.64,1.64,.62,1.83c0,0,1.21,.88,2.84,.65,0,0,.35,.18,1.01-.81l.27,.82s.17,.49,.88,.66c0,0,1.78,.16,2.44,.05,0,0,.58,.17,1.13-1.69l.22,1.04s.25,.38,.88,.44c0,0,.72,.18,1.59,.17,0,0,.88-.34,.99-1.44l.16-.99s-.02,1.1,.27,1.39c0,0,.94,.16,2.08-.51,0,0,.59-.34,.92-1.32,0,0,.88-2.18,.75-3.01,0,0-6.16-1.71-7.81-.83,0,0-5.64-.8-8.32-1.52,0,0-5.51-1.44-8.25-1.33Z"/><path class="cls-21" d="M141.37,131.51s-.21,.78,.05,.71c.21-.25,.67-.44,1.66,.88,.16,.16,.03,.68,.22,.6,0,0,.09-.38,.27-.45-.05-.43,1.87-.32,2.12,.92,.27,.19,.17-.21,.42-.39,.59-.41,2.16-.47,3.13,1.13,.06,.1,0,.23,.18,.33s.03-.44,.66-.66c.85-.28,2.32-.12,3.27,1.12,.31,.28,.13,.83,.31,1.02,.22,.03,.52-.55,.7-.78,.39-.22,1.87-.95,3.48,.15,0,0,.22,.14,.41,.88,.23,.08,.3-.6,.5-.77,.22-.26,.96-.65,2.17-.47,0,0,.91,.05,1.02,.77,.15,.97,.3,.4,.49,.14,0,0-.02-.3,.49-.7,0,0,1.16-.78,2.91,.12,.41-.66-.31-.85,.14-.49,0,0-.33-1.01-4.1-1.12,0,0-2.27-.66-3.77-.11,0,0-6.8-.88-8.32-1.52,0,0-6.09-2.6-8.41-1.31Z"/><path class="cls-14" d="M136.01,132.42s.74,.43,1.91,2.48c0,0,1.23,4.1,6.37,7.67,0,0,2.08,1.84,4.74,2.77,0,0,2.64,.39,4.07,0,0,0,1.09,.08,1.77,.27,0,0,2.94,1.28,6.46-.77,0,0,2.65-1.43,3.95-2.92,0,0,1.32-1.32,3.51-2.05,0,0,1.48-1.01,2.52-2.19,0,0-.51,.41-1.59,.53,0,0-2.28,.17-4.55,.93,0,0-5.01,1.1-8.23,2.05,0,0-2.78,.88-6.59-.43,0,0-2.57-.38-4.39-1.97-1.17-1.02-4.06-3.06-5.43-3.96,0,0-.82-1.29-3.64-2.13,0,0-.39-.72-.89-.28Z"/><path class="cls-22" d="M135.01,131.39c.12,.58,2.25-.62,5.62-.88,0,0,5.74-.4,10.46,1.76,0,0,.07,.34,5.2,1.02,0,0,3.27,.26,4.14,.22,2.04-.11,4.92,.23,7.04,1.95,0,0,.72,.84,2.5,1.6,0,0,1.32,.53,1.32,.64,0,0-2.6-.5-3.49-1.24,0,0-2.13-1.48-4.56-1.6,0,0-3.3-.55-4.98-.33,0,0-1.68,.22-4.17-.22,0,0-2.59-.41-5.1-1.78,0,0-3.58-.91-5.95-1.08,0,0-6.66-.13-6.15,1.26,0,0-2.46-.59-1.88-1.32Z"/><path class="cls-9" d="M153.41,121.83s-.35-2.01-2.62-2.45c0,0-2.25-1.13-2.56,.15,0,0-.21,.54,.74,1.05,0,0,4.16,.79,4.44,1.25Z"/><path class="cls-9" d="M160.9,122.79s1.04-1.06,3.15-.55c0,0,2.04,.15,1.53,.95,0,0,1.11,.59,.08,.8,0,0-4.37-1.02-5.03-.87,0,0,0-.02,.27-.33Z"/><path class="cls-7" d="M149.19,111.04s-1.9-1.02-3.22,.59c0,0-.88,2.34-.88,3.8,0,0-1.02,2.05,.73,4.39,0,0,2.56,1.21,4.8,1.1,0,0-2.57-.77-1.59-1.54,0,0,2.63-.15,3.66,1.46,0,0,.29,1.61,1.76,2.34,0,0,3.51,1.17,5.41,.88,0,0,.88-.29,1.9-1.32,0,0,1.46-.88,3.07,0,0,0,1.76,.91-.8,.89,0,0,1.09,1.26,2.99,.48,0,0,2.49-.63,2.34-4.58,0,0-.15-2.34-.29-3.66,0,0,0,3.51-1.02,4.98l-3.95-.59s-2.34,.15-3.8,1.17c0,0-2.34,1.32-5.27-1.02,0,0-.59-2.49-3.51-3.07,0,0-3.51-.66-4.68,.26,0,0-2.05,.04-.44-4.94,0,0-.15-1.32,2.78-1.61Z"/><path class="cls-28" d="M140.48,110.47s-2.61,2.25-5.01,4.3c1.09-1.12-.23,.62-5.41,2.78,0,0-4.83,0-6.15,6.29,0,0-.19,7.24,8.01,10.46,0,0-2-5.38,.75-7.89,0,0,8.31-10.96,8.86-13.25,0,0,3.33-3.13,5.97-3.16,0,0-4.71-1.75-7.02,.46Z"/><path class="cls-26" d="M169.97,115.43s2.78,.15,4.39,1.76c0,0,1.32,1.46,1.9,3.07,0,0,5.34,5.02,7.05,6.77,0,0,2.59,4.24,.83,6.88,0,0-2.69,4.38-8.25,7.89,0,0,3.01-5.01,2.86-8.23,0,0-1.86-3.23-2.72-4.78,0,0-5.67-9.76-6.06-13.37Z"/><path class="cls-10" d="M10.31,189.57s22.83,1.23,31.61,15.72c0,0,8.78,15.08,11.41,27.81,0,0,.88-18-14.05-34.24,0,0-8.78-11.1-21.07-9.28,0,0-4.01-.5-7.9,0Z"/><path class="cls-10" d="M245.19,197.09s1.32,23.27-6.15,32.05c0,0,7.02-8.34,7.9-20.63,0,0-.44-9.22-1.76-11.41Z"/><path class="cls-17" d="M138.72,96.41s6.46,.11,12.02-.84c0,0-6.8,2.87-12.02,.84Z"/><path class="cls-16" d="M169.87,98.94s3.42,5.05,10.12,4.64c0,0-6.85-1.83-10.12-4.64Z"/><path class="cls-12" d="M142.9,35.53s-8.74,14.93,.44,19.98c0,0,4.35,2.17,10.98,5.71,0,0,16.7,7.02,6.37,22.39,0,0-2.86,4.17-5.32,.37,0,0-8.8-8.49-20.43-5.85,0,0-11.35,.43-14.86,6.58,0,0-2.05,5.85-1.17,8.17,0,0,3.19,8.95,.29,13.93,0,0-.86,3.37-2.63,6.88,0,0-7.47,14.93,2.19,34.24,0,0-1.98,1.32-4.94-4.83,0,0-4.28-14.93-2.08-28.54,.09,0,.82-12.55,4.83-28.1,0,0,3.07-19.76,5.27-21.51,0,0,4.83-20.63,8.34-23.71,0,0,1.97-7.02,7.35-9.66,0,0,9.33-3.07,5.38,3.95Z"/><path class="cls-25" d="M111.29,77.09s-1.54-2.27,0-6.44c0,0,1.1-12.51,3.51-16.9,0,0-.2-3.51,1.76-5.93,0,0,3.06-9.66,7.02-12.51,3.95-2.85,4.83-4.61,6.59-5.71,0,0,7.68-6.37,15.81-7.9,0,0,11.85-1.98,18.88-1.1,0,0,14.83,3.07,19.1,6.8,0,0,7.9,5.49,10.54,10.54,0,0,5.93,8.78,7.24,12.95,0,0,3.51,6.8,3.29,11.41,0,0,.1,19.1-2.63,30.73,0,0-.22,1.02-.66,3.04,0,0-.65-1.93-1.32-1.06,0,0-1.36,.72-1.92,2.74,0,0,.6-6.47-.27-9.33,0,0,.22-3.46,.88-7.99,0,0,.09-6.06-1.27-13.75,0,0-2.68-9.66-2.68-14.49,0,0-6.31-13.39-11.83-15.37,0,0,.19,1.32-1.78,1.54,0,0-4.17,.22-7.9-1.76,0,0-1.1-1.1-4.61-1.1,0,0-5.27,.22-8.12-1.98,0,0-1.98-.44-1.32-2.2,0,0-1.64-1.76-4.22-1.76,0,0-12.02-.66-17.51,6.59,0,0-1.57,2.2-2.65,4.17,0,0-2.84,10.76-6.57,16.02,0,0-3.58,4.39-4.2,7.9,0,0,1.57,3.29-2.38,10.32,0,0-4.32,6.66-4.76,11.27l-.88,2.93s-1.61-5.63-2.93-7.39c0,0-.88-3.15-2.2-4.32Z"/><path class="cls-30" d="M113.92,146.82l-1.54-10.76,8.78,15.15,11.41,11.85,15.15,4.39,8.56,1.32,8.34-3.07,3.51-1.1,11.97-7.97s-5.38,4.9-6.04,6.66c0,0-5.71,5.05-7.46,6.15,0,0-5.27,4.39-7.46,4.61,0,0-7.46,1.1-10.1,0,0,0-11.63-3.29-15.37-5.93,0,0-14.93-10.76-19.76-21.29Z"/><path class="cls-29" d="M159.14,126.9c-1.1,1.33-2.68,0-2.68,0-1.49-2.34-5.29-2.83-5.29-2.83-2.41-.88-4.98-2.88-9.59-2-.21,.04-2.13-1.01-4.26,.68-3.32,2.65-3.21,7.22-3.21,7.22-.09,5.95-.66,7.24-.66,7.24-2.94,1.54-6.15,0-6.15,0-5.71-.88-8.78-5.99-8.78-5.99-3.8-6.38-1.98-21.23-1.98-21.23,1.98-3.95-.68-22.92-.68-22.92,0,0-2.87,6.95-3.31,10.69,0,0-.97,2.71-1.28,6.99,0,0-.86,2.75-.93,5.97,0,0-.64,3.8-.42,6.87l.26,3.38v3.51l.66,5.29,.59,3.95,2.71,6.34,2.85,5.93,1.32,3.51,2.41,2.34,3.29,2.7,2.85,3.95,.88,2.41,5.05,4.17,4.61-.44,1.1,2.63,5.27,1.49h4.39l3.73,1.14,5.49,1.76,3.29-1.98,3.07-2.41,3.51-.44,3.29-2.41,3.07-1.1,3.73-2.85,1.76-2.63,2.85-2.2,2.41-1.54,1.54-2.63,2.2-2.85,.88-2.63,2.41-2.85v-2.2l1.1-2.85,.66-3.07,.88-5.05v-4.39s0,5.71-1.98,9.22c0,0-2.63,4.39-5.27,5.27,0,0-2.63,1.98-6.15,2.41,0,0-5.28,2.05-4.62-.8,0,0,.6-5.88,1.04-7.85,0,0-1.9-.05-2.78,3.46,0,0,0,1.11-.44,3.66,0,0,.22,1.98-1.76,2.85,0,0-.44,3.51-2.63,4.61,0,0-6.07,2.71-6.73,1.61,0,0,2.12-1.39,2.56-2.71,0,0-1.1-1.54-3.29-.44,0,0,.17-.22-4.98,1.1,0,0-4.39,.73-8.41-1.17,0,0-4.23-4.28-5.41-3.69,0,0-.7,1.6,1.38,4.54,0,0-9.22-2.9-8.05-11.75,0,0-2.36-3.71-1.04-7,0,0,2.43-3.39,3.97-1.42l1.61,.59,2.05-.15,1.93,1.17,2.46-.15c1.98,.44,2.63,1.02,2.63,1.02l3.07,.66h2.41l1.54,1.1h3.07l2.05,.55,2.34-.33,2.44,.8,2.33,.44c1.62-.49,4.19,.79,4.45,1.46l.42,3.05s-.13-2.1,1.13-2.8c.83-.46,2.4-1.08,1.81-3.32-.21-.82-1.9-2.31-3.8-2.63,0,0-3.22-1.46-6.65-2.05,0,0-6.56-1.29-7.62,0Z"/><path class="cls-27" d="M138.75,151.21s9.44,.44,12.22,2.05c0,0,9.51-.88,12.59,1.02,0,0,3.8,.59,5.56,2.49,0,0,2.49,.73,3.22,2.63,0,0,.6,.95,.75,2.01,.03,.18,.04,.37,.03,.55-.05,1.25-1.85,0-1.85,0l-.25,1.8-2.19-.26-.69,1.1-2.56,1.32-1.51-.63-.95,1.72-1.79-.95-.9,1.84-2.59-.16-2.49,1.43-2.63-1.86-3.25,.66-2.31-1.69-2.43,.92-1.69-1.72-3.23,.12-2.21-2.54-2.65,.44-3.15-2.49-2.36-1.61-1.14-2.63-1.63-1.76-3.37-1.76,3.08-1.32s2.04-1.32,4.09-1.46c0,0,4.37-.44,5.55-.44,0,0,1.91,.59,2.72,1.17Z"/></svg>