<?xml version="1.0" encoding="UTF-8"?><svg xmlns="http://www.w3.org/2000/svg" xmlns:xlink="http://www.w3.org/1999/xlink" viewBox="0 0 262 280"><defs><style>.cls-1,.cls-2,.cls-3{fill:none;}.cls-1,.cls-4,.cls-5{opacity:.34;}.cls-6{fill:url(#Namnlös_övertoning_85-6);}.cls-7{fill:url(#Namnlös_övertoning_85-4);}.cls-8{fill:url(#Namnlös_övertoning_85-5);}.cls-9{fill:url(#Namnlös_övertoning_1755);}.cls-10{fill:url(#Namnlös_övertoning_1726);}.cls-11{fill:url(#Namnlös_övertoning_1488);}.cls-12{fill:url(#Namnlös_övertoning_1672);}.cls-13{fill:url(#Namnlös_övertoning_1651);}.cls-14{fill:url(#Namnlös_övertoning_1410);}.cls-15{fill:url(#Namnlös_övertoning_1078);}.cls-16{fill:url(#Namnlös_övertoning_1185);}.cls-17{clip-path:url(#clippath);}.cls-18{fill:#f6f4f0;}.cls-19{fill:#f6f3ef;}.cls-20{fill:#f39f9b;}.cls-21{fill:#693f47;}.cls-22{fill:#ecceb7;}.cls-23{fill:#eaeaea;}.cls-24,.cls-25{fill:#f5b59a;}.cls-26{fill:#e3c4a9;}.cls-27{fill:#fff;}.cls-28{fill:#edd5b8;}.cls-29{fill:#e5dcd7;}.cls-30{fill:#985b3f;}.cls-31{fill:#ab9b93;}.cls-32{fill:#b3a49d;}.cls-33{fill:#8a746a;}.cls-34{fill:#290a04;}.cls-4{fill:url(#Namnlös_övertoning_85-3);}.cls-5{fill:url(#Namnlös_övertoning_85-7);}.cls-35{fill:url(#Namnlös_övertoning_845-2);}.cls-35,.cls-36{opacity:.7;}.cls-37{fill:url(#Namnlös_övertoning_1562);opacity:.6;}.cls-38{fill:url(#Namnlös_övertoning_85-2);opacity:.56;}.cls-39{fill:url(#Namnlös_övertoning_649);}.cls-40{fill:url(#Namnlös_övertoning_100);}.cls-41{fill:url(#Namnlös_övertoning_159);}.cls-42{fill:url(#Namnlös_övertoning_1651-2);}.cls-43{fill:url(#Namnlös_övertoning_1726-2);}.cls-44{fill:url(#Namnlös_övertoning_649-2);}.cls-3{stroke:#edd5b8;stroke-linecap:round;stroke-linejoin:round;stroke-width:.5px;}.cls-45{opacity:.2;}.cls-46{fill:url(#Namnlös_övertoning_85);opacity:.82;}.cls-36{fill:url(#Namnlös_övertoning_845);}.cls-47{fill:#fbecdf;opacity:.3;}.cls-48{opacity:.44;}.cls-48,.cls-49{fill:#d0997d;}.cls-25{opacity:.4;}.cls-49,.cls-50,.cls-51,.cls-52{opacity:.64;}.cls-50{fill:#bf744e;}.cls-51{fill:#b76439;}.cls-52{fill:#c37e5a;}</style><linearGradient id="Namnlös_övertoning_1078" x1="73.4" y1="81.71" x2="125.55" y2="81.71" gradientUnits="userSpaceOnUse"><stop offset="0" stop-color="#a7978f"/><stop offset=".25" stop-color="#a29186"/><stop offset=".64" stop-color="#96836f"/><stop offset="1" stop-color="#887354"/></linearGradient><linearGradient id="Namnlös_övertoning_1651" x1="78.17" y1="95.72" x2="87.24" y2="95.72" gradientUnits="userSpaceOnUse"><stop offset="0" stop-color="#8b5f52"/><stop offset=".54" stop-color="#896752"/><stop offset="1" stop-color="#887354"/></linearGradient><linearGradient id="Namnlös_övertoning_1185" x1="79.14" y1="187.91" x2="176.41" y2="187.91" gradientUnits="userSpaceOnUse"><stop offset=".01" stop-color="#957550"/><stop offset=".25" stop-color="#c3997d"/><stop offset="1" stop-color="#e7c5a3"/></linearGradient><linearGradient id="Namnlös_övertoning_85" x1="103.42" y1="145.6" x2="173.91" y2="145.6" gradientUnits="userSpaceOnUse"><stop offset="0" stop-color="#aa8260"/><stop offset="1" stop-color="#d0997d"/></linearGradient><linearGradient id="Namnlös_övertoning_1651-2" x1="81.81" y1="140.08" x2="103.97" y2="140.08" xlink:href="#Namnlös_övertoning_1651"/><linearGradient id="Namnlös_övertoning_1562" x1="82.04" y1="95.35" x2="117.66" y2="95.35" gradientUnits="userSpaceOnUse"><stop offset="0" stop-color="#9d7752"/><stop offset="1" stop-color="#e7c5a3"/></linearGradient><linearGradient id="Namnlös_övertoning_845" x1="130.19" y1="85.62" x2="147.11" y2="85.62" gradientUnits="userSpaceOnUse"><stop offset="0" stop-color="#b9ae9a"/><stop offset="1" stop-color="#b09da5"/></linearGradient><linearGradient id="Namnlös_övertoning_100" x1="127.43" y1="73.81" x2="152.68" y2="73.81" gradientUnits="userSpaceOnUse"><stop offset="0" stop-color="#624637"/><stop offset="1" stop-color="#b27451"/></linearGradient><linearGradient id="Namnlös_övertoning_159" x1="86.08" y1="71.21" x2="102.19" y2="71.21" gradientUnits="userSpaceOnUse"><stop offset="0" stop-color="#ba764d"/><stop offset=".03" stop-color="#b3724b"/><stop offset=".19" stop-color="#966244"/><stop offset=".36" stop-color="#7f553e"/><stop offset=".54" stop-color="#6e4c3a"/><stop offset=".74" stop-color="#654737"/><stop offset="1" stop-color="#624637"/></linearGradient><linearGradient id="Namnlös_övertoning_85-2" x1="101.24" y1="90.54" x2="111.59" y2="90.54" xlink:href="#Namnlös_övertoning_85"/><linearGradient id="Namnlös_övertoning_649" x1="98.25" y1="128.22" x2="129.67" y2="128.22" gradientUnits="userSpaceOnUse"><stop offset="0" stop-color="#84553c"/><stop offset=".17" stop-color="#bf6751"/><stop offset="1" stop-color="#d39a87"/></linearGradient><linearGradient id="Namnlös_övertoning_649-2" x1="98.26" y1="120.09" x2="129.02" y2="120.09" xlink:href="#Namnlös_övertoning_649"/><linearGradient id="Namnlös_övertoning_85-3" x1="89.68" y1="88.93" x2="111.62" y2="88.93" xlink:href="#Namnlös_övertoning_85"/><linearGradient id="Namnlös_övertoning_845-2" x1="172.72" y1="83.56" x2="188.71" y2="83.56" gradientTransform="translate(276.6 17.53) rotate(-180) scale(1 -.79)" xlink:href="#Namnlös_övertoning_845"/><linearGradient id="Namnlös_övertoning_85-4" x1="82.44" y1="130.44" x2="101.89" y2="130.44" xlink:href="#Namnlös_övertoning_85"/><linearGradient id="Namnlös_övertoning_85-5" x1="83.45" y1="77.8" x2="162.81" y2="77.8" xlink:href="#Namnlös_övertoning_85"/><linearGradient id="Namnlös_övertoning_85-6" x1="81.48" y1="101.04" x2="99.21" y2="101.04" xlink:href="#Namnlös_övertoning_85"/><linearGradient id="Namnlös_övertoning_1726" x1="157.53" y1="150.29" x2="188.45" y2="150.29" gradientUnits="userSpaceOnUse"><stop offset="0" stop-color="#ad8c73"/><stop offset=".04" stop-color="#b09079"/><stop offset=".29" stop-color="#c1a896"/><stop offset=".53" stop-color="#cdbaab"/><stop offset=".77" stop-color="#d4c4b7"/><stop offset="1" stop-color="#d7c8bc"/></linearGradient><linearGradient id="Namnlös_övertoning_1726-2" x1="118.99" y1="95.97" x2="185.76" y2="95.97" xlink:href="#Namnlös_övertoning_1726"/><linearGradient id="Namnlös_övertoning_85-7" x1="124.14" y1="95.35" x2="141.44" y2="95.35" xlink:href="#Namnlös_övertoning_85"/><clipPath id="clippath"><path class="cls-2" d="M66.28,268.29c46.28,6.2,95.68,11.94,137.7-8.41,13.18-6.39,26.06-16.51,29.13-30.83,1.77-8.26,.01-16.89-2.81-24.85-8-22.56-24.89-41.83-46.21-52.72-21.31-10.89-46.82-13.29-69.79-6.56-13.98,4.09-26.84,11.36-38.93,19.48-9.44,6.34-18.78,13.57-24.13,23.61-3.64,6.83-5.2,14.55-6.71,22.15-1.81,9.11-3.63,18.22-5.44,27.34-1.36,6.81-5.1,19.85,.65,25.59,4.96,4.95,19.97,4.33,26.55,5.21Z"/></clipPath><linearGradient id="Namnlös_övertoning_1488" x1="44.23" y1="259.32" x2="74.59" y2="263.49" gradientUnits="userSpaceOnUse"><stop offset=".38" stop-color="#fcf3f3"/><stop offset=".91" stop-color="#dad5ce"/></linearGradient><linearGradient id="Namnlös_övertoning_1410" x1="116.91" y1="190.41" x2="180.03" y2="363.53" gradientUnits="userSpaceOnUse"><stop offset="0" stop-color="#dad5ce"/><stop offset=".5" stop-color="#fcf3f3"/><stop offset="1" stop-color="#fcfbf8"/></linearGradient><linearGradient id="Namnlös_övertoning_1755" x1="177.28" y1="135.77" x2="193.77" y2="135.77" gradientUnits="userSpaceOnUse"><stop offset="0" stop-color="#ad8c73"/><stop offset=".13" stop-color="#b7977d"/><stop offset=".43" stop-color="#caac90"/><stop offset=".72" stop-color="#d6b89c"/><stop offset="1" stop-color="#dabda0"/></linearGradient><linearGradient id="Namnlös_övertoning_1672" x1="88.53" y1="43.1" x2="118.1" y2="43.1" gradientUnits="userSpaceOnUse"><stop offset="0" stop-color="#8b5f52"/><stop offset=".54" stop-color="#906752"/><stop offset="1" stop-color="#987354"/></linearGradient></defs><g id="MALLAR"><g id="BG-3"><circle class="cls-20" cx="131.31" cy="131.48" r="129"/></g></g><g id="Anna"><path class="cls-15" d="M125.55,26.2c-6.97-4.18-16.18-4.34-23.29-.4-10.82,5.99-15.04,19.14-18.33,31.05-2.76,9.99-5.52,19.97-8.27,29.96-1.24,4.5-2.5,9.11-2.22,13.77,.14,2.34,.62,4.71,.95,7.01s1.05,4.9,2.18,7.03c.4,.76,.87,1.47,1.25,2.24,2.48,5.08,2.24,12.06,1.31,17.5,1.57-2.11,2.19-4.83,2.05-7.46-.14-2.63-.99-5.17-2.12-7.55,1.46,1.58,2.59,3.46,3.3,5.48,.66,1.88,.95,3.87,1.24,5.84,.48,3.25,.96,6.51,1.08,9.79,1.69-4.16,1.38-9.43,1.15-13.82-.27-5.02-.93-10-1.14-15.02-.44-10.53,1.16-21.02,2.76-31.44,1.73-11.31,3.64-23.07,10.19-32.45,2.95-4.23,6.93-7.92,11.8-9.61,2.87-.99,5.95-1.27,8.81-2.3s5.64-3.1,6.23-6.08c.6-2.98-2.16-6.47-5.09-5.65"/><path class="cls-13" d="M85.29,67.01c-1.28,5.57-2.55,11.13-3.83,16.7-1.69,7.36-3.38,14.8-3.3,22.35,.09,7.55,2.13,15.33,7.11,21.01-1.66-12.84-.72-25.86,.22-38.78,.58-7.97,1.16-15.94,1.74-23.92-1.95,2.61-3.3,5.66-3.94,8.85"/><path class="cls-28" d="M118.14,24.08c-.83-.9-1.98-1.66-3.51-2.25-3.74-1.43-7.91-1.68-11.8-.72-6.78,1.69-12.24,6.93-15.77,12.96-3.52,6.04-5.37,12.88-7.18,19.63-1,3.73-2,7.46-3,11.19-1.16,4.34-2.33,8.68-3.4,13.03-1.4,5.65-2.67,11.44-2.31,17.25,.22,3.56,1.05,7.04,1.88,10.51,.84,3.54,1.7,7.11,3.35,10.35,1.66,3.24,4.22,6.15,7.59,7.5-7.49-5.54-9.92-15.91-8.85-25.17,1.07-9.26,4.99-17.9,7.93-26.74,1.53-4.6,3.2-9.31,4.36-14.01,1.2-4.85,2.08-9.7,3.9-14.38,2.77-7.11,7.72-15.49,16.39-15.13,3.39,.14,8.57,1.75,10.22,5,.57,1.12,.7,2.5,.21,3.66,1.92-4.56,2.94-9.49-.03-12.7Z"/><path class="cls-3" d="M96.25,25.53c-5.07,2.68-8.98,7.19-11.83,12.16-2.85,4.97-4.72,10.44-6.51,15.88-3.88,11.8-7.53,24.25-5.34,36.47"/><path class="cls-16" d="M102.4,175.29c-.92,2.12-1.83,4.23-2.75,6.35-.89,2.05-1.78,4.11-2.47,6.24-.86,2.65-2,4.88-2.41,7.7-.97,6.62-3.2,12.85-4.49,19.47-1.82,9.33-3.18,18.78-5.82,27.94-.45,1.55-.93,3.09-1.46,4.62-.94,2.73-2.66,5.33-3.44,8.03-.98,3.36-.03,7.93,.7,11.26,.05,.24,.11,.5,.27,.69,.18,.22,.45,.33,.73,.38,1.17,.23,2.32-.39,3.35-.98,5.71-3.31,9.79-10.28,14-15.3,4.84-5.78,9.68-11.57,14.52-17.35,6.93-8.28,13.91-16.61,22.22-23.5,6.05-6.05,14.77-10.41,22.26-14.34,8.4-4.41,11.38-8.53,17.25-15.99,.44-.56,.89-1.13,1.16-1.79,1.69-4.07-2.56-6.81-4.95-9.02-3.08-2.85-5.27-5.22-7-9.27-3.68-8.58-4.35-18-3.89-27.22,.23-4.72,.93-9.36,1.41-14.05,.16-1.56-.85-10.98-.6-11.32-7.34,9.91-5.65,24.75-13.87,33.94-4.2,4.69-10.32,7.1-16.2,9.35-4.77,1.82-9.63,3.66-14.73,3.93-4.55,.23-11.67-4.89-13.12,.12-.66,2.27,1.44,6.93,1.61,9.4,.21,3.11,0,5.49-1.23,8.32-.35,.81-.7,1.61-1.05,2.42Z"/><path class="cls-46" d="M158.18,119.54c-2.89,7.84-8.51,14.33-14.01,20.62-3.17,3.63-6.44,7.33-10.68,9.63-3.35,1.81-7.15,2.65-10.91,3.24-6.33,1-12.75,1.4-19.15,1.19,5.19,5.48,13.64,6.63,21.06,5.23,7.41-1.4,14.22-4.93,21.26-7.64,.43-.16,.87-.33,1.32-.3,1.08,.05,1.86,1.16,1.93,2.24s-.37,2.12-.8,3.1c1.14-.27,2.28-.55,3.43-.82,.5,2.31,.52,4.72,.08,7.05,1.48-.61,2.96-1.23,4.45-1.84-.68,4.65,.26,9.02,2.5,13.11,1.16,2.13,3.13,4.19,5.55,4.06,2.11-.11,3.51-1.85,5.15-2.95,.67-.46,4.15-3.82,4.56-3.62-2.88-1.45-4.78-4.55-6.68-7.06-1.7-2.24-2.8-5.12-3.79-7.76-2.08-5.55-3.27-11.44-3.46-17.37-.28-8.96,1.65-17.94,.7-26.85-2.71,3.74-4.6,8.08-5.48,12.62"/><path class="cls-31" d="M82.42,141.97c-2.21,6.57-6.87,12.29-12.86,15.78,3.78-1.45,7.27-3.64,10.22-6.41-.9,4.34-2.92,8.45-5.8,11.82,4.81-1.51,9.16-4.45,12.35-8.36-1.57,2.7-3.14,5.41-4.71,8.11,3.54-2.14,6.65-5,9.08-8.35,.12,3.34,.23,6.68,.35,10.03,1.11-1.4,2.33-2.72,3.65-3.93l.06,1.93c.79-.54,1.59-1.07,2.38-1.61,.76,1.94,2.79,3.31,4.88,3.3s4.1-1.42,4.83-3.38c-1.36-.47-2.5-1.57-3.02-2.92-.4-1.03-.44-2.16-.68-3.24-.65-2.88-2.65-5.23-4.49-7.55-6.71-8.42-10.23-17.98-15.64-26.98-.98,7.37,1.93,14.19-.61,21.76Z"/><path class="cls-33" d="M86.51,132.88c-.1,1.7-.2,3.41-.3,5.11-.11,1.96-.23,3.94-.79,5.82-1.68,5.68-6.94,9.46-12.06,12.45,4.88-1.94,8.41-6.47,10.17-11.42,1.76-4.95,1.95-10.32,1.69-15.57,2.46,3.12,1.69,7.6,.8,11.48-1.49,6.47,1.57,13.76-2.23,19.2,1.37-1.58,2.63-3.26,3.77-5.01,1.03-1.58,1.97-3.24,2.5-5.05,1.38-4.67-.09-9.65-1.55-14.29,.04,2.84,.07,5.68,.11,8.52"/><path class="cls-42" d="M83.06,123.64c2.12,5.56,4.43,11.04,6.9,16.45,1.86,4.07,3.89,8.19,7.1,11.3,1.25,1.21,2.68,2.27,3.71,3.68,.76,1.04,1.27,2.23,1.77,3.41,.58,1.36,1.16,2.73,1.43,4.18-1.5-7.04-4.41-13.78-8.5-19.7-1.75-2.54-3.73-4.93-5.19-7.65-3.11-5.77-3.83-12.84-8.07-17.84-.63,1.39-.44,3.03,.09,4.47s1.37,2.73,2.06,4.09"/><path class="cls-22" d="M86.21,68.96c-.67,4.87-.82,9.8-1.19,14.79-.52,7.07-2.92,13.94-2.98,21.03-.07,7.68,2.08,15.66,4.16,23.01,1.45,5.13,3.4,10.22,6.69,14.48,4.39,5.68,8.07,11.38,15.17,14.06,3.8,1.44,8.09,1.5,11.96,.28,4.19-1.33,7.81-4.07,12.07-5.37,3.11-.94,6.23-2.85,8.92-4.63,5.5-3.64,10.27-7.63,13.52-13.49,1.36-2.45,1.65-5.24,2.48-7.9,.99-3.16,1.72-6.4,2.45-9.62,1.08-4.79,2.16-9.59,2.76-14.46,1.37-11.1,.23-22.34-1.56-33.33-1.43-8.77-3.55-19.11-10.24-25.48-5.3-5.04-12.84-6.82-20.04-8.1-4.89-.87-9.51-.73-14.38-.26-8.71,.84-16.29,3.78-21.24,11.35-2.47,3.78-3.25,7.96-5.14,11.94-1.79,3.76-2.82,7.52-3.4,11.7Z"/><path class="cls-26" d="M91.8,86.05s-.02,0-.03,0c-.67-.19-2.39-.41-2.81,.34,.94,.09,1.71,.31,2.6,.69,1.68,.71,3.46,1.2,5.29,1.29,1.18,.06,2.33-.15,3.5-.2,1.09-.05,2.23-.23,3.14-.88-1.36,.22-2.71,.18-4.08,.26-1.36,.08-2.74,.06-4.07-.23-1.24-.27-2.35-.92-3.54-1.25Z"/><path class="cls-24" d="M94.49,105.41c-.24-.05-.49-.08-.75-.08-4.11,0-9.2,5.52-5.42,9.26,.9,.88,2.24,1.23,3.49,1.07,1.25-.16,2.41-.77,3.38-1.58,.7-.57,1.31-1.26,1.74-2.05,1.25-2.36,.29-6.05-2.43-6.62Z"/><path class="cls-37" d="M110.66,79.28c1.41-10.2,2.61-20.45,4.26-30.62,.75-4.61,2.44-9.87,2.74-14.84-.55,.04-1.11,.09-1.67,.15-8.71,.84-16.29,3.78-21.24,11.35-2.47,3.78-3.25,7.96-5.14,11.94-1.79,3.76-2.82,7.52-3.4,11.71-.67,4.87-.82,9.8-1.19,14.79-.52,7.07-2.92,13.94-2.98,21.03-.07,7.68,2.08,15.66,4.16,23.01,1.45,5.13,3.4,10.22,6.69,14.48,4.39,5.68,8.07,11.38,15.17,14.06,.56,.21,1.14,.39,1.73,.54,.46-15.55,.92-31.11,1.39-46.66-3.43-.04-7.8-.79-8.54-4.14-.49-2.24,1.04-4.36,2.25-6.31,3.74-6.08,4.8-13.39,5.78-20.47Z"/><path class="cls-36" d="M140.32,82.22c-1.07-.28-2.27-.4-3.37-.32-1.97,.13-3.78,1.07-5.53,1.98-.5,.26-1.13,.62-1.23,1.22,1.3-.33,2.49-1.01,3.82-1.28,3.49-.73,7.55,.19,10.05,2.8,.31,.33,.61,.68,.92,1.01,.47,.5,1,.94,1.52,1.39,.18,.15,.38,.32,.61,.34-.55-1.7-1.51-3.93-2.88-5.11-1.12-.97-2.48-1.65-3.91-2.03Z"/><path class="cls-40" d="M127.43,74.71c1.97-2.4,4.39-5.01,7.49-4.96,1.06,.02,2.08,.36,3.12,.52,2.11,.33,4.31-.06,6.38,.48,1.51,.4,2.84,1.28,4.04,2.25,.52,.43,1.16,.87,1.5,1.44,.4,.66,.83,1.13,1.43,1.63s1.16,1.05,1.29,1.8c-1.05-.51-2.01-1.19-2.82-2.03-1.01-1.04-2.1-2.08-3.4-2.75-1.49-.77-3.36-.85-4.97-1.18-.34-.07-.68-.14-1.02-.12-.68,.03-1.29,.39-1.95,.53-.65,.14-1.34,.07-1.99,.19-.81,.14-1.56,.57-2.1,1.19-.2,.23-.38,.5-.63,.67-.29,.2-.64,.27-.97,.39-.85,.33-1.56,1.08-2.47,1.09-.2,0-.4-.03-.61-.03-.38,0-.75,.09-1.12-.05-.25-.09-.53-.19-.77-.29-.54-.24-.26-.98-.13-1.4,.25-.79,.78-1.49,1.48-1.93"/><path class="cls-2" d="M132.64,70.11c.57-.42,1.26-.84,1.95-.68-.92,.17-1.69,.75-2.43,1.32-.94,.72-1.87,1.53-2.86,2.18,1.03-1.03,2.16-1.96,3.34-2.82Z"/><path class="cls-2" d="M135,70.29c.59-.59,1.25-1.21,2.08-1.27-.26,.02-.73,.47-.94,.61-.32,.22-.65,.44-.96,.68-.62,.47-1.12,1.04-1.68,1.56,.16-.52,1.1-1.17,1.51-1.58Z"/><path class="cls-2" d="M137.93,69.94c.2-.09,.4-.19,.62-.18-.51-.01-1.49,.79-1.92,1.06-.49,.31-1.25,1.1-1.77,1.2,.58-1.01,2.06-1.6,3.07-2.08Z"/><path class="cls-41" d="M98.23,70.32c-.32-.33-.64-.66-1.03-.89-.53-.32-1.15-.44-1.76-.55-1.36-.23-2.76-.38-4.12-.15-2.09,.36-4,1.65-5.1,3.46-.12,.2-.22,.49-.03,.63,.11,.08,.26,.06,.39,.03,1.77-.41,3.28-2.02,5.08-1.76,.95,.13,1.73,.77,2.56,1.25,1.21,.71,2.6,1.12,4.01,1.2,.66,.04,1.32-.09,1.98-.03s1.39,.45,2.01,.19c-.06-.17-.23-.27-.41-.33s-.36-.09-.5-.2c-.09-.06-.16-.15-.23-.23-.4-.44-.92-.71-1.35-1.12-.51-.49-.99-1.01-1.48-1.52Z"/><path class="cls-2" d="M94.12,67.31c-.17,.2-.19,.5-.13,.76s.21,.49,.35,.71c.32,.51,.64,1.02,.97,1.52-.17-.39-1.43-2.67-1.2-2.99Z"/><path d="M133.22,88.39c.06,.37,.19,.74,.45,1.02,.38,.4,.97,.51,1.52,.59,1.53,.24,3.12,.48,4.62,.1,.14-.03,.28-.08,.39-.16,.11-.08,.19-.18,.26-.29,.58-.87,.76-2,.51-3.01-.23-.92-.96-1.27-1.77-1.66-.96-.47-2.04-.5-3.1-.58-1.16-.09-1.64,.19-2.24,1.22-.47,.8-.79,1.83-.63,2.77Z"/><path d="M129.49,86.97c2.04-1.68,5.18-2.23,7.39-2.29,1.44-.04,2.84,.57,4.1,1.27,1.1,.61,2.65,1.63,3.14,2.81,.49,1.19,1.75,.53,2.48,1.2-1.55-1.59-2.34-3.82-3.99-5.3-1.7-1.53-4.16-2.05-6.42-1.72-2.79,.41-5.44,1.86-7.16,4.07"/><path d="M139.57,81.81c.04,.24,.07,.47,.07,.71,.01,.46,0,1.24-.34,1.58-.18-.24-.06-.56,.04-.81,.18-.48,.4-.96,.23-1.49Z"/><path d="M143.1,85.05c.28-.31,.57-.63,.7-1.03-.09,.28-.62,.64-.85,.82-.32,.26-.79,.44-1.08,.73-.26,.26-.19,.4,.18,.3,.42-.12,.76-.51,1.04-.81Z"/><path d="M143.86,87.16c.6-.18,1.16-.45,1.67-.81,.24-.17,.49-.39,.54-.68-.52,.42-1.07,.81-1.68,1.08-.57,.24-1.11,.29-1.71,.33,.2,.33,.88,.17,1.18,.08Z"/><path d="M146.96,88.08s.09-.09,.12-.15c.03-.06,.05-.14,.12-.14-.38,.4-.89,.64-1.4,.87-.18,.08-.36,.16-.56,.2-.26,.05-.52,.02-.78,0,.26,.69,2.2-.48,2.5-.78Z"/><path d="M129.75,82.73c.28,.89,.89,1.97,1.73,2.43,.11-.3-.63-.85-.83-1.08-.31-.38-.75-.88-.9-1.35Z"/><path class="cls-21" d="M144.63,84.69c.63,.6,1.26,1.2,1.83,1.85s1.03,1.43,1.51,2.15c-.41-.93-.95-1.8-1.59-2.58-.28-.34-.53-.72-.8-1.06-.3-.38-.65-.87-.96-1.23-.62-.7-1.32-1.13-2.1-1.66-1.19-.79-2.59-1.24-4-1.41s-2.87-.18-4.28,.06c-1.55,.26-2.99,.86-4.26,1.82-.96,.73-1.88,1.7-2.51,2.73,.47-.02,1.2-.91,1.58-1.21,.57-.45,1.16-.89,1.78-1.27,1.27-.79,2.73-1.22,4.22-1.36,.89-.08,1.76-.17,2.65-.09,.56,.05,2.73,.4,3.26,.61,.57,.23,1.88,1.06,2.05,1.19,.02,.01,1.3,1.14,1.63,1.45Z"/><path class="cls-2" d="M133.32,94.12c.83,.43,1.66,.88,2.54,1.2,.75,.27,1.54,.46,2.32,.61s1.61,.1,2.43,.17c1.43,.12,2.74,.79,4,1.46-.2-.23-.47-.39-.74-.54-.28-.16-.56-.32-.84-.48-.46-.26-.92-.52-1.43-.69-1.21-.41-2.55-.13-3.73-.57-.97-.36-1.96-.6-2.91-1.03-.59-.27-1.17-.49-1.77-.73-.48-.19-.96-.39-1.44-.57-1.06-.4-2.35-1.05-3.49-1.1,1.67,.79,3.41,1.44,5.06,2.29Z"/><path class="cls-49" d="M146.53,90.93c1.06,.04,1.9,.86,2.87,1.3,.74,.34,1.58,.46,2.38,.34-1.87,.02-3.42-1.54-5.27-1.76,.31,.07,.61,.21,.87,.39"/><path class="cls-51" d="M130.52,115.1c1.29,1.24,2.67,2.43,3.61,3.96,.94,1.52,1.39,3.48,.68,5.12,1.15-.73,1.49-2.33,1.12-3.64-.37-1.31-1.17-2.69-2.12-3.66-1.91-1.97-3.97-3.71-5.79-5.77-1.78-2.01-3.56-4.16-3.92-6.87-.92,1.29,1.2,4.48,1.91,5.6,1.25,1.95,2.83,3.67,4.5,5.27Z"/><path class="cls-51" d="M98.36,111.42c-.12,.24-.23,.5-.32,.77-.4,1.19-.77,2.43-.78,3.69,0,1.02,.66,1.72,.62,2.73,0-1.94,.22-3.88,.94-5.69,.52-1.32,1.15-2.6,1.99-3.75,.17-.23,1.1-1.73,1.33-1.73-.68,.47-1.33,1-1.92,1.59-.76,.76-1.4,1.47-1.86,2.39Z"/><path class="cls-47" d="M105.44,107.88c-.17,0-.34,.03-.51,.05-.62,.11-1.24,.31-1.87,.28-1.65-.08-1.69-1.82-1.36-3.07,.51-1.96,1.98-3.6,3.78-4.55s3.89-1.23,5.91-1.05c.91,.08,1.84,.26,2.63,.71,.97,.55,1.69,1.47,2.69,1.97,1.36,.67,2.99,.43,4.47,.77,.49,.11,.98,.3,1.34,.65,.3,.29,.49,.68,.63,1.07,.38,1.14,.3,2.48-.26,3.55-.5,.96-1.98,1.73-3.04,1.73-.36,0-.72-.08-1.08-.17-1.07-.28-2.12-.66-3.22-.84s-2.27-.14-3.24,.41c-.33,.19-.64,.44-.99,.59-.61,.26-1.31,.21-1.98,.14-.57-.06-1.17-.16-1.6-.54-.41-.37-.58-.96-1-1.31-.36-.3-.83-.39-1.3-.37Z"/><path class="cls-51" d="M123.58,104.01c.16,.81,.26,1.65,.13,2.47-.17,1.06-.75,2.05-1.59,2.72s-1.93,1.01-3,.94c.82-.33,1.59-.78,2.28-1.33,.34-.27,.66-.57,.9-.94,.3-.46,.43-1.01,.52-1.56,.28-1.83-.22-3.36-.62-5.08,.86,.59,1.19,1.79,1.38,2.76Z"/><path class="cls-21" d="M105.19,107.1c-.43-.07-.81,0-.94,.47-.2,.73,.88,1.04,1.4,.92,.22-.05,.44-.16,.66-.12,.69,.11,.78,1.38,1.48,1.35,.02-.86-.48-1.71-1.25-2.09-.27-.13-.84-.44-1.35-.53Z"/><path class="cls-21" d="M112.17,109.33c.16-.39,.56-.63,.94-.82,1.38-.68,3.04-.79,4.48-.18,.27,.11,2.41,1.53,1.29,1.41-1.37-.14-2.67-.87-4.04-.78-.98,.06-1.96,.54-2.91,.3,.6-.57,1.37-.95,2.19-1.07"/><path class="cls-38" d="M110.47,90.35c-1.08,3.8-2.49,7.71-5.44,10.33-1.51,1.34-3.53,2.53-3.78,4.54,.49-2.67,2.37-4.83,3.75-7.17,2.17-3.7,3.11-8,3.54-12.27,.18-1.78,.28-3.59-.08-5.35-.35-1.76-1.19-3.47-2.61-4.57,1.17,.91,2.82,1.45,3.86,2.51,2.98,3.04,1.76,8.43,.75,11.97Z"/><path class="cls-34" d="M100.88,120.17c-.6-.34-1.41-.04-1.79,.53s-.37,1.33-.16,1.98,.63,1.21,1.04,1.77c.51,.68,1.03,1.37,1.7,1.88,.54,.4,1.15,.69,1.77,.95,4.56,1.97,9.46,3.31,14.43,3.34,.99,0,1.99-.04,2.94-.32,.97-.28,1.85-.79,2.73-1.29,2.01-1.15,4.05-2.32,5.63-4.01,.48-.52,.94-1.26,.6-1.88-.19-.35-.59-.54-.97-.68-2.01-.78-4.13-1.23-6.26-1.57-4.98-.79-10.04-.99-15.09-1.18-2.55-.1-5.15-.19-7.62,.43"/><path class="cls-39" d="M98.88,124.97c-.21-.73-.35-1.48-.56-2.36-.05-.19-.09-.39-.05-.59,.02-.1,.1-.21,.19-.17,.04,.01,.07,.05,.09,.09,.22,.33,.45,.66,.67,.99,.46,.68,1.1,1.46,1.69,2.04,1.06,1.05,2.61,1.47,3.98,1.96,2.15,.76,4.02,1.81,6.31,1.87,2.55,.07,4.99-.24,7.53-.43,3.91-.29,7.68-1.86,10.95-4.01-.86,1.68-2.15,3.09-3.42,4.47-.91,1-1.83,2-2.93,2.78-2.52,1.81-5.73,2.3-8.8,2.74-1.06,.15-2.13,.31-3.19,.2-1.86-.19-3.72-.72-5.54-1.12-3.17-.69-4.64-3.96-6.11-6.58-.38-.67-.61-1.28-.79-1.9Z"/><path class="cls-30" d="M103.85,122.91c.28,.24,.63,.38,.97,.5,4.07,1.41,8.49,1.29,12.79,1.14,1.22-.04,2.44-.08,3.66-.12,2.12-.07,4.24-.14,6.36-.26,.16,0,.34-.02,.47-.11,.23-.15,.27-.49,.16-.74s-.33-.43-.55-.59c-1.08-.76-2.4-1.1-3.7-1.34-4.14-.76-8.4-.6-12.58-1.06-1.98-.22-3.94-.57-5.93-.66-.93-.04-2.07-.14-2.98,.12-1.06,.31-.27,.61,.11,1.06,.52,.61,.58,1.51,1.21,2.06Z"/><path class="cls-27" d="M101.91,123.57c.04,.37,.09,.75,.29,1.05s.63,.5,.95,.33c.13-.07,.21-.14,.37-.14,.06,.34,.22,.68,.55,.86,.5,.28,1.19,.44,1.74,.46,.03,.17,.03,.33,.05,.49,.65,.43,1.5,.38,2.28,.38,1.5,0,2.99,.08,4.49,.17,1.04,.06,2.97,.61,3.76-.18,.14,.2,.34,.36,.56,.45,.62,.25,1.47,0,2.08-.21,.66-.23,1.26-.78,1.33-1.48,.15,.49,1.15,1.44,1.63,1.68,1.25,.61,1.43-1.57,2.36-1.1,.45,.23,.51,.49,1.06,.27,.51-.2,.74-.75,.92-1.23,.22-.57,.43-1.16,.46-1.77s-.17-1.27-.66-1.64c-.32-.11-.6,.23-.77,.52-.4,.68-.8,1.37-1.2,2.05,.14-.55,.17-1.13,.09-1.69-.02-.1-.04-.21-.1-.29-.08-.1-.21-.14-.34-.18-.8-.24-1.78-.43-2.39,.14-.37,.35-.62,1.25-1.18,1.25-.07-.51-.14-1.02-.35-1.5-.06-.13-.13-.27-.24-.37-.11-.1-.25-.17-.39-.21-.67-.21-1.44,0-1.97,.45-.52,.46-.82,1.13-.9,1.81,.09-.6-.5-1.56-.68-2.13-.02-.06-.04-.12-.09-.16-.04-.03-.09-.03-.14-.03-.81-.01-2.72-.4-3.35,.19-.28,.26-.43,.64-.53,1s-.19,.75-.37,1.09c-.52,.98-.87-.75-1.06-1.17-.28-.61-.67-1.29-1.41-1.39-.55-.07-1.14-.05-1.63,.21s-.87,.81-.79,1.36c-.27-.36-.29-.85-.4-1.29s-.44-.91-.89-.89c-.66,.04-.79,.96-1.22,1.46,.28-.48,.17-1.15-.25-1.52-.5-.45-1.47-.42-1.8,.21-.35,.66,.07,2,.15,2.69Z"/><path class="cls-23" d="M101.91,123.57c.04,.37,.09,.75,.29,1.05s.63,.5,.95,.33c.13-.07,.21-.14,.37-.14,.06,.34,.22,.68,.55,.86,.51,.28,1.09,.38,1.56,.71,.47-1.51,.7-3.22,.3-4.77-.11-.44-.44-.91-.89-.89-.66,.04-.79,.96-1.22,1.46,.28-.48,.17-1.15-.25-1.52-.5-.45-1.47-.42-1.8,.21-.35,.66,.07,2,.15,2.69Z"/><path class="cls-44" d="M110.68,118.38c-1.78-1.39-4.28-1.58-6.46-.99s-4.11,1.85-5.96,3.16c4.77-.89,9.56,1.92,14.39,1.49,1.13-.1,2.24-.38,3.37-.37,1.18,0,2.33,.31,3.5,.47,3.17,.43,6.54-.21,9.49,1.02-2.37-1.53-4.64-3.24-7.22-4.4-2.57-1.16-5.55-1.72-8.22-.82-.48,.16-.94,.37-1.44,.46-1.51,.27-2.97-.57-4.28-1.38"/><path class="cls-23" d="M126.36,125.81c0,.1,0,.18,.03,.22,.31,.41,1.78-.46,1.97-.74,.29-.42,.24-.98,.18-1.49-.03-.25-.06-.5-.09-.74,0-.06-.02-.12-.06-.15-.04-.03-.08-.02-.13-.02-.4,.04-.78,.25-1.02,.58-.18,.25-.83,1.73-.88,2.34Z"/><path class="cls-1" d="M106.55,112.56c.38,.44,.88,.87,.93,1.46,.08,.9-.89,1.51-1.74,1.83-2.52,.96-5.33,1.56-7.24,3.45-.8-.94-.91-2.3-.8-3.53,.22-2.39,1.13-4.71,2.58-6.62,.6-.79,1.23-1.49,2.28-1.14,.97,.33,1.86,1.16,2.74,1.67,.24,.14,.9,.37,1.04,.6,.23,.38,0,.28-.09,.65-.17,.66-.21,1.05,.3,1.64Z"/><path class="cls-4" d="M111.49,85.49c.02,.11,.04,.22,.05,.34,.21,1.47-.02,3.04-.29,4.5-1.04,5.61-5.19,10.29-10.17,13.07,.07-1.19,.75-2.24,1.19-3.34,.44-1.11,.59-2.51-.23-3.36-1.02-1.06-2.76-.62-4.24-.71-2.25-.15-4.18-1.74-6.41-2.08-.57-.09-1.24-.14-1.57-.62-.38-.55,0-1.37,.58-1.69s1.3-.31,1.97-.29c2.62,.05,5.24-.1,7.83-.46,1.59-.22,3.23-.55,4.5-1.52,1.77-1.36,2.48-3.77,2.26-5.99-.15-1.5-.71-2.87-1.35-4.22-.55-1.16-.66-2.04-1.78-2.87-.65-.47-1.36-.99-1.55-1.77,3.1,1.75,5.87,3.66,7.67,6.81,.75,1.31,1.28,2.74,1.54,4.22Z"/><path d="M95.23,84.26c-.24,.96-.07,2.02,.45,2.86,.22,.36,.52,.69,.92,.82,.26,.09,.55,.08,.83,.08,.9-.02,1.79-.04,2.69-.06,.51-.01,1.03-.03,1.48-.26,.92-.48,1.17-1.69,1.06-2.72-.09-.87-.39-1.75-1.05-2.33-.57-.51-1.35-.73-2.1-.87-2.02-.38-3.76,.34-4.29,2.49Z"/><path class="cls-35" d="M94.48,80.82c1.07-.22,2.27-.31,3.37-.25,1.97,.1,3.41,1.85,5.16,2.57,.5,.21,.76,.49,.87,.97-1.3-.8-4.83-2.46-6.16-2.68-3.14-.51-3.42,.76-6.12,2.11-.34,.17-.67,.35-.98,.56-.87,.6-1.59,1.45-2.73,1.62,.35-.53,.71-1.06,1.06-1.59,.27-.41,.55-.82,.92-1.17,.21-.2,.45-.38,.7-.55,1.12-.76,2.48-1.3,3.91-1.59Z"/><path d="M90.96,84.61c-.45,.5-3.35,3.34-3.9,2.72,1-1.22,1.87-2.56,2.9-3.76,1.55-1.8,3.83-2.96,6.2-3.13,2.05-.15,4.13,.44,5.81,1.6s2.68,3.16,3.97,4.69c.12,.14,.24,.3,.26,.48,.02,.3-.26,.55-.56,.59s-.59-.05-.87-.15c.18-.15,.45-.23,.68-.24s.3-.08,.27-.31c-.01-.1-.08-.18-.15-.26-1.78-1.95-3.47-3.93-5.98-4.75-2.22-.72-4.8-.18-6.73,1.13-.69,.47-1.26,.87-1.87,1.45l-1.63,1.55s-.3,.16-.28,.14c.92-.89,1.88-1.74,2.87-2.56"/><path d="M93.47,80.66c-.38-.47-.44-1.16-.89-1.58,.79,.75,.58,2.45,1.92,2.65,0-.48-.76-.73-1.03-1.07Z"/><path d="M91.33,82c-.4-.36-.66-.92-.52-1.44-.18,.68,1.2,1.73,1.64,2.02-.41-.07-.82-.31-1.12-.58Z"/><path d="M88.75,82.49c-.4-.24-.82-.49-1.03-.91,.2,.4,1.2,.76,1.59,.94,.55,.26,1.14,.43,1.68,.7-.46,.45-1.8-.47-2.24-.73Z"/><path d="M88.47,84.2c-.28-.08-.54-.24-.78-.4-.4-.26-.81-.51-1.21-.77-.14-.09-.3-.21-.3-.38,.19,.1,.39,.2,.58,.3,1.2,.63,2.31,1.09,3.68,1.1-.56,.21-1.39,.31-1.97,.14Z"/><path class="cls-50" d="M95.78,88.72c2.55-.02,5.07-.42,7.58-.84-.76,.06-1.52,.12-2.28,.19-2.35,.19-4.75,.38-7.06-.14-1.48-.33-2.88-.95-4.26-1.58-.38-.17-.58,.07-.95,.26s-.7,.45-1.04,.69c-.55,.39-1.16,.7-1.8,.92,.71-.24,1.38-.49,2.05-.83,.55-.28,1.24-.74,1.89-.5,.16,.06,.29,.16,.43,.25,1.7,1.18,3.37,1.59,5.43,1.58Z"/><path class="cls-21" d="M102.75,81.6c1.32,1.38,2.18,3.16,3.61,4.43-1.16-1.03-2.08-2.24-3.14-3.35-.16-.16-.31-.32-.46-.48-.3-.3-.61-.58-1-.8-.72-.41-1.45-.8-2.22-1.1-2.97-1.14-6.34-.85-9.04,.8-.54,.33-1.47,1.09-1.4,1.82-.08-.84,.32-1.67,.91-2.27,.59-.6,1.37-.98,2.16-1.27,4.32-1.56,8.82,0,11.82,3.31,.47,.51,.87,1.09,1.2,1.7,.32,.59,.58,1.25,1.09,1.69"/><path d="M101.51,79.35c-.52,.65-.98,1.29-1.27,2.08-.19-.33,.16-.88,.34-1.2,.25-.44,.68-.55,.94-.88Z"/><path class="cls-48" d="M100.67,144.12c1.92-2.09,4.42-3.64,7.15-4.43,1.54-.44,3.16-.64,4.74-.42,2.08,.3,3.99,1.31,5.75,2.45,.88,.57,1.76,1.2,2.32,2.08s.76,2.07,.23,2.98c-.73,1.24-2.49,1.45-3.84,.96-1.35-.49-2.43-1.49-3.64-2.27-3.49-2.24-8.19-2.44-11.85-.51-.46,.24-1.11,.48-1.42,.05-.3-.43,.14-.98,.56-1.29,2.29-1.73,4.88-3.06,7.62-3.91"/><path class="cls-25" d="M134.88,103.6c-2.5-.09-4.9,1.95-5.21,4.44-.16,1.31,.2,2.62,.69,3.84,.94,2.32,2.69,4.61,5.16,4.95,.86,.12,1.74-.01,2.59-.17,1.36-.25,2.73-.58,3.92-1.27s2.2-1.82,2.46-3.18c.3-1.54-.4-3.13-1.47-4.28s-2.45-1.93-3.82-2.69c-1.47-.81-3.03-1.64-4.71-1.65-1.68-.01-3.5,1.09-3.68,2.77"/><g class="cls-45"><path class="cls-7" d="M101.25,147.87c1.41-3.96,.43-8.67-2.45-11.73-.37-.4-.81-.78-1.34-.88-.75-.14-1.47,.32-2.23,.35-1.25,.06-2.28-1.04-2.72-2.2-.44-1.17-.47-2.45-.8-3.65-.66-2.44-2.46-4.37-3.88-6.46-2.3-3.37-4.87-7.43-5.38-11.57-.03,1.77-.01,3.55,.31,5.29,.97,5.28,3.72,10.08,6.4,14.58,3.15,5.28,5.66,10.74,9.52,15.59,.51,.64,1.03,1.28,1.53,1.94,.54-.15,.85-.73,1.05-1.27Z"/><path class="cls-8" d="M160.54,67.81c-1.51-8.77-3.75-19.11-10.81-25.48-5.59-5.04-13.55-6.82-21.15-8.1-4.07-.69-8.34-.6-12.45-.72-4.44-.13-8.93,.94-12.8,3.12-7.16,4.03-9.95,10.81-13.31,17.83-1.89,3.95-3.21,8.15-4.23,12.4-.52,2.14-.95,4.31-1.35,6.48-.2,1.1-.21,4.9-.97,5.64,.36-.35,.79-.67,1.33-.94,1.11-.55,2.53-.84,3.05-1.92,.84-1.72-1.36-3.32-2.02-5.1-.67-1.83,.45-3.9,2.11-5.03,1.66-1.12,3.74-1.5,5.76-1.8s4.1-.55,5.89-1.48c8.06-4.18,.64-17.61,12.24-18.96,3.04-.35,5.92-1.25,8.93-1.79,4.03-.72,8.28-.22,12.03,1.35,3.61,1.51,7.8,3.67,10.93,5.97,1.41,1.04,3.34,2.38,4.48,3.66,1.54,1.73,1.19,4.54,1.79,6.6,.72,2.44,2.53,4.44,3.62,6.75,1.48,3.12,2.04,7.33,2.37,10.72,.43,4.42-1.21,8.69-.19,13.18,.6,2.64,1.88,5.13,2.18,7.82,.29,2.62-.36,5.2-.88,7.75-.54,2.59-.52,5.08-.79,7.68-.24,2.35-.05,4.16,.62,6.49,.14,.47,.42,1.26,.71,2.16,.6-2.16,1.13-4.33,1.65-6.51,1.14-4.79,2.28-9.59,2.92-14.46,.04-.27,.06-.54,.09-.81,.05-3.76,.34-7.51,.53-11.27-.14-7.12-1.06-14.23-2.27-21.25Z"/><path class="cls-6" d="M97.52,98.74c-3.11-1.21-6.7-1.26-9.48-3.12-2.48-1.67-3.91-4.57-4.43-7.52-1.15,7.88-3.73,18.19-.73,25.88-2.49-6.38,7.07-9.92,11.57-10.39,1.2-.13,2.47-.19,3.5-.82,1.03-.64,1.67-2.1,.97-3.09-.33-.46-.87-.73-1.4-.93Z"/></g><path class="cls-10" d="M158.93,150.83c1.49,5.07,3.95,9.8,6.4,14.49,.21,.4,.44,.82,.81,1.08,.73,.5,1.73,.2,2.53-.16s1.7-.79,2.54-.5,1.12,1.74,.27,1.98c4.26-.88,8.25-3.04,11.32-6.12-.89,1.77-1.95,3.45-3.17,5.01,3.14-1.75,5.87-4.22,7.92-7.17,.46-.66,.89-1.39,.89-2.18,0-.69-.34-1.34-.69-1.93-3.88-6.48-10.77-10.15-16.87-14.2-3.19-2.12-5.82-4.56-8.69-7.04-2.98-2.57-4-.84-4.41,2.52-.57,4.74-.2,9.64,1.14,14.22Z"/><path class="cls-32" d="M120.15,28.91c5.81-8.46,17.95-10.78,27.69-7.53,9.74,3.25,20.92,9.85,26.95,18.15,12.18,16.76,15.72,37.7,22.12,57.4,4.88,15.01,9.51,30.55,8.34,46.29-.18,2.38-.5,4.8-1.54,6.94-.71,1.47-1.73,2.76-2.73,4.04-3.34,4.24-6.93,8.66-11.97,10.58,1.11-1.1,1.96-2.46,2.45-3.95-2.42,1.53-5.07,2.69-7.84,3.41,1.1-.71,1.94-1.83,2.3-3.09-4.23,3.84-9.32,6.73-14.79,8.37,1.83-1.84,3.67-3.67,5.5-5.51-4.86,4-10.95,6.49-17.22,7.05,7.54-5.65,12.51-14.22,15.33-23.21,2.82-8.99,3.66-18.48,4.23-27.88,.62-9.99,.96-20.05-.23-29.98-2.02-16.79-8.36-32.79-16.03-47.86-3.42-6.72-7.51-13.69-14.29-17-5.19-2.53-11.46-2.49-16.85-.4-5.39,2.09-9.91,6.11-13.12,10.91-.88-3.45,.96-7.13,3.66-9.45,2.7-2.31,6.15-3.54,9.51-4.71"/><path class="cls-43" d="M126.53,26.86c-1.78,.98-3.38,2.28-4.72,3.8-.93,1.05-3.03,3.31-2.8,4.8,2.01,.03,4.33-.98,6.45-1.09,2.32-.12,4.66,.06,6.95,.46,3.62,.64,7.12,1.8,10.53,3.15,2.68,1.06,4.25,3.14,6.08,5.34,4.21,5.08,6.89,11.32,8.44,17.7,2.11,8.72,2.27,17.77,2.59,26.73,.34,9.55,.89,19.12,.53,28.67-.13,3.56-.4,7.14-1.41,10.55-1.86,6.29-6.09,11.55-10.23,16.63,3.64-1.46,6.88-3.89,9.29-6.99-2.43,4.83-5.38,9.4-8.77,13.62,3.22-.97,6.14-2.93,8.25-5.55,.23,3.9-.92,7.86-3.18,11.04,3.13-2.41,5.7-5.53,7.48-9.05-.44,8.41-4.73,16.54-11.41,21.66,6.36-1.44,12-5.83,14.96-11.65,.07,6.05-2.53,12.09-6.97,16.19,3.74-2.4,7.32-5.15,10.01-8.68,2.51-3.29,4.16-7.13,5.65-10.99,7.91-20.49,11.84-42.5,11.51-64.46-.13-8.35-.9-16.85-4.16-24.54-2.21-5.19-5.48-9.85-8.73-14.46-4.42-6.28-8.84-12.55-13.26-18.83-3.02-4.29-6.3-8.79-11.16-10.77-4.37-1.78-9.46-1.18-13.74,.8-4.28,1.99-7.85,5.24-10.98,8.77,2.92-3.46,4.95-5.25,8.83-7.59"/><path class="cls-2" d="M144.18,39.31c7.3,4.92,12.34,13.07,13.48,21.8,.78-3.09,.6-6.36,.05-9.5-1.01-5.72-3.32-11.34-7.38-15.49-3.87-3.97-9.25-6.42-14.78-6.76-3.28-.2-6.61,.35-9.67,1.55-.75,.29-4.49,1.61-4.56,2.52-.12,1.56,2.63,.72,3.51,.67,6.78-.4,13.7,1.42,19.35,5.22Z"/><path class="cls-28" d="M126.72,28.71c-3.06,.94-5.71,3.12-7.23,5.93,3.56-2.15,7.43-3.97,11.56-4.41,6.14-.65,12.4,1.91,16.81,6.23,4.4,4.32,7.03,10.27,7.93,16.38,.52,3.49,.49,7.02,.46,10.54-.03,3.09,.86,6.1,1.44,9.16,1.15,6.07,2.3,12.16,2.79,18.32,.25,3.14,.27,6.26,.16,9.41-.08,2.43,.68,4.67,1.1,7.07,1.53,8.81,1.46,18.47-2.85,26.58-4.26,8-12.03,14.05-20.84,16.22,9.19-1.66,17.45-7.81,21.68-16.14,.47,12.59-5.39,25.25-15.28,33.05,7.91-5.59,13.48-14,17.16-22.96,3.68-8.96,5.6-18.53,7.41-28.04,2.31-12.16,4.47-24.69,2.11-36.84-1.54-7.93-4.96-15.36-8.34-22.7-2.05-4.44-4.1-8.87-6.39-13.18-4.09-7.69-9.82-15.58-18.34-17.4-6.77-1.44-14.27,1.75-17.93,7.62,2.2-3.34,5.26-5.52,9.1-6.65"/><path class="cls-3" d="M161.22,91.98c.3,5.93,.6,11.94-.56,17.76-1.16,5.83-3.95,11.55-8.74,15.06"/><path class="cls-23" d="M111.01,124.19c-.2,.86-.24,1.75-.12,2.63,.12-.99,.26-1.97,.43-2.94-.32,.33-.4,.82-.46,1.28"/><path class="cls-5" d="M124.14,89.52c1.44,2.57,2.88,5.14,4.33,7.71,.52,.93,1.06,1.88,1.83,2.62,1.89,1.82,4.76,2.06,7.39,2.12,.91,.02,1.86,.02,2.66-.41s1.36-1.45,.98-2.27c-.21-.45-.65-.75-1.08-1.01-5.39-3.25-12.41-4.42-16.03-9.57-.02,2.25,1.62,4.41,3.8,4.99"/><path class="cls-1" d="M96.68,123.36c-.67,2.11-.14,4.39,.42,6.53-.52-2.19-.47-4.52,.15-6.69,.14-.5,.38-.79,.29-1.23-.45,.32-.69,.87-.86,1.4Z"/><path class="cls-52" d="M89.07,122.68c-.21,1.07-.03,2.26,.68,3.1-1.18-.53-1.93-1.9-1.73-3.18,.13-.86,.84-2.05,1.75-2.1-.02,.69-.56,1.44-.7,2.18Z"/><path class="cls-49" d="M118.46,93.43c-.3,.43,.34,1.04,.81,.81,.34-.17,.48-.66,.25-.97s-.76-.32-.98,0-.01,.83,.36,.88"/><path class="cls-49" d="M119.69,90.29c-.35-.14-.78,.2-.75,.58s.48,.64,.83,.51,.52-.61,.34-.94c-.26-.01-.52-.02-.78-.04"/><path class="cls-49" d="M115.96,89.39c-.34,.26-.42,.8-.15,1.13s.86,.32,1.1-.03,0-.93-.42-.98c-.49-.06-.82,.46-1.03,.91"/><path class="cls-49" d="M124.51,92.99c-.16-.22-.57-.07-.59,.2s.26,.5,.53,.48,.49-.24,.59-.49c-.16-.34-.61-.52-.96-.37"/><path class="cls-49" d="M123.26,89.84c-.42-.05-.68,.62-.35,.88s.91-.12,.81-.53-.77-.51-.99-.15c.16-.06,.33-.12,.49-.18"/><g class="cls-17"><path class="cls-11" d="M81.29,182.33c-10.49,3.89-17.2,14.32-20.76,24.93-3.55,10.61-4.7,21.9-8.22,32.52-4.04,12.22-11.14,23.3-14.62,35.69-2.17,7.74-2.88,15.8-3.58,23.8-.8,9.22-1.1,18.51-2.64,27.65-.93,5.5-.94,5.67,4.05,7.37,4.73,1.61,9.42,3.39,14.12,5.08,7.39,2.66,15.21,3.01,22.34,6.63-1.32-.53,.04-11.28,.25-12.86,.84-6.46,1.21-12.96,1.36-19.47,.31-12.78-.12-25.6,1.24-38.33,1.74-16.18,3.47-32.37,5.21-48.55,1.62-15.06,5.91-30.23,1.44-45.23"/><path class="cls-18" d="M82.22,266.84c-1.39,6.74-4,12.88-6.49,19.3-1.05,2.7-2.11,5.44-2.4,8.32,.73-8.76,.01-17.55,.77-26.35,.71-8.3-.65-16.44-.19-24.8,.82-15.09,5.33-29.85,5.63-44.96,.16-8.04-.67-16.85,4.04-23.37,4.2-5.81,12.07-8.15,18.59-10.2,.33-.1,.69-.21,1.01-.07,.38,.17,.54,.61,.66,1,1.09,3.82,.43,6.34-.94,9.99-1.35,3.59-3.32,6.93-4.7,10.51-1.53,3.96-2.31,8.17-3.09,12.35-2.5,13.41-4.99,26.83-7.49,40.24-1.74,9.35-3.48,18.71-5.41,28.02Z"/><path class="cls-14" d="M255.37,307.47c-.45,2.42-1.71,4.62-4.16,6.71-3.09,2.63-6.21,5.29-9.81,7.17-6.13,3.2-13.19,3.95-19.93,5.5-10.2,2.35-19.83,6.62-29.61,10.36-15.6,5.96-31.7,10.61-48.07,13.88-9,1.8-18.18,3.19-27.32,2.43-15.24-1.25-29.94-8.41-45.17-7,.18-6.68,.83-13.34,1.43-19.99,.55-6.08,.12-12.12,.55-18.2,.24-3.33-.6-6.3-.51-9.64,.09-3.29,1.13-6.82,1.85-10.05,.92-4.14,2.42-7.54,4.18-11.27,1.95-4.1,2.33-8.87,4.14-13.06,1.49-3.44,3.66-6.54,5.81-9.61,3.95-5.63,7.92-11.28,12.65-16.26,3.65-3.85,7.74-7.29,11-11.47,2.21-2.83,4.01-5.96,6.07-8.89,7.45-10.56,18.15-18.28,28.65-25.8,2.53-1.81,5.15-3.67,8.18-4.39,1.82-.43,3.71-.44,5.57-.54,8.46-.46,16.47-3.81,24.95-3.29,7.42,.45,14.82,3.13,20.36,8.16,4.06,3.69,7.28,8.66,10.69,12.94,1.33,1.67,2.66,3.35,3.82,5.14,1.4,2.18,2.53,4.52,3.66,6.85,5.41,11.2,9.84,22.83,15.17,34.04,2.93,6.15,6.13,12.17,8.76,18.46,2.37,5.66,2.11,11.73,5.2,17.28,1.09,1.96,2.45,4.11,1.84,6.27-.28,.98-.94,1.83-1.15,2.83-.24,1.17,.18,2.36,.49,3.51,.79,2.94,1.13,5.55,.7,7.93Z"/></g><path class="cls-29" d="M78.92,187.89c4-2.93,9.71-3.14,14.18-5.02-4.66,.34-9.81,2.09-14.24,3.44,0,.52,.09,1.05,.06,1.59Z"/><path class="cls-19" d="M186.33,174.39c-3.82-1.99-8.13-4.03-12.27-2.85-3.72,1.06-6.22,4.41-9.05,7.06-2.81,2.64-6.06,4.6-9.44,6.35-2.95,1.52-5.06,3.68-7.63,5.81-1.65,1.37-3.48,2.52-5.43,3.41-4.28,1.97-7.25,4.14-10.73,7.31-5.54,5.05-12.43,11.42-14.71,18.8,3.22-3.19,6.45-6.39,9.67-9.58,1.83-1.82,3.67-3.64,5.73-5.2,3.58-2.72,6.78-6.2,10.46-8.71,2.46-1.68,5.53-2.49,7.6-4.64,1.26-1.31,2.32-3.21,4.14-3.33,.97-.06,1.87,.43,2.74,.87,1.88,.95,3.87,1.69,5.92,2.21,1.68,.42,3.5,.69,5.11,.04,3.18-1.29,4.42-5.65,7.73-6.55,1.1-.3,2.27-.15,3.39,.03,10.82,1.8,20.98,7.33,28.36,15.43,.31,.34,.65,.7,1.1,.74,.76,.07,1.25-.76,1.53-1.46,.66-1.65,1.24-3.33,1.73-5.03-1.74-2.75-4.2-4.95-6.69-7.04-7.26-6.07-15.12-11.42-23.43-15.95"/><path class="cls-28" d="M174.09,159.94c3.92-3.27,5.66-8.42,6.94-13.36,2.58-10.05,4.83-20.48,4.46-30.91-.1-2.83-.18-5.65-1.11-8.33-1-2.87-2.47-5.57-4.34-7.96,1.26,2.52,2.14,5.15,2.91,7.85,.65,2.29,1.21,4.72,1.45,7.14,.24,2.39,.61,4.7,.46,7.11-.29,4.51-1.04,8.98-2.09,13.38-1.06,4.46-2.43,8.84-3.97,13.15-1.05,2.94-2.37,9.99-4.7,11.93Z"/><path class="cls-9" d="M193.76,131.77c-.05,3.85-.41,7.72-1.4,11.45-2.23,8.4-7.73,15.88-15.08,20.51,7.8-8.27,12.9-19.04,14.37-30.32,1.13-8.69-.01-17.33-2.79-25.6,3.49,7.54,5.02,15.66,4.91,23.96Z"/><path class="cls-12" d="M107.89,28.24c-4.49,.88-7.85,4.57-10.6,8.23-4.77,6.35-8.93,13.72-8.76,21.66,2.7-6.56,5.59-13.38,10.99-17.98,2.25-1.92,4.87-3.36,7.64-4.39,2.62-.97,6.87-.66,9.13-1.91s2.59-1.45-.4-3.77c-2.18-1.69-5.32-2.36-8.01-1.84Z"/><path class="cls-3" d="M139.69,27.88c2.02-.31,4.04,.42,5.95,1.13,2.39,.89,4.15,3.02,5.87,4.83,1.79,1.89,3.5,3.87,5.1,5.91,3.97,5.06,7.37,10.58,10.1,16.4,2.72,5.79,4.78,11.9,6.11,18.16,.78,3.69,1.32,7.46,1.13,11.23-.42,8.49-4.42,16.33-8.33,23.87"/><path class="cls-29" d="M104.09,174.28c-1.34,3.77-3.75,7.1-4.89,10.92-1.08,3.61-2.15,7.32-3.12,11-.53,2-1.05,3.99-1.58,5.99-.19-10.69,.6-21.96,5.84-31.54,.57-1.05,2.82-6.8,4.45-5.93,1.76,.94-.07,7.72-.52,9.06-.06,.17-.12,.34-.18,.51Z"/><path class="cls-29" d="M181.25,175.71c-1.24,2.95-2.51,5.95-4.5,8.46-.56,.7-1.18,1.44-1.95,1.9-.23-1.26,2.33-3.85,3.08-4.97,1.13-1.69,2.58-3.51,3.37-5.39Z"/></g></svg>