<?xml version="1.0" encoding="UTF-8"?><svg id="Anonym" xmlns="http://www.w3.org/2000/svg" xmlns:xlink="http://www.w3.org/1999/xlink" viewBox="0 0 262 280"><defs><style>.cls-1,.cls-2{fill:none;}.cls-3{fill:url(#Namnlös_övertoning_2556);}.cls-4{fill:url(#linear-gradient);opacity:.6;}.cls-5{clip-path:url(#clippath);}.cls-6{fill:#e7c0a1;}.cls-7{fill:#b69d89;}.cls-8{fill:#d5e9f6;}.cls-9,.cls-10{fill:#6d7f87;}.cls-11{fill:#5a6e77;}.cls-12{fill:url(#Namnlös_övertoning_85-8);}.cls-12,.cls-13,.cls-14{opacity:.47;}.cls-13{fill:url(#Namnlös_övertoning_85-7);}.cls-15{fill:url(#Namnlös_övertoning_85-9);opacity:.43;}.cls-16{fill:url(#Namnlös_övertoning_85-5);}.cls-16,.cls-17,.cls-18,.cls-19,.cls-20{opacity:.73;}.cls-17{fill:url(#Namnlös_övertoning_85-4);}.cls-18{fill:url(#Namnlös_övertoning_85-3);}.cls-19{fill:url(#Namnlös_övertoning_85-2);}.cls-20{fill:url(#Namnlös_övertoning_85-6);}.cls-21{fill:url(#Namnlös_övertoning_373);}.cls-10{opacity:.33;}.cls-14{fill:url(#Namnlös_övertoning_85);}.cls-2{stroke:#6d7f87;stroke-miterlimit:10;stroke-width:.5px;}</style><linearGradient id="Namnlös_övertoning_85" x1="109.88" y1="172.65" x2="154.04" y2="163.59" gradientTransform="translate(268.25) rotate(-180) scale(1 -1)" gradientUnits="userSpaceOnUse"><stop offset="0" stop-color="#aa8260"/><stop offset="1" stop-color="#d0997d"/></linearGradient><linearGradient id="Namnlös_övertoning_2556" x1="19.39" y1="220.24" x2="245.08" y2="220.24" gradientUnits="userSpaceOnUse"><stop offset="0" stop-color="#b3cbd7"/><stop offset="1" stop-color="#9ab9ca"/></linearGradient><linearGradient id="linear-gradient" x1="97.91" y1="155.74" x2="60.38" y2="156.56" gradientTransform="translate(241.4 12.92) rotate(-174.42) scale(1 -1)" gradientUnits="userSpaceOnUse"><stop offset="0" stop-color="#b9876f"/><stop offset="1" stop-color="#ddaf8f"/></linearGradient><linearGradient id="Namnlös_övertoning_373" x1="166.44" y1="107" x2="175.46" y2="107" gradientUnits="userSpaceOnUse"><stop offset="0" stop-color="#c3997d"/><stop offset="1" stop-color="#e7c5a3"/></linearGradient><linearGradient id="Namnlös_övertoning_85-2" x1="161.1" y1="41.93" x2="163.86" y2="41.93" gradientTransform="translate(-26.89 -8.78) rotate(5.58) scale(1.01)" xlink:href="#Namnlös_övertoning_85"/><linearGradient id="Namnlös_övertoning_85-3" x1="160.7" y1="41.86" x2="161.1" y2="41.86" gradientTransform="translate(-26.89 -8.78) rotate(5.58) scale(1.01)" xlink:href="#Namnlös_övertoning_85"/><linearGradient id="Namnlös_övertoning_85-4" x1="160.44" y1="41.85" x2="160.7" y2="41.85" gradientTransform="translate(-26.89 -8.78) rotate(5.58) scale(1.01)" xlink:href="#Namnlös_övertoning_85"/><linearGradient id="Namnlös_övertoning_85-5" x1="160.21" y1="41.84" x2="160.44" y2="41.84" gradientTransform="translate(-26.89 -8.78) rotate(5.58) scale(1.01)" xlink:href="#Namnlös_övertoning_85"/><linearGradient id="Namnlös_övertoning_85-6" x1="159.49" y1="41.82" x2="160.21" y2="41.82" gradientTransform="translate(-26.89 -8.78) rotate(5.58) scale(1.01)" xlink:href="#Namnlös_övertoning_85"/><linearGradient id="Namnlös_övertoning_85-7" x1="84.35" y1="109.12" x2="125.45" y2="109.12" gradientTransform="matrix(1, 0, 0, 1, 0, 0)" xlink:href="#Namnlös_övertoning_85"/><clipPath id="clippath"><path class="cls-1" d="M99.62,54.9c-5,3.65-8.58,9.01-10.56,14.83-2.18,6.39-3.96,13.03-4.34,19.8-.27,4.88,.23,9.76,.6,14.62,.17,2.22,.42,4.51,.47,6.73s-.46,4.5-.51,6.75c-.19,9.19,2.56,18.15,6.42,26.4,2.13,4.54,5.44,7.98,8.54,11.83,2.82,3.5,5.41,7.6,8.84,10.55,4.62,3.97,11.13,3.2,16.7,3,4.3-.15,8.51-1.24,12.29-3.3,4.03-2.19,6.82-5.8,10.66-8.12,0,0,5.71-3.41,10.63-9.92,0,0,6.08-6.39,8.03-16.79,0,0,2.2-15.37,2.18-26.25,0,0-2.38-26.7-14.37-42.72,0,0-7.1-9.44-20.83-12.47-10.46-2.31-25.48-1.71-34.75,5.06Z"/></clipPath><linearGradient id="Namnlös_övertoning_85-8" x1="73.31" y1="83.07" x2="175.4" y2="83.07" gradientTransform="matrix(1, 0, 0, 1, 0, 0)" xlink:href="#Namnlös_övertoning_85"/><linearGradient id="Namnlös_övertoning_85-9" x1="83.92" y1="73.71" x2="158.05" y2="73.71" gradientTransform="matrix(1, 0, 0, 1, 0, 0)" xlink:href="#Namnlös_övertoning_85"/></defs><g id="BG-3"><circle class="cls-8" cx="131.31" cy="131.48" r="129"/></g><path class="cls-9" d="M71.47,136.98c.74,3.34,1.61,6.62,2.57,9.82,2.77,9.26,6.78,18.19,12.14,26.25,2.05,3.08,3.91,6.03,7.41,7.47,4.15,1.71,8.03,3.56,11.97,5.78,.72,.41,1.62,.82,2.32,.37,.45-.29,.67-.84,.86-1.37,4.09-11.76,3.39-28.35-7.52-36.06-10.8-7.64-11.78-15.49-11.15-28.83,.48-10.26,.97-20.52,1.45-30.77,.1-2.11,.11-4.48-1.37-5.99-1.64-1.68-4.36-1.54-6.66-1.06-13.52,2.83-12.18,7.76-13.97,19.87-1.66,11.23-.57,23.21,1.95,34.54Z"/><path class="cls-9" d="M183.98,141.64c-2.98,11.95-10.04,23.38-18.39,31.92-2.26,2.31-7.21,7.34-10.9,5.08-3.88-2.37-1.45-9.98-.87-13.83,3.97-26.69,18.23-51.86,15.73-79.52,3.85,2.19,10.03,4.62,13,8.05s2.62,6.59,2.71,11.44c.23,12.12,1.65,25.09-1.29,36.85Z"/><path class="cls-11" d="M101.15,165.01c1.54,1.86,3.21,3.71,5.36,4.82,1.76,.9,3.74,1.26,5.69,1.56,11.63,1.78,23.5,1.98,35.18,.58,4.23-.51,8.8-1.41,11.62-4.6,1.77-2,2.6-4.64,3.38-7.19,1.32-4.29,2.64-8.59,3.52-13,1.79-8.94,1.72-18.15,1.34-27.26-2.88,3.72-5.84,7.51-9.78,10.07-3.55,2.31-7.69,3.51-11.81,4.49-10.69,2.56-21.84,3.93-32.69,2.18-4.73-.76-9.38-2.15-13.72-4.2-2.2-1.04-4.33-2.25-6.33-3.63-1.2-.83-4.47-4.64-5.75-4.72-6.26-.39,2.98,23.66,4.42,26.48,2.63,5.14,5.88,9.96,9.56,14.41Z"/><path class="cls-6" d="M105.09,159.16s2.21,7.37,.3,11.47c0,0-1.76,.15-2.78,2.34,0,0-2.34,10.83,5.71,19.61,0,0,8.78,10.24,27.27,4.11,5.3-2.09,10.5-4.53,15.49-7.27,3.7-2.03,7.12-4.09,9.93-7.17,1.13-1.24,10.22-11.3,11.41-10.82-12.01-4.66-13.39-21.04-12.27-31.97,0,0-2.51,8.78-15.83,18,0,0-13.46,12.19-24.73,11.27,0,0-5.6-.7-8.34-2.49,0,0-4.1-1.61-6.16-7.08Z"/><path class="cls-14" d="M105.09,159.16s2.21,7.37,.3,11.47c0,0-1.76,.15-2.78,2.34,0,0-2.34,10.83,5.71,19.61,0,0,8.78,10.24,27.27,4.11,5.3-2.09,10.5-4.53,15.49-7.27,3.7-2.03,7.12-4.09,9.93-7.17,1.13-1.24,10.22-11.3,11.41-10.82-12.01-4.66-13.39-21.04-12.27-31.97,0,0-2.51,8.78-15.83,18,0,0-13.46,12.19-24.73,11.27,0,0-5.6-.7-8.34-2.49,0,0-4.1-1.61-6.16-7.08Z"/><path class="cls-7" d="M106.04,161.78c.81,.54,1.59,1.11,2.4,1.67,1.02,.72,1.84,1.67,2.82,2.43,.35,.27,.55,.36,.67,.82,.15,.58,.09,1.24,.02,1.83-.23,2.13-.45,4.26-.68,6.38-.31,2.91-.63,5.85-1.47,8.65s-2.27,5.5-4.48,7.43c-.24,.21-.61,.42-.86,.22-.15-.12-.19-.34-.21-.53-.21-1.79-.61-3.55-1.19-5.25-.56-1.63-1.29-3.2-1.76-4.85s-.68-3.44-.17-5.09c.39-1.27,1.09-2.7,1.85-3.78,.25-.35,.72-.49,1.08-.72,.45-.28,.87-.59,1.26-.94,.92-.8,.95-2.6,.95-3.74,0-1.43-.24-2.85-.48-4.25,1.99,.73,3.89,1.68,5.67,2.85"/><path class="cls-6" d="M133.65,166.15c-1.96,.82-4.06,1.41-6.6,2.17,.77,2.59,.35,5.37-.07,8.03-.56,3.5-1.11,7.01-1.67,10.51-.35,2.23-2.48,8.35-1.45,10.35,2.29,4.45,13.19-1.78,16.6-1.78,5.31-1.27,10.49-3.32,14.75-6.8,2.45-2.01,4.53-4.43,6.6-6.83,3.04-3.55,6.09-7.1,9.13-10.65-10.32-6.42-11.93-20.69-10.8-31.69-3.12,4.41-6.59,8.6-10.18,12.63-3.19,3.58-6.54,7.03-10.16,10.18-2.15,1.87-4.08,3.01-6.17,3.88Z"/><path class="cls-3" d="M186.68,177.87c21.25,10.76,43.25,15.18,58.4,35.42-6,12.08-13.69,20.23-22.52,28.97-12.56,12.42-28.98,21.09-45.9,25.75-39.13,10.77-86.29,8.39-121.06-13.25-8.1-5.04-16.24-10.32-22.24-17.77-3.04-3.77-5.65-7.53-7.8-11.91-.58-1.19-6.39-11.35-6.16-11.75,6.59-11.57,17.26-20.73,29.37-26.04,9.33-4.09,19.18-6.75,28.93-9.63,4.75-1.4,9.56-2.58,14.25-4.16,2.62-.89,5.03-2.28,7.4-3.69,1.16-.69,2.32-1.39,3.51-2.03,1.06-.58,2.27-.95,3.28-1.56,.13,1.15-.05,2.42-.24,3.55-.19,1.16-1.38,1.75-2.08,2.64-.8,1.03-1.4,2.25-1.47,3.57-.02,.47,.02,.93,.07,1.4,.12,1.24,.2,2.37,.56,3.57,1.37,4.61,3.34,9.33,7.21,12.19,9.35,6.89,23.36,3.99,33.06-.53,10.62-4.95,19.67-13.37,25.03-23.83,.06-.12,9.37,4.52,18.41,9.1Z"/><path class="cls-4" d="M159.55,146.2c.17,.88,.33,1.76,.32,2.65-.04,2.45-1.8,4.26-3.34,5.97-7.28,8.11-17.05,13.75-27.07,17.81,0,0-11.92,4.08-19.33-5.46,0,0-2.37-4.17-4.02-9.97,0,0,4.58,10.28,11.75,11.42,.83,.13,3.06-1.46,3.78-1.8,3.12-1.5,6.23-3.01,9.33-4.54,4.85-2.39,9.69-4.82,14.49-7.33s10.1-4.95,14.09-8.75Z"/><path class="cls-1" d="M190.51,136.05c2.3,11.63,6.7,22.45,9.54,33.98,1.28,5.19,1.54,10.62,.76,15.91-6.43-2.53-12.87-5.06-19.3-7.6-.66-.26-1.35-.54-1.78-1.11-.38-.51-.49-1.17-.58-1.8-1.16-7.94-2.32-15.88-3.48-23.82-.52-3.59-1.05-7.19-1.13-10.81-.15-6.85,1.28-13.61,2.27-20.39,.61-4.21,1.06-8.45,1.34-12.7,.32-5.01,.77-10.62-1.03-15.38-2.08-5.52-.33-11.44-2.05-16.7,1.03,3.16,2.85,5.87,3.93,9.03,1.28,3.77,2.46,7.58,3.53,11.42,3.4,12.28,5.41,24.89,7.52,37.44,.14,.85,.3,1.7,.46,2.54Z"/><path class="cls-21" d="M166.67,116.74s.73,2.93,3.22,2.78c0,0,2.93-.29,3.66-3.37,0,0,2.05-6,1.9-11.56,0,0-.33-9.24-9.02-10.11,0,0,1.41,16.26,.24,22.26Z"/><path class="cls-6" d="M99.62,54.9c-5,3.65-8.58,9.01-10.56,14.83-2.49,7.28-4.5,14.97-4.4,22.72,.1,8.7,1.59,17.47,.59,26.07s3,18.12,6.45,25.51c2.13,4.54,5.44,7.98,8.54,11.83,2.82,3.5,5.41,7.6,8.84,10.55,4.62,3.97,11.13,3.2,16.7,3,4.3-.15,8.51-1.24,12.29-3.3,4.03-2.19,6.82-5.8,10.66-8.12,0,0,5.71-3.41,10.63-9.92,0,0,6.08-6.39,8.03-16.79,0,0,2.2-15.37,2.18-26.25,0,0-2.38-26.7-14.37-42.72,0,0-7.1-9.44-20.83-12.47-10.46-2.31-25.48-1.71-34.75,5.06Z"/><g><path class="cls-19" d="M133.62,49.66h0c-1.19-.17-2.09-.29-2.76-.39,.81,.11,1.82,.26,2.76,.39Z"/><path class="cls-18" d="M130.86,49.27c-.14-.02-.27-.04-.4-.06,.12,.02,.26,.04,.4,.06Z"/><path class="cls-17" d="M130.46,49.21c-.1-.01-.18-.02-.26-.04,.08,.01,.17,.02,.26,.04Z"/><path class="cls-16" d="M130.2,49.18c-.08-.01-.16-.02-.23-.03,.07,0,.15,.02,.23,.03Z"/><path class="cls-20" d="M129.97,49.14c-1.09-.15-.84-.12,0,0h0Z"/></g><path class="cls-13" d="M122.43,48.66c-9.06-.48-16.2,1.21-23.14,6.28-5,3.65-8.58,9.01-10.56,14.83-2.48,7.26-4.56,14.82-4.37,22.55,.11,4.54,.77,9.05,1.1,13.57,.16,2.26,.26,4.52,.16,6.79-.25,5.55-1.27,9.65,.37,16.04,1.35,5.27,3.08,10.44,5.38,15.36,2.13,4.54,5.44,7.98,8.54,11.83,2.82,3.5,5.41,7.6,8.84,10.55,4.62,3.97,11.13,3.2,16.7,3,0,0-4.79-36.22-4.79-55.58s1.77-65.21,1.77-65.21Z"/><g class="cls-5"><path class="cls-12" d="M128.97,47.92c-9.83-.99-19.65,.73-26.81,8.27-8.82,9.28-17.94,17.55-21.91,30.09-1.45,4.58-3.83,8.76-5.23,13.31s.78,15.46-1.71,18.88c5.41-7.43,12.64-13.52,20.88-17.59,9.94-4.91,21.14-6.85,31.06-11.79,8.37-4.17,15.21-10.35,20.85-17.74-3.01,5.36,5.57,15.19,9.16,18.76,5.23,5.21,12.57,9.03,20.14,7.58-6.49-14.61-6.95-29.83-20.4-40.35-7.29-5.7-16.97-8.5-26.02-9.41Z"/></g><path class="cls-15" d="M158.05,66.64c-.89-1.5-1.84-2.95-2.86-4.32,0,0-7.1-9.44-20.83-12.47-10.46-2.31-25.48-1.71-34.75,5.06-12.29,8.98-16.86,29.69-15.45,43.89-.86-8.15,8.14-15.66,12.71-21.54,4.96-6.38,11.17-12.05,19.34-13.66,5.08-1,10.32-.58,15.45,.11,7.22,.97,14.77,3.96,22.02,3.76,1.43-.04,3.66,.22,4.38-.83Z"/><path class="cls-9" d="M126.97,44.92c-9.83-.99-19.65,.73-26.81,8.27-5.81,6.12-13.79,14.09-16.87,22.04-1.99,5.12-2.26,11.6-3.29,17-.87,4.62-.82,12.34-3.1,16.4,5.15-9.42,10.73-19.31,20.02-24.7,7.44-4.32,16.3-5.19,24.75-6.83,8.81-1.71,15.85-8.41,21.16-15.43,7.59,6.53,15.98,12.12,24.94,16.6-.23-8.39-8.33-18.9-14.78-23.94-7.29-5.7-16.97-8.5-26.02-9.41Z"/><path class="cls-9" d="M134.32,76.23c-4.6,2.23-9.48,3.89-14.1,4.96-3.44,.8-6.96,1.31-10.3,2.45-3.53,1.21-6.78,3.1-10,4.98-5.48,3.2-10.95,6.41-16.44,9.6-4.4,2.56-9.32,3.46-14.13,5.17,1.39-11.74,3.89-23.36,7.47-34.63,2.7-8.53,6.25-17.2,12.97-23.11,11.39-10.01,57.08-23.28,65.93-4.61,3.86,8.15-2.22,19.79-7.82,25.65-3.7,3.87-8.47,7.05-13.58,9.52Z"/><path class="cls-9" d="M183.8,77.24c3.15,11.72,3.36,24.06,2.32,36.16-2.42-6.86-9.05-11.14-14.78-15.63-8.7-6.82-16.26-15.4-20.41-25.64-4.15-10.24-4.6-22.25,.24-32.18,.33-.68,.77-1.42,1.51-1.61,1.5-.39,3.45,.8,4.59,1.65,4.15,3.11,9.99,8.53,14.33,13.64,1.7,2.01,7.88,11.92,8.62,13.55,1.46,3.25,2.65,6.62,3.58,10.07Z"/><path class="cls-10" d="M216.72,202.04s-9.01,6.76-11.26,25.9c0,0-5.26,18.77-4.88,28.16,0,0-1.88-21.4,4.13-39.42,0,0,9.39-22.15,12.01-14.64Z"/><path class="cls-10" d="M175.32,173.66c.56-.12,1.16,.22,1.78,.43,0,0-6.23,14.95-27.18,25.78-12.09,4.16-15.29,5.14-22,5.13-6.2,0-12.84-1.02-18.43-3.84-4.8-2.42-8.4-8.34-10.54-13.09,4.62,6.67,9.33,12.62,17.56,14.64,7.9,1.94,16.35,1.58,24.1-.81,10.78-3.32,20.21-10.26,27.78-18.63,1.75-1.94,3.42-3.96,4.8-6.19,.49-.79,.99-2.63,1.68-3.18,.15-.12,.3-.19,.45-.22Z"/><path class="cls-9" d="M116.56,84.43c1.33-.34,2.65-1.01,3.92-1.51,1.15-.46,2.28-.71,3.42-1.24,2.54-1.18,5.2-2.32,7.77-3.54,1.23-.59,2.79-1.12,3.85-1.98,.93-.75,1.79-1.71,2.68-2.53,.73-.67,1.43-1.37,2.1-2.1,.47-.51,1.68-1.5,1.84-2.18-.69,3.03-2.61,5.6-5.1,7.4-2.34,1.68-5.03,2.78-7.73,3.77-4.17,1.53-8.43,2.84-12.74,3.93Z"/><path class="cls-9" d="M95.86,94.02c6.18-3.12,10.54-9.42,16.1-13.3,1.75,3.36-13.34,11.9-16.1,13.3Z"/><path class="cls-9" d="M111.65,85.79c4.84-2.08,9.76-3.7,14.05-6.91-1.64-.47-4.76,2.29-6.27,3.11-2.53,1.39-5.13,2.66-7.78,3.8Z"/><path class="cls-2" d="M148.06,66.26c-11.17,11.68-26.9,18.18-42.84,20.91-5.53,.95-11.15,1.49-16.57,2.95"/><path class="cls-2" d="M154.13,77.67c2.25,7.79,8.08,13.95,13.72,19.79,2.89,2.99,5.82,6.02,9.36,8.2"/><path class="cls-11" d="M80.88,84.43c17.04-2.65,49.64-12.13,60.46-28.93-10.16,19.87-43.91,26.35-60.46,28.93Z"/><path class="cls-11" d="M126.61,73.49c-1.79,.67-3.69,1.21-5.2,2.39,1.22-.95,4.13-1.22,5.63-1.86,1.99-.85,3.91-1.88,5.72-3.07,3.46-2.28,6.77-5.21,9.11-8.64-2.39,1.42-4.13,4.31-6.36,6.09-2.68,2.15-5.69,3.88-8.9,5.09Z"/><path class="cls-11" d="M110.95,71.71c-2.77,2.28-6.41,3.5-9.75,4.81-1.88,.74-3.81,1.39-5.79,1.83-1.85,.41-3.68,.33-5.52,.6,3.79-.55,7.53-1.51,11.13-2.84,1.8-.66,3.56-1.42,5.28-2.27,.88-.44,1.74-1.01,2.64-1.39,.61-.26,1.48-.3,2.01-.74Z"/><path class="cls-11" d="M176.16,94.82c1.21,.75,2.48,1.48,3.32,2.63-9.63-6.96-17.41-16.45-22.34-27.25,1.42,3.11,2.18,6.37,3.99,9.41,3.71,6.23,8.89,11.4,15.03,15.21Z"/><path class="cls-11" d="M125.76,76.41c-10.31,4.14-32.68,8.25-43.46,10.96,10.88,.48,33.1-3.7,43.36-7.34,5.17-1.83,10.28-4.23,14.72-7.48,6.22-4.56,7.74-8.78,7.94-16.37-1.46,4.53-5.45,9.41-9.1,12.41-4.03,3.31-8.64,5.88-13.47,7.82Z"/><path class="cls-11" d="M149.43,66.35c.32,3.31,2.04,6.29,3.76,9.14,6.18,10.24,13.27,20.62,23.88,26.13-3.19-2.93-6.38-5.85-9.58-8.78-2.03-1.86-4.06-3.73-5.75-5.89-1.95-2.49-3.39-5.33-4.8-8.16-2.66-5.37-5.21-10.8-7.65-16.28-.75,4.63,.94,9.59,4.37,12.79"/></svg>