<?xml version="1.0" encoding="UTF-8"?><svg id="Daniel" xmlns="http://www.w3.org/2000/svg" xmlns:xlink="http://www.w3.org/1999/xlink" viewBox="0 0 262 280"><defs><style>.cls-1{fill:url(#Namnlös_övertoning_2556);}.cls-2{fill:url(#linear-gradient);}.cls-2,.cls-3,.cls-4,.cls-5{opacity:.7;}.cls-6{fill:#693f47;}.cls-7{fill:#ecceb7;}.cls-8{fill:#eaeaea;}.cls-9{fill:#e9e9e9;}.cls-10{fill:#e6edf1;}.cls-11,.cls-12,.cls-13{fill:#fff;}.cls-14{fill:#6c4942;}.cls-15{fill:#b6dec0;}.cls-16{fill:#d2dfe6;}.cls-17,.cls-18,.cls-19,.cls-20{fill:#d0997d;}.cls-21{fill:#d9ad96;}.cls-22{fill:url(#Namnlös_övertoning_85-5);}.cls-22,.cls-23,.cls-24,.cls-25{opacity:.44;}.cls-23{fill:url(#Namnlös_övertoning_85-7);}.cls-24{fill:url(#Namnlös_övertoning_85-6);}.cls-26{fill:url(#Namnlös_övertoning_85-3);opacity:.74;}.cls-27{fill:url(#Namnlös_övertoning_85-2);opacity:.56;}.cls-28{fill:url(#Namnlös_övertoning_85-4);}.cls-28,.cls-20{opacity:.64;}.cls-29{fill:url(#Namnlös_övertoning_333);}.cls-30{fill:url(#Namnlös_övertoning_334);}.cls-31{fill:url(#Namnlös_övertoning_125);}.cls-32{fill:url(#Namnlös_övertoning_412);}.cls-33{fill:url(#Namnlös_övertoning_132);}.cls-34{fill:url(#Namnlös_övertoning_131);}.cls-12{opacity:.2;}.cls-35{fill:url(#Namnlös_övertoning_2556-2);}.cls-36{fill:url(#Namnlös_övertoning_2556-3);}.cls-37{fill:url(#Namnlös_övertoning_333-3);}.cls-38{fill:url(#Namnlös_övertoning_333-2);}.cls-39{fill:url(#Namnlös_övertoning_412-2);}.cls-40{fill:url(#Namnlös_övertoning_125-4);}.cls-41{fill:url(#Namnlös_övertoning_125-3);}.cls-42{fill:url(#Namnlös_övertoning_125-2);}.cls-43{fill:url(#Namnlös_övertoning_125-5);}.cls-44{fill:url(#Namnlös_övertoning_125-6);}.cls-45{fill:url(#Namnlös_övertoning_131-3);}.cls-46{fill:url(#Namnlös_övertoning_131-2);}.cls-47{fill:url(#linear-gradient-8);}.cls-48{fill:url(#linear-gradient-9);}.cls-49{fill:url(#linear-gradient-4);}.cls-50{fill:none;stroke:#e6edf1;stroke-miterlimit:10;}.cls-51,.cls-52{opacity:.4;}.cls-53{fill:url(#Namnlös_övertoning_7);}.cls-54{fill:url(#linear-gradient-10);}.cls-55{fill:url(#linear-gradient-11);}.cls-56{fill:url(#Namnlös_övertoning_85);opacity:.34;}.cls-57{fill:url(#Namnlös_övertoning_7-2);}.cls-57,.cls-58{isolation:isolate;opacity:.7;}.cls-58{fill:url(#Namnlös_övertoning_7-3);}.cls-52{fill:url(#linear-gradient-7);}.cls-59{fill:url(#linear-gradient-5);opacity:.46;}.cls-25{fill:url(#linear-gradient-6);}.cls-3{fill:url(#linear-gradient-3);}.cls-4{fill:url(#linear-gradient-2);}.cls-18{opacity:.54;}.cls-13{opacity:.5;}.cls-19{opacity:.84;}.cls-5{fill:#977267;}</style><linearGradient id="Namnlös_övertoning_412" x1="165.72" y1="154.67" x2="172.54" y2="154.67" gradientUnits="userSpaceOnUse"><stop offset="0" stop-color="#174b64"/><stop offset="1" stop-color="#9ab9ca"/></linearGradient><linearGradient id="Namnlös_övertoning_412-2" x1="96.75" y1="156.46" x2="98.72" y2="156.46" xlink:href="#Namnlös_övertoning_412"/><linearGradient id="Namnlös_övertoning_85" x1="132.71" y1="104.5" x2="148.36" y2="104.5" gradientUnits="userSpaceOnUse"><stop offset="0" stop-color="#aa8260"/><stop offset="1" stop-color="#d0997d"/></linearGradient><linearGradient id="Namnlös_övertoning_85-2" x1="138.25" y1="88.33" x2="152.9" y2="88.33" xlink:href="#Namnlös_övertoning_85"/><linearGradient id="linear-gradient" x1="141.43" y1="92.14" x2="143.35" y2="92.14" gradientUnits="userSpaceOnUse"><stop offset="0" stop-color="#56391e"/><stop offset="1" stop-color="#81624a"/></linearGradient><linearGradient id="linear-gradient-2" x1="140.17" y1="89.1" x2="159.38" y2="89.1" xlink:href="#linear-gradient"/><linearGradient id="linear-gradient-3" x1="145.27" y1="92.85" x2="157.42" y2="92.85" xlink:href="#linear-gradient"/><linearGradient id="Namnlös_övertoning_85-3" x1="122.8" y1="81.35" x2="125.45" y2="81.35" xlink:href="#Namnlös_övertoning_85"/><linearGradient id="Namnlös_övertoning_85-4" x1="109.24" y1="88.34" x2="125.07" y2="88.34" xlink:href="#Namnlös_övertoning_85"/><linearGradient id="Namnlös_övertoning_334" x1="94.66" y1="84.62" x2="125.01" y2="84.62" gradientUnits="userSpaceOnUse"><stop offset="0" stop-color="#81624a"/><stop offset="1" stop-color="#56391e"/></linearGradient><linearGradient id="Namnlös_övertoning_85-5" x1="136.1" y1="80.73" x2="140.85" y2="80.73" xlink:href="#Namnlös_övertoning_85"/><linearGradient id="linear-gradient-4" x1="138.76" y1="82.62" x2="166.74" y2="82.62" xlink:href="#linear-gradient"/><linearGradient id="linear-gradient-5" x1="119.22" y1="110.35" x2="144.62" y2="110.35" gradientUnits="userSpaceOnUse"><stop offset="0" stop-color="#cf8062"/><stop offset="1" stop-color="#f6c6a4"/></linearGradient><linearGradient id="linear-gradient-6" x1="145.04" y1="110.49" x2="160.25" y2="110.49" xlink:href="#linear-gradient-5"/><linearGradient id="Namnlös_övertoning_131" x1="112.99" y1="125.32" x2="150.2" y2="125.32" gradientUnits="userSpaceOnUse"><stop offset="0" stop-color="#bf6851"/><stop offset="1" stop-color="#d29e82"/></linearGradient><linearGradient id="Namnlös_övertoning_85-6" x1="117.56" y1="135.89" x2="148.8" y2="135.89" xlink:href="#Namnlös_övertoning_85"/><linearGradient id="Namnlös_övertoning_131-2" x1="110.38" y1="132.07" x2="151.65" y2="132.07" xlink:href="#Namnlös_övertoning_131"/><linearGradient id="linear-gradient-7" x1="91.3" y1="137.99" x2="173.25" y2="137.99" xlink:href="#linear-gradient"/><linearGradient id="Namnlös_övertoning_85-7" x1="117.71" y1="151.1" x2="143.67" y2="151.1" xlink:href="#Namnlös_övertoning_85"/><linearGradient id="linear-gradient-8" x1="81.96" y1="60.75" x2="115.21" y2="60.75" gradientUnits="userSpaceOnUse"><stop offset=".1" stop-color="#56391e"/><stop offset="1" stop-color="#3d312d"/></linearGradient><linearGradient id="Namnlös_övertoning_132" x1="140.39" y1="51.21" x2="148.8" y2="20.01" gradientUnits="userSpaceOnUse"><stop offset=".45" stop-color="#56391e"/><stop offset=".58" stop-color="#5d3f25"/><stop offset=".76" stop-color="#705239"/><stop offset=".88" stop-color="#81624a"/></linearGradient><linearGradient id="Namnlös_övertoning_333" x1="109.26" y1="50.02" x2="171.77" y2="50.02" gradientUnits="userSpaceOnUse"><stop offset=".38" stop-color="#3a280d"/><stop offset=".56" stop-color="#3b2c1c"/><stop offset=".78" stop-color="#3c2f28"/><stop offset="1" stop-color="#3d312d"/></linearGradient><linearGradient id="linear-gradient-9" x1="170.7" y1="74.21" x2="180.17" y2="74.21" xlink:href="#linear-gradient-8"/><linearGradient id="Namnlös_övertoning_125" x1="119.74" y1="18.96" x2="154.48" y2="18.96" gradientUnits="userSpaceOnUse"><stop offset="0" stop-color="#6e4427"/><stop offset="1" stop-color="#81624a"/></linearGradient><linearGradient id="Namnlös_övertoning_125-2" x1="102.96" y1="27.58" x2="120.59" y2="27.58" xlink:href="#Namnlös_övertoning_125"/><linearGradient id="Namnlös_övertoning_125-3" x1="123.05" y1="34.29" x2="147.2" y2="34.29" xlink:href="#Namnlös_övertoning_125"/><linearGradient id="Namnlös_övertoning_125-4" x1="137.75" y1="36.28" x2="158.65" y2="36.28" xlink:href="#Namnlös_övertoning_125"/><linearGradient id="Namnlös_övertoning_125-5" x1="143.52" y1="39.29" x2="166.69" y2="39.29" xlink:href="#Namnlös_övertoning_125"/><linearGradient id="Namnlös_övertoning_125-6" x1="89.61" y1="44.48" x2="108" y2="44.48" xlink:href="#Namnlös_övertoning_125"/><linearGradient id="Namnlös_övertoning_131-3" x1="116.21" y1="126.34" x2="147.95" y2="126.34" xlink:href="#Namnlös_övertoning_131"/><linearGradient id="Namnlös_övertoning_333-2" x1="88.6" y1="61.6" x2="111.26" y2="61.6" xlink:href="#Namnlös_övertoning_333"/><linearGradient id="Namnlös_övertoning_333-3" x1="170.18" y1="76.29" x2="174.36" y2="76.29" xlink:href="#Namnlös_övertoning_333"/><linearGradient id="linear-gradient-10" x1="106.2" y1="93.9" x2="113.75" y2="93.9" xlink:href="#linear-gradient"/><linearGradient id="linear-gradient-11" x1="118.84" y1="91.8" x2="122.4" y2="91.8" xlink:href="#linear-gradient"/><linearGradient id="Namnlös_övertoning_2556" x1="138.37" y1="197.29" x2="162.11" y2="197.29" gradientUnits="userSpaceOnUse"><stop offset="0" stop-color="#b3cbd7"/><stop offset="1" stop-color="#9ab9ca"/></linearGradient><linearGradient id="Namnlös_övertoning_2556-2" x1="112.49" y1="202.18" x2="138.66" y2="202.18" xlink:href="#Namnlös_övertoning_2556"/><linearGradient id="Namnlös_övertoning_2556-3" x1="172.77" y1="181.16" x2="183.09" y2="181.16" xlink:href="#Namnlös_övertoning_2556"/><linearGradient id="Namnlös_övertoning_7" x1="118.82" y1="-8428.15" x2="122.33" y2="-8428.15" gradientTransform="translate(0 -8336.43) scale(1 -1)" gradientUnits="userSpaceOnUse"><stop offset="0" stop-color="#56391e"/><stop offset="1" stop-color="#81624a"/></linearGradient><linearGradient id="Namnlös_övertoning_7-2" x1="141.36" y1="-8428.52" x2="143.28" y2="-8428.52" xlink:href="#Namnlös_övertoning_7"/><linearGradient id="Namnlös_övertoning_7-3" x1="140.1" y1="-8425.49" x2="159.31" y2="-8425.49" xlink:href="#Namnlös_övertoning_7"/></defs><g id="BG-3"><circle class="cls-15" cx="131.31" cy="131.48" r="129"/></g><g id="Daniel-2"><path class="cls-32" d="M167.01,155.72c.71,1.08,1.51,2.11,2.4,3.05,.31,.33,.65,.66,1.08,.76,.64,.16,1.32-.23,1.67-.79s.41-1.25,.37-1.91c-.14-2.19-1.93-6.44-4.41-6.97-3.75-.81-2.27,4.08-1.11,5.86Z"/><path class="cls-21" d="M97.82,160.32c-.21,1.99-.5,4.03,.05,5.95,.5,1.74,1.64,3.22,2.76,4.65,5.91,7.54,11.94,15.2,19.76,20.73,5.67,4.01,12.25,6.89,16.93,12.02,.83,.91,1.72,1.96,2.94,2.12,1.04,.14,2.04-.41,2.91-1.01,3.15-2.18,5.63-5.17,8.06-8.13,8.63-10.48,17.62-21.79,19.13-35.28,.15-1.32,.14-2.46-.7-3.52s-1.19-1.92-1.5-3.23c-.65-2.75-.68-5.61-.49-8.41,.26-3.99,.93-7.96,.78-11.95-1.21,1.34-2.52,2.53-3.82,3.79-1.38,1.35-2.73,2.72-4.09,4.08-2.66,2.68-5.34,5.34-8.25,7.76-5.71,4.74-12.63,8.56-20.05,8.67-3.66,.05-7.27-.8-10.77-1.84-2.77-.82-5.54-1.79-7.99-3.32-2.71-2.71-5.93-4.67-8.28-7.84-1.71-2.32-3.32-4.81-5.23-6.97-1.45-1.63-3.69-2.84-4.64-4.85,2.51,8.39,3.43,18.01,2.51,26.59Z"/><path class="cls-39" d="M97.79,153.04c-.97,1.64-1.28,3.66-.85,5.52,.17,.75,.46,1.47,.74,2.18,.59-1.38,.76-2.9,.93-4.4,.15-1.42,.28-2.98-.52-4.17-.44,.85-.77,1.74-1,2.66"/><path class="cls-17" d="M134.34,158.41c-.71,.08-1.41,.13-2.13,.14-3.66,.05-7.27-.8-10.77-1.84-2.77-.82-5.54-1.79-7.99-3.32-2.71-2.71-5.93-4.67-8.28-7.84-1.71-2.31-3.32-4.81-5.23-6.97-1.45-1.63-3.69-2.84-4.64-4.85,2.51,8.39,3.42,18.01,2.51,26.59-.21,1.99-.5,4.03,.05,5.95,.5,1.74,1.64,3.22,2.76,4.65,5.91,7.54,11.94,15.2,19.76,20.73,5.67,4.01,12.25,6.89,16.93,12.02,.58,.63,1.18,1.32,1.9,1.74-2.4-15.58-3.85-31.27-4.87-47Z"/><path class="cls-7" d="M166.16,52c9.47,12.32,7.39,24.46,7.66,37.36,.17,8,1.12,15.78,.82,23.78-.17,4.59-.43,9.23-1.74,13.63-2.2,7.41-7.21,13.64-12.6,19.19-6.27,6.46-13.51,12.45-22.22,14.71-13.24,3.44-26.65-3.87-35.58-14.23-8.93-10.36-14.35-19.34-13.42-35.06,.81-13.65-1.36-30.44-.2-44.07,.79-9.28,4.38-15.73,11.42-21.64,3.78-3.17,10.83-5.67,15.43-7.21,5.36-1.8,11.06-2.39,16.73-2.74,4.09-.25,8.16,.33,12.04,1.6,3.79,1.23,7.39,2.57,10.8,4.61,4.26,2.56,7.82,6.1,10.85,10.05Z"/><path class="cls-56" d="M144.84,108.98c-.32-1.15-1.56-1.73-2.67-2.16-1.98-.75-3.99-1.42-6.02-2-.47-.14-1-.31-1.19-.76-.09-.21-.09-.45-.07-.68,.1-1.32,.65-2.56,.82-3.87,.31-2.38-.66-4.82-.12-7.16,1.58,2.58,1.3,6.03,3.08,8.48,.59,.82,1.39,1.48,2.17,2.12,1.29,1.06,3.01,2.1,4,3.46,.37,.51,.37,1.28,.4,1.89,.06,1.3,.2,2.61,.64,3.83,.45,1.25,1.2,2.28,2.46,2.81,.25,.11-1.34,1.07-1.42,1.11-.67,.35-1.39,.55-2.14,.6-2,.14-3.94-.61-5.86-1.18-1.92-.58-4.04-.98-5.89-.21-.34-.1-.4-.6-.19-.88s.58-.39,.92-.47c2.66-.65,5.46-.73,8.15-.24,.39,.07,.8,.15,1.16,0,.51-.23,.7-.84,.84-1.38,.32-1.25,.64-2.59,.18-3.8-.44-1.16-1.54-1.98-1.94-3.16-.05-.15-.09-.31-.04-.46,.09-.27,.44-.37,.71-.29s.48,.29,.68,.49c.13,.14,.28,.27,.43,.4"/><path class="cls-21" d="M102.5,146.46c8.14,9.44,19.99,16.34,32.04,14.89-.92-13.45-1.51-26.94-2.1-40.4-.79-18.12-1.58-36.25-2.36-54.37-.38-8.83,2.61-26.7-4.81-30.18-3.25,.42-6.46,1.05-9.55,2.08-1.82,.61-4.01,1.37-6.24,2.26-3.69,1.92-7.3,3.98-10.71,6.3-6.03,5.55-9.16,11.71-9.89,20.29-1.16,13.63,1.01,30.42,.2,44.07-.93,15.72,4.49,24.7,13.42,35.06Z"/><path class="cls-6" d="M132.52,133.82c.7-.07,1.4-.17,2.09-.3,2.35-.42,4.64-1.12,6.85-2s4.39-1.97,6.48-3.17c1.04-.6,2.1-1.2,3.1-1.87,.19-.13,.28-.29,.43-.45,.18-.19,.44-.31,.68-.4,.52-.18,1.1-.2,1.63-.02,.22,.07,.43,.18,.66,.2,.08,0,.18-.01,.18-.09,0-.04-.03-.08-.06-.11-1.42-1.4-5.16-.4-6.8,.13-2.98,.96-6.53,.61-9.64,.53-2.65-.07-5.3-.21-7.95-.31s-5.27-.17-7.9-.09c-1.95,.06-3.89,.2-5.83,.21-1.84,.01-3.51-.32-5.31-.52-.78-.09-1.67,.06-2.15,.68,.58-.75,1.89-.03,2.49,.21,1.25,.51,2.12,1.11,3.12,1.98,1.2,1.04,2.8,1.72,4.2,2.45,2.95,1.55,6.15,2.71,9.47,2.99,1.42,.12,2.85,.08,4.27-.07Z"/><path d="M115.73,94.21c.37-.36,.71-.81,.9-1.35,.49-1.38,.09-2.62-.79-3.64-1.03-1.21-2.92-.87-4.09-.68-.63,.1-1.05,.63-1.41,1.27-2.26,4.06,2.87,6.85,5.39,4.4Z"/><path class="cls-17" d="M120.59,95.54c.51-.44,.99-.94,1.44-1.5,.55,1.41-1.71,3.1-2.76,3.66-1.39,.75-2.97,1.03-4.53,1.22-4.03,.47-8.14,.33-12.13-.42,3.35-.06,6.72,.32,10.06,.03,2.99-.26,5.75-1.09,7.93-2.98Z"/><path class="cls-27" d="M150.29,82.04c-3.1,.81-6.04,2.24-8.6,4.17-1.44,1.09-2.82,2.43-3.32,4.17-.39,1.39,.08,4.28,1.92,4.5,.11-.45-.07-.95-.11-1.41-.1-1.12,.43-2.23,1.19-3.05s1.75-1.41,2.74-1.93c1.47-.79,2.9-1.62,4.35-2.42,1.83-1.01,3.57-2.37,4.43-4.27-1.72-.07-3.46,.29-5,1.04"/><path class="cls-17" d="M141.21,94.63c.89,.81,2.14,1.08,3.33,1.28,4.49,.74,9.07,.88,13.59,.41-3.66,1.95-8.08,1.66-12.18,1-1.56-.25-3.15-.57-4.48-1.43-.84-.54-1.57-1.33-1.78-2.3-.2-.93,.21-2.05,1.16-2.39-.13,.05-.53,1.56-.52,1.77,.03,.6,.45,1.28,.88,1.67Z"/><path d="M146.5,92.65c.3,.55,.8,1.02,1.41,1.16,.26,.06,.53,.07,.8,.07,1.65,.03,3.22,.17,3.8-1.67,.26-.83,.37-1.82,.08-2.65-.12-.34-.26-.68-.51-.93-.5-.49-1.28-.5-1.97-.48-.88,.02-3.28,.37-3.8,1.15-.21,.32-.24,.73-.24,1.12,0,.7,.07,1.41,.36,2.04,.03,.06,.06,.12,.09,.18Z"/><path class="cls-17" d="M162.17,91.34c-.63,.39-1.4,.54-2.13,.41-.28-.05-.54-.13-.81-.21-.28-.09-.56-.16-.83-.26,.45-.17,1.29,.13,1.79,.17,.68,.05,1.32-.11,1.98-.11Z"/><path class="cls-2" d="M142.53,92.41s-.03-.07-.04-.11c-.15-.46,.24-.84,.62-1.05,.09-.05,.19-.1,.22-.19,0-.02,0-.04,0-.06-.01,0-.03,0-.04,0-.11,.01-.21,.06-.3,.11-.31,.15-.66,.23-.95,.41-.27,.17-.62,.55-.6,.88s.34,.66,.64,.78c.41,.16,.87,.1,1.28-.05-.44,.07-.69-.36-.82-.72Z"/><path class="cls-4" d="M150.84,86.42c3.16-.2,6.48,.9,8.54,3.31-2.28-2.08-5.46-3.04-8.54-2.92-2.02,.08-4.14,.59-5.93,1.54-.88,.47-1.7,1.03-2.49,1.63-.69,.52-1.74,1.13-2.25,1.83,2.48-3.43,6.54-5.12,10.67-5.38Z"/><path class="cls-3" d="M149.96,93.76c2.6-.32,4.89-1.87,7.47-2.35-.51,.09-1.29,.9-1.77,1.16-.62,.34-1.27,.63-1.93,.87-1.41,.51-2.91,.79-4.41,.84-.56,.02-3.96,.05-4.04-.61-.07-.52,1.66,0,1.94,.03,.91,.12,1.83,.17,2.74,.05Z"/><path class="cls-26" d="M124.97,80.73c0-1.55-.26-3.05-.99-3.56,2.07,1.43,1.48,3.86,1.11,6.34-.09,.58-.22,1.18-.62,1.61s-1.14,.58-1.57,.18c-.04-.04-.08-.08-.09-.13-.04-.15,.09-.28,.21-.38,1.27-1.1,1.95-2.4,1.95-4.05Z"/><path class="cls-28" d="M122.25,92.54c.62,.3,1.42,.19,1.94-.26s.74-1.23,.52-1.89c-.12-.36-.34-.67-.58-.96-3.3-4.17-8.98-6.29-14.2-5.31-.27,.05-.58,.15-.66,.4-.06,.18,.01,.37,.1,.53,.65,1.15,2.13,1.42,3.42,1.72,3.7,.84,7.13,2.82,9.72,5.59,.15,.16,.31,.33,.51,.41,.72,.26,1.29-.71,2.04-.87"/><path class="cls-30" d="M120.7,85.3c-.53-.03-1.05-.01-1.63-.05-2.65-.16-5.38-.97-8.03-1.29-2.27-.27-4.56-.52-6.83-.29-2.27,.24-4.55,1.01-6.22,2.56-.9,.84-1.62,1.89-2.66,2.54-.11,.07-.23,.13-.36,.12-.33-.04-.36-.51-.28-.83,.55-2.13,1.98-3.97,3.79-5.23,1.8-1.26,3.94-1.96,6.12-2.28,3-.44,6.05-.17,9.07,.1,2.32,.21,4.36,.58,6.57,1.29,1.21,.39,2.08,.56,2.88,1.55,.88,1.08,1.55,2.29,1.89,3.65-.17-.67-2.33-1.4-2.91-1.59-.5-.16-.95-.23-1.4-.25Z"/><path class="cls-22" d="M137.7,76.49c-.58,.26-1,.8-1.23,1.39s-.3,1.23-.34,1.87c-.08,1.24-.06,2.53,.41,3.68,.15,.38,.36,.74,.66,1.01,.68,.6,1.69,.6,2.58,.46,.39-.06,.8-.16,1.07-.44-.89,.06-1.74-.45-2.31-1.13s-.93-1.51-1.27-2.34c-.17-.41-.35-.83-.42-1.27-.19-1.06,.19-2.15,.79-3.04"/><path class="cls-49" d="M155.78,78.4c3.05,.35,6.2,1.57,8.42,3.32,1.33,1.04,2.55,2.5,2.53,4.19,0,.42-.16,.92-.56,1.02-.41,.1-.77-.27-1.04-.59-2.8-3.23-7.38-4.43-11.65-4.2-2.91,.16-5.75,.89-8.53,1.73-1.06,.32-2.13,.34-3.15,.66-.39,.12-3.05,1.34-2.97,1.81-.57-3.4,2.15-5.52,5.14-6.33,1.58-.43,3.35-.34,5-.76,1.11-.29,2.21-.66,3.35-.82,1.1-.15,2.27-.15,3.46-.01Z"/><path class="cls-59" d="M143.29,110.72c-.47,.68-1.5,.59-2.29,.35-1.31-.4-2.57-.98-3.72-1.73-.73-.47-1.44-1.02-2.28-1.23-1.88-.46-3.68,.87-5.56,1.35-1.36,.34-2.79,.23-4.19,.34-1.56,.12-3.09,.53-4.6,.93-.03,0-.12-1.13-.13-1.24-.01-.42,.09-.8,.22-1.21,.15-.49,.3-.98,.45-1.48-.02,.07-.38,.25-.46,.32-.18,.15-.33,.33-.46,.52-.25,.34-.43,.66-.5,1.08-.17,1.06-.49,2.07-.54,3.15-.02,.39,0,.81,.22,1.13,.28,.39,.82,.51,1.29,.44s.9-.3,1.34-.49c1.2-.51,2.52-.76,3.82-.61,2.45,.28,4.75,1.93,7.17,1.49,.92-.17,1.75-.62,2.63-.92,1.85-.64,3.94-.59,5.75,.15,.43,.17,.88,.39,1.33,.3,.35-.07,.65-.31,.89-.57,1.13-1.25,1.42-3.84-.16-4.87-.42-.27-1.07-.62-1.1,.05-.05,.97,1.71,1.53,.85,2.76Z"/><path class="cls-17" d="M119.62,112.22c0,.19,0,.39,.08,.55,.16,.28,.54,.35,.85,.27s.57-.29,.84-.46c2.14-1.39,4.97-.97,7.37-.13,1.34,.47,2.71,1.06,4.11,.85,1.12-.17,2.09-.82,3.16-1.2,1.6-.56,3.43-.44,4.95,.31,.34,.17,.68,.37,1.05,.44,1.76,.32,2.42-1.85,2.19-3.18-.18-1.01-.72-2.17-1.34-2.99,1.11,.66,1.96,1.56,2.21,2.86,.18,.98,.19,1.85-.11,2.82-.46,1.5-2.36,2.99-3.87,1.76-.33-.27-.55-.65-.88-.9-.54-.4-1.28-.39-1.93-.23-2.27,.54-4.19,2.6-6.51,2.33-1.05-.12-2.53-.7-3.42-1.28-1.86-1.22-3.17-1.17-5.35-.67-.57,.13-1.3,.59-1.03,1.11,.06,.12,.18,.22,.22,.35,.12,.39-.44,.63-.84,.57-1.05-.15-1.89-1.02-2.26-2.01-.36-.99-.32-2.09-.13-3.13,.26-1.44,.85-2.96,2.27-3.61-.14,.14-.18,.41-.29,.59-.16,.25-.3,.52-.43,.79-.61,1.3-.86,2.76-.92,4.18Z"/><path class="cls-20" d="M116.76,107.03c-.21-.3-.54-.48-1.01-.49-1.66-.04-3.13,.58-4.55,1.37-3.15,1.75-5.83,4.32-7.73,7.38-.39,.63-.76,1.34-.66,2.07,.15,1.09,1.34,1.8,2.45,1.79s2.12-.56,3.08-1.11c1.53-.89,3.03-1.84,4.48-2.86,1.14-.8,2.28-1.66,3.09-2.79,.68-.96,1.73-4.12,.86-5.35Z"/><path class="cls-17" d="M114.13,114.88c.62-.52,1.14-1.05,1.56-1.72s1.11-1.23,1.5-2c.4-.8,.57-1.76,.24-2.58-2.08,3.53-4.66,6.53-8.4,8.36-1.44,.71-2.99,1.23-4.28,2.18-1.29,.95-2.33,2.48-2.13,4.07,.19,1.49,1.37,2.65,2.6,3.5-.96-1.57-1.66-3.52-.95-5.22,.73-1.75,2.66-2.61,4.39-3.38,1.94-.87,3.85-1.85,5.47-3.21Z"/><path class="cls-25" d="M146.02,106.13c3.52-.74,7.27-.35,10.56,1.11,.92,.41,1.82,.91,2.52,1.64s1.18,1.71,1.14,2.72c-.02,.38-.11,.76-.35,1.05-.22,.26-.53,.41-.83,.55-1.05,.49-2.13,.93-3.23,1.31-1.68,.58-3.7,1.09-5.41,.34-1.47-.64-2.57-1.93-3.46-3.22-.99-1.42-1.93-2.87-1.92-4.67,0-.17,.01-.34,.1-.48,.13-.21,.4-.29,.64-.34,1.41-.31,2.89-.32,4.3-.04"/><path class="cls-17" d="M152.37,115.81c-1.69-.68-3.42-1.47-4.55-2.9-.58-.74-.97-1.61-1.35-2.46-.37-.84-.65-1.91-1.45-2.4,.07,1.38,.3,2.75,.75,4.06,.25,.73,.57,1.45,1.11,2.01,.42,.44,.96,.76,1.51,1,1.87,.84,3.97,.97,6.01,1-1.86-.56-3.74-1.13-5.37-2.19-.39-.25-.76-.54-1.07-.89-.36-.42-.61-.92-.86-1.41-.5-.99-1-1.98-1.49-2.97,.68,1.82,1.21,3.13,2.29,4.75,1.28,1.91,2.24,1.8,4.46,2.39Z"/><path class="cls-34" d="M126.44,124.23c1.79,.17,3.55,.78,5.35,.71,2.01-.08,3.91-1.02,5.92-1.09,1.44-.05,2.85,.33,4.26,.64,2.7,.58,5.47,.86,8.24,.83-7.34,1.63-14.94,1.53-22.46,1.43-4.74-.07-10.13,.36-14.76-.75,.61-.78,5.06-.7,6.3-.94,2.35-.47,4.73-1.05,7.15-.82Z"/><path class="cls-24" d="M129.16,142.01c-3.03-1.32-5.78-3.18-8.37-5.22-1.42-1.11-2.56-2.9-3.23-4.55,1.34-.62,3.59,2.18,4.74,2.83,1.37,.77,2.98,.96,4.55,1.02,8.71,.38,14.75-2.57,21.94-6.95-1.3,.79-2.59,3.7-3.67,4.92-1.48,1.67-3.11,3.21-4.87,4.6-3.22,2.53-6.89,5.18-11.1,3.34Z"/><path class="cls-46" d="M124.79,137.08c-.09-.04-.18-.07-.27-.11-2.85-1.21-5.05-2.56-7.15-4.82-1.02-1.1-2.3-1.89-3.48-2.87-1.1-.91-2.27-2.5-3.52-3.13,.92,.47,1.95,.46,2.92,.9,1.1,.5,2.18,1.07,3.27,1.61,1.19,.58,2.37,1.17,3.56,1.75,.72,.36,2.18,1.46,2.97,1.46,.71,.35,1.41,.7,2.16,.95,2.14,.74,5.02,.52,7.25,.36,1.98-.14,3.95-.47,5.86-.98s3.52-1.74,5.25-2.72c2.54-1.44,5.25-2.58,8.05-3.39-2.51,2.83-5.05,5.7-8.17,7.83-5.02,3.42-12.87,5.47-18.69,3.17Z"/><path class="cls-52" d="M100.52,125.53c2.44,3.05,4.89,6.11,6.89,9.46,.92,1.53,1.74,3.12,2.83,4.54,2.21,2.87,5.37,4.83,8.52,6.61,1.46,.83,2.97,1.64,4.61,1.95,1.46,.28,3.95,.09,5.19-.89s.87-3.32-.19-4.34c-.45-.44-1.02-.74-1.57-1.06-1-.59-2.79-1.6-2.97-2.89,.09,.58,3.25,.81,3.8,.94,1.94,.47,4.46,.9,6.44,.46,1.73-.39,3.41-.89,5.2-1.19,.16-.03,.34-.05,.49,.01,.42,.18,.32,.83,0,1.15-1.21,1.25-2.85,1.06-4.11,2.12-1.08,.91-1.02,2.72-.13,3.82,.88,1.1,2.35,1.59,3.76,1.67,2.81,.17,5.58-1.03,7.76-2.81,2.19-1.77,3.87-4.09,5.41-6.44,1.06-1.62,2.09-3.29,3.43-4.69,1.18-1.23,2.59-2.23,3.72-3.5,2.52-2.83,3.61-6.9,6.69-9.11,2.07-1.49,4.94-2.05,6.29-4.22,1.45,2.9,.19,6.37-1.08,9.36-1.4,3.3-2.8,6.6-4.19,9.89-.85,2-1.71,4.03-3.02,5.76-2.23,2.96-5.56,4.84-8.79,6.65-3.04,1.7-6.08,3.39-9.12,5.09-2.21,1.23-4.43,2.47-6.8,3.36-9.48,3.56-20.65,.97-28.51-5.41-2.54-2.06-4.76-4.47-6.98-6.88-4.54-4.92-9.25-10.05-11.74-16.37-.88-2.24-2.23-5.84,.9-6.79,3.05-.93,5.56,1.63,7.26,3.74Z"/><path class="cls-23" d="M136.46,144.62c-3.24-.28-6.55-.48-9.74,.22-2.69,.59-6.32,1.19-8.06,3.56-2.59,3.52,.58,6.27,3.81,7.16,.81,.22,1.64,.36,2.41,.68,.66,.27,1.26,.66,1.91,.95,1.04,.46,2.19,.65,3.32,.66,3.54,.04,6.89-1.54,9.91-3.39,1.63-1,3.35-2.31,3.62-4.21,.23-1.69-.84-3.36-2.29-4.27s-3.19-1.2-4.89-1.35Z"/><path class="cls-7" d="M178.69,82.11c.19-.05,.38-.09,.58-.12,1.12-.14,2.3,.39,2.94,1.33,.51,.75,.67,1.68,1.03,2.51,.66,1.54,1.99,2.71,2.7,4.23,1.4,2.97,1.08,6.43,.22,9.44-.91,3.21-1.82,6.43-2.73,9.64-1.08,3.83-2.57,8.13-6.22,9.7-.77,.33-1.74,.48-2.38-.06-.54-.46-.64-1.25-.69-1.95-.31-3.88-.62-7.75-.94-11.63-.36-4.52-1.07-9.12-.37-13.64,.46-3.01,2.35-8.49,5.85-9.45Z"/><path class="cls-21" d="M78.23,94.04c.31-2.48,1.17-4.85,2.03-7.2,.38-1.04,.78-2.11,1.55-2.91,.77-.8,2.02-1.24,3.01-.76,1.72,4.17,3.32,8.38,4.8,12.64,1.58,4.53,1.08,7.22,1.06,12.01-.01,2.32-.67,4.01-1.07,6.14-.3,1.62,.71,4.55-1.48,5.3-1.15,.39-2.31-.49-3.21-1.31-1.26-1.15-2.54-2.32-3.44-3.77-1.91-3.08-2.17-7.42-2.6-10.94-.38-3.06-1.03-6.1-.64-9.21Z"/><path class="cls-20" d="M181.08,85c.79,.49,.93,1.56,1.41,2.35,.41,.68,1.07,1.16,1.56,1.78,1.05,1.34,1.18,3.18,1.11,4.89-.18,4.53-1.43,9.01-3.62,12.98-.22,.41-.71,.86-1.07,.57-.12-.23-.23-.46-.35-.69,1.34-.89,1.79-2.64,1.92-4.24,.14-1.6,.08-3.29,.81-4.72,.37-.72,.94-1.38,1.02-2.19,.2-1.9-2.25-3.05-2.7-4.91-.2-.85,.04-1.75-.12-2.6-.22-1.13-1.86-1.52-2.02-2.13-.26-1.01,.81-1.84,2.04-1.08Z"/><path class="cls-19" d="M86.26,89.72c.09-1.35-1.08-2.41-2.2-3.17-.54-.37-1.19-.73-1.81-.53-.63,.2-.96,.91-1.03,1.57s.04,1.33-.08,1.99c-.17,.96-.79,1.76-1.16,2.66-1.22,3.01,.58,6.31,.95,9.53,.09,.82,.09,1.64,.24,2.45,.29,1.58,1.13,3.01,2.16,4.24-.9-4.03-1.46-8.13-1.66-12.25-.04-.76-.05-1.56,.33-2.22,.9-1.56,3.45-1.46,4.34-3.02,.56-.98,.19-2.28-.56-3.12s-1.82-1.32-2.84-1.79"/><path class="cls-19" d="M88.23,97.22c-.07-.33-.57-.25-.85-.07-1.44,.89-2.66,2.26-3.05,3.91s.22,3.58,1.66,4.46c.84-.77-.36-2.33,.29-3.27,.17-.24,.43-.39,.66-.56,1.4-1.01,1.95-3.06,1.25-4.64-.46-.04-.91-.08-1.37-.11,.33,.02,.66,.04,.98,.07"/><path class="cls-20" d="M176.52,96.45c.53-.41,1.36-.13,1.75,.41s.46,1.25,.5,1.92c.07,1.18,.1,2.39-.28,3.51s-1.26,2.14-2.41,2.37c-.43,.09-1.04-.09-1-.53,.02-.25,.26-.42,.46-.58,.86-.66,1.45-1.68,1.59-2.76,.08-.62-.11-1.42-.72-1.56-.25-.06-.52,.01-.76-.07-.33-.12-.5-.49-.6-.83-.23-.74-.32-1.65,.23-2.2,.54-.55,1.49-.47,2.13-.03s1.03,1.14,1.4,1.81"/><path class="cls-18" d="M167.21,61.45c-2.26-.96-4.76-1.12-7.16-1.66-2.82-.64-6.23-1.67-8.27,.39-1.23,1.24-1.4,3.17-2.25,4.7-1.57,2.81-5.73,3.74-8.34,1.87-3.36-2.4-3.41-7.7-6.64-10.26-2.84-2.25-6.9-1.53-10.51-1.84-3.34-.29-6.54-1.56-9.88-1.77-5.44-.34-10.87,2.28-14.4,6.44-3.53,4.15-5.25,9.68-5.25,15.13,0,3.18,.24,7.03-2.41,8.79-1.42-.44-1.81-2.24-1.89-3.73-.23-4.18,.14-8.37,.55-12.54,.54-5.52,1.19-11.19,3.77-16.11,2.58-4.91,7.54-8.97,13.09-8.85,3.23,.07,6.26,1.5,9.41,2.21,9.38,2.11,18.93-2.26,28.53-2.83,2.38-.14,4.8-.05,7.1,.61,3.99,1.15,7.3,3.89,10.48,6.57,2.39,2.01,4.82,4.07,6.49,6.71,1.87,2.96,2.9,6.97,2.14,10.44-1.63-1.38-2.31-3.32-4.54-4.27Z"/><path class="cls-5" d="M110.45,124.47c-.82,.15-1.69,.33-2.26,.93-.77,.82-.69,2.08-.7,3.21,0,.32-.03,.68-.27,.89-.46,.41-1.18-.09-1.52-.61-1.63-2.57-.61-6.44,2.07-7.87,1.14-.61,2.45-.8,3.73-.98,1.33-.19,2.65-.38,3.98-.57,2.77,0,5.62-1.4,8.2-2.25,.68-.22,1.37-.45,2.09-.48,1.14-.05,2.24,.4,3.29,.84,.25,.1,.5,.21,.69,.4,.35,.35,.38,.92,.25,1.4-.42,1.57-2.19,2.37-3.81,2.58-5.28,.68-10.5,1.57-15.76,2.52Z"/><path class="cls-5" d="M141.41,122.79c3.61,.89,6.99,1.19,10.67,1.23,1.34,.01,2.82,.09,3.75,1.05,.18,.19,.34,.42,.56,.57s.53,.22,.75,.07c.14-.1,.22-.26,.27-.42,.39-1.11,.19-2.41-.52-3.35-1.2-1.58-3.33-1.42-5.04-2.02-2.12-.74-3.73-1.4-6.11-1.4-1,0-2.01,.07-3.01,.02-1.59-.08-8.48-3.43-8.89-.04-.12,1,.9,1.72,1.79,2.19,1.81,.96,3.76,1.61,5.78,2.11Z"/><path class="cls-14" d="M173.74,95.12c-1.23,1.65-1.18,3.89-1.12,5.95,.26,8.55,2.07,22.04-4.95,28.47-2.22,2.03-5.13,3.1-7.75,4.57-2.82,1.58-5.36,3.68-7.45,6.15-2.66,3.15-4.63,6.94-7.88,9.48-4.45,3.49-10.58,4.02-16.19,3.27-7.05-.94-11.45-3.73-16.55-8.39-2.47-2.26-5.55-3.79-8.4-5.62-2.21-1.42-4.28-3.01-5.82-5.25-1.85-2.68-3.99-5.37-4.61-8.51-.48-2.46-.59-5.25-1.72-7.5-1.21-2.4-1.08-5.23-1.02-7.92,.09-3.6,0-7.21-.24-10.81-.09-1.33-.26-2.76-.98-3.83,.2,5.63,.31,11.14,0,16.23-.93,15.72,4.49,24.7,13.42,35.06,8.93,10.36,22.34,17.66,35.58,14.23,8.71-2.26,15.96-8.25,22.22-14.71,5.38-5.55,10.39-11.78,12.6-19.19,1.31-4.4,1.57-9.04,1.74-13.63,.22-5.89-.24-11.67-.56-17.5-.09-.18-.2-.36-.34-.52Z"/><path class="cls-51" d="M103.42,149.55c2.29,3.24,4.82,6.45,8.18,8.55,1.83,1.14,3.85,1.93,5.85,2.7,4.61,1.79,9.34,3.6,14.28,3.72,2.87,.07,5.73-.44,8.49-1.24,13.03-3.78,23.82-14.52,27.66-27.53-5.98,4.87-11.95,9.73-17.93,14.6-3.96,3.23-8.14,6.56-13.16,7.54-2.21,.43-4.49,.38-6.74,.31-3.11-.1-6.3-.27-9.19-1.42-2.36-.94-4.42-2.51-6.44-4.05-4.15-3.18-8.26-6.42-12.41-9.59-1.57-1.2-3.09-2.15-2.52,.57,.34,1.63,2.87,4.57,3.94,5.85Z"/><path class="cls-47" d="M107.7,25.53c-2.79,.44-5.54,1.75-7.61,3.25-8.93,6.44-12.54,17.83-15.4,28.46-1.15,4.28-2.29,8.62-2.6,13.06-.18,2.6-.43,8.9,1.31,11.08,.32,.39,.73,.69,1.09,1.05,1.65,1.62,1.27,3.87,1.81,5.88,.59,2.22,3.55,5.57,3.38,7.83,.54-7.08-.15-14.21,.1-21.31,.25-7.1,1.55-14.42,5.59-20.26,3.06-4.42,7.62-7.77,12.75-9.38,.47-.15,.96-.29,1.36-.59,.84-.64,1.02-1.82,1.12-2.88,.54-5.52,1.56-9.89,4.61-14.51-2.16-1.74-4.85-2.1-7.5-1.68Z"/><path class="cls-33" d="M142.81,46.03c-.49,.04-.99,.04-1.48-.04-1.02-.18-1.75-.05-2.74,.27s-1.87,.67-2.83,.9c-3.31,.81-6.82,.09-10.19,.58-1.49,.21-2.94,.66-4.43,.78-2.98,.25-5.92-.76-8.7-1.88-1.54-.62-3.18-1.38-3.91-2.87-.58-1.19-.43-2.6-.28-3.91,.6-4.98,1.42-10.41,5.14-13.78,1.42-1.29,3.15-2.16,4.88-2.98,6.63-3.16,13.85-5.87,21.15-5.05,6.74,.75,12.75,4.42,18.52,8,2.47,1.54,5.04,3.17,6.5,5.69,.6,1.03,.98,2.17,1.54,3.22,1.51,2.82,4.18,4.84,5.94,7.51,4.04,6.13,2.55,14.21,.92,21.37,.29-1.28,.03-1.79-.74-2.73-.86-1.06-1.43-2.35-2.11-3.53-1.45-2.48-3.06-4.88-4.93-7.07-1.92-2.25-4.13-4.28-6.63-5.87-1.92-1.22-5.29-3.33-7.45-1.61-.49,.38-.77,1.01-1.31,1.33-.49,.29-1.16,.47-1.71,.63-1.67,.49-3.4,.92-5.15,1.05Z"/><path class="cls-29" d="M165.07,45.38c-4.53-4.04-10.71-6.03-16.78-5.97-9.52,.1-19.03,4.91-28.25,2.5-1.07-.28-2.13-.65-3.2-.94l.31-.22c-.4,0-.81,0-1.21,.02-.18-.04-.37-.08-.55-.11-1.59-.24-3.33-.07-4.59,.94-.7,.56-1.16,1.43-1.26,2.32-.13,.29-.23,.59-.27,.9,.84,.85,2.03,1.38,3.16,1.84,2.78,1.12,5.72,2.13,8.7,1.88,1.5-.13,2.95-.57,4.43-.78,3.38-.48,6.88,.23,10.19-.58,.96-.23,1.89-.6,2.83-.9,.99-.32,1.72-.45,2.74-.27,.49,.09,.99,.08,1.48,.04,1.74-.12,3.47-.56,5.15-1.05,.54-.16,1.21-.34,1.71-.63,.53-.31,.82-.94,1.31-1.33,2.17-1.72,5.53,.39,7.45,1.61,2.5,1.59,4.71,3.62,6.63,5.87,1.87,2.19,3.48,4.59,4.93,7.07,.59,1.01,1.1,2.09,1.77,3.05,.25-5.71-2.41-11.42-6.68-15.24Z"/><path class="cls-48" d="M180.05,77.61c-.08,1.1-.2,2.22-.32,3.39-.16,1.54-2.08,.97-2.79,2.2-.47,.8-.36,2.14-.65,3.05-.56,1.74-1.25,3.44-1.78,5.2-.29,.97-1.7,4.08-1.33,4.99-1.32-3.19-.12-6.87-.76-10.27-.31-1.63-1.03-3.16-1.38-4.77-.35-1.57-.34-3.19-.34-4.79,.01-4.27,.02-8.55,.04-12.82,0-2.58,.02-5.22,.87-7.66,.71-2.04,1-5.45,3.15-3.6,1.63,1.4,2.51,6.24,3.11,8.27,1.03,3.5,1.75,7.08,2.14,10.71,.23,2.17,.19,4.13,.04,6.12Z"/><path class="cls-31" d="M123.87,20.33c-.98,.78-1.95,1.57-2.93,2.35,1.29-3.66,4.48-6.47,8.12-7.8,3.64-1.33,7.68-1.3,11.46-.45,5.59,1.25,10.9,4.41,13.96,9.25-3.68-3.9-8.42-6.8-13.57-8.29-3.38-.98-7.12-1.33-10.36,.04-1.55,.65-2.91,1.67-4.22,2.72-2.31,1.85-4.51,3.83-6.6,5.92,1.06-3.41,3.66-6.31,6.93-7.75"/><path class="cls-42" d="M106.13,33c-1-1.75-2.03-3.59-2.05-5.6-.04-3.44,3.01-6.32,6.35-7.16,3.34-.84,6.86-.09,10.16,.88-1.63-1.33-3.76-1.9-5.86-1.98s-4.18,.29-6.25,.67c-1.29,.24-2.65,.52-3.59,1.43-.8,.78-1.15,1.9-1.42,2.99-.66,2.74-.89,5.82,.58,8.22,.92,1.51,2.58,2.93,4.2,3.59-.78-.94-1.51-1.96-2.13-3.04Z"/><path class="cls-41" d="M128.48,43.27c-.12-.17-.24-.35-.34-.53-2.88-4.91-4.31-10.75,.45-15.01,2.18-1.95,5.06-2.93,7.92-3.56,3.53-.79,7.32-1.11,10.7,.21-3.66-2.07-8.18-1.38-12.31-.64-3.19,.57-6.61,1.26-8.85,3.61-.95,1-1.62,2.24-2.11,3.52-2,5.27-.49,9.72,3.92,13.2,1.08,.85,2.37,1.59,3.75,1.52-1.28-.32-2.35-1.22-3.12-2.31Z"/><path class="cls-40" d="M138,36.91c-.35,1.58-.35,3.24,.04,4.85,.28,1.16,.81,2.36,1.85,2.95-1.44-2.09-1.63-4.77-1.44-7.23,.18-2.29,2.07-4.47,3.87-5.77,1.94-1.39,4.24-2.19,6.58-2.68,3.25-.69,6.79-.8,9.75,.71-3.28-2.11-7.49-2.25-11.31-1.44-1.51,.32-3.01,.78-4.34,1.57-2.6,1.56-4.37,4.17-5,7.04Z"/><path class="cls-43" d="M149.64,36.23c2.94-.92,5.93-.66,8.87,.35,2.88,1,5.54,2.53,8.17,4.07-1.97-2.79-5.2-4.49-8.53-5.27-4.25-1-13.34-2.5-14.55,3.54-.38,1.93,.43,4.04,2,5.21-.34-1.55-.66-3.2-.08-4.67,.53-1.36,1.78-2.34,3.13-2.88,.32-.13,.65-.25,.98-.35Z"/><path class="cls-44" d="M98.77,42.17c-3.52,.22-7.37,1.47-9.15,4.66,1.81-.88,3.02-2.74,4.99-3.41,1.27-.43,2.62-.54,3.96-.64,1.68-.13,3.37-.25,5.03,.02s3.31,.96,4.41,2.24c-2-1.99-4.9-2.84-7.72-2.9-.49-.01-1,0-1.52,.03Z"/><path class="cls-17" d="M116.62,94.36c-.73,.26-1.45,.54-2.21,.68-1.45,.28-3.35,.16-4.75-.32s-2.71-1.12-3.98-1.87c.69,.4,2.51,.79,3.29,1.06,.88,.31,1.54,.42,2.45,.63,1.8,.41,3.39,.15,5.2-.19Z"/><path id="_Bana_" class="cls-12" d="M103.45,109.16c-.06-.33-.06-.67,.01-1,.57-2.85,5.81-2.6,6.19,.38,.19,1.53-1.02,3.07-2.54,3.35-1.66,.3-3.37-1.08-3.66-2.73Z"/><path class="cls-11" d="M117.32,126.88c.33-.08,.63,.23,.79,.54s.29,.66,.6,.81c-.01-.84,.76-1.62,1.6-1.62,.17,0,.35,.03,.49,.13,.21,.14,.3,.4,.4,.63,.3,.65,.8,1.2,1.42,1.56-.02-.52-.04-1.07,.18-1.54s.78-.83,1.27-.65c.24,.09,.42,.28,.59,.47,.54,.59,1.07,1.17,1.61,1.76,.11-1.38,1.45-2.54,2.83-2.49,1.18,.04,2.28,.92,2.61,2.06,.05-.38,.22-.73,.36-1.09,.04-.1,.08-.21,.17-.27,.08-.06,.18-.08,.28-.09,1.06-.16,2.14-.24,3.21-.26,.09,0,.18,0,.27,.03,.09,.04,.15,.11,.22,.18,.33,.38,.45,.84,.71,1.25,.31-.57,.71-1.04,1.29-1.35,.28-.15,.59-.26,.9-.32,.11-.02,.86-.14,.91-.02,.25,.59,.48,1.19,.68,1.8,.88-1.01,1.97-2.11,3.31-2,.39,.67,.59,1.44,.57,2.21,0,.18-.02,.36-.12,.51-.09,.14-.24,.22-.38,.3-.83,.47-1.66,.93-2.48,1.4-.19,.11-.39,.22-.61,.22s-.45-.15-.46-.37c.12,.41-.15,.86-.54,1.05s-.84,.16-1.25,.06c-.77-.2-1.69-.63-2.28-.1-.16,.14-.26,.33-.43,.46-.24,.19-.56,.22-.86,.24-.59,.04-1.18,.09-1.77,.13-.39,.03-.8,.05-1.16-.1s-.65-.55-.54-.93c0,.39-.3,.72-.65,.88s-.74,.19-1.13,.22c-.64,.04-1.29,.09-1.93,.13-.25,.02-.52,.03-.75-.07s-.42-.36-.35-.61c-.83,.36-1.69,.73-2.59,.68s-1.84-.65-1.95-1.55c-.01,.26-.29,.45-.55,.46s-.51-.1-.75-.22c-1.31-.63-2.74-1.26-3.93-2.09-.52-.36-.66-.45-.58-1.08,.05-.41,.34-1.26,.8-1.36Z"/><path class="cls-8" d="M144.29,126.82c.38-.34,.88-.41,1.37-.46,.05,0,.11,0,.15,.03,.03,.03,.05,.07,.06,.11,.11,.39,.22,.77,.27,1.17,.02,.14,.03,.3-.04,.43-.1,.19-.33,.25-.54,.3-.5,.11-1.09,.2-1.45-.17-.37-.38-.21-1.06,.19-1.41Z"/><path class="cls-8" d="M115.39,127.24c-.06,.28-.06,.6,.11,.84,.07,.1,.17,.19,.28,.25,.28,.18,.66,.26,.94,.09,.04-.03,.08-.06,.11-.1,.05-.08,.04-.18,.02-.27-.07-.29-.24-.54-.4-.78-.1-.14-.52-.94-.72-.89-.15,.04-.32,.74-.34,.87Z"/><path class="cls-45" d="M122.38,127.03c4.76,.01,9.53,.03,14.29,.04,.52,0,1.03,0,1.55-.07,.52-.07,1.02-.22,1.55-.25,.73-.05,1.45,.11,2.17,.17,2.06,.17,4.09-.49,6.02-1.24-3.67-.15-7.34-.07-11,.24-1.03,.09-2.07,.19-3.1,.17-1.07-.02-2.14-.19-3.21-.29-1.87-.18-3.75-.18-5.63-.19-2.68,0-5.35,0-8.03-.01-.5,0-1.03,.16-.64,.65,.31,.38,1.42,.46,1.85,.53,1.38,.24,2.79,.25,4.18,.25Z"/><path class="cls-9" d="M137.06,131.26c.03-.14,.06-.28,.09-.42,.07-.4,.12-.8,.13-1.21,0-.2,.01-.42-.06-.6-.32,.62,0,1.55-.16,2.23Z"/><path class="cls-9" d="M131.93,131.56c-.17-.36-.24-.76-.31-1.16-.05-.3-.19-.86,.08-1.05,.18,.69,.16,1.49,.23,2.21Z"/><path class="cls-9" d="M122.43,131.49c-.18-.51-.28-1.19-.1-1.7,.34,.19-.04,1.31,.1,1.7Z"/><path class="cls-6" d="M138.26,112.9c.87-.13,1.78,.06,2.53,.53,.23,.14,.46,.36,.44,.62-.9,.01-1.78-.39-2.68-.37-.9,.02-1.84,.54-2.72,.36,.54-.6,1.64-1.01,2.43-1.13Z"/><path class="cls-6" d="M128.83,114.58c-.67-.69-1.54-1.19-2.47-1.42-.43-.1-.87-.15-1.31-.19-.67-.06-1.36-.11-2.01,.07s-1.26,.63-1.45,1.28c.09,.3,.44,.47,.76,.46s.61-.15,.91-.26c1.65-.64,3.54-.62,5.17,.07,.21,.09,.49,.18,.66,.03-.44-.34-.89-.68-1.33-1.02"/><path class="cls-38" d="M109.2,42.39c-8.06,.6-14.81,7.04-17.88,14.52s-3.05,15.85-2.33,23.91c1.36-3.71,.76-7.8,.99-11.75,.7-11.68,9.84-22.35,21.27-24.84-1.83-1.27-4.27-2.57-6.14-1.36-.08,.05,.67,.33,.61,.4"/><path class="cls-37" d="M170.21,77.4c.29,6.6,3.42,12.96,2.86,19.54,2.3-7.23,.99-14.9,.15-22.26-.43-3.7-.71-7.37-.58-11.1,.08-2.44,.6-6.25-1.61-7.96-.86,2.04,.22,5.4,.25,7.63,.06,4.74-1.28,9.39-1.07,14.14Z"/><path class="cls-54" d="M113.75,94.96c-1.42,.17-2.75,.17-4.14-.23-.68-.2-1.33-.48-1.94-.82-.39-.22-1.4-.71-1.48-1.17,2.24,1.61,4.75,2.56,7.56,2.23Z"/><path class="cls-55" d="M121.57,91.84c-.42-.31-.93-.49-1.38-.76-.46-.28-.99-.59-1.36-.97,.13,0,.33,.19,.44,.27,.54,.38,1.01,.8,1.63,1.07,.23,.1,.46,.18,.7,.24,.26,.07,.45,.05,.59,.3,.1,.17,.22,.37,.2,.58-.02,.22-.2,.42-.36,.56-.1,.09-.2,.17-.32,.23-.06,.03-.28,.09-.31,.13,.12-.19,.23-.37,.35-.56,.07-.11,.14-.23,.17-.36,.05-.23-.06-.47-.23-.63-.04-.04-.08-.07-.12-.1Z"/><path class="cls-16" d="M135.17,274.43c-3.23-2.78-1.66-20.01-1.82-24.58-.09-2.62-.18-5.24-.37-7.86-.39-5.42-1.22-10.82-1.3-16.26s.63-11.01,3.14-15.84c1.39-2.67,3.34-5.14,3.91-8.1,.22-1.12,.23-2.32,.75-3.34,.96-1.89,4.39-2.21,6.14-3.14,2.97-1.57,5.44-4.04,7.83-6.35,1.23-1.19,2.47-2.11,3.28-3.6s1.52-2.33,3.07-3.11c6.02-3.05,11.37-7.97,13.98-14.36,.46-1.12,.95-2.42,2.09-2.83,.84-.3,1.76,0,2.6,.3,14.34,5.15,28.39,11.08,42.09,17.75,6.97,3.39,13.84,6.98,20.61,10.75,5.8,3.23,11.88,4.95,8.93,12.67-3.29,8.6-6.24,19.07-12.08,26.25-5.4,6.65-12.44,11.56-17.96,17.99-4.71,5.49-9.58,7.99-16.37,10.75-13.59,5.52-27.87,9.34-42.4,11.38-4.43,.62-8.88,1.07-13.34,1.36-2.77,.18-10.13,1.73-12.53,.35-.09-.05-.18-.12-.27-.19Z"/><path class="cls-16" d="M15.06,209.34c-3.97,2.6-3.42,3.35-1.59,7.55,2.17,5,4.27,10.54,7.8,14.69,4.16,4.9,8.42,9.72,12.68,14.54,1.56,1.76,3.12,3.53,4.68,5.29,1.66,1.88,3.34,3.78,5.4,5.2,1.7,1.17,3.61,1.99,5.51,2.8,3.52,1.5,7.06,2.97,10.57,4.5,2.69,1.17,4.76,3.03,7.46,4.22,5.84,2.57,13.32,5.95,19.83,5.95,18.92,2.5,38.16,1.39,57.08-1.1,.58-7.74,1.16-15.5,.87-23.26-.24-6.41-1.08-12.78-2.01-19.12-.73-4.99-1.53-9.99-2.81-14.88-1.09-4.14-3.75-8.48-2.12-12.75,.16-.43,.35-.87,.3-1.33-.06-.62-.56-1.14-1.14-1.39s-1.22-.29-1.84-.3c-.27,0-.55-.01-.79-.15-.32-.18-.46-.55-.6-.89-.37-.88-.89-1.71-1.56-2.39-.53-.53-1.14-.96-1.76-1.38-2.09-1.45-4.12-2.94-6.13-4.47-5.55-4.21-12.09-6.88-18.15-10.33-3.27-1.86-6.99-4.02-9.9-6.38-1.98-1.6-4.58-7.54-2.12-9.75-2.89,2.59-6.41,3.9-9.83,5.57-3.28,1.59-6.32,3.6-9.58,5.21-13.15,6.47-26.05,13.46-38.66,20.92-7.29,4.32-14.49,8.8-21.59,13.44Z"/><path class="cls-10" d="M97.4,158.89c1.24,4.38,3.29,8.91,6.3,12.38,2.05,2.37,4.6,4.06,6.82,6.2,3.6,3.47,7.88,6.12,11.47,9.55-1.35-1.29-4.38,1.03-4.81,2.32-.62,1.86,.17,4.74,.55,6.58,.88,4.23,2.1,7.77,.9,12.08-.54,1.92-1.4,3.76-2.54,5.4-.27,.39-3.69,4.39-3.96,4.06-9.97-11.81-17.55-25.61-22.17-40.36-.45-1.44-.88-2.94-.68-4.44,.17-1.25,.77-2.4,1.33-3.54,1.66-3.34,3.08-6.79,4.25-10.32,.59-1.79,1.12-3.59,1.58-5.42,.25-1,.36-2.03,.54-3.05s.67-1.89,.87-2.86c.13,1.25,.22,2.5,.27,3.76,.02,.6,.04,1.08-.13,1.63-.12,.41-.4,.69-.53,1.09-.12,.38-.1,.89-.16,1.29-.2,1.2-.24,2.46,.09,3.64Z"/><path class="cls-1" d="M140.91,210.72c4.1-3.99,8.23-8.01,13.07-11.08,1.2-.76,2.46-1.48,3.36-2.58,.68-.82,1.11-1.81,1.54-2.79,.87-1.99,1.74-3.99,2.61-5.98,.51-1.17,1-2.61,.23-3.64-.92-1.23-2.86-.84-4.22-.12-2.64,1.4-4.77,3.52-6.54,5.9-1.87,2.53-2.59,5.06-5.98,5.72-.98,.19-1.94,.45-2.88,.77-1.25,.42-2.58,1.09-3,2.33-.39,1.14,.07,2.57-.72,3.48,2.59-2.92,7.12-3.26,10.02-5.87-1.66,1.18-2.15,3.37-2.83,5.29-.59,1.64-1.42,3.11-2.35,4.57-.69,1.08-1.46,3.18-2.3,3.99Z"/><path class="cls-10" d="M158.51,183.56c1.25-.71,2.96,.24,3.44,1.6s.04,2.88-.67,4.14-1.66,2.37-2.31,3.65c-2.15,4.26-.54,9.46,1.8,13.62,.56,.99,1.17,1.98,2.03,2.71,1.38,1.18,2.52,2.13,3.61,3.57,.09,.12,.2,.25,.34,.25,.19,0,.32-.18,.41-.35,1.08-2.01,1.31-3.97,2.01-6.13,1.31-4.06,2.95-8.01,4.92-11.8,1.51-2.92,2.6-5.14,3.3-8.37,.68-3.15,1.14-6.35,1.4-9.57,.13-1.68,.21-3.39-.13-5.05-.26-1.25-.74-2.43-1.23-3.61-2.26-5.4-4.94-10.85-6.61-16.49-.2-.68-.45-1.36-.77-1.99s-.78-1.39-1.46-1.74c-.33-.17-.7-.27-1.04-.41,0,.62-.01,1.23-.02,1.85,0,.65,.43,1.18,.82,1.67,.45,.57,.95,1.1,1.33,1.73,1.32,2.19,.86,4.99,.16,7.44-.69,2.41-1.58,4.77-2.51,7.1-.96,2.4-1.96,4.79-3.01,7.15-.93,2.1-1.91,4.21-3.33,6.01-1.45,1.84-3.32,3.35-5.28,4.61-2.26,1.45-4.1,3.81-5.75,5.88-.59,.74-1.18,1.48-1.91,2.09-.63,.53-1.34,.94-2.05,1.35-1.39,.8-2.78,1.6-4.17,2.41,.74-.43,2.88,.1,3.97-.4,1.3-.59,2.04-1.64,3.04-2.57,2.49-2.34,4.78-4.71,7.04-7.3,.8-.91,1.65-1.85,2.8-2.26s2.64-.06,3.13,1.05"/><path class="cls-50" d="M142.3,197.2c-1.01-.54-2.3,.24-2.81,1.26s-.53,2.21-.75,3.34c-.57,2.96-2.51,5.43-3.91,8.1-2.51,4.82-3.22,10.4-3.14,15.84s.91,10.83,1.3,16.26c.19,2.62,.28,5.24,.37,7.86,.29,8.57,.58,17.13,.86,25.7"/><path class="cls-11" d="M141.88,260.7c-.59,0-1.07,.56-1.18,1.14s.05,1.18,.22,1.75c.12,.42,.25,.87,.59,1.14,.22,.18,.5,.27,.78,.34,1.27,.32,2.86,.24,3.58-.86,.57-.88,.31-2.15-.46-2.87s-1.91-.94-2.95-.75c-.43,.08-.86,.22-1.19,.51-.71,.61-.79,1.65-.82,2.58"/><path class="cls-11" d="M137.43,216.02c.05-1.18,.13-2.42,.77-3.41s2.07-1.57,3.04-.91c.29,.2,.51,.48,.68,.78,1.53,2.76-.74,6.51-3.82,4.59-.61-.38-1.24-.88-1.39-1.59-.12-.56,.08-1.14,.38-1.64,.34-.56,.81-1.05,1.36-1.42,2.15-1.42,4.05,1.09,3.96,3.13,.17-1.15-.62-3.39-1.74-3.74-1.1-.34-2.39-.13-3.23,.65s-1.12,2.16-.53,3.14c.27,.45,.68,.79,1.11,1.09,.86,.61,1.81,1.08,2.82,1.4"/><path class="cls-35" d="M117.46,193.32c.25,1.25,.62,2.49,.99,3.66,2.35,7.45-.09,16.18-5.96,21.34,4.12-2.89,7.33-7.06,9.08-11.78,.16-.44,.32-.91,.24-1.38-.06-.39-.29-.76-.23-1.16,.11-.68,.96-.95,1.32-1.54,1.09-1.73-1.34-4.44-.19-6.48,1.32-2.35,4.28-1.83,5.92-.23,.95,.93,1.66,2.08,2.59,3.03,1.02,1.05,2.28,1.83,3.4,2.77,1.12,.94,2.15,2.11,2.44,3.55,.67-1.26,1.2-2.59,1.59-3.96-.65-.67-1.51-1.13-2.43-1.29-.52-.09-1.12-.12-1.43-.54-.16-.22-.21-.5-.3-.76-.49-1.46-2.16-2.08-3.43-2.96-2.91-1.94-5.45-5.25-7.76-7.85-.35-.39-.7-.79-1.13-1.08-2.74-1.88-4.82,.74-4.99,3.21-.08,1.14,.05,2.29,.27,3.43Z"/><path class="cls-13" d="M120.8,195c.62-.94,1.58-1.69,2.69-1.9s2.35,.2,2.98,1.13c.75,1.1,.45,2.76-.58,3.61-1.03,.85-2.62,.89-3.75,.17s-1.77-2.08-1.73-3.42c.01-.45,.11-.92,.43-1.24,.23-.23,.55-.35,.86-.43,1.23-.32,2.59-.13,3.68,.53-2.22-.75-4.72-.8-4.58,1.54Z"/><path class="cls-11" d="M164.36,208.75c1.13-.16,2.33-.36,3.19-1.11s1.13-2.28,.24-3c-.38-.31-.89-.4-1.37-.46-.68-.07-1.39-.07-2,.24-1,.51-1.44,1.87-.98,2.89s1.74,1.58,2.81,1.27,1.86-1.42,1.82-2.54"/><path class="cls-11" d="M111.43,210c-.61-.64-1.82-.4-2.25,.37s-.11,1.83,.62,2.34,1.73,.5,2.52,.1c.3-.15,.57-.35,.76-.62,.77-1.08-.38-2.79-1.71-2.69-1.33,.09-2.26,1.58-2.06,2.89"/><path class="cls-36" d="M173.85,195.4c6.24-3.86,9.62-11.85,8.06-19.02-.12-.57-.28-1.15-.2-1.73,.13-.93,.83-1.68,1.16-2.56,.67-1.77-.29-3.83-1.77-5.01s-3.38-1.68-5.22-2.15c.48,1.87,1.4,3.6,2.04,5.42,1.55,4.45,1.29,9.37,.12,13.94s-3.23,8.85-5.27,13.1c1.97-1.31,3.54-3.19,4.48-5.36"/><path class="cls-53" d="M121.5,91.8c-.06-.04-.11-.08-.17-.12-.39-.25-.83-.42-1.23-.65s-.78-.52-1.13-.83c-.07-.06-.14-.12-.16-.21,.36,.09,.67,.3,.98,.51,.14,.1,.28,.19,.42,.29,.43,.29,.86,.59,1.33,.81,.22,.1,.45,.12,.58,.34,.1,.17,.22,.37,.2,.58-.02,.22-.2,.42-.36,.56-.1,.09-.2,.17-.32,.23-.06,.03-.28,.09-.31,.13,.12-.19,.23-.37,.35-.56,.07-.11,.14-.23,.17-.36,.05-.23-.06-.47-.23-.63-.04-.04-.08-.07-.12-.1Z"/><path d="M102.62,91.09c-.35-.09-.69-.17-.82-.11,1.79-.77,3.51-1.66,5.26-2.49,1.32-.63,2.77-1.08,4.21-1.32,2.66-.45,4.64,.07,6.9,1.38,.4,.23,2.78,2.36,2.94,2.82-.66-.07-2.97-1.46-3.55-1.79-1.98-1.12-4.53-1.14-6.73-.69-1.02,.21-1.92,.47-2.85,.94-1.07,.53-2.1,.88-3.22,1.25-.45,.15-.74,.26-1.23,.23-.18-.01-.54-.12-.89-.22Z"/><path class="cls-57" d="M142.46,92.37s-.03-.07-.04-.11c-.15-.46,.24-.84,.62-1.05,.09-.05,.19-.1,.22-.19v-.06h-.04c-.11,.01-.21,.06-.3,.11-.31,.15-.66,.23-.95,.41-.27,.17-.62,.55-.6,.88s.34,.66,.64,.78c.41,.16,.87,.1,1.28-.05-.44,.07-.69-.36-.82-.72h0Z"/><path d="M154.87,89.32c.89,.43,1.72,.98,2.56,1.49,.48,.29,.98,.38,1.51,.51,.24,.06,.45,.12,.7,.11,.14,0,.61-.19,.71-.14-.73-.31-1.34-.72-2.02-1.15-.98-.61-1.47-1-2.06-1.33-1.27-.73-2.37-.98-3.82-1.26-3.42-.66-7.43,.74-9.6,3.54,.58,.45,1.89-1.01,2.46-1.34,.97-.56,2.04-.96,3.14-1.18,2.14-.43,4.44-.21,6.41,.75h.01Z"/><path class="cls-58" d="M150.77,86.38c3.16-.2,6.48,.9,8.54,3.31-2.28-2.08-5.46-3.04-8.54-2.92-2.02,.08-4.14,.59-5.93,1.54-.88,.47-1.7,1.03-2.49,1.63-.69,.52-1.74,1.13-2.25,1.83,2.48-3.43,6.54-5.12,10.67-5.38h0Z"/><path d="M106.21,87.22c.25,.23,.5,.45,.75,.65,.13,.1,.26,.21,.4,.3,.12,.08,.23,.2,.35,.26-.26-.02-.51-.15-.75-.31-.04-.03-.08-.06-.12-.09-.2-.15-.39-.32-.56-.53-.08-.1-.16-.22-.22-.34-.11-.21,.1,0,.15,.04Z"/><path d="M110.05,87.48s-.08,0-.11,.03c-.23-.34-.4-.73-.57-1.12-.05-.11-.11-.23-.13-.34,.13,.24,.23,.5,.37,.74s.28,.45,.44,.66"/><path d="M154.44,88.17c.63-.23,1.17-.71,1.45-1.32-.35,.56-.82,1.04-1.38,1.39h-.04c.24-.22,.44-.35,.68-.57,.3-.27,.61-.57,.71-.96-.41,.62-.98,1.15-1.63,1.51-.02,0-.04,.02-.04,.04s.23-.08,.23-.1h.02Z"/><path d="M151.64,85.8c-.08,.39-.12,.77-.28,1.15-.06,.15-.23,.36-.25,.52,.15-.06,.26-.25,.33-.39,.22-.45,.28-.97,.17-1.46,.05,.04,.04,.12,.02,.19Z"/><path d="M147.45,86.99c.02-.12,.03-.23,.04-.35,.05,.27,.05,.54,.02,.8-.02,.23-.02,.51-.13,.72-.01,.03-.08-.2-.08-.22,0-.14,.02-.28,.05-.42,.04-.18,.07-.36,.1-.54Z"/></g></svg>