<?xml version="1.0" encoding="UTF-8"?><svg xmlns="http://www.w3.org/2000/svg" xmlns:xlink="http://www.w3.org/1999/xlink" viewBox="0 0 262 280"><defs><style>.cls-1,.cls-2,.cls-3,.cls-4,.cls-5{fill:none;}.cls-2{opacity:.3;}.cls-6{fill:url(#Namnlös_övertoning_85-8);}.cls-7{fill:url(#Namnlös_övertoning_85-6);}.cls-8{fill:url(#Namnlös_övertoning_85-2);}.cls-9{fill:url(#Namnlös_övertoning_1847);}.cls-10{fill:url(#Namnlös_övertoning_2116);}.cls-11{fill:url(#Namnlös_övertoning_2045);}.cls-12{fill:url(#Namnlös_övertoning_2039);}.cls-13{fill:url(#linear-gradient);}.cls-14{fill:#f3f2ef;}.cls-15{fill:#693f47;}.cls-16{fill:#ecceb7;}.cls-17{fill:#fff;}.cls-18{fill:#fae3d5;}.cls-19{fill:#fbecdf;}.cls-20{fill:#c1987c;}.cls-21,.cls-22{fill:#d0997d;}.cls-23{fill:#d7a78f;}.cls-24{fill:#c6b0a9;}.cls-25{fill:#dbb29d;}.cls-26{fill:#dcb39d;}.cls-27{fill:#d5e9f6;}.cls-28{fill:#122d4d;}.cls-29{fill:#2e4662;}.cls-30{fill:#4c607f;}.cls-31{fill:url(#Namnlös_övertoning_85-7);opacity:.26;}.cls-32{fill:url(#Namnlös_övertoning_85-3);opacity:.34;}.cls-33{fill:url(#Namnlös_övertoning_373-2);}.cls-33,.cls-34{opacity:.6;}.cls-35{fill:url(#Namnlös_övertoning_85-10);opacity:.24;}.cls-36{fill:url(#Namnlös_övertoning_85-11);opacity:.44;}.cls-37{fill:url(#Namnlös_övertoning_85-13);opacity:.46;}.cls-38{fill:url(#Namnlös_övertoning_85-12);opacity:.2;}.cls-39{fill:url(#Namnlös_övertoning_85-9);}.cls-39,.cls-4,.cls-5{opacity:.56;}.cls-40{fill:url(#Namnlös_övertoning_131);}.cls-41{fill:url(#linear-gradient-3);}.cls-42{fill:url(#linear-gradient-4);}.cls-43{fill:url(#linear-gradient-2);}.cls-44{fill:url(#linear-gradient-6);}.cls-45{fill:url(#linear-gradient-7);}.cls-46{fill:url(#linear-gradient-5);}.cls-3{stroke:url(#Namnlös_övertoning_85-14);}.cls-3,.cls-4,.cls-5{stroke-miterlimit:10;stroke-width:.25px;}.cls-4{stroke:url(#Namnlös_övertoning_85-4);}.cls-5{stroke:url(#Namnlös_övertoning_85-5);}.cls-47{fill:url(#Namnlös_övertoning_85);}.cls-34{fill:url(#Namnlös_övertoning_373);}.cls-48{fill:#c17853;opacity:.8;}.cls-22{opacity:.72;}.cls-49{fill:#d5a38a;opacity:.4;}</style><linearGradient id="Namnlös_övertoning_85" x1="145.16" y1="42.67" x2="166.56" y2="42.67" gradientUnits="userSpaceOnUse"><stop offset="0" stop-color="#aa8260"/><stop offset="1" stop-color="#d0997d"/></linearGradient><linearGradient id="Namnlös_övertoning_85-2" x1="177.79" y1="89.3" x2="185.73" y2="89.3" xlink:href="#Namnlös_övertoning_85"/><linearGradient id="Namnlös_övertoning_373" x1="92.96" y1="102.66" x2="136.74" y2="102.66" gradientUnits="userSpaceOnUse"><stop offset="0" stop-color="#c3997d"/><stop offset="1" stop-color="#e7c5a3"/></linearGradient><linearGradient id="linear-gradient" x1="155.03" y1="71.72" x2="187.04" y2="71.72" gradientUnits="userSpaceOnUse"><stop offset="0" stop-color="#bb9d72"/><stop offset="1" stop-color="#e0c08f"/></linearGradient><linearGradient id="linear-gradient-2" x1="87.94" y1="74.2" x2="153.47" y2="74.2" xlink:href="#linear-gradient"/><linearGradient id="linear-gradient-3" x1="112.07" y1="30.92" x2="137.03" y2="30.92" xlink:href="#linear-gradient"/><linearGradient id="linear-gradient-4" x1="104.71" y1="33.56" x2="128.85" y2="33.56" xlink:href="#linear-gradient"/><linearGradient id="linear-gradient-5" x1="158.07" y1="40.33" x2="169.16" y2="40.33" xlink:href="#linear-gradient"/><linearGradient id="linear-gradient-6" x1="87.88" y1="72.23" x2="94.43" y2="72.23" xlink:href="#linear-gradient"/><linearGradient id="linear-gradient-7" x1="115.33" y1="28.49" x2="137.84" y2="28.49" xlink:href="#linear-gradient"/><linearGradient id="Namnlös_övertoning_85-3" x1="102.92" y1="103.81" x2="128.31" y2="103.81" xlink:href="#Namnlös_övertoning_85"/><linearGradient id="Namnlös_övertoning_1847" x1="97.88" y1="89.65" x2="118.16" y2="89.65" gradientUnits="userSpaceOnUse"><stop offset="0" stop-color="#bb9d72"/><stop offset=".31" stop-color="#ba996e"/><stop offset=".62" stop-color="#b98d63"/><stop offset=".93" stop-color="#b67952"/><stop offset="1" stop-color="#b6744d"/></linearGradient><linearGradient id="Namnlös_övertoning_2039" x1="134.97" y1="83.23" x2="160.67" y2="83.23" gradientUnits="userSpaceOnUse"><stop offset="0" stop-color="#cfa583"/><stop offset=".13" stop-color="#cea988"/><stop offset=".56" stop-color="#cdb394"/><stop offset="1" stop-color="#cdb798"/></linearGradient><linearGradient id="Namnlös_övertoning_85-4" x1="160.92" y1="84.72" x2="164.74" y2="84.72" xlink:href="#Namnlös_övertoning_85"/><linearGradient id="Namnlös_övertoning_85-5" x1="162.17" y1="83.26" x2="165.26" y2="83.26" xlink:href="#Namnlös_övertoning_85"/><linearGradient id="Namnlös_övertoning_85-6" x1="103.37" y1="96.68" x2="120.48" y2="96.68" xlink:href="#Namnlös_övertoning_85"/><linearGradient id="Namnlös_övertoning_85-7" x1="136.75" y1="94.66" x2="153.78" y2="94.66" xlink:href="#Namnlös_övertoning_85"/><linearGradient id="Namnlös_övertoning_85-8" x1="139.15" y1="90.42" x2="162.02" y2="90.42" xlink:href="#Namnlös_övertoning_85"/><linearGradient id="Namnlös_övertoning_85-9" x1="163.72" y1="94.47" x2="167.46" y2="94.47" xlink:href="#Namnlös_övertoning_85"/><linearGradient id="Namnlös_övertoning_85-10" x1="104.39" y1="105.3" x2="123.13" y2="105.3" xlink:href="#Namnlös_övertoning_85"/><linearGradient id="Namnlös_övertoning_85-11" x1="100.58" y1="124.41" x2="122.59" y2="124.41" xlink:href="#Namnlös_övertoning_85"/><linearGradient id="Namnlös_övertoning_373-2" x1="105.98" y1="179.55" x2="142.42" y2="179.55" xlink:href="#Namnlös_övertoning_373"/><linearGradient id="Namnlös_övertoning_2045" x1="99.62" y1="138.33" x2="178.62" y2="138.33" gradientUnits="userSpaceOnUse"><stop offset="0" stop-color="#b6744d"/><stop offset=".42" stop-color="#b8875e"/><stop offset="1" stop-color="#bb9d72"/></linearGradient><linearGradient id="Namnlös_övertoning_85-12" x1="91.95" y1="84.69" x2="175.11" y2="84.69" xlink:href="#Namnlös_övertoning_85"/><linearGradient id="Namnlös_övertoning_85-13" x1="107.24" y1="91.96" x2="125.13" y2="91.96" xlink:href="#Namnlös_övertoning_85"/><linearGradient id="Namnlös_övertoning_131" x1="121.37" y1="135.91" x2="152.85" y2="135.91" gradientUnits="userSpaceOnUse"><stop offset="0" stop-color="#bf6851"/><stop offset="1" stop-color="#d29e82"/></linearGradient><linearGradient id="Namnlös_övertoning_85-14" x1="97.93" y1="94.86" x2="100.76" y2="94.86" xlink:href="#Namnlös_övertoning_85"/><linearGradient id="Namnlös_övertoning_2116" x1="137.4" y1="143.73" x2="134.99" y2="126.31" gradientUnits="userSpaceOnUse"><stop offset=".3" stop-color="#d4c2a7"/><stop offset=".5" stop-color="#c8a383"/><stop offset=".7" stop-color="#be8965"/><stop offset=".88" stop-color="#b87953"/><stop offset="1" stop-color="#b6744d"/></linearGradient></defs><g id="MALLAR"><g id="BG-3"><circle class="cls-27" cx="131.31" cy="131.48" r="129"/></g></g><g id="Danne"><path class="cls-47" d="M149.44,37.09c5.73-.77,11.78,3.62,15.6,7.49,.98,.99,1.94,2.44,1.32,3.69-.24,.48-.69,.83-1.17,1.06-3.26,1.53-7.98-3.84-10.6-5.48-3.48-2.17-7.19-4.31-9.43-7.88,5.3-1,11.07,1,14.63,5.06"/><path class="cls-8" d="M179.09,87.39c.09,3.91,.05,7.82-.11,11.72,3.06-2.8,5.09-6.58,6.4-10.52,.18-.55,.35-1.11,.35-1.69,0-.59-.2-1.17-.42-1.72-.78-1.94-1.96-3.73-3.44-5.21-.3-.3-.72-.62-1.12-.47-.28,.1-.44,.39-.57,.65-1.67,3.43-2.5,7.27-2.39,11.08"/><path class="cls-16" d="M179.35,91.48c.64-1.19,1.29-2.38,1.93-3.57,.55-1.03,1.22-2.14,2.34-2.47,1.36-.4,2.81,.62,3.37,1.92,.56,1.3,.46,2.78,.31,4.19-.62,5.75-1.85,11.41-3.07,17.06-.42,1.96-.85,3.92-1.27,5.89-.19,.88-.38,1.77-.8,2.56-.97,1.86-2.98,2.91-4.86,3.85,.4-8.28,.8-16.55,1.2-24.83,.07-1.37,.14-2.74,.47-4.07,.73-2.87,2.75-5.39,5.4-6.72"/><path class="cls-18" d="M177.7,111.32c.15-4.25,.54-8.59,.83-12.8,.61-8.75,2.28-17.64-.74-26.09-1.07-3-2.2-5.98-3.55-8.86-6.16-13.15-19.9-22.95-34.26-25.1-8.28-1.24-17.62-1.06-25.09,2.98-6.75,3.65-12.14,9.46-16.1,15.88-2.09,3.39-3.61,7.1-4.33,11.03-1.29,7.06-2.06,13.59-.32,20.7,.55,2.24,1.54,4.55,1.84,6.84,.3,2.33,.2,4.73,.49,7.08,.31,2.5,.73,4.98,1.15,7.46,.62,3.7,1.25,7.4,1.87,11.09,.57,3.41,.63,6.83,1.64,10.18,1.32,4.4,3.76,8.36,6.2,12.26,2.53,4.03,5.08,8.04,7.91,11.86,2.85,3.86,6.14,7.64,10.55,9.51,2.82,1.2,5.93,1.53,8.99,1.75,4.12,.3,8.43,.39,12.2-1.3,2.33-1.04,4.32-2.7,6.28-4.34,6.58-5.51,13.33-11.22,17.31-18.83,4.54-8.69,7.12-17.65,7.08-27.45,0-1.27,.02-2.56,.07-3.85Z"/><path class="cls-34" d="M134.86,151.69c-3.18-29.23-4.48-58.64-5.35-88.02-.24-8.18,2.66-21.65-3.64-25.55-3.86,.48-7.61,1.51-10.98,3.33-6.75,3.65-12.15,9.46-16.1,15.88-2.09,3.39-3.61,7.1-4.33,11.03-.55,3.01-1.03,6.04-1.23,9.1-.1,1.49,.12,3.1-.17,4.55s.05,3.19,.32,4.65c.59,3.25,1.69,6.37,2.4,9.59,.48,2.2,.41,4.5,.69,6.74,.31,2.5,.73,4.98,1.15,7.46,.62,3.7,1.25,7.4,1.87,11.09,.57,3.41,.63,6.83,1.64,10.18,1.32,4.4,3.76,8.37,6.2,12.26,2.53,4.03,5.08,8.04,7.91,11.87,2.85,3.86,6.14,7.64,10.55,9.51,2.82,1.2,5.93,1.53,8.99,1.75,.65,.05,1.31,.08,1.97,.11-.69-5.17-1.32-10.34-1.89-15.52Z"/><path class="cls-13" d="M155.91,41.57c1.72,2.16,3.5,4.29,5.36,6.34,1.69,1.87,2.62,4.07,4.25,6,.05-.47,.09-.94,.14-1.41,.72,1.53,1.44,3.05,2.15,4.58,.02-.35,.14-.7,.33-1,.93,1.59,1.73,3.25,2.39,4.97-.03-.34,.09-.7,.33-.95,1.75,2.16,2.15,4.46,3.17,6.92,1.01,2.42,1.99,4.62,2.4,7.27,.52,3.35,.06,6.77,.53,10.11,.2,1.43,.07,2.71,0,4.17s.22,3.17-.02,4.6c.1-.59,.35-1.16,.72-1.64,.11,1.9,0,3.82-.33,5.69,.31-.09,.61-.17,.92-.26-.92,2.2-1.13,4.69-.58,7.01,.08,.33,.21,.7,.53,.82,.23-1.55,.33-3.11,.32-4.67,.06,.52,.32,1.01,.71,1.36,.5-2.73,.05-5.43-.05-8.16-.01-.3-.01-.63,.19-.85s.68-.15,.69,.15c-.23-1.92-.06-3.88,.48-5.73,.26,.46,.64,.85,1.09,1.14-.79-1.19-.93-2.78-.37-4.08,1.53,1.63,4.82,1,5.78,3.02-.43-1.65-.87-3.31-1.59-4.86-.36-.76-.78-1.5-1.06-2.29-.85-2.39-.43-5.3-2.05-7.26,.45,.46,.9,.92,1.34,1.39-1.62-3.5-3.23-6.99-4.85-10.49l.77,.59c.17-.71-.16-1.43-.48-2.08-1.35-2.76-2.49-6.21-4.39-8.64-.81-1.04-1.85-1.78-2.58-2.88-.72-1.11-1.28-2.21-2.17-3.22-1.7-1.92-3.82-3.42-5.73-5.12-.86-.77-1.94-1.23-3.01-1.65-1.97-.77-4.1-1.71-6.23-1.78,2.9,1.24,5.64,2.85,8.14,4.78-2.34-1.51-5.02-2.48-7.78-2.82,1.19,1.62,2.64,3.05,4.29,4.21"/><path class="cls-43" d="M153.28,41.86c-.18-1.19-.36-2.39-.77-3.51s-2.58-2.78-3.57-3.46c.13,.1,.26,.21,.38,.32,1.66,1.48,2.6,3.6,3.49,5.64-.31-.97,.02-.83-.29-1.81-.15-.47-.3-.94-.54-1.37-.2-.34-.45-.65-.71-.95-1.02-1.17-2.24-.4-3.51-1.27,2.43,1.11,4.43,3.15,5.5,5.6,.16,.37,.3,.79,.15,1.16-.32,.77-1.46,.59-2.24,.29-1.96-.77-4.09-1.71-6.17-2.08-.67-.12-1.24-.1-1.85-.3-.44-.14-.73-.93-1.32-.66-.09,.04-.17,.12-.27,.15-.37,.14-.68-.33-1.06-.46-.18-.06-.37-.05-.55-.05-.67,0-1.34-.16-1.94-.47-.3-.15-.59-.35-.92-.38-.4-.04-1.28,.41-1.77,.47-.99,.13-2.13-.09-3.14-.07-1.55,.03-3.09,.16-4.63,.29-1.36,.11-2.72,.23-4.09,.34-1.49,.12-3,.25-4.4,.78-1.67,.63-2.62,1.58-4.44,1.62,.15,.13,.24,.32,.27,.52-.43,.39-1.16,.28-1.61,.65-.16,.13-.27,.31-.38,.47-1.61,2.23-4.91,3.72-6.93,5.66-3.34,3.22-6.3,7.51-8.19,11.76,.3,.02,.6-.11,.79-.34-.57,1.15-1.05,2.34-1.44,3.56,.22,.06,.48-.03,.61-.22-.74,1.28-1.38,2.62-1.92,3.99,.2-.13,.39-.27,.59-.4-1.34,.9-1.64,4.6-1.86,6.03-.39,2.5-.76,5-1,7.53-.16,1.63-.28,3.26-.15,4.89,.23,2.9,1.27,5.67,1.97,8.5,.6,2.44,.96,4.93,1.31,7.41,.75,5.24,1.49,10.48,2.24,15.72-.42-2.38-1.46-4.64-2.99-6.51-.4,.4-.8,.8-1.2,1.2-.23-4.91-1.03-9.79-2.37-14.52-.36,.59-.71,1.19-1.07,1.78-.79-2.96-1.58-5.92-2.37-8.88-.43-1.61-.86-3.23-.95-4.89-.13-2.48,.52-4.92,.88-7.37,.54-3.65,.45-7.37,1-11.01,.59-3.92,1.9-7.74,3.86-11.19-1.59,.5-3.04,1.44-4.16,2.68,1.79-1.91,3.35-4.04,4.63-6.32-.85,.57-1.71,1.14-2.56,1.71,3.71-5.15,7.87-10.07,12.98-13.83,5.11-3.77,11.26-6.34,17.61-6.39-4.5-.3-9.07,.53-13.19,2.38,3.13-1.73,6.42-3.5,9.99-3.52,1.31,0,2.62,.23,3.93,.1,1.11-.1,2.18-.46,3.26-.76,6.31-1.75,13.18-1.4,19.29,.96,3.11,1.2,5.77,2.42,7.2,5.57,.46,1.01,.74,2.09,.7,3.19-.01,.39,.28,.13-.1,.05Z"/><path class="cls-41" d="M127.85,28.99c-5.25-.81-10.61-.06-15.78,1.14,3.86-.82,7.8-1.44,11.73-1.21,2.65,.16,5.31,.72,7.73,1.83,1.48,.68,4.05,3.51,5.5,1.97-1.84-2.29-6.34-3.3-9.18-3.74Z"/><path class="cls-42" d="M104.71,35.57c5.6-1.66,11.41-2.6,17.25-2.77,1.84-.05,5.4,.94,6.9,.16-7.9-3.51-16.66,.39-24.15,2.61Z"/><path class="cls-46" d="M169.16,41.98c-2-1-4.15-1.7-6.36-2.06-1.48-.25-3.78,.14-4.73-1.06,4.4-.84,7.42,1.29,11.09,3.12Z"/><path class="cls-44" d="M94.06,68.98c-2.5,1.69-4.62,3.92-6.18,6.5,1.85-2.28,4.07-4.26,6.55-5.83"/><path class="cls-45" d="M128.17,26.52c-4.2-.92-8.54-.98-12.84-.87,5.12-.78,10.43-.27,15.31,1.47,1.49,.53,2.95,1.18,4.2,2.14,1.03,.78,1.93,1.71,3,2.42-.27-3-7.22-4.63-9.67-5.16Z"/><path class="cls-32" d="M127.8,97.91c1.39,6.29-.2,12.9-2.76,18.81-.98,2.26-2.13,4.65-1.71,7.08-1.47-1.23-1.23-3.51-.81-5.37,1.72-7.58,4.33-15.66,1.43-22.86-1.6-3.98-4.93-7.29-9.03-8.56s-8.87-.34-11.99,2.6c.87-4.02,5.61-6.14,9.7-5.74,8.47,.83,13.39,5.99,15.17,14.04Z"/><path class="cls-9" d="M116.35,83.06c-2.08-.56-4.88-.16-6.67,.22-3.16,.68-5.65,2.16-8.12,4.19-2.29,1.89-2.76,3.75-3.28,6.69-.14,.78-.27,1.56-.41,2.35,1.1-.26,1.88-1.24,2.39-2.25s.85-2.12,1.53-3.02c.53-.71,1.24-1.25,1.98-1.74,3.07-2.06,6.66-3.34,10.34-3.69,1.41-.13,2.89,.07,3.85-1.12,.09-.12,.19-.25,.2-.4,.02-.26-.2-.47-.41-.61-.4-.27-.87-.47-1.39-.61Z"/><path class="cls-12" d="M135.73,84.06c3.92-1.81,8.09-3.66,12.39-3.19,1.28,.14,2.52,.48,3.8,.64,3.02,.38,5.84,.3,8.75,1.43-.08,.46-.62,.66-1.08,.74-2.99,.55-6.01-.18-9.02-.18-1.76-.09-3.54-.19-5.29,.08-3.49,.53-6.81,2.48-10.31,2.02,.61-1.4,1.93-2.47,3.42-2.78"/><path class="cls-4" d="M160.96,84.86c1.22-.33,2.53-.35,3.76-.06"/><path class="cls-5" d="M162.2,83.31c.99-.25,2.04-.22,3.01,.07"/><path d="M111.15,100.73c.27,.23,.59,.43,.93,.52,.4,.11,.81,.07,1.22,.02,.79-.11,1.56-.28,2.32-.53,.38-.12,.77-.28,1.03-.58,.25-.3,.33-.7,.38-1.08,.1-.76,.08-1.57-.25-2.26-.54-1.16-1.87-1.81-3.15-1.86-1.18-.05-3.29,.19-3.73,1.51-.51,1.49,.07,3.28,1.26,4.28Z"/><path class="cls-7" d="M114.05,92.06c-2.7-.1-5.43,.77-7.57,2.43-.84,.65-1.6,1.44-2.09,2.38-.54,1.05-.94,3.24-1.02,4.42,.54-.98,.77-2.11,1.28-3.1,.68-1.33,1.84-2.37,3.15-3.09s2.76-1.13,4.22-1.44c.58-.12,1.16-.22,1.75-.22,.9,0,1.77,.24,2.63,.51,1.41,.44,2.72,1.04,4.08,1.59-1.34-1.71-4.39-3.41-6.43-3.49Z"/><path d="M120.48,96.32c-.49-.32-1.8-1.57-2.32-1.85-1.87-1.02-4.46-1.4-6.57-1.14-2.12,.27-4.12,1.73-5.69,3.18-.92,.85-2.02,3.45-1.28,4.21,1-2.32,3.29-4.21,5.66-5.11,.69-.26,1.39-.49,2.12-.62,1.69-.29,3.44,.02,5.08,.56,.71,.23,1.42,.51,2.02,.96,.49,.37,1,.98,1.64,1.04-.17-.45-.24-.96-.65-1.23Z"/><path class="cls-23" d="M122.18,98.94c-.37-.48-.89-.84-1.46-1.02,.15,.07,.31,.14,.43,.26s.18,.31,.11,.46c-.04,.09-.11,.15-.19,.2-.52,.38-1.21,.44-1.85,.51s-1.34,.2-1.77,.68c.48-.1,.98-.2,1.47-.13,.38,.05,.74,.2,1.12,.24,.69,.07,1.41-.24,1.83-.79,.04-.05,.08-.11,.09-.18,.05-.29-.39-.42-.49-.69,.25,.09,.79,.44,.69,.69s-.34,.41-.58,.54"/><path class="cls-20" d="M105.92,100.16c2.44,.46,4.91,.97,7.39,.78,1.59-.12,3.15-.53,4.68-1-1,.59-2.02,1.2-3.16,1.44-.58,.13-1.17,.16-1.76,.18-.85,.03-1.7,.05-2.55,.05-.9,0-1.82-.02-2.68-.27-1.07-.31-2.23-.96-3.22-.45-.12-.15,.1-.33,.28-.38,1.11-.32,2.32-.28,3.4,.11"/><path class="cls-31" d="M142.14,102.29c-.25-.11-.5-.22-.76-.33-.36-.15-.72-.29-1.05-.49-.61-.36-1.1-.88-1.57-1.41-.58-.65-1.13-1.34-1.51-2.13-1.88-3.85,2.02-7.56,4.84-9.64,1.86-1.37,4.19-2.66,6.38-1.91,.51,.17,1.03,.52,1.13,1.05,.16,.83-.74,1.43-1.48,1.83-2.57,1.38-4.88,3.26-6.75,5.5-.26,.31-.51,.63-.64,1.02-.32,.97,.31,2.05,1.18,2.58,.87,.53,1.93,.65,2.94,.75,2.45,.25,4.9,.5,7.35,.75,.76,.08,1.78,.51,1.55,1.24-.11,.34-.46,.53-.79,.67-1.85,.8-3.85,1.27-5.86,1.36-1.03,0-2.03,0-3.04-.19-.68-.13-1.29-.39-1.92-.66Z"/><path d="M146.7,93.31c.53,1.57,2.05,2.39,3.64,2.09,.96-.19,2.13-.41,2.98-.9,.55-.32,.84-1.01,.94-1.62,.79-4.93-9.45-5.19-7.56,.44Z"/><path class="cls-26" d="M150.67,95.12c-1.42,.24-2.89,.2-4.33,.32-.46,.04-.92,.08-1.36,.18-.82,.19-1.47,.47-2.12,1.04,1.3-.79,2.89-.91,4.41-.88,1.52,.04,3.06,.21,4.55-.08,.95-.19,1.85-.56,2.72-.98,1.19-.59,2.33-1.29,3.39-2.08-2.49,.62-4.74,2.07-7.27,2.49Z"/><path d="M142.54,96.37h.06c-.59,.38-1.16,.73-1.86,.8-.4,.04-.91-.05-1.02-.43-.09-.32,.15-.62,.38-.86,.84-.89,1.3-2.31,2.19-3.52,.89-1.21,2.14-2.36,3.47-3.06,2.03-1.06,4.85-1.27,7.09-.81,.63,.13,1.54,.46,2.13,.72,.49,.21,1.26,.57,1.72,.84,.7,.42,1.34,.93,2.03,1.38,.69,.45,1.21,1.21,1.83,1.75-.84,.21-1.13-.19-1.74-.62-.98-.7-2.15-1.24-3.28-1.66-.89-.33-1.72-.83-2.65-1.05-2.18-.54-4.68-.39-6.66,.75-.95,.55-1.88,1.49-2.6,2.32-.84,.96-1.68,1.92-2.52,2.87-.18,.21-.36,.54-.15,.72,.07,.06,.17,.08,.27,.1,.57,.08,.76-.09,1.31-.22Z"/><path class="cls-6" d="M140.22,91.42c2.1-3.01,6.22-4.9,9.89-4.83s7.34,1.81,10.23,4.07c.58,.46,1.01,1.34,1.68,1.65-.84-.1-1.71-.6-2.38-1.1-.66-.49-1.29-.9-2.03-1.23-1.78-.79-3.47-1.68-5.39-2.06-3.76-.74-7.9,.29-10.66,2.95-1.05,1.01-1.6,2.23-2.41,3.38,.22-.88,.55-2.08,1.07-2.83Z"/><path class="cls-1" d="M149.21,99.92c1.43-.08,2.79-.58,4.17-.96s2.85-.66,4.22-.28c-2.05-.49-4.07,.72-6.12,1.22-1.8,.44-3.19,.4-4.95,0-.69-.16-1.7-.56-2.34-.86s-1.23-.74-1.57-1.35c.15,.27,.41,.4,.67,.53,.41,.22,.83,.49,1.25,.71,.44,.24,.88,.36,1.35,.51,1.08,.35,2.2,.56,3.33,.49Z"/><path class="cls-39" d="M167.46,94.74c-1.28-.15-2.4-.8-3.74-.44,.34,.24,.89,.21,1.31,.23,.81,.04,1.62,.1,2.43,.2Z"/><path class="cls-35" d="M118.75,103.01l1.92-.91c.68-.32,1.56-.62,2.12-.12,.56,.51,.34,1.44-.01,2.1-1.59,2.97-5.01,4.66-8.37,4.79-3.36,.13-6.65-1.11-9.54-2.84-.15-.09-.31-.19-.4-.34-.18-.31,.01-.73,.31-.92s.68-.22,1.04-.25c4.99-.37,9.95-1.2,14.79-2.46,.81-.21,1.84-.37,2.35,.3"/><path class="cls-1" d="M105.51,107.43c.77-.11,1.55-.06,2.33-.05,3.01,.05,7.11-.33,9.65-1.8-.04-.06-.07-.13-.11-.19-1.92,.64-3.63,1.45-5.69,1.81s-4.13,.44-6.19,.23Z"/><path class="cls-1" d="M110.7,104.43c2.29-.07,4.65-.15,6.72-1.12-3.09,1.24-6.45,1.79-9.78,1.61-.73-.04-1.49-.19-1.95-.8,.61-.29,1.52,.15,2.18,.24,.94,.12,1.89,.1,2.83,.07Z"/><path class="cls-22" d="M130.18,125.07c-.4-1.98-2.44-2.47-3.58-3.88-1.78-2.22-.74-5.56,.18-7.9,1.58-3.99,1.59-8.31,1.1-12.51,.19,1.66-.24,3.18-.55,4.79-.27,1.38-.4,2.78-.73,4.17-.56,2.33-1.13,5.02-2.35,7.1-.75,1.27-2.05,2.14-2.29,3.67-.29,1.83,.43,3.45,2.35,3.75,1.81,.28,3.47,1.85,5.35,1.55,.17-.03,.36-.08,.46-.23,.1-.15,.09-.35,.06-.52Z"/><path class="cls-15" d="M124.69,123.37s.06,.05,.09,.08c.56,.47,1.71,.55,2.39,.58,.83,.04,1.66,.2,2.45,.45-1.5-.52-2.64-2.01-4.26-2.12-.85-.06-1.28,.43-.68,1.01Z"/><path class="cls-15" d="M138.09,121.84c.75-.19,2.05-.24,2.68,.27,.21,.17,.38,.39,.64,.45,.22,.06,.55,.04,.58,.27-1.8-.35-3.25-.03-4.98,.41-.22,.06-.52,.07-.62-.14-.07-.14,0-.31,.11-.44,.35-.41,1.09-.7,1.59-.82Z"/><path class="cls-48" d="M143.82,116.39c.8,1.32,1.14,2.9,.95,4.43-.17,1.35-.93,2.03-2.36,1.96-.36-.02-.72-.1-1.08-.16-1.55-.25-3.18,0-4.57,.73,1.05-.4,2.2-.36,3.32-.26s2.24,.28,3.35,.13c1.03-.13,2.38-.63,2.74-1.68,.3-.86,.33-1.98,.23-2.88-.18-1.65-1.11-3.78-3.12-3.46,.22,.96,.95,1.79,1.09,2.86"/><path class="cls-2" d="M146.24,119.49c-.42-1.09-2.74-5.06-1.57-6.08,2-1.75,4.41,1.93,5.57,3.08,2.31,2.29,5.32,4.16,8.43,5.26,3.88,1.37,5.34,3.8,6,7.9,.13,.78,.21,1.59,.04,2.37s-.62,1.53-1.34,1.88c-.43-1.37-.87-2.76-1.62-3.99-1.2-1.98-3.1-3.42-4.96-4.8-2.78-2.08-5.75-4.23-9.21-4.6-.3-.03-.63-.06-.88-.24-.25-.18-.37-.48-.48-.77Z"/><path class="cls-36" d="M122.36,117.78c-.47-.75-1.59-.88-2.37-.45s-1.25,1.25-1.54,2.09-.41,1.73-.71,2.56c-.9,2.49-3.18,4.2-5.49,5.5-1.12,.63-2.34,1.22-3.63,1.23-1.92,.01-3.63-1.26-4.83-2.76-1.2-1.5-2.04-3.26-3.21-4.78,.29,2.06,.58,4.15,1.43,6.05s2.34,3.61,4.33,4.24c1.29,.41,2.69,.32,4.03,.12,1.3-.2,2.6-.51,3.72-1.2,1.24-.76,2.18-1.91,3.09-3.04,1.67-2.08,3.35-4.16,4.68-6.47,.43-.74,.82-1.57,.7-2.41s-1.01-1.62-1.8-1.32"/><path class="cls-19" d="M170.9,161.05c.05,1.8,.16,3.62,.71,5.33,1.37,4.25,5.16,7.14,8.34,10.27,.37,.37,.75,.76,.92,1.25,.17,.5,.11,1.06,.04,1.58-.32,2.55-.64,5.11-1.5,7.53-2.4,6.8-8.76,11.61-15.61,13.89-6.84,2.28-14.19,2.4-21.4,2.39-3.21,0-6.43-.03-9.61-.49-6.85-.99-13.25-3.93-19.53-6.83-2.21-1.02-4.49-2.1-6.03-3.99-.88-1.08-1.47-2.39-1.69-3.77-.44-2.7,1.09-5.24,2.27-7.54,1-1.95,1.68-4.04,2.48-6.08,1.93-4.95,3.22-10.05,3.93-15.34,.43-3.22,1.82-1.13,3.38,.42,1.47,1.46,2.95,2.92,4.69,4.07,3.61,2.39,7.77,3.97,12.08,4.47,8.39,.98,17.16-2.12,23.07-8.15,3.91-3.99,6.66-10.45,11.52-13.39,2.39-1.45,2.37,1.65,2.29,3.44-.15,3.66-.47,7.26-.36,10.93Z"/><path class="cls-33" d="M119.66,198c7.14,2.93,15.05,3.25,22.76,3.53-2.21-10.99-4.02-22.05-5.52-33.16-.84-.02-1.68-.06-2.52-.16-4.31-.5-8.47-2.08-12.08-4.47-1.74-1.15-3.22-2.61-4.69-4.07-1.57-1.55-2.95-3.63-3.38-.42-.71,5.29-2,10.39-3.93,15.34-.8,2.04-1.48,4.12-2.48,6.08-.63,1.24-1.36,2.55-1.84,3.92,2.09,6.11,7.59,10.92,13.68,13.42Z"/><path class="cls-49" d="M166.19,147.19c-5.46,2.42-8.11,8.54-12.39,12.7-5.13,4.99-12.64,7.05-19.78,6.53-7.14-.51-13.93-3.37-20.05-7.08-.46-.28-.98-.58-1.51-.47-1.03,.21-1.16,1.59-1.23,2.63-.23,3.12-2.05,5.85-3.22,8.75-2,4.95-2.09,10.69-.03,15.61s6.31,8.93,11.42,10.5c2.05,.63,4.89,.48,5.57-1.55,.63-1.88-1.16-3.62-2.68-4.9-1.19-1-2.36-2.12-2.92-3.57-.56-1.45-.32-3.31,.93-4.24,1.02-.76,2.65-.9,3.07-2.1,.52-1.48-1.31-2.62-2.76-3.21s-3.13-2.11-2.24-3.4c10.02-.83,20.45,3.2,29.95-.07,6.95-2.4,12.03-8.28,16.75-13.91,2.73-3.26,5.64-7.14,4.88-11.32-.16-.88-.6-1.84-1.45-2.09-.77-.23-1.57,.21-2.23,.67-1.47,1.03-2.8,2.27-3.91,3.69"/><path class="cls-11" d="M110.78,153.61c.33,.98,.67,1.96,1.14,2.88,.94,1.87,2.39,3.38,3.76,4.93,.67,.77,1.63,2.88,2.64,3.09,.14-.19,.29-.37,.43-.56,.64,.76,1.26,1.54,1.87,2.32l.6-.72c.91,1.58,2.03,3.04,3.32,4.34,.16,.16,.36,.34,.59,.32,.29-.03,.49-.35,.78-.38,.75-.07,.66,1.65,1.41,1.52,.11-.02,.21-.08,.31-.13,1.53-.76,3.08,1.14,4.81,.16,.14,.34,.28,.68,.42,1.02,.51-.4,1.02-.79,1.53-1.19,.03,.61,.84,.8,1.46,.82,2.15,.05,4.29,.1,6.44,.15,.85,.02,1.74,.03,2.46-.42,.81-.5,1.54-1.56,2.42-1.2,.35,.15,.6,.51,.97,.6,1.08,.27,1.4-1.75,2.5-1.92,.26-.04,.53,.04,.79,.01,.75-.07,1.15-.89,1.63-1.48s1.58-.91,1.86-.2c.05-2.26,2.19-3.87,4.21-4.9,2.01-1.03,4.31-2.05,5.21-4.12,.31-.71,.43-1.49,.82-2.16s1.2-1.19,1.92-.91c.33-1.88,.68-3.84,1.83-5.36,.95-1.26,2.4-2.18,2.91-3.67,.45-1.31,.24-3.12,1.49-3.72,.33-.16,.72-.19,1-.42,.28-.23,.4-.61,.5-.96,.67-2.36,1.52-4.74,2.04-7.14,.51-2.33,.28-4.72,.31-7.08,.03-2.1,.92-3.98,.77-6.1-.02-.3-.06-.59,0-.89,.07-.36,.28-.68,.42-1.02,.52-1.23,.18-2.62-.02-3.94-.39-2.51-.27-5.06-.09-7.59,.09-1.26,0-2.85-1.17-3.33-.89,.84-.6,2.32-.15,3.46s1,2.45,.42,3.54c-.21,.4-.57,.73-.67,1.17-.06,.25-.03,.52,0,.78,.16,1.13,.38,2.26,.66,3.37-.28-.04-.56-.07-.84-.11,.35,1.91,.35,3.89,0,5.8-.13,.7-.36,1.47-.99,1.8-.2,.11-.44,.16-.61,.3-.16,.13-.26,.32-.35,.51-.57,1.24-.84,2.67-1.81,3.62-.45,.45-1.04,.76-1.42,1.27-.43,.58-.54,1.34-.63,2.06-.16,1.23-.32,2.47-.48,3.7-.06,.46-.14,.96-.48,1.28-.44,.4-1.14,.33-1.68,.61-.77,.4-.99,1.37-1.38,2.14-.85,1.66-2.76,1.75-3.23,3.69-.19,.78-.17,1.77-.89,2.13-.74,.37-1.56-.3-2.11-.92-.5,.29-.55,.98-.57,1.56-.04,1.52-.26,3.04-.65,4.51-.08,.31-.25,.68-.57,.69-.22,0-.43-.18-.65-.13-.19,.04-.3,.25-.37,.43-.26,.65-.43,1.34-.79,1.94s-.96,1.12-1.66,1.13c-.47,0-.92-.22-1.38-.16-.89,.1-1.34,1.09-1.75,1.89s-.91,1.26-1.75,1.31c-.22-1.2-2.21-2.09-2.44-.41-.47,0-.77-.51-.86-.98s-.09-.98-.39-1.34c-.55-.68-1.98-.74-1.87-1.6,.03-.26,.23-.48,.23-.75,0-.84-1.2-.62-1.49-1.13-.47-.8,.11-1.04,0-1.95-.21-1.63,1.09-3.94,.75-5.16-.15-.53-.77-.81-1.32-.75-1.61,.16-3.19,1.07-4.9,1.22-1.5,.13-1.92-.27-3.24-.38-.61-.05-1,.65-1.57,.88-.8,.32-1.65-.38-2.51-.33-1.02,.06-2.63,1.1-2.49,2.24,.06,.49,.35,.93,.35,1.42,0,.79-.75,1.34-1.14,2.02-.67,1.18-.22,2.64-.1,3.98s-.45,3.08-1.8,3.14c-1.5,.08-2.19-1.88-3.5-2.61-.35-.19-.76-.3-1.08-.54-1.31-.99-.42-3.42-1.65-4.51-.45-.4-1.07-.51-1.64-.71-1.69-.61-2.96-2.22-3.17-4-.43,1.07-2.15,.44-2.7-.57-.55-1.01-.78-2.35-1.82-2.85-.28-.13-.58-.19-.85-.34-.39-.22-.65-.6-.89-.98-1.04-1.6-2.09-3.2-3.13-4.8-1.34-2.06-2.7-4.15-3.36-6.51-.47-1.69-.7-3.67-2.15-4.66,.14,2.68,.42,5.35,.84,8,.24,1.5,.37,3.31,.88,4.74s1.47,2.58,1.85,4.11c.21-.1,.42-.2,.63-.31,.08,1.1,.4,2.19,.92,3.16,0-.28,.4-.39,.64-.25s.34,.42,.44,.68c.26,.75,.53,1.49,.79,2.24,.57-.44,1.36,.29,1.52,.99s.14,1.54,.68,2.01c.27-.28,.68,.13,.84,.48,.88,1.96,1.12,4.25,2.47,5.97-.11-.31,.34-.57,.64-.43s.44,.48,.55,.79c.3,.82,.59,1.64,.89,2.46,.16-.2,.32-.39,.49-.59,.97,1.39,1.7,2.94,2.15,4.57l.36-.28c.16,.12,.25,.33,.23,.53-.06-.13-.12-.25-.18-.38"/><path class="cls-21" d="M185.65,92.99c-.58,6.07-1.19,12.23-3.35,17.93-.45-.66-.21-1.55,.03-2.32,.58-1.85,1.08-3.73,1.48-5.62,.25-1.15,.46-2.33,.37-3.51-.07-.91-.33-1.8-.5-2.69-.28-1.57-.64-4.71,.42-6.09,1.6-2.08,1.63,1.43,1.55,2.3Z"/><path class="cls-21" d="M182.88,101.41c0,.39,0,.77-.01,1.16,0,.65-.02,1.32-.22,1.94s-.62,1.21-1.24,1.44c-.45,.17-.97,.14-1.38,.38-.63,.37-.77,1.3-.41,1.93,.14,.25,.35,.46,.47,.72s.15,.6-.06,.8c-.31,.31-.89,.02-1.03-.4s0-.87,.1-1.3c.2-.91,.19-1.86-.03-2.76-.24-1-.73-2.01-.46-3,.21-.77,.83-1.29,1.18-1.99,.3-.59,.29-1.78,.89-2.14,1.76-1.05,2.2,2.28,2.19,3.21Z"/><path class="cls-38" d="M175.11,72.61c-2.31,1.71-5.36-.93-6.77-3.44-2.97-5.27-4.76-11.22-8.42-16.04-2.78-3.66-6.25-5.56-10.62-6.54-1.97-.44-4.3-.8-5.76,.59-.24,.23-.45,.51-.53,.84-.18,.79,.5,1.55,1.25,1.85s1.59,.31,2.37,.51c.78,.21,1.58,.73,1.7,1.54,.69,4.8-16.27,.08-18.22-.04-7.13-.45-14.4,1.57-20.28,5.63-1.02,.71-2.11,1.7-2,2.94,.06,.68,.48,1.26,.95,1.76,1.91,2.04,4.72,3.03,6.75,4.95,2.03,1.92,2.89,5.73,.55,7.27-2.69,1.77-6.4,1.22-6.49,5.71-.03,1.51,.61,3.23-.33,4.4-.47,.58-1.21,.85-1.89,1.14-7.26,3.14-9.83,10.62-7.24,17.68,.98,2.67,2.36,5.37,4.79,6.85,1.86,1.13,4.11,1.4,6.08,2.32s3.77,2.99,3.16,5.08c-1.24,4.28-8.81,1.55-11.68,4.97-2.62,3.12,.76,7.2-.11,10.62-.84-.1-1.04-.69-1.14-1.41-.15-1.03-.52-2-.75-3.01-.55-2.37-.72-4.82-.93-7.24-.15-1.68-.49-3.42-.79-5.08s-.75-3.47-1.6-5.03c-.31-.57-.34-1.09-.41-1.74-.18-1.58-.35-3.15-.53-4.73-.33-2.95-.33-6.26-1.18-9.08s-1.73-5.28-2.19-8.08c-1.1-6.64-1.22-13.45-.33-20.12,.44-3.31,1.13-6.63,2.65-9.6,2.5-4.92,6.99-8.48,11.35-11.87,3.66-2.85,7.37-5.73,11.63-7.58,11.31-4.93,24.57-1.81,35.7,3.53,13.41,6.44,19.53,15.8,21.25,30.44Z"/><path class="cls-37" d="M110.69,86.33c-1.26,.2-2.55,.61-3.46,1.51,1.77,1.79,4.64,1.57,7.09,2.14,2.83,.66,6.71,4.08,8.03,6.52,.39,.72,1.13,1.43,1.91,1.2,.92-.26,1.04-1.56,.68-2.44-1.37-3.35-2.4-5.35-5.78-7.27-2.54-1.44-5.56-2.1-8.46-1.65Z"/><path class="cls-14" d="M89.17,271.05c-.08,.55-.13,1.19,.25,1.6,.32,.34-.77,3.37-.3,3.4,13.67,1.08,37.59-.08,51.28-.59,20.23-.75,33.84,1.1,54.07,.35,.57-.02-.8-4.97-.35-5.32,.61-.48,.7-1.36,.73-2.13,.33-8.36-.09-16.73-.51-25.09-.82-16.17-1.63-32.34-2.45-48.51-.31-6.19-.89-13-5.28-17.38-1.35,5.07-2.74,10.23-5.62,14.61-4.78,7.26-13.13,11.47-21.58,13.48-15.82,3.76-33.08,.42-46.59-8.55-2.99-1.99-6.72-4.54-8.74-7.51-.9,5.83-2.53,11.59-3.72,17.38-2.07,10.02-3.99,20.06-5.76,30.14-2,11.35-3.8,22.74-5.42,34.15Z"/><path class="cls-17" d="M144.64,199.15c-7.91,.03-15.11,.52-22.26-3.45-6.2-3.45-13.59-8.75-15.47-16.13,.78,3.06-3.8,5.37-3.44,8.51,.13,1.1,1.27,3.69,2,4.53,13.77,15.72,37.08,18.5,57.22,12.92,6.42-1.78,12.76-4.57,17.41-9.35,4.65-4.78,7.33-11.83,5.62-18.28-.78-2.93-3.12-6.91-6.16-7.9-.37-.12-.84-.17-1.11,.12-.14,.15-.18,.37-.21,.58-.28,2.2,.86,4.3,1.4,6.46,.88,3.54,.05,7.46-2.19,10.33-1.04,1.33-2.35,2.43-3.68,3.46-8.35,6.46-18.8,8.16-29.12,8.2Z"/><path class="cls-24" d="M177.05,169.22c1.75,1.48,2.75,3.93,2.14,6.13-1.65-1.13-3.27-2.15-4.54-3.66-1.05-1.25-2.28-4.79-3.54-5.55,1.9,1.14,4.24,1.64,5.94,3.08Z"/><path class="cls-28" d="M76.83,177.08c-1.94,1.03-3.83,2.11-5.65,3.03-6.23,3.16-13.14,5.84-19.84,8-7.57,2.44-13.95,5.61-20.27,10.73-9.1,7.38-10.43,22.85-10.93,33.72-1.17,25.15,31.68,38.61,51.51,42.89,1.56,.34,6.8-18.87,7.07-20.69,1.16-7.96,1.02-16.09,2.54-24,1.35-7.06,3.41-13.95,5.47-20.84,1.2-4.03,2.41-8.06,4.14-11.89,1.38-3.07,3.1-5.99,4.24-9.15,1.15-3.16,1.69-6.68,.67-9.89-.85-2.64-3.71-6.18-6.84-6.04-4.19,.18-8.25,2.07-12.11,4.12Z"/><path class="cls-29" d="M86.01,172.63c1.37,3.93,2.75,7.85,4.12,11.78-4.78,.31-9.53,1.2-14.1,2.66-1.74,25.41-4.27,50.77-7.59,76.02-.34,2.6-.69,5.21-.87,7.82-.08,1.18-.08,2.49,.7,3.39,.61,.7,1.56,.97,2.46,1.18,6.99,1.61,14.27,1.14,21.42,.66,.42-.03,.86-.06,1.23-.28,.83-.49,.89-1.65,.87-2.61-.16-7.73,.81-15.44,1.79-23.12,1.17-9.26,2.35-18.51,3.52-27.77,.59-4.64,1.18-9.29,2.1-13.88,1.7-8.45,4.51-16.62,7.06-24.84,1.27-4.1,2.5-8.22,3.48-12.4,.66-2.79,3.21-10.07,1.66-12.53-4.63,1.88-8.98,5.31-13.5,7.59s-9.47,4.47-14.36,6.33Z"/><path class="cls-28" d="M228.91,198.22c.08,.05,.15,.1,.22,.14,2.1,1.33,4.23,2.75,5.68,4.76,1.12,1.56,1.79,3.39,2.4,5.21,2.57,7.64,4.44,15.52,5.59,23.5,.51,3.58,1.79,8.46,1.12,12.05-.47,2.53-2.59,5.29-3.94,7.46-4.27,6.84-9.98,12.77-16.64,17.32-3.33,2.27-6.89,4.21-10.62,5.73-1.01,.41-9.26,2.88-9.59,1.43-.89-4,.31-8.12,.9-12.08,.65-4.39,1.23-8.8,1.15-13.24-.15-8.61-2.76-16.95-4.76-25.33-1.82-7.6-3.15-15.32-3.99-23.09-.8-7.37,1.73-21.84-6.82-26.05,7.62,3.75,15.81,6.24,22.99,10.69,5.67,3.51,10.72,7.87,16.29,11.5Z"/><path class="cls-30" d="M186.66,171.61c.56,.66,1.13,1.31,1.73,1.93,1.76,1.81,3.95,3.16,5.45,5.18,.63,.84,1.39,1.56,2.04,2.38,.67,.84,1.17,1.81,1.8,2.68,3.17,4.42,6.11,9.01,8.92,13.67,.39,.64,4.61,7.44,4.43,7.57-3.02,2.35-5.21,5.74-6.11,9.46,4.64,2.48,8.88,5.7,12.53,9.5-4.4,11.84-7.75,24.07-9.99,36.5-.55,3.04-1.03,6.08-1.45,9.14-.26,1.91,.09,5.07-1.92,5.99-2.36,1.08-16.81,1.42-20.08,.88-.22-.04,.39-14.73,.39-15.67,.02-5.39,.22-10.78,.47-16.17,.51-10.93,1.27-21.85,1.36-32.8,.05-5.93-.11-11.87-.61-17.79-.48-5.62-1.67-10.94-2.59-16.46-.27-1.64-1.15-2.55-2.08-3.9-1.76-2.57-3.32-4.03-6.16-5.27-.64-.28-1.28-.55-1.91-.85-.86-.41-.98-.81-1.26-1.75-.59-2.01-.77-4.14-.5-6.22,.02-.18,2.43,1.1,2.65,1.15,1.25,.31,2.33,.91,3.47,1.62,1.65,1.03,3.08,1.79,4.37,3.27,1.49,1.72,2.98,3.45,4.44,5.19,.21,.25,.42,.5,.63,.75Z"/><path class="cls-21" d="M136.08,142.54c-4.08,.51-8.07,.24-11.77-1.71-1.55-.82-2.75-2.26-4.31-3.18,6.63-.92,13.51,.89,20.01-.71,2.44-.6,4.73-1.66,7.11-2.43,1.05-.34,2.19-.71,3.26-.95,.51-.11,.94-.18,1.48-.11,.28,.04,1.28,.52,1.46,.45-2.54,.94-4.1,2.9-6.15,4.55-3.09,2.49-7.22,3.6-11.09,4.09Z"/><path class="cls-40" d="M142.03,134.57c-2.33,.23-4.66,.46-6.96,.88-.82,.15-1.63,.32-2.46,.37-1.08,.06-2.17-.09-3.25-.01-2.73,.19-5.26,1.82-7.99,1.73,1.94,.73,4.06,.96,6.11,.66,.77-.11,1.54-.3,2.32-.31,.84,0,1.66,.2,2.49,.32,3.47,.51,6.98-.42,10.3-1.55,2.06-1.37,5.1-1.82,7.43-2.52,.92-.28,1.91-.55,2.82-.25-1.87-.95-4.36,.06-6.31,.25-1.5,.15-3.01,.29-4.51,.44Z"/><path class="cls-3" d="M100.72,93.75c-1.11,.43-2.07,1.24-2.68,2.26"/><path class="cls-10" d="M160.06,132.95s-.02-.09-.04-.14c-.3-1.12-.98-1.72-1.66-2.59-1.38-1.74-3.61-3.23-5.75-3.84-.89-.25-2.12-.17-2.37,.71-.71-.24-1.41-.48-2.12-.72,.36,.53-.26,1.26-.89,1.29-.63,.04-1.21-.33-1.79-.59-.97-.44-2.12-.62-3.09-.19-.4,.17-.75,.44-1.14,.62-.95,.46-2.13,.43-3.06-.07,.61,.33-1.8,1.1-1.97,1.11-1.77,.02-2.86-.68-4.51,.22-.56,.3-1.27,.54-1.8,.19-.19-.13-.33-.32-.53-.43-.9-.53-1.86,.78-2.9,.77-.04-.4-.07-.8-.11-1.2-1.48,.76-2.97,1.52-4.45,2.28,.15-.35,.3-.7,.46-1.05-.83,.58-1.66,1.16-2.49,1.74-1.42,.99-2.84,1.99-4.05,3.23-1.53,1.58-3.16,4.29-2.95,6.59,.1,1.09,.81,2.04,1.66,2.73,.17,.14,.38,.27,.59,.22,.31-.08,.37-.48,.42-.8,.18-1.39,1.22-2.62,2.55-3.05-.02,.41,.68,.46,.91,.12,.24-.34,.19-.79,.27-1.2,.23-1.13,1.43-1.78,2.56-1.98,.92-.16,1.88-.15,2.79-.33,.02,.38,.08,.76,.23,1.16,.19-.53,.45-1.02,.76-1.46,.43-.19,.86-.41,1.31-.54,.09-.03,.19-.04,.28-.06,.03,.34,.09,.68,.2,1.01,.2-.41,.48-.78,.8-1.11,.19,0,.39-.02,.58-.03,.33-.02,.66-.07,.99-.12,.13,.44,.3,.88,.53,1.27,.27-.56,.58-1.14,.97-1.63,.47-.15,.93-.34,1.37-.56-.12,.65-.11,1.33,.04,1.97,.14-.78,.35-1.54,.59-2.3,.04-.02,.07-.03,.11-.06,.34-.2,.69-.43,1.09-.47,.73-.07,1.48,.53,2.16,.24,.28-.12,.49-.38,.76-.53,.58-.32,1.29-.08,1.96,0,.35,.17,.68,.32,.81,.41,.42,.27,1.57,.79,1.79,1.23-.24-.51-.48-1.02-.73-1.53,.87,.44,1.64,1.1,2.21,1.89-.03-.67-.22-1.34-.56-1.93l2.99,1.61c.27-.66,.25-1.44-.06-2.09,.77,.43,1.55,.85,2.32,1.28,.07-1.13-.19-2.27-.72-3.28,.08-.02,.16-.03,.24-.05,.78,.73,1.5,1.53,2.12,2.4,.18-.8,.14-1.63-.09-2.42,.19,.03,.37,.07,.56,.12,.72,.54,1.33,1.22,1.77,2,.11-.44,.18-.89,.22-1.35,1.24,.5,2.35,1.06,2.96,2.27,.65,1.27,1,2.67,1.78,3.88,.33,.52,.8,1.03,1.41,1.1,.66,.08,1.3-.4,1.6-.99s.34-1.29,.35-1.96c0-1.02,.02-2.06-.22-3.05Z"/><path class="cls-1" d="M119.49,104.08c-1.07,1.29-2.73,1.98-4.4,2.19s-3.35-.03-5.01-.3c-1-.16-2.11-.32-2.94,.26,.45-.41,1.24-.61,1.85-.61,1.71-.02,3.06,.44,4.77,.39,2.51-.07,5.15-1.28,6.53-3.39,.37-.56,.67-1.24,1.17-1.69-.41,1.03-1.26,2.29-1.97,3.15Z"/><path class="cls-25" d="M159.46,126.48c1.85,2.38,2.88,5.29,3.88,8.14-.34-3.3-1.62-6.48-3.61-9.13-.92-1.23-1.97-2.53-3.29-3.32-3.9-2.34-8.27-3.45-11.73-6.54,1.7,2.01,4.02,3.44,6.32,4.62,3.11,1.61,6.23,3.42,8.42,6.24Z"/></g></svg>