<?xml version="1.0" encoding="UTF-8"?><svg id="Elsa" xmlns="http://www.w3.org/2000/svg" xmlns:xlink="http://www.w3.org/1999/xlink" viewBox="0 0 262 280"><defs><style>.cls-1{fill:url(#linear-gradient);}.cls-2{fill:#f39f9b;}.cls-3{fill:#ebebeb;}.cls-4{fill:#f5c0a1;}.cls-5{fill:#fdffff;}.cls-6{fill:#a7a3b7;}.cls-7{fill:#bebdc4;}.cls-8{fill:#d0997d;}.cls-9{fill:#dc8c7f;}.cls-10{fill:#251a1e;}.cls-11{fill:#222;}.cls-12{fill:url(#linear-gradient-8);}.cls-13{fill:url(#linear-gradient-9);}.cls-14{fill:url(#linear-gradient-3);}.cls-15{fill:url(#linear-gradient-4);}.cls-16{fill:url(#linear-gradient-2);}.cls-17{fill:url(#linear-gradient-6);}.cls-18{fill:url(#linear-gradient-7);}.cls-19{fill:url(#linear-gradient-5);}.cls-20{fill:url(#linear-gradient-29);opacity:.24;}.cls-21{fill:url(#linear-gradient-28);opacity:.46;}.cls-22{fill:url(#linear-gradient-24);opacity:.56;}.cls-23{fill:url(#linear-gradient-14);}.cls-24{fill:url(#linear-gradient-18);}.cls-25{fill:url(#linear-gradient-22);}.cls-26{fill:url(#linear-gradient-20);}.cls-27{fill:url(#linear-gradient-21);}.cls-28{fill:url(#linear-gradient-23);}.cls-29{fill:url(#linear-gradient-15);}.cls-30{fill:url(#linear-gradient-19);}.cls-31{fill:url(#linear-gradient-16);}.cls-32{fill:url(#linear-gradient-17);}.cls-33{fill:url(#linear-gradient-13);}.cls-34{fill:url(#linear-gradient-12);}.cls-35{fill:url(#linear-gradient-10);}.cls-36{fill:url(#linear-gradient-11);}.cls-37{fill:url(#linear-gradient-27);}.cls-38{fill:url(#linear-gradient-26);}.cls-39{fill:url(#linear-gradient-25);}.cls-40{fill:url(#linear-gradient-30);}</style><linearGradient id="linear-gradient" x1="100.28" y1="153.4" x2="165.13" y2="153.4" gradientUnits="userSpaceOnUse"><stop offset=".1" stop-color="#bf6851"/><stop offset=".28" stop-color="#c67c63"/><stop offset=".49" stop-color="#cd9076"/><stop offset=".61" stop-color="#cf957b"/><stop offset=".85" stop-color="#d29e82"/></linearGradient><linearGradient id="linear-gradient-2" x1="124.7" y1="118.01" x2="150.18" y2="118.01" gradientUnits="userSpaceOnUse"><stop offset="0" stop-color="#c8745e"/><stop offset="1" stop-color="#cf988f"/></linearGradient><linearGradient id="linear-gradient-3" x1="132.58" y1="118.92" x2="131.64" y2="125.67" gradientUnits="userSpaceOnUse"><stop offset="0" stop-color="#c3997d"/><stop offset="0" stop-color="#40250c"/><stop offset="1" stop-color="#d9bdb4"/></linearGradient><linearGradient id="linear-gradient-4" x1="144.85" y1="119.36" x2="146.21" y2="124.24" xlink:href="#linear-gradient-3"/><linearGradient id="linear-gradient-5" x1="114.39" y1="130.06" x2="123.83" y2="120.93" xlink:href="#linear-gradient-2"/><linearGradient id="linear-gradient-6" x1="158.56" y1="126.38" x2="170.44" y2="126.38" gradientUnits="userSpaceOnUse"><stop offset="0" stop-color="#cf8062"/><stop offset="1" stop-color="#f6c6a4"/></linearGradient><linearGradient id="linear-gradient-7" x1="136.1" y1="127.12" x2="138.29" y2="121.66" gradientUnits="userSpaceOnUse"><stop offset="0" stop-color="#bf6751"/><stop offset="1" stop-color="#cf907c"/></linearGradient><linearGradient id="linear-gradient-8" x1="133.25" y1="138.34" x2="134.27" y2="131.8" xlink:href="#linear-gradient-7"/><linearGradient id="linear-gradient-9" x1="157.4" y1="91.99" x2="143.29" y2="104.91" gradientUnits="userSpaceOnUse"><stop offset="0" stop-color="#56391e"/><stop offset="1" stop-color="#121212"/></linearGradient><linearGradient id="linear-gradient-10" x1="115.89" y1="98.44" x2="124.41" y2="90.2" xlink:href="#linear-gradient-2"/><linearGradient id="linear-gradient-11" x1="115.12" y1="102.13" x2="125.14" y2="92.43" xlink:href="#linear-gradient-2"/><linearGradient id="linear-gradient-12" x1="148.02" y1="99.37" x2="164.11" y2="99.37" xlink:href="#linear-gradient-6"/><linearGradient id="linear-gradient-13" x1="148.92" y1="102.79" x2="165.61" y2="102.79" xlink:href="#linear-gradient-6"/><linearGradient id="linear-gradient-14" x1="100.1" y1="128.82" x2="102.55" y2="128.82" xlink:href="#linear-gradient-2"/><linearGradient id="linear-gradient-15" x1="110.27" y1="193.41" x2="140.05" y2="204.56" gradientUnits="userSpaceOnUse"><stop offset=".02" stop-color="#9c8652"/><stop offset="1" stop-color="#edd5a1"/></linearGradient><linearGradient id="linear-gradient-16" x1="132.39" y1="208.45" x2="133.08" y2="208.45" gradientUnits="userSpaceOnUse"><stop offset="0" stop-color="#d1b47e"/><stop offset="1" stop-color="#edd5a1"/></linearGradient><linearGradient id="linear-gradient-17" x1="130.01" y1="212.49" x2="135.44" y2="210.77" gradientUnits="userSpaceOnUse"><stop offset=".32" stop-color="#d1b47e"/><stop offset=".74" stop-color="#edd5a1"/></linearGradient><linearGradient id="linear-gradient-18" x1="133.12" y1="194.62" x2="160.34" y2="194.62" xlink:href="#linear-gradient-16"/><linearGradient id="linear-gradient-19" x1="108.15" y1="223.66" x2="119.09" y2="223.29" gradientUnits="userSpaceOnUse"><stop offset="0" stop-color="#56391e"/><stop offset="1" stop-color="#81624a"/></linearGradient><linearGradient id="linear-gradient-20" x1="211.6" y1="67.07" x2="98.98" y2="241.12" gradientUnits="userSpaceOnUse"><stop offset=".1" stop-color="#56391e"/><stop offset="1" stop-color="#3d312d"/></linearGradient><linearGradient id="linear-gradient-21" x1="129.12" y1="117.7" x2="57.51" y2="228.36" xlink:href="#linear-gradient-20"/><linearGradient id="linear-gradient-22" x1="259.92" y1="-28.8" x2="153.01" y2="136.43" gradientUnits="userSpaceOnUse"><stop offset=".1" stop-color="#56391e"/><stop offset=".97" stop-color="#3e312c"/><stop offset="1" stop-color="#3d312d"/></linearGradient><linearGradient id="linear-gradient-23" x1="170.69" y1="134.25" x2="215.28" y2="85.73" xlink:href="#linear-gradient-19"/><linearGradient id="linear-gradient-24" x1="122.33" y1="99.59" x2="169.77" y2="99.59" gradientUnits="userSpaceOnUse"><stop offset="0" stop-color="#bf6851"/><stop offset=".34" stop-color="#c77f66"/><stop offset=".74" stop-color="#cf957a"/><stop offset="1" stop-color="#d29e82"/></linearGradient><linearGradient id="linear-gradient-25" x1="123.4" y1="84.52" x2="110.76" y2="88.8" gradientUnits="userSpaceOnUse"><stop offset="0" stop-color="#56391e"/><stop offset="1" stop-color="#121212"/></linearGradient><linearGradient id="linear-gradient-26" x1="178.43" y1="46.22" x2="127.32" y2="125.2" xlink:href="#linear-gradient-22"/><linearGradient id="linear-gradient-27" x1="98.04" y1="148.46" x2="130.94" y2="151.42" xlink:href="#linear-gradient-19"/><linearGradient id="linear-gradient-28" x1="116.63" y1="111.18" x2="126.72" y2="102.5" xlink:href="#linear-gradient-6"/><linearGradient id="linear-gradient-29" x1="161.35" y1="120.02" x2="165.9" y2="116.11" xlink:href="#linear-gradient-6"/><linearGradient id="linear-gradient-30" x1="116.55" y1="95.4" x2="108.42" y2="99.58" xlink:href="#linear-gradient-2"/></defs><circle class="cls-2" cx="131" cy="131.29" r="129"/><path d="m92.73,162.87s-35.71,12-44.49,16.39c0,0-21.07,9.95-24.59,13.17,0,0-7.32,1.68-9.95,5.09,0,0-3.66-1.35-7.46,8.3,0,0-2.98,8.18-2.69,11.4,0,0-1.55,4.62-.26,8.57,0,0,11.07,21.07,42.9,29.27,0,0,48.07-.95,76.17-3.59,0,0-9.44-37.1-29.63-88.61Z"/><path class="cls-11" d="m160.57,268.88s32.91,4.54,61.45-27.28c6.15-7.02,24.37-15.95,26.12-23.27,0,0,.79-.05-3.6-14.68,0,0-1.23-8-6.65-10.05,0,0-.29-2.93-14.34-6.15,0,0-16.1-2.63-18.73-5.27,0,0-6.73-3.22-11.12-4.39,0,0-.88-1.17-11.12-5.85,0,0-19.61-5.27-25.32-4.98,0,0,4.23,96.36,3.31,101.92Z"/><path class="cls-1" d="m160.06,150.17s-1.48,3.62-1.48,5.23c0,0-15.22,12.44-26.93,10.39,0,0-20.41,2.34-33.44-8.78,0,0-.99-4.12-3-16.24,0,0,6.73,13.9,35.85,22.83,0,0,10.38.4,14.23-2.34,0,0,13.83-7.24,14.76-11.09Z"/><path class="cls-5" d="m97.12,154.09s8.05,7.46,28.54,10.83c0,0,12.53,4.1,26.83-5.27,0,0,4.54-3.79,7.58-7.17,0,0-3.09,14.63-1.48,18.59,0,0,4.54,49.68,1.46,97.32,0,0-12.37,1.96-39.07,2.63,0,0-20.05-91.76-31.46-106.68,0,0,6.39-3.76,7.61-10.24Z"/><path class="cls-11" d="m48.29,254.93s-17.02-49.11-29.31-57.41c0,0-.8-1.79,5.49-4.43,0,0,21.3-13.19,30.51-14.71,0,0,3.24-3.39,6.15-2.63,0,0,35.63,67.61,52.02,95.71,0,0-23.63,2.85-64.86-16.52Z"/><path class="cls-11" d="m13.71,198.57s19.02,12.29,33.12,52.29c0,0-7.66-6.89-12.93-15.12-2.15-3.36-12.69-12.54-11.62-14.26,1.24-1.98,8.78,4.06,8.29,3.37-1.87-2.63-3.73-4.85-5.45-6.31,0,0-10.24-3.52-12.88-10.11,0,0-4.68-8.77,1.46-9.87Z"/><path d="m190.63,176.4s-5.49,67.6-7.24,71.11l4.39-1.09s3.95-18.22,7.1-68.29c0,0-1.39-1.29-4.25-1.73Z"/><path class="cls-3" d="m138.31,165.63s10.39-.95,19.79-9.51c.1-.09.17-.21-.39.9-4.99,5.63-18.89,9.93-20.28,10.54-3.91,1.73-5.48,11.99-5.3,17.4,0,0-.12,26.43,6.9,85.33,0,0-9.18.72-14.08.72,0,0-27.78-107.19-32.2-109.28,0,0,4.45-4.68,4.36-7.65s-1.53,2.79,16.52,7.47c0,0,18.75,5.71,24.68,4.07Z"/><path class="cls-7" d="m129.81,270.3s-32.62-106.48-37.05-108.56c0,0,4.45-4.68,4.36-7.65s-1.53,2.79,16.52,7.47c0,0,12.24,4.43,24.68,4.07,0,0-13.49,3.66-15.95,5.73-4.17,3.51-5.87,10.1-6.4,18.44,0,0,4.85,35.06,14.65,71.21,0,0,2.05,7.17-.8,9.29Z"/><path class="cls-6" d="m126.93,169.06c9.83-1.59,11.38-3.43,11.38-3.43-12.44.36-24.68-4.07-24.68-4.07-4.51-1.17-8.4-2.62-10.8-3.77,0,0,17.61,12.31,24.1,11.26Z"/><path class="cls-4" d="m167.36,58.97s3.07,7.02,3.95,18.44c0,0,1.02,8.2,1.54,13.83,0,0,.78,4.36,1.1,8.12,0,0,1.68,10.38,2.41,15.15,0,0,1.39,11.2-1.98,17.78,0,0-4.1,12-16.24,21.07-3.11,2.9-5.56,5.71-7.61,6.88-3.07,2.05-13.02,7.39-26.85,2.34,0,0-7.24-2.34-10.9-4.68,0,0-3.79-1.93-7.02-4.39,0,0-8.2-4.98-13.17-12.88,0,0-7.61-11.12-3.95-24.44,0,0,2.49-14.05,6.73-24.15,0,0,9.37-20.63,11.71-27.07,0,0,7.9-20.34,21.07-22.24,0,0,19.02-2.49,26.2,2.49,0,0,9.95,6,13.02,13.76Z"/><path class="cls-8" d="m138.53,164.4c-4.38.99-9.06.1-14.63-1.94,0,0-7.24-2.34-10.9-4.68,0,0-3.79-1.93-7.02-4.39,0,0-8.2-4.98-13.17-12.88,0,0-7.61-11.12-3.95-24.44,0,0,2.49-14.05,6.73-24.15,0,0,9.37-20.63,11.71-27.07,0,0,7.9-20.34,21.07-22.24,0,0,4.76-.62,10.41-.62,0,0,2.76,13.87.86,47.56,0,0,.29,25.35-.29,33.69-.59,8.34,0,.41,0,.41,0,0-1.9,16.45-1.46,19.8v7.3s1.75,10.31.66,13.64Z"/><path class="cls-10" d="m112.81,131.29s4.61-.88,7.02-.77c0,0,5.49-.66,11.3.77,0,0,8.34,1.21,14.27-.22,0,0,5.6-1.09,10.21.93,0,0-5.49,4.66-9.44,5.76,0,0-4.28,1.76-7.68,1.87,0,0-6.59.22-11.3-1.32,0,0-5.93-1.76-10.32-3.84,0,0-2.52-1.1-4.06-3.18Z"/><path class="cls-16" d="m148.34,112.82c.73,1.01,1.76,3.07,1.76,3.07.05.64.27,1.43-.29,2.93-.8,1.76-3.07,2.05-3.07,2.05-1.24-.26,1.72-.73-.04-1.32-2.41,0-3.03,1.16-3.7,1.89-.67.72-1.53,1.18-1.53,1.18-1.9,1.17-4.32.22-4.32.22-1.9-.44-4.61-2.21-2.67-1.87,1.5.26.26-.84.26-.84-1.76-1.32-3.8-1.02-3.8-1.02-2.93.29,3.88,1.94.15,2.12-3.73.18-5.27-1.54-5.27-1.54-2.63-3.51.29-6.73.29-6.73,0,0-1.54,4.76,1.39,4.54,0,0,1.98.07,3.07-1.24,0,0,.22-.73,1.46-.22,0,0,2.05.66,3.44,1.97,0,0,2.56,1.83,5.2,1.83,0,0,2.85-.15,4.83-1.83,0,0,2.05-1.39,2.2-3.07,0,0-.07-.51.51-.51,0,0,.95.73.15-1.61Z"/><path class="cls-14" d="m135.45,120.73s-1.12-1.25-2.47-1.52c0,0-.52-.21-2.22-.11,0,0-1.59.11-1.53.88,0,0-.12.71,2.63.66,1.98.03,4.06.66,3.59.08Z"/><path class="cls-15" d="m143.33,120.98s.71-.66,1.59-1.1c0,0,.82-.38,1.59-.38,0,0,.84-.02.79.53,0,0,.17.41-1.72.73-1.56.27-1.81.38-2.25.6,0,0-.54.05,0-.38Z"/><path class="cls-19" d="m120.97,117.79s-3,3.35-8.49,7.46c-1.81,1.26-3.29,2.69-3.07,3.66,0,0,.27.68,1.17,3.37,0,0,1.19,4.17,1.32,8.49,0,0-2.49-8.2-3.37-9.51,0,0-2.16-2.89,1.17-4.68,0,0,1.76-1.19,3.8-2.93,2.05-1.74,2.76-2.34,7.46-5.85Z"/><path class="cls-17" d="m150.46,116.7s2.52-1.21,4.28,1.32c0,0,1.08,1.45,1.87,3.07,1.63,2.27,1.87,3.07,3.95,4.72,0,0,2.74,1.65,1.43,5.05,0,0-.39,1.62-.77,2.41,0,0-.99,2.09-1.43,3.07,0,0,1.43-3.29,1.54-5.6,0,0,.44-1.87-.99-3.29.11.15-3.07-2.63-4.17-4.61,0,0-1.65-3.95-3.29-5.05-.75-.58-1.87-1.11-2.41-1.1Z"/><path class="cls-5" d="m119.51,132.21s-.22,1.76.66,3.22c-.02.16.94.53,1.46.37,0,0,.57,1.46,1.99,1.57,0,0,.38-.18.6-.98,0,0,.33.95.7,1.32,0,0,.84.8,2.09.11,0,0,.51-.43.7-.91,0,0,.4,1.43,1.02,1.65,0,0,.8.55,1.65.4,0,0,.84-.07,1.17-.73,0,0,.18.7.77.91,0,0,.71.29,1.62.37,0,0,1.34.18,1.86.11,0,0,.59.11.8-.8,0,0-.04.8.33.88,0,0,.66.26,2.2.07,0,0,1.28-.15,1.68-.26,0,0,.62-.18.8-1.21,0,0,.2.57,1.13.48,0,0,.77-.02,1.62-.49,0,0,.29-.21.44-.91,0,0-.04.51.22.59,0,0,1.24,0,1.72-.44l.11-.37.29.26s.44-.18.73-.4c0,0,.5-.15.73-.4,0,0,.18-.55.22-.91,0,0,.4.29.73.18,0,0,.99-1.57,1.13-3.44,0,0-.07-.91-4.39-.22,0,0-7.06.4-8.2.48,0,0-8.45.4-12.88-1.13,0,0-5.56-.07-5.71.66Z"/><path class="cls-9" d="m119,130.75s-.04,1.56.49,2c0,0-.1-.03.12-.61,0,0,.49-.44.93.07,0,0,.29,1.02.88,1.46.16.11.34.24.37-.73,0,0-.07-.73.37-.88,0,0,1.32.59,1.54,2.12,0,0,.29.95.51.22,0,0-.07-1.32.29-1.98,0,0,.88-.8,1.61.44,0,0,.44,1.1.88,1.9,0,0,.51,1.17.8.22,0,0,.07-1.53.8-1.94,0,0,1.83-.41,2.34,1.06,0,0,.27.66.56,1.02,0,0,.29.22.51-.22,0,0,.39-1.26,1.05-1.77,0,0,1.9-1.09,2.93.74,0,0,.29.59.44,1.02,0,0,.23,1.54,1.03,0,0,0,.28-.67.58-1.02,0,0,.66-1.02,1.98-.95,0,0,1.87.05,1.72,2.34,0,0,.05.93.51-.05,0,0,.77-2,1.79-2.29,0,0,1.2-.16,1.1,1.17,0,0-.37,1.24.37.8,0,0,.72-1.12,1.17-1.9,0,0,.7-.92.95,0,0,0,.05.67-.07,1.54.16.04.44-.37.66-1.1,0,0,.46-1.45.68.26.27.04.55-.98.91-.99.22-.06.14.15.24.33,0,0,.74-1.45.66-.33,0,0,.49-1.02.39-1.67,0,0-.54-.38-2.37-.31,0,0-7.98.51-9.07.88,0,0-3.29.22-5.12-.15,0,0-7.61-1.17-9.37-1.17,0,0-4.61-.07-6.15.44Z"/><path class="cls-18" d="m112.81,131.29s1.15-.42,3.06-.56c0,0,1.36-.27,3.02-.46,0,0,2.95-.7,5.3-1.5,0,0,2.67-.6,5.04-.44,0,0,3.89.15,5.79,1.17,0,0,1.12.42,3.15.34,0,0,2.41.1,3.73-.56,0,0,3.29-.95,6,0,0,0,2.69.42,5.2,1.39,0,0,1.89.84,2.66,1.34,0,0-5-1.04-6.25-1.04s-2.57.33-3.55.44c0,0-1.93.29-3.84.44,0,0-5.93.52-9.45-.14,0,0-2.96-.19-4.6-.63,0,0-3.18-.88-5.16-.55.14-.03-.88.05-3.18.44.29-.11-2.3.33-4.17.33,0,0-1.98-.11-2.74,0Z"/><path class="cls-12" d="m112.81,131.29s1.4,2.74,6.15,5.95c0,0,3.51,2.66,7.35,4.36,0,0,3.4,2.16,10.32,1.94,0,0,1.98-.17,2.34-.15.67.05,2.27-.29,2.27-.29,0,0,6.26-.73,8.67-3.91,0,0,2.41-3.18,3.07-4.17,0,0,1.43-2.3,2.74-2.74,0,0-2.96.99-4.24,1.98-.91.7-2.81,2.3-3.33,2.52,0,0-6.59,3.07-10.1,2.52,0,0-8.78-.11-11.09-1.21,0,0-3.13-.8-4.81-1.78-.02-.01-1.76-.68-1.78-.69-1.43-.74-3.23-1.75-4.03-2.08-1.07-.44-1.48-.69-3.54-2.25Z"/><path class="cls-13" d="m146.18,89.81s.77-3.18,2.96-4.06l.33.33s.37-.55,1.61-.88c0,0,8.15-1.54,13.42-.66,0,0,2.85,0,5.71,3.18,0,0,.79.85,1.54,2.63.7,1.66.44,2.2.44,2.2,0,0-1.32-2.3-2.63-2.96,0,0-2.09-1.65-6.04-1.21,0,0-7.13.48-9.99.73,0,0-3.18.37-3.84.81,0,0-2.2.77-3.51-.11Z"/><path class="cls-10" d="m113.29,93.14s-1.1,1.02-1.24,2.78c0,0-.07,1.39,1.17,2.41,0,0,.88.52,2.34.51,0,0,1.46,0,3.44-.44,0,0,.81-.59.88-2.3,0,0,.07-1.77-.88-2.65,0,0-1.83-1.2-5.71-.32Z"/><path class="cls-35" d="m125.88,99.03s-2.39-1.34-4.5-.99c0,0-.77.07-1.38.17,0,0-2.35.6-3.64.62s-4.5-.41-5.48-1.15c-.88-.44-2.66-.99-3.76-.99,0,0,2.03.02,3.35,1.5,1.09,1,2.43,1.58,4.97,1.77.14,0,.27.04.42.03,3.44-.05,3.15-.42,5.12-.86,0,0,2.71-1.32,4.9-.11Z"/><path class="cls-36" d="m125.22,101.11s-4.77,2.25-11.25,2.27c0,0-3.27.28-7.52-1.61,0,0,.88,1.21,4.61,1.98,0,0,7.94,2.2,14.16-2.63Z"/><path class="cls-10" d="m152.51,94.94s-1.17.98-.95,2.08c0,0-.15,1.39.66,2.05,0,0,1.24.59,3.4.66,0,0,1.28.15,2.16-.15,0,0,1.15-.3,1.54-2.34,0,0,.37-1.61-.73-2.63,0,0-1.65-.72-2.83-.66,0,0-2.44.16-3.25,1Z"/><path class="cls-34" d="m148.05,99.3c-.26.07,1.43-.62,3.18-.48,1.9.46,1.76.64,4.39.9,0,0,3.92.12,6.05-1.09,0,0,1.3-.59,2.43-.37,0,0-1.06.63-2.01,1.07-.95.43-1.94,1.09-5.85,1.2,0,0-2.41.15-4.61-.77,0,0-2.21-.84-3.59-.46Z"/><path class="cls-33" d="m148.92,101.11s4.39,3.39,16.68,2.28c0,0-11.85,3.57-16.68-2.28Z"/><path class="cls-23" d="m102.55,123.77s-3.07,1.9-2.34,5.12c0,0-.15,1.02,1.32,4.98,0,0-1.61-4.98,1.02-10.1Z"/><path class="cls-29" d="m100.34,183.5c19.93,15.81,29.47,22.76,31.8,24.29,0,0-7.58-2.41-31.8-24.29Z"/><path class="cls-31" d="m132.9,209.26s-.73-.66-.44-1.46c0,0,1.02-.88.44,1.46Z"/><path class="cls-32" d="m132.97,214.31s-2.85-1.46-3.15-3c0,0-.29-1.76,1.39-1.9,0,0,1.28.22,1.52.44,0,0,.9-.29,1.48-.44,0,0,1.46.37,1.24,1.68,0,0,.59.88-2.49,3.22Z"/><path class="cls-3" d="m159.17,169.89s-2.57,60.16-20.86,100.4c0,0,19.58-1.1,22.26-1.41,0,0,1.8-66.15-1.41-98.99Z"/><path class="cls-24" d="m133.12,207.79s24.8-24.29,27.22-26.34c0,0-12.08,13.39-27.22,26.34Z"/><path class="cls-11" d="m62.88,173.99s39.07,85.39,46.54,97.24c0,0,7.9,1.1,20.63,0,0,0-29.82-96.47-37.29-109.5,0,0-27.25,6.55-29.89,12.25Z"/><path class="cls-11" d="m158.36,166.53s5.71,50.71,3.07,82.32c0,0,16.9-.88,24.59-1.54,0,0,6.02-42.97,6.2-70.55,0,0-17.61-9.8-33.85-10.23Z"/><path class="cls-30" d="m96.11,209.77c.16.91-.3,29.41,27.79,46.76,0,0-12.95-10.54-15.37-19.32,0,0,4.39,7.9,11.2,8.56,0,0-20.15-8.08-23.62-55.1,0,0-1.23,12.07,0,19.1Z"/><path class="cls-26" d="m128.14,26.48s.29-2.76,6.44-1.82c0,0,4.39-.24,6.15.64,0,0,4.68.89,8.78,1.77,0,0,8.49,4.39,13.46,11.12,0,0,11.12,10.54,18.15,30.15,0,0,5.85,12.29,6.73,54.44,0,0,.59,42.44,4.68,60.73,0,0,5.27,25.32,8.2,34.68,0,0,6.73,18.44,2.93,25.46,0,0-.88,5.85-4.39,8.78l-2.05,2.77s-.59,7.77-6.73,12.75c0,0-6.44,2.93-12,2.93,0,0-8.78.88-13.46,1.17,0,0-6.73,2.93-10.24-1.17,0,0-4.1-1.46-8.05-4.68,0,0-2.78-.59-5.71-3.22,0,0-4.57,2.05-8.29,0,0,0,13.99-2.05,17.07-18.15,0,0,.88-22.83,5.65-42.44,0,0,5.18-24.87,10.16-41.56,0,0,4.68-18.15,8.78-28.54,0,0,2.63-5.12,3.22-22.1,0,0-.59-21.66-5.85-39.51,0,0-5.07-16.65-9.41-19.01,0,0-9.03-8.5-15.61-8.21,0,0-7.6-2.11-11.69-.59,0,0-1.05.29-.76-3.22,0,0-1.75-4.98-4.09-6.15,0,0-4.05-5.27-2.05-7.02Z"/><path class="cls-27" d="m132.2,44.25s-12.22,2.98-16.61,11.7c0,0-10.98,18.38-18.88,43.84,0,0-8.78,22.83-5.71,30.73,0,0,.88,6.76,6.89,14.93,0,0,7.75,10.76,5.59,31.39-2.16,20.63,4.39,42,13.61,53.41,0,0-9.85-7.1-14.68-18.07,0,0,3.44,27.25,18,32.93l-1.76,3.95,6.15,7.46-3.07,2.63.88,5.27-4.83,2.2s-17.56-6.15-23.27-31.61c0,0-1.32,21.51,18.44,36,0,0-7.9-.44-14.05-2.2,0,0-12.73-3.95-18-18.88,0,0,1.32,16.68,14.93,22.83,0,0-3.07,3.51-18.44-3.07l-6.15-5.27-2.79.88s-10.73-10.1-10.48-30.28c0,0-1.47-12.6,1.6-23.17,1.76-6.04,4.31-17.69,5.27-22.94.88-4.83,1.98-18.44,2.85-29.41,0,0-1.29-34.68,1.79-54,0,0,2.6-37.54,11.41-49.55,0,0,13.17-25.08,29.85-28.59,0,0,13.58-4.1,16.68-2.2,0,0,4.8,3.73,2.16,5.93,0,0,12.52,12.67,2.59,13.16Z"/><path class="cls-25" d="m132.74,44.33s19.11-4.39,32.87,12.59c0,0,4.73,9.62,7.7,37.18,0,0,1.37,14.04,2.69,21.5,0,0,1.02,18-14.49,33.8,0,0-2.71,3.51-3.26,6.44,0,0-3.18,5.56-3.04,13.9,0,0,.44,5.41-3.66,11.71,0,0-4.1,10.68-1.1,17.41,0,0,2.34,4.95,2.56,9.58,0,0-1.17,5.35-2.49,10.76,0,0-3.22,10.54-1.76,19.46,0,0,.29,12.73-4.54,15.66,0,0-6.05,6.44-11.59,5.56,0,0,.9,2.2,8.22-.88,0,0,10.39.4,16.83-6.04,0,0,21.66-23.96,22.1-115.54,0,0,2.58-50.59-3.15-69.98,0,0-6.21-21.22-21.72-26.63,0,0-11.56-2.78-18.88-.44,0,0-2.82,1.17-3.31,3.95Z"/><path class="cls-28" d="m129.06,26.72s4.88.63,3.6,3.12c0,0-2.21,2.41,1.28,4.24,0,0,2.7,1.46,1.58,3.8,0,0,18.67-3.8,29.8,5.85,0,0,9.95,10.83,13.76,25.17,0,0,3,7.32,5.27,40.98,0,0,1.45,45.65.88,63.22,0,0-1.46,41.85-9.95,67.61,0,0-7.02,21.37-21.95,29.58,0,0,15.8-5.87,20.78-21.09,0,0,.59,17.27-4.1,19.32,0,0,12.59-12,13.76-36,0,0,3.22,24.88-4.1,34.83s-.29.88-.29.88c0,0,11.12-8.78,9.95-53.27,0,0,7.02,40.39,2.63,47.71-4.39,7.32-.29.88-.29.88,0,0,9.07,1.17-1.46-60,0,0,12,34.24,10.83,42.44,0,0,3.51-7.61-2.05-23.71,0,0-9.66-33.66-9.66-45.07,0,0-3.51-59.41-3.22-68.19,0,0,.27-29.72-6.89-45.59,0,0-12.75-23.77-22.69-29.92,0,0-6.28-8.63-19.45-8.05,0,0-6.52-.83-8.02,1.27Z"/><path class="cls-22" d="m137.44,44.33s-14.29,7.22-18.96,22.54c0,0-2.2,10.39-9.95,14.05-4.46,2.49-10.49,9.69-9.26,14.39,0,0,.48,2.15-3.32,10.78,0,0-3.07,8.49-2.34,14.34,0,0-1.32,9.07,10.83,28.22,0,0,3.72,5.11,4.49,7.03,0,0-6.83-4.23-11.81-8.91,0,0-9.07-13.93-6.73-25.41,0,0,3.8-24.35,12.88-41.91,0,0,6.51-22.49,16.98-29.85,0,0,11.12-8.78,17.2-5.27Z"/><path class="cls-39" d="m129.72,89.59s0-3.73-2.52-5.16l-.33.55s-.77-.88-2.52-1.1c0,0-9.11-2.2-14.93-1.76,0,0-4.83,1.1-6.59,3.29,0,0-3.51,3.07-4.61,5.27,0,0,4.61-4.34,7.68-4.31,0,0,6-1.51,15.07,1.57,0,0,8.09,2.2,8.74,1.65Z"/><path class="cls-38" d="m102.5,213.46c5.59,16.28,14.59,17.47,14.59,17.47-4.28-8.63-15.77-32.78-13.61-53.41,2.16-20.63-5.59-31.39-5.59-31.39-6.02-8.17-6.89-14.93-6.89-14.93-3.07-7.9,5.71-30.73,5.71-30.73,7.9-25.46,18.88-43.84,18.88-43.84,4.39-8.72,16.61-11.7,16.61-11.7.54-.59,1.6-1.75-1.49-2.69,0,0-9.44,2.7-12.51,7.31,0,0-19.32,27.44-21.07,44.34,0,0-10.98,21.29-7.68,33.8,0,0,.22,9.66,5.27,18.66,0,0,7.32,22.39,5.63,32.05,0,0-3.91,20.83,2.17,35.07Z"/><path class="cls-37" d="m116,49.31s-35.86,65.79-26.78,84.29c9.66,19.68,6,30.29,8.56,37.54,2.85,15.8,7.54,27.88,16.1,37.61,0,0-8.85-5.56-10.61-9.07,0,0,6.8,31.39,16.22,31.17,0,0-7.57,11.2-22.8-39.29,0,0-1.63,25.68,1.57,36.66,0,0,.92,14.78,23.82,35.63,0,0-25.32-18.8-31.02-39.44,0,0-6.66,26.41,11.78,41.78,0,0-1.98.22-7.39-2.63,0,0-9.29-5.71-10.17-13.17,0,0-.29,5.34,6.07,13.54-3.22-2.71-6.21-7.23-6.21-7.23,0,0-4.03-6.21-8.13-18.09,0,0,.44,19.46,12.73,31.68,0,0-15.44,1.61-19.83-28.68,0,0-.51,12.95,1.68,20.85,0,0-18.59-10.54-10.9-45.88,0,0,6.59-29.85,8.78-42.59,0,0-.88-40.39,2.2-55.76,0,0-3.06-10.31,2.85-32.05,0,0,2.63-11.41,5.71-21.73,0,0,8.12-23.49,23.49-32.27,0,0,10.1-5.27,16.24-4.39,0,0,6.26.44,4.39,3.51,0,0-.96,1.15,1.54,3.07,0,0,.96.34,3.84,2.34,3.05,2.11,2.43,4.98,2.43,4.98,0,0-9.12-1.83-16.14,7.61Z"/><path class="cls-21" d="m100.1,115.01s9.02,4.06,13.41,2.78c0,0,4.67-1.28,4.67-1.28,9.09-5.02,7.55-1.79,1.31,2.98,0,0-7.13,5.05-10.65,7.67,0,0-1.62,3.79-4.76-3.96,0,0,.51-1.59-3-3.71,0,0-4.24-4.19-.97-4.48Z"/><path class="cls-20" d="m152.73,116.41c7.61.44,4.37,3.69,12.86,1.97,2.62.26,1.64,3.17.52,5.39,0,0-1.86,2.15-2,3.39,0,0-.4,3.75-1.87,1.66,0,0,.36-.5-2.91-3.6-.52.83-4.7-6.54-6.6-8.81Z"/><path class="cls-40" d="m106.12,95.55s7.17-6.22,13.76-3.8c0,0,5.04,1.98,6.33,5.1.1-1.3-.55-4.3-8.17-6.5-1.97-.36-7.53.4-11.92,5.2Z"/><path class="cls-10" d="m104.07,97.01s2.21.04,3.77-1.39c0,0-1.07-.77-1.29-2.09,0,0,.99,1.65,1.76,1.54,0,0,1.21-.99,1.87-1.32,0,0-.66-1.1-.55-2.09,0,0,.55,1.43,1.21,1.65,0,0,.7-.27.85-.63,0,0-.41-1.12-.41-1.78,0,.34.68,1.02.95,1.21.58.4,1.12.24,1.78.16,2.06-.25,4.5-.2,6.14,1.17,1.4,1.17,2.79,2.56,4.4,3.44,0,0,.8.52,1.66,1.15,0,0-3.28-1.49-4.06-2.09-1.21-.91-2.78-2.23-4.61-2.63-1.13-.15-3.87-.33-5.6.49-.52.22-1.13.46-2.41,1.59,0,0-1.59,1.76-5.45,1.61Z"/><path class="cls-8" d="m147.83,96.28s2.79-4.16,6.59-4.05c0,0,5.66-1.66,11.17,3.39,0,0,.79.59,1.89,1.06,0,0-2.41-.29-4.06-1.61,0,0-3.07-2.09-6.15-2.41,0,0-6.26-.33-9.44,3.62Z"/><path class="cls-10" d="m147.61,98.11c1.79-.21,3.08-2.29,4.46-3.24,1.47-1.01,2.76-.98,4.41-1.5,1.38-.43,2.57-1.23,1.74-2.8.26.5.48,1.12.5,1.68.01.41-.22.91,0,1.21s1.35.55,1.71.7c.14.06,1.36-2.39,1.39-2.71-.1.95.11,2.05-.29,2.95.9.56,1.38,1.1,2.38.47.5-.32,1-.63,1.5-.95-.56.8-1.33,1.46-2.21,1.88.45-.24.93.23,1.22.64,1.09,1.56,2.42,2.9,4.5,2.76,0,0-2.2.59-4.57-1.21-.7-.4-1.59-1.23-1.98-1.5,0,0-1.6-1.06-3.54-1.61-1.9-.61-3.11-.88-5.34-.29-1.13.29-2.2,1.39-2.56,1.68,0,0-.51.59-1.68,1.32,0,0-.66.4-1.61.51Z"/></svg>