<?xml version="1.0" encoding="UTF-8"?><svg id="FREDRIK" xmlns="http://www.w3.org/2000/svg" xmlns:xlink="http://www.w3.org/1999/xlink" viewBox="0 0 262 280"><defs><style>.cls-1{fill:none;}.cls-2{fill:url(#Namnlös_övertoning_2614);}.cls-3{fill:url(#Namnlös_övertoning_2453);}.cls-4{fill:url(#Namnlös_övertoning_1769);}.cls-5{fill:url(#Namnlös_övertoning_1862);}.cls-6{fill:url(#Namnlös_övertoning_1350);}.cls-7{fill:url(#Namnlös_övertoning_2189);}.cls-8{fill:url(#Namnlös_övertoning_2172);}.cls-9{clip-path:url(#clippath);}.cls-10{fill:#f39f9b;}.cls-11{fill:#ecceb7;}.cls-12{fill:#e6edf1;}.cls-13{fill:#e5e5e5;}.cls-14{fill:#fdffff;}.cls-15{fill:#d0997d;}.cls-16{fill:#d9ad96;}.cls-17{fill:#251a1e;}.cls-18{fill:#78a1b8;}.cls-19{clip-path:url(#clippath-1);}.cls-20{clip-path:url(#clippath-2);}.cls-21{fill:url(#Namnlös_övertoning_373-3);opacity:.6;}.cls-22{fill:url(#Namnlös_övertoning_2144);opacity:.8;}.cls-23{fill:url(#Namnlös_övertoning_373);}.cls-24{fill:url(#Namnlös_övertoning_131);}.cls-25{fill:url(#Namnlös_övertoning_2614-3);}.cls-26{fill:url(#Namnlös_övertoning_2614-2);}.cls-27{fill:url(#Namnlös_övertoning_373-2);}.cls-28{fill:url(#Namnlös_övertoning_131-2);}.cls-29,.cls-30{opacity:.2;}.cls-30{fill:url(#Namnlös_övertoning_85);}</style><linearGradient id="Namnlös_övertoning_373" x1="97.52" y1="152.09" x2="172.42" y2="152.09" gradientUnits="userSpaceOnUse"><stop offset="0" stop-color="#c3997d"/><stop offset="1" stop-color="#e7c5a3"/></linearGradient><clipPath id="clippath"><path class="cls-1" d="M122.4,173.38c3.75-1.75,6.1-3.19,9.67-5.13,3.36-1.83,6.19-3.65,9.1-6.11,5.97-5.08,13.24-10.97,16.66-18.04,6.43-13.27,7.59-29.5,8.27-43.98,.53-11.18,.5-22.57-2.56-33.34-2.82-9.91-8.62-19.9-17.57-25.44-8.84-5.48-24.94-6.05-34.79-3.03-7.1,2.18-13.24,6.73-18.68,11.79-5.77,5.38-10.58,11.45-12.8,19.12-1.04,3.61-2.04,6.46-1.83,10.31,.14,2.58,.51,5.15,.8,7.72,.23,2.07,.41,4.15,.36,6.25-.04,1.45-.18,2.9-.28,4.35-.29,3.94,.02,7.9-.57,11.78-2.22,14.61,.77,29.97,8.31,42.68,1.36,2.29,2.86,4.5,3.88,6.96,1.4,3.37,1.41,7.86,3.58,10.8,3.77,5.11,9.77,6.15,15.75,6.24,2.76,.05,5.58,.08,8.18-.81,1.43-.49,2.75-1.24,4.11-1.91,.14-.07,.27-.13,.41-.2Z"/></clipPath><linearGradient id="Namnlös_övertoning_1350" x1="81.09" y1="49.69" x2="166.24" y2="49.69" gradientUnits="userSpaceOnUse"><stop offset="0" stop-color="#a38b76"/><stop offset="1" stop-color="#89726b"/></linearGradient><linearGradient id="Namnlös_övertoning_1769" x1="95.68" y1="115.52" x2="120.48" y2="115.52" gradientUnits="userSpaceOnUse"><stop offset="0" stop-color="#8c6754"/><stop offset="1" stop-color="#e7c5a3"/></linearGradient><linearGradient id="Namnlös_övertoning_2189" x1="113.66" y1="93.96" x2="153.52" y2="93.96" gradientUnits="userSpaceOnUse"><stop offset="0" stop-color="#624637"/><stop offset="1" stop-color="#a49581"/></linearGradient><linearGradient id="Namnlös_övertoning_2172" x1="78.85" y1="94.47" x2="96.59" y2="94.47" gradientUnits="userSpaceOnUse"><stop offset="0" stop-color="#917f68"/><stop offset="1" stop-color="#624637"/></linearGradient><linearGradient id="Namnlös_övertoning_373-2" x1="163.03" y1="112.15" x2="180.38" y2="112.15" xlink:href="#Namnlös_övertoning_373"/><clipPath id="clippath-1"><path class="cls-1" d="M136.44,99.73c-.27,1.42-1.64,3.44-1.92,4.86-3.4,0-5.34,1-8.14,.74-.52-.05-1.01-1.56-1.33-1.97-.21-.26-.24-.62-.22-.95,.09-1.9,1.41-3.84,3.5-3.71,2.9,.18,5.46,.38,8.1,1.03Z"/></clipPath><clipPath id="clippath-2"><path class="cls-1" d="M95.56,104.86c-.94,.32-1.95,.44-2.94,.47-1.51,.03-3.05-.17-4.4-.84-1.35-.67-2.5-1.84-2.91-3.29,2.45-1.53,5.12-3.11,7.99-2.89,2.86,.22,6.29,2.93,6.64,5.92-.14-1.18-1.09-2.76-1.48-3.88,.49,1.15,.99,2.31,1.48,3.46,.06,.14,.12,.3,.09,.45-.06,.28-.4,.41-.68,.36"/></clipPath><linearGradient id="Namnlös_övertoning_85" x1="78.38" y1="89.11" x2="171.99" y2="89.11" gradientUnits="userSpaceOnUse"><stop offset="0" stop-color="#aa8260"/><stop offset="1" stop-color="#d0997d"/></linearGradient><linearGradient id="Namnlös_övertoning_2614" x1="120.25" y1="27.23" x2="120.25" y2="51.43" gradientUnits="userSpaceOnUse"><stop offset="0" stop-color="#9f8670"/><stop offset="1" stop-color="#825f56"/></linearGradient><linearGradient id="Namnlös_övertoning_2614-2" x1="76.52" y1="67.79" x2="97.88" y2="67.79" xlink:href="#Namnlös_övertoning_2614"/><linearGradient id="Namnlös_övertoning_2614-3" x1="150.94" y1="77.33" x2="179.54" y2="77.33" xlink:href="#Namnlös_övertoning_2614"/><linearGradient id="Namnlös_övertoning_131" x1="91.4" y1="147.47" x2="132.91" y2="147.47" gradientUnits="userSpaceOnUse"><stop offset="0" stop-color="#bf6851"/><stop offset="1" stop-color="#d29e82"/></linearGradient><linearGradient id="Namnlös_övertoning_373-3" x1="97.42" y1="141.45" x2="120.15" y2="141.45" xlink:href="#Namnlös_övertoning_373"/><linearGradient id="Namnlös_övertoning_131-2" x1="89.93" y1="139.61" x2="131.74" y2="139.61" xlink:href="#Namnlös_övertoning_131"/><linearGradient id="Namnlös_övertoning_2144" x1="129.89" y1="103.08" x2="154.69" y2="103.08" gradientUnits="userSpaceOnUse"><stop offset="0" stop-color="#c3997d"/><stop offset=".02" stop-color="#40250c"/><stop offset="1" stop-color="#d9bdb4"/></linearGradient><linearGradient id="Namnlös_övertoning_1862" x1="95.91" y1="128.32" x2="119.44" y2="128.32" gradientUnits="userSpaceOnUse"><stop offset="0" stop-color="#7e6c5b"/><stop offset=".35" stop-color="#806e5d"/><stop offset=".62" stop-color="#887867"/><stop offset=".85" stop-color="#958777"/><stop offset="1" stop-color="#a19686"/></linearGradient><linearGradient id="Namnlös_övertoning_2453" x1="85.02" y1="130.22" x2="92.48" y2="130.22" gradientUnits="userSpaceOnUse"><stop offset="0" stop-color="#865438"/><stop offset="1" stop-color="#8c7b6c"/></linearGradient></defs><circle id="BG-3" class="cls-10" cx="130.65" cy="130.88" r="129"/><g id="Fredrik-2"><path class="cls-18" d="M99.12,190.57c-.06,1.4,.17,2.8,.39,4.18,.7,4.35,1.48,8.89,3.96,12.42,.15,.22,.32,.44,.55,.54,.54,.24,1.11-.21,1.53-.65,5.49-5.86,7.65-14.96,5.8-22.99-.76-3.31-2.31-9.59-6.15-7.22-2.96,1.82-5.94,10.26-6.08,13.73Z"/><path class="cls-23" d="M170.66,100.48c-1.77,11.65-3.54,23.31-5.31,34.96-.77,5.07-1.54,10.17-1.26,15.29,.29,5.24,1.7,10.41,4.11,15.07-12.98,3.14-22.25,14.16-32.93,22.18-5.65,4.24-11.88,6.9-16.85,12.18-1.64,1.74-3.15,3.62-5.03,5.09-.24,.19-.52,.38-.83,.38-.26,0-.49-.14-.71-.27-1.47-.88-3.38-2.84-5.06-1.72,2.05-1.57,1.66-4.6,1.21-6.82-2.3-11.26-4.68-22.75-10.48-32.68,4.65,.42,9.43,.84,13.92-.43,4.38-1.24,8.17-3.98,11.77-6.77,8.96-6.95,17.43-14.53,25.33-22.66,2.17-2.23,4.31-4.53,5.88-7.23,1.59-2.73,2.53-5.78,3.63-8.73,1.88-5.03,4.26-9.87,7.1-14.43,1.68-2.69,4.11-5.58,7.27-5.33-1.54,2.43-2.55,5.21-2.91,8.06"/><path class="cls-11" d="M122.4,173.38c3.75-1.75,6.1-3.19,9.67-5.13,3.36-1.83,6.19-3.65,9.1-6.11,5.97-5.08,13.24-10.97,16.66-18.04,6.43-13.27,7.59-29.5,8.27-43.98,.53-11.18,.5-22.57-2.56-33.34-2.82-9.91-8.62-19.9-17.57-25.44-8.84-5.48-24.94-6.05-34.79-3.03-7.1,2.18-13.24,6.73-18.68,11.79-5.77,5.38-10.58,11.45-12.8,19.12-1.04,3.61-2.04,6.46-1.83,10.31,.14,2.58,.51,5.15,.8,7.72,.23,2.07,.41,4.15,.36,6.25-.04,1.45-.18,2.9-.28,4.35-.29,3.94,.02,7.9-.57,11.78-2.22,14.61,.77,29.97,8.31,42.68,1.36,2.29,2.86,4.5,3.88,6.96,1.4,3.37,1.41,7.86,3.58,10.8,3.77,5.11,9.77,6.15,15.75,6.24,2.76,.05,5.58,.08,8.18-.81,1.43-.49,2.75-1.24,4.11-1.91,.14-.07,.27-.13,.41-.2Z"/><g class="cls-9"><path class="cls-16" d="M110.2,48.13c-.49,10.35-1.65,35.55-2.07,45.83-.23,5.62,.13,5.63-.6,11.21-.83,6.41-1.11,21.58-1.01,26.88,.09,4.81-4.24-1.98-1.49-.61,3.32,1.65,1.75,9.07,1.79,12.37,.14,10.92,.56,21.83,1.24,32.73,.57-.1,1.13-.19,1.7-.29-1.77,.28,.04,23.44-1.59,25.82-4.42,6.44-10.57-7.45-11.5-10.32-1.45-4.43-1.64-9.17-2.52-13.75-1.47-7.73-5.27-13.95-9.35-20.45-4.29-6.86-5.01-15.75-7.93-23.28-1.06-2.73-2.24-5.45-2.7-8.34-.37-2.28-.28-4.6-.16-6.9,.41-7.67,1.88-15.05,1.41-22.64-.64-10.51,1.93-20.93,4.49-31.15,.77-3.07,1.55-6.18,3.18-8.89,2.01-3.37,5.17-5.87,8.25-8.3,3.41-2.69,6.85-5.4,10.58-7.64,1.98-1.19,9.43-3.64,9.2-5-.43,4.22-.71,8.46-.91,12.72Z"/></g><path class="cls-6" d="M130.18,31.42c2.68-.59,6.6,1.53,9.26,2.11,2.26,.49,4.45,1.12,6.73,1.55,5.67,1.08,10.91,3.94,14.6,8.42,4.63,5.62,6.49,13.42,4.91,20.52-.24,1.07-.57,2.16-1.3,2.99-.72,.82-1.93,1.31-2.95,.9-1.7-.69-1.72-3.02-1.86-4.85-.34-4.36-3.56-7.98-5.57-11.73-.42-.79-.83-1.61-1.48-2.22-.96-.91-2.3-1.26-3.46-1.9-2.48-1.36-4.2-4.07-6.94-4.75-1.83-.45-3.76,.13-5.5,.85-2.66,1.1-5.32,3.65-8.04,4.14-2.83,.52-6.67-.34-9.48-.81-4.32-.72-8.01-2-12.46-1.41-5.86,.78-10.96,4.28-15.8,7.68-1.21,.85-8.21,7.24-9.56,4.76-1.62-2.98,6.67-9.23,8.45-10.56,9.04-6.75,19.91-11.93,31.4-11.81,1.14,.01,2.31,.06,3.38-.33,2.11-.76,3.46-3.08,5.66-3.56Z"/><path class="cls-29" d="M119.06,167.65c1.79-.12,3.36-1.21,4.68-2.42,5.45-5.03,7.89-12.46,9.93-19.59,.5-1.76,1-3.54,1.9-5.14,1.51,2.12,.91,5.01,.65,7.6-.26,2.59,.31,5.84,2.79,6.66,1.56,.52,3.24-.18,4.67-.99,7.08-4.03,11.41-10.57,14.3-18,3.47-8.9,6.4-18.01,8.79-27.26-.94,3.65-.61,8.03-1.19,11.8-.63,4.02-1.47,8.01-2.53,11.94-1.98,7.34-4.33,15.56-9.07,21.6-6.05,7.73-13.68,14.22-22.29,18.95-7.66,4.21-15.93,8.01-24.91,5.52-3.42-.95-6.54-2.79-9.39-4.91-1.38-1.02-2.73-2.13-3.76-3.5-2.82-3.76-2.86-8.83-3.62-13.47-.84-5.14-2.67-10.05-4.05-15.07-.65-2.38-1.12-5.2,.47-7.1,2.91,3.57,2.54,8.68,3.48,13.2,.4,1.91,1.05,3.76,1.7,5.6,1,2.85,2.01,5.7,3.01,8.54,.59,1.68,1.26,3.46,2.69,4.52s3.88,.91,4.6-.73c.84-1.92-1.13-3.77-2.32-5.5-1.87-2.73,1.76-2.58,3.47-2.33,3.17,.46,6.31,1.21,9.52,1.33,2.82,.1,5.11-1.33,7.8-2.09,.23,.93-.81,1.6-1.6,2.14-1.41,.97-3.18,3.39-3.58,5.08-.52,2.17,1.91,3.75,3.87,3.62Z"/><path class="cls-29" d="M132.06,135.53c.4,.08,.83,.13,1.22,.22,.43,.1,.86,.24,1.29,.35,.34,.08,.71,.16,1.04,.03,.5-.19,.74-.81,.58-1.32-.14-.45-.51-.75-.92-.94-.46-.2-.92-.41-1.39-.6-1.04-.42-2.09-.81-3.16-1.16-2.56-.85-5.22-1.45-7.93-1.54-3.4-.12-6.83,.56-10.19,.04-.86-.13-1.71-.35-2.58-.4-3.1-.18-6.05,1.7-9.15,1.5-2.94-.19-5.54-2.22-8.48-2.37-1.19-.06-2.37,.2-3.5,.58-1.49,.5-2.96,1.27-3.85,2.57-.88,1.3-.98,3.23,.12,4.35,3.18-2.99,8.06-4.04,12.19-2.62,1.78,.61,3.4,1.63,5.22,2.09,3.19,.81,6.52-.17,9.75-.82,6.49-1.32,13.25-1.31,19.74,.03Z"/><path class="cls-1" d="M100.59,104.5c-.43-1.8-1.08-3.67-2.52-4.83-.55-.45-1.2-.77-1.85-1.08-1.81-.86-3.75-1.64-5.75-1.5-1.77,.12-3.44,.96-4.82,2.07-1.38,1.11-2.52,2.49-3.65,3.87,1.27-.6,2.78-.21,4.04,.41s2.43,1.47,3.79,1.81c3.37,.83,6.9-1.65,10.27-.82,.11,.03,.23,.06,.33,.01,.21-.09,.19-.39,.12-.61-.2-.68-.51-1.32-.92-1.9"/><path class="cls-4" d="M109.69,127.87c-1.53,.52-2.72,1.41-4,2.33-1.34,.97-2.9,.78-4.48,.51-.65-.11-1.3-.24-1.87-.57-3.11-1.83-1.17-6.56-.33-9.09,1.46-4.38,2.23-8.96,2.87-13.52,.24-1.74,.94-3.57,.56-5.31-.41-1.89-1.21-3-2.43-4.41,.92,1.06,1.54,2.38,1.77,3.77,.26,1.57,.03,3.19-.23,4.76-1.17,6.9-3.01,13.68-5.5,20.22-.56,1.47-.57,2.55,.52,3.71s2.5,2.08,4.03,2.6c.59,.2,1.19,.34,1.81,.36,1.89,.06,3.57-.91,5.19-1.76,1.52-.8,2.68-2.02,4.45-2.28,1.23-.17,2.49-.07,3.72-.24,3.93-.54,6.35-6.24,3.36-9.17-.64-.63-1.49-.97-2.32-1.31-.99-.4-1.33,.15-2.14,.09,1.65,.13,2.92,1.58,3.58,3.1,.27,.61,.47,1.26,.44,1.92-.1,1.8-1.92,3.04-3.68,3.44-1.76,.41-3.62,.29-5.33,.86Z"/><path class="cls-1" d="M105.83,116.8c1.08-2.34,1.28-4.97,1.47-7.54,.13-1.73,.25-3.46,.38-5.19"/><path class="cls-7" d="M149.6,95.85c-4.94-1.44-9.88-2.88-14.82-4.32-1.21-.35-2.44-.71-3.7-.81-2.64-.2-5.22,.73-7.7,1.66-3.24,1.2-6.48,2.41-9.71,3.61,2.42,1.07,4.37,.78,6.9,0,2.53-.78,4.95-1.95,7.55-2.46,8.47-1.66,16.79,3.91,25.42,3.72"/><path class="cls-8" d="M90.61,92.55c-2.01,.54-3.8,1.67-5.72,2.5-1.92,.83-3.96,1.36-6.04,1.56,3.8-.63,7.64-1,11.49-1.1,1.03-.03,6.13,.09,6.24-1.49,.15-2.09-4.94-1.75-5.98-1.47Z"/><path class="cls-27" d="M178.97,106.37c-.12,2.11-.24,4.24-.76,6.29-.53,2.09-1.45,4.06-2.37,6.02-1.94,4.13-3.97,8.37-7.33,11.46-1.5,1.38-3.48,2.55-5.48,2.12,1.28-2.39,1.91-5.07,2.51-7.72,.55-2.4,1.1-4.8,1.66-7.2,.54-2.33,1.07-4.69,.98-7.07-.06-1.49-.37-2.98-.22-4.46,.12-1.2,.55-2.35,.97-3.48,.88-2.37,1.78-4.77,3.32-6.77,1.11-1.43,4-4.1,6.08-3.57,2.2,.57,2.17,3.99,1.94,5.75-.39,2.93-1.13,5.58-1.31,8.63Z"/><g class="cls-19"><path class="cls-17" d="M126.74,102.99c.14,.32,.34,.63,.6,.87,.55,.51,1.35,.62,2.09,.73,1.88,.28,3.99,.08,4.99-1.64,.51-.87,.53-2.27,.28-3.12-.18-.59-.72-.47-1.27-.74-.89-.43-1.79-.87-2.76-1.08-.73-.16-1.7-.26-2.41,.06-.47,.21-.67,.65-.96,1.05-.79,1.14-1.16,2.54-.57,3.87Z"/></g><g class="cls-20"><path class="cls-17" d="M90.72,104.43c1.1,.73,2.33,.84,3.79,.5,.81-.19,1.59-.61,2.07-1.28,.53-.74,.64-1.68,.71-2.58,.03-.4,.05-.81-.04-1.2-.08-.33-.24-.63-.43-.92-1.22-1.8-4.36-2.76-6-.95-1.71,1.88-2.52,4.83-.1,6.43Z"/></g><path class="cls-30" d="M170.55,91.12c-.04-.15-.08-.29-.13-.44-1.39-4.63-2-9.16-3.61-13.8-2.47-7.13-7.01-13.51-8.15-20.98-1.21-8-7.81-9.68-13.96-12.99-6.7-3.61-14.46-4.22-22.03-3.31-4.71,.57-9.27,2.03-13.75,3.58-13.55,4.68-26.51,12.26-29.78,27.19-.91,4.16-.54,8.43-.43,12.65,.05,1.85,.05,3.61-.27,5.42-.3,1.66,.64,3.96,.1,5.47,.72-1.97,1.47-3.93,2.27-5.88,3.06-7.48,6.69-14.72,10.84-21.65,1.97-3.28,3.76-6.28,6.85-8.62,2.79-2.11,6.03-3.62,9.48-4.24,3.69-.67,18.81-.13,22.62,.4,3.9,.54,8.21,1.23,11.84,2.78,3.96,1.69,7.51,5.47,7.09,9.75-.24,2.5-1.76,4.65-2.92,6.88-1.16,2.23-1.96,4.98-.78,7.19,.94,1.75,2.86,2.67,4.51,3.77,3.77,2.49,6.59,6.37,7.8,10.72,1.25,4.52-.13,8.35-.3,12.82-.16,4.2-1.71,7.95-3.09,11.88-1.02,2.9-4.03,19.28,1.47,19.28,.81,0,1.55-.47,2.19-.97,3.65-2.83,5.83-7.13,7.64-11.37,2.77-6.48,4.98-13.25,5.69-20.26,.52-5.11,.2-10.32-1.21-15.27Z"/><path class="cls-2" d="M137.64,42.03c-1.47,1.58-2.09,3.8-3.54,5.39-1.79,1.95-4.54,2.65-7.15,3.09-7.42,1.26-15.06,1.22-22.46-.12-1.37-.25-2.75-.55-3.94-1.27-1.19-.72-2.17-1.92-2.26-3.31-.09-1.34,.63-2.64,.51-3.97-.17-1.91-2.09-3.31-4-3.43-1.91-.13-3.75,.74-5.34,1.81,.73-2.56,2.95-4.52,5.44-5.46,2.49-.94,5.24-.99,7.89-.73-.88,.24-1.62-.93-1.34-1.8s1.16-1.39,2-1.76c2.75-1.19,5.83-1.48,8.81-1.16-.61-.44-1.23-.87-1.84-1.31,4.25-.77,8.88-1.49,12.67,.58l.25-1.2c1.03-.37,2.21,.02,3.06,.73s1.41,1.67,1.97,2.61c.23-.63,.89-.98,1.51-1.22,4.31-1.66,9.5-.77,13.02,2.24,.05-.34,.1-.67,.15-1.01,1.7-.7,3.86,.02,4.82,1.59,.26,.42,.44,.9,.76,1.27,.26,.29,.59,.5,.88,.76,1.41,1.24,1.58,3.35,1.55,5.22-.04,2.74-.41,5.72-2.34,7.66-.24,.24-.52,.47-.85,.53-.35,.06-.71-.07-1.04-.21-1.87-.81-3.56-2.03-4.92-3.54-.63-.69-1.2-1.46-2-1.94-.79-.49-1.9-.62-2.62-.02-.5,.42-.7,1.08-.94,1.68-.61,1.55-1.66,2.92-2.99,3.92"/><path class="cls-26" d="M97.41,50.47c-3.01,2.51-6.03,5.02-9.04,7.53-1.99,1.65-4.06,3.42-4.97,5.84-.49,1.31-.61,2.75-1.22,4.01-.23,.48-.53,.93-.75,1.42-.36,.82-.47,1.72-.57,2.61-.65,5.58-1.3,11.15-1.95,16.73-.23,1.97-.5,4.04-1.7,5.62,.29-2.92-.32-5.84-.58-8.77-.27-2.92-.14-6.05,1.45-8.52-.46,.21-.91,.41-1.37,.62-.3-2.64,.17-5.37,1.33-7.76l-1.44,1.91c1.17-3.6,2.13-7.28,2.56-11.04,.11-.92,.18-1.85,.45-2.74,.5-1.68,1.62-3.09,2.72-4.45,2.02-2.5,4.03-4.99,6.14-7.41,2.01-2.31,4.48-4.72,7.54-4.72,1.39,.79,1.78,2.61,1.74,4.2-.04,1.59-.37,3.24,.13,4.75-1.34,.58-2.5,1.56-3.3,2.78"/><path class="cls-25" d="M152.91,45.34c.76-1.33,1.33-2.83,2.48-3.85,1.15-1.02,3.17-1.29,4.1-.07,.26,.34,.48,.8,.9,.82,.21,.01,.4-.1,.59-.19,2.24-1.09,5,.12,6.7,1.93s2.72,4.17,4.18,6.18c.9,1.24,1.97,2.36,2.85,3.61,1.65,2.35,2.61,5.1,3.54,7.82,.6,1.75,1.21,3.56,1.12,5.41-.08,1.65-.72,3.25-.76,4.9-.06,2.58,1.36,5.14,.77,7.65-.22,.93-.7,1.78-.9,2.71-.53,2.43,.91,5.02,.15,7.38-1,3.13-5.1,4.01-7.1,6.61-2.25,2.92-1.36,7.21-2.93,10.55-1.3,2.76-4.12,4.53-5.53,7.23-.73-.72-.55-1.95-.12-2.87s1.08-1.81,1.14-2.83c.04-.62-.14-1.23-.32-1.82-.44-1.45-.9-2.95-1.86-4.13-.52-.64-1.18-1.17-1.69-1.82-1.75-2.23-1.53-5.35-1.51-8.18,.04-6.71-1.62-13.43-4.77-19.35-.25-.48-.52-.96-.6-1.49-.11-.73,.15-1.46,.33-2.17,.52-2,.48-4.15-.12-6.13-.22-.74-.52-1.5-.36-2.25,.28-1.31,1.79-2,2.27-3.25,.49-1.28-.24-2.68-.94-3.86-.96-1.61-2.09-3.05-3.12-4.6-1.32-1.99,.42-2.07,1.5-3.96Z"/><path class="cls-17" d="M90.87,139.72c1.85,2.12,3.7,4.24,5.55,6.35,.76,.87,1.52,1.74,2.41,2.46,3.16,2.56,7.52,2.95,11.59,2.96,1.22,0,2.44-.02,3.63-.29,1.04-.24,2.02-.66,3-1.08,3.03-1.3,6.1-2.62,8.74-4.59,2.09-1.55,3.87-3.48,5.96-5.04-2.88-1.32-6.2-1.2-9.37-1.05-4.03,.19-8.06,.39-12.05,.99-1.31,.2-2.62,.44-3.94,.39-3.35-.14-6.4-2.14-9.75-2.3-2.03-.09-4.01,.5-5.95,1.09,1.65,1.38,3.07,3.05,4.17,4.9"/><path class="cls-24" d="M95.44,147.97c-1.5-2.6-2.55-5.34-4.04-7.94,1.07,1.35,2.87,1.8,3.99,3.07,1.27,1.45,2.2,3.1,3.69,4.39,3.91,3.41,9.61,4.14,14.68,3.06,1.05-.22,2.08-.52,3.07-.94,1.13-.49,2.19-1.14,3.21-1.83,4.22-2.84,8.1-6.36,12.87-8.11-3.11,3.54-6.6,6.75-10.39,9.55-3.7,2.73-7.81,5.13-12.36,5.85s-9.6-.48-12.61-3.96c-.83-.96-1.48-2.05-2.11-3.15Z"/><path class="cls-17" d="M92.51,97.75c-2.94,.38-6.58,1.09-8.48,3.62-.64,.85-1.02,1.9-1.08,2.97,2.09-2.64,5.02-4.97,8.33-5.82,1.04-.27,2.15-.39,3.17-.05,1.01,.34,1.84,1.11,2.87,1.4-.96-.57-1.92-1.13-2.88-1.7-.3-.18-.61-.36-.95-.43-.32-.07-.65-.03-.98,0Z"/><path class="cls-17" d="M111.77,129.04c1.13-.09,2.26-.25,3.39-.35,.06,0,.13,0,.18,.04,.04,.04,.05,.11,.05,.17,0,.27,0,.57-.2,.76-.14,.14-.35,.19-.55,.23-.78,.15-1.58,.22-2.38,.22-.25,0-.51-.01-.76,0-1.66,.07-3.51,1.23-4.98,1.96,1.24-1.08,2.54-2.17,4.11-2.66,.66-.2,1.34-.37,2.03-.46"/><path class="cls-14" d="M97.95,144.78c0,.99,.02,1.84,.84,2.49,.9,.7,2.18,.6,3.27,.72,.12-.3,.27-.59,.47-.85,.09,.35-.1,1.05,.19,1.31,.08,.07,.2,.08,.31,.09,1.24,.09,2.48,.16,3.72,.23,.18,0,.36,.02,.53-.05,.35-.15,.48-.57,.57-.95-.04,.11-.02,.23,.04,.34,.05,.09,.12,.17,.2,.22,.53,.36,1.46,.24,2.07,.21,.56-.02,1.12-.08,1.67-.13,.34-.03,.98,.08,1.24-.16,.47-.43-.07-1.76,.67-2.01,.06-.02,.12,1.11,.19,1.21,.25,.35,.77,.33,1.15,.35,.09,0,.19,0,.28,0,.71-.05,1.32-.08,2.01-.29,.04-.01,.08-.03,.11-.06,.04-.04,.05-.09,.06-.14,.05-.23,.1-1.11,.43-1.11,.3,.03,.12,.58,.2,.73,.14,.28,.59,.23,.86,.21,.72-.06,1.39-.07,2.05-.42,.06-.03,.11-.06,.16-.11,.04-.05,.07-.11,.09-.17,.16-.42,.17-1.1,.46-1.45,.05,.56,.45,.66,.96,.63,.29-.01,.57-.09,.85-.15,.14-.03,.31-.08,.38-.2,.04-.07,.05-.15,.06-.24,.02-.25-.04-.78,.12-.98,.23-.28,.3,.27,.35,.45,0,.03,.02,.05,.04,.07,.03,.03,.08,.03,.12,.02,.44,0,.91-.09,1.35-.14,.25-.03,.68,.04,.86-.19,.16-.2,.13-.67,.2-.93,.12-.45,.65-.18,.96-.43,.34-.28,.63-.74,.75-1.16,.18-.63,.09-1.31,0-1.96-3.36,.44-6.76-.33-10.14-.38-1.49-.02-2.99,.1-4.48,.18-5.38,.28-10.79,.02-16.13-.78-.92-.14-1.27,.15-1.34,1.03-.05,.65-.04,1.3-.03,1.96,.01,.54,.02,1.12,.16,1.65,0,.03,.02,.06,.04,.09,.12,.15,.47,.14,.63,.21,.15,.06,.35,.06,.39-.12,.02-.07,.02-.13,.07-.18-.04,.64-.02,1.31,0,1.95"/><path class="cls-13" d="M125.77,142.44c.2-.75,.25-1.54,.29-2.32-.53,.08-.85,.01-.78,.57s.34,1.19,.49,1.75Z"/><path class="cls-21" d="M98.65,141.23c.22,.08,.46,.04,.69,.03,1.08-.09,2.18,.3,2.97,1.03,.12,.11,.23,.23,.39,.27,.22,.07,.45-.04,.67-.12,1.26-.47,2.77-.15,3.73,.78,.26,.26,.6,.58,.94,.44,.1-.04,.18-.12,.26-.19,1.39-1.27,3.51-1.68,5.27-1.02,.84-.8,2.18-.6,3.33-.45,.21,.03,.44,.05,.64-.02,.2-.08,.35-.25,.51-.4,.58-.58,1.32-1.01,2.12-1.21-3.36-.8-6.87,.04-10.32,.18-2.1,.08-4.22-.09-6.27-.53-1.62-.34-3.25-.85-4.93-.83-.75,.01-1.35-.12-1.18,.57,.08,.32,.89,1.35,1.2,1.47Z"/><path class="cls-28" d="M97.28,140.26c-2.41-.61-4.87-.71-7.35-.88,.51-.23,.99-.51,1.44-.84,.97-.71,2.37-.9,3.56-.99,1.19-.09,2.38-.06,3.56,.09,1.44,.18,2.86,.53,4.31,.56,1.8,.03,3.56-.44,5.35-.68,2.12-.29,4.22-.19,6.33,.1,2.87,.39,5.89,.77,8.78,.8,1.46,0,2.94,.19,4.36,.51s2.74,.94,4.1,1.38c-.13,.07-.29,.07-.43,.05-.71-.09-1.38-.39-2.08-.48-.78-.1-1.57,.11-2.34,.24-.82,.14-1.66,.07-2.47,.18-.7,.1-1.4,.33-2.12,.4-3.62,.38-7.26,.49-10.89,.72-.95,.06-1.9,.13-2.85,.22-1.79,.17-3.59,.33-5.37,.11-2.02-.25-3.93-1-5.9-1.5Z"/><path class="cls-22" d="M140.89,103.08c-.55-.04-.18-1.03-.65-1.31-.16-.1-.33-.21-.52-.23-.17-.01-.36,0-.48,.13-1.17,1.2-6.31,2.43-9.23,2.9-.68,.11,1.72-.12,1.24,.09,2.25-.42,5.44-1.41,7.69-.98,.66,.12,1.28,.38,1.92,.56,2.23,.64,4.6,.43,6.91,.21,2.31-.22,4.61-.43,6.92-.65-2.78,.36-5.6,.38-8.38,.08-2.37-.26-4.83-.81-6.61-2.39,.39,1.06,.12,1.22,1.19,1.59Z"/><path class="cls-17" d="M120.48,99.79c.44-.35,1.31-.8,1.84-1,.75-.28,1.48-.44,2.28-.36,1.78,.17,3.56,.35,5.33,.53,1.75,.17,3.5,.34,5.21,.73,.52,.12,1.03,.25,1.51,.49,1.04,.52,1.9,1.5,2.89,2.14s2.12,1.25,3.21,1.82c-1.08-.56-2.22-1.17-2.88-2.22-.56-.9-.94-1.63-2.04-2.02-.47-.17-.94-.48-1.44-.58-.97-.18-1.07-.17-2.04-.35-3.03-.56-7.33-1.03-10.41-1.23-.37-.02-.74-.04-1.09,.06-.37,.1-.7,.33-1.02,.55-1.09,.76-2.19,1.52-3.28,2.29-1.09,.76-1.59,1.44-2.14,2.63,.03-.63,1.5-1.45,1.99-1.84,.8-.65,1.28-.98,2.09-1.63Z"/><path class="cls-5" d="M119.19,127.09c-.76,1.07-2.11,1.55-3.41,1.71-1.3,.16-2.63,.07-3.92,.28-1.81,.3-3.14,1.13-4.38,2.4-1.17,1.2-3.52,1.39-5.09,1.32-2.47-.11-5.83-1.03-6.41-3.86-.24-1.16,.24-2.33,.71-3.41,.25-.57,.49-1.14,.74-1.7-.35,.9-.59,1.83-.91,2.74-.26,.74-.52,1.52-.33,2.28,.2,.79,.82,1.28,1.48,1.68,.31,.19,.62,.37,.94,.55,.22,.12,.44,.23,.68,.3,.19,.06,.38,.09,.57,.12,1.64,.28,3.09,.54,4.74,.16,1.73-.4,3.08-1.33,4.66-2.07,1.17-.54,2.4-.95,3.66-1.2,1.11-.22,2.05,.06,3.16-.01,.83-.06,1.68-.26,2.33-.78,.77-.62,1.39-1.35,.78-.49Z"/><path class="cls-15" d="M175.41,98.07c-1.18,1.11-2.44,2.15-3.48,3.4-1.09,1.3-1.85,2.9-2.73,4.35-.5,.82-1.04,1.61-.99,2.59,.07,1.23,.16,2.46,.24,3.7,.02,.34,.06,.71,.3,.93,.31,.29,.8,.22,1.2,.09s.85-.27,1.23-.1c.41,.19,.58,.71,.49,1.16s-.4,.81-.74,1.11-.71,.56-1.02,.89c-.97,1.05-.97,2.39-1.51,3.62-.38,.88-1.29,1.44-1.44,2.41,0,.03,0,.06,0,.08,.02,.03,.07,.03,.11,.02,.67-.18,1.12-.77,1.59-1.28,.39-.43,.84-.96,1.37-1.2s.94-.37,1.31-.83c2.5-3.1,4.2-6.86,4.87-10.8,.28-1.64,.39-3.33,.89-4.92,.28-.9,.7-1.79,.75-2.74s-.37-2.02-1.27-2.32c-1.04-.36-2.09,.45-2.91,1.2"/><path class="cls-12" d="M47.27,202.96c-7.33,3.49-26.25,13.96-27.05,22.04-.31,3.15,1.26,6.92,3.33,9.31,26.45,30.61,59.75,38.37,87.75,41.51,12.09,1.35,61.12-3.38,84.49-18.26,5-3.18,22.2-10.89,46.66-44.61-3.13-1.59-4.16-7.1-7.21-8.62-3.04-1.52-9.68-4.86-12.68-6.6-6-3.48-13.7-6.81-19.21-10.99-7.08-5.37-14.61-10.12-22.12-14.86-8.52-5.37-13.85-5.62-21.23,1.39-4.63,4.41-9.74,8.31-15.2,11.64-6.29,3.83-13.16,6.96-18.34,12.2-4.55,4.61-11.43,11.51-18.51,6.76-2.09-1.4-3.28-3.96-4.72-5.94-2.22-3.07-4.57-5.85-6.09-9.37-1.49-3.45-2.35-7.21-4.37-10.38-3.56,2.78-7.13,2.88-11.17,4.94-3.5,1.79-7.49,5.51-11.04,7.5-7.68,4.31-15.35,8.56-23.31,12.35Z"/><path class="cls-18" d="M132.52,182.01c-1.14,1.85-2.26,3.91-3.58,6.25-3.13,5.57-10.02,8-13.71,13.22-3.1,4.38-3.01,9.32-3.52,14.41-.54,5.4-2.65,10.58-2.22,16.16,.2,2.66,.89,5.25,1.46,7.85,1.47,6.79,2.06,13.76,1.8,20.7-.19,5.02,1.87-8.35,3.99-3.37,0,0,2.26,8.15,2.8,7.74,.78-.6-.27,3.27,0,0,.28-3.38,1-6.72,.95-10.11-.06-5.07-1.83-9.96-2.48-15-1.32-10.08,2.36-19.24,3.56-29.04,.6-4.91,2.77-9.87,6.86-12.65,5.43-3.74,9.89-9.09,15.32-13.28,.72-.56,2.98,2.18,3.63,2.82-1.11-5.54-.78-8.8-1.9-14.34-6,3.27-10.29,4.26-12.98,8.63Z"/><path class="cls-18" d="M104.79,190.22c.9,3.58,2.07,6.78,4.45,9.63,.89,1.07,1.8,2.15,2.96,2.93s2.62,1.21,3.96,.85c-.36,.58-.54,1.28-.52,1.96-3.92,.75-6.92-.66-10.2-2.53-1.09-.62-2.19-1.35-2.83-2.43-.62-1.07-.78-2.44-1.7-3.26-1.48-1.31-3.81-.39-5.73-.85-3.59-.86-3.94-7.55-2.2-10.06,1.04-1.5,2.44-2.74,3.42-4.27,.92-1.45,1.44-3.11,2.22-4.64,.78-1.53,1.92-3,3.55-3.55,1.86,4.13,1.4,8.89,2.05,13.37,.14,.95,.33,1.91,.56,2.86Z"/><path class="cls-12" d="M133.56,182.01c-1.14,1.85-2.26,3.91-3.58,6.25-3.13,5.57-10.02,8-13.71,13.22-3.1,4.38-3.01,9.32-3.52,14.41-.54,5.4-2.65,10.58-2.22,16.16,.2,2.66,.89,5.25,1.46,7.85,1.47,6.79,.92,15.59-.53,22.47-1.03,4.92-2.08,10.31-.52,10.64,3.08,.65,11.7,1.24,11.87,1.07,1.92-1.86-2.51-5.84-2.24-9.11,.28-3.38,1-6.72,.95-10.11-.06-5.07-1.83-9.96-2.48-15-1.32-10.08,2.36-19.24,3.56-29.04,.6-4.91,2.77-9.87,6.86-12.65,5.43-3.74,9.89-9.09,15.32-13.28,.72-.56,2.98,2.18,3.63,2.82-1.11-5.54-.78-8.8-1.9-14.34-6,3.27-10.29,4.26-12.98,8.63Z"/><path class="cls-18" d="M148.39,197.07c3.92-4.4,9.18-6.91,13.47-10.72,5.18-4.61,9.58-9.03,15.99-12.06,1.81-.85,3.99-2.09,3.87-4.09-.04-.64-.34-1.24-.63-1.81-1.83-3.62-3.68-7.23-5.55-10.83-.41-.78-.94-1.66-1.82-1.77-.52-.07-1.03,.17-1.5,.4-6.47,3.28-10.88,8.72-16.7,12.81-2.73,1.92-5.48,3.8-8.25,5.64-2.34,1.56-4.98,3.95-7.87,4.29-.45,.05-.9,.06-1.35,.12-1.95,.28-3.62,1.57-4.92,3.06-1.59,1.83,1.93,2.42,3.08,3.72,1.32,1.49,2.13,3.4,2.83,5.24,1.66,4.41,3.2,8.86,4.61,13.35,1.16-2.71,2.79-5.16,4.74-7.36Z"/><path class="cls-12" d="M148.39,193.93c3.92-4.4,9.18-6.91,13.47-10.72,5.18-4.61,9.58-9.03,15.99-12.06,1.81-.85,4.46-2.65,4.45-2.96-.02-.64-.92-2.36-1.21-2.94-1.83-3.62-3.68-7.23-5.55-10.83-.41-.78-.94-1.66-1.82-1.77-.52-.07-1.03,.17-1.5,.4-6.47,3.28-10.88,8.72-16.7,12.81-7.38,5.19-14.94,10.11-22.67,14.75,3.28,.66,5,4.19,6.18,7.32,1.66,4.41,3.2,8.86,4.61,13.35,1.16-2.71,2.79-5.16,4.74-7.36Z"/><path class="cls-18" d="M86.2,202.69c3.5-5,7.54-9.71,12.04-14.04,2.43-2.34,3.71-3.03,3.97-5.84,.06-.6-.09-6.9,1.85-6.48-5.03-1.09-9.49-4.07-12.04-8.04-7.96,8.72-7.14,23.97-5.82,34.41Z"/><path class="cls-12" d="M87.12,199.55c2.95-4.78,6.34-9.27,10.13-13.41,2.05-2.24,3.12-2.89,3.34-5.58,.05-.57-.07-6.59,1.55-6.19-4.23-1.04-7.99-3.89-10.13-7.68-6.7,8.33-6.01,22.9-4.9,32.87Z"/><path class="cls-1" d="M114.69,234.32c-1.44,6.04,2.17,18.36,2.06,22.92-.08,3.33-1.26,6.61-.88,9.92,.15,1.28,.52,2.51,.81,3.76,.88,3.84,.94,4.87,1,8.8"/><path class="cls-1" d="M117.67,240.49c-.48,4.54,1.54,12.18,1.43,16.74-.08,3.33-1.26,6.61-.88,9.92,.15,1.28,.52,2.51,.81,3.76,.88,3.84,.94,4.87,1,8.8"/><path class="cls-1" d="M121.46,257.23c-.08,3.33-1.26,6.61-.88,9.92,.15,1.28,.52,2.51,.81,3.76,.88,3.84,.94,4.87,1,8.8"/><path class="cls-1" d="M96.11,104.54c-3.67,1.57-8.01,1.47-11.61-.26-.26-.13-.53-.26-.81-.31-.34-.06-.68,0-1.02,.06-1.11,.2-2.22,.4-3.33,.6,2.05-.09,4.01,.75,6,1.23,2.15,.52,4.39,.63,6.57,.33,1.09-.15,2.17-.4,3.22-.74,.55-.18,2.04-.48,2.36-1-1.98,.02-4.06,.65-5.95,1.21"/><path class="cls-15" d="M129.64,127.19c2.11,1.23,4.47,2.01,6.52,3.34,.41,.27,.81,.56,1.14,.93,.35,.4,.6,.88,.8,1.37,1.18,3.02,.32,6.42-.78,9.47,.61-1.64-.07-3.85,.05-5.6,.06-.87,0-1.59-.29-2.41-.46-1.33-1.64-1.25-2.88-1.9-1.76-.93-3.79-2.1-5.45-3.2-1.7-1.13-2.61-3.16-3.28-5.13,.67,.23,1.19,.96,1.73,1.42,.76,.64,1.57,1.21,2.43,1.71Z"/><path class="cls-15" d="M141,152.09c2.91-3.61,5.03-7.93,5.64-12.52,.5-3.72,.02-7.9-1.84-11.21,.11,4.03,.13,7.72-.44,11.86-.58,4.22-1.02,8.29-3.36,11.86Z"/><path class="cls-3" d="M86.4,128.98c-1.08,1.52-1.45,3.46-1.38,5.32s.54,3.69,1.02,5.49c-.3-2.02-.12-4.25,.06-6.29,.14-1.63,.12-2.48,1.29-3.63,1.35-1.32,2.39-2.15,3.52-3.68,.49-.66,1.1-2.91,1.23-3.74,.1-.64,0-1.23,.34-1.83-.92,1.67-1.19,3.03-2.94,4.9-1.08,1.16-2.21,2.14-3.14,3.44Z"/></g></svg>