<?xml version="1.0" encoding="UTF-8"?><svg id="Frida_F" xmlns="http://www.w3.org/2000/svg" xmlns:xlink="http://www.w3.org/1999/xlink" viewBox="0 0 262 280"><defs><style>.cls-1{fill:url(#Namnlös_övertoning_2144);}.cls-2{fill:url(#linear-gradient);}.cls-3{fill:#ecceb7;}.cls-4{fill:#eed5c2;}.cls-5{fill:#fdffff;}.cls-6{fill:#a7876b;}.cls-7{fill:#d98173;}.cls-8{fill:#d0997d;}.cls-9{fill:#d5e9f6;}.cls-10{fill:#d77d6e;}.cls-11{fill:#251a1e;}.cls-12{fill:#222225;}.cls-13{fill:#363237;}.cls-14{fill:#846554;}.cls-15{fill:url(#Namnlös_övertoning_145-6);}.cls-15,.cls-16{opacity:.9;}.cls-17{fill:url(#Namnlös_övertoning_373-3);opacity:.92;}.cls-18{fill:url(#Namnlös_övertoning_145-5);}.cls-18,.cls-19,.cls-20,.cls-21,.cls-22{opacity:.86;}.cls-19{fill:url(#Namnlös_övertoning_145-2);}.cls-20{fill:url(#Namnlös_övertoning_145-4);}.cls-23{fill:url(#Namnlös_övertoning_145-3);opacity:.24;}.cls-24{fill:url(#Namnlös_övertoning_373-5);}.cls-24,.cls-25{opacity:.4;}.cls-25{fill:url(#Namnlös_övertoning_373-4);}.cls-26{fill:url(#Namnlös_övertoning_85-4);}.cls-26,.cls-27{opacity:.31;}.cls-28{fill:url(#Namnlös_övertoning_85-3);opacity:.2;}.cls-29{fill:url(#Namnlös_övertoning_85-2);opacity:.73;}.cls-30{fill:url(#Namnlös_övertoning_373);}.cls-31{fill:url(#Namnlös_övertoning_373-2);}.cls-32{fill:url(#linear-gradient-8);}.cls-33{fill:url(#linear-gradient-9);}.cls-34{fill:url(#linear-gradient-4);}.cls-35{fill:url(#linear-gradient-2);}.cls-36{fill:url(#linear-gradient-6);}.cls-37{fill:url(#linear-gradient-7);}.cls-38{fill:url(#linear-gradient-21);opacity:.43;}.cls-39{fill:url(#linear-gradient-24);opacity:.97;}.cls-21{fill:url(#linear-gradient-19);}.cls-22{fill:url(#linear-gradient-22);}.cls-40{fill:url(#Namnlös_övertoning_73);}.cls-41{fill:url(#Namnlös_övertoning_59);}.cls-42{fill:url(#Namnlös_övertoning_80);}.cls-43{fill:url(#Namnlös_övertoning_33);}.cls-44{fill:url(#linear-gradient-14);}.cls-45{fill:url(#linear-gradient-18);}.cls-46{fill:url(#linear-gradient-20);}.cls-47{fill:url(#linear-gradient-23);}.cls-48{fill:url(#linear-gradient-15);}.cls-49{fill:url(#linear-gradient-16);}.cls-50{fill:url(#linear-gradient-17);}.cls-51{fill:url(#linear-gradient-13);}.cls-52{fill:url(#linear-gradient-12);}.cls-53{fill:url(#linear-gradient-10);}.cls-54{fill:url(#linear-gradient-11);}.cls-55{fill:url(#linear-gradient-25);}.cls-27{fill:url(#Namnlös_övertoning_85);}.cls-56{fill:url(#linear-gradient-5);}.cls-56,.cls-57{opacity:.6;}.cls-57{fill:url(#linear-gradient-3);}.cls-16{fill:url(#Namnlös_övertoning_145);}</style><linearGradient id="linear-gradient" x1="84.01" y1="164.36" x2="107.87" y2="137.05" gradientUnits="userSpaceOnUse"><stop offset="0" stop-color="#bb9d72"/><stop offset=".99" stop-color="#d1b47e"/></linearGradient><linearGradient id="linear-gradient-2" x1="175.88" y1="159.38" x2="192.73" y2="140.1" xlink:href="#linear-gradient"/><linearGradient id="Namnlös_övertoning_373" x1="113.6" y1="171.88" x2="154.71" y2="163.45" gradientUnits="userSpaceOnUse"><stop offset="0" stop-color="#c3997d"/><stop offset="1" stop-color="#e7c5a3"/></linearGradient><linearGradient id="linear-gradient-3" x1="126.37" y1="168.69" x2="169.45" y2="168.69" gradientUnits="userSpaceOnUse"><stop offset="0" stop-color="#b9876f"/><stop offset="1" stop-color="#ddaf8f"/></linearGradient><linearGradient id="linear-gradient-4" x1="173.64" y1="70.18" x2="191.78" y2="67.21" gradientUnits="userSpaceOnUse"><stop offset="0" stop-color="#bb9d72"/><stop offset="1" stop-color="#e0c08f"/></linearGradient><linearGradient id="linear-gradient-5" x1="139.22" y1="156.99" x2="99.69" y2="157.86" xlink:href="#linear-gradient-3"/><linearGradient id="linear-gradient-6" x1="75.64" y1="115.12" x2="132.02" y2="73.95" xlink:href="#linear-gradient"/><linearGradient id="linear-gradient-7" x1="186.27" y1="61.25" x2="169.94" y2="64.42" xlink:href="#linear-gradient"/><linearGradient id="linear-gradient-8" x1="185.56" y1="75.76" x2="174.31" y2="69.76" xlink:href="#linear-gradient"/><linearGradient id="linear-gradient-9" x1="184.21" y1="78.16" x2="177.61" y2="74.64" xlink:href="#linear-gradient"/><linearGradient id="Namnlös_övertoning_80" x1="150.9" y1="47.42" x2="141.14" y2="61.52" gradientUnits="userSpaceOnUse"><stop offset="0" stop-color="#b49364"/><stop offset=".99" stop-color="#d1b47e"/></linearGradient><linearGradient id="linear-gradient-10" x1="87.16" y1="163.18" x2="80.39" y2="159.57" xlink:href="#linear-gradient"/><linearGradient id="linear-gradient-11" x1="91.55" y1="175.02" x2="92.61" y2="174.87" xlink:href="#linear-gradient"/><linearGradient id="linear-gradient-12" x1="95.16" y1="173.8" x2="95.48" y2="173.76" xlink:href="#linear-gradient"/><linearGradient id="linear-gradient-13" x1="99.38" y1="173.19" x2="99.63" y2="173.15" xlink:href="#linear-gradient"/><linearGradient id="linear-gradient-14" x1="109.4" y1="174.29" x2="110.01" y2="174.21" xlink:href="#linear-gradient"/><linearGradient id="linear-gradient-15" x1="97.53" y1="171.04" x2="98.34" y2="170.93" xlink:href="#linear-gradient"/><linearGradient id="linear-gradient-16" x1="89.72" y1="175.32" x2="90.01" y2="175.28" xlink:href="#linear-gradient"/><linearGradient id="linear-gradient-17" x1="93.9" y1="173.81" x2="94.57" y2="173.72" xlink:href="#linear-gradient"/><linearGradient id="linear-gradient-18" x1="109.38" y1="148.66" x2="87.36" y2="161.86" xlink:href="#linear-gradient"/><linearGradient id="Namnlös_övertoning_373-2" x1="107.92" y1="130.87" x2="101.6" y2="108.22" xlink:href="#Namnlös_övertoning_373"/><linearGradient id="Namnlös_övertoning_373-3" x1="104.48" y1="109.98" x2="154.84" y2="109.98" xlink:href="#Namnlös_övertoning_373"/><linearGradient id="Namnlös_övertoning_59" x1="112.16" y1="89.18" x2="138.89" y2="89.18" gradientUnits="userSpaceOnUse"><stop offset="0" stop-color="#b8986b"/><stop offset=".46" stop-color="#b89467"/><stop offset=".91" stop-color="#ba885c"/><stop offset="1" stop-color="#bb8559"/></linearGradient><linearGradient id="Namnlös_övertoning_145" x1="122.33" y1="140.42" x2="124.88" y2="140.42" gradientUnits="userSpaceOnUse"><stop offset="0" stop-color="#c1876e"/><stop offset="1" stop-color="#eabc9f"/></linearGradient><linearGradient id="Namnlös_övertoning_85" x1="123.04" y1="140.73" x2="128.39" y2="140.73" gradientUnits="userSpaceOnUse"><stop offset="0" stop-color="#aa8260"/><stop offset="1" stop-color="#d0997d"/></linearGradient><linearGradient id="linear-gradient-19" x1="129.59" y1="97.49" x2="122.52" y2="108.18" gradientUnits="userSpaceOnUse"><stop offset="0" stop-color="#b77463"/><stop offset="1" stop-color="#eabc9f"/></linearGradient><linearGradient id="Namnlös_övertoning_145-2" x1="166.14" y1="95.54" x2="166.4" y2="105.32" xlink:href="#Namnlös_övertoning_145"/><linearGradient id="Namnlös_övertoning_373-4" x1="169.23" y1="137.62" x2="173.84" y2="139.72" xlink:href="#Namnlös_övertoning_373"/><linearGradient id="Namnlös_övertoning_145-3" x1="150.35" y1="133.53" x2="146.56" y2="134.84" xlink:href="#Namnlös_övertoning_145"/><linearGradient id="Namnlös_övertoning_145-4" x1="127.24" y1="140.88" x2="129.27" y2="140.88" xlink:href="#Namnlös_övertoning_145"/><linearGradient id="Namnlös_övertoning_145-5" x1="165.05" y1="137" x2="166.79" y2="137" xlink:href="#Namnlös_övertoning_145"/><linearGradient id="linear-gradient-20" x1="143.3" y1="124.49" x2="143.73" y2="128.46" gradientUnits="userSpaceOnUse"><stop offset="0" stop-color="#c3997d"/><stop offset=".02" stop-color="#40250c"/><stop offset="1" stop-color="#d9bdb4"/></linearGradient><linearGradient id="Namnlös_övertoning_2144" x1="157.48" y1="123.92" x2="157.76" y2="126.57" gradientUnits="userSpaceOnUse"><stop offset="0" stop-color="#c3997d"/><stop offset=".02" stop-color="#40250c"/><stop offset="1" stop-color="#d9bdb4"/></linearGradient><linearGradient id="linear-gradient-21" x1="165.04" y1="106.08" x2="178.57" y2="93.26" gradientUnits="userSpaceOnUse"><stop offset="0" stop-color="#c1876e"/><stop offset=".75" stop-color="#eabc9f"/></linearGradient><linearGradient id="linear-gradient-22" x1="135.15" y1="105.57" x2="156" y2="105.57" xlink:href="#linear-gradient-21"/><linearGradient id="Namnlös_övertoning_145-6" x1="132.01" y1="124.38" x2="128.28" y2="122.7" xlink:href="#Namnlös_övertoning_145"/><linearGradient id="Namnlös_övertoning_373-5" x1="164.38" y1="121.83" x2="160.16" y2="122.65" xlink:href="#Namnlös_övertoning_373"/><linearGradient id="Namnlös_övertoning_73" x1="144.9" y1="124.61" x2="169.2" y2="116.68" gradientUnits="userSpaceOnUse"><stop offset="0" stop-color="#d0997d"/><stop offset="1" stop-color="#f5c5a3"/></linearGradient><linearGradient id="linear-gradient-23" x1="182.19" y1="78.88" x2="177.85" y2="76.57" xlink:href="#linear-gradient"/><linearGradient id="Namnlös_övertoning_33" x1="161.92" y1="87.76" x2="180.62" y2="87.76" gradientUnits="userSpaceOnUse"><stop offset="0" stop-color="#c3936c"/><stop offset=".37" stop-color="#be996f"/><stop offset="1" stop-color="#bb9d72"/></linearGradient><linearGradient id="linear-gradient-24" x1="106.27" y1="123" x2="126.7" y2="141.78" xlink:href="#linear-gradient-3"/><linearGradient id="Namnlös_övertoning_85-2" x1="107.54" y1="73.12" x2="143.42" y2="95.03" xlink:href="#Namnlös_övertoning_85"/><linearGradient id="linear-gradient-25" x1="107.02" y1="79.43" x2="129.45" y2="76.38" gradientUnits="userSpaceOnUse"><stop offset="0" stop-color="#d1b47e"/><stop offset="1" stop-color="#edd5a1"/></linearGradient><linearGradient id="Namnlös_övertoning_85-3" x1="154.18" y1="67.37" x2="180.36" y2="67.37" xlink:href="#Namnlös_övertoning_85"/><linearGradient id="Namnlös_övertoning_85-4" x1="105.84" y1="120.52" x2="128.08" y2="134.11" xlink:href="#Namnlös_övertoning_85"/></defs><g id="BG-3"><circle class="cls-9" cx="131.31" cy="131.48" r="129"/></g><path class="cls-2" d="M90.51,128.89s-1.2,12.18-7.01,17.89c0,0-15.47,13.56-6.69,35.76,0,0,17.34,1.7,32.05-19.07,0,0,2.2-19.56,1.32-26.68,0,0-15.18-7.34-19.66-7.89Z"/><path class="cls-35" d="M180.62,127.9s1.61,21.91,20.87,28.54c0,0-11.85,1.65-19.76-10.59,0,0,1.14,6.73,6.59,11.06-4.61-1.2-9.78-10.02-10.18-14.87-1.17,7.45,4.35,21.94,3.16,28.45,0,0-12.29-2.63-12.73-19.98,0,0-1.24,13.17,2.02,17.67,0,0-11.58-.77-11.19-10.86,0,0,17.71-27.22,21.23-29.41Z"/><path d="M84.49,178.83c-5.63,1.98-11.26,4.58-16.36,7.64-6.34,3.81-14.39,4.68-20.41,8.91-2.99,2.09-5.11,5.19-6.93,8.34-4.34,7.49-7.4,15.71-9.07,24.2-.65,3.3-2.16,7.67-.12,10.38,2.29,3.05,8.67,5.53,11.97,7.48,15.73,9.32,32.43,17.14,50.03,22.22,37.29,10.77,82.24,8.39,115.37-13.25,6.47-4.23,17.5-11.82,21.94-18.3,4.12-6,7.32-8.91,6.7-14.19-.85-7.29-1.02-16.61-5.37-22.85-4-5.72-10.42-9.22-16.76-12.13-5.72-2.63-12.9-4.28-18.01-7.93-3.32-2.37-6.2-4.79-9.84-6.82-7.36-4.1-16.17-9.72-24.76-10.49,0,0-5.85,4.2-6.98,31.27,0,0-2.68,14.49-44.38-5.71,0,0-23.27-8.78-27-8.78Z"/><path class="cls-30" d="M163.16,159.16s-2.21,7.37-.3,11.47c0,0,1.76,.15,2.78,2.34,0,0,2.34,10.83-5.71,19.61,0,0-8.78,10.24-27.27,4.11,0,0-23.07-9.09-28.34-16.99,0,0-4.53-6.63-4.24-13.61,0,0,2.63-1.32,4.68-3.66,0,0,4.95-7.32,3.34-22.97,0,0,2.51,8.78,15.83,18,0,0,13.46,12.19,24.73,11.27,0,0,5.6-.7,8.34-2.49,0,0,4.1-1.61,6.16-7.08Z"/><path class="cls-57" d="M143.15,197.93s-33.56-10.32-38.83-18.22c0,0-4.53-6.63-4.24-13.61,0,0,2.63-1.32,4.68-3.66,0,0,4.95-7.32,3.34-22.97,0,0,12.88,18.2,26.19,27.42,0,0-2.4,10.77,8.86,31.04Z"/><path class="cls-12" d="M190.6,182.81c1.18-.56,2.39-1.12,3.32-2.03s1.52-2.29,1.15-3.54c-.65-2.19-3.48-2.61-5.68-3.25-3.89-1.13-6.96-4.03-10.16-6.51s-7.08-4.7-11.08-4.08c-.2,6-.6,11.98-1.18,17.95-.48,4.92-2.7,11.95-1.52,16.52,3.64-.05,8.9-5.71,12.11-7.79,4.18-2.7,8.54-5.13,13.04-7.27Z"/><path class="cls-13" d="M145.96,198.34s9.44-6.78,14.93-16.22c0,0,2.63-3.73,1.54-12.74,0,0-.26-1.74,.44-7.34,0,0-.72-.59,.6-2.13,0,0,2.73-.1,3.9,2.54,0,0,2.53,6.28,1.21,19.23,0,0,.08,15.88-8.05,26.86,0,0-11.05-9.58-14.56-10.2Z"/><path d="M145.96,199.42s.22-1.72,2.2-2.38c0,0,14.05,3.73,14.49,10.1l-.88,1.98s-11.85-9.3-15.81-9.7Z"/><path class="cls-12" d="M103.37,162.58s-5.71-1.1-11.63,3.07c-1.38,2.38-2.91,4.9-4.77,6.94-3.12,3.41-8.05,4.96-12.18,7.04-3.47,1.75-7.55,4.72-6.57,8.49,.3,1.16,11.96,3.28,13.52,3.7,4.77,1.29,9.55,2.57,14.34,3.83,9.83,2.59,19.68,5.12,29.54,7.57,6.98,1.74,14.81,5.28,21.82,5.32,4.36,.03,8.73,0,13.1,0,0,0,0-6.89-19.17-12.82,0,0-23.71-7.24-34.02-19.1,0,0-4.2-3.51-7.26-11.2,0,0,4.4,1.1,3.31-2.85Z"/><path class="cls-34" d="M169.72,42.49c.16-.63,2.92-1.11,9.45-.25,0,0,17.05,5.94,16.59,19.9,0,0-.67,14.23-5.5,20.99,0,0-7.12,12.62-10.51,14.74,0,0-1.95-38.71-14.22-45.15,0,0-3.2-.28-5-1.14,0,0,8.27-5.4,9.2-9.09Z"/><path class="cls-56" d="M107.54,140.73s3.22,17.03,30.88,31.53c0,0,11.47,5.22,19.77-3.56,0,0,2.76-3.92,4.97-9.53,0,0-5.56,9.78-12.8,10.22,0,0-38.36-22.9-42.82-28.65Z"/><path class="cls-36" d="M163.16,51.87s11.46-7.39,6.63-15.45c0,0-5.33-7.28-10.48-7.28,0,0-5.77-13.64-30.04-1.42,0,0-35.35,15.79-38.19,42.56,0,0-8.24,25.07-7.1,37,0,0-2.27,8.24,3.13,16.48,0,0,1.14,2.56,3.41,5.97,0,0,11.54,10.04,17.7,11.84l54.95-89.7Z"/><path class="cls-4" d="M174.57,59.23s4.24,5.34,5.31,19.45c0,0,.43,6.13,.19,9.14,0,0,.5,2.43,.5,4.92,0,0,.07,1.83,0,3.22,0,0-.04,1.37,.59,3.95,0,0,.37,1.98,.73,2.63,0,0,1.24,3.8,1.02,6.88,0,0,.32,7.49-1.14,17.58,0,0-1.49,7.59-4.02,11.02,0,0-7.27,11.94-11.81,17.79,0,0-1.24,1.61-1.9,2.78,0,0-.69,.99-1.61,2.78-.66,1.2-1.61,3.29-4.28,5.36,0,0-3.55,3.57-11.67,3.49,0,0-7.61,.08-13.17-4.02,0,0-8.34-6.29-13.54-10.39,0,0-5.05-3.95-9.07-10.9,0,0-5.12-6.95-6-17.49,0,0-.66-15.51,.37-26.34,0,0,4.68-26.34,17.41-41.12,0,0,7.54-8.71,20.71-10.39,0,0,14.05-1.61,23.63,2.93,0,0,4.68,2.05,7.76,6.73Z"/><path class="cls-37" d="M166.81,52.5s5.05-8.27,17.12-2.56c0,0,14.71,8.34,6.15,26.12,0,0,4.39-11.41-1.32-16.9,0,0-4.39-6.59-10.1-6.15,0,0-1.63,.32-2.84,1.73-1.42,1.64-2.87,1.58-4.98,.15-1.65-1.11-3.39-2.21-4.03-2.39Z"/><path class="cls-32" d="M175.81,56.96s2.48-.07,4.45-.43c0,0,4.76-2.23,8.5,3.95,0,0,4.5,8.34-1.76,20.29,0,0-3.54,7.96-5.93,11.32,0,0,12.38-19.36,5.27-27.22,0,0-1.98-3.11-4.61-2.87,0,0-4.03,1-4.54,2.7,0,0-2.13-6.08-3.52-6.69,0,0,0-.95,2.13-1.05Z"/><path class="cls-33" d="M182.51,64.87s2.96,.2,4.06,2.63c0,0,1.84,1.98-.22,10.32,0,0-4.18,10.24-5.73,11.31,0,0,8.36-14.96,5.29-20.31,0,0-1.67-1.92-3.51-1.76,0,0-2.61,.44-4,1.77,0,0-.19-1.33-.39-2.21-.09-.4,.18-.79,.58-.88,.61-.15,3-1.31,3.92-.87Z"/><path class="cls-42" d="M164.68,51.46s8.43-7.99,.37-12.97c0,0-6.45-3.22-15.89,.88,0,0-8.8,3.07-20.21,15.31,0,0,14.28-9.07,35.72-3.22Z"/><path class="cls-53" d="M89.32,142.04s-19.28,28.06-9.33,39.62c0,0-13.06-12.6,.73-29.01,0,0,5.47-6.65,8.6-10.61Z"/><path class="cls-54" d="M93.37,183.57c-.97-2.77-.81-5.8-.45-8.72s.89-5.84,.65-8.77c0-.08-.02-.17-.08-.23-.07-.07-.19-.07-.29-.06-5.63,.38-2.61,10.11-1.79,13.58,.38,1.62,.94,3.33,2.25,4.36"/><path class="cls-52" d="M94.76,164.26c-.45,4.89-.17,9.85,.83,14.67,.31,1.51,.74,3.08,1.83,4.17"/><path class="cls-51" d="M98.62,162.14l.5,8.63c.26,4.5,.54,9.08,2.09,13.32"/><path class="cls-44" d="M110.5,184.68c-1.4-6.79-2.39-13.67-2.97-20.58,.6-.29,.79-.11,1.44-.27,.24-.06,.52-.11,.72,.04,.21,.16,.24,.46,.25,.73,.18,7-.73,13.21,.56,20.09Z"/><path class="cls-48" d="M97.97,156.1c-4.41,9.98-.04,19.85,2.39,29.43"/><path class="cls-49" d="M89.35,165.94c-.72,6.24,.04,12.65,2.2,18.55"/><path class="cls-50" d="M94.95,179.84c-1.79-4.29-2.56-8.99-2.25-13.62,.38,.47,.92,.73,1.53,.65,.3-.04,.73-.1,.82,.19,.04,.12-.02,.25-.06,.37-.93,2.37,0,5.01,.08,7.56,.06,2.16-.5,4.32-.25,6.46-1.18-3.98-1.76-8.13-1.7-12.28"/><path class="cls-45" d="M103.96,122.68c1.77-2.06,3.26,3.39,3.39,13.24,.08,6.13,3.22,12.6,4.14,16.71,0,0,7.61,17.86,1.76,33.22,0,0-1.54-15.35-6.22-20.32,0,0,.91,12.07,1.2,19.98,0,0-3.17,.35-6.39-6.97,0,0-5.08-10.54-2.63-25.46,0,0-4.7,19.51-1.78,30.02,0,0-5.1-6.34-5.17-15.12,0,0-2.57,2.26-3,14.08,0,0-11.71-1.25-11.12-14.93,0,0,1.46-11.18,9.66-23.15,0,0,10.83-22.51,10.83-28.36,0,0-1.61,6.53,5.34,7.07Z"/><path class="cls-31" d="M105.2,120.58s-.73,2.93-3.22,2.78c0,0-2.93-.29-3.66-3.37,0,0-2.05-6-1.9-11.56,0,0,.33-9.24,9.02-10.11,0,0-1.41,16.26-.24,22.26Z"/><path class="cls-17" d="M150.32,169.97c-.51,1.04-2.43,.27-3.85,.25,0,0-7.61,.08-13.17-4.02,0,0-8.34-6.29-13.54-10.39,0,0-5.05-3.95-9.07-10.9,0,0-5.12-6.95-6-17.49,0,0-.66-15.51,.37-26.34,0,0,4.68-26.34,17.41-41.12,0,0,7.54-8.71,20.71-10.39,0,0,4.01-.35,10.11,.16,0,0,2.91,16.05,.75,37.4,0,0-1.43,7.41-3,12.04,0,0-.56,5.65,2.16,16.26,0,0,2.68,10.79-2.74,14.58,0,0-1.61,11.19,.58,23.62,1.19,6.76,1.13,12.58-.72,16.34Z"/><path class="cls-41" d="M137.83,88.83s-4.1-2.36-10.83-2.34c0,0-5.56-.44-12,2.49,0,0-1.61,.64-2.69,1.8,0,0-.68,.98,.79,1.13,0,0,.6,.04,2.93-1.05,3.31-1.55,7.61-1.9,10.83-1,0,0,9.07,2.78,11.27,1.46,0,0,1.9-.88-.29-2.49Z"/><path class="cls-8" d="M159.2,93.07s-3,2.62-4.39,4.54c0,0-1.67,1.9-1.61,4.68,0,0,0,3.8,2.11,13.15,0,0,.47,.82,.96,1.48,0,0,1.7,2.09,.55,4.06,0,0,1.89-.52,.32-3.84,0,0-1.38-1.68-1.54-3.43,0,0-1.76-9.71-1.48-12.07,0,0-.64-3.15,5.08-8.57Z"/><path class="cls-16" d="M123.56,134.99s-.3,.49-.52,2.47c0,0-.33,1.44,.93,4.09,0,0,.86,2.32,.91,4.3,0,0-.18-1.03-1.39-4,0,0-1.28-1.76-1.16-3.95,0,0,.13-1.76,1.23-2.89Z"/><path class="cls-27" d="M122.39,134.43c-.17,.13-2.13,2.09-1.22,5.98,0,0,.43,3.35,2.13,5.54,0,0,2.13,2.91,2.92,.77,0,0,.37-1.32-.73-2.63,0,0-2.19-2.91-2.25-6.86,0,0,.24-1.65,.79-2.69,0,0-.18-1.26-1.64-.11Z"/><path class="cls-21" d="M116.21,98.33s2.41-3.57,9.44-4.12c0,0,5.71-.22,8.78,1.21,0,0,2.85,1.32,4.83,3.73,0,0,.66,.77,.99,2.3,0,0-.24-1.76-2.59-4.72,0,0-2.57-2.85-7.38-3.41,0,0-7.28-1.09-12.1,2.26,0,0-2.41,1.72-1.97,2.75Z"/><path class="cls-19" d="M155.72,100.68s.88-2.63,4.94-5.1c0,0,1.43-1.16,4.61-1.59,0,0,2.85-.56,5.27-.44,0,0,3.07,0,4.83,1.76,0,0,1.65,1.32,1.32,1.76,0,0-1.06-2.47-5.27-2.74,0,0-4.94-.33-7.35,.55,0,0-5.71,1.65-8.34,5.82Z"/><path class="cls-11" d="M124.44,96.95s-1.21,2.2,.66,4.17c0,0,.99,1.03,2.96,1.34,0,0,3.51-.22,3.73-2.76,0,0,.51-2.06-.76-3.45,0,0-5.65-1.83-6.6,.69Z"/><path class="cls-11" d="M161.61,97.42s-1.01,2.68,.74,4.42c0,0,1.96,.18,3.61-.04,0,0,2.76,.4,3.2-.91,0,0,1.43-1.67-.26-4.59,0,0-3.71-.92-7.29,1.13Z"/><path class="cls-3" d="M169.01,130.53s.77,.77,1.21,1.87c0,0,1.1,1.87-.49,4.39,0,0-1.3,1.9-2.36,5.71,0,0-.11-2.47,1.82-6.01,.36-.91,.69-1.35,.65-3.04,0,0,.05-1.81-.82-2.91Z"/><path class="cls-25" d="M168.84,130.15s.55-.44,1.91,1.06c0,0,1.31,1.45,1.54,3.38,0,0,.33,2.03-1.24,3.99,0,0-.9,1.01-1.55,2.21,0,0-.53,1.04-.75,2.4,0,0,.15,1.29-1.12,1.24,0,0-.6-1.01-.28-3.2,.38-1.33,.4-2.09,1.04-3.35,0,0,2.16-3.02,1.23-5.32,0,0-.61-1.35-.79-2.42Z"/><path class="cls-11" d="M130.07,140.2s-1.75-.74,2.61,.2c0,0,8.11,1.43,15.47,.88,0,0,3.07,.11,10.43-2.63,0,0,2.58-.65,4.45-1.12,0,0,.49-.23,1.89-.62,0,0-.34,.46-.67,1.01s-.51,.66-.51,.66c0,0-1.87,1.58-4.28,2.8,0,0-5.6,3.53-8.89,4.18,0,0-9,.55-13.83-1.98,0,0-4.46-1.99-5.56-2.53,0,0-.57,.2-1.1-.86Z"/><path class="cls-5" d="M135.8,140.58s.06,1.26,.28,1.65c0,0,.16,.6,1.04,.71,0,0,.77,.05,1.26,0,0,0,.58,.03,.71-.27,0,0,.16,.88,.99,1.21,0,0,1.26,.27,2.2,.38,0,0,.58,.05,.71-.47,0,0,.19,.71,.93,.96,0,0,.77,.25,1.87,.33,0,0,1.65,.11,2.03,.11,0,0,.33,.05,.6-.44l.15-.66,.18,.66s.33,.52,.82,.44c0,0,2.3-.55,2.91-1.15,0,0,.44-.03,.77-1.34,0,0,.33,.63,.71,.52,0,0,1.54-.33,2.25-.93,0,0,.38-.44,.44-1.1,0,0,.25,.44,.71,.32,0,0,.24-.29,.49-.53,0,0,.12-.1,.33-.54v-1.54s-5.54,1.54-9.27,2.09c0,0-10.13,.27-13.12-.38Z"/><path class="cls-7" d="M129.64,140.12c-.12-.18,2.27,.73,3.59,1.46,0,0,1.26,.59,2.57,.91,0,0,4.97,1.06,6.94,1.79,0,0,1.19,.46,2.71,.51,0,0,4.44,.43,7.1-.73,0,0,1.61-1.24,3.29-2.05,0,0,1.68-.66,2.27-.73,0,0,.8-1.24,4.02-2.71-.11,0,1.58-.67,2.79-1.67,0,0-.23,1.28-1.98,2.82,0,0-2.63,3.32-3.44,4.71,0,0-.93,2.05-2.93,3.95,0,0-1.32,1.76-7.02,2.49,0,0-4.39,.73-8.56-1.02,0,0-2.49-.8-4.32-2.41,0,0-3.07-3.22-4.39-4.39,0,0-1.68-1.46-2.63-2.93Z"/><path class="cls-10" d="M136.01,140.12c.65-.05,3.62-.69,5.93-1.02,0,0,2.52-.44,4.61,0,0,0,2.17,.71,3.44,.63,0,0,2.11-.12,3.22-1,0,0,2.27-1.24,4.25-.8,1.32,.03,2.93,.06,5.05-.45,0,0,.73-.46,2.42-.56,0,0-.64,.07-1.4,.39-1.65,.84-3.26,1.06-5.05,1.68,0,0-2.85,1.17-4.46,1.72,0,0-2.93,.99-5.34,.99,0,0-2.52,.07-5.23-.35,.24-.01-3.73-.43-5.45-.51,0,0-2.6,.02-3.99-.2,0,0-1.65-.22-2.52-.55,0,0-1.43-.33-2.2-.11,0,0,2.6-.22,3.66,.29,0,0,2.42-.1,3.07-.15Z"/><path class="cls-14" d="M135.07,102.01c.68,.18-1.19,.37-1.19,.37-.95,.17-1.42,.06-1.42,.06-2.52,.09-2.39,.31-2.39,.31-4.34,.48-8.38-1.08-8.38-1.08-4.17-1.32-3.48-2.6-3.48-2.6,0,0,1.92-.14,2.8,.3,0,0,3.21,2.49,8.25,2.47,0,0,3.4-.46,5.8,.17Z"/><path class="cls-11" d="M137.73,100.9c-1.35-2.85-5.73-4.82-5.73-4.82-5.07-2.06-9.24-.2-9.24-.2-4.24,1.46-4.72,3.18-4.72,3.18,2.23,.22,4.57-1.61,4.57-1.61,6.23-1.91,8.96-1.01,8.96-1.01,3.95,1.7,5.74,4.12,5.74,4.12,.59,.99,.45,1.35,.45,1.35,0,0,.37-.62-.04-1.02Z"/><path class="cls-11" d="M176.35,99.14c-1.42-.34-4.42-1.39-4.42-1.39-2.49-1.67-6.55-1.43-6.55-1.43-3.95,.55-7.24,3.49-7.24,3.49-1.69,2.03-1.36,2.4-1.36,2.4,0,0-1.06,.37,.33-1.9,0,0,1.43-2.09,5.12-3.7,0,0,2.82-1.35,6.26-1.02,0,0,6.37,.02,7.43,2.27,0,0,.49,.55,.43,1.28Z"/><path class="cls-6" d="M176.35,99.14s.34,.22-1.2,.88c0,0-.42,.1-1.62,.83,0,0-3.11,2.74-10.24,2.19,0,0-4.97-1.12-3.69-1.12,0,0,1.72-.11,3.84,.15,0,0,5.05-.27,6.88-1.54,0,0,3.22-2.02,4.61-1.73,0,0,1.16,.26,1.42,.34Z"/><path class="cls-11" d="M176.35,99.16c-.2,.06-.38,.11-.53,.14-.55,.08-1.1,.15-1.63,.27-1.05,.25-2,.82-2.92,1.38-.67,.41-1.36,.63-2.14,.81-.96,.22-1.8,.53-2.8,.62-1.1,.1-2.21,.09-3.3-.03,1.32-.22,2.63-.45,3.95-.69,1.12-.21,2.39-.45,3.35-1.12,2.16-.99,4.61-1.84,7.02-1.56-.26-.03-.64,.09-.99,.19Z"/><path class="cls-23" d="M147.86,128.81s-2.05,3.52-2.34,6.15c0,0-.49,1.75,1.58,2.92,0,0,.9,.76,3.1,.97,0,0,1.47,0,3.37-.97,0,0,1.46-1.31,.88-3.51,0,0-.29-3.66-.73-4.83,0,0-3.8,1.16-5.85-.74Z"/><path class="cls-20" d="M129.27,139.76s-2.41-.42-1.98,2.12c0,0,.88,.59,1.17-.51,0,0-.22-.85,.8-1.61Z"/><path class="cls-18" d="M165.05,136.51s2.13-1.21,1.68,.67c0,0-.19,.84-1.13,.67,0,0,.68-.4-.54-1.34Z"/><path class="cls-46" d="M146.2,126.46s-.07-1.25-1.6-1.56c0,0-3.05-.53-3.78,.5,0,0-.4,.64,.75,1.02,.89,.3,2.75,.51,2.75,.51,0,0,1.75,.15,1.88-.47Z"/><path class="cls-1" d="M155.88,125.37s.36-.91,1.39-1.33c0,0,.7-.37,1.56-.01,0,0,.8,.31,.34,.76,0,0-.26,.34-.86,.52,0,0-2.6,.78-2.43,.07Z"/><path class="cls-38" d="M157.59,104.41s12.92,5.49,18.64-.22c0,0-8.54,7.68-18.64,.22Z"/><path class="cls-22" d="M138.89,103.75s-9.47,5.49-20.85,1.1c0,0,15.1,6.37,20.85-1.1Z"/><path class="cls-15" d="M136.81,120.05s-2.59,3.69-5.99,6.18c0,0-2.35,1.09-3.24,2.65,0,0,2.48-1.52,5.51-2.84,1.46-.59,3.24-2.66,3.73-5.99Z"/><path class="cls-24" d="M160.01,117.14s3.29,.88,4.39,3.84c0,0,0,.55,.66,2.09,0,0,.44,2.92,1.54,3.88,0,0-2.96-1.3-4.39-4.1,0,0-2.63-5.05-2.2-5.71Z"/><path class="cls-40" d="M136.85,120.38s-1.89,4.36-.61,5.78c0,0,1.28,1.7,4.26,1.28,0,0,1.06-.14,1.06-1.02,0,0-1.49-.54-.35-1.4,0,0,1.89-.64,3.77-.01,0,0,1.04,.63,1.09,1.19,0,0,.84,2.25,4.39,2.96,0,0,2.35,.28,4.12-1.26,0,0,.77-.55,1.37-2.74,0,0,.9-1.7,2.89-1.13,0,0,1.15,.38-.11,1.09,0,0,.42,.55,1.56-.02,0,0,2.06-1.78,.49-5.05,0,0,.21,1.25-.99,2.08,.03,.03-1.17,1.16-2.8-.6,0,0-.33,1.59-1.15,2.96,0,0-.77,1.98-2.64,1.98,0,0-3.64,.49-4.78-.93,0,0-.93-.93-1.17-2.74,0,0,.07-.43-3.34-.67,0,0-5.86-.13-6,1.86,0,0-.5,.03-.82-.63,0,0-.53-1.14-.25-2.99Z"/><path class="cls-47" d="M178.67,70.02s9.5-2.49,1.46,15.95c0,0-.25-12.31-1.46-15.95Z"/><path class="cls-43" d="M161.92,89.25s.73-2.01,5.85-3.47c0,0,2.99-1.05,7.71-.58,0,0,4.35,.55,4.79,2.25,0,0,.75,1.52,.04,2.55,0,0-.19-.88-1.51-1.47,0,0-1.61-1.02-4.1-.44,0,0-1.57,.23-6.15,1.61,0,0-6.5,1.94-6.65-.45Z"/><path class="cls-39" d="M106.57,103.11s-4.29,11.91,3.2,21.89c0,0,3.72,8.81,2.89,14.31,0,0-.5,4.66,1.85,11.15-4.13-2.18-8.12-11.5-6.98-9.73,0,0-3.53-6.81-3.51-23.58,0,0-.44-5.05,2.54-14.03Z"/><path class="cls-29" d="M143.18,49.57s16.31-.69,0,0c-16.31,.69-28.18,15.83-28.18,15.83-7.51,14.83-11.45,43.92-11.45,43.92-.14,12.16,12.29,20.18,12.29,20.18-7.18-6.14-3.68-28.06-3.68-28.06,0-4.34,3.87-10.59,3.87-10.59,9.5-13.43,5.11-17.56,12.93-25.82,5.75-9.39,24.33-15.3,24.33-15.3,0,0-1.27-.44-10.11-.16Z"/><path class="cls-55" d="M121.61,54.3c-3.59,4.36-.95,7.59-2.51,13.57,.26,2.05-1.57,5.2-2.25,7.04-2.51,6.82-7.93,11.91-10.32,18.94-.64,1.89-.82,3.79-1.28,5.68-.51,2.07-1.48,3.99-1.89,6.11s-.6,4.25-.56,6.39c.04,1.77-.05,4.49,.76,6.1-1.2-2.39-2.04-4.96-2.49-7.59-.61,.8-.55,1.91-.44,2.91,.24,2.31,.59,4.62,1.04,6.9-1.21-3.66-2.43-7.33-3.64-10.99-.54,4.52-.53,9.1-.99,13.64-.93-5.32-1.55-10.69-1.86-16.09-1.62,5.72-2.59,11.62-2.9,17.56-2.5-8.24-2.28-17.27,.63-25.37-2.74,7.1-4.92,14.42-6.53,21.86,.64-2.98-.22-6.86,.05-9.98s.84-6.52,1.62-9.7c1.44-5.86,4.29-11.22,5.58-17.06,2.41-10.94,9.7-22.63,17.56-30.59,6.38-6.46,14.36-11.09,22.49-15.13,.26-.13,.52-.26,.78-.39,7.21-3.6,15.76-7.95,23.81-8.65,4.86-.42,8.73,3.15,11.53,6.96,0,0-5.91-7.55-24.64,.97-12.08,5.49-21.25,18.4-28.86,28.67-11.43,15.43-17.06,35.06-15.54,54.2-.83-4.25-1.67-8.5-2.5-12.74"/><path class="cls-28" d="M175.58,67.05s1.92,1.5,4.51,17.83c.75,2.09-.31-6.56-.31-6.56,0,0,.84-6.53-3.55-16.32,0,0-2.95-6.82-11.55-10.54-5.99-2.59-10.5-1.82-10.5-1.82,0,0,15.39,6,21.4,17.41Z"/><path class="cls-26" d="M108.24,119.37s8.45,9.01,21.96,4c0,0,.37,3.06-8.59,7.55,0,0-5.49,.96-5.77,6.96,0,0-2.25,1.7-1.97-4.04,0,0,.24-4.31-1.71-7.28,0,0-4.2-2.68-3.92-7.19Z"/><path class="cls-11" d="M122.15,100.81c.86,.43,1.71,.9,2.62,1.18,1.57,.49,3.26,.39,4.91,.29-2.63,.07-5.17-.89-7.59-1.94-1.81-.78-4.12-2-6.06-1.04,.97-.48,2.71,.44,3.61,.71,.84,.25,1.68,.5,2.51,.8Z"/></svg>