<?xml version="1.0" encoding="UTF-8"?><svg xmlns="http://www.w3.org/2000/svg" xmlns:xlink="http://www.w3.org/1999/xlink" viewBox="0 0 262 280"><defs><style>.cls-1,.cls-2{fill:none;}.cls-1,.cls-3,.cls-4{opacity:.5;}.cls-5{fill:url(#Namnlös_övertoning_1176);}.cls-6{fill:url(#Namnlös_övertoning_2249);}.cls-7{fill:url(#linear-gradient);}.cls-8{fill:url(#Namnlös_övertoning_1116-3);}.cls-8,.cls-9,.cls-10,.cls-11{mix-blend-mode:darken;}.cls-9{fill:url(#Namnlös_övertoning_1116-2);}.cls-12{fill:#f39f9b;}.cls-13,.cls-14,.cls-15{fill:#693f47;}.cls-16{fill:#ecd5c2;}.cls-17{fill:#eaeaea;}.cls-18{fill:#eed5c2;}.cls-19{fill:#fff;}.cls-20{fill:#989d9c;}.cls-21{fill:#321316;}.cls-22{fill:#341c26;}.cls-23{fill:#c5a273;}.cls-24,.cls-4{fill:#d3b28b;}.cls-25,.cls-26{fill:#d9ae85;}.cls-27,.cls-3,.cls-28{fill:#c98969;}.cls-29{fill:#251b1b;}.cls-30{fill:#202b3f;}.cls-31{fill:#0f1a2a;}.cls-32{fill:#705540;}.cls-33{fill:#3b2124;}.cls-34{fill:#4d3b1f;}.cls-10{fill:url(#Namnlös_övertoning_1116);}.cls-11{fill:url(#Namnlös_övertoning_1194);opacity:.8;}.cls-2{stroke:#4d3b1f;stroke-linecap:round;stroke-miterlimit:10;stroke-width:.5px;}.cls-35{fill:url(#Namnlös_övertoning_490);}.cls-36{fill:url(#Namnlös_övertoning_489);}.cls-37{fill:url(#Namnlös_övertoning_225);}.cls-38{fill:url(#Namnlös_övertoning_282);}.cls-39{fill:url(#Namnlös_övertoning_296);}.cls-40{fill:url(#Namnlös_övertoning_281);}.cls-41{fill:url(#Namnlös_övertoning_1176-4);}.cls-42{fill:url(#Namnlös_övertoning_1176-3);}.cls-43{fill:url(#Namnlös_övertoning_1176-2);}.cls-44{fill:url(#Namnlös_övertoning_490-2);}.cls-45{fill:url(#Namnlös_övertoning_489-2);}.cls-46{fill:url(#Namnlös_övertoning_281-3);}.cls-47{fill:url(#Namnlös_övertoning_281-2);}.cls-48{fill:url(#Namnlös_övertoning_296-5);}.cls-49{fill:url(#Namnlös_övertoning_296-6);}.cls-50{fill:url(#Namnlös_övertoning_296-7);}.cls-51{fill:url(#Namnlös_övertoning_296-2);}.cls-52{fill:url(#Namnlös_övertoning_296-4);}.cls-53{fill:url(#Namnlös_övertoning_296-3);}.cls-54{fill:url(#linear-gradient-2);}.cls-55,.cls-56{opacity:.3;}.cls-57{isolation:isolate;}.cls-58{fill:url(#Namnlös_övertoning_373);opacity:.6;}.cls-59{opacity:.57;}.cls-59,.cls-60{fill:#d5a38a;}.cls-14{opacity:.78;}.cls-28{opacity:.7;}.cls-15{opacity:.72;}.cls-56{fill:#dbb28b;}.cls-60,.cls-26{opacity:.4;}</style><linearGradient id="Namnlös_övertoning_296" x1="165.42" y1="132.13" x2="185.4" y2="132.13" gradientUnits="userSpaceOnUse"><stop offset="0" stop-color="#56391e"/><stop offset="1" stop-color="#87624a"/></linearGradient><linearGradient id="Namnlös_övertoning_489" x1="108.72" y1="159.03" x2="155.22" y2="159.03" gradientUnits="userSpaceOnUse"><stop offset="0" stop-color="#c3997d"/><stop offset="1" stop-color="#8b5d3c"/></linearGradient><linearGradient id="Namnlös_övertoning_489-2" x1="106.33" y1="130.69" x2="119.53" y2="130.69" xlink:href="#Namnlös_övertoning_489"/><linearGradient id="Namnlös_övertoning_373" x1="101.05" y1="89.7" x2="149.35" y2="89.7" gradientUnits="userSpaceOnUse"><stop offset="0" stop-color="#c3997d"/><stop offset="1" stop-color="#e7c5a3"/></linearGradient><linearGradient id="linear-gradient" x1="154.66" y1="71.51" x2="174.78" y2="71.51" gradientUnits="userSpaceOnUse"><stop offset="0" stop-color="#56391e"/><stop offset="1" stop-color="#81624a"/></linearGradient><linearGradient id="linear-gradient-2" x1="109.77" y1="73.14" x2="137.59" y2="73.14" xlink:href="#linear-gradient"/><linearGradient id="Namnlös_övertoning_2249" x1="137.38" y1="118.31" x2="158.44" y2="118.31" gradientUnits="userSpaceOnUse"><stop offset="0" stop-color="#543430"/><stop offset="1" stop-color="#b26b50"/></linearGradient><linearGradient id="Namnlös_övertoning_281" x1="130.25" y1="120.45" x2="161.86" y2="120.45" gradientUnits="userSpaceOnUse"><stop offset=".17" stop-color="#bf6751"/><stop offset=".53" stop-color="#a26048"/><stop offset="1" stop-color="#d39a87"/></linearGradient><linearGradient id="Namnlös_övertoning_281-2" x1="130.97" y1="115.96" x2="162.8" y2="115.96" xlink:href="#Namnlös_övertoning_281"/><linearGradient id="Namnlös_övertoning_225" x1="127.69" y1="118.9" x2="134.93" y2="118.9" gradientUnits="userSpaceOnUse"><stop offset="0" stop-color="#bf6751"/><stop offset="1" stop-color="#9e472c"/></linearGradient><linearGradient id="Namnlös_övertoning_282" x1="156.85" y1="116.85" x2="164.13" y2="116.85" gradientUnits="userSpaceOnUse"><stop offset="0" stop-color="#bf6751"/><stop offset=".52" stop-color="#a95b43"/><stop offset="1" stop-color="#bf6751"/></linearGradient><linearGradient id="Namnlös_övertoning_296-2" x1="99.34" y1="187.28" x2="114.04" y2="187.28" xlink:href="#Namnlös_övertoning_296"/><linearGradient id="Namnlös_övertoning_296-3" x1="90.09" y1="193.46" x2="104.28" y2="193.46" xlink:href="#Namnlös_övertoning_296"/><linearGradient id="Namnlös_övertoning_296-4" x1="66.14" y1="160.85" x2="99.58" y2="160.85" xlink:href="#Namnlös_övertoning_296"/><linearGradient id="Namnlös_övertoning_296-5" x1="152.83" y1="55.35" x2="181.36" y2="55.35" xlink:href="#Namnlös_övertoning_296"/><linearGradient id="Namnlös_övertoning_296-6" x1="69.82" y1="122.28" x2="157.83" y2="122.28" xlink:href="#Namnlös_övertoning_296"/><linearGradient id="Namnlös_övertoning_281-3" x1="110.95" y1="197.1" x2="112.63" y2="197.1" xlink:href="#Namnlös_övertoning_281"/><linearGradient id="Namnlös_övertoning_296-7" x1="145.7" y1="39.95" x2="145.78" y2="39.95" xlink:href="#Namnlös_övertoning_296"/><linearGradient id="Namnlös_övertoning_1116" x1="167.75" y1="135.81" x2="176.79" y2="135.81" gradientUnits="userSpaceOnUse"><stop offset=".04" stop-color="#c49d79"/><stop offset=".32" stop-color="#c59f7b"/><stop offset=".52" stop-color="#caa685"/><stop offset=".71" stop-color="#d3b395"/><stop offset=".88" stop-color="#e0c4ac"/><stop offset="1" stop-color="#ecd5c2"/></linearGradient><linearGradient id="Namnlös_övertoning_1116-2" x1="157.34" y1="139.22" x2="164.79" y2="140.97" xlink:href="#Namnlös_övertoning_1116"/><linearGradient id="Namnlös_övertoning_1116-3" x1="148.01" y1="146.72" x2="158.41" y2="146.72" xlink:href="#Namnlös_övertoning_1116"/><linearGradient id="Namnlös_övertoning_490" x1="91.77" y1="237.54" x2="112.33" y2="237.54" gradientUnits="userSpaceOnUse"><stop offset="0" stop-color="#2c3242"/><stop offset=".51" stop-color="#dad8d2"/><stop offset="1" stop-color="#2c3242"/></linearGradient><linearGradient id="Namnlös_övertoning_490-2" x1="153.95" y1="238.35" x2="168.09" y2="238.35" xlink:href="#Namnlös_övertoning_490"/><linearGradient id="Namnlös_övertoning_1194" x1="140.97" y1="154.79" x2="148.61" y2="154.79" gradientUnits="userSpaceOnUse"><stop offset="0" stop-color="#cdab81"/><stop offset=".53" stop-color="#cfab81"/><stop offset=".93" stop-color="#d9ac81"/><stop offset="1" stop-color="#dcad82"/></linearGradient><radialGradient id="Namnlös_övertoning_1176" cx="149.04" cy="154.36" fx="149.04" fy="154.36" r="3.11" gradientUnits="userSpaceOnUse"><stop offset="0" stop-color="#f6ebe2"/><stop offset=".48" stop-color="#f3e5d9"/><stop offset="1" stop-color="#efdbcb"/></radialGradient><radialGradient id="Namnlös_övertoning_1176-2" cx="158.07" cy="146.47" fx="158.07" fy="146.47" r="2.14" xlink:href="#Namnlös_övertoning_1176"/><radialGradient id="Namnlös_övertoning_1176-3" cx="166.59" cy="141.21" fx="166.59" fy="141.21" r="2.59" xlink:href="#Namnlös_övertoning_1176"/><radialGradient id="Namnlös_övertoning_1176-4" cx="176.07" cy="136.18" fx="176.07" fy="136.18" r="1.44" xlink:href="#Namnlös_övertoning_1176"/></defs><g class="cls-57"><g id="Mall"><g id="BG-3"><circle class="cls-12" cx="131.31" cy="131.48" r="129"/></g><path class="cls-39" d="M171.9,138.45c-2.15-1.61-4.45-3.45-5.01-6.08-.42-1.98,.25-4.01,1.07-5.86,1.54-3.5,3.64-6.87,6.31-9.62-.96,2.47-2.7,4.65-4.18,6.87-1.71,2.57-3.49,5.31-3.64,8.4-.22,4.46,3.07,8.41,6.86,10.78s8.16,3.63,12.09,5.77c-8.5-8.59-12.84-21.13-11.47-33.14-1.77,2.29-4.88,8.26-6.22,10.82-1.52,2.9-2.78,6.19-2.1,9.39,.61,2.87,2.74,5.24,5.23,6.8s5.34,2.43,8.15,3.28"/></g><g id="Frida_S"><g id="BG-4"><circle class="cls-12" cx="131.31" cy="131.48" r="129"/></g><g><path class="cls-36" d="M124.65,141.7c-2.61-1.08-5.29-2.21-7.28-4.22-.04-.04-.08-.08-.11-.13-.84-.61-1.65-1.27-2.39-2.02,.42,.17,.75,.32,1.03,.47-.51-.59-1.03-1.16-1.65-1.62-1.22-.91-3.02-1.31-4.22-.37-.88,.69-1.17,1.88-1.27,2.99-.35,4.13,1.28,8.14,2.45,12.11,1.68,5.72,2.46,11.71,2.28,17.67-.08,2.49-.3,5.07,.61,7.39,1.33,3.37,4.75,5.4,8.09,6.82,6.87,2.91,14.4,4.27,21.85,3.95,1.94-.08,4.21-.5,5.06-2.24,.6-1.23,.26-2.69,0-4.04-.71-3.65-.71-7.42-.03-11.07,1.01-5.37,3.48-10.32,5.64-15.34,.3-.69,.6-1.43,.48-2.18-.34-2.12-3.27-2.31-5.42-2.19-7.6,.41-14.96-2.4-22.06-5.15-2.77-1.08-5.58-2.19-8.15-3.67"/><path class="cls-45" d="M116.8,136.39c-.24-.2-.52-.39-.9-.59,.45,.52,.89,1.06,1.36,1.55,.56,.58,1.49,1.03,2.19,1.42-1.24-.91-2.19-2.16-3.39-3.07,.37,1.34,1.95,2.94,3.47,2.49-1.58-1.56-3.32-2.97-4.9-4.54-3.29-3.26-6.33-6.87-8.29-11.07"/></g><path class="cls-18" d="M173.5,56.35c-1.21,18.92,6.52,37.96,2.96,56.58-.85,4.44-2.32,8.74-3.94,12.97-1.39,3.64-3.72,6.82-6.05,9.9-1.64,2.17-3.24,4.24-5.15,6.19-2.22,2.27-4.57,4.67-7.81,5.1-3.72,.49-7.21,1.14-11,.9-2.52-.16-5.03-.56-7.48-1.19-1.82-.47-3.53-1.31-5.22-2.14-3.13-1.55-6.1-2.93-8.96-4.95s-5.53-4.16-7.88-6.69c-3.74-4.02-6.33-10.26-7.07-15.7-.38-2.79-1.32-5.48-2.07-8.2-3.2-11.62-3.05-23.88-2.44-35.92,.18-3.53,.4-7.08,1.08-10.55,2.78-14.14,13.8-26.35,27.59-30.55,9.73-2.96,20.77-1.96,29.39,3.44,8.62,5.39,14.47,15.3,14.21,25.47"/><path class="cls-29" d="M92.26,105.18c-.04,2.27-.03,4.56,.44,6.78,.46,2.15,1.36,4.19,2.28,6.19,2.26,4.96,4.59,10.94,9.33,13.86,2.61,1.61,5.08,3.3,7.89,4.57,2.23,1.01,6.07,1.36,7.94,2.73-1.79-1.31-3.36-2.88-4.87-4.5-3.89-4.18-6.32-8.3-8.08-13.69-1.63-5-2.79-10.18-4.58-15.16-.91-2.54-1.04-5.45-1.27-8.15-.52-6.06-.54-12.17-.04-18.24-4.48,2.82-6.77,8.12-7.84,13.07-.88,4.11-1.14,8.34-1.21,12.53Z"/><path class="cls-32" d="M99.07,114.76c-1.39-1.01-2.2-2.64-2.78-4.27-.38-1.07-.69-2.18-.67-3.31,.08-3.77,3.36-6.62,6.15-8.66,1.34,4.35,2.07,8.68,2.91,13.15,.68,3.32-2.97,5-5.61,3.08Z"/><path class="cls-58" d="M132.15,31.53c-.7,.17-1.39,.35-2.08,.56-13.79,4.2-24.82,16.4-27.59,30.55-.68,3.47-.9,7.02-1.08,10.55-.61,12.04-.77,24.3,2.44,35.92,.75,2.72,1.68,5.4,2.07,8.2,.74,5.44,3.33,11.68,7.07,15.7,2.35,2.53,5.06,4.7,7.88,6.69,2.86,2.02,5.83,3.4,8.96,4.95,1.69,.83,3.39,1.67,5.22,2.14,2.45,.63,4.96,1.04,7.48,1.19,2.35,.15,4.59-.04,6.84-.33-1.63-19.32-3.19-38.65-3.66-58.04-.13-5.39-.89-10.93-.9-16.26,0-6.15,2.2-12.37,2.23-18.65,.03-5.65-.72-11.37-2.66-16.7-.6-1.65-1.35-4.68-2.92-5.67-2.13-1.35-6.87-.9-9.3-.8Z"/><path class="cls-60" d="M112.56,74.79c2.54-1.89,5.38-3.01,6.56-6.71,1.21-3.77,0-7.95,1.02-11.78,1.09-4.09,4.6-7.17,8.46-8.9s8.12-2.33,12.28-3.11c1.3-.24,2.64-.52,3.75-1.25s1.94-2.02,1.75-3.34c-.21-1.42-1.51-2.4-2.76-3.1-5.57-3.1-12.53-3.58-18.48-1.28s-10.77,7.34-12.8,13.38c-1.54,4.57-1.05,10.07-3.18,14.39-1.52,3.09-4.53,4.72-5.99,8.04-3.67,8.33-3.84,17.91-2.95,26.83,.81,8.13,2.57,16.25,5.82,23.77,1.65,3.81,3.68,7.47,6.18,10.79,1.1,1.47,2.25,3.21,3.89,4.07s2.99,1.4,4.52,2.79c1.71,1.56,3.66,2.85,5.75,3.84s4.95,2.72,4-.63c-1.3-4.55-5.28-8.22-8.12-11.83-3.39-4.31-6.21-10.11-4.01-15.14,.89-2.04,2.59-4.01,2.08-6.18-.41-1.72-2.07-2.78-3.51-3.81-5.15-3.65-9.12-9.21-10-15.46-.65-4.63,.57-9.6,3.49-13.28,.68-.85,1.45-1.53,2.25-2.12Z"/><path class="cls-13" d="M157.35,139.26c-.71,.73-1.43,1.45-2.24,2.06-2.22,1.65-4.98,2.41-6.98,4.38-1.89,1.86-5.18,1.93-7.8,1.92,1.64,.58,3.4,.74,5.14,.82,3.58,.17,8.17,.71,11.19-1.65,1.87-1.46,3.67-3.04,5.52-4.52,1.49-1.19,3.84-2.66,3.96-4.8,.19-3.42-5.05-1.5-6.48-.38-.83,.65-1.56,1.42-2.3,2.18Z"/><path class="cls-59" d="M134.8,76.87c.93-.32,1.99,.02,2.77,.64s1.32,1.46,1.85,2.29c.82,1.29,1.68,2.82,1.17,4.26-.18,.53-.53,.98-.92,1.39-.42,.44-.9,.85-1.48,1.02s-1.28,.06-1.67-.4c-.62-.72-.28-1.96-.92-2.65-.44-.48-1.21-.54-1.68-.99-.72-.7-.41-1.88-.05-2.82,.35-.91,.77-1.9,1.64-2.34,.83-.42,1.87-.2,2.65,.31s1.35,1.28,1.9,2.03"/><path class="cls-59" d="M127.88,79.16c-1.86-2.36-6.71-1.71-9.28-1.59-1.52,.07-3.06,.14-4.49,.63s-2.77,1.5-3.29,2.93,.04,3.27,1.43,3.88c1.28,.57,2.8-.02,3.91-.87,1.86-1.42,9.05-8.37,11.72-4.99Z"/><path class="cls-13" d="M151.32,101.73c.33-.34,.7-.7,1.18-.73,.38-.03,.74,.17,1.06,.38,.67,.45,1.29,1.06,1.48,1.84,.02,.1,.04,.2,0,.29-.06,.12-.19,.16-.32,.2-.89,.22-1.83,.09-2.7-.2-.2-.07-.4-.14-.61-.15-.63-.02-1.2,.64-1.78,.44,.36-.74,1.12-1.45,1.7-2.06Z"/><path class="cls-13" d="M145.7,104.22l-.85-1.01c-.53-.62-1.15-1.29-1.97-1.32-.3-.01-.6,.07-.89,.17-1.3,.44-2.49,1.18-3.47,2.15,.7,.49,1.61,.49,2.46,.46,.83-.02,1.67-.05,2.5-.07,.78-.02,1.56-.04,2.32,.1,.1-.42-.26-.81-.61-1.06s-.77-.51-.87-.93"/><path class="cls-28" d="M138.38,103.9c-.28,.6-2.79-1.02-3.01-1.39-.56-.98-.51-2.83-.16-3.87,.28-.81,.86-1.39,1.29-2.09-1.27,.13-2.54,1.33-3.12,2.42-.66,1.26-.68,2.86,.06,4.08s2.22,1.97,3.62,1.71c.54-.1,1.09-.37,1.32-.86Z"/><path class="cls-28" d="M154.01,93.05c-.09,.43-.05,.89,.11,1.3,.15,.39,.39,.73,.64,1.06,.67,.88,1.39,1.72,2.16,2.51,.48,.49,1,.99,1.17,1.65,.27,1.03-.39,2.05-1.01,2.91,.89-.32,1.64-1.02,2.01-1.89s.35-1.9-.05-2.76c-1.01-2.18-4.07-2.91-4.9-5.16-.26,.81-.12,1.74,.36,2.44"/><path class="cls-28" d="M165.68,108.91c2.05,2.89,2.06,6.81,1.1,10.23,1.16-3.56,4.65-6.45,1.74-10.29-.94-1.24-2.34-2.03-3.42-3.15-.88-.91-1.54-2.02-2.18-3.11-1.04-1.77-1.99-4.08-3.35-5.58-.4,1.32-.24,3.16,.33,4.42,.6,1.31,1.77,2.62,2.65,3.76,.99,1.29,2.19,2.39,3.13,3.71Z"/><path class="cls-28" d="M131.42,105.79c.08-.13,.15-.27,.22-.4,.86-1.66,.46-3.13,.65-4.84-.25,2.25-1.67,4.74-3.12,6.44-1.46,1.71-3.22,3.15-4.69,4.84-.98,1.13-1.85,2.4-2.25,3.85-.8,2.95,.58,6.17,2.8,8.28-.4-.99-.8-1.98-1.2-2.98-.34-.84-.68-1.7-.68-2.6,0-.93,.36-1.82,.8-2.63,1.24-2.3,3.12-4.17,4.78-6.18,.95-1.15,1.95-2.45,2.69-3.77Z"/><path class="cls-60" d="M142.66,72.13c.67-1.49,.7-3.25,.08-4.76,.62,.86,1.19,1.77,1.51,2.79s.35,2.14-.06,3.12c-.69,1.64-2.9,2.74-4.6,2.19,.84-1.25,2.37-1.78,3.07-3.34Z"/><path class="cls-7" d="M158.49,69.65c.23,.15,.58,.17,.85,.08,.41-.14,.75-.44,1.14-.62,.39-.18,.83-.23,1.26-.28,.59-.07,1.17-.14,1.76-.21,2.43-.29,5.04-.63,7.41,.18,1.74,.59,3.2,1.98,3.87,3.69-2.35-.77-4.75-1.56-7.22-1.53-2.11,.02-4.53,.61-6.5,1.35-1.46,.55-6.48,4.75-6.4,.66,.01-.66,.25-1.29,.48-1.9,.58,.31,1.31,.15,1.85-.24s.9-.94,1.25-1.49c.04,.14,.13,.24,.25,.31Z"/><path class="cls-54" d="M136.68,74.15c-.02-.62-.06-1.19-.04-1.44-.28,.05-1.25,.16-1.42,.4,.31-.45-.14-1.08-.66-1.25s-1.1-.09-1.62-.27c-.4-.14-.73-.41-1.09-.64-1.87-1.22-4.28-1.14-6.51-.96-5.32,.44-10.87,1.35-15.12,4.58-.28,.21-.58,.57-.39,.86,.14,.23,.48,.23,.75,.19,4.3-.63,8.36-2.8,12.7-2.7,3.32,.08,6.37,1.47,9.45,2.53,.82,.28,2.99,1.42,3.71,.72,.68-.66-.41-2.77,1.14-2.66-.11,.91-1.1,1.55-1.13,2.46"/><path class="cls-6" d="M142.2,120.28c5.59,.46,11.31-.73,16.24-3.4-1.56,.09-3.14,0-4.68-.25-.87-.14-1.73-.34-2.61-.38-2.07-.1-4.09,.64-6.16,.65-1.07,0-2.15-.18-3.22,.01-.89,.16-1.69,.66-2.55,.94-.41,.13-1.53,.28-1.78,.68-.34,.54,.65,.81,1.06,.98,1.17,.47,2.44,.66,3.7,.77Z"/><path class="cls-19" d="M144.26,117.82c.62,0,1.23-.03,1.85,.03,.38,.04,.78,.04,1.05,.35,.16,.18,.25,.41,.3,.65,.05,.25,.11,.59,.03,.84-.08,.26-.21,.2-.46,.19-.64-.03-1.29,.03-1.93,.03-.22,0-2.48-.28-2.48-.24,0-.16,0-.31,0-.47,0-.41,.07-.83,.44-1.05s.79-.34,1.2-.34Z"/><path class="cls-19" d="M148.27,118.26c.23-.17,.52-.3,.75-.41,.46-.21,.96-.34,1.46-.39,.45-.04,.99-.17,1.43,0,.49,.18,.84,.7,.82,1.22,0,.1-.02,.2-.08,.28-.07,.09-.17,.13-.28,.16-1.39,.49-2.85,.91-4.34,.78-.03,0-.06,0-.08-.02-.05-.03-.07-.09-.08-.14-.02-.14,0-.27,0-.41,.03-.3,0-.67,.2-.9,.05-.06,.11-.11,.18-.16Z"/><path class="cls-17" d="M153.2,119.24c-.24-.38-.23-.88-.03-1.28s.58-.69,1-.84c.24-.09,.53-.13,.76,0,.36,.19,.42,.67,.43,1.07-.73,.4-1.47,.8-2.2,1.19"/><path class="cls-17" d="M142.13,120.04c-.07-.2-.2-.35-.28-.54-.11-.25-.15-.51-.33-.73-.18-.21-.43-.35-.71-.41-.21-.05-.44-.05-.65-.01-.15,.03-.25,.12-.37,.21-.14,.1-.26,.22-.35,.37-.02,.03-.21,.45-.16,.46,.93,.22,1.86,.43,2.79,.65"/><path class="cls-40" d="M138.25,122.33c1.82,.63,3.63,1.28,5.52,1.64,6.78,1.31,14.44-1.19,18.09-7.22-3.72-.86-7.28,1.68-10.99,2.59-3.41,.85-6.95,.31-10.37-.13-2.74-.35-7.84-1.45-10.25,.31,.08-.06,2.51,1.17,2.8,1.26,1.17,.37,2.39,.6,3.56,.98,.55,.18,1.1,.37,1.64,.56Z"/><path class="cls-47" d="M152.43,116.9c1.96,.29,3.97,.34,5.95,.16,1.64-.15,3.13,.09,4.42-1.14-2.03-.6-4.04-1.3-6-2.09-1.24-.5-2.49-1.04-3.83-1.13-1.84-.12-3.18,1.07-4.94,1.11-1.52,.04-2.67-.89-4.25-.64-1.04,.16-2.01,.58-2.98,.99-3.27,1.4-6.55,2.79-9.82,4.19-.13,.06,1.78,.62,1.92,.64,.91,.16,1.84,.28,2.77,.21,1.3-.1,2.53-.56,3.78-.91,2.1-.59,4.27-.88,6.45-.87,.86,0,1.78,.1,2.62,.06,.95-.04,1.71-.56,2.64-.66,.42-.05,.85,.03,1.27,.09Z"/><path class="cls-37" d="M128.83,119.67c-.23,.06-.47,.13-.71,.09s-.46-.26-.42-.5c.03-.14,.14-.25,.24-.34,.42-.38,.92-.61,1.46-.74,.6-.15,1.06-.06,1.65-.05,1.35,.03,2.65-.52,3.87-1.04-.21,.54-.85,.73-1.4,.93-.51,.18-.99,.42-1.44,.72-.19,.12-.39,.32-.33,.53,.03,.08,.09,.15,.15,.21,.4,.41,.8,.82,1.21,1.22-1.3-.48-2.89-1.29-4.29-1.02Z"/><path class="cls-38" d="M159.21,119.36c.22-.6,.45-1.2,.71-1.78,.21-.46,.88-.94,.31-1.38-1.09-.85-2.22-1.64-3.38-2.41,1.34,.89,3.5,1.36,5.05,1.74,.43,.1,2.11,.14,2.22,.67,.16,.77-1.02,.5-1.43,.5-.74-.01-1.13,.59-1.5,1.13-.33,.49-.76,.87-1.16,1.29-.15,.15-.26,.38-.41,.52-.04,.04-.64,.37-.6,.26,.06-.18,.13-.35,.19-.53Z"/><path d="M122.07,83.95c.24,.32,.49,.66,.84,.84,.35,.17,.75,.18,1.14,.18,.64,0,1.28,0,1.91,.01,.37,0,.75,0,1.08-.15,.23-.11,.42-.29,.58-.49,.4-.5,.6-1.12,.75-1.74,.17-.7,.23-1.54-.31-2.02-.16-.14-.35-.23-.54-.31-1.54-.63-3.33-.61-4.87,.01-2.01,.81-1.78,2.03-.58,3.66Z"/><path d="M128.24,80.48c2.38,.79,5.1,2.63,6.87,3.9-1.76-2.48-4.42-4.72-7.41-5.28-2.28-.42-4.68-.15-6.82,.75-2.01,.85-3.14,3.17-4.78,4.55-1.07,.9-2.49,1.57-3.85,1.27,.99,.78,2.44,.78,3.61,.29s2.12-1.38,3.01-2.28,1.34-2.27,2.43-2.91c2.13-1.23,4.58-1.07,6.94-.29Z"/><path d="M121.82,77.99c-3.38,.62-5.86,2.38-6.75,5.74,.5-1.88,3.02-3.57,4.7-4.32,1.93-.86,4.11-1.15,6.17-1.13,3.31,.03,5.83,1.8,8.77,2.93-3.49-2.89-8.45-4.04-12.88-3.22Z"/><path d="M159.12,82.4c.86,.56,1.89,.77,2.91,.87,.56,.05,1.13,.07,1.65-.13,.51-.2,.92-.61,1.22-1.06,.47-.7,.72-1.54,.71-2.37,0-.39-.07-.79-.29-1.1-.4-.56-1.17-.67-1.86-.72-1.09-.08-2.21-.1-3.26,.2-2.3,.65-3.41,2.79-1.08,4.32Z"/><path d="M155.11,81.53c1.66-1.17,3.43-2.3,5.43-2.67,3.11-.59,6.35,.77,8.7,2.9,.64,.58,1.29,1.25,2.14,1.41-1.16-.67-1.72-2.02-2.61-3.01-2.05-2.29-4.84-2.99-7.74-2.44s-5.71,1.9-6.95,4.62c-.05,.11-.1,.23-.1,.35-.03,1.07,1.45,.38,1.78-.02-1.17,.42-1.88-.26-.64-1.13Z"/><path d="M162.39,75.99c2.58-.2,5.22,.57,7.29,2.12,1.12,.84,2.15,2.22,1.68,3.53-1.14-2.87-4.09-4.82-7.16-5.15-3.15-.34-5.99,.87-8.53,2.6,1.6-1.85,4.33-2.91,6.72-3.1Z"/><path d="M166.18,78.88c.85-.04,1.66-.52,2.1-1.25-.25,.95-1.33,1.59-2.28,1.36,.03-.02,.06-.03,.09-.05"/><path d="M168.49,80.25c.35-.15,.7-.3,.99-.55s.49-.62,.45-.99c.13,.44,.01,.96-.31,1.29s-.83,.48-1.28,.37"/><path d="M169.56,81.81c.35-.15,.7-.3,.98-.56s.48-.63,.42-1c-.5,.66-1.18,1.17-1.96,1.45"/><path d="M164.85,78.36c.83-.11,1.47-1.01,1.3-1.83-.3,.75-.88,1.37-1.6,1.73"/><path d="M126.48,79.32c.42-.6,.5-1.43,.19-2.09,.37,.31,.57,.81,.52,1.29s-.33,.93-.74,1.18"/><path d="M123.69,79.63c-.78-.5-1.19-1.53-.95-2.42,.62,.63,.49,1.7,1.04,2.39,.07,.08,.23,.13,.24,.02"/><path d="M128.66,80.07c.77-.33,1.36-1.03,1.56-1.84-.07,.33-.15,.66-.22,.99-.07,.33-.15,.66-.35,.93s-.56,.44-.87,.33c-.04-.07-.07-.15-.11-.22"/><path class="cls-28" d="M131.1,86.72c-.74,.23-1.39,.68-2.06,1.06-3.46,1.97-7.9,2.11-11.48,.38,.09,.91,1.13,1.37,2.02,1.59,3.12,.78,6.64,.99,9.37-.71,1.28-.8,2.47-2.03,3.98-1.96,.39,.02,2.6,.17,1.37-.55-.65-.38-2.51-.02-3.19,.19Z"/><path class="cls-28" d="M155.57,85.64c1.54,.21,2.87,1.13,4.31,1.71,2.41,.96,5.19,.93,7.58-.09-1.52,.13-3.05,.25-4.55-.04-2.16-.43-4.11-1.71-6.31-1.89-.29-.02-.65,.03-.72,.31,.57,.04,1.13,.31,1.51,.75"/><path class="cls-3" d="M116.39,115.96c2.6-.25,5.2-1.42,7.2-3.1,1.44-1.2,2.59-2.68,3.86-4.04,.17-.18,.35-.43,.25-.65-1.13,.07-2.06,.94-3.09,1.34-1.15,.45-2.36,.76-3.59,.9-1.73,.2-3.44,.03-5.18,.08-1.42,.04-2.76-.15-3.98-.97-1.93-1.3-2.54-3.47-3.75-5.31-.96-1.46-3.64-2.7-2.88,.27,.58,2.26,1.18,4.55,2.31,6.6s2.87,3.85,5.09,4.57c1.21,.39,2.5,.44,3.77,.32Z"/><path class="cls-3" d="M168.2,104.43c1.35,.32,2.7,.39,3.91-.04,1.16-.42,1.96-1.47,2.85-2.33,.19-.18,.4-.37,.66-.43,.59-.16,1.16,.35,1.45,.89,.81,1.47,.54,3.39-.39,4.79s-2.44,2.34-4.03,2.91c-.63,.23-1.31,.41-1.98,.32-1.8-.23-2.55-1.95-3.74-3.04-1.42-1.31-2.75-2.72-3.96-4.22-.24-.3-.47-.75-.2-1.02,1.53,.74,3.48,1.72,5.43,2.19Z"/><path class="cls-31" d="M162.1,176.15c.65-.18,1.39-.37,1.97-.03,.51,.3,.73,.93,.84,1.51,.82,4.22-1.7,8.25-3.5,12.15-5.34,11.6-4.6,25.06-2.37,37.63,1.74,8.68,4.45,17.11,6.93,25.6,1.25,4.28,2.23,8.62,3.41,12.91,.9,3.29,1.51,6.7,2.48,9.96-1.95,.93-3.45,.78-5.49,.7-2.62-.11-5.38,.85-7.98,1.19-5.65,.74-11.37,.87-17.06,.82-8.76-.07-17.37-.46-26.06-1.76-2.71-.4-5.44-.36-8.2-.79-3.18-.49-6.35-1.01-9.52-1.56-.18-.03-.37-.07-.48-.22-.1-.14-.08-.33-.05-.51,.24-1.35,1.05-2.25,1.41-3.53,.4-1.45,.5-3,.81-4.48,.52-2.48,1.16-4.93,1.58-7.42,.92-5.53,1.24-11.15,.95-16.75-.54-10.42-2.75-20.69-3.27-31.11-.48-9.46,.45-18.99,2.75-28.19,1.01-4.04,3.43-12.73,8.39-13.79,2.91-.62,3.04,1.51,4.84,2.99,2.33,1.91,5.86,2.86,8.68,3.79,12.52,4.11,26.27,4.49,38.95,.88Z"/><path class="cls-30" d="M27.72,169.35c-2.85,9.83-4.96,19.88-6.31,30.03-.49,3.67-.87,7.43-.12,11.06,.78,3.77,2.75,7.17,4.83,10.41,16.73,26.01,43.28,45.54,73.1,53.75,1.72,.48,3.53,.92,5.28,.57,3.45-.67,5.58-4.05,7.27-7.13,5.21-9.53,10.09-19.39,12.42-29.99s1.91-22.14-3.12-31.76c-2.12-4.07-5.01-7.71-7.06-11.81-2.42-4.83-3.63-10.18-4.39-15.53-.5-3.57-.83-7.24-2.34-10.52-1.71-3.71-4.79-6.59-7.83-9.33-4.39-3.96-8.86-7.83-13.41-11.61-2.7-2.25-5.47-4.48-8.61-6.06-9.78-4.89-22.05-2.92-31.59,1.58-10.83,5.11-14.95,15.43-18.11,26.34Z"/><path class="cls-34" d="M75.66,122.55c1.3,2.33,2.98,4.66,2.89,7.32-.06,1.64-.8,3.17-1.53,4.64-1.35,2.73-2.69,5.45-4.04,8.18-1.84,3.73-3.73,7.91-2.55,11.89,.49,1.64,1.46,3.1,2.04,4.71,1.24,3.43,.6,7.22,.12,10.84-.56,4.18-.88,8.45-.18,12.61s2.52,8.24,5.69,11.04c.55,.48,1.15,.94,1.52,1.58,.68,1.17,.43,2.64,.32,3.99-.29,3.77,.78,7.5,1.83,11.13,.67,2.31,1.36,4.66,2.7,6.66s3.44,3.64,5.84,3.79c.23,.02,.47,.02,.69-.06,.62-.21,.91-.91,1.08-1.54,1.28-4.8,.03-9.85-.35-14.8s.54-10.65,4.67-13.4c1.45-.96,3.19-1.48,4.46-2.67,1.3-1.22,1.94-2.97,2.42-4.69,3.34-11.79,1.66-24.37-.31-36.47-.35-2.18-.73-4.38-1.64-6.39-.96-2.12-2.49-3.92-3.96-5.73-7.28-8.92-13.74-18.51-19.26-28.62-2.33-4.26-4.33-4.85-5.64,.59-1.2,5.01,.73,11.01,3.17,15.38Z"/><path class="cls-51" d="M109.18,179.3c.03,1.29,.21,2.58,.4,3.86,.79,5.27,1.7,10.69,4.46,15.25-1.06-.96-2.02-2.03-2.85-3.19-.25,1.97,.12,4.01,1.02,5.77-1.79-1.57-3.4-3.34-4.78-5.27-.06,2.2-.11,4.4-.17,6.6-5.58-3.65-7.33-12.9-7.84-18.99-.17-1.98-.17-4.07,.77-5.82,2.29-4.27,8.56-3.15,12.12-5.25-1.72,1.01-2.71,2.98-3.01,4.95-.11,.7-.14,1.4-.13,2.1Z"/><path class="cls-53" d="M95.27,183.5c.83-2.39,2.34-4.54,4.31-6.14,.68-.55,1.89-.93,2.26-.14,.11,.23,.1,.5,.08,.76-.44,6.73-1.84,13.57-.29,20.14,.85,3.61,2.58,7.06,2.65,10.76-2.12-1.36-3.06-3.36-4.38-5.3-.67,2.31,.07,5.33,.89,7.6-4.33-5.31-7.13-12.03-9.38-18.44-1.18-3.35-2.12-7.23-.34-10.31,.63-1.09,1.55-1.97,2.52-2.77,1.89-1.57,3.99-2.89,6.22-3.92"/><path class="cls-52" d="M77.98,126.32c-1.75,2.83-4.19,5.15-6.22,7.78-6.91,8.96-8.06,23.11,.02,31.04-3.1-4.81-3.2-11.39-.24-16.29,3.99,9,5.3,19.17,3.7,28.88,1.89-3.23,3.35-6.72,4.33-10.34-5.42,11.65-2.49,26.64,6.92,35.38-1.17-7.78-.13-15.88,2.97-23.12,3.4-7.93,9.29-15.08,10.05-23.67,.67-7.54-2.79-14.84-6.96-21.16-3.52-5.33-7.15-10.79-10.89-15.93-2.34,.82-2.33,5.24-3.67,7.41Z"/><path class="cls-48" d="M170.86,29.63c3.08,1.46,5.66,3.96,7.17,7.01-.95-.17-1.91-.34-2.86-.52,4.08,.73,3.65,9.78,3.4,12.58s-.19,5.35,.48,8.04c.72,2.89,3.06,6.18,2.05,9.25-.29,.88-.86,1.66-1.02,2.57-.18,1.04,.2,2.08,.48,3.1,.79,2.94,.56,6.01,0,8.96-.25,1.3-.58,2.01-1.57,3.01-.31,.31-3.25,2.14-3.25,2.22,.15-6.36-2.46-12.54-2.35-18.91,.09-4.74-2.92-7.54-4.68-11.73-1.43-3.41-3.6-14.87-8.24-15.11-.3-.02-.61,0-.89-.09-.48-.16-.79-.62-.98-1.08,.23,.56-3.11-.14-3.36-.28-1.28-.7-1.96-1.95-2.22-3.33-1.29-6.72,3.99-11.95,10.73-10.11,.08,.4,0,.82-.2,1.17,.89-.58,1.83,.61,2.64,1.3,.79,.67,1.85,.9,2.83,1.21,.63,.2,1.24,.44,1.83,.72Z"/><path class="cls-49" d="M156.56,38.66c.86-1.14,1.22-3.01,1.26-4.1,.11-2.64-.79-5.31-2.35-7.44-2.43-3.32-6.2-5.43-10.07-6.82-15.32-5.51-33.87-.26-44.02,12.47,1.96-.85,3.91-1.7,5.87-2.54-9.56,2.99-14.91,12.86-19.3,21.87-3.01,6.18-6.02,12.36-9.03,18.54-5.41,11.12-10.98,23.28-8.5,35.39,3.37,16.46,20.57,27.54,23.45,44.09,.43,2.44,.51,4.98-.21,7.35-.96,3.17-3.26,5.72-5.35,8.28-3.57,4.36-6.81,9.3-7.49,14.9-.77,6.35,1.85,12.55,2.92,18.86,1.32,7.8-.29,16.2,3.91,23.32,.69,1.16,1.52,2.28,2.67,2.98s2.68,.9,3.85,.22c-1.03-.69-1.61-1.86-2.1-3-1.89-4.4-2.67-8.8-3.2-13.49s.49-9.81,.71-14.69c.18-3.99,.73-8.15,3.03-11.42,6.86-9.72,23.91-5.62,31.64-14.67,5.64-6.6,3.23-17.07-2.08-23.94s-12.89-11.62-18.68-18.08c-5.72-6.4-9.6-14.57-10.24-23.13s2.15-17.46,8.07-23.68c2.31-2.43,5.03-4.42,7.32-6.87,4.49-4.79,7.13-11.28,7.26-17.85,.04-2.14-.15-4.4,.8-6.32,.7-1.41,1.94-2.47,3.16-3.48,1.48-1.23,2.97-2.45,4.58-3.51,1.16-.77,2.56-1.93,3.91-2.31,3.4-.95,7.78-.8,10.92,.88,.54,.29,1.19,.62,1.71,.31,.12-.07,.22-.18,.35-.23,.35-.15,.74,.09,1.08,.27,1.13,.59,2.6,.46,3.61-.33,.31,.29,.64,.58,1.05,.69s.92-.05,1.06-.45c1.23,.64,2.86,.36,3.81-.64,.68,.4,1.68,.07,2-.66,1.17,.46,2.02,.03,2.63-.77Z"/><path class="cls-46" d="M112.63,197.24l-1.68-.28"/><path class="cls-34" d="M151.87,34.93c-.56-.51-1.19-.93-1.82-1.35-2.35-1.56-5.06-3.14-7.83-2.59,2.48-.07,4.95,.8,6.91,2.31,2.12,1.63,2.65,3.89,4.2,5.8,1.53-1.05-.55-3.35-1.46-4.17Z"/><path class="cls-34" d="M139.52,35.04c-2-.7-4.03-1.38-6.14-1.53s-4.34,.29-5.99,1.61c1.6,.11,3.19-.22,4.79-.38,6.14-.6,12.09,1.59,16.72,5.55-2.43-2.73-6.02-4.07-9.38-5.25Z"/><path class="cls-2" d="M150.84,40.29c-6.68-5.21-14.77-10.08-23.09-8.53-5.52,1.03-10.19,4.79-13.7,9.18s-6.08,9.43-9.09,14.17c-6.2,9.78-14.28,18.27-20.37,28.12-2.3,3.72-4.32,7.68-5.13,11.97-1.21,6.43,.46,13.17,3.66,18.88,3.2,5.7,7.85,10.47,12.84,14.7,3.98,3.37,8.26,6.5,11.39,10.68,3.13,4.18,4.97,9.74,3.29,14.68-3.06,9-15.84,11.86-18.62,20.95-1.06,3.46-.41,7.18,.24,10.74"/><path class="cls-2" d="M155.22,38.16c-.92-5.95-6.29-10.51-12.14-11.95s-12.04-.27-17.74,1.64c-6.48,2.18-12.81,5.46-17.11,10.77-3.15,3.9-5.02,8.64-7.11,13.2-4.32,9.42-9.78,18.32-13.47,28.01-3.69,9.68-5.53,20.54-2.34,30.4,3.2,9.86,11.07,17.7,14.16,27.6,2.69,8.63,1.35,18.43-3.58,26.02-2.84,4.37-6.79,8.04-8.97,12.77-2.82,6.12-2.19,13.69,1.58,19.27"/><path class="cls-34" d="M131.83,37.18c4.84,.37,8.72,2.81,13.01,4.55-1.67-3.52-9.55-4.28-13.01-4.55Z"/><path class="cls-50" d="M145.7,39.95h.08"/><path class="cls-3" d="M149.54,130.9c1.34,.02,2.89,.29,3.53,1.46-1.39-.51-2.92-.41-4.4-.3-1.26,.09-2.52,.19-3.78,.28-.65,.05-1.3,.1-1.95,.21-.89,.15-1.72,.45-2.56,.74,1.1-2.44,6.94-2.42,9.16-2.39Z"/><path class="cls-27" d="M162.2,84.88c.26,.02,.45-.24,.69-.35,.45-.21,.95,.13,1.44,.2,.4,.05,.8-.08,1.18-.21,.59-.2,1.18-.41,1.76-.61-1.48,.18-2.97,.26-4.46,.23-1.12-.02-2.69,.1-3.71-.4,.2-.04,.48-.04,.67,.07,.35,.2,.23,.66,.51,.8,.38,.2,.74-.42,1.17-.3,.31,.08,.38,.55,.74,.58Z"/><path class="cls-27" d="M119.93,85.8c.05,.21,.08,.42,.06,.64,.49-.18,.99-.32,1.5-.43,.06-.01,.13-.02,.18,.01,.07,.06,.04,.18,.05,.27,.02,.2,.27,.29,.47,.25s.35-.18,.53-.27c.56-.27,1.22-.03,1.84,.03,.46,.05,.92,0,1.38-.06,.53-.06,1.06-.12,1.59-.18-1.69,.19-3.6-.1-5.29-.25-.74-.06-3.41-.85-3.53,.35,.4-.03,.83-.24,1.22-.37Z"/><path class="cls-30" d="M179.87,145.26c3.25-2.06,7.58-.99,10.97,.84s6.46,4.38,10.18,5.36c1.87,.49,3.81,.56,5.73,.77,2.99,.32,6.07,.9,8.87,2.05,3.37,1.38,4.12,3.84,6.92,5.65,1.34,.86,3.2,.48,4.39,1.67,2.07,2.08-1.52,3.52,1.24,5.39,1.6,1.08,2.71,2.27,3.11,4.18,1.21,5.75,.43,12.08,3.35,17.17,.9,1.57,2.16,3.06,2.27,4.86,.1,1.6-.73,3.1-1.03,4.68-.31,1.64-.05,3.32,.21,4.97,.91,5.67,3.2,11.67,2.96,17.33s-2.84,11.35-6.53,15.91c-5.35,6.61-10.34,13.96-16.73,19.62-4.27,3.77-9.25,6.66-14.36,9.19-10.2,5.05-20.62,8.75-31.69,11.29-.42,.1-.86,.19-1.26,.04-.45-.17-.74-.61-.99-1.03-5.68-9.38-7.62-20.65-9.66-31.32-1.63-8.52-2.97-17.09-4.15-25.68-.39-2.84-.78-5.7-.67-8.57,.1-2.58,.6-5.13,1.24-7.63,1.69-6.6,4.31-12.92,6.03-19.51,2.15-8.22,2.9-16.89,6.56-24.56s11.41-14.33,19.82-13.17"/><path class="cls-16" d="M176.73,135.02c-1.85-1.39-4.48-1.67-6.58-.68-1.16,.54-2.14,1.42-3.31,1.95-2.26,1.02-5.22,.74-6.86,2.61-.67,.77-.99,1.79-1.58,2.62-.78,1.09-1.97,1.79-3.12,2.46-3.44,1.99-6.88,3.99-10.32,5.98-1.71,.99-3.39,2.08-5.14,2.99-1.24,.65-2.71,1.01-3.85,1.89-1.04,.8-1.79,2.09-1.58,3.38,.57,3.47,.75,7.3,1.94,10.64,.78,2.18,2.62,3.57,4.52,4.73,1.73,1.06,3.97,2.77,6.01,3.02,.58,2.88,2.15,5.4,3.48,7.98,1.96,3.82,4.07,7.58,7.06,10.7,1.57,1.64,3.31,3.17,4.49,5.11,.97,1.59,1.53,3.39,2.08,5.17,.8,2.57,1.59,5.14,2.39,7.71,.21,.67,.43,1.36,.87,1.91,1.09,1.33,3.1,1.33,4.81,1.1,7.12-.93,13.96-3.79,19.68-8.13,1.89-1.43,5.89-3.83,5.67-6.56-.27-3.32-2.89-7.43-4.23-10.46-1.66-3.77-3.73-7.41-4.98-11.33-1.19-3.71-2.35-6.96-3-10.84-1.37-8.19-2.19-16.48-4.01-24.6-.98-4.35-2.7-9.18-6.82-10.9"/><g class="cls-55"><path class="cls-24" d="M176.67,134.99c-.68-.62-1.44-1.13-2.32-1.5l2.32,1.5Z"/><path class="cls-24" d="M176.67,134.99h0s.04,.02,.06,.04l-.06-.04Z"/><path class="cls-24" d="M177.87,136.3c-.36-.48-.76-.92-1.2-1.31-1.85-1.36-4.44-1.62-6.52-.65-1.16,.54-2.14,1.42-3.31,1.95-2.26,1.02-5.22,.74-6.86,2.61-.67,.77-.99,1.79-1.58,2.62-.77,1.09-1.97,1.79-3.12,2.46-3.44,2-6.88,3.99-10.32,5.98-1.71,.99-3.39,2.08-5.14,2.99-1.24,.65-2.71,1.01-3.85,1.89-1.04,.8-1.79,2.09-1.58,3.38,.26,1.6,.44,3.28,.68,4.95,.75-.08,1.54-.4,2.32-.95,1.46-1.04,1.9-2.28,3.75-2.77,1.35-.35,2.77,.17,4.06-.57,.22-.13,.44-.3,.52-.54,.12-.34-.03-.71-.14-1.06-.75-2.37,.87-4.97,3.05-6.15,4.37-2.36,8.76,1.21,10.06-4.62,.28-1.25,.97-2.67,2.25-2.8,1.23-.13,2.3,1.05,3.54,.96,1.52-.11,2.2-1.95,2.36-3.46,.17-1.51,.36-3.32,1.71-4.01,1.88-.96,3.92,1.16,6.03,1.26,1.41,.07,2.65-.89,3.28-2.16Z"/></g><path class="cls-4" d="M176.55,213.06c-1.1-4.92-2.25-9.95-4.98-14.18-1.27-1.95-2.84-3.69-4.45-5.36-2.11-2.18-4.15-4.44-5.61-7.13s-2.11-5.77-3.13-8.66c-1.26-3.55-3.11-6.85-4.95-10.14-1.34-2.39-3.23-4.92-3.92-7.56-.62-2.38-1.11-4.93-1.58-7.36-.14-.73-.31-1.54-.9-2-.76-.58-1.85-.33-2.74,.03-1.56,.62-2.98,1.46-4.47,2.23-1.24,.65-2.71,1.01-3.85,1.89-1.04,.8-1.79,2.09-1.58,3.38,.57,3.47,.75,7.3,1.94,10.64,.78,2.18,2.62,3.57,4.52,4.73,1.73,1.06,3.97,2.77,6.01,3.02,.58,2.88,2.15,5.4,3.48,7.98,1.96,3.82,4.07,7.58,7.06,10.7,1.57,1.64,3.31,3.17,4.49,5.11,.97,1.59,1.53,3.39,2.08,5.17,.8,2.57,1.59,5.14,2.39,7.71,.21,.67,.43,1.36,.87,1.91,1.09,1.33,3.1,1.33,4.81,1.1,1.66-.22,3.3-.55,4.92-.97-.08-.76-.24-1.52-.4-2.26Z"/><path class="cls-26" d="M179.53,207.93c0,.29-.04,.58-.07,.87,.14,0,.3,0,.46-.01-.16-1.12-.18-2.63-.34-3.36-.13-.62-.28-1.23-.44-1.83,.03,.55,.01,1.1-.05,1.66,.28,.74,.44,1.62,.44,2.67Z"/><path class="cls-56" d="M183.25,176.25c.08,.21,.16,.42,.22,.66,1,3.82,1.62,7.76,2.81,11.53,1.22,3.86,3.47,7.28,5.44,10.78,1.12,2,2.34,4.15,3.36,6.39,1.33-1.18,2.43-2.54,2.32-4-.27-3.32-2.89-7.43-4.23-10.46-1.66-3.77-3.72-7.41-4.98-11.33-1.19-3.71-2.35-6.96-3-10.84-1.37-8.19-2.19-16.48-4.01-24.6-.77-3.42-2.01-7.13-4.5-9.4-1.85-1.36-4.44-1.62-6.52-.65-.15,.07-.28,.15-.42,.23,.26,.14,.53,.28,.78,.43,7.89,4.82,9.5,14.94,9.77,24.33,1.13,5.61,2.07,11.26,2.97,16.92Z"/><path class="cls-23" d="M168.18,201.27c-2.07-3.11-4.75-5.8-6.64-9.01-3.56-1.97-5.83-5.11-7.75-9.05-1.77-3.62-4.02-7.32-5.06-11.27-.84-.94-1.56-1.96-2.01-3.16-.54-1.44-.48-3.84-1.5-5.01-.59-.67-1.67-.72-2.28-1.36-.86-.9-.62-1.79-1.93-2.24-.33-.11-.68-.42-.56-.75-.28,.29-.33,.74-.26,1.14,.07,.4,.25,.77,.37,1.16,.15,.51,.21,1.05,.43,1.54,.23,.51,.64,.91,.92,1.39,.61,1.04,.74,2.37,1.14,3.49,.42,1.16,.7,2.36,1.18,3.52,1.13,2.76,2.65,5.35,3.74,8.13,2.01,5.09,4.13,10.28,7.84,14.31,1.25,1.35,2.66,2.56,3.79,4.01,3.55,4.56,3.85,10.85,6.46,16.01,.32,.62,.69,1.26,1.27,1.64,.62,.41,1.4,.48,2.15,.52,1.64,.08,3.28,.03,4.91-.14-1.58-5.15-3.2-10.38-6.18-14.87Z"/><path class="cls-10" d="M174.14,138.08c.73-.15,1.47-.37,2.03-.87,1.1-.99,.62-2.58-.47-3.38-.96-.71-2-.52-3.12-.3-1.29,.25-6.11,1.47-4.5,3.65,1.03,1.4,4.59,1.21,6.06,.91Z"/><path class="cls-9" d="M165.81,138.92c-.31,.83-.9,1.6-.87,2.49,.02,.59,.3,1.13,.46,1.7s.13,1.27-.34,1.63c-.49,.38-1.2,.2-1.77-.04-.86-.36-1.67-.81-2.43-1.35-1.46-1.03-2.05-.75-3.71-.48-.04,0-.09,.01-.13,0-.09-.05-.03-.19,.03-.27,1.21-1.51,1.91-3.46,3.6-4.47,1.35-.82,6.49-2.77,5.15,.79Z"/><path class="cls-8" d="M157.45,144.49c.48,.4,.68,1.05,.81,1.66,.13,.64,.23,1.3,.08,1.93s-.57,1.24-1.19,1.43c-.76,.24-1.56-.17-2.29-.51-1.2-.56-2.56-.97-3.9-.91-.94,.04-2.28,.93-2.95,.12,2.13-1.51,6.64-6.04,9.44-3.72Z"/><path class="cls-25" d="M137.89,164.5c-.57-.95-1.31-1.85-1.52-2.95,.53-.35,1.19,.13,1.65,.57s1.17,.88,1.65,.47c.57-.48,.05-1.51,.49-2.11,.71,.88,.5,2.32,1.35,3.08,.29,.26,.68,.41,.92,.71,.22,.27,.29,.62,.36,.96,.28,1.35,.65,2.69,1.1,3.99,.52,1.51,1.15,2.99,1.79,4.46,.55,1.27,1.09,2.55,1.64,3.82-2.15-2-4.82-1.79-6.21-4.71-.64-1.35-1.46-2.47-2.19-3.75-.65-1.14-.31-.99-.32-2.25,0-.83-.28-1.59-.7-2.3Z"/><path class="cls-14" d="M142.56,167.2c-1.56,.77-3.26,1.26-5,1.44,.77,.68,1.9,.81,2.9,.6s1.91-.74,2.79-1.26c-.32-.13-.52-.48-.48-.82"/><path class="cls-14" d="M142.69,167.77c.45,1.13,.65,2.37,.55,3.59,.18-.29,.67,.02,.7,.37s-.16,.69-.09,1.03c.04,.21,.16,.38,.29,.55,.69,.93,1.49,1.78,2.38,2.51-2.59-3.14-2.07-7.98-4.48-11.26-.39-.54-.86-1.02-1.17-1.62-.64-1.25-.4-2.65-.29-3.98-.02,.25-.64,.95-.75,1.28-.25,.71-.16,1.51-.35,2.25-1.05-.29-2.07-.66-3.06-1.12,1.42,.65,3.23,3.73,4.46,3.57-.43,2.13,1.24,1.39,1.81,2.82Z"/><path class="cls-35" d="M91.77,271.91c3.41-11.3,7.61-22.09,11.02-33.56s5.9-23.97,9.54-35.19c-1.35,11.15-6.79,23.14-10.06,33.98-3.5,11.59-7,23.18-10.49,34.77Z"/><path class="cls-44" d="M154.8,219.35c1.55,9.77,3.1,19.56,5.25,29.22,1.32,5.91,4.79,19.81,8.04,24.28-3.6-10.53-6.22-21.49-8.27-32.88-1.14-6.32-2.16-12.67-3.07-19.03-.2-1.43-2.37-15.9-1.45-17.1-2.32,1.88-1.11,11.69-.51,15.51Z"/><path class="cls-1" d="M143.13,151.26c.83,.99,2.45,.61,3.55-.07,1.79-1.12,3.15-2.78,4.79-4.11,2.09-1.7,4.57-2.84,6.85-4.29,2.91-1.86,5.48-4.23,8.49-5.92s6.71-2.64,9.92-1.37c.02-.29-.17-.55-.38-.76-1.3-1.28-3.41-1.31-5.14-.73s-3.26,1.64-4.95,2.32c-2.24,.9-4.84,1.15-6.62,2.77-1.13,1.02-1.79,2.48-2.91,3.5-1.78,1.63-4.42,1.94-6.35,3.39-1.01,.75-1.78,1.79-2.81,2.52-1.82,1.3-4.37,1.6-5.7,3.4,3.48-.06,6.91-1.7,9.14-4.38"/><path class="cls-11" d="M141.18,155.24c.33,.91,.96,1.68,1.63,2.37,.38,.4,.79,.78,1.28,1.05,.62,.34,1.34,.48,2.05,.4,.33-.04,.62-.17,.94-.25,.69-.17,1.61-.56,1.54-1.41-.02-.28-.12-.55-.23-.82-.29-.75-.59-1.49-1.03-2.16-.35-.53-.15-1.04,.09-1.6,.1-.22,.22-.44,.23-.68,.02-.31-.15-.61-.33-.87-.15-.2-.31-.4-.51-.54-.43-.29-.98-.3-1.49-.23-.74,.1-1.33,.45-2.02,.69-.57,.19-1,.34-1.45,.77-.91,.87-1.12,2.09-.69,3.26Z"/><path class="cls-5" d="M148,156.84c.26,.59,1,1.73,1.73,.91,.18-.21,.21-.51,.21-.79-.02-.57-.16-1.13-.2-1.69-.05-.6,.18-1.09,.59-1.53,.38-.41,.92-.74,1.08-1.31,.22-.76-.45-1.56-1.22-1.73s-1.57,.16-2.24,.6c-.65,.43-1.26,1.06-1.29,1.83-.03,.64,.34,1.22,.69,1.75,.39,.59,.37,1.3,.66,1.95Z"/><path class="cls-43" d="M159.84,147.78s0-.03,0-.04c-.09-.36-.43-.65-.45-1.02,0-.15,.04-.29,.08-.44,.13-.49,.19-1.04-.04-1.5-.72-1.48-1.94-.48-2.59,.43-1.03,1.43-.54,2.72,1.12,3.53,.4,.2,.89,.27,1.3,.08s.68-.62,.6-1.04Z"/><path class="cls-42" d="M167.74,138.51c-.31-.27-.79-.26-1.15-.06s-.63,.53-.86,.86c-.94,1.33-1.38,3.27-.58,4.78,.06,.1,.12,.21,.24,.26,.08,.03,.16,.02,.24,.01,.6-.11,1.02-.68,1.19-1.26s.14-1.21,.2-1.81,.23-1.24,.69-1.64c.28-.24,.67-.42,.76-.78,.06-.29-.12-.59-.39-.72s-.58-.1-.85,0c-.7,.27-1.32,1.03-1.67,1.66"/><path class="cls-41" d="M177.38,136.75c-.39-.65-.84-1.26-1.34-1.83-.12-.13-.28-.27-.44-.21-.1,.04-.16,.15-.2,.25-.21,.46-.41,.93-.6,1.4-.07,.18-.14,.37-.13,.57,.03,.34,.34,.6,.67,.68s.67,.03,1.01-.03c.27-.05,.54-.1,.76-.25s.4-.41,.35-.68c-.02-.14-.1-.26-.17-.38-.27-.43-.57-.84-.88-1.24"/><path class="cls-15" d="M142.7,165.99c-.03-.34-.05-.68,0-1.01s.22-.66,.49-.86c-.39,0-.72,.31-.86,.67s-.13,.76-.11,1.15c.09,0,.19,0,.28,0"/></g><g id="Frida_S_glasögon"><path class="cls-33" d="M184.75,77.22c-.04-.18-.08-.36-.11-.54-.15-.73-.37-1.54-1.02-1.89-.32-.17-.58-.1-.92-.12-.44-.02-.88-.1-1.31-.17-.94-.15-1.87-.39-2.81-.51-1.03-.14-2.05-.28-3.08-.39-2.06-.23-4.13-.38-6.2-.39-5.12-.03-10.33,.79-14.89,3.13-.96,.49-1.91,1.07-2.63,1.88-1.37,1.56-1.71,3.78-1.58,5.85,.31,5.18,3.31,10.13,7.75,12.8,4.45,2.67,10.22,3,14.94,.84,4.72-2.16,8.25-6.73,9.14-11.84,.24-1.37,.39-2.76,.42-4.15,.03-1.1,.81-2.51,1.72-3.12,.19-.13,.41-.25,.54-.45,.16-.27,.1-.61,.04-.91Zm-6.32,13.19c-.99,2.24-2.81,4.06-4.94,5.26-2.13,1.2-4.56,1.81-7,1.99-1.79,.13-3.64,.04-5.32-.59-1-.38-1.93-.93-2.81-1.54-1.19-.83-2.31-1.77-3.19-2.92-2.71-3.54-3.92-10.78-.4-14.23,1.67-1.64,3.96-2.48,6.21-3.13,2.74-.79,5.62-1.12,8.48-.95,2.41,.14,4.66,.18,6.81,1.38,1.04,.58,2.03,1.35,2.57,2.41,.51,1.01,.57,2.19,.62,3.32,.13,3.05,.24,6.22-1,9.01Z"/><path class="cls-20" d="M181.25,78.12c-.03-.15-.02-.3,.02-.44,.16-.5,1.08-.4,1.11,.13,.02,.43-.15,.87-.66,.79-.27-.05-.42-.22-.47-.48Z"/><path class="cls-20" d="M181.14,75.45c-.15,.06-.27,.2-.29,.35,.17,.39,.57,.7,.94,.4,.31-.25,.2-.61-.1-.83-.14-.11-.34-.14-.5-.07-.18,.08-.29,.3-.26,.5,.04,.28,.31,.56,.61,.43,.14-.06,.24-.19,.29-.33,.05-.14,.05-.32-.07-.41-.04-.03-.08-.04-.13-.06-.16-.04-.32-.04-.48,.02Z"/><path class="cls-29" d="M101.3,78.73c-.53,.33-1.06,.65-1.57,.97-.18,.11-.36,.22-.49,.39-.12,.16-.18,.35-.24,.54-.3,.98-1.11,2.13-1.1,3.14,2.85-1.37,5.4-3.16,8.46-4.05-.22-.97-.08-1.99,.06-2.98-1.84,.47-3.49,.99-5.13,1.99Z"/><path class="cls-21" d="M141.47,80.11c-.29-3.49-4.33-4.22-6.96-5.17-4.54-1.65-9.52-1.62-14.25-.63-4.73,.99-9.53,1.5-14.3,2.41-.22,1.06-.23,2.16-.02,3.22-.02-.09,1.23,.4,1.33,.48,.33,.24,.62,.54,.8,.9,.52,1.05,.58,2.57,.82,3.72,.51,2.45,.67,5.5,1.84,7.74,.9,1.73,2.46,3.65,4.02,4.77,3.95,2.85,8.4,3.51,13.14,2.8,4.37-.65,8.51-2.29,10.96-6.17,.9-1.42,1.71-2.92,2.2-4.53,.94-3.07,.68-6.36,.41-9.55Zm-3.16,12.99c-.57,.87-1.27,1.66-2.09,2.3-.93,.73-2.01,1.24-3.1,1.7-4.9,2.05-9.98,2.62-15.04,.66-.87-.33-1.74-.67-2.5-1.21-1.8-1.26-2.73-3.41-3.39-5.5-.88-2.79-1.44-5.82-.57-8.62,1.03-3.29,3.87-5.35,7.06-6.33,6.87-2.1,17.67-2.09,20.81,5.94,1.4,3.58,.95,7.83-1.17,11.04Z"/><path class="cls-20" d="M109.09,77.27c-.09,.24,.07,.54,.31,.64,.32,.13,.73-.05,.83-.39s-.18-.72-.52-.72-.63,.39-.52,.71c.12,.32,.51,.44,.84,.51"/><path class="cls-20" d="M109.2,79.37c-.33,.2-.26,.79,.1,.94s.81-.12,.89-.5c.06-.3-.09-.64-.36-.77s-.65-.04-.81,.22-.07,.65,.21,.79"/><path class="cls-22" d="M146.84,76.02c-1.85-.1-3.71,.43-5.31,1.37-.39,.23-.78,.5-.94,.92-.11,.29-.1,.61-.05,.91,.13,.8,.53,1.62,1.26,1.99,.09,.04,.18,.08,.28,.07,.18-.03,.28-.21,.37-.36,.75-1.31,2.17-2.2,3.67-2.3s3.03,.59,3.95,1.79c.18,.24,.41,.52,.7,.48,.16-.02,.28-.15,.39-.27,.4-.47,.81-1.24,.77-1.88-.04-.6-.53-.89-1-1.24-1.17-.88-2.63-1.38-4.09-1.46Z"/></g></g></svg>