<?xml version="1.0" encoding="UTF-8"?><svg id="Hanna" xmlns="http://www.w3.org/2000/svg" xmlns:xlink="http://www.w3.org/1999/xlink" viewBox="0 0 262 280"><defs><style>.cls-1{opacity:.34;}.cls-1,.cls-2,.cls-3,.cls-4,.cls-5{fill:none;}.cls-6{fill:url(#Namnlös_övertoning_1042);}.cls-7{fill:url(#linear-gradient);}.cls-8{fill:#693f47;}.cls-9{fill:#ecceb7;}.cls-10{fill:#eaeaea;}.cls-11{fill:#eed5c2;}.cls-12{fill:#fff;}.cls-13{fill:#b6dec0;}.cls-14{fill:#e1bfae;}.cls-15{fill:#0f1a2a;}.cls-16{fill:#290a04;}.cls-3{stroke:#9c714b;}.cls-3,.cls-4{stroke-linecap:round;stroke-miterlimit:10;stroke-width:.5px;}.cls-4{stroke:#875a37;}.cls-17{fill:url(#Namnlös_övertoning_642-2);}.cls-17,.cls-18{opacity:.3;}.cls-19{fill:url(#Namnlös_övertoning_798);}.cls-20{fill:url(#Namnlös_övertoning_489);}.cls-21{fill:url(#Namnlös_övertoning_516);}.cls-22{fill:url(#Namnlös_övertoning_519);}.cls-23{fill:url(#Namnlös_övertoning_518);}.cls-24{fill:url(#Namnlös_övertoning_821);}.cls-25{fill:url(#Namnlös_övertoning_971);}.cls-26,.cls-27,.cls-28,.cls-18{fill:#c98969;}.cls-26,.cls-5{opacity:.2;}.cls-29{fill:url(#Namnlös_övertoning_1042-2);}.cls-30{fill:url(#Namnlös_övertoning_1042-3);}.cls-31{fill:url(#Namnlös_övertoning_798-3);}.cls-32{fill:url(#Namnlös_övertoning_798-2);}.cls-33{fill:url(#Namnlös_övertoning_489-2);}.cls-34{fill:url(#Namnlös_övertoning_971-2);}.cls-35{fill:url(#Namnlös_övertoning_642);opacity:.4;}.cls-27,.cls-36{opacity:.5;}.cls-36{fill:#d5a38a;}.cls-28{opacity:.7;}</style><linearGradient id="Namnlös_övertoning_971" x1="74.84" y1="151.53" x2="108.64" y2="151.53" gradientUnits="userSpaceOnUse"><stop offset="0" stop-color="#2b1811"/><stop offset="1" stop-color="#4d2e12"/></linearGradient><linearGradient id="Namnlös_övertoning_489" x1="103.72" y1="167.71" x2="162.65" y2="167.71" gradientUnits="userSpaceOnUse"><stop offset="0" stop-color="#c3997d"/><stop offset="1" stop-color="#8b5d3c"/></linearGradient><linearGradient id="Namnlös_övertoning_971-2" x1="139.57" y1="165.19" x2="189.48" y2="165.19" xlink:href="#Namnlös_övertoning_971"/><linearGradient id="Namnlös_övertoning_489-2" x1="168.16" y1="98.42" x2="178.92" y2="98.42" xlink:href="#Namnlös_övertoning_489"/><linearGradient id="Namnlös_övertoning_518" x1="113.44" y1="141" x2="148.37" y2="141" gradientUnits="userSpaceOnUse"><stop offset="0" stop-color="#93422d"/><stop offset=".08" stop-color="#a3503d"/><stop offset=".25" stop-color="#c06b5a"/><stop offset=".39" stop-color="#d27b6c"/><stop offset=".5" stop-color="#d98173"/><stop offset=".61" stop-color="#d47d6e"/><stop offset=".74" stop-color="#c87262"/><stop offset=".86" stop-color="#b35f4d"/><stop offset=".99" stop-color="#964530"/><stop offset="1" stop-color="#93422d"/></linearGradient><linearGradient id="Namnlös_övertoning_516" x1="114.48" y1="134.27" x2="148.57" y2="134.27" gradientUnits="userSpaceOnUse"><stop offset="0" stop-color="#93422d"/><stop offset=".5" stop-color="#d98173"/><stop offset="1" stop-color="#93422d"/></linearGradient><linearGradient id="linear-gradient" x1="135.28" y1="84.62" x2="157.37" y2="84.62" gradientUnits="userSpaceOnUse"><stop offset="0" stop-color="#56391e"/><stop offset="1" stop-color="#81624a"/></linearGradient><linearGradient id="Namnlös_övertoning_519" x1="94.97" y1="87.2" x2="116.05" y2="87.2" gradientUnits="userSpaceOnUse"><stop offset="0" stop-color="#81624a"/><stop offset="1" stop-color="#56391e"/></linearGradient><linearGradient id="Namnlös_övertoning_642" x1="95.91" y1="95.23" x2="119.67" y2="95.23" gradientUnits="userSpaceOnUse"><stop offset="0" stop-color="#9e8791"/><stop offset="1" stop-color="#6e6060"/></linearGradient><linearGradient id="Namnlös_övertoning_642-2" x1="137.89" y1="92.67" x2="160.83" y2="92.67" xlink:href="#Namnlös_övertoning_642"/><linearGradient id="Namnlös_övertoning_798" x1="83.42" y1="65.04" x2="141.29" y2="65.04" gradientUnits="userSpaceOnUse"><stop offset="0" stop-color="#a88e6e"/><stop offset="1" stop-color="#996b4e"/></linearGradient><linearGradient id="Namnlös_övertoning_1042" x1="62.52" y1="141.35" x2="139.86" y2="141.35" gradientUnits="userSpaceOnUse"><stop offset="0" stop-color="#b08e6e"/><stop offset=".53" stop-color="#a38160"/><stop offset="1" stop-color="#9f7d5c"/></linearGradient><linearGradient id="Namnlös_övertoning_821" x1="90.96" y1="59.34" x2="143.32" y2="59.34" gradientUnits="userSpaceOnUse"><stop offset="0" stop-color="#9f825f"/><stop offset="0" stop-color="#9e815e"/><stop offset=".2" stop-color="#9b7455"/><stop offset=".45" stop-color="#996d4f"/><stop offset="1" stop-color="#996b4e"/></linearGradient><linearGradient id="Namnlös_övertoning_798-2" x1="76.13" y1="76.58" x2="104.64" y2="76.58" xlink:href="#Namnlös_övertoning_798"/><linearGradient id="Namnlös_övertoning_1042-2" x1="135.57" y1="64.51" x2="192.18" y2="64.51" xlink:href="#Namnlös_övertoning_1042"/><linearGradient id="Namnlös_övertoning_1042-3" x1="137.12" y1="155.94" x2="232.53" y2="155.94" xlink:href="#Namnlös_övertoning_1042"/><linearGradient id="Namnlös_övertoning_798-3" x1="82.09" y1="35.15" x2="144.8" y2="35.15" xlink:href="#Namnlös_övertoning_798"/></defs><g id="BG-3"><circle class="cls-13" cx="131.31" cy="131.48" r="129"/></g><path class="cls-15" d="m68.83,149.85c-6.63,1.35-14.46,3.76-20.01,7.76-5.08,3.65-11.05,5.98-15.91,10.05-4.53,3.8-8.03,8.7-10.9,13.87-4.48,8.05-7.59,17.07-7.49,26.28.16,14.89,10.02,24.68,20.14,34.33,10.66,10.17,23.07,18.83,37.03,23.77,15.8,5.6,32.01,10.97,48.96,11.18,6.66.08,13.3-.65,19.89-1.55,5.76-.79,11.02-1.06,16.76-2.57,17.4-4.59,34.35-10.73,51.26-16.88,4.06-1.48,8.14-2.96,11.89-5.1,8.16-4.64,14.31-12.05,20.27-19.3,2.5-3.04,5.06-6.19,6.16-9.97,1.87-6.45-.86-13.27-3.83-19.3-5.51-11.2-12.41-22.31-22.99-28.94-13.66-8.57-30.83-8.2-46.92-9.37-26.91-1.96-53.16-8.97-79.75-13.56-11.74-2.03-24.7-3.36-34.75,3.03"/><path class="cls-25" d="m104.33,144.6c1.85,4.13,3.74,8.35,4.19,12.86.48,4.8-.69,9.61-.76,14.43-.05,3.67.54,7.32.59,10.99.07,4.73-.74,9.43-1.55,14.09-1.24,7.14-2.48,14.27-3.72,21.41-3.25-10.22-5.02-20.91-5.23-31.64-.07-3.85.05-7.7-.09-11.54-.7-19.84-8.31-38.81-17.49-56.42-1.63-3.12-3.31-6.22-4.56-9.51-.52-1.37-.97-2.82-.88-4.28.2-3.19,2.81-5.59,4.96-7.95,1.61-1.78,2.46-4.16,4.17-5.86,1.95-1.93,3.45-3.79,4.29-6.51.12,1.88.24,3.77.36,5.65.4,6.22.82,12.52,2.75,18.44,1.4,4.29,2.59,8.52,3.68,12.91,1.04,4.21,1.89,8.84,3.78,12.77.64,1.34,1.76,2.26,2.49,3.53,1.2,2.06,2.01,4.45,2.99,6.62Z"/><path class="cls-20" d="m105.96,149.19c1.37,2.62,1.36,5.76.76,8.65s-1.78,5.63-2.66,8.44c-.19.6-.36,1.22-.33,1.85.07,1.29,1,2.35,1.87,3.3,3.32,3.59,6.66,7.2,10.5,10.23s8.23,5.49,13.02,6.48c2.22.46,4.49.59,6.75.67,2.05.07,4.15.21,6.13-.3,1.8-.47,3.68-.26,5.29-1.37,1.12-.78,1.86-1.98,2.53-3.17,2.76-4.88,4.95-10.05,7.09-15.23,1.51-3.67,3-7.36,4.16-11.16.59-1.93,1.06-3.89,1.47-5.86.37-1.77-.25-3.47-.86-5.16-.69,1.97-2.62,3.2-4.44,4.23-3.88,2.2-7.85,4.23-11.91,6.08-2.78,1.26-5.62,2.45-8.59,3.14-7.47,1.73-15.73.08-21.75-4.67-1.36-1.07-2.6-2.28-3.98-3.33-1.7-1.29-3.6-2.32-5.27-3.66.71,1.64,1.12,3.41,1.2,5.19"/><path class="cls-34" d="m176.04,74.87c8.58,6.07,13.79,16.61,13.42,27.12-.18,5.01-1.53,9.89-2.99,14.68-4.86,15.96-11.02,31.53-18.39,46.5-3.24,6.58-6.72,13.06-9.36,19.91-4.12,10.72-6.07,22.12-7.99,33.44-2.86,16.78-5.71,33.56-8.57,50.34,1.73-7.08,0-14.47-1.12-21.67-3.54-22.86-.67-46.69,8.19-68.06,5.86-14.11,14.38-27.6,15.62-42.83.47-5.8-.12-11.81,1.87-17.28,1.61-4.43,3.84-7.59,3.88-12.5.03-3.91-.21-7.82-.72-11.69-.43-3.29-.65-7.71-2.32-10.61s-3.39-5.75-4.57-8.95c-.61-1.65-1.09-3.34-1.34-5.08-.09-.6.14-4.47-.11-4.67,4.72,3.82,9.33,7.72,14.48,11.36Z"/><path class="cls-33" d="m178.46,92.32c.65,2.07.66,4.41-.3,6.35-.47.94-1.14,1.77-1.59,2.71-1.44,3.04-.44,7.01-2.54,9.63-1.19,1.49-3.11,2.16-4.92,2.76.64-6.62,1.28-13.35.1-19.9-.48-2.65-1.25-5.31-1.01-7.99.06-.62.18-1.26.58-1.74,3.64-4.38,8.9,5.67,9.68,8.17Z"/><path class="cls-11" d="m96.34,129.52c.59,2.85,1.74,5.52,2.81,8.22,1.13,2.88,2.47,5.68,4.22,8.24.88,1.29,1.77,2.64,2.88,3.73,2.03,2,4.17,3.85,6.25,5.79.82.77,1.62,1.55,2.43,2.33,2.26,2.19,4.76,4.18,7.78,5.15,4.05,1.3,8.35,1.46,12.56,1.08,1.7-.15,3.31-.18,4.98-.6,1.85-.47,3.89-1.12,5.44-2.27,1.42-1.05,2.63-2.45,4.08-3.44,1.38-.94,2.73-1.91,4.05-2.94,3.98-3.1,8.52-7.11,10.45-11.88,2.12-5.27,2.93-10.95,3.47-16.56.59-6.12,1.57-12.35,1.78-18.49.05-1.55.08-3.09.11-4.64l.17-9.78c.02-1.33.22-2.72.08-4.02-.16-1.43-.69-2.93-1.07-4.32-.4-1.46-1.11-2.77-1.51-4.19-1.04-3.71-1.33-7.76-2.14-11.54-1.07-5.03-1.79-9.44-4.38-13.93-2.42-4.18-5.4-8.03-8.85-11.41-2.35-2.31-5.15-5.01-8.01-6.66s-6.8-1.69-9.98-1.98c-7.31-.68-14.94-.72-21.69,2.17-6.04,2.59-10.86,7.32-15.53,11.94-1.96,1.94-3.97,3.94-5.12,6.45-.96,2.1-1.26,4.44-1.54,6.73-.78,6.34-1.47,12.7-1.75,19.08-.14,3.18-.18,6.36-.06,9.55.06,1.58.15,3.16.28,4.73.09,1.02.18,2.1.39,3.1.18.86.23,1.76.44,2.62.57,2.36,1.4,4.65,2.06,6.99.71,2.52,1.28,5.09,1.91,7.63.14.56.28,1.12.4,1.69.12.6.22,1.2.33,1.79.29,1.61.62,3.21,1.01,4.8s.94,3.08,1.25,4.63c.01.06.03.13.04.19Z"/><path class="cls-14" d="m135.27,164.06c.14-.01.27-.02.41-.03-3.86-19.33-6.78-38.83-8.75-58.43-1.1-11-1.91-22.03-2.41-33.08-.46-9.97,1.05-22.34-.96-31.58.28.32.62.37,1.01.18.49-.55.67-1.24.54-1.96-.31-1.76-1.61-3.13-3.24-3.93-3.31.32-6.56,1.02-9.62,2.34-1.5.64-2.93,1.42-4.29,2.29-7.82,6.58-13.92,15.04-18.09,24.41-.7,5.82-1.31,11.65-1.56,17.5-.14,3.18-.18,6.36-.06,9.55.06,1.58.15,3.16.28,4.73.09,1.02.18,2.1.39,3.1.18.86.23,1.76.44,2.62.57,2.36,1.4,4.65,2.06,6.99.71,2.52,1.28,5.09,1.91,7.63.14.56.28,1.12.4,1.69.12.6.22,1.2.33,1.79.29,1.61.62,3.21,1.01,4.8.37,1.55.94,3.08,1.25,4.63.01.06.03.13.04.19.59,2.85,1.74,5.52,2.81,8.22,1.13,2.88,2.47,5.68,4.22,8.24.88,1.29,1.77,2.64,2.88,3.73,2.03,2,4.17,3.85,6.25,5.79.82.77,1.62,1.55,2.43,2.33,2.26,2.19,4.76,4.18,7.78,5.15,4.05,1.3,8.35,1.46,12.56,1.08Z"/><path class="cls-36" d="m144.26,46.77c-5.63-3.89-13.52-3-19.47.38s-10.41,8.83-14.72,14.15c-3.7,4.57-7.4,9.14-11.1,13.7-2.01,2.48-4.05,5.01-5.22,7.98-1.18,2.98-1.43,6.23-1.67,9.42-.44,5.95-.89,11.9-1.33,17.85-3.63-9.3-7.3-19.51-4.24-29.01,1.06-3.29,2.87-6.28,4.68-9.23,4.45-7.3,8.9-14.59,13.35-21.89,2.31-3.78,4.69-7.65,8.18-10.38,5.15-4.02,11.96-5.03,18.43-5.89,7.1,0,13.92-1.57,20.58,2.17,5.15,2.89,7.13,8.98,9.73,14.01,1.24,2.39,2.48,4.79,3.34,7.34.79,2.35,1.26,4.79,1.72,7.22.4,2.08.79,4.17,1.19,6.25.78,4.13,1.56,8.47.28,12.48-4.74-6.94-8.8-14.28-13.37-21.31-3-4.61-5.69-12.01-10.35-15.24Z"/><path class="cls-1" d="m122.5,95.6c.33,1.21.66,2.44.7,3.69.05,1.54-.33,3.06-.7,4.56-.19.73-.53,1.62-1.29,1.69-1.02.1-2.85-2.58-3.9-3.13-2.42-1.26-5.12-1.65-7.82-1.63-2.89.02-5.83.35-8.64-.32s-5.56-2.65-6.08-5.49c5.47-3.66,11.84-5.79,18.34-6.69,6.83-.95,7.63.88,9.38,7.32Z"/><path class="cls-16" d="m131.34,141.84c-2.4.19-4.71-.39-7.1-.16-2.19.22-4.36-1.01-6.13-2.21-.51,0-.87-.69-1.22-.98-.46-.37-1.04-.61-1.54-.93-.58-.37-1.13-.83-1.41-1.45,1.52-.15,3.03-.24,4.53-.46s3.17-.47,4.76-.25c1.45.2,3.09-.12,4.54-.28,1.67-.18,3.33-.42,4.98-.77,1.79-.37,4.15-1.34,5.95-.75s4.12.19,6.05.12c1.43-.05,2.93-.08,4.2.57-1.2.91-2.34,1.95-3.56,2.8-1.16.81-2.49,1.33-3.81,1.85-3.32,1.3-6.7,2.62-10.25,2.9Z"/><path class="cls-23" d="m124.71,145.89c5.48,2.26,12.53,1.67,16.83-2.54,2.61-2.55,4.3-5.91,6.83-8.54-.89.41-1.76.94-2.61,1.43-3.68,2.13-7.73,3.61-11.91,4.34-1.05.18-2.12.32-3.19.35-2.11.06-4.23-.48-6.31-.86-1.18-.21-2.37-.44-3.49-.86-.97-.36-1.88-.87-2.83-1.26-.81-.33-1.66-.59-2.44-.99-.77-.4-1.46-.94-2.15-1.48.52,1.1,1.53,1.86,2.36,2.73.58.61,1.09,1.28,1.63,1.93,1.18,1.44,2.53,2.74,4.01,3.88,1,.77,2.11,1.39,3.27,1.87Z"/><path class="cls-28" d="m114.83,124c-2.08,3.33-5.3,6.06-6.36,9.84,0-.47,2.29-2.15,2.69-2.55.78-.79,1.2-1.49,1.76-2.4,1.35-2.2,3.19-4.21,4.76-6.27.35-.46.7-.93.81-1.5.11-.55-.04-1.12-.07-1.69-.03-.75.17-1.51.56-2.15.36-.58.88-1.06,1.21-1.66.75-1.33.5-2.97.22-4.46-.66,2.63-1.97,5.01-3.01,7.49-.77,1.83-1.52,3.67-2.57,5.36Z"/><path class="cls-28" d="m149.94,124.14c1.43.76,2.98,1.41,4.04,2.64,1.09,1.25,1.51,3.05,1.11,4.66-.73-1.53-2.21-2.55-3.62-3.5-2.11-1.41-4.22-2.82-6.33-4.24-1.03-.69-2.06-1.38-2.97-2.22-1.59-1.46-2.85-3.31-3.79-5.25-.74-1.51-2.52-3.08-2.74-4.74,1.37.74,2.43,1.92,3.49,3.06,3.3,3.56,6.46,7.26,10.81,9.58Z"/><path class="cls-27" d="m136.84,119.91c.32-.07.67-.06.98.04.19.06.38.15.49.32.22.33.05.77-.14,1.13-.25.46-.52,1.13-.92,1.48-.33.29-.84.53-1.23.73-1.5.8-2.96.71-4.46,1.17-1.36.41-2.35,1.46-3.86,1.02-1.9,0-4.16-.97-6.03-1.35-.74-.15-1.52-.32-2.07-.84-1.39-1.32.16-3.14,1.5-3.58.96-.31,2.05-.18,2.91.34.67.41,1.2,1.03,1.89,1.42,1,.56,2.24.52,3.33.17,1.6-.51,2.62-1.73,4.43-1.6.69.05,1.4.26,2.05.03.28-.1.53-.28.81-.39.1-.04.21-.07.31-.1Z"/><path class="cls-8" d="m135.76,121.89c-1.9-.21-3.87.37-5.35,1.57.48.76,1.6.8,2.42.44s1.48-1.01,2.28-1.42c.33-.17.67-.29,1.01-.42-.26-.38-.8-.4-1.26-.37-.87.07-1.73.2-2.58.41"/><path class="cls-8" d="m126,124.93c.04-.84-.45-1.68-1.2-2.07-.49-.25-1.05-.31-1.59-.35-.64-.05-1.34-.07-1.85.33-.14.11-.27.28-.23.46.05.23.33.31.57.35.67.1,1.37.2,1.92.6.3.21.53.5.82.73s.66.39,1.02.3c.47-.13.72-.7.62-1.17s-.49-.85-.91-1.09c-.69-.4-1.54-.52-2.32-.32"/><path class="cls-2" d="m147.2,132.45l2.19.19c.53.05,1.12.12,1.47.52.48.54.25,1.46-.3,1.93s-1.3.62-2.02.7c.4-.3.7-.76.73-1.26s-.25-1.03-.72-1.21c-.3-.12-.63-.09-.94-.15s-.64-.28-.65-.6c1.12-.2,2.29-.08,3.34.35"/><path class="cls-10" d="m120.75,138.5c.42.53.89.57,1.53.43.16-.04.33-.09.44-.21.07-.08.12-.19.16-.29.2-.55.45-1.68-.02-2.18-.03-.04-.09-.06-.14-.07-.15-.03-.3,0-.44.02-.42.07-.86.2-1.29.18-.34-.01-.5-.11-.69.26-.28.57.09,1.4.45,1.85Z"/><path class="cls-10" d="m138.95,135.51c.04.37.09.75.21,1.11s.35.69.67.88c.6.35,1.39.14,1.93-.3.15-.12.29-.26.39-.43.19-.3.24-.66.26-1.01.02-.34,0-.69-.03-1.03,0-.05-.01-.1-.04-.14-.04-.05-.1-.07-.15-.09-.76-.25-1.57-.33-2.37-.26-.24.02-.83.02-.97.25-.12.19.06.8.09,1.02Z"/><path class="cls-12" d="m127.03,140.32c.95.33,2,.33,2.98.18.48-.07,1.06-.31,1.05-.79,1.2.29,2.47.3,3.68.04.45-.1.91-.24,1.27-.52s.62-.74.57-1.2c.65.23,1.36.27,2.03.13.14-.03.28-.07.39-.16.11-.09.17-.22.22-.36.21-.58.17-1.21.13-1.82-.03-.46-.06-.91-.09-1.37-.93-.2-1.9-.14-2.85-.07-.84.06-1.67.11-2.51.17-1.88.13-3.75.25-5.62.46-.39.04-.78.06-1.14.23-.23.1-.41.27-.65.33-.77.21-1.69-.07-2.5.03-.23.03-.91.3-.98.03-.19.94-.06,1.96.25,2.86.03.09.06.17.12.24.09.1.22.14.35.17.5.12,1.02.16,1.53.11.38-.04.67-.3.87.03.13.22.06.56.2.8.16.26.43.39.7.48Z"/><path class="cls-21" d="m124.83,133.4c.76-.23,1.49-.34,2.11-.19.89.21,1.52,1.04,2.39,1.32.99.32,2.06-.14,2.92-.73s1.64-1.32,2.63-1.65c1.79-.6,3.7.26,5.51.8,2.71.81,5.46.45,8.19,1.12-2.15.08-4.32.25-6.45.62-2,.35-4.06-.05-6.08.15-1.35.14-2.67.52-4,.78-1.96.39-3.95.55-5.94.68-1.66.11-3.33.19-5,.22-1.17.02-2.34.2-3.48-.03-.88-.18-2.18-.29-3.13-.66,2.25-.16,4.49-.53,6.68-1.09,1.02-.26,2.38-.96,3.67-1.34Z"/><path class="cls-10" d="m125.92,137.81c0-.17,0-.35.02-.52.04-.27.15-.53.32-.74.02.83-.02,1.66-.06,2.49-.11-.19-.19-.17-.26-.38s0-.61-.01-.85Z"/><path class="cls-10" d="m130.99,136.47c.12.68.17,1.38.14,2.07,0,.19.19,1.11.04,1.22-.26.18-.31-.65-.31-.79,0-.71,0-1.43.03-2.14.01-.29.03-.6.2-.83.16.99.25,1.99.33,2.99.02.25.06.52,0,.76-.53.2-.44-.98-.45-1.24-.03-.68-.02-1.36,0-2.03Z"/><path class="cls-10" d="m136.23,135.31c.07.06.16.1.24.15.27.19.3.57.31.89.01.37.09.81.03,1.17-.05.3-.13.44-.29.16-.14-.25-.05-.94-.09-1.24-.03-.22-.04-.99-.2-1.13Z"/><path class="cls-1" d="m134.62,162.7c-1.97-1.26-4.64-.95-6.83-1.58-2.14-.61-3.98-1.96-5.77-3.29-3.16-2.34-6.34-4.71-8.93-7.66-2.93-3.34-5.04-7.39-6.12-11.69-1.05-4.18.78-7.55,3.66-10.56,1.61-1.68,3.35-3.9,4.29-6.03.23-.53.43-1.1.42-1.68s-.3-1.18-.81-1.45c-.64-.33-1.43-.07-2.07.28-1.63.88-3.08,2.3-4.93,2.45-.76.06-1.51-.11-2.23-.35-3.14-1.04-5.63-3.34-7.79-5.76-2.11-2.36-4.32-4.78-6.68-6.93-.06.1-.1.22-.13.33.53,1.99,3.09,10.14,3.86,13.72.53,2.49,1.31,4.54,1.78,7.02.53,2.76,1.78,5.61,2.81,8.22,1.13,2.88,2.47,5.68,4.22,8.24.88,1.29,1.77,2.64,2.88,3.73,2.03,2,4.17,3.85,6.25,5.79.4.37.78.75,1.18,1.13.12.07.24.13.35.2,5.27,2.92,14.25,9.54,20.59,5.87Z"/><path class="cls-5" d="m137.4,87.6c-1.84,1.66-3.49,3.53-4.9,5.56-1.46,2.1-2.7,4.54-2.46,7.09.09.94.41,1.9,1.12,2.53.49.43,1.12.67,1.74.87,3.35,1.02,6.93.85,10.42.68,2.11-.11,4.24-.22,6.26-.81s3.96-1.74,5.11-3.51c-1.87-.62-3.91-.15-5.85.18-3.17.53-6.49.65-9.55-.33-1.23-.39-2.54-1.11-2.88-2.35-.27-.99.16-2.04.71-2.91,2.65-4.2,8.26-6.4,9.55-11.19-6.38,1.67-11.95,6.18-14.91,12.07"/><path class="cls-7" d="m139.5,88.22c-1.14.35-2.31.65-3.53.89-.64.13-.88.29-.53-.58.25-.61.87-1.16,1.34-1.61,2.06-1.96,4.46-3.51,6.93-4.9,1.48-.84,4.01-2.22,5.76-1.97.77.11,1.47.56,2.21.78,1.05.31,2.13.51,3.19.78.78.2,1.9.78,2.5,1.24-.42.69-2.19.06-2.85-.04-1.26-.18-2.46-.8-3.74-.99-.54-.08-1.09.15-1.51.5-.89.74-1.06,1.7-2.08,2.34-2.49,1.57-5,2.72-7.69,3.56Z"/><path class="cls-22" d="m109.88,85.7c-.22-.08-.45-.15-.67-.23-2.15-.74-5.15-1.23-7.36-.52-.79.25-1.53.66-2.26,1.06-1.54.85-3.08,1.7-4.62,2.54,2.24-1.23,5.32-2.02,7.87-1.75,3.35.35,6.67,1.57,9.86,2.61,1.03.33,2.21.65,3.14.09.1-.06.2-.14.21-.25.02-.13-.08-.24-.17-.33-1.59-1.62-3.9-2.49-6-3.21Z"/><path class="cls-35" d="m118.71,95.39c-.6-.58-1.33-1.09-1.72-1.41-1.48-1.2-3.05-2.34-4.8-3.11-2.25-.99-5.22-1.15-7.64-1.02-1.39.08-2.8.3-4.06.9-1.26.59-2.32,1.53-3.35,2.46-.5.46-1.03.96-1.18,1.62-.17.73.16,1.48.48,2.17.24.5.48,1.01.85,1.43.55.63,1.34,1,2.12,1.29,2.73,1.01,5.75,1.2,8.58.54-1.56-.24-3.13-.48-4.64-.97s-2.95-1.22-4.07-2.34c.06-.58.65-.93,1.16-1.19.73-.37,1.46-.74,2.19-1.11,2.05-1.04,4.33-2.06,6.63-1.21.72.26,1.37.67,2.06.99,1.3.61,2.48.22,3.77.73s2.6,1.09,3.54,2.13c.2.22.48.48.74.35.1-.05.17-.15.22-.26.26-.65-.24-1.37-.89-2Z"/><path d="m118.19,99.52c-.96-.89-1.73-1.89-2.72-2.75-2.31-2-4.81-4.03-8.02-4.01-1.71,0-3.38.6-4.87,1.44s-2.83,1.92-4.15,3c-.16.13-.22.33-.25.53,1.39-.41,2.78-1.05,4.04-1.77.87-.5,1.72-1.08,2.68-1.4,1.8-.61,3.82-.49,5.6.09,2.45.79,4.48,2.73,6.32,4.5.21.2.42.41.68.54s.58.18.84.04c-.12-.3-.42-.49-.69-.67-.83-.54-1.56-1.21-2.3-1.87"/><path d="m109.2,100.25c-2.74.18-5.44-.09-7.75-1.89-.29-.22-.56-.47-.82-.73-.17-.17-.51-.74-.72-.8-.49-.14-.91.33-1.32.51-.49.21-.98.31-1.45.62.48-.08.84.44,1.23.76.33.27.74.42,1.13.55,1.49.51,3.14,1.37,4.69,1.53,2,.21,4.02-.09,6.01-.4"/><path d="m112.62,92.86c-1.35-.78-2.86-1.33-4.41-1.41-.66-.03-1.31.02-1.96.1-.8.1-1.59.23-2.37.45-2.26.65-4.29,2.09-5.66,4,2.76-1.45,5.26-3.67,8.36-4.04,1.78-.21,3.6.23,5.23.97,1.56.7,2.96,1.68,4.36,2.64-1.13-.98-2.24-1.96-3.55-2.72Z"/><path class="cls-17" d="m148.86,86.78c1.15-.43,2.34-.82,3.57-.86.91-.03,1.81.13,2.7.29,1.43.26,2.93.57,3.99,1.57.97.91,1.4,2.25,1.61,3.56.15.97.19,2-.23,2.89-.62,1.3-2.13,2.06-3.42,2.56-1.48.57-2.95,1.01-4.42,1.68-.79.36-1.6.72-2.45.88-1.82.34-3.68-.27-5.53-.41,2.94-.17,6.22-.93,8.65-2.62.77-.53,1.55-1.13,1.94-1.98-.7-1.52-2.45-2.22-4.05-2.69-1.38-.41-2.81-.75-4.25-.65-1.04.07-2.05.38-3.03.74-1.13.42-2.1.85-2.95,1.7s-1.84,1.71-2.84,2.46c-.38-.41-.25-1.08-.02-1.6.63-1.46,1.73-2.67,2.99-3.65,2.31-1.79,5.05-2.84,7.76-3.86Z"/><path d="m105.62,97.78c.37.72,1.02,1.31,1.8,1.56,1.02.33,2.19.04,3-.66s1.26-1.76,1.29-2.83c0-.34-.02-.69-.17-1-.3-.6-.97-.89-1.59-1.13-1.07-.41-2.97-1.17-3.92-.12s-1.02,2.98-.4,4.18Z"/><path d="m137.24,97.91c1.31-2.36,3.15-4.47,5.51-5.77s5.27-1.72,7.8-.79c1.86.68,3.46,2.03,5.4,2.4-.86.42-1.83.85-2.73.53-.47-.17-.85-.52-1.25-.82-1.27-.99-2.85-1.57-4.46-1.65s-3.24.34-4.6,1.19c-.6.38-1.15.83-1.7,1.28-1.43,1.18-2.88,2.39-3.93,3.92.15-.79.54-1.54,1.11-2.11"/><path d="m156.28,94.91c-2.05,1.28-3.91,3.03-6.28,3.56-.89.2-1.8.21-2.71.23-.81.01-1.62.02-2.44.04,2.51-.09,5.07-.72,7.09-2.22.34-.25.66-.53,1.02-.75.47-.29,1-.46,1.54-.61.71-.19,1.44-.32,2.18-.4-.56.24-1.07.59-1.5,1.01"/><path d="m138.95,93.66c.29-.41.68-.74,1.08-1.05,2.5-1.91,5.64-3.02,8.79-2.92s6.27,1.46,8.36,3.81c-.03-.39-.17-.76-.36-1.11-.94-1.68-2.88-2.54-4.77-2.93-2.96-.62-6.1-.37-8.93.71-1.47.56-2.88,1.36-3.93,2.53-.27.3-.53.76-.3,1.09.43-.5.94-.92,1.51-1.24"/><path class="cls-27" d="m153.88,101.41c-.48.36-1.02.59-1.7.77-1.49.39-3.05.51-4.58.5-.85,0-1.69-.06-2.53-.14-.94-.09-1.82-.03-2.74-.3s-1.87-.67-2.72-1.19c-.22-.13-.41-.28-.54-.49-.06-.1-.13-.45-.19-.49,1.04.56,2.2.85,3.37.97s2.23.21,3.34.28c1.58.1,3.17.08,4.74-.14.89-.13,1.74-.45,2.62-.57.36-.05.6-.06.94-.22.37-.18.72-.43,1.14-.4,0,.21-.14.4-.27.57-.29.36-.57.64-.89.87Z"/><path class="cls-28" d="m108.83,105.63c-.55.1-1.11.18-1.66.21-2.58.15-5.17-.67-7.32-2.1.28.19,1.11.11,1.45.14.57.05,1.15.11,1.72.16,1.04.09,2.16.3,3.21.2,2.03-.2,4.08-.09,6.06-.68,1.34-.4,2.55-1.21,3.92-1.52-.37,1.01-2.1,1.86-3.03,2.29-1.25.59-2.6.96-3.95,1.23-.13.03-.26.05-.4.07Z"/><path d="m149.01,97.2c.61-.45,1.1-1.09,1.3-1.71.25-.79.15-2.16-.34-2.86-.46-.64-1.38-.88-2.11-.98-1.23-.17-2.58-.14-3.71.43-1.65.84-.82,3.6.1,4.65.25.29.51.57.84.77,1.24.74,2.8.54,3.93-.29Z"/><path class="cls-19" d="m126.04,42.62c2.71.48,5.51.48,8.23.04,2.31-.38,4.73-.9,6.45-2.57.35-.34.61-.82.58-1.31-.01-.24-.1-.47-.19-.69-.58-1.36-1.8-2.5-3.06-3.24-2.21-1.29-4.86-1.58-7.42-1.54-4.08.07-8.11.93-12.05,2-11.6,3.15-24.87,9.14-29.06,21.4-.95,2.77-1.35,5.69-1.75,8.58-1.45,10.49-2.89,20.99-4.34,31.48,7.03-7.06,13.42-14.67,17.6-23.73,4.1-8.88,6.85-18.47,12.51-26.56,1.27-1.82,2.8-3.63,4.91-4.33,2.44-.81,5.07.02,7.6.47Z"/><path class="cls-6" d="m76.96,63.52c-4.73,14.35-6.6,29.49-10.55,44.08-1.65,6.11-3.68,12.21-3.87,18.53-.22,7.48,2.16,14.75,3.27,22.15,1.72,11.37.46,23.05,2.41,34.38,1.3,7.53,3.98,14.74,6.65,21.9,2.39,6.4,5.02,13.15,10.42,17.34,3.58,2.78,8.12,4.59,12.17,6.61,1.24.62,2.55.93,3.58,1.9,1.51,1.43,2.62,3.54,3.64,5.32,2.24,3.93,3.92,8.17,5.19,12.51.64,2.19,1.17,4.41,1.62,6.65.4,1.98,1.18,4.43,1.07,6.46.52-9.34-1.61-18.8-6.01-27.05-1.03-1.94-2.61-3.73-3.49-5.71-.99-2.2-1.29-5.04-1.66-7.4-.78-5.02-.95-10.11-.78-15.18.35-10.82,2.14-21.56,2.26-32.38.18-16.18-3.42-32.39-10.44-46.97-3.68-7.65-8.3-14.88-11.16-22.88-5.14-14.38-4.06-31,3.5-44.27,7.23-12.69,19.16-18.46,32.25-23.73,3.4-1.37,7.04-2.59,10.65-2.02s7.12,3.48,7.12,7.14c2.47-1.84,5.2-4.18,5.08-7.25-.1-2.54-2.15-4.53-4.09-6.18-2.31-1.96-4.72-3.87-7.52-5.01-10-4.03-25.11,3.85-32.48,10.32-9.17,8.04-15.04,19.31-18.81,30.75Z"/><path class="cls-24" d="m143.32,35.41l-.55.66c.84-1.07.52-2.73-.4-3.73s-2.28-1.48-3.6-1.79c-3.29-.75-6.76-.73-10.1-1.25-3.63-.57-7.41-.77-10.95.38-3.44,1.12-6.36,3.42-9,5.87-6.67,6.19-12.19,13.79-15.07,22.43-3.1,9.32-3.01,19.4-2.2,29.19,1.11-8.35,2.24-16.76,4.77-24.79,1.3-4.11,2.96-8.1,4.96-11.91,4.07-7.75,9.81-14.97,17.66-18.83,3.36-1.65,8.43-3.09,11.95-1.16-5.21,1.09-9.72,2.84-13.99,6.2-4.4,3.46-8.07,7.89-10.45,12.95-1.2,2.55-2.06,5.23-2.92,7.91-2.32,7.22-4.67,14.59-4.65,22.18.01,3.38.5,6.75.98,10.1,2.66-15.12,5.74-30.34,12.23-44.25.94-2.02,1.98-4.05,3.63-5.55,1.18-1.07,2.61-1.82,4.07-2.48,3.83-1.74,7.9-2.94,12.06-3.56,1.82-.27,3.73-.43,5.47.16s3.3,2.1,3.41,3.94c1.7-.5,2.87-2.39,2.54-4.13s-2.09-3.09-3.85-2.95"/><path class="cls-32" d="m96.84,45.4c-5.39,2.4-9.43,7.21-11.99,12.53-2.55,5.32-3.77,11.17-4.79,16.98-.55,3.15-1.06,6.31-1.28,9.5-.38,5.55.11,11.14-.3,16.69-.27,3.67-.95,7.33-.86,11.01,4.56-7.6,9.25-15.56,9.93-24.39.2-2.5.06-5.01.03-7.52-.09-7.58.77-15.26,3.45-22.36,2.68-7.1,7.27-13.6,13.61-17.77-9.95,2.69-16.75,10.94-21.22,19.81-2.54,5.03-4.37,10.39-5.71,15.86-.65,2.63-1.18,5.3-1.42,7.99-.86,9.78,2.23,19.62,1.07,29.36"/><path class="cls-29" d="m137.22,23.16c5.28-3.72,12.65-2.85,18.47-.04,3.59,1.74,6.85,4.14,9.57,7.06,3.84,4.12,6.55,9.16,10.05,13.57,2.91,3.67,6.39,6.91,8.83,10.91,4.1,6.74,4.85,14.93,5.5,22.79.85,10.29,1.7,20.59,2.55,30.88-3.83-13.37-8.8-26.42-14.84-38.95-3.56-7.37-7.52-14.62-12.81-20.86-5.29-6.24-12.01-11.47-19.8-13.96-1.39-.44-2.84-.81-4.04-1.63-1.15-.78-2-1.92-2.96-2.93-.67-.71-1.43-1.38-1.84-2.26-1.03-2.2.54-4.91,2.71-5.99s4.72-.99,7.14-.87"/><path class="cls-30" d="m186.19,70.18c-1.77-8.19-3.77-16.93-9.2-23.57-2.51-3.07-5.42-5.26-9.17-6.49-4.09-1.34-7.54-3.86-11.8-4.82-2.4-.54-4.95-.77-7.3-.02-1.55.49-5.68,2.95-4.08,4.79.51.59,2.49.72,3.25,1.07,1.04.47,1.99,1.1,2.87,1.83,3.49,2.92,5.61,7.33,6.95,11.6,2.1,6.68,3.34,14.16,8.49,18.89,3.46,3.18,8.23,4.62,11.68,7.8,3.39,3.12,5.18,7.62,6.16,12.13,3.85,17.74-3.48,35.81-11.05,52.31-13.26,28.87-28.04,58.25-29.26,89.99-.54,14.11,1.33,29.51-6.6,41.2,29.4,1.87,57.7-10.71,83.51-24.9-2.64-5.63-2.81-12.37-.47-18.13,2.62-6.44,8.07-11.41,10.66-17.86,3.52-8.76,1.17-18.89-3.24-27.24s-10.72-15.53-15.77-23.51c-17.68-27.91-18.66-62.76-25.63-95.05Z"/><path class="cls-31" d="m144.2,36.88c1.14-4.14-.55-8.75-3.65-11.73-3.1-2.98-7.41-4.46-11.7-4.82s-8.59.33-12.8,1.2c-2.64.55-5.29,1.18-7.78,2.21-4.08,1.68-7.66,4.39-10.94,7.34-6.05,5.46-11.22,11.9-15.24,18.98,9.74-11.04,22.6-19.31,36.69-23.58,2.7-.82,5.57-1.5,8.33-.93,2.33.48,4.38,1.79,6.36,3.12,1.09.73,2.2,1.5,2.95,2.58,1,1.43,1.26,3.23,1.96,4.82s2.22,3.12,3.94,2.82c2.06-.36,2.81-3.05,2.34-5.09s-1.69-3.9-1.85-5.99"/><path class="cls-9" d="m161.51,118.01c-1.88,5.47-2.24,11.33-2.58,17.1-.22,3.72-.32,7.81,2,10.72.28.35.6.68,1,.88.82-.81,1.08-2.01,1.62-3.01.72-1.32,1.4-2.62,1.91-4.04.99-2.77,1.48-5.7,1.76-8.62.37-3.85.38-7.72.77-11.56.4-3.85,1.09-7.66,1.36-11.53,0-.14.02-.29-.05-.41-.1-.17-.32-.23-.51-.21-1.7.13-3.4,2.16-4.19,3.49-1.28,2.13-2.28,4.85-3.09,7.19Z"/><path class="cls-26" d="m154.83,119.96c-3.12.16-6.21-.95-8.79-2.71-1.19-.81-2.79-1.78-3.92-.89-.7.55-.8,1.63-.46,2.46s1.01,1.47,1.66,2.08c1,.94,1.99,1.88,2.99,2.82,1.82,1.72,3.7,3.47,6.02,4.41,5.17,2.1,12.57.46,14.68-5.17.31-.82.45-1.68.6-2.54,1.07-6.4,3.67-14.41,2.38-20.87-.08-.41-.19-.85-.49-1.14s-.85-.37-1.13-.05c-.15.18-.18.42-.21.66-.89,7.57-3.6,20.46-13.33,20.95Z"/><path class="cls-27" d="m137.13,150.77c-.17-.17-.43-.21-.67-.23-1.4-.14-2.79-.29-4.19-.43-2.31-.24-5.79.49-6.59,3.01,1.27-.24,2.42-.87,3.64-1.31,2.98-1.09,6.26-1.01,9.41-.66-.4-.54-1.09-.78-1.74-.95-1.88-.49-3.85-.63-5.79-.42-.79.09-1.45.2-2.12.57-.4.22-1.48,1.51-1.89,1.47,1.58.17,3.12-.44,4.67-.62.8-.1,4.73-.95,5.26-.42Z"/><path class="cls-18" d="m104.35,121.65c-1.69-.5-3.18-1.49-4.64-2.46-2.12-1.41-4.23-2.81-6.35-4.22.47,2.95,1.05,5.89,1.74,8.8.55,2.35,1.32,4.89,3.32,6.25,1.32.89,2.99,1.12,4.59,1.05,4.93-.21,10.68-3.54,12.49-8.35,1.24-3.29.64-3.35-2.28-2.6-3.21.83-5.28,2.61-8.86,1.54Z"/><path class="cls-3" d="m99.84,44.34c-6.83,5.06-12.48,11.53-16.11,19.28-3.33,7.12-4.83,14.93-6.31,22.65-2.1,11.01-4.2,22.35-1.98,33.33,1.61,7.94,5.4,15.27,7.51,23.09,3.34,12.35,2.38,25.39,2.44,38.19.03,7.1.39,14.24,2.01,21.15,2.93,12.49,9.91,23.98,15.43,35.67,4.54,9.61,8.09,19.35,7.6,29.88"/><path class="cls-3" d="m76.13,93.35c-.75,3.49-3.32,8.97-3.74,12.51-.36,2.99-2.41,5.3-3.35,14.01-.73,6.79,1.18,12.05.45,18.84-1.09,10.25-.2,20.72,2.64,30.64,1.57,5.46,3.73,10.78,4.67,16.39,1.42,8.39.08,17.14,2.15,25.4,2.39,9.53,9,17.32,14.29,25.6"/><path class="cls-3" d="m189.49,128.61c-1.95,22.12-10.95,43.15-14.73,64.78-3.81,21.85-5.22,45.93,7.21,64.29"/><path class="cls-4" d="m161.87,52.01c5.91.56,10.72,5.03,14.08,9.92,5.95,8.63,8.79,19.01,10.87,29.28,2.76,13.6,4.37,27.42,4.82,41.29.28,8.58.12,17.22,1.65,25.67,1.23,6.8,3.54,13.36,5.83,19.88,2.46,7,4.93,13.99,7.39,20.99,1.76,5,3.53,10.05,4.13,15.31,1.42,12.54-3.91,24.75-9.12,36.25"/><path class="cls-3" d="m74.91,116.32c.65,7.83,8.94,18.8,12.57,25.39,4.46,8.09,3.61,17.31,3.35,26.24-.47,16.3,1.16,32.67,4.85,48.55"/></svg>