<?xml version="1.0" encoding="UTF-8"?><svg xmlns="http://www.w3.org/2000/svg" xmlns:xlink="http://www.w3.org/1999/xlink" viewBox="0 0 262 280"><defs><style>.cls-1,.cls-2,.cls-3,.cls-4{fill:none;}.cls-5{fill:url(#Namnlös_övertoning_2251);}.cls-6{fill:url(#Namnlös_övertoning_2249);}.cls-7{fill:url(#linear-gradient);}.cls-8{fill:#693f47;}.cls-9{fill:#ecceb7;}.cls-10{fill:#eaeaea;}.cls-11{fill:#f5deae;}.cls-12{fill:#fff;}.cls-13{fill:#e6bea0;}.cls-14{fill:#e5d8cf;}.cls-15{fill:#685448;}.cls-16{fill:#d0cabf;}.cls-17,.cls-18,.cls-19,.cls-20{fill:#d5a38a;}.cls-21{fill:#d9ad96;}.cls-22,.cls-23{fill:#c98969;}.cls-24{fill:#232322;}.cls-25{fill:#0d0a05;}.cls-26{fill:#452d1e;}.cls-27{fill:#1b1b1a;}.cls-28{fill:#543430;}.cls-29{fill:url(#Namnlös_övertoning_334);}.cls-30{fill:url(#Namnlös_övertoning_123);}.cls-31{fill:url(#Namnlös_övertoning_122);}.cls-32{fill:url(#Namnlös_övertoning_126);}.cls-33{fill:url(#Namnlös_övertoning_124);}.cls-34{fill:url(#Namnlös_övertoning_308);}.cls-35{fill:url(#Namnlös_övertoning_318);}.cls-36{fill:url(#Namnlös_övertoning_122-2);}.cls-37{fill:url(#Namnlös_övertoning_308-2);}.cls-38{fill:url(#linear-gradient-4);}.cls-2{stroke:#a3876d;stroke-linecap:round;stroke-linejoin:round;}.cls-2,.cls-3,.cls-4{stroke-width:.25px;}.cls-39{fill:url(#Namnlös_övertoning_85);opacity:.49;}.cls-40{fill:url(#linear-gradient-3);}.cls-40,.cls-41,.cls-23,.cls-19{opacity:.7;}.cls-41{fill:url(#linear-gradient-2);}.cls-18{opacity:.57;}.cls-3{stroke:#ceb17a;}.cls-3,.cls-4{stroke-miterlimit:10;}.cls-4{stroke:#000;}.cls-20,.cls-42{opacity:.4;}.cls-42{fill:#c1c1c1;}.cls-43{fill:#c37e5a;opacity:.64;}</style><linearGradient id="linear-gradient" x1="112.62" y1="177.7" x2="120.31" y2="177.7" gradientUnits="userSpaceOnUse"><stop offset="0" stop-color="#56391e"/><stop offset="1" stop-color="#81624a"/></linearGradient><linearGradient id="Namnlös_övertoning_122" x1="64.78" y1="176.61" x2="120.88" y2="176.61" gradientUnits="userSpaceOnUse"><stop offset="0" stop-color="#7b5f40"/><stop offset="1" stop-color="#a28664"/></linearGradient><linearGradient id="linear-gradient-2" x1="109.33" y1="106.46" x2="118.1" y2="106.46" xlink:href="#linear-gradient"/><linearGradient id="linear-gradient-3" x1="139.2" y1="102.57" x2="144.65" y2="102.57" xlink:href="#linear-gradient"/><linearGradient id="linear-gradient-4" x1="130.33" y1="88.9" x2="168.66" y2="88.9" xlink:href="#linear-gradient"/><linearGradient id="Namnlös_övertoning_334" x1="91.45" y1="98.15" x2="119.05" y2="98.15" gradientUnits="userSpaceOnUse"><stop offset="0" stop-color="#81624a"/><stop offset="1" stop-color="#56391e"/></linearGradient><linearGradient id="Namnlös_övertoning_85" x1="104.45" y1="133.43" x2="121.76" y2="133.43" gradientUnits="userSpaceOnUse"><stop offset="0" stop-color="#aa8260"/><stop offset="1" stop-color="#d0997d"/></linearGradient><linearGradient id="Namnlös_övertoning_2249" x1="121.22" y1="144.47" x2="156.65" y2="144.47" gradientUnits="userSpaceOnUse"><stop offset="0" stop-color="#543430"/><stop offset="1" stop-color="#b26b50"/></linearGradient><linearGradient id="Namnlös_övertoning_318" x1="121.48" y1="141.01" x2="156.89" y2="141.01" gradientUnits="userSpaceOnUse"><stop offset="0" stop-color="#cf907c"/><stop offset=".53" stop-color="#b96751"/><stop offset="1" stop-color="#cf907c"/></linearGradient><linearGradient id="Namnlös_övertoning_308" x1="120.94" y1="148.12" x2="156.61" y2="148.12" gradientUnits="userSpaceOnUse"><stop offset="0" stop-color="#cf907c"/><stop offset=".53" stop-color="#b76751"/><stop offset="1" stop-color="#cf907c"/></linearGradient><linearGradient id="Namnlös_övertoning_122-2" x1="88.33" y1="58.24" x2="140.44" y2="58.24" xlink:href="#Namnlös_övertoning_122"/><linearGradient id="Namnlös_övertoning_123" x1="137.07" y1="58.09" x2="193.81" y2="58.09" gradientUnits="userSpaceOnUse"><stop offset="0" stop-color="#a28664"/><stop offset="1" stop-color="#7b5f40"/></linearGradient><linearGradient id="Namnlös_övertoning_308-2" x1="121.21" y1="146.29" x2="128.08" y2="146.29" xlink:href="#Namnlös_övertoning_308"/><linearGradient id="Namnlös_övertoning_2251" x1="152.2" y1="140.19" x2="157.77" y2="140.19" gradientUnits="userSpaceOnUse"><stop offset="0" stop-color="#cf907c"/><stop offset="1" stop-color="#b96751"/></linearGradient><linearGradient id="Namnlös_övertoning_126" x1="96.15" y1="34.26" x2="135.85" y2="34.26" gradientUnits="userSpaceOnUse"><stop offset="0" stop-color="#886542"/><stop offset=".34" stop-color="#a48358"/><stop offset=".77" stop-color="#c2a470"/><stop offset="1" stop-color="#ceb17a"/></linearGradient><linearGradient id="Namnlös_övertoning_124" x1="138.39" y1="33.22" x2="177.5" y2="33.22" gradientUnits="userSpaceOnUse"><stop offset="0" stop-color="#ceb17a"/><stop offset=".26" stop-color="#c2a471"/><stop offset=".75" stop-color="#a3835c"/><stop offset="1" stop-color="#917050"/></linearGradient></defs><g id="Line"><g id="BG-3"><circle class="cls-11" cx="131.31" cy="131.48" r="129"/></g><path class="cls-25" d="M68.11,195.07c-11.24,5.12-20.2,14-26.97,24.19-2.02,3.03-8.69,11.44-7.78,15.14,.81,3.31,10.7,8.59,13.46,10.57,9.51,6.82,19.54,12.96,30.07,18.07,37.08,17.97,79.55,18.27,117.67,2.49,12.43-5.15,23.94-13.04,32.62-23.38,4.21-5.03,7.74-10.64,10.25-16.71,2.54-6.14,5.96-11.48,7.37-18.13,.48-2.27,.79-4.68,.08-6.9-.51-1.62-1.54-3.03-2.62-4.34-9.4-11.38-23.85-17.05-37.65-22.28-7.7-2.91-15.94-5.88-23.98-4.1-6.59,1.46-12.05,5.91-18.15,8.79-7.64,3.61-16.11,4.65-24.48,4.46-7.52-.17-17.03-3.84-24.24-2.59s-15.23,6.17-22.77,7.96-15.59,3.44-22.87,6.75Z"/><path class="cls-24" d="M230.57,192.55c.31,.16,.62,.33,.93,.49,2.03,1.08,3.93,2.39,6.01,3.37,.64,.3,6.41,1.63,6.41,1.63-2.34-5.12-7.22-8.52-11.91-11.62-14.82-9.78-29.6-16.61-47.71-17.26,1.15,2.63-1.74,5.87-.36,8.38,.94,1.71,3.24,1.95,5.18,2.07,10.65,.69,20.87,4.07,30.75,7.88,3.77,1.45,7.18,3.2,10.7,5.06Z"/><path class="cls-24" d="M58.22,202.09c4.46-.42,8.98-.11,13.33,.92-7.96,5.67-15.8,11.53-23.5,17.55,2.4,.63,4.74,1.46,6.99,2.49,1.96,.9,4.09,2.32,4.17,4.47,.08,2.24-2.08,3.81-3.94,5.05-2.16,1.44-3.89,3.47-5.85,5.15s-4.21,2.94-6.4,4.16c-.22,.12-.45,.25-.69,.24-.29,0-.55-.18-.79-.36-2.07-1.5-4.13-2.99-6.2-4.49-.44-.32-.89-.65-1.24-1.07-2-2.44-.55-4.58,.47-6.95,.62-1.42,1.48-2.75,2.26-4.08,2.42-4.1,5.12-8.04,8.04-11.8,2.32-2.99,4.68-6.02,7.7-8.3s6.83-3.76,10.58-3.22"/><path class="cls-7" d="M113.89,180.29c1.26,3.2,3.1,6.15,4.23,9.39,.17,.5,.45,1.1,.98,1.09,.54,0,.82-.65,.91-1.19,.33-1.79,.32-3.61,.27-5.43-.13-4.19-.51-8.37-.64-12.56-.05-1.59,1.05-7.1-1.26-6.98-1.86,.1-4.06,3.73-4.75,5.14-1.64,3.35-1.05,7.17,.27,10.52Z"/><path class="cls-13" d="M186.39,82.69c1.14-1.29,3.43-.61,4.39,.81,.96,1.42,1.01,3.25,1.16,4.96,.26,2.85,.9,5.65,1.01,8.51,.29,7.19-2.72,14.04-5.67,20.6-.33,.74-.68,1.51-1.28,2.06-.6,.55-1.52,.83-2.25,.46-.88-.46-1.08-1.61-1.18-2.61-.44-4.6-.88-9.2-1.32-13.81-.62-6.46-1.06-13.61,2.85-18.79,1.35-1.79,3.75-3.31,5.75-2.3"/><path class="cls-17" d="M188.79,105.47c-.24,.79-.54,1.58-1.11,2.17s-1.48,.92-2.24,.6c-.78-.33-1.15-1.21-1.41-2.01-.17-.52-.32-1.14,.02-1.57,.25-.31,.68-.41,1.04-.56,1.23-.53,1.88-1.89,2.25-3.18,.32-1.11,.1-7.61,2.12-5.35,1.6,1.8-.06,7.89-.67,9.9Z"/><path class="cls-2" d="M97.99,118.75c-1.78,4.21-3.57,8.42-5.35,12.62-.88,2.07-1.76,4.15-2.34,6.32-2.38,8.8,.65,18.83,7.49,24.86"/><path class="cls-2" d="M99.28,125.17c-.66,4.99-1.32,10.02-.99,15.05,.33,5.02,1.71,10.1,4.77,14.1"/><path class="cls-2" d="M98.24,120.57c-.72,4.01-2.99,7.56-4.41,11.38-2.57,6.91-2.25,14.85,.88,21.53"/><path class="cls-17" d="M168.99,167.06c-2.23,1.7-4.81,2.85-7.37,4-2.86,1.28-5.71,2.55-8.57,3.83,3.98-6.72,8.05-13.55,13.91-18.7,2.95-2.6,5.85-4.96,8.4-7.95,3.11,5.96-1.46,15.09-6.37,18.83Z"/><path class="cls-27" d="M184.68,148.92c.94,2.11,1.16,4.47,1.38,6.77,.27,2.94-.15,5.87-.41,8.81-.03,.36-.06,.75,.08,1.08,.13,.32,.4,.57,.6,.85,1,1.47-.05,3.51-.19,5.09-.19,2.06,.76,2.79,1.2,4.71,.22,.95-.09,1.94-.1,2.92-.04,2.78,1.17,3.85-.83,6.03-3.36,3.69-6.36,6.35-10.88,8.5-4.26,2.03-8.71,3.67-13.27,4.86-9.12,2.37-18.89,2.91-28.05,.43-3.08-.83-5.55-2.5-8.47-3.66-3.74-1.48-6.84-3.99-9.84-6.61,.39-1.23,.79-2.56,.39-3.78-.14-.43-.38-.86-.34-1.32,.04-.44,.35-.81,.54-1.21,.46-.93,.33-2.04,.18-3.07-.54-3.84-.66-7.73-1.07-11.61-.14-1.35-.28-2.7-.43-4.05-.13-1.22-1.32-5.16,.45-4.8,1.14,.24,2.09,2.69,2.7,3.55,1.93,2.75,3.86,4.27,6.99,5.14,3.95,1.1,7.69,3.36,11.56,4.78,3.39,1.24,6.96,2.31,10.56,1.97,2.02-.19,3.97-.83,5.9-1.47,3.11-1.02,6.22-2.04,9.32-3.06,2.4-.79,4.84-1.59,6.94-3,3.65-2.45,6.01-6.72,6.14-11.12,.05-1.84-.26-3.71,.07-5.52,.27-1.51,2.22-6.54,4.03-6.81,1.69-.25,4.24,4.25,4.84,5.6Z"/><path class="cls-31" d="M107.2,159.64c-.17,.46-.37,.93-.77,1.2-.79,.54-1.89,.02-2.56-.68s-1.19-1.58-2.08-1.97c-1.27-.55-2.8,.23-3.56,1.39-.76,1.16-.95,2.59-1.13,3.96-.51,3.85-1.15,7.74-2.76,11.27-1.6,3.54-4.29,6.73-7.9,8.17-4.06,1.63-8.71,.88-12.9,2.16-3.93,1.2-7.25,4.26-8.77,8.07,3.45-2.37,7.86-3.31,11.98-2.55,3.33,.61,6.38,2.26,9.62,3.23s7.04,1.18,9.76-.85c-1.22,2.29-3.55,3.94-6.11,4.33,2.16,.6,4.51,.48,6.59-.33-1.15,1.05-2.3,2.1-3.45,3.15,6.37,2.03,14.02-1.92,16.04-8.3,.64,3.57-.41,7.41-2.78,10.17,1.96-1.02,3.64-2.57,4.82-4.44-.05,1.86-.75,3.69-1.96,5.1,2.09-1.62,3.95-3.53,5.53-5.65,.23,2.12-.66,4.33-2.3,5.7,5.51-3.15,8.22-10.47,6.07-16.44-1.55-4.31-5.31-8.12-4.8-12.67,.17-1.54,.89-3.01,1.96-4.13,.81-.86,2.01-1.06,2.89-1.78,1.19-.98,2.83-2.48,2.01-4.02-1.16-2.18-2.34-4.37-3.84-6.34-1.71-2.24-3.8-4.15-5.88-6.05-.5-.46-1.08-.94-1.75-.9-1.38,.08-1.46,7.78-1.98,9.2Z"/><path class="cls-3" d="M114.13,158.35c-3.87,2.13-5.37,6.87-6.25,11.21-.44,2.17-1.42,4.91-3.64,4.91-.78,0-1.53-.39-2.31-.33-1.67,.12-2.48,2.04-3.12,3.58-2.8,6.71-9.38,11.68-16.59,12.54"/><path class="cls-9" d="M182.67,109.89c-.04-7.19-.38-14.25-1.1-21.4-.44-4.33,.26-8.76-.35-13.04-1.24-8.71-3.48-21.41-10.47-27.41-4.89-4.19-8.34-9.1-14.2-12.25-10.95-5.89-23.77-5.51-35.05-.85-8.72,3.6-17.67,7.82-23.36,15.34-5.71,7.55-7.33,17.47-7.08,26.93,.08,3.01,1.08,6.18,.72,9.16-.33,2.78-.01,5.35-.04,8.17-.03,2.42-.14,4.71,.46,7.09,.69,2.75,1.58,5.22,1.8,8.07s.31,5.85,1.02,8.73c1.47,5.91,2.42,12.33,5.16,17.78,1.49,2.96,2.69,6.05,4.17,9.01,1.28,2.56,3.53,4.56,5.53,6.6,3.22,3.28,5.95,6.31,8.5,10.21,3.44,5.27,7.02,9.67,12.37,13.07,5,3.18,10.91,4.97,16.8,3.62,1.65-.38,3.18-1.14,4.68-1.94,3.62-1.93,6.61-4.13,9.38-7.18,2.59-2.85,4.79-6.03,7.07-9.13,1.78-2.42,4.08-4.61,5.49-7.22,1.64-3.03,3.57-5.91,4.91-9.09,1.79-4.26,2.9-9.24,3.33-13.84,.74-7.79,.28-12.59,.24-20.42Z"/><path class="cls-21" d="M145.86,179.17c1.82-.31,3.53-1.02,5.11-1.71-.85-1.28-.93-2.46-1.59-3.81-.76-1.56-1.79-2.98-2.57-4.54-2.43-4.87-4.53-9.89-6.39-15.01-3.7-10.16-6.44-20.65-8.92-31.16-3.82-16.18-7.09-32.61-7.2-49.23-.06-8.21,.74-16.67-1.14-24.74-1.67-7.14-4.62-6.55-11.36-6.89-1.66-.09-3.33,0-4.99,.26-3.29,2.19-6.26,4.77-8.65,7.93-5.71,7.55-7.33,17.47-7.08,26.93,.08,3.01,1.08,6.18,.72,9.16-.33,2.78-.01,5.35-.04,8.17-.03,2.42-.14,4.71,.46,7.09,.69,2.75,1.58,5.22,1.8,8.07,.23,2.94,.31,5.85,1.02,8.73,1.69,6.77,3.03,13.99,6.25,20.23,1.92,3.72,3.55,8.27,6.51,11.31,.95,.98,2.05,1.81,3.07,2.72,2.85,2.55,5.03,5.86,7.31,8.91,4.2,5.61,7.68,10.82,13.91,14.4,3.21,1.84,6.98,3.3,10.81,3.42,.97,.03,1.97-.06,2.97-.23Z"/><path class="cls-20" d="M164,72.35c-1.46-1.6-2.74-3.38-3.73-5.48-1.6-3.41-3.69-6.59-6.17-9.42-1.91-2.18-4.14-4.21-6.89-5.13-2.19-.73-4.56-.71-6.86-.58-7.76,.45-15.44,2.13-22.68,4.94-6.99,2.72-13.7,6.52-21.14,7.46-.46,.06-.95,.1-1.38-.1-1.36-.64-.64-2.73,.39-3.83,3.07-3.29,7.24-5.29,11.3-7.22,5.43-2.58,10.9-5.17,16.71-6.7,2.05-.54,4.29-1.03,5.69-2.63,.71-.81,1.13-1.83,1.53-2.83,2.25-5.52,4.49-11.05,6.74-16.57,.22-.53,.55-1.15,1.12-1.19,.23-.01,.45,.07,.66,.17,6.02,2.69,7.73,10.69,13.12,14.48,2.73,1.93,6.18,2.6,8.98,4.43,3.27,2.13,5.34,5.63,7.29,9.01,3.82,6.63,9.68,13.19,11.96,20.5,.71,2.27,1.03,4.64,1.66,6.93,.78,2.84,2.04,5.54,2.79,8.39s.94,6-.35,8.65c-.62-2.46-1.68-4.8-3.13-6.88-1.71-2.45-3.93-4.51-6.15-6.51-3.9-3.51-8.14-6.24-11.46-9.89Z"/><path class="cls-19" d="M102.9,117.54c3.46-.18,6.97-.61,10.12-2.05,3.15-1.44,5.92-4.02,6.89-7.34,.23-.8,.36-1.66,.2-2.48-.22-1.19-1.01-2.19-1.88-3.02-2.58-2.49-6.07-3.91-9.63-4.42s-7.18-.15-10.7,.55c-1.7,.34-3.64,.97-4.22,2.61,1.35,1.5,3.68,1.41,5.7,1.34,4.88-.15,9.78,.54,14.42,2.05,1.09,.36,2.22,.79,2.96,1.68s.89,2.35,.03,3.12c-.93,.83-2.49,.48-3.46,1.25,.94-.47,2.05-.6,3.08-.36-4.26,3.31-9.25,5.69-14.51,6.91,1.55,.44,3.21,.46,4.77,.07"/><path class="cls-18" d="M148.07,91.84c-.58,.59-1.36,.92-2.04,1.39-1.01,.7-1.77,1.7-2.51,2.68-1.45,1.92-2.9,3.83-4.35,5.75-.41,.54-.84,1.23-.55,1.84,.16,.35,.51,.57,.85,.75,5.42,2.97,12.25,3.23,17.88,.66,.13,1.07-1.16,1.69-2.21,1.92-3.87,.85-7.89,1.06-11.83,.61-1.39-.16-2.89-.38-4.12,.29-2.15,1.17-2.16,4.38-.96,6.52,1.19,2.13,3.21,3.7,4.5,5.78,1.3,2.07,1.61,5.19-.34,6.66-.07-1.33-.75-2.62-1.8-3.43-.72-.56-1.59-.9-2.37-1.37-2.48-1.51-3.87-4.27-5.05-6.91-1.62-3.6-3.13-7.41-2.96-11.35,.19-4.48,2.62-8.72,6.1-11.56,2.51-2.04,5.58-3.47,8.73-4.17,2.54-.56,5.92,1.06,3.05,3.96Z"/><path d="M148.38,101.35c.74,.43,1.67,.36,2.52,.23,.54-.08,1.08-.19,1.62-.31,.61-.14,1.23-.3,1.76-.64,1.07-.67,1.64-2.05,1.37-3.28-.64-2.9-4.83-3.96-7.17-2.59-2.08,1.21-2.21,5.36-.09,6.59Z"/><path d="M105.71,108.25c0,.29,.03,.59,.1,.87,.21,.89,.84,1.73,1.73,1.98,1.74,.49,3.66-.59,5.13-1.38,.43-.23,.88-.51,1.09-.95,.24-.48,.14-1.05,.05-1.58-.24-1.31-.87-2.52-2.28-2.83-.84-.18-1.63,.07-2.47,.1-1.38,.04-2.66,.56-3.06,1.94-.17,.6-.3,1.22-.29,1.84Z"/><path d="M160.29,96.91c1.66,.22,3.43-.34,4.98,.28-2.8-1.53-5.66-3.02-8.74-3.83-3.08-.81-6.44-.91-9.4,.29-3.07,1.25-5.36,3.99-6.12,7.21,2.12-2.61,4.69-4.53,7.99-5.4,2.31-.61,4.75-.66,7.1-.29,1.93,.31,3.28,1.53,5.19,1.85"/><path d="M158.62,99.31c1.32-.8,2.5-1.82,3.88-2.5-1.31,.65-2.45,2.24-3.77,3.03s-2.83,1.44-4.36,1.87c-3.38,.96-6.73,.24-10.16,.83,2.7-.94,5.35-.54,8.1-1.02,2.21-.38,4.39-1.05,6.31-2.22Z"/><path d="M149.66,95.45c-1.18-.96-1.4-2.9-.45-4.09-.12,1.31,.05,2.64,.49,3.88,.52-1.28,1.68-2.92,1.67-4.3,.43,.59,.5,1.38,.33,2.08s-.58,1.33-1.04,1.9c-.06,.07-.15,.14-.22,.09s-.76,.35-.78,.44Z"/><path d="M155.19,90.89c-.05,.46,.18,4.23-1.21,3.31,.55-1.07,1.07-2.08,1.21-3.31Z"/><path d="M157.43,92.37c2.25,.45,4.4,1.39,6.26,2.74-3.48-1.69-7.3-2.69-11.17-2.92-1.45-.09-2.92-.06-4.35,.25-2.87,.63-5.33,2.39-7.71,4.11,.36-.26,.64-1.12,1-1.49,.46-.46,.87-.62,1.42-.91,1.38-.72,2.75-1.35,4.26-1.76,3.36-.91,6.92-.7,10.3-.03Z"/><path d="M159.06,91.82c-.05,.42-.85,4.21-1.63,3.17-.42-.56,1.53-2.35,1.63-3.17Z"/><path class="cls-41" d="M109.33,104.34c.87,.16,1.73,.31,2.6,.47,.46,.08,.93,.17,1.38,.31,1.29,.41,3.69,2.04,4.26,3.32,.05,.12,.12,.27,.25,.29,.13,.03,.26-.1,.28-.24s-.03-.27-.09-.39c-1.07-2.42-3.41-3.59-6.04-3.9-.84-.1-1.86,.28-2.63,.14Z"/><path d="M112.66,103.61c.38,.11,.75,.25,1.12,.42,.99,.45,2.05,.92,2.61,1.91-.53,.19-1.36-.59-1.85-.8-.77-.33-1.61-.52-2.44-.59-1.53-.13-3.07,.13-4.54,.56-1.74,.51-3.45,1.3-4.85,2.47-.36,.31-3.23,3.44-2.2,3.79-.06-.02-.71,.45-.82,.5-.3,.14-.67,.3-1,.28,.31-.92,.46-2.15,.96-2.99,1.76-2.99,3.21-4.36,6.4-5.39,2.13-.68,4.47-.81,6.6-.17Z"/><path d="M105.8,111.52c.96,.04,1.91,.17,2.87,.1,2.98-.22,5.57-2.4,8.55-2.49-1.13-.43-2.4-.51-3.57-.2-1.78,.46-3.26,1.73-5.02,2.24-1.32,.37-2.72,.3-4.09,.36-1.04,.05-1.97,.36-2.97,.52,1.32-.46,2.84-.57,4.23-.52Z"/><path class="cls-40" d="M139.65,102.09c0-.08,.13-.1,.18-.04s.02,.16,0,.24c-.14,.35-.4,.64-.54,.99s-.11,.82,.21,1.01c.22,.13,.51,.09,.74-.01,.59-.25,1-.8,1.49-1.21,.8-.67,1.89-.98,2.92-.86-.97-.31-2.06-.2-2.94,.3-.28,.16-.56,.36-.89,.38s-.69-.25-.62-.57c.04-.18,.21-.31,.35-.44,.31-.3,.51-.71,.55-1.14-1,.73-1.6,1.96-1.57,3.2"/><path class="cls-38" d="M144.81,84.68c-2.7,.53-5.19,1.48-7.29,3.33,.33-.64,.83-1.18,1.44-1.56-1.97,.61-3.4,1.93-4.98,3.19,.2-.4,.4-.8,.59-1.2-.95,1.17-1.72,2.49-2.27,3.89l.59-1.93c-.37,1.22-1.57,2.34-2,3.65-.28,.85-.91,2.58-.34,3.37,1.59-1.12,2.93-2.73,4.48-3.95,1.55-1.22,3.19-2.33,4.9-3.33,1.66-.96,3.38-1.81,5.1-2.65,1.04-.51,2.09-1.03,3.13-1.54,1.92-.94,3.84-1.89,5.85-2.63,2.26-.83,4.61-1.4,7-1.7,.91-.11,1.84-.18,2.75-.05,1.63,.24,3.21,1.17,4.87,1.08-.94,0-1.5-1.09-2.27-1.44-2.3-1.02-5.37-.94-7.81-.66-2.85,.33-5.59,1.1-8.26,2.15-1.44,.57-2.85,1.25-4.34,1.69-.4,.12-.79,.21-1.17,.28Z"/><path class="cls-29" d="M118.75,100.92c-1.64-2.32-3.7-4.44-6.29-5.61s-5.78-1.26-8.18,.27c.07-.39-.5-.61-.87-.45s-.6,.52-.94,.73c-.29,.18-.64,.24-.98,.3-1.63,.28-3.27,.55-4.9,.83-.4,.07-.81,.14-1.17,.34-.38,.22-.66,.57-1.03,.81-.56,.37-1.26,.44-1.88,.71s-1.2,.88-1.03,1.53c.29,.12,.52,.36,.63,.66,1.53-1.42,3.33-2.93,5.41-2.78,.32,.02,.65,.09,.97,.02,.23-.05,.44-.17,.67-.24,1.45-.43,2.91,1.36,4.35,.87,.33-.96,1.73-1.32,2.48-.65-.04-.38,.53-.46,.91-.38,4.14,.9,8.19,2.24,12.04,4,.23-.39,.09-.91-.21-1.25s-.71-.54-1.12-.74"/><path class="cls-4" d="M102.28,107.64c-1.35-.46-2.49-1.53-3.03-2.85"/><path class="cls-4" d="M105.35,105.88c-.56-.17-1.13-.35-1.61-.68s-.86-.87-.86-1.46"/><path class="cls-4" d="M100.94,109.66c-.98-.11-1.92-.52-2.67-1.16"/><path class="cls-4" d="M99.98,110.45c-.79,.28-1.79,.52-2.36-.09"/><path class="cls-43" d="M140.41,128.16c1.49-.55,2.52-2.16,2.38-3.74s-1.43-2.99-3-3.26c.83-.25,1.77-.49,2.53-.07,.49,.28,.8,.79,1.02,1.31,.51,1.21,.62,2.64,0,3.8s-2.05,1.91-3.29,1.49"/><path class="cls-18" d="M128.14,129.84c-.45-.06-.9-.11-1.36-.09-1.11,.06-2.19,.58-3.3,.48-.3-.03-.59-.1-.84-.27-.5-.32-.74-.94-.81-1.53-.19-1.51,.42-3.01,.45-4.52s-.17-3.14-.14-4.71c.04-2.91,.81-5.91-.08-8.68,.91,2.08,1.7,4.21,2.35,6.39,.38,1.25,.71,2.56,.54,3.85-.17,1.26-.8,2.4-1.17,3.61-.39,1.27-.47,2.87,.69,3.68s3.06,.91,4.42,.76c2.56-.27,4.95-1.39,7.48-1.89,.88-.17,1.77-.18,2.65-.3,.72-.1,1.49-.22,2.06-.67s.86-1.36,.41-1.93c.66,.33,1.18,1,1.15,1.74-.03,.74-.61,1.37-1.28,1.69-.93,.43-1.91,.28-2.88,.48-1.61,.33-2.93,1.17-4.6,1.34-1.78,.18-3.31,.85-5.16,.66-.2-.02-.39-.05-.59-.07Z"/><path class="cls-43" d="M121.18,127.47c-.2,1.47,.38,2.51,1.78,3.09,.38,.16,.78,.27,1.19,.25,.4-.02,.79-.16,1.18-.27,2.18-.61,4.26,.4,6.45-.02,1.23-.24,2.43-.93,2.96-2.07-.25,.55-2.49,.93-3.04,1.06-1.13,.25-2.52,.51-3.68,.32-1.05-.16-1.91-.34-3.01-.14-.83,.15-1.74,.43-2.48,.02-.15-.08-.28-.19-.37-.33-.1-.17-.13-.39-.14-.59-.07-1.23,.4-2.43,.49-3.65,.11-1.41,.09-2.83,0-4.25-.16-2.76-.61-5.49-1.06-8.21,.25,4.87,.38,9.96-.27,14.8Z"/><path class="cls-22" d="M112.52,144.93c1.81-2.82,3.62-5.65,5.43-8.47,.53-.82,1.05-1.65,1.43-2.55,.37-.89,.57-1.83,.78-2.77,.3-1.36,.59-2.71,.89-4.07-.09,.42,.79,1.95,.9,2.49-1.9,5.75-4.34,11.24-9.42,15.37Z"/><path class="cls-39" d="M104.45,138.37c.61,1.02,1.91,1.48,3.09,1.37,1.18-.11,2.27-.69,3.24-1.38,2.32-1.63,4.24-4.03,4.69-6.83,.34-2.15,.18-5.87,2.08-7.35,1.14-.89,2.71-.02,3.55,.92,1.54,1.72-.02,5.92-.68,7.87-.6,1.77-1.34,3.53-2.48,5.01-1.2,1.55-2.81,2.27-4.35,3.38-1.18,.84-2.5,1.45-3.96,1.64-1.18,.16-2.39,0-3.33-.77-.49-.4-.86-.93-1.14-1.49-.35-.71-.33-1.74-.71-2.37Z"/><path class="cls-20" d="M149.82,123.38c8.86,2.38,18.76,.48,26.11-5,.41-.31,.84-.64,1.34-.75,1.11-.24,2.21,.74,2.42,1.85s-.29,2.25-.99,3.15c-1.17,1.5-2.86,2.48-4.53,3.39-4.83,2.64-10.13,5.09-15.61,4.56-4.38-.42-8.39-2.73-11.65-5.68-.44-.4-.89-.84-1.05-1.41s.08-1.3,.65-1.47c.49-.15,.98,.15,1.42,.41,2.29,1.36,4.98,2.02,7.64,1.89"/><path class="cls-23" d="M160.6,131.15c.21,.05,.43,.11,.58,.27,.19,.19,.23,.49,.25,.76,.16,2,.1,4.02-.21,6.01-.22,1.45-.56,2.95-.18,4.37,1.03-3.48,1.72-7.06,2.04-10.67,.05-.57-.06-1.34-.63-1.42-6-.77-10.33-1.24-15.35-5.09-.24,4.14,10.78,5.1,13.48,5.77Z"/><path class="cls-28" d="M121.22,144.97c.93-.51,1.86-1.03,2.85-1.39,2.58-.94,5.4-.79,8.14-.98,6.64-.45,12.95-2.9,19.43-4.45,1.24-.3,2.51-.56,3.77-.4,.52,.06,1.11,.29,1.22,.79,.05,.22,0,.45-.08,.67-.53,1.61-1.77,2.89-3.1,3.94-1.7,1.33-3.59,2.39-5.5,3.39-3.71,1.95-7.57,3.73-11.7,4.45-1.26,.22-2.56,.34-3.83,.14-.84-.13-1.66-.4-2.47-.67-.55-.18-2.36-.46-2.67-.94"/><path class="cls-6" d="M121.22,144.97c.93-.51,1.86-1.03,2.85-1.39,2.58-.94,5.4-.79,8.14-.98,6.64-.45,12.95-2.9,19.43-4.45,1.24-.3,2.51-.56,3.77-.4,.52,.06,1.11,.29,1.22,.79,.05,.22,0,.45-.08,.67-.53,1.61-1.77,2.89-3.1,3.94-1.7,1.33-3.59,2.39-5.5,3.39-3.71,1.95-7.57,3.73-11.7,4.45-1.26,.22-2.56,.34-3.83,.14-.84-.13-1.66-.4-2.47-.67-.55-.18-2.36-.46-2.67-.94"/><path class="cls-35" d="M121.85,144.04c2.01-.84,4.02-1.65,6.06-2.41,1.64-.61,3.55-1.47,5.33-1.37,.68,.04,1.38,.23,2.03,.03,.99-.31,2-.99,2.95-1.42,.93-.41,1.97-.49,2.98-.49,2.09,0,4.19,.28,6.28,.11,1.74-.14,3.48-.5,5.21-.76,.92-.13,1.83-.25,2.75,0,.48,.13,.96,.26,1.45,.39-.39-.11-1.26,.23-1.7,.26-.52,.03-.98,.07-1.49,.15-1.28,.22-2.54,.47-3.8,.78-1.32,.31-2.63,.63-3.95,.84-1.23,.19-2.43,.79-3.64,1.1-.91,.24-1.83,.43-2.7,.78-.93,.38-1.8,.94-2.78,1.15-.83,.18-1.68,.1-2.52,.07-1.66-.06-3.31,.05-4.96,.17-1.36,.1-2.72,.19-4.08,.29-1.29,.09-2.61,.19-3.78,.73,.65-.58,1.45-.99,2.3-1.18"/><path class="cls-12" d="M136.91,148.82c-.19-1.26-.21-2.55-.04-3.81,.05-.4,.13-.81,.33-1.16,1.01-1.74,3.04-.64,3.88,.6,.72,1.07,.61,2.46,1.21,3.57,.26-.1,3.11-1.29,3.11-1.31-.09-1.25-.82-2.35-1.52-3.39-.21-.31-.47-.65-.84-.68-.23-.02-.45,.09-.62,.24-.67,.6-.8,1.83-.77,2.64,.02,.55,.65,2.5,.58,2.73-.2,.69-1.48,.75-2.07,1.06-.87,.46-2.01,.3-3.01,.35-.23-.67-.36-1.38-.38-2.09"/><path class="cls-10" d="M146.28,141.42c.29-.49,.79-1,1.34-.85,.44,.12,.66,.6,.79,1.03,.14,.46,.24,.94,.29,1.42,.29-.5,.31-1.75,.64-2.23s1.02-.82,1.48-.47c.24,.18,.43,1.13,.52,1.42,.12,.36,.23,.72,.35,1.08,.09,.26,.17,.54,.15,.81-.07,.7-.8,1.13-1.46,1.38-.28,.11-.59,.21-.88,.13s-.53-.42-.39-.69c-.22-.11-.38,.22-.44,.46-.24,1.01-2.06,2.54-2.85,1.29s-.25-3.58,.45-4.78Z"/><path class="cls-10" d="M127.07,146.01c-.16-.45-.47-.83-.87-1.09-.19,.02-.22,.29-.19,.48,.2,1.16,.42,2.38,1.16,3.3,.05,.06,.1,.12,.17,.15,.23,.11,.5-.13,.73-.05-.09-.78-.18-1.58-.49-2.3-.3-.73-.85-1.39-1.59-1.65"/><path class="cls-12" d="M136.12,146.41c-.09-.18-.18-.35-.25-.5-.43-.92-1.61-2.26-2.8-2-.54,.12-.87,.67-1,1.21s-.11,1.1-.26,1.63c-.4-.6-.8-1.2-1.2-1.8-.14-.21-.32-.44-.58-.43-.34,.01-.48,.43-.54,.77-.12,.73-.24,1.47-.36,2.2-.34-.77-.68-1.54-1.02-2.31-.1-.23-.21-.47-.41-.64s-.5-.23-.7-.07c-.25,.19-.21,.56-.15,.87,.27,1.29,.67,2.55,1.18,3.76,.24,.55,.69,1.2,1.27,1.06,.23-.05,.42-.22,.65-.25,.28-.03,.54,.15,.8,.27,.65,.29,1.47,.16,1.99-.32-.19,.18,1.4,.63,1.53,.63,.74,0,2.46-.3,2.7-1.12,.26-.89-.39-2.05-.86-2.95Z"/><path class="cls-42" d="M151.72,142.22c.07,.3,.21,.6,.46,.75,.29,.18,.68,.13,.97-.05s.48-.48,.63-.79c.26-.59,.33-1.2,.23-1.83-.04-.23-.07-.6-.23-.78-.13-.15-.37-.18-.54-.23-.27-.09-.55,.1-.73,.32-.57,.68-.98,1.73-.78,2.61Z"/><path class="cls-34" d="M146.2,153.36c-3.51,2.7-7.29,4.16-11.73,3.08-2.18-.53-4.97-2.22-6.86-3.45-1.78-1.16-3.19-3.36-4.45-5.05-.74-.99-1.48-1.99-2.22-2.98,.61,.04,.9,.54,1.33,.89,.48,.39,1.07,.7,1.6,1.02,1.11,.68,2.25,1.31,3.44,1.85,2.31,1.04,4.82,1.71,7.37,1.53,2.61-.18,5.08-1.22,7.48-2.24,3.04-1.29,6.15-1.98,8.94-3.88,1.37-.94,2.83-1.92,3.93-3.17,.48-.55,.93-1.17,1.57-1.51-.11,.06-.53,1.3-.59,1.51-.12,.4-.17,.77-.35,1.16-.49,1.1-1.1,2.21-1.88,3.12-2.35,2.78-4.71,5.91-7.59,8.13Z"/><path class="cls-8" d="M137.57,127.73c-.25,.09-.5,.21-.75,.32-.33,.15-.69,.28-1.01,.45-.24,.13-.43,.32-.67,.45-.18,.09-.37,.11-.56,.19-.04,.02-.08,.04-.11,.08s-.03,.1,0,.13c.03,.03,.07,.02,.11,.02,.61-.08,1.13-.38,1.72-.53,.85-.22,1.86-.09,2.66-.4,.17-.07,.33-.21,.35-.39,.03-.21-.13-.41-.32-.49s-.41-.07-.62-.04c-.28,.04-.54,.12-.8,.22Z"/><path class="cls-36" d="M140.32,25.86c.17-1.66,.4-4.19-1.14-5.38-.25-.2-.55-.33-.85-.45-1.04-.45-2.08-.89-3.11-1.34-2.76-1.19-5.57-.69-8.44-.19-1.72,.3-3.43,.59-5.15,.89-1.43,.25-2.89,.5-4.2,1.12-1.77,.84-3.18,2.28-4.67,3.55-1.24,1.05-2.64,1.69-3.96,2.64-1.47,1.06-2.84,2.25-4.1,3.55l.22-.09c-.94,.91-1.74,1.92-2.26,3.11-.39,.9-.61,1.88-1.2,2.66-1.41,1.89-4.76,2.62-4.59,4.97,.05,.63,.38,1.26,.2,1.87-.11,.38-.41,.67-.68,.95-3.81,3.94-5.52,9.43-6.55,14.81-2.21,11.57-1.81,23.53,.08,35.16,.32,1.94,.95,4.2,2.81,4.83,.72-6.96,.68-14.01-.14-20.96-.2-1.71-.42-3.57,.46-5.05,.23-.4,.55-.8,.49-1.26-.05-.36-.55-.59-.81-.44,1.28-1.53,1.88-3.51,2.54-5.4,.95-2.72,2.34-5.57,4.95-6.78,.85-.39,1.79-.6,2.54-1.15,.97-.72,1.53-1.96,2.64-2.45,1.59-.7,3.49,.49,5.14-.06,.93-.31,1.59-1.11,2.38-1.7,1.07-.8,2.37-1.21,3.65-1.6,3.44-1.05,6.89-2.11,10.33-3.16,.87-.27,1.79-.57,2.36-1.27,.4-.49,.6-1.14,1.12-1.51,.9-.64,2.04,.07,2.93-.44,.57-.32,.61-1.05,1.08-1.46,.76-.67,1.77-.42,2.59-.96,.9-.6,1.32-1.75,1.4-2.79,.1-1.28-.19-2.57-.14-3.86,.06-1.48,.58-2.9,.99-4.33,.55-1.97,.89-3.99,1.1-6.02Z"/><path class="cls-30" d="M150.82,18.65c3.17-.47,6.39-.03,8.83,2.15,1.84,1.65,2.75,4.13,4.55,5.82,1.02,.95,2.28,1.61,3.44,2.38,4.53,3.01,7.57,7.75,10.47,12.35,2.75,4.36,5.53,8.79,7.01,13.73,1.27,4.27,1.52,8.78,2.58,13.11,1.58,6.46,4.93,12.43,5.95,19,.24,1.53,.33,3.16-.38,4.54s-2.45,2.32-3.84,1.66c.47,1.98-1.15,4.18-3.18,4.32-1.64,.11-3.18-.96-4.09-2.32s-1.31-3-1.7-4.6c-.73-3.01-1.45-6.02-2.18-9.03-.38-1.59-.79-3.22-1.76-4.53-2.59-3.46-8.45-3.72-10.15-7.7,.57-.62,1.15-1.23,1.72-1.85-1.21-.79-2.59-2.2-1.86-3.44,.38-.64,1.24-.98,1.36-1.71,.09-.54-.29-1.04-.65-1.46-3.18-3.7-6.86-6.97-10.89-9.71-.77-.52-1.6-1.08-1.97-1.93s0-2.09,.92-2.25c-3.92-.27-7.84-.54-11.76-.81,.25-.6,.5-1.2,.76-1.8-3.23,1.05-6.27,1.22-6.8-2.83-.44-3.43,.29-6.85,.9-10.22,.52-2.89-.05-6.22,2.29-8.31,.91-.8,1.97-1.4,3.04-1.98,2.1-1.15,4.73-2.17,7.39-2.56Z"/><path class="cls-2" d="M195.44,170.01c-2.33-8.51-1.4-17.57,.2-26.25,1.6-8.68,3.87-17.3,4.15-26.12,.09-2.94-.06-5.99-1.37-8.62-1.15-2.3-2.85-3.23-5.04-4.3s-4.15-2.41-5.93-4.01c-2.46-2.22-3.43-4.83-3.94-8.08"/><path class="cls-2" d="M189.09,152.74c2.09-7.83,4.19-15.66,6.28-23.49,1.05-3.93,2.11-7.94,1.82-12-.36-5.05-2.76-7.98-6.81-10.62-4.47-2.91-6.92-8.58-8-13.63"/><path class="cls-16" d="M181.96,135c-.13,.6,.3,1.18,.34,1.79,.05,.79-.54,1.54-.42,2.33,.15,1.01,1.67,1.44,2.33,.67,.36-.42,.46-1.07,.94-1.37,.35-.21,.8-.16,1.19-.27,.97-.27,1.41-1.47,1.19-2.45s-.91-1.77-1.58-2.52c-.17-.19-.35-.39-.41-.63-.13-.48,.2-.95,.35-1.43s-.11-1.18-.6-1.08c.4-.29,.78-.67,.88-1.16s-.21-1.08-.71-1.1c.61-.35,.77-1.31,.3-1.84-.44-.49-.44-.57-.24-1.14s.22-1.2,.3-1.79c.04-.28,.07-.57-.06-.82-.08-.14-.2-.24-.27-.38-.23-.41,.31-1.27,.5-1.63,.1-.18,.28-.42,.44-.67,.21-.34,.35-.71,.1-1-.96-1.12-1.87,.87-1.93,1.61-.02,.28,.02,.57,.05,.85,.2,1.79-.08,3.64-.8,5.29-.26,.6-.59,1.18-.71,1.83-.14,.73-.01,1.49,.02,2.23,.04,.93-.09,1.81-.28,2.71-.08,.37-.1,.64-.31,.96s-.5,.59-.58,.99Z"/><path class="cls-14" d="M185.86,122.97c-.38,.69-.57,1.47-.75,2.24-.19,.82-.37,1.65-.53,2.47-.21,1.06-.39,2.13-.58,3.2-.1,.58-.2,1.17-.16,1.75,.02,.25,.07,.51,.02,.76-.12,.61-.76,1.01-.89,1.61-.13,.6,.3,1.18,.34,1.79,.05,.79-.54,1.54-.42,2.33,.15,1.01,1.67,1.44,2.33,.67,.36-.42,.46-1.07,.94-1.37,.35-.21,.8-.16,1.19-.27,.97-.27,1.41-1.47,1.19-2.45s-.91-1.77-1.58-2.52c-.17-.19-.35-.39-.41-.63-.13-.48,.2-.95,.35-1.43s-.11-1.18-.6-1.08c.4-.29,.78-.67,.88-1.16s-.21-1.08-.71-1.1c.61-.35,.77-1.31,.3-1.84-.16-.18-.38-.32-.43-.55-.13-.57,.83-1.21,.38-1.59-.22-.18-.68-.13-.69-.42,0-.16,.16-.26,.26-.38,.27-.33,.08-.81,.06-1.23-.02-.44,.16-.86,.34-1.26s.34-.83,.3-1.26-.37-.88-.81-.89-.79,.6-.48,.9c-.09,.32-.55,.3-.64,.61,.44,.1,.75,.6,.64,1.04-.11,.44-.56,.9-.29,1.27,.13,.18,.39,.24,.49,.44,.18,.35-.29,.66-.52,.98-.29,.4-.16,1.03,.26,1.29-.12,.44-.59,.65-.96,.91s-.7,.78-.42,1.13c.25,.31,.88,.38,.8,.77-.02,.09-.08,.16-.14,.23-.29,.34-.57,.68-.86,1.02,.2,.37,.51,.67,.88,.87"/><path class="cls-37" d="M125.45,143.81c-.16-.08-.35-.06-.53-.03-.8,.1-1.59,.19-2.39,.29-.32,.04-.65,.08-.93,.23-2.25,1.23,5.7,4.99,5.63,5.26-.62-.1-.79-.54-1.29-.92-.78-.59-1.56-1.19-2.34-1.78-.58-.44-1.15-.88-1.69-1.37-.16-.15-.33-.32-.35-.53-.05-.43,.46-.69,.88-.8,1.85-.53,3.74-.91,5.64-1.16"/><path class="cls-1" d="M176.39,155.3c.05,.35,.11,.7,.08,1.05-.03,.38-.17,.74-.31,1.09-.67,1.74-1.34,3.48-2.01,5.23-.44,1.13-.88,2.28-1.59,3.26-.69,.96-1.61,1.72-2.57,2.41-2.96,2.11-6.41,3.53-9.99,4.12,.7-1.22,1.66-2.26,2.55-3.34,3.99-4.78,6.89-10.33,10.4-15.45,.92-1.35,1.87-2.96,3.08-4.06,.28,.6,.06,1.65,.07,2.32,.02,1.13,.12,2.26,.28,3.39Z"/><path class="cls-1" d="M240.31,184.32c8.77,6.43,17.92,15.64,16.56,27.2-1.89,16.09-18.98,31.72-31.48,40.93-14.42,10.63-31.63,17.38-49.25,20.31-29.06,4.84-58.95,.09-87.27-8.02-11.48-3.29-22.94-7.18-33.01-13.61-7.78-4.97-16.66-8.2-23.48-14.52-3.81-3.53-3.67-3.39-1.46-8.34,3.01-6.72,7.81-12.85,12.86-18.15,10.04-10.55,22.72-18.64,36.16-24.13,9.01-3.68,23.18-11.6,32.57-8.37,7.99,2.75,15.57,6.68,22.41,11.63,3.71,2.68,7.45,5.77,11.99,6.36,5.26,.68,10.28-2.15,14.74-5.03,8.77-5.65,19.02-13.57,22.47-23.71,9.01,.43,23.15,1.35,30.34,7.4,4.97,4.19,12.28,3.69,18.39,5.89,2.69,.97,5.15,2.46,7.46,4.15Z"/><path class="cls-5" d="M153.47,137.75c1.45-.14,2.93,.04,4.3,.52-1.61,1.04-1.85,3.5-3.5,4.49,.47-.7,.93-1.4,1.4-2.1,.37-.56,.75-1.14,.91-1.79,.03-.13,.05-.28-.03-.38-.09-.12-.26-.15-.41-.16-1.32-.11-2.63-.21-3.95-.32,1.51-.52,3.2-.53,4.72-.03"/><path class="cls-32" d="M133.76,24.44c-7.43-1.88-15.53-1-22.38,2.43,4.47-1.08,9.16-1.23,13.69-.44-4.42,.02-8.84,.87-12.95,2.5,4.41-.94,9.12-.43,13.22,1.43-6.28-.61-12.71,.28-18.59,2.59,5.66-1.49,11.79-1.1,17.22,1.1-5.89-.76-11.97-.07-17.54,1.99,5.05,.5,10.1,.99,15.16,1.49-8.84,1.22-18.03,2.56-25.44,7.53,9.68-3.78,20.28-5.18,30.61-4.03-.88-.58-1.75-1.17-2.63-1.75,2.11-.17,4.21-.35,6.32-.52-1.68-.68-3.36-1.35-5.04-2.03,1.72,.1,3.46-.11,5.11-.61-1.7-.78-3.4-1.56-5.1-2.33,2.29-.25,4.55-.74,6.74-1.47-1.47-1.3-3.35-2.12-5.3-2.31,2.4-.54,4.88-.7,7.33-.48-2.38-.57-4.76-1.14-7.14-1.71,2.89-.65,5.84-.97,8.8-.98-2.09-1.73-4.77-2.74-7.48-2.82"/><path class="cls-33" d="M149.83,22.39c-3.92,1.89-7.67,4.15-11.17,6.73,2.25-.85,4.65-1.31,7.06-1.36-2.67,1.23-5.16,2.88-7.33,4.87,2.09-.76,4.28-1.26,6.49-1.48-2.54,1.44-4.67,3.61-6.05,6.18,2.04-1.4,4.42-2.31,6.88-2.62-2.19,1.36-4.28,2.88-6.25,4.53,1.72-.74,3.69-.9,5.51-.46-1.56,.95-3.11,1.9-4.67,2.85,2.16-.87,4.45-1.4,6.76-1.58-1.88,.68-3.57,1.84-4.87,3.35,7.82-4.15,17.36-4.92,25.75-2.1,3.2,1.08,6.24,2.65,9.56,3.27-9.16-5.28-20.11-7.39-30.58-5.9,7.47-3.31,16.19-3.72,23.94-1.11-7.1-3.49-15.51-4.23-23.1-2.02-.36-.5,.28-1.11,.84-1.37,3.85-1.79,8.18-2.53,12.41-2.12-4.58-.43-9.2-.51-13.8-.25,3.3-.88,6.66-1.54,10.05-1.98-2.8,.07-5.6,.14-8.4,.22,2.19-.48,4.38-.95,6.57-1.43-2.29,.08-4.59-.12-6.83-.6,4.57-.6,9.26-.34,13.73,.78-4.79-2.35-10.45-2.86-15.58-1.4,4.43-2.05,9.56-2.55,14.31-1.4-3.7-1.42-7.78-1.85-11.7-1.24,3.41-.97,6.94-1.48,10.48-1.52-4.89-1.99-10.62-1.83-15.39,.44"/><path class="cls-3" d="M151.13,47.04c-.14,2.33,1.65,4.46,3.8,5.34,2.16,.89,4.6,.76,6.9,.38s4.58-1.02,6.91-1.1c5.18-.18,10.4,2.33,15.4,1"/><path class="cls-3" d="M135.1,46.58c-4.1,1.16-8.45-.48-12.72-.36-7.49,.21-14.55,5.83-21.85,4.11"/><path class="cls-3" d="M121.11,34.72c2.61-.52,5.31-.79,7.92-.29s5.14,1.86,6.62,4.08"/><path class="cls-3" d="M138.98,25.54c-1.18-2.81-4-4.7-6.97-5.36s-6.09-.23-9.04,.55c-6.78,1.8-13.04,5.5-17.9,10.56"/><path class="cls-3" d="M173.71,71.09c2.02,.52,3.39,2.33,4.95,3.71,1.99,1.75,4.56,2.9,7.21,3.01,2.65,.11,5.37-.86,7.21-2.77"/><path class="cls-3" d="M172.45,64.36l5.33,3.61c.77,.52,1.54,1.04,2.39,1.4,3.13,1.32,6.79,.23,9.69-1.55"/><path class="cls-3" d="M158.43,52.88c3.39,.02,6.92,.08,9.94,1.61,1.2,.61,2.3,1.44,3.61,1.73,.93,.2,1.9,.11,2.84,.02,2.66-.26,5.31-.52,7.97-.78"/><path class="cls-8" d="M127.9,130.44c-1.1-.35-2.35-.24-3.38,.3,.61,.23,1.29,.18,1.94,.13,.56-.04,1.12-.09,1.68-.13-.23-.47-.86-.54-1.38-.51-.78,.04-1.56,.13-2.32,.28-.15,0,.27-.11,.14-.05-.16,.07-.3,.31-.14,.4,.05,.03,.1,.03,.16,.02,1.08-.04,2.16-.08,3.25-.13,.26-.01,.57-.06,.67-.3-.77-.36-1.66-.45-2.49-.25"/><path class="cls-2" d="M182.06,95.12c1.6,6.15,3.92,12.55,8.97,16.41,.95,.73,1.99,1.36,2.8,2.24,2.5,2.71,2.18,6.89,1.71,10.55"/><path class="cls-20" d="M156.97,160.69c1.04,.17,1.97,.73,2.56,1.86,1.91,3.67-1.71,11.03-4.88,12.89-8.38,4.92-11.58,4.39-17.03,2.97-4.24-1.11-7.65-4.09-10.34-7.38-.76-.94-3.93-4.2-3.41-5.52,.42-1.07,4.37-1.05,5.32-.86,1.47,.3,2.81,1.01,4.22,1.51,3.31,1.16,6.98,1.07,10.38,.2,3.89-.99,6.32-3.22,9.65-4.97,1.1-.58,2.38-.88,3.53-.7Z"/></g><g id="Line_glasögon"><g><path class="cls-15" d="M93.29,104.43c.2,.76,.31,1.54,.33,2.32-1.55-.42-3.25-.2-4.65,.58,.07-.82,.34-2.04,1.12-2.39,.21-.09,3.27-.26,3.2-.51Z"/><path class="cls-26" d="M120.07,103.03c-.58-1.29-1.96-1.75-3.03-2.56-1.27-.95-2.87-1.27-4.43-1.59-3.84-.78-7.84-.75-11.67,.11-2.86,.64-5.74,1.46-8.44,2.6-1.82,.77-3.36,1.87-5.15,2.67-.95,.43-1.58,.55-1.91,1.54-.29,.85,.49,1.63,.96,2.39,.3,.48,.49,1.02,.67,1.56,1.38,3.99,2.77,8.03,5.1,11.55,2.33,3.52,5.74,6.52,9.86,7.43,1.3,.29,2.65,.36,3.98,.33,5.36-.14,11-2.31,13.82-6.86,1.77-2.86,2.43-6.38,2.47-9.7,.04-3.51-.83-6.35-2.23-9.46Zm-2.28,19.1c-1.81,2.65-4.84,4.25-7.93,5.1-4.02,1.11-8.67,.99-11.96-1.58-.83-.65-1.55-1.43-2.25-2.23-1.63-1.87-3.18-3.84-4.25-6.08-1.17-2.46-2-5.23-2.09-7.96-.04-1.25,0-2.89,.68-3.98,.78-1.23,2.39-1.97,3.66-2.54,2.45-1.1,5.01-1.95,7.63-2.57,4.03-.96,8.62-.46,12.47,.87,1.56,.54,3.14,1.28,4.1,2.62,.86,1.2,1.12,2.72,1.35,4.18,.37,2.4,.74,4.83,.64,7.26s-.68,4.9-2.05,6.91Z"/><path class="cls-26" d="M127.56,99.98c-2.55,1.37-5.64,1.58-8.47,1.27,1.2,.13,2.12,.44,3.38,.34,2.49-.2,4.74-.93,6.61-2.65,.71-.65,1.42-1.45,2.37-1.54-.78,2.46-.95,5.11-.48,7.65-3.45-1.84-8.14-.91-10.62,2.11-.24-2.21-1.1-4.34-2.47-6.09,1.25,.33,2.54,.49,3.83,.48,1.9-.02,2.75-.03,4.51-.75"/><path class="cls-26" d="M169.4,89.29c-.18-.73-.39-1.49-.2-2.22,.16-.61,.59-1.15,.65-1.78,.19-2.07-2.33-1.6-3.5-1.55-2.27,.1-4.52,.13-6.78,.39-4.47,.51-8.87,1.5-13.15,2.88-5.14,1.65-10.22,3.91-14.14,7.63-.97,.92-1.89,1.96-2.3,3.24-1.12,3.43,.28,8.03,1.89,11.12,1.74,3.32,4.16,6.64,7.59,8.36,2.06,1.03,4.4,1.41,6.7,1.56,4.85,.32,9.84-.35,14.18-2.53,4.34-2.18,7.97-5.98,9.37-10.63,.51-1.68,.72-3.44,.81-5.19,.19-3.79-.18-7.6-1.1-11.28Zm-1.93,17.42c-.69,1.83-1.62,3.06-2.87,4.51-.6,.7-1.7,1.55-2.4,2.16-1.67,1.44-3.78,2.25-5.89,2.87-3.55,1.03-7.3,1.55-10.96,1.02-3.66-.53-7.23-2.19-9.64-4.99-1.37-1.59-2.33-3.48-3.13-5.41-.81-1.96-1.48-4.05-1.24-6.16,.39-3.39,3.06-6.08,5.91-7.96,4.84-3.19,10.46-5.16,16.19-5.96,4.89-.68,11.67-1.35,14.25,4.01,.53,1.11,.74,2.33,.91,3.55,.59,4.16,.35,8.42-1.13,12.36Z"/><path class="cls-26" d="M186.27,82.01c.02,.1,0,.22-.05,.32-.45,.96-1.95,.85-2.84,1.05-1.28,.29-2.56,.57-3.83,.86-1.28,.29-2.56,.57-3.83,.86-1.11,.25-2.47,.81-3.61,.81-1.19,.27-2.65,.68-3.13,1.94,.25-.67,.12-1.46,.39-2.14,.23-.58,.98-.91,.3-1.66-.4-.44-1.06-.55-1.64-.44,2.33-.47,4.78-.23,7.11-.33,1.92-.08,3.83-.25,5.73-.51,1.69-.23,3.33-.93,5.03-.96,.11,0,.22,0,.3,.07,.04,.04,.06,.08,.08,.13Z"/></g></g></svg>