<?xml version="1.0" encoding="UTF-8"?><svg id="Lager_25" xmlns="http://www.w3.org/2000/svg" xmlns:xlink="http://www.w3.org/1999/xlink" viewBox="0 0 262 280"><defs><style>.cls-1{fill:url(#Namnlös_övertoning_73-2);}.cls-2{fill:url(#Namnlös_övertoning_2556);}.cls-3{fill:url(#linear-gradient);}.cls-4{fill:#f5c0a1;}.cls-5{fill:#fdffff;}.cls-6{fill:#d0997d;}.cls-7{fill:#d5e9f6;}.cls-8{fill:#251a1e;}.cls-9{fill:#1c1819;}.cls-10,.cls-11{fill:#2c3242;}.cls-12{fill:#5a5e6b;}.cls-13{fill:#78a1b8;}.cls-14{fill:url(#Namnlös_övertoning_2144-3);}.cls-14,.cls-15{opacity:.8;}.cls-15{fill:url(#Namnlös_övertoning_2144);}.cls-16{fill:url(#Namnlös_övertoning_107);}.cls-17{fill:url(#Namnlös_övertoning_373);}.cls-18{fill:url(#Namnlös_övertoning_2556-2);}.cls-19{fill:url(#Namnlös_övertoning_2556-3);}.cls-20{fill:url(#Namnlös_övertoning_2144-2);}.cls-21{fill:url(#Namnlös_övertoning_2144-4);}.cls-22{fill:url(#Namnlös_övertoning_107-2);}.cls-23{fill:url(#linear-gradient-8);}.cls-24{fill:url(#linear-gradient-9);}.cls-25{fill:url(#linear-gradient-3);}.cls-26{fill:url(#linear-gradient-4);}.cls-27{fill:url(#linear-gradient-2);}.cls-28{fill:url(#linear-gradient-6);}.cls-29{fill:url(#linear-gradient-7);}.cls-30{fill:url(#linear-gradient-5);}.cls-31{fill:url(#Namnlös_övertoning_73);}.cls-32{fill:url(#linear-gradient-10);}.cls-33{fill:url(#Namnlös_övertoning_85);opacity:.28;}.cls-11{opacity:.26;}</style><linearGradient id="linear-gradient" x1="76.9" y1="199.31" x2="150.44" y2="175.29" gradientUnits="userSpaceOnUse"><stop offset=".1" stop-color="#bf6851"/><stop offset=".28" stop-color="#c67c63"/><stop offset=".49" stop-color="#cd9076"/><stop offset=".61" stop-color="#cf957b"/><stop offset=".85" stop-color="#d29e82"/></linearGradient><linearGradient id="Namnlös_övertoning_73" x1="125.59" y1="170.23" x2="163.73" y2="170.23" gradientUnits="userSpaceOnUse"><stop offset="0" stop-color="#d0997d"/><stop offset="1" stop-color="#f5c5a3"/></linearGradient><linearGradient id="linear-gradient-2" x1="86.01" y1="162.35" x2="152.5" y2="162.35" gradientUnits="userSpaceOnUse"><stop offset="0" stop-color="#bc6550"/><stop offset="1" stop-color="#d29e82"/></linearGradient><linearGradient id="Namnlös_övertoning_107" x1="78.63" y1="119.5" x2="54.26" y2="110.4" gradientUnits="userSpaceOnUse"><stop offset="0" stop-color="#cf8464"/><stop offset="1" stop-color="#f6c6a4"/></linearGradient><linearGradient id="linear-gradient-3" x1="61.86" y1="107.01" x2="58.18" y2="102.64" gradientUnits="userSpaceOnUse"><stop offset="0" stop-color="#cf8464"/><stop offset=".42" stop-color="#dfa07f"/><stop offset=".69" stop-color="#eab290"/><stop offset="1" stop-color="#f6c6a4"/></linearGradient><linearGradient id="linear-gradient-4" x1="69.71" y1="112.43" x2="70.16" y2="108.73" xlink:href="#linear-gradient-3"/><linearGradient id="Namnlös_övertoning_73-2" x1="167.02" y1="113.7" x2="153.85" y2="104.92" xlink:href="#Namnlös_övertoning_73"/><linearGradient id="linear-gradient-5" x1="102.52" y1="119.65" x2="97.67" y2="122.84" gradientTransform="translate(70.31 -22.59) rotate(8.24)" gradientUnits="userSpaceOnUse"><stop offset="0" stop-color="#cf8464"/><stop offset="1" stop-color="#f6c6a4"/></linearGradient><linearGradient id="Namnlös_övertoning_85" x1="98.54" y1="64.84" x2="152.23" y2="64.84" gradientUnits="userSpaceOnUse"><stop offset="0" stop-color="#aa8260"/><stop offset="1" stop-color="#d0997d"/></linearGradient><linearGradient id="linear-gradient-6" x1="71.17" y1="120.51" x2="105.4" y2="115.5" gradientUnits="userSpaceOnUse"><stop offset="0" stop-color="#bf6851"/><stop offset=".34" stop-color="#c77f66"/><stop offset=".74" stop-color="#cf957a"/><stop offset="1" stop-color="#d29e82"/></linearGradient><linearGradient id="Namnlös_övertoning_107-2" x1="132.59" y1="134.5" x2="133.38" y2="119.03" xlink:href="#Namnlös_övertoning_107"/><linearGradient id="linear-gradient-7" x1="100.93" y1="130.93" x2="112.53" y2="120.95" gradientUnits="userSpaceOnUse"><stop offset="0" stop-color="#cf8062"/><stop offset="1" stop-color="#f6c6a4"/></linearGradient><linearGradient id="linear-gradient-8" x1="110.61" y1="136.24" x2="112.4" y2="107.6" gradientUnits="userSpaceOnUse"><stop offset="0" stop-color="#c8745e"/><stop offset="1" stop-color="#cf988f"/></linearGradient><linearGradient id="Namnlös_övertoning_2144" x1="78.69" y1="111.67" x2="98.73" y2="93.86" gradientUnits="userSpaceOnUse"><stop offset="0" stop-color="#c3997d"/><stop offset=".02" stop-color="#40250c"/><stop offset="1" stop-color="#d9bdb4"/></linearGradient><linearGradient id="Namnlös_övertoning_2144-2" x1="118.51" y1="98.83" x2="143.24" y2="98.83" xlink:href="#Namnlös_övertoning_2144"/><linearGradient id="Namnlös_övertoning_373" x1="96.22" y1="143.42" x2="128.3" y2="143.42" gradientUnits="userSpaceOnUse"><stop offset="0" stop-color="#c3997d"/><stop offset="1" stop-color="#e7c5a3"/></linearGradient><linearGradient id="linear-gradient-9" x1="91.15" y1="141.6" x2="133.29" y2="141.6" gradientUnits="userSpaceOnUse"><stop offset="0" stop-color="#bf604f"/><stop offset="1" stop-color="#cd8b7b"/></linearGradient><linearGradient id="linear-gradient-10" x1="91.73" y1="147.69" x2="133.84" y2="147.69" gradientUnits="userSpaceOnUse"><stop offset="0" stop-color="#bf6751"/><stop offset="1" stop-color="#cf907c"/></linearGradient><linearGradient id="Namnlös_övertoning_2144-3" x1="120.41" y1="107.11" x2="127.88" y2="107.11" xlink:href="#Namnlös_övertoning_2144"/><linearGradient id="Namnlös_övertoning_2144-4" x1="93.34" y1="107.88" x2="100.73" y2="107.88" xlink:href="#Namnlös_övertoning_2144"/><linearGradient id="Namnlös_övertoning_2556" x1="41.89" y1="216.61" x2="245.37" y2="216.61" gradientUnits="userSpaceOnUse"><stop offset="0" stop-color="#b3cbd7"/><stop offset="1" stop-color="#9ab9ca"/></linearGradient><linearGradient id="Namnlös_övertoning_2556-2" x1="81.4" y1="193.18" x2="99.81" y2="193.18" xlink:href="#Namnlös_övertoning_2556"/><linearGradient id="Namnlös_övertoning_2556-3" x1="120.13" y1="185.66" x2="176.76" y2="185.66" xlink:href="#Namnlös_övertoning_2556"/></defs><circle id="BG-3" class="cls-7" cx="131.68" cy="131.64" r="129"/><path class="cls-3" d="M86.01,161.74s5.61,21.18,7.33,25.61c.7,2.82,1.33,13.13,2.17,15.37l2.04,6.73,7.79,17.64,17.27-13.3,5.56-10.49s25.17-16.81,35.56-40.39c0,0-5.71-2.93-7.17-4.98,0,0-1.46-.59-2.05-5.85l-2.58-14.34s-4.74,21.37-18.49,26.34c0,0-14.65,10.24-47.42-2.34Z"/><path class="cls-31" d="M126.41,202.71s22.54-17.27,37.32-39.8c0,0-5.71-2.93-7.17-4.98,0,0-1.46-.59-2.05-5.85l-2.58-14.34s-4.58,20.63-17.79,26.07c0,0-8.78,13.01-8.55,15.2s0,0,0,0c0,0,5.57,8.78,.82,23.71Z"/><path class="cls-27" d="M86.01,162.12s10.4,16.74,18.01,18.79c0,0,11.32,4.83,24.15-.88,0,0,18.59-11.85,24.33-38.14,0,0-4.07,13.44-19.62,30.14,0,0-9.98,10.17-22.04,7.95,0,0-18.98-9.67-24.83-17.86Z"/><path class="cls-16" d="M63.49,97.7s-1.76-2.2-2.93-1.76c0,0-1.32-.09-1.46,1.9,0,0,1.46,8.78,2.78,11.12,0,0,.88,2.34,1.9,3.8,0,0,1.9,10.39,2.93,11.71,0,0,.73,2.05,.59,3.22,0,0,.29,4.24,2.49,5.56,0,0,2.49,1.17,3.66,.15,0,0-3.22-18.88-3.8-24,0,0-2.2-8.34-6.15-11.71Z"/><path class="cls-25" d="M61.04,99.6s1.21,7.13,2.41,8.78c0,0,1.98,2.63,1.65,4.61,0,0,0,4.61,1.65,6.26,0,0-1.43-2.09-1.1-10.21,0,0-.44-.44-1.87-3.29,0,0-2.06-2.28-2.74-6.15Z"/><path class="cls-26" d="M68.62,109.53s-2.6,3.45-.27,7.06c0,0,1.26,2.57,2.76,2.87l-.54-.79s-.49-2.13-1.03-3.09c-1.44-2.31-.92-6.05-.92-6.05Z"/><path class="cls-1" d="M153.63,128.08s7.32,.29,7.32-6.44c0,0,.59-4.1,1.46-7.32,0,0,3.59-10.61,3.23-20.49,0,0,.87-10.24-6.44-2.63,0,0-4.17,3.95-6.44,14.63,0,0-2.34,16.39,.88,22.24Z"/><path class="cls-30" d="M154.56,105.55c.78-1.76,1.88-1.85,2.64-.66,.22,.35,.52,.71,.93,1.06,0,0,.48,.29,1.11,1.94,0,0,.71,1.53,.18,4.46,0,0-.69,3.23-2.58,2.51,0,0,1.21-2.26,.26-4.84,0,0-2.13-2.15-2.08-4.02,0,0-.78,.28-.46-.44Z"/><path class="cls-6" d="M163.8,93.19s1.24,1.54,.66,5.85c-.65,4.81-1.32,5.27-1.32,7.68l-.29-5.49s2.54-5.09,.29-7.68c-.95-1.1,.66-.37,.66-.37Z"/><path class="cls-4" d="M153.25,88.23c-.46-8.68-.15-19.69-7.69-30.63,0,0-7.17-10.39-15.35-11.76,0,0-15.68-1.41-25.55,4.78,0,0-4.91,4.05-10.91,2.15,0,0-12.92-2.26-18.77,2.86,0,0-8.01,7.82-5.81,20.99,0,0-1.32,10.98,.22,30.73,0,0,.79,9.93,2.27,17.27,0,0,.86,5.29,1.61,10.83,0,0,1.9,9.8,5.27,15.07,0,0,7.1,11.8,12.15,16.41,0,0,5.84,7.34,10.01,10.41,0,0,3.87,3.2,11.3,3.07,0,0,8.34,.2,12.15-2.06,0,0,3.77-.61,12.2-9.01,0,0,7.63-8.05,8.8-10.54,0,0,6.29-9.95,7.64-16.48,0,0,2.43-12.73,1.46-20.63,0,0-1.52-12.15-1.22-14.93,0,0,2-16.88,.22-18.54Z"/><path class="cls-33" d="M150.85,82.57c-3.88-15.35-8.05-20.2-8.05-20.2-12-17.02-31.17-10.98-31.17-10.98-8.78,2.93-13.09,1.28-13.09,1.28,3.15-.66,5.27-2.41,5.27-2.41,9.87-6.19,25.55-4.78,25.55-4.78,8.17,1.37,15.35,11.76,15.35,11.76,7.54,10.94,7.06,18.39,7.52,27.07,0,0-1.09-.62-1.38-1.75Z"/><path class="cls-6" d="M110.3,134.74c-3.37,.27-2.49-13.55-2.49-13.55,1.82-7.22-.42-21.71-.44-20.41-.22-3.29-8.63-47.62-8.63-47.62-1.5,.23-3.19,.19-4.98-.38,0,0-12.92-2.26-18.77,2.86,0,0-8.01,7.82-5.81,20.99,0,0-1.32,10.98,.22,30.73,0,0,.79,9.93,2.27,17.27,0,0,.86,5.29,1.61,10.83,0,0,1.9,9.8,5.27,15.07,0,0,7.1,11.8,12.15,16.41,0,0,6.24,7.7,10.41,10.78,0,0,4.24,3.61,11.33,2.67l-2.14-45.65Z"/><path class="cls-28" d="M96.34,53.64s-15.26-3.14-21.12,1.99c0,0-9.52,9.23-7.32,22.4,0,0,.19,9.56,1.73,29.32,0,0,.79,9.93,2.27,17.27,0,0,.86,5.29,1.61,10.83,0,0,1.9,9.8,5.27,15.07,0,0,6.69,11.68,12.15,16.41,0,0,5.6,7.34,9.77,10.41,0,0,5.06,3.88,12.09,3,0,0-4.15-1.56-2.54-5.22,0,0-8.78-3.37-7.32-9.51,0,0-.73-3.68,6.59-3.83,0,0-18-.88-26.93-15.07,0,0-10.1-15.52-10.02-48.31,0,0,1.46-6.33,10.73-7.66,.1-3.94-6.85,1.09-3.78-22.33,0,0,1.02-11.41,16.83-14.78Z"/><path class="cls-22" d="M134.06,131.26c-1.92-2.02-6.8-6.15-6.8-6.15,0,0-.91-1.43-2.23-1.13,0,0,.8-1.02,3.66,1.39,0,0,8.41,7.39,10.24,8.78,0,0,1.17,.95,1.46,2.2,0,0,.7,2.6-1.1,5.56,0,0-.88,1.76-1.54,2.56,0,0,.43-2.38,.7-4.21,0,0,.95-2.63-.44-4.39,0,0-3.06-3.67-3.95-4.61Z"/><path class="cls-29" d="M97.55,122.81s-2.02,.88-3.33,2.85c0,0-5.71,8.12-7.68,9.44,0,0-3.29,3.07-1.54,6.8,0,0,3.07,7.24,5.71,9.22,0,0-4.77-8.5-4.17-12.51,0,0,.44-1.9,3.14-2.85,0,0,4.98-3.07,7.61-5.93,0,0,.66-4.68,2.2-6.07,1.63,.79,1.29-2.22-1.94-.95Z"/><path class="cls-23" d="M99.05,123.1s-1.76,3.22-1.46,5.41c0,0-.29,1.9,2.34,3.07,0,0,.99,.55,2.2,.73l2.78,.73s2.34,1.71,5.39,1.68c0,0,4.73-.71,5.46-2.34,0,0,.71-.37,2.46-.37,0,0,2.49-.15,4.1-.88,0,0,2.05-1.01,2.34-2.48,0,0,.44-3.08-1.02-5.86,0,0-1.39-1.76-2.78-.95,0,0,2.34,.66,2.34,2.71,0,0,.74,4.54-1.9,4.98,0,0-9.88,3.37-12.15,2.63,0,0-4.86-.68-7.1-2.34,0,0-4.47-1.1-2.05-5.27,0,0,1.24-1.9-.95-1.46Z"/><path class="cls-8" d="M75.89,107.5c4.68-.29,6.64-3.57,6.64-3.57,3.95-3.46,8.91-2.28,8.91-2.28,3.94,.63,10.57,4.18,10.57,4.18,.29-1.32-.48-2.11-.48-2.11,0,0-6.91-4.34-12.51-3.68-6.87,1.26-9.24,5.91-10.61,6.29-1.45,1.16-2.52,1.16-2.52,1.16Z"/><path class="cls-15" d="M100.82,101.88c-.75-1.64-4.28-2.93-4.28-2.93-3.08-1.07-8.51-.3-10.47,0-5.56,1.46-8.23,4.83-8.23,4.83-1.32,2.2-3.51,1.89-3.51,1.89,2.47,.45,4.51-1.66,4.51-1.66,0,0,2.63-3.63,8.56-4.4,5.93-.77,0,0,0,0,0,0,9.61-1.21,13.43,2.27Z"/><path class="cls-8" d="M87.34,100.57s-1.46,.98-1.32,3.05c0,0-.02,2.21,1.09,3.17,2.96,.05,4.06-.22,5.64-.51,0,0,1.35-3.07-.29-5.56,0,0-3.22-.88-5.12-.15Z"/><path class="cls-10" d="M99.34,95.3s-2.05-2.34-6.88-2.34c0,0-8.93,.24-12.15,1.46,0,0-4.98,.81-6.88,5.82,0,0,6.29-2.89,10.24-2.75,0,0,11.2-1.46,13.87,.44,0,0,2.23,.44,3.84,.29,0,0-.29-1.63-2.05-2.93Z"/><path class="cls-8" d="M119.39,104.08s3.95-3.07,7.46-4.1c0,0,2.93-1.61,8.63,.73,0,0,.4,.41,2.74,1.73,2.34,1.32,2.02-.48,5.82,.18,0,0-2.25,.66-4.17-.54-1.34-.98-2.29-2.3-2.05-2.09-1.6-1.11-7.02-2.51-10.83-1.57,0,0-7.02,2.74-7.61,5.67Z"/><path class="cls-8" d="M126.12,99.4s-1.32,2.7,.59,5.08c0,0,5.63-.69,6.73-.4,0,0,.88-2.63-.15-4.54,0,0-2.93-1.02-7.17-.15Z"/><path class="cls-20" d="M118.51,101.76s2.63-3.86,5.56-5.16c0,0,2.05-.71,4.68-.71,0,0,3.63,0,4.89,.15,0,0,3.16,.59,4.33,1.76,0,0,2.78,2.05,3.66,3.07,0,0,1.02,.73,1.61,.73,0,0-1.61,.15-3.07-.88,0,0-1.76-2.2-4.24-3.07,0,0-1.46-1.19-4.1-1.04,0,0-3.22-.33-5.27,.22,0,0-2.06,.6-3.66,1.59-1.6,.99-2.78,3.52-4.39,3.35Z"/><path class="cls-10" d="M116.9,96.76s1.34-3.54,3.75-5.09c0,0,2.83-2.23,7.81-2.08,0,0,11.32,.4,13.52,1.72,0,0,2.88,2.97,4.49,5.45,0,0-6.14-2.71-9.95-2.63,0,0-10.83-.44-12,.15,0,0-1.17,.29-1.9,.73-1.02,.44-3.66,2.14-5.71,1.76Z"/><path class="cls-11" d="M91.12,147.76s.75,2.71,1.89,4.46c0,0,2.78,3.68,4.54,5.29,4.13,5.25,8.08,2.39,5.3,.85,0,0-.5,.42-.59-1.02,0,0-1.02-1.94,6.33-.62,0,0,1.53,.95,5.61,.56,2.3-.83,3.13-1.45,7.23-.01,0,0,1.54,.55,1.65,2.09,0,0-.47-.16-2.38,.77,0,0-.29,1.46,2.2,.59,0,0,4.39-2.39,8.2-6.28,0,0,3.8-3.75,4.61-6.93,0,0,.88-3.04,3.95-2.2,0,0,3.4,1.43,6.15-4.61,0,0,5.93-11.3,5.27-14.05,0,0,1.94-2.09,2.71,3.18,0,0,.95,6.4-3.66,20.34,0,0-7.46,15.68-21.07,25.63,0,0-3.41,3.08-10.1,4.39,0,0-8.76,1.02-12.44-.15,0,0-3.51,.15-9.44-5.56-6.15-7.24-12.55-13.46-15.15-18.46,0,0-9.22-12.04-8.89-24.55,0,0,0-1.43,.66-.77,0,0,.66,0,1.43,1.87,0,0,1.83,11.41,6.22,16.57,0,0,4.39,5.84,6.07,5.56,1.68-.28,3.18-2.27,3.29-4.9,0,0-1.01-1.94,.42-2.05Z"/><path class="cls-11" d="M90.81,148.38s-2.93-2.19-4.24-4.82c0,0-2.3-3.59-.25-5.93,0,0,4.9-7.65,8.12-8.23,0,0,2.2-1.32,3.11,1.15,0,0,.95,1.48,5.59,3.69,0,0,2.93,1.01,4.98,.57,0,0,2.63,.59,6.88-.15,0,0,2.78-.73,3.95-1.17,0,0,5.92-1.24,7.32-4.98,0,0,1.76-2.32,5.78,.8,0,0,4.04,2.97,5.85,5.45,0,0,1.87,2.41,1.43,4.17,0,0-.88,5.16-2.96,7.08,0,0-1.43,3.46-1.65-2.25,0,0-.24-2.58-.22-3.84,0,0,.26,.62-2.52,.33,0,0-1.98,0-4.83-.11,0,0-2.49-.51-4.83-.22,0,0-3.51,.18-5.71-.11,0,0-3.56,1.08-6.01,1.32,0,0-3.58-.95-7.38-1.54,0,0-3.73,.11-7.2,1.54,0,0-1.69,1.67-5.21,.77,0,0-1.57-1.54-1.71-.88,0,0-.04,.6,.4,.93,0,0,1.62,5.58,1.31,6.42Z"/><path class="cls-8" d="M92.13,142.68s3.84-.77,6.7-1.21c0,0,6.7-1.21,11.31,1.1,0,0,5.71-2.39,11.96-1.41,0,0,5.82-.45,7.57-.01,0,0,2.74,0,3.62-.33,0,0-3.45,5.09-6.15,5.93,0,0-6.8,4.94-14.16,5.16,0,0-6.7,.44-12.4-2.2,0,0-6.59-4.17-8.45-7.02Z"/><path class="cls-5" d="M109.37,142.02s.01,0,.02,0c.41,.21,1.9,.21,1.9,.21,7.24-2.14,17.01-1.21,17.01-1.21l.44,.57,.05,3.22s.16-.38,0,0-.44,.49-.44,.49l-1.21,.77c-.16,.55-1.7,1.32-1.7,1.32l-.27-.44-.05,.82c-.16,.66-1.92,.93-1.92,.93-.33,.22-.94-.11-.94-.11l-.3-.99c.05,.82-.62,1.8-.62,1.8-.44,.33-2.38,.7-2.38,.7-.44,.11-.79,.07-.79,.07l-.22-.22c0,.38-.66,.49-.66,.49l-4.34,.22c-.38-.11-.55-.38-.55-.38-.28,.34-1.04,.06-1.04,.06l-3.82,.18s.66-.05,0,0-.66-.55-.66-.55c-.71,.05-1.81-.2-1.81-.2,0,0-.49,.02-.97-.15s-.44-.49-.44-.49l-.05-.55c-.6,.05-2.3-.16-2.3-.16-.71-.27-.86-.75-.86-.75-1.83-.44-1.89-.91-1.89-.91l-1.96-1.02s-.15,.01-.28-.51c-.45-1.36-.25-2.87-.25-2.87,0,0,.02-.22,.16-.22,0,0,6.02-2.33,13.14-.14Z"/><path class="cls-17" d="M109.37,142.02c1.52,.38,2.96,.3,2.96,.3,0,0-3.47,2.29,0,0,3.47-2.29,15.98-1.29,15.98-1.29l-.57,1.24c-.88-1.02-1.9-.48-1.9-.48l-.8,1.02c-.37-1.81-2.56-.65-2.56-.65-1.46,.47-1.16,2.02-1.16,2.02-.74-2.27-2.49-1.61-2.49-1.61-1.61,.29-2.03,2.47-2.03,2.47,0,0-.22-1.81-.93-1.98-1.65-.6-2.74,.36-2.74,.36-1.04,.74-1.37,2.61-1.37,2.61l-.38-1.85c-.71-1.93-3.51-.88-3.51-.88-1.17,.73-1.02,1.9-1.02,1.9-2.49-3.51-3.37-.73-3.37-.73-1.76-3.07-3.29-.8-3.29-.8-1.43-1.76-2.12-.07-2.12-.07-.95-1.57-1.32-.29-1.32-.29l-.48-1.14s5.49-2.06,13.14-.14Z"/><path class="cls-24" d="M91.15,142.57s1.1,.33,4.03-.48c0,0,3.07-1.08,4.87-1.21,0,0,6.62-.54,9.33,.59,0,0,1.1,.8,2.56-.04,0,0,3.11-1.39,12.37-.95,0,0,2.41,.22,3.51,.33,0,0,2.96,.22,5.49,0,0,0-1.91,.55-6.59,.55,0,0-3.29-.11-5.6-.11,0,0-3.11,.22-5.09,.55,0,0-3.06,.3-5.38,.88,0,0-3-.66-3.99-.77,0,0-3.3-.56-4.67-.49,0,0-2.39-.16-4.91,.6,0,0-4.28,1.32-5.93,.55Z"/><path class="cls-32" d="M91.73,142.74s2.49,.71,4.36,2.35c0,0,1.47,.95,3.73,2.85,0,0,2.63,1.87,6.37,2.52,0,0,7.13-.61,12.07-.66,0,0,3.5-.58,5.05-1.43,0,0,4.13-2.98,6.15-4.06,0,0,1.64-1.41,2.67-2.27,0,0,.88-.98,1.72-1.75,0,0-.03,1.08-3.44,4.53,0,0-3.49,3.44-4.81,4.98,0,0-3.39,3.18-7.01,4.28,0,0-6.8,1.65-10.87,.66,0,0-5.38-.99-7.46-3.29,0,0-2.87-2.26-4.84-4.56-1.46-1.82-2.09-2.64-2.83-3.19,0,0-.44-.83-.86-.97Z"/><path class="cls-14" d="M120.41,105.25s2.93,3.78,7.46,3.72c0,0-4.98-2.24-7.46-3.72Z"/><path class="cls-21" d="M101.25,105.54c-.57,.68-3.32,4.58-7.39,4.68,0,0,6.59-3.07,7.39-4.68Z"/><path class="cls-9" d="M135.2,48.83l-4.32-.88-2.01,.55-2.16-1.13-3.44,.17-3.88-.46-3.51,.88s-3-.22-6.51,1.1c0,0-5.49,.91-6.66,4.3,0,0-3.51,3.39-7.9,.46,0,0-7.02-1.76-12.88-.88,0,0-6.09-1.13-11.64,10.58,0,0-3.14,5.74-1.87,22.5,0,0,2.09,17.05,.92,20.78,0,0-1.88-5.89-5.69-9.16,0,0-.68-11.03-2.62-17.47,0,0-3.11-7.9,.99-15.22,0,0,.29-4.68,2.93-9.07,0,0,2.05-4.68,5.85-6.73,0,0,4.68-6.73,7.61-8.78,0,0,3.15-4.68,11.23-6.44,0,0,.18-5.85,19.79-4.68,0,0,19.32,2.63,26.34,5.56,0,0,5.27,3.51,7.46,7.32,0,0,3.66-.27,5.71,4.25,0,0,5.23,1.89,10.67,20.33,0,0,1.41,18.22,.24,24.07,0,0-5.55,4.9-7.35,17.78,0,0,1.97-16.17,.64-21.96,0,0,.05-3.43-1.85-5.34l.64-.8s-1.52-17.27-9.13-25.76c0,0-1.39-3-7.61-5.86Z"/><path class="cls-10" d="M159.39,66.25c-5.43-18.44-10.67-20.33-10.67-20.33-2.05-4.53-5.71-4.25-5.71-4.25-2.2-3.8-7.46-7.32-7.46-7.32-7.02-2.93-26.34-5.56-26.34-5.56-19.61-1.17-19.79,4.68-19.79,4.68-8.08,1.76-11.23,6.44-11.23,6.44-2.93,2.05-7.61,8.78-7.61,8.78-3.8,2.05-5.85,6.73-5.85,6.73-2.63,4.39-2.93,9.07-2.93,9.07,.24,.89-1.79,1.72-1.3,2.99,1.31,3.34,5.54,7.54,5.54,7.54-2.91-1.81-6.13-5.04-6.13-5.04,.88,3.8,6.13,7.97,6.13,7.97-1.61,1.46-6.13-2.63-6.13-2.63,1.46,6.73,8.51,10.24,8.51,10.24-1.67-15.73,1.21-21.17,1.21-21.17,5.55-11.71,12.07-11.91,12.07-11.91,5.85-.88,12.88,.88,12.88,.88,5.35,2.71,7.14,.2,7.14,.2,3.77-6.71,7.48-5.06,7.42-4.95,3.51-1.32,6.51-1.1,6.51-1.1l3.51-.88,3.88,.46,3.44-.17,2.16,1.13,2.01-.55,4.32,.88c6.22,2.86,7.61,5.86,7.61,5.86,7.61,8.49,9.13,25.76,9.13,25.76,0,0,.75-.76,1.79-2.03,.53-.65-1-6.46-.38-7.34,.85-1.2,3.85,2.45,4.58,.97,.84-1.71,1.5-3.55,1.7-5.36Z"/><path class="cls-12" d="M98.02,51.1s-4.1-11.41-19.32-6.44c0,0,15.02-4.1,17.31,7.02,0,0,2,1.76,2-.59Z"/><path class="cls-12" d="M100.07,51.4s.93-10.24-14.61-12.29c0,0,16.57,.59,16.61,12,0,0,.04,2.05-2.01,.29Z"/><path class="cls-12" d="M127.59,46.13s.29-10.24-12.59-13.76c0,0,7.03-.88,12.59,7.61s-.29,.88-.29,.88c0,0,.88,2.05,.29,5.27Z"/><path class="cls-12" d="M124.15,32.96s7.83,2.47,9.15,12.65l.55-2.2s1.94,1.55,1.94,3.89c0,0,.15-10.83-11.63-14.34Z"/><path class="cls-12" d="M139.4,44.37c.07,.9-1.57-8.2-6.1-9.66,0,0,2.62-.45,5.71,4.52,.43,.68,2.54,3.96,2.93,4.84,0,0-3.01-5.56-2.53,.29Z"/><path class="cls-2" d="M86.01,181.05s-8.77,4.68-15.5,8.2c0,0-2.34-.59-4.98,.88,0,0-9.37,2.05-12.59,7.32,0,0-7.9,11.12-8.49,15.22,0,0-1.46,12.29-2.34,18.73,0,0-1.17,1.17,1.76,3.51,0,0,16.98,20.49,45.37,27.8,0,0,18.59,8.05,62.99,3.66,0,0,26.72-3.07,43.84-10.54,0,0,33.37-14.05,49.24-41.27,0,0,.81-3.07-3.58-10.98,0,0,1.88-3.16-13.76-13.76,0,0-7.02-2.93-10.24-2.93,0,0-3.8-1.83-7.02-4.28,0,0-20.49-8.3-24.29-8.89,0,0-5.85-5.85-7.61-5.85,0,0-1.17-1.76-3.51-2.34,0,0-56.2,38.49-54.59,40.68,0,0,1.86,5.12-2.54,5.79-10.18,1.53-10.95,14.7-13.21,14.17-.97-.23-6.88-18.68-7.39-19.66-3.62-6.89-1.91-2.81-5.09-12,0,0-5.29-4.39-6.45-13.46Z"/><path class="cls-13" d="M104.94,226.18s-5.16,26.15-3.55,32.73c0,0-3.12-13.23-.14-21.07,0,0,2.78-9.66,1.2-15.8,0,0-3.1-12.29-8.6-13.61,0,0-5.49-1.39-5.93,3.37,0,0-2.78,3.8-7.61,1.02,0,0-2.2-11.12,3.66-30.44,0,0,17.64,29.07,20.97,43.8Z"/><path class="cls-18" d="M89.17,173.38s-3.44,4.16-5.2,8.99c0,0-3.51,18.29-2.34,28.83,0,0,4.68,3.51,6.73-4.1,0,0-.14-6.15,5.49-4.39,0,0,4.9,3.23,5.96,10.25,0,0,.16,.79-2.26-10.69-2.45-11.63-6.95-18.44-8.38-28.89Z"/><path class="cls-13" d="M121.59,207.25s-.14,3.66,0,5.27c-1.02,2.05,3.51,1.02,3.51,1.02,0,0,12.29,9.51,22.1,7.1,2.97-.73,8.29-7.41,19.61-26.27,6.14-12.73,10.39-19.76,10.98-28.24l-9.8-2.49-3.36-7.02-10.11-4.54,1.61,9.37,8.5,7.9-43.03,37.9Z"/><path class="cls-19" d="M120.41,208.12s-2.38-3.41,6.57-8.22c0,0,22.41-17.25,36.31-37.15,0,0,.6-2.78,.89-6.29,0,0-2.69-.9-10.11-4.54,0,0,7.1,1,11.16,2.99,0,0,1.43,.38,2.04,1.34,0,0-.76,2.55,3.04,5.92,0,0,2.93,1.9,6.44,3.22,0,0,.44,6.88-10.54,25.76,0,0-14.93,25.02-19.32,27.66,0,0-1.46,1.32-5.27,0,0,0-14.06-5.71-16.69-9.66,0,0-2.19-3.95-4.53-1.02Z"/></svg>