<?xml version="1.0" encoding="UTF-8"?><svg id="MELAD" xmlns="http://www.w3.org/2000/svg" xmlns:xlink="http://www.w3.org/1999/xlink" viewBox="0 0 262 280"><defs><style>.cls-1{fill:#ecceb7;}.cls-2,.cls-3{fill:#e9e9e9;}.cls-4{fill:#f5deae;}.cls-5{fill:#b9997d;}.cls-6{fill:#333;}.cls-7{fill:#cfaa94;}.cls-8{fill:#a7876b;}.cls-9{fill:#d8ab94;}.cls-10{fill:#bc997d;}.cls-11{fill:#d0997d;}.cls-12{fill:#dbb19b;}.cls-13{fill:#e1c0a9;}.cls-14{fill:#d6b5a1;}.cls-15{fill:#1e2337;}.cls-16{fill:#222;}.cls-17{fill:#1c1c1c;}.cls-18{fill:#4b1800;}.cls-19{fill:#2c3242;}.cls-20{fill:#282d40;}.cls-21{clip-path:url(#clippath-1);}.cls-22{fill:url(#Namnlös_övertoning_470-2);opacity:.9;}.cls-23{fill:url(#Namnlös_övertoning_848-3);opacity:.6;}.cls-24{fill:url(#Namnlös_övertoning_2702);opacity:.77;}.cls-25{fill:url(#Namnlös_övertoning_78-2);opacity:.52;}.cls-26{fill:url(#Namnlös_övertoning_848);}.cls-27{fill:url(#Namnlös_övertoning_131);}.cls-28{fill:url(#Namnlös_övertoning_2702-2);}.cls-29{fill:url(#Namnlös_övertoning_2702-4);}.cls-30{fill:url(#Namnlös_övertoning_2702-3);}.cls-31{fill:url(#Namnlös_övertoning_848-2);}.cls-32{fill:url(#Namnlös_övertoning_131-2);}.cls-33{opacity:.4;}.cls-34{opacity:.5;}.cls-35{fill:url(#Namnlös_övertoning_78);}.cls-36{fill:url(#Namnlös_övertoning_470);opacity:.55;}.cls-37{fill:#fdffff;}.cls-37,.cls-3{opacity:.3;}</style><linearGradient id="Namnlös_övertoning_78" x1="101" y1="93.53" x2="181.09" y2="93.53" gradientUnits="userSpaceOnUse"><stop offset="0" stop-color="#aa8260"/><stop offset="1" stop-color="#ddb5a1"/></linearGradient><linearGradient id="Namnlös_övertoning_848" x1="107.11" y1="149.74" x2="177.12" y2="149.74" gradientUnits="userSpaceOnUse"><stop offset="0" stop-color="#9c704a"/><stop offset="1" stop-color="#bea689"/></linearGradient><clipPath id="clippath-1"><path class="cls-26" d="M142.03,173.95c-6.58-5.85-13.38-12.99-21.6-16.26-6.68-2.66-10.22-9.13-12.55-15.56-1.35-3.7,.5-6.73,.83-10.6,.4-4.82-.57-9.65-1.59-14.33,1.15,3.7,3.86,6.67,6.5,9.5,3.27,3.52,6.56,7.16,10.58,9.84,4.92,2.95,9.98,5.62,15.24,7.91,3.94,1.72,9.95,3.85,14.33,3.23s7.01-5.05,9.72-7.82c2.42-2.47,5.36-4.31,7.96-6.57,2.77-2.4,3.94-5.41,5.68-8.59-1.01,6.97-3.46,13.78-5.15,20.62-1.4,5.68-1.3,11.83-2.17,17.63-.25,1.69-7.02,7.46-7.83,8.96-2.6,4.85-8.58,5.15-10.33,10.37-4.25-2.18-6.05-5.16-9.61-8.33Z"/></clipPath><linearGradient id="Namnlös_övertoning_848-2" x1="107.6" y1="154.81" x2="172.03" y2="154.81" xlink:href="#Namnlös_övertoning_848"/><linearGradient id="Namnlös_övertoning_848-3" x1="107.85" y1="156.14" x2="153.51" y2="156.14" xlink:href="#Namnlös_övertoning_848"/><linearGradient id="Namnlös_övertoning_2702" x1="125.84" y1="86.95" x2="145.42" y2="86.95" gradientUnits="userSpaceOnUse"><stop offset="0" stop-color="#bf9072"/><stop offset="1" stop-color="#ddaf8f"/></linearGradient><linearGradient id="Namnlös_övertoning_78-2" x1="101.14" y1="88.74" x2="152.12" y2="88.74" xlink:href="#Namnlös_övertoning_78"/><linearGradient id="Namnlös_övertoning_2702-2" x1="121.03" y1="111.99" x2="132.99" y2="111.99" xlink:href="#Namnlös_övertoning_2702"/><linearGradient id="Namnlös_övertoning_2702-3" x1="162.5" y1="113.18" x2="175.02" y2="113.18" xlink:href="#Namnlös_övertoning_2702"/><linearGradient id="Namnlös_övertoning_2702-4" x1="133.37" y1="105.7" x2="162.37" y2="105.7" xlink:href="#Namnlös_övertoning_2702"/><linearGradient id="Namnlös_övertoning_131" x1="126.78" y1="124.77" x2="167.7" y2="124.77" gradientUnits="userSpaceOnUse"><stop offset="0" stop-color="#bf6851"/><stop offset="1" stop-color="#d29e82"/></linearGradient><linearGradient id="Namnlös_övertoning_131-2" x1="126.46" y1="118" x2="168.05" y2="118" xlink:href="#Namnlös_övertoning_131"/><linearGradient id="Namnlös_övertoning_470" x1="122.81" y1="124.22" x2="172.34" y2="124.22" gradientUnits="userSpaceOnUse"><stop offset="0" stop-color="#565b68"/><stop offset="1" stop-color="#1e2337"/></linearGradient><linearGradient id="Namnlös_övertoning_470-2" x1="141.35" y1="165.88" x2="141.35" y2="125.39" xlink:href="#Namnlös_övertoning_470"/></defs><g id="BG"><circle class="cls-4" cx="131.65" cy="130.77" r="129"/></g><g id="Melad"><g class="cls-34"><path class="cls-35" d="M117.26,145.42c-13.33-16.85-14.53-45.5-15.97-66.41-1.32-19.2,1.31-41.79,21.24-50.46,20.18-8.78,44.63,5.5,50.8,25.64,2.6,8.49,2.35,16.68,2.39,25.49,.02,3.58,.04,7.21,.99,10.67,1.06,3.86,3.24,7.37,4.02,11.29,.67,3.32,.3,6.76-.19,10.11-1.35,9.37-3.6,18.55-6.65,27.5-2.4,7.05-4.99,14.45-11.34,18.94-2.54,1.8-5.7,2.49-8.8,2.78-13.72,1.32-27.93-4.74-36.48-15.54Z"/></g><path d="M50.76,177.01c-6.76,5.98-12.74,12.54-19.11,18.91-5.85,5.85-11.91,12.11-14.15,20.31-.61,2.22-.9,4.66,0,6.77,2.02,4.7,7.22,9.89,11.36,12.91,5.45,3.97,10.51,8.44,16.05,12.31,12.25,8.56,25.96,15.03,40.38,18.96,18.56,5.06,38.02,5.93,57.25,5.48,14.02-.33,28.24-1.39,41.41-6.19,18-6.57,32.77-19.63,46.71-32.78,1.53-1.44,3.14-3.04,3.5-5.11,.26-1.47-.15-2.96-.56-4.4-2.95-10.34-5.89-20.68-8.84-31.01-3.33-11.69-6.16-24.85-16.61-32.14-4.23-2.95-8.96-5.08-13.67-7.2-2.75-1.24-5.5-2.47-8.25-3.71-4.15-1.87-8.47-4.28-12.91-5.02-4.76-.8-9.8-.87-14.62-1.19-10.6-.7-21.17-1.74-31.77-2.48-8.32-.58-18.19-1.58-26.22,1.35-2.14,.78-4.11,1.97-6.06,3.15-8.04,4.87-16.32,9.49-24.23,14.53-7.09,4.52-13.37,10.98-19.67,16.55Z"/><path class="cls-16" d="M76.96,262.13c.54,.39,1.12,.75,1.68,1.1,10.37,6.43,17.36,9.85,29.61,11.23,11.43,1.29,22.82,1.2,34.29,1.2,14.02-.33,28.24-1.39,41.41-6.19,18-6.57,32.77-19.63,46.71-32.78,1.53-1.44,3.14-3.04,3.5-5.11,.26-1.47-.15-2.96-.56-4.4-2.95-10.34-5.89-20.68-8.84-31.01-3.33-11.69-6.16-24.85-16.61-32.14-4.23-2.95-8.96-5.08-13.67-7.2-2.75-1.24-5.5-2.47-8.25-3.71-4.15-1.87-8.47-4.28-12.91-5.02-4.76-.8-9.8-.87-14.62-1.19-17.56-1.15-33.57-1.85-50.39,4.4-21.1,7.84-35.04,21.7-48.14,39.65-4.69,6.42-7.24,8.81-2.81,15.48,3.94,5.94,7.43,12.01,10.08,18.65,4.21,10.53,4.6,18.9,5.88,30.1,.18,1.54,.4,3.12,1.19,4.46,.6,1.02,1.49,1.81,2.46,2.5Z"/><path d="M149.93,176.91c1.01,1.01,2.02,2.01,3.08,2.85,.08,.07,.17,.14,.22,.23,.04,.09,.04,.19,.04,.29-.1,4.79-1.31,9.4-1.48,14.17-.2,5.36,.54,10.76,.33,16.07-.15,3.94,.49,7.75,.83,11.65s.63,7.63,1.02,11.44c.2,1.96,.41,3.93,.49,5.9,.07,1.65,.05,3.3,.04,4.96-.04,4.13-.07,8.25-.11,12.38-.02,2.02-.04,4.03-.05,6.05-.02,1.89-.38,3.34-.74,5.16-.94-13.29-1.87-26.59-2.81-39.88-.56-7.98-.26-15.88-1.04-23.87-.48-4.9-.5-9.72-.28-14.62,.06-1.23,.11-2.57-.64-3.54-.46-.6-1.17-.95-1.85-1.28-3.2-1.56-6.39-3.12-9.59-4.68,1.49-1.38,2.77-2.97,3.81-4.72,.9-1.52,1.89-3.53,3.83-2.54,1.8,.92,3.36,2.45,4.89,3.97Z"/><path class="cls-15" d="M173.01,63.02c.89,5.02,.61,10.15,1.2,15.2,.19,1.61,.27,3.32,.83,4.85,.98,2.7,3.23-.16,3.05-1.95-.44-4.29,.1-8.57,.44-12.84,.29-3.67-.36-7.81-.78-11.49-.33-2.85-1.77-5.76-2.92-8.38-.76-1.74-1.78-5.48-3.27-6.67-1.36-1.09-4.14-.9-5.87-1.15-.36-.05-.76-.1-1.05,.11-.58,.4-.27,1.32,.15,1.87,.87,1.14,.94,2.62,1.54,3.92,2.59,5.6,5.16,10.47,6.67,16.52Z"/><g><path class="cls-26" d="M142.03,173.95c-6.58-5.85-13.38-12.99-21.6-16.26-6.68-2.66-10.22-9.13-12.55-15.56-1.35-3.7,.5-6.73,.83-10.6,.4-4.82-.57-9.65-1.59-14.33,1.15,3.7,3.86,6.67,6.5,9.5,3.27,3.52,6.56,7.16,10.58,9.84,4.92,2.95,9.98,5.62,15.24,7.91,3.94,1.72,9.95,3.85,14.33,3.23s7.01-5.05,9.72-7.82c2.42-2.47,5.36-4.31,7.96-6.57,2.77-2.4,3.94-5.41,5.68-8.59-1.01,6.97-3.46,13.78-5.15,20.62-1.4,5.68-1.3,11.83-2.17,17.63-.25,1.69-7.02,7.46-7.83,8.96-2.6,4.85-8.58,5.15-10.33,10.37-4.25-2.18-6.05-5.16-9.61-8.33Z"/><g class="cls-21"><path class="cls-31" d="M113.54,158.92c2.84,4.22,6.85,7.51,10.79,10.73,2.98,2.44,5.97,4.87,8.95,7.31,2.85,2.33,5.76,4.69,9.16,6.13,4.47,1.88,9.48,2.02,14.31,1.69,1.55-.1,3.26-.33,4.29-1.49,.71-.8,.65-2.01,1.18-2.93,8.03-14.01,8.76-27.28,9.81-36.29-15.05-1.24-35,1.48-45.67-9.21-4.64-4.65-9.59-10.47-16.16-10.12-3.94,.22-2.3,13.72-2.07,16.68,.49,6.15,1.91,12.32,5.4,17.5Z"/><path class="cls-23" d="M153.51,187.65c-9.89-11.18-24.48-17.26-34.69-28.14-4.04-4.31-7.33-9.32-9.67-14.74-.44-1.02-.85-2.05-1.07-3.14-.48-2.29-.11-4.67,.25-6.98,.53-3.34,1.06-6.68,1.59-10.03,6.06,5.61,12.41,10.9,19.02,15.85,1.8,1.35,3.64,2.68,5.65,3.7,2.82,1.43,5.95,2.23,8.6,3.94,5.57,3.59,6.34,9.49,7.4,15.47,1.41,7.95,2.35,16.01,2.92,24.07Z"/></g></g><path class="cls-13" d="M183.82,84.85c-.02,.63-.03,1.25,.02,1.88,.18,2.75-.5,5.73-.69,8.49-.18,2.54-.17,5.1-.75,7.58-.57,2.48-1.81,4.92-3.92,6.32-2.68-7.87-8.1-22.38-.09-28.84,1-.81,3.7-2.26,4.92-1.06,.31,.31,.36,.79,.4,1.24,.11,1.51,.17,2.87,.11,4.38Z"/><path class="cls-12" d="M181.68,89.05c-.18,.52-.4,1.04-.45,1.59-.03,.35,0,.7,.03,1.05,.12,1.5,.02,3.1-.81,4.35-.16,.23-.4,.48-.68,.4-.22-.06-.33-.3-.4-.51-.41-1.21-.52-2.49-.61-3.76-.15-2.13-.27-4.31,.23-6.38,.46-1.9,1.65-3.63,3.08-4.93,.16-.14,.34-.29,.56-.27,.21,.02,.37,.2,.43,.4s.03,.41,0,.62c-.21,1.23-.85,2.57-.75,3.83s-.22,2.44-.64,3.61Z"/><path class="cls-9" d="M94.06,82.69c-.26,.12-.53,.3-.78,.56-.88,.89-.98,2.29-.9,3.54,.14,2.06,.65,4.08,1.19,6.08,2.03,7.5,4.71,15.14,10.14,20.7,.62,.64,1.43,1.29,2.3,1.11-.76-4.41-.77-9.05-1.07-13.53-.21-3.23-.14-6.73-.87-9.9-.02-.07-.03-.15-.06-.22-.18-.57-.55-1.06-.92-1.53-1.44-1.84-2.91-3.73-4.77-5.17-1.2-.93-2.79-2.29-4.27-1.63Z"/><path class="cls-11" d="M101.41,96.64c2.08-3.81-2.43-7.89-4.9-10.21-.56-.52-1.45-1.19-2.26-.92-.66,.22-.98,1.01-.94,1.71s.35,1.35,.56,2.01c.37,1.17,.45,2.41,.66,3.62,.5,2.9,1.75,5.66,3.61,7.95,.19,.23,.39,.46,.66,.59,.33,.15,.71,.13,1.06,.22,1.01,.25,1.56,1.31,1.99,2.25-1.13-1.62-2.32-3.64-1.53-5.46,.28-.63,.76-1.15,1.09-1.75Z"/><path class="cls-1" d="M122.03,138.2s-.08-.05-.12-.07c-19.37-11.85-19.12-38.83-20.48-58.59-1.32-19.2,1.31-41.79,21.24-50.46,20.18-8.78,44.63,5.5,50.8,25.64,2.6,8.49,2.35,16.68,2.39,25.49,.02,3.58,.04,7.21,.99,10.67,1.06,3.86,3.24,7.37,4.02,11.29,.67,3.32,.3,6.76-.19,10.11-.96,6.69-3.26,13.09-6.7,18.9-1.76,2.97-3.79,5.78-5.98,8.45-.99,1.21-2.04,2.85-3.28,3.8s-2.63,.86-3.74,2.28c-.75,.96-1.33,2.05-2.2,2.9-1.92,1.86-4.82,2.13-7.49,2.31-3.89,.25-8.13,.42-11.3-1.85-2.64-1.89-4.72-4.29-7.61-5.89-3.35-1.87-7.06-2.97-10.36-4.96Z"/><path class="cls-24" d="M145.42,87.44c0,5.23-.08,9.98-.76,15.3-3.67-.98-7.62-.88-11.24,.27,4.64-3.33,8.12-11.34,8.25-17.02,.07-2.75-.78-5.55-2.53-7.67-3.11-3.77-8.42-4.86-13.3-4.89,1.27-1.47,3.31-1.93,5.21-2.32,.74-.15,1.49-.3,2.24-.19,.7,.1,1.35,.43,1.97,.79,6.21,3.59,9.15,9.33,10.16,15.73Z"/><path class="cls-25" d="M122.67,29.08c-19.93,8.67-22.56,31.25-21.24,50.46,1.36,19.76,1.11,46.74,20.48,58.59,.04,.02,.08,.05,.12,.07,3.29,1.99,7.01,3.1,10.36,4.96,2.89,1.61,4.96,4,7.61,5.89,3.17,2.27,7.41,2.11,11.3,1.85,.28-.02,.56-.04,.83-.06-1.89-24.95-4.15-52.35-5.26-72.28,0-2.94-.18-5.9-.42-8.86-.33-4.18-.78-8.36-1-12.51-.29-5.48-1.13-11.4-.65-16.87,.09-1.02-.25-8.17-.88-12.86-6.98-1.69-14.36-1.38-21.25,1.61Z"/><path class="cls-6" d="M131.97,73.44c1.62,.09,3.25,.18,4.87,.27,.49-.93-.08-2.13-.98-2.69s-1.99-.63-3.04-.68c-3.38-.17-6.8-.26-10.09,.49-4.89,1.11-10.96,5.03-11.17,10.53-.08,1.96,1.52-.44,1.78-.82,.99-1.45,2.06-2.84,3.18-4.19,.89-1.06,1.85-2.12,3.1-2.72,1.61-.77,3.48-.69,5.27-.59,2.36,.13,4.73,.26,7.09,.4Z"/><path class="cls-28" d="M121.85,113.69c-.16,.38-.3,.78-.43,1.23-.29,1.02-.47,2.08-.35,3.13,.12,1.05,.58,2.09,1.41,2.75,.53-2.23,1.07-4.51,2.34-6.41,.44-.66,.96-1.27,1.48-1.87,1.31-1.51,2.87-2.99,3.98-4.65,1-1.51,1.58-3.25,2.7-4.69-.76,.97-2.38,1.75-3.35,2.56-1.23,1.03-2.31,2.28-3.58,3.25-1.91,1.47-3.33,2.61-4.21,4.7Z"/><path class="cls-30" d="M168.02,103.63c1.04,.85,2.04,1.75,2.98,2.71,2.74,2.78,4.13,6.03,4.01,9.98-.12,3.75-1.8,7.37-4.34,10.12,.42-2.04,.84-4.08,1.26-6.12,.81-3.92-1.13-8.55-3.08-11.89-1.79-3.05-4.07-5.78-6.34-8.49,1.95,1.06,3.8,2.3,5.52,3.7Z"/><path class="cls-29" d="M149.04,109.73c-1.55,.02-2.81-.35-4.38-.75-2.35-.6-4.79-.92-7.21-1.14-1.54-.14-2.47-2.4-2.53-3.97-.05-1.22,.39-2.41,.9-3.53-.08,.18-1.34,.66-1.6,.94-.45,.5-.77,1.16-.83,1.84-.11,1.37,.48,3.09,1.32,4.17,.89,1.14,1.77,.99,2.98,1.34,.14,.04,.21,.32,.41,.38,.31,.11,.71,.11,1.03,.16,.7,.1,1.39,.21,2.09,.31,1.32,.2,2.68,.41,3.86,1.04,1.32,.71,2.19,1.15,3.75,1.12,.85-.02,1.72-.04,2.53-.33,.77-.28,1.43-.79,2.14-1.2,3.2-1.86,9.22-2.52,8.87-7.39-.09-1.29-.86-2.63-2.11-2.97,.3,.08,.47,1.94,.46,2.25-.04,.99-.35,1.95-.93,2.76-.76,1.06-1.96,2.8-3.25,3.01-.42,.07-.84,.08-1.26,.16-1.85,.33-3.32,1.51-5.24,1.74-.35,.04-.67,.06-.99,.07Z"/><path class="cls-37" d="M156.13,115.98c-4.87,.56-9.79,.25-14.69,.41-4.9,.16-9.02,1.75-13.31,4.05,1.37,1.35,2.77,2.72,4.23,4,2.7,1.9,5.62,3.49,8.93,4.37,4.43,1.18,9.33,.98,13.61-.58,4.28-1.56,7.9-4.44,10.07-8.03,.14-.24,.28-.48,.41-.72,.58-1.34,1.15-2.69,1.91-3.95-4-.17-7.19-.02-11.17,.44Z"/><path class="cls-3" d="M150.96,129.39c-1.06,.04-4.13,.09-5.19,.13-1.52,.06-3.04,.12-4.55-.05-3.11-.36-5.98-1.73-8.37-3.47-2.4-1.74-4.05-3.57-6.01-5.67,6.14-2.22,11.88-2.79,18.14-2.82,3.48-.02,5.27,.89,5.44,3.63,.04,.69,.52,8.25,.53,8.25Z"/><path class="cls-18" d="M129.27,120.47l8.01,4.93c1.29,.79,2.58,1.59,3.98,2.15,2.84,1.15,5.98,1.31,9.05,1.24,3.59-.08,7.47-.59,10.08-3.05,2.72-2.56,3.44-6.67,5.96-9.43-6.95,.01-13.83,1.35-20.78,1.59-5.94,.2-12.2-.34-17.51,2.34,1.19,.59,2.37,1.18,3.56,1.77"/><path class="cls-2" d="M159.34,124.48c-.87,.34-1.73,.8-2.61,1.02s-1.92,.29-2.85,.4c-2.17,.26-4.35,.51-6.52,.77-.91,.11-1.83,.21-2.75,.19-1.2-.03-2.39-.29-3.59-.29,.47,.89,1.6,1.14,2.59,1.31,1.66,.27,3.34,.55,5.02,.52,2.77-.05,5.44-.89,8.08-1.67,.72-.21,1.61-.17,2.28-.52,.46-.24,1.77-2.19,.82-1.88-.15,.05-.31,.11-.46,.16Z"/><path class="cls-27" d="M151.46,127.41c-3.44,.56-6.84,.2-10.23-.75-2.65-.75-5-2.24-7.31-3.71-1.98-1.26-4.76-3.87-7.14-2.2,.97-1.13,2.05,2.01,2.41,2.5,1.15,1.57,2.88,2.94,4.38,4.16,3.63,2.95,8.06,5.91,12.82,6.3,3.86,.31,8.74-.14,11.77-2.8,3.46-3.05,4.74-7.32,6.92-11.23,.4-.71,.83-1.4,1.26-2.09,.25-.4,.9-1.74,1.36-1.82-2.24,.42-3.2,2.98-4.3,4.7-.79,1.24-1.78,2.39-2.83,3.42-1.94,1.9-4.76,2.49-7.28,3.15-.61,.16-1.23,.29-1.84,.39Z"/><path class="cls-7" d="M133.73,121.12c.17,.31,.35,.63,.65,.83,.31,.2,.7,.23,1.07,.24,1.73,.04,3.44-.23,5.17-.34,4.29-.26,8.6,.48,12.87,.03,2.81-.3,5.56-1.12,8.07-2.4,.25-.13,.49-.26,.68-.47,.46-.52,.35-1.31,.22-1.99-.04-.21-.09-.44-.27-.56-.1-.07-.23-.08-.35-.1-4.15-.48-8.24,.95-12.37,1.6-2.56,.41-5.16,.52-7.76,.63-.98,.04-1.96,.08-2.93,.04-1.4-.06-2.83-.27-4.22-.07-.41,.06-1.56,.18-1.73,.65s.69,1.52,.9,1.91Z"/><path class="cls-32" d="M140.32,118.79c.94,.05,1.88,.13,2.81,.25,1.38,.18,2.75,.43,4.14,.49,3.64,.15,7.18-1.08,10.77-1.7,3.34-.58,6.8-.65,10.01-1.74-1.81-.73-3.4-.66-5.27-.68-2.07-.02-4.15-.11-6.22-.26-1.17-.09-2.36-.17-3.5,.09-.93,.21-1.81,.64-2.75,.71-.82,.05-1.62-.17-2.42-.34-3.85-.8-9.22,.22-12.87,1.23-.9,.25-8.79,3.77-8.55,4.01,.03,.03,.06,.06,.09,.09,0,0,3.19-1.11,3.58-1.18,1.42-.25,2.81-.59,4.24-.76,1.97-.23,3.96-.3,5.95-.21Z"/><path class="cls-15" d="M105.21,57.4c1.43-2.72,5.72-10.81,6.26-10.75-3.71-.39-7.93,.47-11.66,.93-.74,.09-1.5,.2-2.16,.54-1.99,1.05-2.29,3.73-2.33,5.97,0,3.71-.4,7.35-.78,11.05,.41-.36,.75-.81,.99-1.31-.48,4.33-.97,8.66-1.45,12.99,.21-.38,.43-.77,.64-1.15-.38,.68-.16,4.75,.04,5.65,.32,1.42,1.24,1.89,2.42,2.63,3.19,2,5.68,4.46,6.59,8.26-.2-7.32-1.53-14.59-1.39-21.91,.09-4.67,.2-7.88,2.42-12.12,.07-.14,.21-.41,.41-.78Z"/><path class="cls-19" d="M101.14,80.32l2.56-16.86c-.63,4.28-2.26,8.17-2.31,12.5,.19-4.39,.43-8.96,2.55-12.82"/><path class="cls-19" d="M121.14,39.87c-5.33,4.76-10.7,10.48-17.55,12.94,2.2-1.66,4.39-3.33,6.59-4.99-4.88,3.57-10.64,5.93-16.62,6.82,1.1-1.21,2.32-2.3,3.64-3.26-1.11,.56-2.28,1.01-3.48,1.33,.65-1.74,1.81-3.29,3.31-4.39-1.5,.51-2.8,1.61-3.54,3.01,.09-1.91,.78-3.89,1.23-5.74,.49-2.02,1.04-4.04,1.68-6.02,1.26-3.95,2.88-7.83,5.21-11.27,3.88-5.72,8.71-6.05,14.5-9.37,1.41-.8,2.57-1.97,3.85-2.95,4.32-3.3,10.03-4.42,15.45-3.98,5.42,.45,10.62,2.35,15.57,4.6,5,2.28,12.54,4.91,16.57,8.62,1.37,1.26,2.17,3.28,3.05,4.97,2,3.82,4.15,8.39,2.12,12.65-1.67,3.49-6.83,1.27-9.84-.09-7.1-3.2-14.38-10.58-22.81-8.49-4.02,1-7.6,4.25-11.71,3.71-1.06-.14-2.1-.53-3.16-.44-1.58,.13-2.86,1.28-4.04,2.34Z"/><path d="M116.3,151.6c2.34,2.19,4.86,4.07,7.42,6.17,7.56,6.21,15.6,12.34,22.03,19.87-2.88-1.59-6.58-.37-8.71,2.14-2.09,2.46-3.36,5.33-4.84,8.17-.44,.85-.89,1.72-1.09,2.66-1.57-1.96-3.76-3.52-5.6-5.24-2.86-2.68-6.1-4.95-8.95-7.59-1.22-1.13-2.7-1.8-3.9-2.94-1.44-1.38-2.89-2.74-4.26-4.2-2.67-2.85-5.13-5.9-7.34-9.12-.98-1.44-1.94-2.98-2.14-4.71-.21-1.83,.4-3.33,1.14-4.92,.84-1.8,1.23-3.83,2-5.68,1.64-3.94,3.8-7.63,5.57-11.51-.98,2.13,4.08,11.77,5.39,13.4,1.03,1.28,2.13,2.42,3.27,3.49Z"/><path d="M178.05,161.22c.43,2.48,.84,5.13-.15,7.45-.72-1.58-1.44-3.17-2.17-4.75-.11,2.03-1.05,4-2.55,5.37-1.11,1.02-2.5,1.53-3.69,2.4-1.03,.75-2.06,1.71-3.02,2.56-1.01,.89-1.83,1.96-2.65,3.03-1.39,1.81-2.78,3.62-3.93,5.58-1.26,2.14-2.29,4.53-4.24,6.06,.06-1.63,.65-3.2,1.23-4.72,1.21-3.19,2.86-6.46,3.71-9.76,.34-1.32,.44-2.1,1.42-3.19,.97-1.07,2.16-1.92,3.25-2.86,3.68-3.19,3.35-7.33,3.86-11.81,.52-4.65,1.9-9.2,4.04-13.36,2.55,2.57,3.8,5.3,4.21,8.85,.35,3.03,.17,6.13,.69,9.14Z"/><path d="M63.3,205.11c3.01,3.11,5.42,6.1,6.31,7.42,9.42,14.09,16.4,29.79,20.53,46.23-2.62-10.43-7.26-20.32-13.21-29.25-5.76-8.64-12.26-15.33-20.04-22.3-3.83-3.43-7.8-6.83-12.52-8.88s-10.33-2.6-14.92-.29c4.35-3.06,10.09-3.65,15.31-2.63,6.8,1.33,13.75,4.73,18.54,9.69Z"/><path class="cls-17" d="M128.41,19.2c-.39,4.33-.51,8.68-.38,13.02,.02,.81-.09,5.66,.86,5.8,1.25,.18,1.42-3.43,1.43-4.03,.04-2.51-.19-5.06-.52-7.55-.28-2.15-1.58-5.14-1.39-7.24Z"/><path class="cls-17" d="M137.55,19.16c.93,4.12,.64,8.96,.61,13.17,0,.55-.16,1.61-.23,2.66,.7-.29,1.4-.54,2.13-.72,.06-.01,.12-.02,.18-.03-.1-3.57-.88-7.08-1.66-10.56-.34-1.5-.68-3.01-1.02-4.51Z"/><path class="cls-17" d="M146.91,33.57c2.57-.9,4.1-3.68,4.29-6.4s-.72-5.37-1.73-7.9c-.5-1.26-1.05-2.53-1.92-3.56-1.33-1.57-3.42-2.48-5.48-2.38,2.11,.75,3.69,2.5,5.05,4.28,.9,1.18,1.75,2.42,2.23,3.81,1.28,3.67-1.8,10.16,1.14,12.98,.71-2.51-.17-5.61-.17-8.22-.05-1.69-.16-3.55-1.34-4.76,.08,2.95,.17,5.9,.25,8.85,.02,.87-.07,2.12,.13,3.21"/><path class="cls-20" d="M130.38,81.78c.34,1.27,.3,2.95-.95,3.72-.56,.35-1.23,.48-1.88,.59-.59,.1-1.2,.2-1.77,.02-1.03-.32-1.99-1.5-2.23-2.52-.31-1.29,.18-2.59,1.24-3.38,1.06-.79,2.48-1.44,3.77-.82,.93,.45,1.55,1.38,1.82,2.38Z"/><path class="cls-20" d="M164.76,80.18c.16,.59,.18,1.22,.09,1.83-.09,.61-.46,1.19-.9,1.62-.49,.47-.95,.57-1.6,.67-.68,.1-1.38,.09-2.05-.1-1.13-.32-2.09-1.37-2.26-2.54-.17-1.17,.32-2.3,1.26-3,.99-.74,2.28-.76,3.45-.57s1.69,.97,2,2.09Z"/><path class="cls-8" d="M171.21,82.26c-1.4-.29-2.85,.09-4.18,.61-.93,.37-1.78,.75-2.75,.97-.61,.13-1.21,.24-1.83,.3-.41,.04-.81,.06-1.22,.07-.38,0-.75,.11-1.14,.09,.69,.08,1.37,.2,2.06,.27,.75,.07,1.53,.04,2.26-.14,.97-.25,1.99-.49,2.94-.83,1.38-.5,2.69-1.34,4.16-1.35"/><path class="cls-6" d="M127.82,79.97c.88-.08,2.71,.13,3.58,.31,.58,.12,1.14,.33,1.7,.53,1.94,.71,4.03,1.56,5.08,3.48-.42-1.15-1.33-2.09-2.22-2.87-1.09-.95-2.22-1.8-3.53-2.34-.92-.38-1.9-.53-2.89-.56-4.68-.12-7.33,3.37-11.58,4.34,.74,.07,1.49,.03,2.22-.1-.99,1.33-1.98,2.65-2.99,3.96,2.33-1.18,3.48-3.64,5.68-5.01,1.64-1.01,2.03-1.48,4.95-1.75Z"/><path class="cls-6" d="M161.23,78.16c-1.28,.22-2.66,.84-3.74,1.37-1.39,.69-2.02,1.97-3.19,2.93-.21,.17-.46,.36-.73,.34-.04-.25,.17-.45,.33-.65,.55-.67,.83-1.51,1.47-2.11,.72-.67,1.56-1.22,2.45-1.64,1.74-.83,3.67-1.22,5.6-1.17,3.3,.09,5.42,2.94,8.59,3.5-.74,0-1.48,0-2.23,0,.46,.18,.81,.57,1.2,.88s.92,.54,1.38,.35c-.53,.27-1.17,.07-1.67-.25-2.62-1.68-5.35-3.65-8.62-3.62-.27,0-.55,.03-.83,.08Z"/><path class="cls-6" d="M168.84,71.19c1.23-.02,2.51,.03,3.58,.61,1.42,.77,2.22,2.32,2.88,3.8-.42-2.63-1.02-5.56-3.23-7.05-3.8-2.55-10.68-.66-14.82,.06-1.42,.25-3.06,.72-3.55,2.08-1.36,3.78,3.78,2.03,5.24,1.71,3.26-.69,6.57-1.16,9.9-1.22Z"/><path class="cls-10" d="M139.78,82.71c-.98-2.58-3.28-4.54-5.89-5.41s-5.51-.71-8.13,.14-5,2.35-7.12,4.11c2.16-1.32,4.58-2.15,7-2.87,1.81-.53,3.66-1,5.54-.91,3.51,.17,6.78,2.39,8.49,5.46,.31-.27,.15-.78-.04-1.15-.34-.67-.69-1.34-1.03-2.01"/><path class="cls-14" d="M161.2,75.61c3.31-1.04,7.46-.88,9.94,1.56-1.43-1.62-3.66-2.32-5.81-2.53-.99-.1-2-.1-2.99,.09-2.4,.46-4.25,1.69-6.16,3.21-1.05,.83-2.3,2.07-2.77,3.36,.42-1.33,2.42-2.47,3.49-3.32,1.38-1.09,2.62-1.85,4.3-2.37Z"/><path class="cls-14" d="M156.84,86.65c3.02,.91,6.24,1.1,9.35,.55,1.43-.25,2.91-.71,3.86-1.8-4.39,1.7-9.32,1.96-13.87,.74,.44,.66,1.23,1.07,2.03,1.05"/><path class="cls-10" d="M121.11,87.79c1.12,.34,2.08,.99,3.26,1.25s2.43,.34,3.65,.24c2.37-.19,4.75-1.06,6.59-2.59-4.13,2.07-9.1,2.45-13.5,1.1Z"/><path class="cls-2" d="M155.52,123.82c-.46,.2-.45,.71-1.01,.81-.52,.1-1.03,.28-1.55,.32-.41,.03-.82-.11-1.22-.19-.14-.03-.44-.2-.56-.17-.15,.03-.33,.34-.48,.43-.37,.22-.83,.26-1.25,.3-.49,.04-.98,.08-1.47,.11-.32,.02-.65,.05-.96-.03-.4-.11-.63-.45-.95-.68-.3-.21-.5-.23-.87-.22-.57,0-1.14-.06-1.69-.2-.36-.09-.71-.21-1.08-.23-.4-.02-.8,.08-1.2,.09-.42,.02-.85-.06-1.24-.23-.1-.04-.2-.09-.31-.09-.09,0-.18,.05-.26,.08-.32,.14-.68,.17-1.02,.12-.41-.07-.65-.39-1-.49-.64-.19-1.43-.12-2.11-.29-1.78-.44-2.28-1.91-2.49-3.6,.49-.13,1.07,.34,1.53,.41,.8,.12,1.59-.05,2.41,.15,.75-.22,1.63-.3,2.35,.07,.03,.02,.06,.03,.09,.03,.13,0,.16-.17,.23-.27,.09-.13,.27-.14,.43-.14,.68,0,1.37-.02,2.05-.03,.05,0,.11,0,.15,.02,.05,.03,.08,.08,.11,.12,.08,.12,.2,.22,.34,.25,.22,.04,.38-.19,.58-.24,.79-.21,3.05-.29,3.27,.85,0,.05,.01,.1,.04,.14,.2,.3,.49-.65,.75-.7,.72-.13,1.46-.23,2.19-.25,.46-.02,.78,.15,1.01,.55,.12,.2,.39,.41,.57,.25,.17-.16,0-.47,.12-.67,.06-.11,.19-.16,.3-.2,1.09-.39,2.78-.84,3.91-.44,.43-.44,1.4-.39,2.04-.48,.28-.04,.58-.08,.82-.23,.3-.18,.5-.5,.83-.64,.29-.12,.62-.06,.93-.08,.94-.06,1.82-1.03,2.57-.28,.62,.62,.46,1.86,.01,2.53-.25,.37-.63,.48-.96,.77-.35,.31-.61,.7-1.01,.96-.67,.43-1.52,.39-2.31,.5-.19,.03-.39,.07-.54,.19-.11,.09-.19,.21-.28,.32-.49,.58-1.12,.47-1.76,.69-.02,0-.04,.01-.05,.02Z"/><path class="cls-5" d="M117.2,117.27c.31,1.13,1.07,2.13,2.08,2.73-1.6-.96-1.84-3.83-1.8-5.43-.68,.54-.48,1.95-.28,2.69Z"/><path class="cls-2" d="M151.01,121.85c.28,.92,.39,1.9,.31,2.86-.4-.84-.5-1.81-.28-2.71"/><path class="cls-2" d="M145.65,121.83c.07,.94,.22,1.87,.43,2.79-.53-.76-.73-1.74-.54-2.64"/><path class="cls-8" d="M124.53,86.61c.86-.02,1.73-.13,2.58-.2s1.75-.2,2.53-.59c-2.8,.5-5.59,.32-8.41,.4-.79,.02-1.88,0-2.59,.36,.61,.37,1.72,.06,2.4,.04,1.16-.03,2.33,.01,3.49-.02Z"/><path class="cls-8" d="M127.75,86.37c1.39-.33,2.71-.8,4.06-1.26,.59-.2,1.19-.41,1.81-.5s1.28-.06,1.85,.2c.05,.02,.11,.05,.16,.03,.07-.03,.09-.14,.05-.2s-.12-.1-.19-.13c-.92-.35-1.96-.1-2.91,.18-.91,.27-1.81,.57-2.7,.91-.34,.13-.7,.17-1.02,.31-.36,.16-.72,.38-1.11,.47Z"/><path class="cls-33" d="M144.83,135.31c-4.37-.71-9.03-2.33-12.83-4.48-2.98-1.68-5.5-5.41-9.11-4.56-2.23,.52-4.72,.79-6.71-.34,3.85,2.68,7.17,6.1,9.75,10.01,2.31,3.5,4.75,7.22,9.05,8.33,1.96,.51,4.01,.48,6.03,.44,4.11-.07,8.22-.15,12.32-.22,3.91-.07,8.08-.22,11.28-2.46,1.83-1.28,3.18-3.14,4.32-5.05,1.92-1.92,3-6.21,4.17-8.63,1.59-3.3,3.16-6.61,4.72-9.93-.8,.74-1.95,.91-2.97,1.26-1.81,.62-3.34,1.85-4.82,3.05-3.8,3.09-6.56,7.21-10.79,9.81-4.04,2.48-8.77,3.52-13.47,2.9-.31-.04-.63-.09-.95-.14Z"/><path class="cls-36" d="M136.95,110.74c-4.68,1.04-11.12,1.94-13.06,7.01-2.68,7,.1,12.61,3.55,18.55,.96,1.64,2.31,3.52,4.21,3.37-2.27,.17-5.86-13.19-6.11-15.05-.82-5.93,1.7-6.56,6.68-8.94,3.12-1.49,5.79-.51,9.13-.32,2.72,.16,5.61-.23,7.77-1.89,1.48,1.21,3.49,1.63,5.4,1.54,3.04-.15,5.82-1.12,8.91-1.11,3.56,.01,5.29,.02,5.64,4,.3,3.42-.89,6.85-2.01,10.02-1.39,3.94-2.78,7.87-4.17,11.81,.72-.64,1.3-1.42,1.86-2.2,2.49-3.5,4.69-7.26,6.05-11.33,1.61-4.84,3.17-12.09-1.98-15.13-3.82-2.26-9.08-2.53-13.41-2.27-1.25,.07-2.39,.9-3.52,1.36-1.77,.72-3.78,.81-5.61,.26-.77-.23-1.5-.58-2.29-.74-1.03-.21-1.97,.17-2.97,.31-1.36,.18-2.73,.48-4.07,.77Z"/><path class="cls-22" d="M177,120.17c-2.69,3.21-4.78,6.86-7.17,10.28-1.21,1.73-2.5,3.4-3.98,4.91-1.32,1.35-2.89,3.14-4.6,3.98-.8,.39-1.76,.55-2.58,.21-1.12-.46-1.75-1.71-2.85-2.22-.62-.29-1.33-.31-2.02-.33-3.53-.09-7.23-.15-10.38,1.44-1.19,.6-2.27,1.43-3.49,1.98-2.82,1.27-5.74-.38-8.23-1.75-3.44-1.89-5.71-4.93-9.05-7.27-2.28-1.6-3.13-3.02-4.93-5.23-1.78-2.17-4.23-3.73-5.95-5.94-2.15-2.78-3.13-6.49-3.71-9.9-.42-2.51-1.42-5.29-2.92-7.13-1.57-1.92-1.61-4.02-1.66-6.55-.06-2.85-.45-5.69-1.16-8.46-.07,6.5,.4,13.01,1.41,19.44,.9,5.77,.95,11.12,3.56,16.57,.91,1.9,2.15,2.66,3.5,4.19,1.67,1.9,2.87,4.32,4.1,6.52,2.48,4.46,4.99,8.97,8.29,12.88,3.08,3.64,7.21,4.79,10.79,7.78,3.54,2.96,6.71,7.01,11.28,7.62,1.15,.16,2.32,.07,3.48-.01,4.8-.34,13.79-1.59,15.79-6.58,2.29-6.56,6.45-12.11,9.2-18.47,1.65-3.81,3.25-7.66,4.48-11.64,1.22-3.96,1.97-8.36,2.2-12.51,0-.08,0-.17,.01-.25-.8,2.65-1.62,4.31-3.4,6.44Z"/><path class="cls-17" d="M172.21,44.17c-3.53-.6-6.62-3.32-7.65-6.75,.35,1.25,.36,2.59,.02,3.84-3.74-1.33-7.1-3.7-9.61-6.78l1.43,2.4c-3.16-1.07-5.92-3.27-7.68-6.1l-.63,1.95-3.28-3.26c-1.44,1.42-2.99,2.88-4.97,3.31s-4.42-.65-4.69-2.65l-4.51,5.13-2.87-2.66c-.25,1.32-1.07,2.53-2.2,3.27-.43-.84-1.16-1.51-2.03-1.87-2.28,3.58-5.43,6.59-9.1,8.71l.32-1.9c-3.24,5.06-6.66,10-10.25,14.81,5.6-5.16,11.21-10.31,16.81-15.47,.89-.82,1.81-1.65,2.96-2.01,.95-.29,1.96-.23,2.96-.27,3.53-.12,6.89-1.46,10.29-2.44s7.11-1.6,10.41-.33c1.59,.61,2.98,1.63,4.4,2.57,6.04,4.01,12.89,6.78,20.01,8.11,.46-1.09-.8-2.12-1.91-2.54s-2.49-.97-2.57-2.16"/><path class="cls-19" d="M101.76,63.29c-.53,.91-1.03,1.9-1,2.95,.86-.51,1.27-1.5,1.68-2.41,.81-1.83,2.05-3.5,2.83-5.29-1.45,1.14-2.58,3.17-3.51,4.76Z"/><path class="cls-19" d="M102.32,77.15c.07,1.31,.35,2.66-.03,3.92,.38-1.28,.18-3.04,.31-4.38,.14-1.44,.4-2.88,.5-4.32-.66,1.44-.86,3.2-.78,4.78Z"/><path class="cls-17" d="M128.8,37.55c.18,0-.09,.3-.16,.14s.14-.33,.32-.34,.38,.04,.54-.06c5.65-3.56,7.86-10.66,5.83-17.1-.89-2.81-3.11-5.33-6-5.91-1.73-.34-3.51,.02-5.24,.38,3.5-1.31,7.87,.45,9.48,3.83,.87,1.83,.97,3.94,.76,5.96-.48,4.46-2.47,8.74-5.57,11.98"/><path class="cls-17" d="M138.11,13.6c-.38-.48-.78-.97-1.31-1.28-.65-.38-1.44-.45-2.19-.5-1.45-.11-2.9-.21-4.35-.32,8.6,.63,11.48,8.08,11.13,15.65,3.75-3.99-.66-10.29-3.27-13.55Z"/><path class="cls-17" d="M118.96,35.21c-.02,.41-3.54,2.18-4.02,2.5-1.46,.96-2.9,1.96-4.34,2.95-2.78,1.91-5.31,3.86-7.9,6.02,2.65-2.22,6.54-2.97,9.4-4.97,2.31-1.62,6.68-3.11,6.86-6.5Z"/><path class="cls-17" d="M95.74,53.01c.14-.02,.28-.04,.42-.06-.7,.25-1.41,.51-2.11,.76,2.39-.47,4.81-.94,7.02-1.96,1.38-.63,2.95-1.55,3.85-2.79-1.28,0-2.93,1.44-4.09,1.98-1.5,.7-3.44,1.84-5.08,2.07Z"/><path class="cls-15" d="M173.65,53.2c-.06,1.24,.26,2.46,.47,3.68,.3,1.71,.4,3.46,.29,5.19,.35-1.81,.41-3.67,.19-5.49-.28-2.29-1-4.5-1.75-6.68"/></g></svg>