<?xml version="1.0" encoding="UTF-8"?><svg xmlns="http://www.w3.org/2000/svg" xmlns:xlink="http://www.w3.org/1999/xlink" viewBox="0 0 262 280"><defs><style>.cls-1{fill:url(#Namnlös_övertoning_73-2);}.cls-2{fill:url(#Namnlös_övertoning_85-2);}.cls-3{fill:url(#Namnlös_övertoning_1352);}.cls-4{fill:url(#Namnlös_övertoning_1495);}.cls-5{fill:url(#Namnlös_övertoning_1493);}.cls-6{fill:url(#Namnlös_övertoning_1464);}.cls-7{fill:url(#Namnlös_övertoning_1463);}.cls-8{fill:url(#Namnlös_övertoning_1331);}.cls-9{fill:url(#Namnlös_övertoning_1209);}.cls-10{fill:url(#Namnlös_övertoning_1185);}.cls-11{fill:#f3f2ef;}.cls-12{fill:#693f47;}.cls-13{fill:#ecceb7;}.cls-14{fill:#e9e9e9;}.cls-15{fill:#e6bea0;}.cls-16{fill:#fdffff;}.cls-17{fill:#d8d8d8;}.cls-18{fill:#d5e9f6;}.cls-19{fill:#290a04;}.cls-20{fill:url(#Namnlös_övertoning_1300-2);}.cls-20,.cls-21,.cls-22{opacity:.7;}.cls-23{fill:none;stroke:#2c1b1b;stroke-linecap:round;stroke-miterlimit:10;stroke-width:.5px;}.cls-24{fill:url(#Namnlös_övertoning_85-4);}.cls-24,.cls-25{opacity:.4;}.cls-26{fill:url(#Namnlös_övertoning_78-2);opacity:.41;}.cls-27{fill:url(#Namnlös_övertoning_85-6);opacity:.24;}.cls-28{fill:url(#Namnlös_övertoning_85-5);}.cls-28,.cls-29{opacity:.34;}.cls-29{fill:url(#Namnlös_övertoning_85-7);}.cls-21{fill:url(#Namnlös_övertoning_1300);}.cls-30{fill:url(#Namnlös_övertoning_85-3);}.cls-30,.cls-31{opacity:.82;}.cls-31{fill:url(#Namnlös_övertoning_85-8);}.cls-32{fill:url(#Namnlös_övertoning_1209-2);}.cls-33{fill:url(#Namnlös_övertoning_1352-2);}.cls-34{fill:url(#Namnlös_övertoning_73);}.cls-35{fill:url(#Namnlös_övertoning_85);}.cls-22{fill:url(#Namnlös_övertoning_78);}.cls-36{opacity:.59;}.cls-36,.cls-25{fill:#f5b59a;}.cls-37{fill:#fbecdf;opacity:.3;}.cls-38{fill:#d0997d;}.cls-38,.cls-39{opacity:.44;}.cls-39,.cls-40{fill:#b76439;}.cls-40{opacity:.64;}</style><linearGradient id="Namnlös_övertoning_1185" x1="92.47" y1="208.96" x2="183.3" y2="208.96" gradientUnits="userSpaceOnUse"><stop offset=".01" stop-color="#957550"/><stop offset=".25" stop-color="#c3997d"/><stop offset="1" stop-color="#e7c5a3"/></linearGradient><linearGradient id="Namnlös_övertoning_85" x1="110.15" y1="161.33" x2="118.73" y2="161.33" gradientUnits="userSpaceOnUse"><stop offset="0" stop-color="#aa8260"/><stop offset="1" stop-color="#d0997d"/></linearGradient><linearGradient id="Namnlös_övertoning_85-2" x1="103.85" y1="204.57" x2="189.77" y2="204.57" xlink:href="#Namnlös_övertoning_85"/><linearGradient id="Namnlös_övertoning_1209" x1="140.81" y1="196.16" x2="207.02" y2="196.16" gradientUnits="userSpaceOnUse"><stop offset="0" stop-color="#000"/><stop offset=".24" stop-color="#020202"/><stop offset=".42" stop-color="#0c0908"/><stop offset=".58" stop-color="#1c1513"/><stop offset=".73" stop-color="#332622"/><stop offset=".87" stop-color="#503b36"/><stop offset="1" stop-color="#73554e"/></linearGradient><linearGradient id="Namnlös_övertoning_85-3" x1="95.7" y1="175.8" x2="159.67" y2="175.8" xlink:href="#Namnlös_övertoning_85"/><linearGradient id="Namnlös_övertoning_78" x1="87.25" y1="99.49" x2="114.61" y2="99.49" gradientUnits="userSpaceOnUse"><stop offset="0" stop-color="#aa8260"/><stop offset="1" stop-color="#ddb5a1"/></linearGradient><linearGradient id="Namnlös_övertoning_78-2" x1="134.17" y1="94.61" x2="164.08" y2="94.61" xlink:href="#Namnlös_övertoning_78"/><linearGradient id="Namnlös_övertoning_85-4" x1="79.37" y1="77.7" x2="178.89" y2="77.7" xlink:href="#Namnlös_övertoning_85"/><linearGradient id="Namnlös_övertoning_1463" x1="134.87" y1="83.88" x2="162.28" y2="83.88" gradientUnits="userSpaceOnUse"><stop offset="0" stop-color="#8f6030"/><stop offset=".12" stop-color="#704522"/><stop offset=".26" stop-color="#532c16"/><stop offset=".42" stop-color="#3c180c"/><stop offset=".58" stop-color="#2b0a05"/><stop offset=".76" stop-color="#220201"/><stop offset="1" stop-color="#1f0000"/></linearGradient><linearGradient id="Namnlös_övertoning_1464" x1="87.2" y1="90.87" x2="112.51" y2="90.87" gradientUnits="userSpaceOnUse"><stop offset="0" stop-color="#1f0000"/><stop offset=".24" stop-color="#220201"/><stop offset=".42" stop-color="#2b0a05"/><stop offset=".58" stop-color="#3c180c"/><stop offset=".74" stop-color="#532c16"/><stop offset=".88" stop-color="#704522"/><stop offset="1" stop-color="#8f6030"/></linearGradient><linearGradient id="Namnlös_övertoning_1300" x1="138.01" y1="96.17" x2="163.71" y2="96.17" gradientUnits="userSpaceOnUse"><stop offset="0" stop-color="#b9ae9a"/><stop offset="1" stop-color="#9e8791"/></linearGradient><linearGradient id="Namnlös_övertoning_1300-2" x1="88.35" y1="100.72" x2="106.77" y2="100.72" xlink:href="#Namnlös_övertoning_1300"/><linearGradient id="Namnlös_övertoning_73" x1="105.51" y1="140.01" x2="108.21" y2="140.01" gradientUnits="userSpaceOnUse"><stop offset="0" stop-color="#d0997d"/><stop offset="1" stop-color="#f5c5a3"/></linearGradient><linearGradient id="Namnlös_övertoning_73-2" x1="151.6" y1="135.97" x2="154.47" y2="135.97" xlink:href="#Namnlös_övertoning_73"/><linearGradient id="Namnlös_övertoning_85-5" x1="127.71" y1="102.06" x2="137.78" y2="102.06" xlink:href="#Namnlös_övertoning_85"/><linearGradient id="Namnlös_övertoning_85-6" x1="128.53" y1="130.02" x2="152.29" y2="130.02" xlink:href="#Namnlös_övertoning_85"/><linearGradient id="Namnlös_övertoning_85-7" x1="141.01" y1="128.53" x2="157.17" y2="128.53" xlink:href="#Namnlös_övertoning_85"/><linearGradient id="Namnlös_övertoning_1493" x1="108.41" y1="143.26" x2="151.13" y2="143.26" gradientUnits="userSpaceOnUse"><stop offset="0" stop-color="#c95d51"/><stop offset="1" stop-color="#d29e82"/></linearGradient><linearGradient id="Namnlös_övertoning_1495" x1="108.49" y1="137.62" x2="151.21" y2="137.62" gradientUnits="userSpaceOnUse"><stop offset="0" stop-color="#c95d51"/><stop offset="1" stop-color="#d29e82"/></linearGradient><linearGradient id="Namnlös_övertoning_1331" x1="150.7" y1="76.32" x2="182.38" y2="76.32" gradientUnits="userSpaceOnUse"><stop offset="0" stop-color="#73554e"/><stop offset=".13" stop-color="#503b36"/><stop offset=".27" stop-color="#332622"/><stop offset=".42" stop-color="#1c1513"/><stop offset=".58" stop-color="#0c0908"/><stop offset=".76" stop-color="#020202"/><stop offset="1" stop-color="#000"/></linearGradient><linearGradient id="Namnlös_övertoning_1352" x1="71.67" y1="76.71" x2="157.19" y2="76.71" gradientUnits="userSpaceOnUse"><stop offset="0" stop-color="#000"/><stop offset=".28" stop-color="#020101"/><stop offset=".5" stop-color="#0c0504"/><stop offset=".69" stop-color="#1c0d09"/><stop offset=".86" stop-color="#331711"/><stop offset="1" stop-color="#4b231a"/></linearGradient><linearGradient id="Namnlös_övertoning_1209-2" x1="178.08" y1="130.03" x2="192.19" y2="130.03" xlink:href="#Namnlös_övertoning_1209"/><linearGradient id="Namnlös_övertoning_1352-2" x1="100.61" y1="53.15" x2="156.77" y2="53.15" xlink:href="#Namnlös_övertoning_1352"/><linearGradient id="Namnlös_övertoning_85-8" x1="168.71" y1="131.83" x2="173.79" y2="131.83" xlink:href="#Namnlös_övertoning_85"/></defs><g id="MOA_2"><g id="BG-3"><circle class="cls-18" cx="130.64" cy="131.5" r="129"/></g><path class="cls-10" d="M92.47,163.35c5.96,23.24,12.43,47.44,28.37,65.37,3.79,4.26,8.04,8.08,11.89,12.29,3.55,3.89,7.47,8.35,10.24,12.81s4.35,8.22,10.34,9.7c4.34,1.07,8.91,.57,13.33-.08,1.7-.25,3.41-.52,5.02-1.13,4.26-1.62,7.36-5.49,9.09-9.7,4.26-10.36,2.36-22.1,.17-32.73-1.17-5.71-2.47-11.39-3.77-17.07-1.18-5.19-1.52-11.84-5.01-16.05-3.59-4.33-5-8.96-5.46-14.59-.42-5.16-.15-10.38-.92-15.5-.09-.6-.2-1.21-.53-1.71-1.07-1.65-3.56-1.25-5.39-.52-7.66,3.05-14.44,7.9-22.93,8.36-3.8,.2-7.58-1.79-11.16-3.03-4.06-1.4-8.19-2.68-12.47-3.14-8.02-.86-13.12,5.08-20.81,6.74Z"/><g><path class="cls-35" d="M110.15,158.34c.13,.17,.28,.32,.41,.48,2.72,1.84,5.45,3.68,8.17,5.51l-8.59-6Z"/><path class="cls-2" d="M189.25,230.99c-.16-1.06-.35-2.16-.52-3.32-2.06-13.6-3.02-27.25-4.85-40.87-.27-1.98-.56-3.99-1.35-5.83-.81-1.89-2.12-3.53-3.55-5.02-3.36-3.51-7.39-6.28-11.43-8.98-2.75-1.84-5.68-3.7-8.98-3.96-.58-.05-1.14-.03-1.69,.04,.39-1.25,.57-2.56,.43-3.88-4.44,2.55-8.88,5.1-13.32,7.65-3.75,2.15-7.72,4.37-12.05,4.4-2.86,.02-5.64-.93-8.22-2.16-5.06-2.41-9.57-5.93-13.16-10.23l-3.35-2.26c-1.1-.74-3.09-1.17-3.34,.14-.11,.59,.3,1.14,.69,1.59,4.18,4.87,8.7,9.56,14.16,12.94,5.46,3.38,12,5.35,18.34,4.38,2.01-.31,3.97-.9,5.9-1.55,2.78-.93,5.55-2.02,7.98-3.63-.3,4.04-1.66,7.7,.4,11.51,1.17,2.15,2.77,4.09,3.53,6.42,1.98,6.01-2.07,12.18-5.91,17.22,3.75,2.57,1,8.13,2.17,11.68,1.39,4.22,6.55,6.17,3.94,11.8-1,2.17-3.5,4.08-2.75,6.35,5.41,.25,17.95-1.69,20,3.72,1.84,4.85-5.68,11.32,.49,13.84,4.26,1.74,10.96-4.38,13.29-7.11,4.28-5.03,3.98-9.31,3.13-14.87Z"/></g><path class="cls-11" d="M167.44,170.33c-.49-.07-1.03-.13-1.43,.16-.46,.33-.54,.97-.58,1.53-.95,15.47,3.55,30.54,6.57,45.55,1.35,6.7-2.57,11.67-3.76,18.44-1.94,11.03-7.69,21.85-7.31,33.17,.15,4.66,63.97-7.42,68.38-18.88,.32-.84,.23-1.77,.13-2.66-1.77-16.21-3.71-32.96-11.9-47.05-2.43-4.17-4.7-11.19-7.79-14.63-3.49-3.89-11.02-5.63-15.66-7.74-8.47-3.84-17.46-6.51-26.66-7.88Z"/><path class="cls-9" d="M169.82,148.05c3.42,4.5,7.95,8,12.13,11.8,4.18,3.8,8.16,8.13,9.95,13.49,1.79,5.36,.87,11.97-3.5,15.55,2.17-1.49,2.58-4.72,1.48-7.12s-3.33-4.07-5.64-5.33c2.81,3.76,5.13,7.88,6.89,12.22,1.09,2.68,1.97,5.54,1.64,8.41-.69,6.06-6.54,10.6-7.16,16.67-.3,2.94,.69,5.85,1.89,8.55,4.12,9.27,10.99,17.29,19.5,22.8-12.17,.87-24.3-8.09-27.05-19.98-.77-3.34-.88-6.81-1.68-10.14s-2.47-6.69-5.46-8.37c2.31,2.61,2.82,6.48,1.93,9.85s-3.01,6.29-5.44,8.79c-5.34,5.5-12.38,9.33-19.9,10.82,5.84-4.18,10.55-9.95,13.48-16.51,2.67-5.99,3.76-13.28,.39-18.9-.13,11.91-10.58,22.78-22.48,23.37,6.28-1.56,11.85-5.78,15.06-11.4,3.21-5.62,4.02-12.56,2.18-18.76-2.48,5.5-6.2,10.43-10.81,14.32,4.99-5.02,7.31-12.57,5.99-19.53-.52-2.77-1.58-5.46-1.56-8.28,.03-5.52,4.17-10.48,3.8-15.98-.07-1.03-.29-2.11,.15-3.04,.43-.9,1.36-1.43,2.22-1.94,4.77-2.86,8.64-7.2,10.95-12.25,1.68,2.34,3.73,4.42,6.05,6.12"/><path class="cls-30" d="M109.17,163.91c-3.04-1.93-5.46-4.81-6.83-8.14,3.41,2.7,6.82,5.41,10.24,8.11,2.34,1.85,4.69,3.72,7.32,5.13,3.61,1.95,7.7,3.01,11.8,3.06,2.62,.03,5.27-.35,7.71-1.3,7.57-2.96,12.45-11,20.26-13.26-2.11,2.1-4.22,4.21-6.33,6.31-1.91,1.91-3.84,3.82-6.06,5.37-5.26,3.67-11.97,5.03-18.35,4.26-6.37-.77-12.41-3.57-17.5-7.48-2.7-2.07-5.16-4.46-7.31-7.1,.65,.29,.19-1.25-.12-.61s-.94,1.05-1.56,1.41c-2.11,1.24-4.39,2.2-6.75,2.86,1.81,.41,2.92,2.19,3.82,3.81,1.96,3.53,3.93,7.06,5.89,10.59,1.7,3.05,3.4,6.12,5.61,8.82,4.1,5.03,9.91,8.63,16.24,10.08-5.93-4.14-11.96-8.38-16.32-14.15-4.36-5.77-6.85-13.43-4.75-20.35,2.2,2.29,5.06,3.92,8.15,4.66"/><path class="cls-15" d="M173.29,111.76c.86-2.98,1.73-5.55,2.11-6.77,3.07,3.23,3.44,8.14,3.21,12.59-.15,2.84-.27,11.98-5.61,9.71-3.17-1.35-1.49-9.33,.29-15.52Z"/><path class="cls-13" d="M85.8,122.16c.34,2.33,1.08,4.52,1.69,6.83s.51,4.59,1.11,6.91c1.24,4.84,4.2,9.37,7.44,13.1,6.62,7.61,15.44,12.82,23.07,19.28,5.61,4.75,13.82,6.81,20.57,3.91,2.2-.94,4.16-2.35,6.1-3.74,6.79-4.88,14.04-9.44,19.56-15.82,6.07-7.02,6.92-15.39,6.97-24.4,.05-9.04,2.25-18.6,1.31-27.51-1.05-9.94-1.82-20.55-5.22-30-3.72-10.36-11.49-19.89-22.11-22.8-6.96-1.9-14.37-.82-21.38,.87-8.43,2.04-16.64,4.94-24.48,8.64-3.82,1.81-7.65,3.88-10.37,7.12-5.78,6.87-6.44,16.83-6.32,25.41,.07,4.86,.48,9.72,1.03,14.54,.61,5.39,.68,10.32,.86,15.76,.02,.64,.08,1.27,.17,1.89Z"/><path class="cls-22" d="M111.61,96.27c-1.94-1.49-4.29-2.34-6.64-3.02-2.93-.84-6.03-1.43-9-.78-4.73,1.04-8.49,5.49-8.71,10.33-.02,.51,0,1.04,.23,1.49,.34,.64,1.07,.98,1.75,1.23,4.78,1.77,10.2,1.7,14.94-.18-3.88-.64-7.75-1.28-11.63-1.93,1.96-1.08,3.92-2.16,5.88-3.24,1.61-.89,3.31-1.8,5.15-1.83,3.24-.05,6.25,4.19,9.03,3.89,4.17-.45,.84-4.56-1-5.96Z"/><path class="cls-26" d="M164.08,95.79c-3.04-2.81-6.49-5.25-10.41-6.59s-8.33-1.5-12.13,.12-6.86,5.19-7.34,9.29c-.08,.66-.07,1.38,.32,1.92s1.29,.73,1.71,.22c.07-.84,.85-1.42,1.57-1.86,3-1.84,6.29-3.29,9.78-3.8s7.18-.05,10.22,1.72c1.07,.62,2.1,1.42,3.33,1.6s2.71-.59,2.72-1.82c.02-2.3-4.38-2.56-4.38-4.86"/><path class="cls-38" d="M131.77,159.43c-2.23-10.39-2.79-20.59-2.84-31.18-.67,.41-1.43,.67-2.21,.74-1.17-2.08-.74-5.24-.94-7.56-.24-2.72-.57-5.42-.94-8.12-.75-5.52-1.66-11.01-2.27-16.55-.23-2.08-.46-4.15-.69-6.23-.34-3.1-.68-6.2-.68-9.31,0-2.11,.17-4.21,.33-6.32,.44-5.67,.42-28.75,8.49-30.74-8.23,2.03-21.94,9.62-29.6,13.25-3.82,1.81-7.65,3.88-10.37,7.12-5.78,6.87-6.44,16.83-6.32,25.41,.07,4.86,.48,9.72,1.03,14.54,.61,5.39,.68,10.32,.86,15.76,.02,.64,.08,1.27,.17,1.89,.34,2.33,1.08,4.52,1.69,6.83,.61,2.33,.51,4.59,1.11,6.91,1.24,4.84,4.2,9.37,7.44,13.1,6.62,7.61,15.44,12.82,23.07,19.28,4.38,3.71,10.34,5.76,15.96,5.11-1.19-4.89-2.33-9.46-3.3-13.95Z"/><path class="cls-37" d="M122.48,128.65c2.32,.91,4.94,.33,7.28-.52s4.66-1.94,7.14-2.06c1.26-.06,2.72,.06,3.55-.88,.54-.62,.61-1.52,.49-2.33-.34-2.22-2.08-4.16-4.25-4.74-2.41-.65-4.92,.29-7.33,.92-4.11,1.09-8.44,1.33-12.64,.71-.22-.03-.44-.07-.66-.04-.34,.04-.64,.24-.91,.45-1.24,1-1.94,2.63-1.81,4.21s1.08,3.08,2.46,3.86c1.61,.91,3.56,.84,5.41,.75,1.88-.09,3.77-.19,5.65-.28"/><path class="cls-24" d="M101.19,80.65c8.94-5.03,20.51-2.94,29.6-7.7,2.08,3.36,4.66,6.41,7.64,9.01,.89,.78,2,1.57,3.15,1.29,.78-.18,1.37-.82,1.86-1.46,4.76-6.23,5.78-16.19,13.18-18.78,2.81,7.38,5.62,14.75,8.43,22.13,3.2,8.39,6.4,16.8,10.31,24.89,5.41-13.77,4.59-29.85-2.19-43-6.73-13.07-20.81-23.46-35.37-21.39-7.88,1.12-14.83,5.61-21.3,10.24-10.89,7.79-21.36,16.38-29.64,26.9-3.19,4.05-6.11,8.52-7.14,13.58-.5,2.47-.88,10.85,2.28,12.18,3.4,1.43,4.09-4.22,5.04-6.84,2.94-8.13,6.18-16.56,14.16-21.04Z"/><path class="cls-7" d="M140,82.45c3.7-.86,7.51-1.41,11.3-1.11s6.65,1.84,9.63,4.2c.37,.29,1.65,.52,1.3,.83-.13,.11-.32,.13-.49,.13-3.73,.06-6.67-3.89-10.4-3.69-1.84,0-3.34,1.3-5.03,1.77-1.98,.55-4.17,.84-6.2,1.32-1.06,.25-2.14,.5-3.22,.38-2.01-.23-2.83-1.45-.98-2.62,1.17-.74,2.77-.9,4.09-1.21Z"/><path class="cls-6" d="M112.51,89.29c-1.74-1.93-4.26-3.04-6.83-3.4s-5.2,0-7.71,.69c-2.43,.66-4.81,1.64-6.78,3.19s-3.53,3.74-3.99,6.22c.92-.98,1.85-1.96,2.77-2.94,1.78-1.89,3.75-3.89,6.31-4.36,1.9-.35,3.84,.2,5.76,.15,1.71-.04,3.41-.56,5.11-.32,1.39,.2,2.66,.9,4.05,1.14,.51,.08,1.25-.16,1.11-.65-.52-.45-1.04-.9-1.55-1.34"/><path class="cls-21" d="M149.17,100.87c1.04,.51,2.25,.47,3.39,.37,3.18-.28,6.32-.94,9.34-1.96,.75-.26,1.61-.65,1.78-1.43,.19-.88-.62-1.64-1.37-2.15-1.22-.83-2.5-1.55-3.79-2.26-1.52-.83-3.07-1.65-4.75-2.08-3.61-.93-7.43,.01-10.95,1.26-1.44,.51-2.9,1.1-4,2.18-.44,.44-.84,1-.82,1.62,3.11-1.57,6.3-3.16,9.75-3.63,1.08-.15,2.25-.16,3.17,.41,.19,.12,.37,.38,.22,.53-.05,.05-.13,.07-.2,.08-1.44,.3-3.03,.12-4.31,.85,1.82-.09,3.66-.13,5.46,.17s3.58,.96,4.98,2.13c.11,.09,.21,.19,.26,.31,.08,.22-.04,.47-.22,.62s-.42,.21-.65,.26c-2.6,.66-5.17,1.46-7.69,2.39,.84,.64,1.94,.93,2.99,.78"/><path d="M143.98,99.9c.13,.17,.28,.34,.48,.4,.11,.04,.23,.03,.35,.03,1.7-.02,3.4-.17,5.08-.45,.45-.07,.95-.18,1.24-.53,.19-.22,.26-.52,.31-.81,.15-.82,.14-1.66-.03-2.48-.11-.54-.32-1.11-.79-1.41-.22-.14-.48-.2-.74-.25-3.41-.63-9.17,1.36-5.9,5.49Z"/><path d="M143.38,96.73c-2.05,.95-4.01,1.79-5.91,3.07,1.18-.8,2.16-2.08,3.26-3.01,.9-.76,1.91-1.09,2.96-1.62,2.63-1.33,5.67-2.01,8.59-1.28,3.49,.88,6.33,3.63,9.87,4.26-1.85-.72-3.89,.15-5.76,.82-2.7,.97-5.54,1.54-8.4,1.69,2.65-1.1,5.92-2.24,8.57-3.34-1.91-.28-4.08-1.73-5.98-2.11-2.36-.48-5.03,.51-7.21,1.52Z"/><path d="M138.16,96.67c2.98-3.6,9.24-5.35,13.82-4.42,1.71,.35,4.23,1.48,6.01,2.96-3.66-2.96-11.51-2.77-15.5-.93-1.27,.58-2.45,1.34-3.53,2.23-.54,.45-1.06,.94-1.54,1.46-.42,.45-.83,1.2-1.33,1.52,.58-.97,1.33-1.94,2.06-2.82Z"/><path class="cls-20" d="M106.73,96.28c-1.49-.87-3.26-1.08-4.97-1.26-1.52-.17-3.06-.33-4.57-.09-2.59,.42-4.87,2.04-6.57,4.03-1.3,1.52-2.36,3.41-2.26,5.41,.02,.37,.12,.8,.45,.96,.11,.05,.23,.07,.35,.09,2.95,.39,5.9,.79,8.86,1.18,1.16,.16,2.68,.11,3.09-.99-2.94-.9-5.95-1.59-8.99-2.07,.53-.77,1.06-1.54,1.6-2.31,.58-.84,1.17-1.7,1.92-2.4,1.42-1.34,3.35-2.06,5.29-2.33s3.91-.1,5.85,.14c-.72-.72-1.54-1.35-2.42-1.86"/><path d="M111.05,101.01c-1.27-.55-2.35-1.48-3.6-2.08-2.68-1.3-5.92-1.01-8.69,.1-3.31,1.32-5.8,3.31-8.58,5.5,.34-.24,.8-.22,1.21-.2,1.8,.1,3.39,.26,5.13,.66s3.52,.72,5.32,.6c-2.4-1.16-5.06-1.76-7.72-1.76,1.72-1.4,3.51-2.75,5.54-3.63s4.34-1.28,6.48-.69c1.96,.54,3.74,1.88,5.78,1.85-1.24-.51-2.43-1.14-3.55-1.88"/><path d="M112.14,101.82c.7,.22,1.4,.46,2.09,.72,.29,.11,.62,.29,.63,.6-.51,.37-1.21,.3-1.84,.26-2.6-.18-5.18,.4-7.72,.97,1.62-1.02,3.67-.91,5.55-1.29,.18-.04,.36-.08,.49-.21,.3-.31,.07-.83-.23-1.13-.3-.31-.67-.56-1.08-.72,1.73,.47,3.42,1.08,5.06,1.82"/><path d="M137.84,99.62l-2.27,1.44c-.1,.06-.2,.13-.25,.23-.08,.18,.03,.4,.2,.5s.38,.09,.58,.06c.73-.12,1.36-.55,2.05-.81,1.1-.43,2.32-.45,3.51-.38,.26,.02,.55,.02,.72-.18-.3-.35-.83-.36-1.28-.34-.93,.04-1.87,.08-2.8,.11,.95-.83,1.9-1.66,2.85-2.5,.37-.33,.78-.73,.75-1.23-.71,.04-1.32,.47-1.87,.92-1.22,1-2.33,2.18-3.77,2.8"/><path d="M110.68,98.03c-2.84-1.77-6.3-2.65-9.6-2.08s-6.37,2.69-7.75,5.74c2-2.39,4.86-4.05,7.94-4.59s6.33,.04,9.03,1.6c.78,.45,1.5,1.01,2.32,1.4,.34-.77-1.36-1.73-1.93-2.08Z"/><path d="M100.41,103.2c.1,.31,.23,.63,.47,.84,.38,.33,.93,.33,1.43,.32,.97-.03,1.94-.05,2.9-.08,1.07-.03,2.29-.13,2.93-.98,.24-.32,.37-.72,.44-1.12,.14-.79,.07-1.68-.46-2.28-.52-.59-1.34-.78-2.11-.94-1.71-.34-3.56-.65-5.23,.05,.11-.03,.22-.05,.32-.07-.12,.52-.55,.95-.74,1.46-.33,.9-.22,1.89,.06,2.79Z"/><path d="M99.72,99.63c-.87-.74-1.31-1.95-1.14-3.07-.53,.5-.85,1.26-.68,1.96s.97,1.24,1.65,1c.14-.05,.29-.17,.24-.31"/><path d="M96.86,100.82c-.55-.39-1.05-.84-1.49-1.35-.31-.36-.58-.93-.24-1.25,.33,.93,.95,1.76,1.75,2.34"/><path d="M94.49,102.24c-.7-.37-1.34-.86-1.88-1.44-.1-.1-.19-.22-.21-.36s.07-.3,.21-.31c.65,.66,1.3,1.32,1.95,1.97"/><path d="M149.76,94.93c.64-.29,1.29-.59,1.84-1.04s.99-1.06,1.08-1.76c.15,.7,.17,1.47-.18,2.09s-1.19,1.01-1.82,.66c-.03-.01-.05-.03-.08-.04"/><path d="M153.77,95.46c.99-.32,1.79-1.17,2.05-2.18,.21,.52,.31,1.11,.12,1.64s-.71,.96-1.26,.92c-.08,0-.18-.03-.22-.1s0-.19,.09-.18"/><path d="M156.59,96.53c.94-.52,1.59-1.52,1.7-2.59,.35,.54,.24,1.27-.1,1.81s-.87,.94-1.38,1.31"/><path d="M149.28,94.47c.7-.57,1.11-1.48,1.09-2.38-.04,.86-.23,1.7-.56,2.49"/><path class="cls-39" d="M143.68,120.58c.53,.79,.91,1.77,.64,2.68-.15,.5-.48,.92-.85,1.3-2.07,2.12-5.43,2.85-8.2,1.8,1.4,.03,2.86,.05,4.1-.57s2.17-2.13,1.67-3.43c-.46-1.2-1.82-1.71-2.95-2.31-2.44-1.31-2.25-3.27,.65-2.72,1.97,.37,3.82,1.61,4.93,3.27Z"/><path class="cls-36" d="M112.69,123.84c.06-.13,.1-.26,.08-.4-.04-.29-.31-.46-.6-.56-.62-.75-1.59-1.25-2.57-1.32-1.62-.12-3.17,.66-4.49,1.59-1.33,.93-2.53,2.05-3.98,2.79-2.95,1.51-6.12,.96-9.04-.32-1.31-.57-2.23-1.29-3.35-2.1-.37-.27-1.95-.82-2.92-1.27,.34,2.29,1.07,4.45,1.67,6.74,.2,.78,.33,1.55,.42,2.32,1.08,2.47,2.72,4.48,5.72,5.28,3.97,1.06,8.29-.36,11.52-2.89,3.13-2.46,5.38-5.87,7.28-9.37l.38,.25c0-.26-.05-.51-.12-.75Z"/><path class="cls-40" d="M107.56,130.07c-1.59,1.27-3.38,2.34-4.67,3.92s-1.97,3.89-.97,5.67c-.48-.92-.27-2.08,.28-2.97s1.37-1.55,2.18-2.2c1.47-1.18,2.93-2.35,4.4-3.53,1.7-1.36,3.44-2.77,4.5-4.67,.71-1.28,1.41-3.57,.47-4.79-1.3,.75-1.57,3.06-2.36,4.34-1,1.63-2.34,3.04-3.82,4.23Z"/><path class="cls-34" d="M107.4,138.16c-.82,.5-1.64,1.18-1.85,2.12s.56,2.1,1.5,1.93c-.86-.91-.7-2.57,.31-3.3,.4-.29,.99-.65,.81-1.11-1.68,.22-2.86,2.24-2.22,3.81"/><path class="cls-1" d="M152.01,138.53c.75-.04,1.4-.56,1.79-1.19s.54-1.39,.63-2.13c.06-.44,.09-.92-.13-1.32s-.77-.63-1.13-.36c1,1.57,.18,3.97-1.57,4.61"/><path class="cls-12" d="M123.04,129.23c0-.84-.91-1.37-1.73-1.54-1.05-.22-2.16-.14-3.18,.2-.26,.09-.55,.23-.63,.5-.17,.56,.66,.85,1.25,.84,1.41-.01,2.83-.02,4.24-.03,.03-.57-.43-1.13-.99-1.22"/><path class="cls-12" d="M131.94,127.41c1.2-1.18,2.9-1.84,4.59-1.77,.48,.02,1.13,.44,.83,.82-.11,.14-.3,.17-.47,.2-1.65,.25-3.3,.49-4.95,.74-.05-.11-.04-.25,.03-.36,.39-.22,.79-.43,1.18-.65"/><path class="cls-28" d="M133.55,92.53c-2.63,1.95-4.98,4.55-5.66,7.75-.89,4.19,1.52,8.75,5.33,10.69,.86,.44,1.84,.76,2.79,.58s1.82-1.02,1.77-1.98c-.05-.94-.91-1.63-1.77-2.02s-1.82-.62-2.52-1.25c-1.08-.97-1.26-2.64-.89-4.04s1.18-2.64,1.85-3.93,1.2-2.74,.94-4.17c-.14-.79-.68-1.63-1.48-1.64-.44,0-.84,.25-1.2,.51-1.36,.97-2.57,2.15-3.59,3.47"/><path class="cls-27" d="M130.01,132.69c1.22,1.15,2.99,1.52,4.67,1.47s3.32-.46,4.98-.65c4.2-.47,8.54,.48,12.63-.6-2.88-3.82-7.33-6.04-12.16-6.93-3.11-.57-15.88,1.24-10.12,6.71Z"/><path class="cls-25" d="M162.77,114.52c-3.04,.31-6.07-1.42-9.17-1.31-6.01,.22-9.38,7.06-4.85,11.46,4.9,4.75,13.59,3.09,18.68-.51,2.89-2.05,4.57-5.02,5.62-8.48,.25-.81,1.43-10.48,.58-10.28-2.11,.48-2.58,3.35-3.77,4.8-1.47,1.81-4.21,3.79-6.52,4.24-.2,.04-.39,.07-.59,.09Z"/><path class="cls-29" d="M144.52,122.69c1.55,1.28,3.11,2.58,4.88,3.51,.9,.47,1.86,.85,2.74,1.35,1.88,1.06,3.45,2.67,4.45,4.59,.37,.71,.67,1.51,.55,2.3-.23,1.45-1.74,2.28-3.08,2.89,.75-1.93,.33-4.27-1.04-5.82-.71-.8-1.64-1.39-2.57-1.92-2.83-1.64-5.83-2.97-8.95-3.97,.31-1.96,.14-4-.5-5.88,3.34,2.79,6.89,5.34,10.61,7.61"/><path class="cls-19" d="M109.48,139.38c11.5-.79,23-1.59,34.42-3.13,2.3-.31,4.66-.65,6.92-.12-1.32,1.66-3.15,2.84-4.96,3.96-2.76,1.71-5.57,3.38-8.57,4.63s-6.23,2.05-9.48,1.96c-1.84-.05-3.67-.38-5.48-.72-1.42-.27-2.87-.55-4.16-1.21-1.19-.61-2.2-1.53-3.35-2.21-1.71-1.01-3.67-1.48-5.54-2.14-.34-.12-.74-.38-.64-.72,.08-.27,.43-.34,.71-.35,2.88-.2,5.75-.39,8.63-.59"/><path class="cls-14" d="M116.49,140.14c.14,.62,.31,1.24,.67,1.76s.96,.92,1.59,.88c-.1-.96-.21-1.91-.31-2.87-.75-.11-1.5-.22-2.26-.33"/><path class="cls-14" d="M141.92,141.23c-.63-.22-.62-.76-.73-1.33-.12-.69-.16-1.4-.11-2.1,0-.04,0-.07,.02-.11,.02-.03,.06-.06,.1-.07,.39-.19,.82-.28,1.25-.35s.7,.06,.84,.47c.18,.5,.16,1.22,.14,1.74-.04,.89-.33,2.17-1.51,1.76Z"/><path class="cls-16" d="M141.08,140.26c.01,.16,.02,.33,0,.49-.04,.34-.31,.76-.51,1.03-.24,.33-.58,.59-.96,.73-.89,.32-2.09-.34-2.04-1.28,.31,.61-.04,1.4-.6,1.8s-1.28,.49-1.96,.55c-.36,.03-.84-.04-.88-.39-.18,.69-1.04,.92-1.74,1.02-.6,.09-1.19,.17-1.79,.26-.27,.04-.55,.08-.8-.01s-.47-.35-.42-.61c-1.01,.66-2.19,1.07-3.39,1.17-.66,.06-1.39,0-1.88-.45l-3.17-.45c-.65-.09-1.34-.21-1.8-.67-.51-.51-.59-1.29-.64-2.01-.04-.55-.08-1.1-.12-1.65,6.63-.36,13.2-1.51,19.82-1.96,.42-.03,.83-.1,1.25-.11,.49-.01,.9,.04,1.39-.04,.14-.02,.3-.03,.38,.08,.18,.27-.04,.67-.1,.94-.1,.45-.07,.97-.04,1.43,0,.05,0,.09,.01,.14Z"/><path class="cls-17" d="M123.81,141.66c0,.94,0,1.89,.14,2.83,.15,.12,.4,0,.47-.18s.02-.38-.02-.57c-.15-.66-.25-1.33-.28-2-.04-.72-.09-1.81,.52-2.32-.52,.01-1.05,.1-1.55,.25,.25-.08,.64,.68,.7,.84,.14,.4,.02,.75,.02,1.15Z"/><path class="cls-17" d="M128.81,143.82c.02,.12,.05,.23,.1,.31,.06,.09,.63,.37,.63,.1-.01-.91-.04-1.81-.07-2.72-.03-.8-.23-1.59,.32-2.27-.66,0-1.32,.08-1.97,.22,.46,.13,.86,.49,1.02,.94,.13,.34,.12,.72,.12,1.08,0,.64-.07,1.22-.15,1.84-.02,.13-.03,.32,0,.5Z"/><path class="cls-5" d="M109.55,140.92c2.12,1.03,4.14,2.27,6.02,3.69,1.46,1.11,2.85,2.33,4.44,3.24,4.52,2.6,10.16,2.45,15.21,1.17,1.43-.36,2.85-.82,4.11-1.58,1.08-.65,2.02-1.52,2.95-2.37,3-2.77,6.01-5.54,8.84-8.48-1.85,.37-3.42,1.55-5.02,2.57-3.95,2.51-8.47,4.13-13.12,4.7-3.58,.44-7.2,.26-10.8,.09-.89-.04-1.78-.09-2.65-.28-.95-.21-1.86-.58-2.77-.93-2.72-1.05-5.52-1.91-8.36-2.56,.06,.62,.85,.81,1.46,.95,1.06,.25,2.04,.86,2.74,1.7"/><path class="cls-17" d="M134.25,143.43s.07,.06,.11,.08c-.16-1.16-.28-2.28-.21-3.46,.02-.39,.08-.82,.37-1.08-.14,.03-.29,.07-.43,.1-.19,.05-.4,.09-.59,.04-.2-.06-.4-.21-.58-.13,.66,.37,.67,.96,.72,1.62s.32,1.34,.44,2c.05,.27-.02,.62,.18,.83Z"/><path class="cls-17" d="M137.48,142.41s0,.04,.01,.06c.05-.1,.07-.39,.15-.45,.05-.04,.23-.09,.22,.06,.03-.44-.13-.85-.2-1.28s-.04-.9-.04-1.33,.06-.88,.32-1.22c-.06,.07-.31,.1-.4,.16-.15,.1-.16,.13-.24,.29-.13,.24-.22,.56-.22,.84,0,.46,.08,.91,.14,1.36,.07,.51,.15,1.03,.25,1.53Z"/><path class="cls-4" d="M109.42,139.07c2.94-.14,5.91-.28,8.74-1.08,2.43-.69,4.78-1.86,7.3-1.82,1.22,.02,2.43,.32,3.64,.17,.73-.1,1.42-.36,2.13-.54,1.33-.34,2.71-.39,4.09-.45,5.22-.21,10.43-.64,15.6,.37,.1,.02,.2,.04,.26,.12,.36,.48-2.09,.52-2.25,.53-3.17,.3-6.41,1.16-9.56,1.89s-6.53,1.03-9.89,1.41c-.81,.09-1.63,.18-2.44,.15-.68-.03-1.35-.14-2.03-.1-.74,.04-1.47,.26-2.2,.37-.97,.14-1.95,.08-2.92,.03-3.79-.22-7.59-.44-11.38-.67,2.14-.28,4.28-.55,6.42-.83"/><path class="cls-40" d="M115.23,121.04c-.61-.09-1.08,.53-1.33,1.09-.53,1.2-.73,2.55-.57,3.86,.06,.47,.16,.94,.39,1.35,.53,.95,1.64,1.43,2.7,1.66-1.27-.15-2.3-2.1-2.46-3.2-.2-1.41,.16-2.94,.89-4.16"/><path class="cls-40" d="M141.46,125.75c.34-.18,.55-.53,.69-.88,.47-1.15,.46-2.5-.1-3.61s-1.68-1.94-2.92-2.07c1.27,.22,2.37,1.25,2.67,2.5,.11,.47,.13,.95,.11,1.43-.02,.5-.09,1.01-.35,1.44-.31,.51-.87,.86-1.06,1.42,.48,.17,1.03-.07,1.37-.45s.52-.88,.69-1.36"/><path class="cls-38" d="M121.2,160.22c2.4-2.94,6.43-3.88,10.18-4.49,2.84-.46,5.88-.82,8.51,.35,1.64,.73,3.13,2.35,2.84,4.12-6.66-3.7-15.43-3.2-21.63,1.23-.67-.54-.05-1.61,.61-2.17,5.57-4.73,14.09-5.61,20.51-2.12"/><path class="cls-8" d="M165.05,69.61c-.16,.51-.67,.88-1.2,.88,1.17,1.85,2.33,3.69,3.5,5.54,.23-.26-.31-.6-.56-.37s-.2,.64-.12,.97c1.07,4.23,4.15,7.67,5.63,11.78,3.43,9.53-2.11,21.39,3.71,29.67,.29-1.92,.57-3.84,.86-5.75,.09-.63,.22-1.32,.71-1.73s1.45-.23,1.5,.4c1.1-3.26,1.49-6.75,1.12-10.17,.66-.81,1.33-1.62,1.99-2.43-1.35-.3-1.79-2.06-1.48-3.41s1.07-2.59,1.13-3.97c.03-.78-.18-1.56-.21-2.34-.04-.99,.21-1.97,.39-2.94,1.76-9.71-3.47-19.17-8.5-27.65-2.05-3.46-4.18-7.01-7.35-9.49-1.8-1.41-3.89-2.44-5.65-3.92-3.62-3.06-5.65-7.92-9.83-10.14,1.51,6.49,3.15,12.36,5.75,18.46,1.1,2.59,2.05,5.25,3.24,7.79,.59,1.26,5.61,7.99,5.36,8.81Z"/><path class="cls-3" d="M85.64,117.07c.37,2.42,.86,4.36,.3,6.9-4.22-1.91-7.4-9.04-9.36-13.04-2.53-5.16-4.35-10.75-4.78-16.51-.46-6.04,.42-12.1,1.44-18.07,.44-2.54,.91-5.09,1.81-7.51,.87-2.32,2.12-4.47,3.39-6.6,7.34-12.32,16.12-24.84,29.3-30.49,3.77-1.62,7.9-2.62,11.98-2.22,5.27,.51,10.19,3.31,15.49,3.37,1.77,.02,3.52-.27,5.29-.34,4.82-.2,13.87,1.48,15.88,6.55,2.16,5.46-.23,14.41-3.12,19.07-3.68,5.93-9.55,10.18-15.63,13.61,9.72-6.75,14.47-19.9,11.32-31.3,.97,5.72-1.89,11.45-5.6,15.92-7.36,8.9-18.46,14.6-29.98,15.42,7.57,.1,15.13-3.18,20.22-8.79s7.63-13.44,6.8-20.97c-1.42,8.97-9.27,15.38-16.93,20.25-10.41,6.54-20.62,13.15-30.25,20.83-2.19,1.75-4.63,3.76-6.49,6.12-1.27,1.61-2.28,3.39-2.75,5.34-1.07,4.41,.58,7.62,1.97,15.08,.45,2.44-.37,4.65,.04,7.1,.05,.31,.1,.63,.14,.95"/><path class="cls-32" d="M192.03,133.58c.2-2.93,.39-5.98-.73-8.7-.71-1.72-1.9-3.18-3.02-4.66-4.19-5.54-7.64-11.64-10.2-18.09,.78,6.62,4.03,15.87,7.32,21.67,3.29,5.8,5.88,12.81,3.44,19.01-2.2,5.59-8.09,9.3-9.58,15.12"/><path class="cls-23" d="M176.37,109.61c4.2,10.62,7.42,21.63,9.6,32.84,.67,3.46,1.14,7.42-1.05,10.18"/><path class="cls-23" d="M83.37,60.11c-7.97,7.46-14.08,17.43-14.95,28.31-.87,10.89,4.3,22.55,14.01,27.54"/><path class="cls-11" d="M70.85,166.82c-20.22,4.24-35.77,17.14-39.96,37.71-2.51,12.31-2.74,25.45-8.8,36.46-1.25,2.27-2.79,4.76-2.1,7.26,.53,1.91,2.23,3.23,3.86,4.37,17.52,12.24,38.13,20.03,59.37,22.43,12.11,1.37,24.31,.98,36.41-.31,14.25-1.52,28.07-1.4,41.95-5.58-2.21-7.96-2.93-17.23-7.5-24.02-4.69-6.97-12.14-11.76-17.2-18.44-4.45-5.88-9.23-12.06-14.72-17.03-5.29-4.79-7.39-10.56-10.69-16.93-2.96-5.71-5.93-11.43-8.34-17.4-1.39-3.43-2.42-7.11-4.59-10.16-.92-1.28-2.12-2.29-3.17-3.48-.1-.12-.22-.24-.36-.3-.18-.07-.39-.03-.58,.02-1.72,.41-3.48,.49-5.14,1-1.8,.55-3.45,1.48-5.3,1.88-4.35,.95-8.76,1.59-13.13,2.51Z"/><path class="cls-23" d="M78.34,99.8c-.48,5.45-.64,11.01,.64,16.33,1.16,4.81,3.46,9.29,4.59,14.11,2.73,11.67-1.67,23.94-.11,35.82,.98,7.43,4.36,14.53,9.52,19.97"/><path class="cls-23" d="M81.58,109.56c1.27,11.84,2.53,23.68,3.8,35.51,.54,5.05,1.08,10.18,.31,15.2-.58,3.78-1.9,7.42-2.7,11.16-1.87,8.79-.8,18.19,3.01,26.33"/><path class="cls-33" d="M112.12,67.14c-2.79,1.23-6.12,2.3-8.75,.77-2.67-1.56-3.35-5.33-2.28-8.22s3.46-5.09,5.88-7.02c7.62-6.07,16.37-10.71,25.67-13.61,3.09-.96,6.33-1.74,9.54-1.28,10.75,1.56,23.22,13.84,6.28,16.17-13.53,1.85-23.97,7.74-36.34,13.2Z"/><path class="cls-37" d="M130.61,120.8c-1.68-.07-3.36,.17-4.96,.71-.96,.32-2.01,.93-2.1,1.93,2.29,.86,4.84,.29,7.22-.29,.42-.1,.87-.22,1.17-.53s.39-.88,.05-1.15c-.21-.17-.49-.18-.76-.18-1.07,0-2.13,0-3.2-.01"/><path class="cls-31" d="M170.1,145.36c2.42-3.83,2.7-8.59,2.9-13.11,.26-5.81,.52-11.63,.79-17.44-3.03,11.16,.37,23.86-5.08,34.06"/><path class="cls-23" d="M111.16,38.87c-5.12,2.7-10.13,5.69-14.4,9.6s-7.78,8.8-9.32,14.37c-1.54,5.55-1.05,11.54,.74,17.01,3.15,9.62,8.53,17.17,18.61,19.8"/><path class="cls-23" d="M107.22,102.25c-3.78-.88-6.89-3.71-8.92-7.02s-3.12-7.1-4.12-10.86c-1.3-4.89-2.48-9.91-2.09-14.96,.56-7.35,4.47-14.14,9.58-19.45s11.38-9.35,17.66-13.21"/><path class="cls-17" d="M52.14,192.72c1.63,1.6,2.5,3.8,3.2,5.97,3.29,10.14,3.92,20.91,4.53,31.55,.75,13.06,1.49,26.13,2.24,39.19-.42-18.02-.84-36.05-1.25-54.07-.13-5.5-.3-11.19-2.67-16.15-2.06-4.3-5.97-7.52-10.67-8.36,1.73,0,3.38,.64,4.63,1.87Z"/></g><g id="Anonym_bilder"><path class="cls-23" d="M177.25,185.8c2.75,3.9,3.68,7.15,4.49,11.74,1.18,6.73,3.31,13.64,5.6,20.07,2.68,7.53,7,14.96,14.02,18.76"/><path class="cls-23" d="M166.6,169.94c-.1,5.37-.15,10.98,2.24,15.8,3.76,7.57,12.39,11.13,18.75,16.7,8.62,7.55,12.94,18.74,16.95,29.47"/><path class="cls-23" d="M124.29,35.56c-16.08,10.27-22.39,31.35-37.99,42.35"/></g></svg>