<?xml version="1.0" encoding="UTF-8"?><svg id="Nina" xmlns="http://www.w3.org/2000/svg" xmlns:xlink="http://www.w3.org/1999/xlink" viewBox="0 0 262 280"><defs><style>.cls-1{fill:url(#linear-gradient);}.cls-2{fill:#fbecdf;}.cls-3{fill:#d57666;}.cls-4{fill:#dc8c7f;}.cls-5,.cls-6{fill:#d5a38a;}.cls-7{fill:#d5e9f6;}.cls-8{fill:#251a1e;}.cls-9{fill:url(#Namnlös_övertoning_373-10);opacity:.66;}.cls-10{fill:url(#Namnlös_övertoning_145-2);}.cls-10,.cls-11,.cls-12{opacity:.86;}.cls-11{fill:url(#Namnlös_övertoning_373-7);}.cls-13{fill:url(#Namnlös_övertoning_373-3);}.cls-13,.cls-14,.cls-15,.cls-16,.cls-17{opacity:.6;}.cls-14{fill:url(#Namnlös_övertoning_373-6);}.cls-15{fill:url(#Namnlös_övertoning_373-9);}.cls-16{fill:url(#Namnlös_övertoning_373-8);}.cls-6{opacity:.2;}.cls-18{fill:url(#Namnlös_övertoning_373-4);}.cls-19{fill:url(#Namnlös_övertoning_373-2);}.cls-20{fill:url(#Namnlös_övertoning_373-5);}.cls-21{fill:url(#linear-gradient-8);}.cls-22{fill:url(#linear-gradient-9);}.cls-23{fill:url(#linear-gradient-3);}.cls-24{fill:url(#linear-gradient-4);}.cls-25{fill:url(#linear-gradient-2);}.cls-26{fill:url(#linear-gradient-6);}.cls-27{fill:url(#linear-gradient-7);}.cls-28{fill:url(#linear-gradient-5);}.cls-29{fill:url(#linear-gradient-25);opacity:.58;}.cls-30{fill:url(#linear-gradient-14);}.cls-31{fill:url(#linear-gradient-18);}.cls-32{fill:url(#linear-gradient-22);}.cls-33{fill:url(#linear-gradient-20);}.cls-34{fill:url(#linear-gradient-21);}.cls-35{fill:url(#linear-gradient-23);}.cls-36{fill:url(#linear-gradient-15);}.cls-37{fill:url(#linear-gradient-19);}.cls-38{fill:url(#linear-gradient-16);}.cls-39{fill:url(#linear-gradient-17);}.cls-40{fill:url(#linear-gradient-13);}.cls-41{fill:url(#linear-gradient-12);}.cls-42{fill:url(#linear-gradient-10);}.cls-43{fill:url(#linear-gradient-11);}.cls-44{fill:url(#linear-gradient-24);}.cls-12{fill:url(#Namnlös_övertoning_145);}.cls-17{fill:url(#Namnlös_övertoning_373);}.cls-45{fill:none;stroke:#fbecdf;stroke-miterlimit:10;stroke-width:.25px;}</style><linearGradient id="linear-gradient" x1="214.95" y1="193.16" x2="-.57" y2="287.05" gradientUnits="userSpaceOnUse"><stop offset="0" stop-color="#56391e"/><stop offset="1" stop-color="#121212"/></linearGradient><linearGradient id="linear-gradient-2" x1="165.82" y1="223.03" x2="178.87" y2="223.03" gradientUnits="userSpaceOnUse"><stop offset="0" stop-color="#56391e"/><stop offset="1" stop-color="#81624a"/></linearGradient><linearGradient id="linear-gradient-3" x1="97.04" y1="251.03" x2="133.43" y2="313.57" gradientUnits="userSpaceOnUse"><stop offset="0" stop-color="#56391e"/><stop offset="1" stop-color="#65624a"/></linearGradient><linearGradient id="Namnlös_övertoning_373" x1="94.21" y1="168.03" x2="132.04" y2="168.03" gradientUnits="userSpaceOnUse"><stop offset="0" stop-color="#c3997d"/><stop offset="1" stop-color="#e7c5a3"/></linearGradient><linearGradient id="linear-gradient-4" x1="63.84" y1="211.02" x2="130.6" y2="211.02" xlink:href="#linear-gradient"/><linearGradient id="linear-gradient-5" x1="175.12" y1="215.59" x2="146.82" y2="218.82" xlink:href="#linear-gradient"/><linearGradient id="Namnlös_övertoning_373-2" x1="89.05" y1="164.37" x2="131.92" y2="171.2" xlink:href="#Namnlös_övertoning_373"/><linearGradient id="linear-gradient-6" x1="88.76" y1="201.05" x2="135.1" y2="201.05" gradientUnits="userSpaceOnUse"><stop offset="0" stop-color="#bb9d72"/><stop offset=".21" stop-color="#bda47b"/><stop offset=".56" stop-color="#c5b793"/><stop offset=".99" stop-color="#d1d6ba"/></linearGradient><linearGradient id="linear-gradient-7" x1="142.68" y1="202.98" x2="139.23" y2="216.71" xlink:href="#linear-gradient-6"/><linearGradient id="linear-gradient-8" x1="132.2" y1="226.88" x2="139.82" y2="223.38" xlink:href="#linear-gradient-6"/><linearGradient id="Namnlös_övertoning_373-3" x1="90.6" y1="109.62" x2="148.69" y2="109.62" xlink:href="#Namnlös_övertoning_373"/><linearGradient id="Namnlös_övertoning_373-4" x1="87.21" y1="111.5" x2="93.34" y2="111.5" xlink:href="#Namnlös_övertoning_373"/><linearGradient id="linear-gradient-9" x1="90.31" y1="63.73" x2="182.16" y2="63.73" gradientUnits="userSpaceOnUse"><stop offset="0" stop-color="#bb9d72"/><stop offset="1" stop-color="#e0c08f"/></linearGradient><linearGradient id="linear-gradient-10" x1="90.5" y1="93" x2="94.94" y2="93" xlink:href="#linear-gradient"/><linearGradient id="Namnlös_övertoning_373-5" x1="91.15" y1="102.71" x2="90.28" y2="105.31" xlink:href="#Namnlös_övertoning_373"/><linearGradient id="linear-gradient-11" x1="173.8" y1="103.34" x2="179.48" y2="103.34" xlink:href="#linear-gradient"/><linearGradient id="linear-gradient-12" x1="91.31" y1="111.32" x2="87.77" y2="109.5" gradientUnits="userSpaceOnUse"><stop offset=".11" stop-color="#c3997d"/><stop offset="1" stop-color="#e7c5a3"/></linearGradient><linearGradient id="Namnlös_övertoning_145" x1="114.18" y1="146.23" x2="116.74" y2="146.23" gradientUnits="userSpaceOnUse"><stop offset="0" stop-color="#c1876e"/><stop offset="1" stop-color="#eabc9f"/></linearGradient><linearGradient id="Namnlös_övertoning_373-6" x1="119.5" y1="130.87" x2="98.17" y2="136.56" xlink:href="#Namnlös_övertoning_373"/><linearGradient id="Namnlös_övertoning_145-2" x1="148.65" y1="149.96" x2="150.47" y2="149.96" xlink:href="#Namnlös_övertoning_145"/><linearGradient id="Namnlös_övertoning_373-7" x1="125.17" y1="130.16" x2="147.43" y2="130.16" xlink:href="#Namnlös_övertoning_373"/><linearGradient id="linear-gradient-13" x1="132.57" y1="130.03" x2="131.24" y2="135.5" gradientUnits="userSpaceOnUse"><stop offset="0" stop-color="#c3997d"/><stop offset=".02" stop-color="#40250c"/><stop offset="1" stop-color="#d9bdb4"/></linearGradient><linearGradient id="linear-gradient-14" x1="142.66" y1="132.04" x2="143.62" y2="134.36" xlink:href="#linear-gradient-13"/><linearGradient id="Namnlös_övertoning_373-8" x1="131.3" y1="139.79" x2="140.04" y2="139.79" xlink:href="#Namnlös_övertoning_373"/><linearGradient id="linear-gradient-15" x1="86.17" y1="90.41" x2="92.43" y2="92.83" xlink:href="#linear-gradient"/><linearGradient id="linear-gradient-16" x1="98.55" y1="108.92" x2="133.83" y2="108.92" gradientUnits="userSpaceOnUse"><stop offset="0" stop-color="#bb9d72"/><stop offset=".22" stop-color="#bc9e74"/><stop offset=".33" stop-color="#c0a47b"/><stop offset=".41" stop-color="#c8ae88"/><stop offset=".48" stop-color="#d3bd9b"/><stop offset=".55" stop-color="#e1cfb3"/><stop offset=".6" stop-color="#f2e6d0"/><stop offset=".64" stop-color="#fff7e6"/><stop offset=".71" stop-color="#efe0c2"/><stop offset=".78" stop-color="#e2cda4"/><stop offset=".86" stop-color="#d8bf8f"/><stop offset=".93" stop-color="#d2b682"/><stop offset=".99" stop-color="#d1b47e"/></linearGradient><linearGradient id="linear-gradient-17" x1="132.98" y1="100.87" x2="147.77" y2="100.87" xlink:href="#linear-gradient-16"/><linearGradient id="linear-gradient-18" x1="145.84" y1="113.09" x2="178.44" y2="113.09" xlink:href="#linear-gradient-16"/><linearGradient id="Namnlös_övertoning_373-9" x1="109.4" y1="107.75" x2="125.92" y2="107.75" xlink:href="#Namnlös_övertoning_373"/><linearGradient id="linear-gradient-19" x1="155.16" y1="46.21" x2="109.06" y2="84.11" gradientUnits="userSpaceOnUse"><stop offset="0" stop-color="#bb9d72"/><stop offset=".99" stop-color="#d1b47e"/></linearGradient><linearGradient id="linear-gradient-20" x1="159.8" y1="108.8" x2="139.68" y2="142.56" xlink:href="#linear-gradient"/><linearGradient id="linear-gradient-21" x1="107.68" y1="104.19" x2="81.45" y2="136.93" xlink:href="#linear-gradient"/><linearGradient id="Namnlös_övertoning_373-10" x1="90.41" y1="135.96" x2="118.49" y2="135.96" xlink:href="#Namnlös_övertoning_373"/><linearGradient id="linear-gradient-22" x1="176.57" y1="66.32" x2="175.12" y2="67.51" xlink:href="#linear-gradient-19"/><linearGradient id="linear-gradient-23" x1="178.47" y1="74.26" x2="173.2" y2="78.59" xlink:href="#linear-gradient-19"/><linearGradient id="linear-gradient-24" x1="141.78" y1="29.97" x2="118.47" y2="49.13" xlink:href="#linear-gradient-19"/><linearGradient id="linear-gradient-25" x1="93.05" y1="69.15" x2="143.91" y2="65.63" gradientUnits="userSpaceOnUse"><stop offset="0" stop-color="#c3997d"/><stop offset=".1" stop-color="#c79e81"/><stop offset=".67" stop-color="#deba99"/><stop offset="1" stop-color="#e7c5a3"/></linearGradient></defs><g id="BG-3"><circle class="cls-7" cx="130.67" cy="133.23" r="129"/></g><path class="cls-1" d="m13.6,252.62s4.7-38.2,13.7-45.25c0,0,4.3-5.87,10.57-8.22,0,0,12.52-5.48,16.83-8.22,0,0,10.96-6.26,16.83-9.78,0,0,76.3-11.35,88.43-9,0,0,4.3-.83,7.83,3.89,0,0,4.44,1.2,11.61,1.59,0,0,14.21,3.91,19.3,7.43,0,0,3.52-1.17,7.83,2.74,0,0,12.13,8.61,15.65,9.78,0,0,5.48-.39,10.96,12.13,0,0,7.43,28.42,9.78,41.72,0,0-.78,5.48-10.17,8.22,0,0-46.56,10.57-58.3,11.74,0,0-39.52,3.13-45.98,3.72,0,0-22.5,4.11-102.91-8.37,0,0-13.5-3.56-11.93-14.13Z"/><path class="cls-25" d="m165.82,176.56s.1-3.96,1.96-.51c0,0,4.5,18.68,3.62,25.2,0,0,.29,7.89,1.76,11.12,0,0,3.92,20.54,4.31,28.47,0,0,4.69,30.86-3.04,30.57,0,0,.49-37.68-4.21-54.37,0,0-4.01-24.11-3.23-32.54l-1.17-7.92Z"/><path class="cls-23" d="m65.45,185.96s-2.93-.59-3.82,6.75c0,0-1.47,4.4.59,10.27,0,0,5.87,28.76,14.67,36.39,0,0,17.31,38.79,48.73,36.07,0,0-32.3-24.33-43.45-37.83,0,0-19.08-36.68-16.73-51.65Z"/><path class="cls-2" d="m96.17,151.82s-.59,8.8-2.74,13.11c0,0-.93,2.89,2.54,7.24,0,0,6.65,8.02,22.5,10.17,0,0,14.87,2.74,27.39-2.93,0,0,1.76-1.39,2.74-3.35,0,0,2.16-4.09,1.96-7.8,0,0-8.84,9.59-23.32,6.46,0,0-14.25-.78-31.07-22.89Z"/><path class="cls-17" d="m96.12,153.38s6.24,9.3,13.28,13.49c0,0,10.66,7.31,16.23,8.33,0,0,2.97.72,6.41.99,0,0-1.02,4.43-2.47,6.41,0,0-12.32.41-16.72-.91,0,0-12.91-4.4-16.73-10.57,0,0-1.76-.15-1.91-9.1,0,0,1.76-5.58,1.91-8.66Z"/><path class="cls-24" d="m94.21,146.34s-10.57,5.87-17.61,18.39c0,0-4.7,7.43-4.7,10.57,0,0,.78,1.96-2.35,5.48,0,0-3.63,1.16-4.3,3.52,0,0-2.93,2.35-.35,16.4,0,0,6.68,27.04,13.13,35.06,0,0,12.26,30.96,30.65,36.83,0,0,12.13,2.74,21.91,3.13,0,0-.59-31.35-19.96-48.77,0,0-7.43-10.57-12.52-20.35,0,0-11.25-17.41-9.34-24.02,0,0,.12-12.76,4.52-18.05,0,0,5.41-10.57.91-18.2Z"/><path class="cls-28" d="m150.56,171.38s5.87-9.39,8.61-11.54c0,0,1.57-.39,2.74,3.72,0,0-.2,2.15.2,4.7,0,0,1.57,3.72,2.35,4.89,0,0,3.13,1.37,3.13,6.07,0,0,2.54,13.11,1.96,22.5,0,0,.39,4.11.98,6.07,0,0,4.11,21.72,4.89,34.63,0,0,2.54,26.07.59,29.4,0,0-13.3,4.5-25.63,2.74,0,0-.25-47.6,1.15-55.23,0,0-2.71-33.65-1.54-39.12,0,0,1.57-6.26.59-8.8Z"/><path class="cls-19" d="m96.12,153.38s.02,5.54-1.48,7.84c0,0-1.04,4.74-.1,7.02,0,0,.37,4.01,6.12,7.8,0,0,2.4,1.81,5.6,3.19,0,0-3.92-8.08,2.39-7.93,0,0,10.4,6.86,22.08,7.17,0,0,7.87.46,13.46-4.81,0,0-10.94,2.98-20.54-.23,0,0-17.22-4.41-27.52-20.05Z"/><path d="m95.52,158.94s-2.47,9.71,1.91,13.52c0,0,5.88,8.27,19.91,9.88,0,0,15.43,1.76,25.21-2.54,0,0,7.83-3.52,9-11.93,0,0,.84-1.37.84,1.56,0,0-.26,7.83-1.82,13.89,0,0,3.33,73.81,1.37,91.42,0,0-17.41,3.72-22.89.39,0,0-9.59-39.96-17.8-45.83,0,0-21.91-30.72-25.43-44.41,0,0,4.02-22.62,9.71-25.94Z"/><path class="cls-26" d="m88.78,182.58s-1.03,1.91,11.65,14.6c0,0,6.93,6.75,17.11,13.43,0,0,10.44,6.04,17.56,8.9,0,0-1.07-.54-2.25-.99,0,0-7.54-2.34-16.34-7.91,0,0-8.36-5.14-15.22-11.47,0,0-10.17-8.79-12.52-16.56Z"/><path class="cls-27" d="m135.81,219.19s6.09-6.6,9.39-17.24c0,0,4.48-16.73,4.77-18.64,0,0-1.95,11.06-4.92,20.47,0,0-5.09,13.48-9.24,15.41Z"/><ellipse class="cls-21" cx="134.64" cy="225.76" rx="3.6" ry="4.07"/><ellipse class="cls-45" cx="135.18" cy="220.6" rx="1.01" ry=".66" transform="translate(-94.68 339.36) rotate(-85.83)"/><path class="cls-2" d="m98.12,77.27s-4.11,14.28-5.09,20.15c0,0-2.15,7.63-2.35,19.56,0,0-.2,9,0,15.85,0,0,.78,8.41,1.37,10.96,0,0,.98,5.87,5.09,11.15,0,0,4.5,9.2,17.41,16.24,0,0,15.26,8.61,28.56,2.93,0,0,8.8-3.52,14.87-9.78,0,0,4.7-5.67,8.22-15.26,0,0,4.7-15.09,6.07-22.41,0,0,2.84-13.88,1.76-17.75,0,0-.2-4.84,1.37-10.51,0,0,2.15-6.65,1.96-16.04,0,0,1.17-16.43-4.5-24.85,0,0-6.07-9.78-23.41-13.45,0,0-13.06-2.04-26.76.11,0,0-10.09,2.38-15.18,10.2,0,0-6.85,9-9.39,22.89Z"/><path class="cls-13" d="m133.66,162.42c-.26-1.92.32-6.21.32-6.21.95-1.61,1.58-9.64,1.58-9.64,0,0-.29,9.4,0,0,.29-9.4,3.04-12.07,3.04-12.07,3.13-3.89,2.66-8.26,2.66-8.26.38-2.28-.19-17.19-.19-17.19-.19-9.4.76-11.49.76-11.49,4.65-16.62,6.82-48.65,6.82-48.65.47-5.26-3.08-5.29-3.08-5.29-4.88-.45-13.74-.88-22.88.56,0,0-10.09,2.38-15.18,10.2,0,0-6.85,9-9.39,22.89,0,0-4.11,14.28-5.09,20.15,0,0-2.15,7.63-2.35,19.56,0,0-.2,9,0,15.85,0,0,.78,8.41,1.37,10.96,0,0,.98,5.87,5.09,11.15,0,0,4.5,9.2,17.41,16.24,0,0,8.14,4.59,17.71,4.86,0,0,2.89-2.73,1.39-13.62Z"/><path class="cls-18" d="m90.6,95.86s-1.48,0-2.07,4.11c0,0-.2,2.74-.2,4.11,0,0,0,1.17-.39,3.33,0,0-1.16,3.33-.59,7.63,0,0,.2,2.35,0,4.7,0,0,.2,6.46,4.5,7.43,0,0-.22-20.74,1.45-27.39,0,0,.5-4.31-2.71-3.91Z"/><path class="cls-22" d="m97.93,87.84s-1.74,11.01-4.14,11.93c0,0-2.29-5.7-1.11-8.24,0,0-3.16-4.48-2.18-7.8,0,0,.57-7.73,2.03-10.66,0,0,1.39-4.6,2.42-5.97,0,0-1.29-1.16,0-5.93,0,0,1.55-6.1,3.37-6.2,0,0,.2-2.74,1.57-4.5,0,0-.2-6.65,4.89-10.76,0,0,13.3-9.39,17.02-10.76,0,0,7.83-1.96,16.24-.98,0,0,11.35-.78,16.43,5.09,0,0,13.3,3.33,17.61,8.22,0,0,1.37,1.17,1.96,4.3,0,0,8.02,9.98,6.85,14.09,0,0-.25,4.11-1.5,5.48,0,0,3.84,3.91,2.47,8.41,0,0-.59,5.48-1.76,7.83,0,0,.39,3.33,0,6.65,0,0-.59,3.52-1.96,6.26,0,0-1.29,1.96-2.31,2.54,0,0,2.11-19.37-.43-23.87,0,0-2.93-13.11-9.59-17.41,0,0-13.01-9-17.17-6.65,0,0,.48-2.35-16.42-4.5,0,0-16.05,1.28-22.96,11.35,0,0-8.74,11.01-10.73,25.63l-.62,6.46Z"/><path class="cls-42" d="m94.94,90.14s-1.17,1.61-.73,3.52c0,0-1.17-.49-2.2,2.17,0,0-.61-.12-1.41.03,0,0-.35-1.35.23-2.44,0,0,2.49-2.4,4.11-3.29Z"/><path class="cls-20" d="m89.78,100.19s.15-2.57,1.07-.74c0,0,1.53,1.68,1.68,6.25,0,0-.31-4.16-2.75-5.51Z"/><path class="cls-43" d="m174.56,102.29l4.32-1.62s.89,2.99.51,3.93l-5.56,1.4s-.22-2.56.73-3.72Z"/><path class="cls-41" d="m91.67,106.82s-2.15-.39-2.35,3.82c0,0-.32,4.32,1.83,5.3,0,0,1-5.3.52-9.11Z"/><path class="cls-12" d="m116.74,145.07s-3.23-1.23-2.42,2.51c0,0,.81-2.16,2.42-2.51Z"/><path class="cls-4" d="m116.74,145.07c-.37-.06,1.9,1.04,2.27,2.61,0,0,1.17,3.35,7.04,6.29,0,0,2.86,2.1,6.93,2.09,0,0,6.64.91,10.46-1.8,0,0,3.89-1.69,4.33-4.77,0,0-1.76-.59-3.52.22,0,0-2.2.44-4.26-.15,0,0-1.91-1.1-3.74-.51,0,0-2.57.95-4.92-.29,0,0-2.27-1.39-4.4-1.47,0,0-4.4-.37-7.26-1.39,0,0-1.68-.64-2.93-.82Z"/><path class="cls-4" d="m116.74,145.07s2.02.89,6.75.24c2.42-.12,4-.53,5.28-.35,1.29.18,1.54-.15,3.15.73,0,0,1.69,1.31,5.2.73,1.84-.08,3.19.62,4.47,1.21,0,0,.74.33,3.37,1.04,1.15.44,3.15.46,3.69.68,0,0-.66.29-2.58.34,0,0-1.73.55-3.58.76,0,0-1.24.08-3.52-.51,0,0-1.03-.51-2.26-.17,0,0-3.24.68-6.4-1,0,0-1.39-1.05-2.49-1,0,0-3.09.46-5-.15,0,0-2.26-.69-3.37-1.19,0,0-.59-.18-2.71-1.34Z"/><path class="cls-3" d="m143.13,149.96c-1.72.16-4-.52-4-.52-1.49-.57-2.59-.19-2.59-.19-1.91.46-4.8-.69-4.8-.69-1.17-.84-3.09-.98-3.09-.98-.99-.37-3.16-.24-3.16-.24-1.6-.03-2.82-.08-4.31-.65s-4.42-1.63-4.42-1.63c2.12,1.16,2.71,1.34,2.71,1.34.44.2,1.06.43,1.65.63.89.31,1.71.56,1.71.56,1.91.61,5,.15,5,.15,1.1-.05,2.49,1,2.49,1,3.15,1.69,6.4,1,6.4,1,1.23-.34,2.26.17,2.26.17,2.27.59,3.52.51,3.52.51.22-.03.44-.06.66-.09,1.58-.25,2.92-.67,2.92-.67,1.92-.04,2.14-.21,2.14-.21,0,0-4.28.42-5.08.49Z"/><path class="cls-14" d="m110.35,140.03s3.96,1.17,6.9-6.16c0,0,2.49-5.5,6.31-4.77,0,0,.22,3.6,3.96,3.3,0,0-3.37-2.64-1.61-5.72,0,0,.44-1.61,3.31-2.69,0,0,2.27.2,1.24-2,0,0-1.61-1.91-4.26.88,0,0-1.99,1.93-5.69,3.17,0,0-9.13,3.58-10.45,7.4,0,0-3.37,6.6.29,6.6Z"/><path class="cls-6" d="m151.73,130.72s4.4,2.56,7.63,2.41c0,0,6.4.6,9.29-1.7,0,0,2.37-.38,1.05,2.92,0,0-3.05,7.47-7.78,9.2,0,0-1.77.55-3.61-2.31,0,0-1.66-2.77-3.2-3.94,0,0-6.03-6.5-3.39-6.58Z"/><path class="cls-10" d="m148.65,149.35s.99-.53,1.61,0c0,0,.51.59-.07,1.47,0,0-1.25-1.8-1.54-1.47Z"/><path class="cls-11" d="m126.25,126.03s-2.44,2.41,0,5.2c0,0,.97,1.69,3.25,1.47,0,0,1.98.15,1.47-.88,0,0,1.61-.99,3.89.9,0,0,.73,1.23,2.05,1.45,0,0,1.76.37,2.86.07,0,0,.95-.29,1.69-1.17,0,0,2.35-1.17,1.91,0,0,0-.88.66.59.81,0,0,2.57.22,3.08-1.98,0,0,.88-1.76,0-4.4,0,0-.48-.08-.5.93,0,0,.06,2.31-.61,2.31s-.86-.53-1.54-1.11c0,0-.81-.44-1.98.56,0,0-2.37,2.04-4.55-.41,0,0-1.41-1.68-2.49-1.83s-1.91-.59-4.55.51c0,0-2.73.73-3.15-.37s.1-2.39-1.42-2.04Z"/><path class="cls-40" d="m134.38,132.32s-.77-1.62-1.54-1.71c0,0-3.19-.45-2.9.82,0,0,.08.36,1.32.29,0,0,2.02-.16,3.12.61Z"/><path class="cls-30" d="m141.68,132.98s.95-.73,1.25-.95c0,0,.95-.44,1.25.37,0,0,.12.28-.46.4-1.04-.07-.78-.04-2.03.18Z"/><path class="cls-16" d="m134.72,133.33s-4.38,8.57-3.23,10.66c0,0,1.02,3.52,6.15,1.76,0,0,1.76-.68,1.68-4.83,0,0,.54-3.12.71-6.41,0,0-2.33,1.42-5.32-1.17Z"/><path class="cls-36" d="m90.6,95.86s-.65-1.61,1.55-3.52c0,0,1.61-1.47,2.79-2.2,0,0,1.62-.44,2.28.29,0,0,.07,3.52-.81,4.4,0,0-1.21.29-1.91-.44,0,0-1.92,1.68-1.47,3.03,0,0-.91-1.71-2.43-1.57Z"/><path class="cls-38" d="m98.61,98.79s-.73,6.75,2.64,12.33c0,0,1.91,3.74,4.89,5.54,3.64,1.88,6.57,2.53,9.42,2.53,0,0,5.22.45,8.06-1.52,0,0,3.62-1.86,7.1-6.48,0,0,2.67-3.01,3.11-9.98,0,0,0-.81-.73-.29,0,0,.07,6.24-3.23,10.2,0,0-4.99,6.31-9.41,7.01,0,0-6.66,1.34-12.08-1.36,0,0-5.02-2.23-6.97-7.15,0,0-2.54-5.28-1.98-10.82,0,0,.15-.44-.81,0Z"/><path class="cls-39" d="m133.02,99.82s-.15.59.07,1.1c0,0,.26-.07.94-.15,0,0,5.08-.88,7.65-.15,0,0,2.86.37,5.21,1.98,0,0,.89.07.89-.81,0,0-2.28-1.91-6.33-2.57-2.33-.29-4.01.04-8.42.59Z"/><path class="cls-31" d="m146.39,102.29s-.82,2.81-.46,6.26c0,0,.66,8.88,7.48,13.06,0,0,3.15,2.42,8.36,2.27,0,0,5.14-.15,7.34-1.91,0,0,7.34-3.96,9.32-14.16,0,0,0-.51-.44-.44,0,0-.66,4.84-4.33,9.68,0,0-4.26,4.55-5.94,4.84,0,0-3.6,1.32-6.68,1.03,0,0-3.74.07-6.6-1.76,0,0-4.26-2.2-6.38-7.41,0,0-2.71-5.94-1.17-11.15l-.5-.32Z"/><path class="cls-8" d="m106.68,100.45s.34.7,2.3.73c0,0,.88.16,2.45-.92,0,0,2.05-1.76,4.99-2.15,0,0,3.26-.98,7.14,1.17,0,0,1.66,1.27,2.35,2.45,0,0,.49,1.17,1.57,1.57,0,0,.88.2,1.17.39,0,0-.95-.49-1.41-1.27,0,0-.38-1.23-1.43-2.54,0,0-1.37-2.03-4.6-3.03,0,0-3.91-.49-6.45.39,0,0-3.63,1.34-4.61,2.49s-1.76.64-3.48.73Z"/><path class="cls-8" d="m114.95,98.6s-.68,1.86.34,4.02c0,0,.25,1.36,1.94,1.85,0,0,1.73.36,3.39-.1,0,0,1.96-.68,2.25-2.97,0,0-.09-2.11-.78-2.8,0,0-3.13-1.9-7.14,0Z"/><path class="cls-15" d="m125.92,106.52s-7.87,1.96-13.74.59c0,0-1.66-.29-2.79-.68,0,0,3.1,1.73,5.54,2.12,0,0,8.91,2.09,10.98-2.02Z"/><path class="cls-8" d="m148.41,104.61s.88-.24,1.86-1.22c0,0,1.86-2.33,5.97-1.86,0,0,2.29-.35,5.77,2.35,0,0,1.03.59,2.47,1.86,0,0,2.03,1.86,4.18,1.08,0,0-1.37.19-4.18-2.54,0,0-1.65-1.68-4.23-3.09,0,0-2.84-1.31-6.55-.53,0,0-1.74.21-2.9,1.31,0,0-2.06,1.75-2.38,2.65Z"/><path class="cls-6" d="m151.23,109.68s8.42,3.46,13.41,0c0,0-1.76,6.87-13.41,0Z"/><path class="cls-37" d="m119.45,47.73s-3.72-7.43,6.07-11.93c0,0,9.78-2.15,15.65-1.96,0,0-5.29.78-9.01,2.74,0,0,18.76-4.74,29.98.98,0,0-2.56-.2-4.72,0,0,0,13.49,4.11,14.66,7.83,0,0-4.11-.39-6.07-.59,0,0,10.37,4.3,10.57,13.3,0,0,1.76,1.76,1.86,4.5,0,0-1.75-2.74-4.54-3.33,0,0-21.28-13.69-25.24-10.37,0,0-10.48-6.46-29.2-1.17Z"/><path class="cls-8" d="m153.64,101.51s-1.78.7-1.61,3.6c0,0-.01,2.75,2.79,3.3,0,0,4.11,1.03,4.99-2.57,0,0,.63-3.07-1.04-3.85,0,0-2.85-1.07-5.12-.48Z"/><path class="cls-33" d="m145.5,100.63s-1,.15-.56-.91c0,0,2.54-4.37,8.33-6.2,0,0,7.41-2.35,15.04-1.39,0,0,6.01.59,11.07,5.58,0,0,1.03,1.17,1.98,1.43,0,0,2.35.72,2.57,1.5.1.36.66,1.61-.88,2.64,0,0-1.39,1.1-1.61,2.2,0,0-.55,1.87-1.65,2.16,0,0-.85.34-1.36.19,0,0-.59-.51,0-2.64,0,0,.59-1.91-.15-4.31,0,0-1.25-3.61-5.36-5.45,0,0-3.67-2.35-11.37-1.76,0,0-8.66.59-12.33,6.18,0,0-.81,1.74-1.91,1.45,0,0-1.38-.54-1.83-.66Z"/><path class="cls-34" d="m101.84,89.11s-2.93.91-5.58.9c0,0-1.76-.51-1.83,1.13,0,0-.91.76-.56,1.64,0,0-.4,1.14.64,1.61,0,0,1.76.44,2.05,1.61,0,0-.15.88-.15,1.76,0,0-.15,1.03.44,1.03l1.91.29s1.32.44,1.32-1.03c0,0-.54-1.86,2.54-5.82,0,0,2.54-3.91,10.57-4.23,0,0,5.8.09,13.4,4.04,0,0,3.72,1.57,6.07,7.83,0,0,2.35.24,3.08-.64,0,0-2.29-5.85-6.95-8.49,0,0-3.54-2.41-9.6-3.88,0,0-8.84-2.45-17.35,2.25Z"/><path class="cls-9" d="m117.59,172.52c1.99.93.07-3.35.07-3.35-2.98-5.95-12.63-15.56-12.63-15.56-7.63-8.08-3.19-11.67-3.19-11.67,5.03-4.58,2.12-11.05,2.12-11.05-1.07-5.19-6.74-11.38-6.74-11.38-3.84-5.85-3.01-11.01-3.01-11.01.59-7.92-.42-9.2-.42-9.2,0,0-2.81,7.63-2.51,15.17,0,0-1.47,12.52-.59,18.39,0,0,.88,11.01,1.76,13.79,0,0,2.17,6.09,9.1,14.53,0,0,3.33,5.41,16.04,11.36Z"/><path class="cls-32" d="m172.35,62.6s3.77,1.01,7.73,8.03c0,0-1.2-.98-7.73-8.03Z"/><path class="cls-35" d="m180.1,81.38s2.42-7.4-4.9-12.89c0,0,4.01,5.65,4.9,12.89Z"/><path class="cls-44" d="m152.62,32.19s-17.69-6.1-27.46.31c0,0,14.95-4.87,27.46-.31Z"/><path class="cls-6" d="m146.42,123.37s2.47,1.49,3.5,3.39c.44,1.08,1.86,3.77.8,3.66-1.53-3.05-2.52-4.8-3.68-4.12-.44-1.37-1.12-2.21-.61-2.93Z"/><path class="cls-5" d="m108.92,97.51s4.46-3.2,10.64-3.09c0,0,4.35,0,8.24,4.92,0,0,1.6,2.4,2.63,4.8,0,0-4-6.98-7.78-8.01,0,0-3.42-1.58-7.78-.57,0,0-4.23,1.49-5.95,1.94Z"/><path class="cls-5" d="m147.25,104.14s1.94-3.78,7.32-5.38c0,0,5.72-.92,8.92,2.4,0,0,2.29,1.94,3.32,4,0,0-3.89-5.15-8.58-5.61,0,0-5.38-1.26-10.98,4.58Z"/><path class="cls-29" d="m148.65,48.9s-.16.9-5.76,1.36c0,0-8.32.11-11.59-.11,0,0-13.82-.8-19.63,4.92,0,0-4.12,3.66-8.35,18.99,0,0-2.17,11.21-3.55,15.66h-2.11s.5-12,3.61-19.1c0,0,5.41-17.05,17.03-22.54,0,0,16.08-6.52,30.35.82Z"/></svg>