<?xml version="1.0" encoding="UTF-8"?><svg id="RAOUF" xmlns="http://www.w3.org/2000/svg" xmlns:xlink="http://www.w3.org/1999/xlink" viewBox="0 0 262 280"><defs><style>.cls-1,.cls-2,.cls-3{fill:none;}.cls-4{fill:url(#Namnlös_övertoning_74-8);}.cls-5{fill:url(#Namnlös_övertoning_74-7);}.cls-6{fill:url(#Namnlös_övertoning_74-5);}.cls-7{fill:url(#Namnlös_övertoning_74-2);}.cls-8{fill:url(#Namnlös_övertoning_74-3);}.cls-9{fill:url(#Namnlös_övertoning_74-9);}.cls-10{fill:url(#Namnlös_övertoning_2144);}.cls-11{opacity:.1;}.cls-11,.cls-12,.cls-13{fill:#2c3242;}.cls-14{fill:url(#linear-gradient);}.cls-14,.cls-15{opacity:.32;}.cls-16{clip-path:url(#clippath);}.cls-17{fill:#f3f2ef;}.cls-18{fill:#f39f9b;}.cls-19{fill:#f8f8f6;}.cls-20,.cls-15{fill:#ecceb7;}.cls-21{fill:#f4f2f0;}.cls-22{fill:#e6bea0;}.cls-23{fill:#8c726c;}.cls-24{fill:#a9a5a2;}.cls-25{fill:#af7752;}.cls-26{fill:#bf734c;}.cls-27{fill:#d29b7c;}.cls-28{fill:#d0997d;}.cls-29{fill:#d5a38a;}.cls-30{fill:#d9ad96;}.cls-31{fill:#5b4840;}.cls-32{fill:url(#Namnlös_övertoning_85-2);}.cls-32,.cls-13{opacity:.2;}.cls-33{fill:url(#Namnlös_övertoning_74-4);opacity:.7;}.cls-34{fill:url(#Namnlös_övertoning_373);}.cls-35{fill:url(#Namnlös_övertoning_265);}.cls-36{fill:url(#Namnlös_övertoning_173);}.cls-12{opacity:.14;}.cls-37{fill:url(#Namnlös_övertoning_2144-2);}.cls-38{fill:url(#Namnlös_övertoning_2144-5);}.cls-39{fill:url(#Namnlös_övertoning_2144-4);}.cls-40{fill:url(#Namnlös_övertoning_2144-3);}.cls-41{fill:url(#Namnlös_övertoning_2144-6);}.cls-42{fill:url(#Namnlös_övertoning_2144-7);}.cls-2{stroke:url(#Namnlös_övertoning_74-10);}.cls-2,.cls-3{stroke-miterlimit:10;stroke-width:.5px;}.cls-43{fill:url(#Namnlös_övertoning_173-2);}.cls-44{opacity:.8;}.cls-45{fill:url(#Namnlös_övertoning_76);}.cls-46{fill:url(#Namnlös_övertoning_74);}.cls-47{fill:url(#Namnlös_övertoning_73);}.cls-48{fill:url(#Namnlös_övertoning_79);}.cls-49{fill:url(#Namnlös_övertoning_85);opacity:.28;}.cls-50{fill:url(#Namnlös_övertoning_145);opacity:.86;}.cls-3{stroke:url(#Namnlös_övertoning_74-6);}.cls-51{fill:#fff;opacity:.23;}</style><linearGradient id="Namnlös_övertoning_73" x1="86.59" y1="176.67" x2="164.49" y2="176.67" gradientUnits="userSpaceOnUse"><stop offset="0" stop-color="#d0997d"/><stop offset="1" stop-color="#f5c5a3"/></linearGradient><linearGradient id="Namnlös_övertoning_265" x1="90.97" y1="153.49" x2="135.42" y2="153.49" gradientUnits="userSpaceOnUse"><stop offset="0" stop-color="#af7752"/><stop offset="1" stop-color="#cfa185"/></linearGradient><linearGradient id="Namnlös_övertoning_85" x1="82.42" y1="50.88" x2="161.52" y2="50.88" gradientUnits="userSpaceOnUse"><stop offset="0" stop-color="#aa8260"/><stop offset="1" stop-color="#d0997d"/></linearGradient><linearGradient id="Namnlös_övertoning_74" x1="82.89" y1="38.25" x2="156.77" y2="38.25" gradientUnits="userSpaceOnUse"><stop offset="0" stop-color="#000"/><stop offset="1" stop-color="#604942"/></linearGradient><linearGradient id="Namnlös_övertoning_74-2" x1="151.08" y1="59.25" x2="172.4" y2="59.25" xlink:href="#Namnlös_övertoning_74"/><linearGradient id="Namnlös_övertoning_74-3" x1="81.6" y1="66.58" x2="101.83" y2="66.58" xlink:href="#Namnlös_övertoning_74"/><linearGradient id="Namnlös_övertoning_74-4" x1="119.47" y1="64.73" x2="147.72" y2="64.73" xlink:href="#Namnlös_övertoning_74"/><linearGradient id="Namnlös_övertoning_76" x1="124.62" y1="76.95" x2="142.81" y2="76.95" gradientUnits="userSpaceOnUse"><stop offset="0" stop-color="#000"/><stop offset="1" stop-color="#000"/></linearGradient><linearGradient id="Namnlös_övertoning_373" x1="124.65" y1="74.94" x2="157.39" y2="74.94" gradientUnits="userSpaceOnUse"><stop offset="0" stop-color="#c3997d"/><stop offset="1" stop-color="#e7c5a3"/></linearGradient><linearGradient id="Namnlös_övertoning_2144" x1="127.59" y1="79.79" x2="147.2" y2="79.79" gradientUnits="userSpaceOnUse"><stop offset="0" stop-color="#c3997d"/><stop offset=".02" stop-color="#40250c"/><stop offset="1" stop-color="#d9bdb4"/></linearGradient><linearGradient id="Namnlös_övertoning_79" x1="80.95" y1="78.16" x2="103.23" y2="78.16" gradientUnits="userSpaceOnUse"><stop offset="0" stop-color="#c3997d"/><stop offset=".02" stop-color="#000"/><stop offset="1" stop-color="#d9bdb4"/></linearGradient><linearGradient id="Namnlös_övertoning_2144-2" x1="83.09" y1="79.54" x2="98.28" y2="79.54" xlink:href="#Namnlös_övertoning_2144"/><linearGradient id="Namnlös_övertoning_2144-3" x1="100.78" y1="76.8" x2="104.6" y2="76.8" xlink:href="#Namnlös_övertoning_2144"/><linearGradient id="Namnlös_övertoning_2144-4" x1="120.81" y1="78.24" x2="126.53" y2="78.24" xlink:href="#Namnlös_övertoning_2144"/><linearGradient id="Namnlös_övertoning_2144-5" x1="107.93" y1="98.84" x2="116.39" y2="98.84" xlink:href="#Namnlös_övertoning_2144"/><linearGradient id="Namnlös_övertoning_173" x1="97.78" y1="97.32" x2="102.36" y2="97.32" gradientUnits="userSpaceOnUse"><stop offset="0" stop-color="#c8745e"/><stop offset="1" stop-color="#c27c71"/></linearGradient><linearGradient id="Namnlös_övertoning_2144-6" x1="101.38" y1="99.67" x2="103.59" y2="99.67" xlink:href="#Namnlös_övertoning_2144"/><linearGradient id="Namnlös_övertoning_2144-7" x1="91.69" y1="104.98" x2="97.68" y2="104.98" xlink:href="#Namnlös_övertoning_2144"/><linearGradient id="Namnlös_övertoning_173-2" x1="96.87" y1="118.8" x2="127.91" y2="118.8" xlink:href="#Namnlös_övertoning_173"/><linearGradient id="Namnlös_övertoning_74-5" x1="145.07" y1="75.83" x2="168.22" y2="75.83" xlink:href="#Namnlös_övertoning_74"/><linearGradient id="Namnlös_övertoning_85-2" x1="114.61" y1="93.7" x2="161.71" y2="93.7" xlink:href="#Namnlös_övertoning_85"/><linearGradient id="Namnlös_övertoning_74-6" x1="113.92" y1="80.47" x2="144.25" y2="80.47" xlink:href="#Namnlös_övertoning_74"/><linearGradient id="Namnlös_övertoning_74-7" x1="113.48" y1="70.9" x2="145.8" y2="70.9" xlink:href="#Namnlös_övertoning_74"/><linearGradient id="Namnlös_övertoning_74-8" x1="104.77" y1="71.78" x2="114.3" y2="71.78" xlink:href="#Namnlös_övertoning_74"/><linearGradient id="Namnlös_övertoning_74-9" x1="75.99" y1="72.71" x2="105.6" y2="72.71" xlink:href="#Namnlös_övertoning_74"/><linearGradient id="Namnlös_övertoning_145" x1="79.3" y1="94.45" x2="103.22" y2="94.45" gradientUnits="userSpaceOnUse"><stop offset="0" stop-color="#c1876e"/><stop offset="1" stop-color="#eabc9f"/></linearGradient><linearGradient id="Namnlös_övertoning_74-10" x1="78.11" y1="81.29" x2="105.5" y2="81.29" xlink:href="#Namnlös_övertoning_74"/><linearGradient id="linear-gradient" x1="99.15" y1="88.92" x2="105.66" y2="88.92" gradientUnits="userSpaceOnUse"><stop offset="0" stop-color="#c8745e"/><stop offset="1" stop-color="#cf988f"/></linearGradient><clipPath id="clippath"><path class="cls-1" d="M12.71,242.97c9.76,6.65,22.34,11.26,30.49,15.11,31.67,14.98,70.49,21.99,105.16,14.08,17.94-4.09,34.59-12.44,50.8-21.13,26.24-14.06,56.03-33.99,60.36-66.2,.35-2.62,.47-5.33-.31-7.86-1.77-5.74-7.12-8.37-11.96-11.1-4.76-2.68-8.97-5.92-13.51-9.1-10.31-7.24-21.35-13.44-32.91-18.45-23.04-10-48.19-15.31-73.33-14.65-44.56,1.18-88.74,21.64-116.61,56.42-3.64,4.54-7.04,9.36-9.16,14.78-3.25,8.3-3.31,17.46-3.34,26.38-.02,9.17,6.16,16.15,14.31,21.71Z"/></clipPath></defs><g id="BG-3"><circle class="cls-18" cx="132.65" cy="130.34" r="129"/></g><g id="RAOUF-2"><path class="cls-24" d="M163.19,131.26c-.3,1.05-.6,2.12-.57,3.21,.02,.49,.1,.97,.13,1.45,.15,2.37-.89,4.61-.96,6.96,.89-1.91,2.32-2.92,2.79-5.08,.57-2.61,1.64-5.07,2.13-7.71,.02-.09,.03-.2-.03-.27-.05-.06-.14-.08-.22-.08-1.41-.14-2.82-.05-3.27,1.52Z"/><path class="cls-47" d="M163.56,137.19c-1.46,7.97-6.04,15.04-11.29,21.21-5.25,6.17-11.25,11.69-16.31,18.03-11.21,14.05-17.24,31.4-24.21,47.97-2.15,5.11-4.42,10.2-7.51,14.81-.89-7.67-2.1-15.31-3.64-22.88-.69-3.4-1.45-6.82-2.94-9.95-2.22-4.68-2.56-8.53-3.06-13.76-.5-5.24-1-10.48-1.5-15.72-.3-3.14-.6-6.29-.69-9.45-.15-5.04,.24-10.1-.27-15.12-.59-5.77-3.03-9.4-5.55-14.34,4.06,6.55,8.11,13.57,15.07,17.44,10.13,5.64,23.25,2.43,32.66-4.34,9.41-6.78,16.13-16.55,23.48-25.52,3.01-3.68,4.87-6.99,6.35-11.41,.66,2.68,.16,5.77,.09,8.5-.11,4.85,.19,9.74-.69,14.54Z"/><path class="cls-35" d="M91.08,148.1c2.73,2.62,5.65,5.04,8.71,7.26,3.76,2.71,7.91,5.17,12.51,5.72,4.83,.58,9.66-.99,14.08-3.01,3.71-1.69,7.52-3.99,9.05-7.77-3.35,1.75-6.84,3.25-10.42,4.48-3.81,1.31-7.82,2.32-11.83,1.99-3.81-.32-7.4-1.82-10.93-3.3-4.33-1.82-8.1-4.21-11.27-7.68,2.79,4.23,5.9,8.26,10.31,10.76"/><path class="cls-20" d="M79.53,86.81c-.02,.06-.05,.11-.07,.17-1.58,3.83-2.08,6.33-2.17,10.4-.09,4.23,.53,8.44,1.38,12.58,.72,3.54,.98,6.91,2.06,10.45,1.91,6.24,3.83,12.5,6.62,18.4,4.66,9.82,12.6,19.27,24.27,20.04,5.46,.36,10.78-1.7,15.73-4.03,6.68-3.15,11.94-7.93,17.72-12.39s10.44-8.74,13.92-15.28c3.01-5.66,6.07-12.49,6.24-18.92,.14-5.27-.85-10.58-.18-15.81,.61-4.67,2.51-9.06,3.85-13.57,2.8-9.44,3.01-20.03-1.56-28.75-3.9-7.46-10.98-12.91-18.73-16.18-7.75-3.27-16.2-4.54-24.59-5.25-14.95-1.26-22.94,2.85-32.47,13.76-1.38,1.58-2.78,3.19-3.74,5.06-3.5,6.84-4.74,15.84-5.31,23.4-1.4-.17-2.2,1.53-2.54,2.9-.59,2.34-1.19,4.83-.47,7.14,.24,.78,.64,1.53,.76,2.34,.18,1.21-.27,2.42-.73,3.56Z"/><path class="cls-30" d="M113.12,167.84c-.12-3.61-.5-7.21-.88-10.8-.29-2.77-.82-5.94-3.19-7.4-.89-.55-2-.82-2.59-1.68-.53-.76-.49-1.76-.44-2.69,.75-12.23,1.49-24.47,2.24-36.7,.12-2.03,.22-4.19-.75-5.98-.8-1.47-2.23-2.5-3.04-3.97-1.11-2-.88-4.45-.61-6.72,2.46-20.41,5.87-40.71,10.21-60.81,1.28-.62,1.18-1.05,1.3-2.47-.03,0-.05-.01-.08-.02-9.68,.88-16.22,5.24-23.7,13.8-1.38,1.58-2.78,3.19-3.74,5.06-3.5,6.84-4.74,15.84-5.31,23.4-1.4-.17-2.2,1.53-2.54,2.9-.59,2.34-1.19,4.83-.47,7.14,.24,.78,.64,1.53,.76,2.34,.18,1.21-.27,2.42-.73,3.56-.02,.06-.05,.11-.07,.17-1.58,3.83-2.08,6.33-2.17,10.4-.09,4.23,.53,8.44,1.38,12.58,.72,3.55,.98,6.91,2.06,10.45,1.91,6.24,3.83,12.5,6.62,18.4,.37,.78,.77,1.56,1.19,2.34-.66-1.05-1.31-2.11-1.96-3.16,2.52,4.94,4.96,8.57,5.55,14.34,.51,5.02,.12,10.08,.27,15.12,.09,3.16,.39,6.3,.69,9.45,.5,5.24,1,10.48,1.5,15.72,.5,5.23,.84,9.08,3.06,13.76,1.49,3.13,2.25,6.55,2.94,9.95,1,4.95,1.85,9.92,2.58,14.91,.95,.84,2.25,.87,3.47,1.54,1.63-13.84,3.27-27.69,4.9-41.53,.92-7.77,1.84-15.58,1.56-23.4Z"/><path class="cls-27" d="M113.12,167.84c-.07-2,.47-7.1-1.19-8.4-.9-.71-3.8-.58-4.96-.81-1.9-.38-3.78-.85-5.6-1.5-3.73-1.33-7.26-3.43-9.76-6.5,1,1.33,.66,6.56,.75,8.28,.15,2.83-.03,5.68,.05,8.53,.09,3.16,.39,6.3,.69,9.45,.5,5.24,1,10.48,1.5,15.72,.5,5.23,.84,9.08,3.06,13.76,1.49,3.13,2.25,6.55,2.94,9.95,1,4.95,1.85,9.92,2.58,14.91,.95,.84,2.25,.87,3.47,1.54,1.63-13.84,3.27-27.69,4.9-41.53,.92-7.77,1.84-15.58,1.56-23.4Z"/><path class="cls-44" d="M122.2,75.24c3.54-1.69,7.35-3.12,11.27-2.92,3.92,.2,7.95,2.38,9.31,6.06-1.53-2.07-3.3-4.13-5.69-5.08-1.91-.76-4.04-.73-6.07-.42-3.55,.55-6.9,1.95-10.21,3.34,1.29-.62,2.59-1.24,3.88-1.86"/><path class="cls-44" d="M97.6,72.42c-2.09-.38-4.26-.19-6.33,.31-2.55,.62-4.99,1.72-7.14,3.23-1.77,1.24-3.47,3.04-3.41,5.2,2.3-3.65,6.05-6.35,10.23-7.38,4-.98,7.78-.27,11.52,1.25,.11-1.42-3.83-2.44-4.88-2.63Z"/><path class="cls-49" d="M146.16,42.3c-2.91-1-5.75-2.22-8.49-3.63-.41-.21-.85-.47-.97-.91-.27-.94,1.05-1.5,2.03-1.5,4.28,0,8.28,1.98,12.09,3.93,2,1.02,4.05,2.08,5.56,3.74,2.2,2.41,2.98,5.76,3.68,8.95,1.43,6.53,3.18,15.16-2.28,20.4-.77-.96-.77-2.29-.83-3.51s-.3-2.6-1.32-3.28c-.42-.28-.94-.42-1.29-.78-.3-.3-.44-.72-.58-1.12-1.16-3.49-2.41-6.89-2.4-10.6,0-2.24,.48-4.55-.22-6.68-1.12-3.4-4.74-5.02-7.81-6.25-3.08-1.24-5.46-.09-8.64,.37-6.28,.9-12.64,.74-18.97,.5-4.54-.17-11.42-1.79-15.77-.53-8.46,2.46-13.12,17.81-15.14,25.07-.34,1.23-.93,2.7-2.19,2.84-.69-3,.44-6.09,1.54-8.96,1.23-3.18,2.45-6.36,3.68-9.55,3.01-7.81,6.61-13.81,14.41-17.48-.48,.04-.8-.59-.64-1.05s.6-.75,1.02-.99c4.93-2.83,10.94-3.27,16.55-2.36,4.17,.68,8.19,2.05,12.11,3.58,3.52,1.37,7.2,2.1,10.67,3.62,3.05,1.32,5.87,3.24,9,4.36-1.6-1.56-5.34-1.25-8.96-.58"/><path class="cls-46" d="M152.18,42.28c1.03-1.66,2.4-3.09,3.4-4.78,.99-1.68,1.59-3.78,.87-5.6-.86-2.2-3.32-3.33-4.65-5.29-1.33-1.97-1.94-5.05-4.3-5.3,.06,.59,.12,1.18,.18,1.76-4.35-2.05-8.71-4.11-13.06-6.16,.12-.5,.89,.29,.47,.59s-.99-.01-1.42-.29c-2.02-1.3-4.48-1.91-6.87-1.69-2.91-.26-5.82-.52-8.73-.78,.33,.22,.66,.43,.99,.65-6.47-.52-13.09,1.13-18.56,4.63,1.17-.31,2.41-.37,3.61-.18-2.31,.59-4.55,1.54-6.47,2.96-1.19,.88-2.24,1.93-3.28,2.98-1.61,1.61-3.26,3.29-4.07,5.43-.89,2.36-1.04,5.54-3.4,6.42,.61,.35,1.23,.71,1.84,1.06-.82,.97-1.64,1.94-2.47,2.91-.35,.41-.71,.93-.53,1.43,.16,.42,.64,.61,.9,.98,.84,1.17-1.07,2.61-.9,4.04,.07,.57,.47,1.05,.54,1.62,.14,1.06-.86,1.88-1.57,2.68-2.16,2.47-1.93,6.16-1.59,9.42,1.57-4.01,3.14-8.01,4.7-12.02,.86-2.18,1.72-4.39,3.04-6.33,3.57-5.24,9.88-7.77,15.81-10.02-.69-.25-1.38-.5-2.07-.74,4.28-.44,8.56-.87,12.84-1.31,3.58-.36,7.45-.66,10.51,1.22,1.32,.81,2.45,2.02,3.94,2.42,2.29,.62,4.95-.77,7.01,.41,1.81,1.04,2.49,3.75,4.54,4.11,1.71,.3,3.98-1.11,4.91,.35,.3-.28,.6-.56,.89-.84,.93,1.1,1.44,2.55,1.4,4,2.49-1.13,4.28-3.68,4.5-6.41"/><path class="cls-7" d="M154.91,35.51c-.34,1.63-1.54,2.94-2.17,4.48s-.37,3.76,1.21,4.27c-.62,.04-.7,.98-.36,1.5s.9,.95,.96,1.57c.07,.75-.63,1.33-.9,2.04-.56,1.48,.84,2.91,1.32,4.42,.27,.85,.25,1.76,.22,2.65-.09,2.84-.17,5.68-.26,8.51,2.29,1.39,3.47,4.38,2.75,6.95-.12,.43-.29,.87-.24,1.32,.05,.37,.25,.71,.43,1.04,.54,.98,.97,2.01,1.4,3.04,1.15,2.76,2.3,5.52,3.45,8.28,.31,.74,1.42,6.02,2.37,5.89,.28-.04,.46-.3,.58-.55,.92-1.9,.45-4.2,1.13-6.19,.54-1.57,1.81-2.86,3.37-3.42,.22-.08,.45-.15,.62-.31,.28-.26,.3-.69,.31-1.07,.07-3.39,.97-6.74,.97-10.19,.42-6.26,.81-12.74-1.33-18.64-.37-1.02-.82-2.03-.94-3.1-.11-.97,.05-1.98-.24-2.91-.54-1.73-2.39-2.62-3.87-3.68-1.48-1.06-2.78-3.09-1.74-4.58-1.12,.35-2.21-.57-3.02-1.42-1.72-1.79-7.21-9.61-9.87-8.2,1.17,2.89,4.61,4.59,3.83,8.3Z"/><path class="cls-8" d="M101.83,67.67c-.72-1.07-1.45-2.15-2.43-2.99-.98-.84-2.26-1.41-3.54-1.27-1.09,.12-2.08,.73-3.17,.83-.74,.06-1.47-.11-2.2-.21-3.11-.43-6.4,.63-8.67,2.8,.35,.86,.26,1.88-.22,2.66,1.46,.57,3.12,.23,4.6-.3,2.3-.82,4.71-2.1,7.05-1.42,.46,.13,.96,.34,1.39,.13,.15-.07,.28-.19,.44-.25,.26-.09,.53,0,.79,.09,.64,.23,1.28,.45,1.91,.68-.36-.14-.32-.72,0-.93s.75-.13,1.09,.05,.63,.43,.98,.59c.58,.25,1.29,.16,1.79-.22-.41-1.27-1.31-2.37-2.48-3.02"/><path class="cls-33" d="M124.59,61.67c1.4-.56,2.9-1.13,4.38-.84,1.52,.3,3.14,1.48,4.46,.65-.28,.45,.46,.83,.98,.86,1.88,.1,3.76,.2,5.64,.3,.41,.02,.84,.05,1.17,.29,.25,.18,.42,.45,.65,.65,.73,.62,1.87,.33,2.73,.76,1.35,.68,1.62,2.92,3.11,3.11-.64,1.19-2.29,1.47-3.59,1.11s-2.42-1.19-3.67-1.73c-1.24-.54-2.79-.75-3.87,.07,.36-.04-.06-.56-.42-.57-1.85-.08-3.69-.15-5.54-.23-1.8-.07-3.59-.15-5.39-.22-.64-.03-4.93,.52-5.16,.37-2.52-1.69,3.39-4.14,4.5-4.58Z"/><path class="cls-23" d="M90.89,110.84l1.08,.18c-.65,.91-1.29,1.82-1.94,2.74,.34,.31,.67,.62,1.01,.94-.68,1.22-1.09,2.59-1.18,3.98,.06-.51,.33-.98,.73-1.29-.77,1.42-.73,3.25,.12,4.62,.88-1.99,2.23-3.77,3.9-5.15,2.53-2.08,5.69-3.2,8.81-4.21,.83-.27,2.13-.21,2.12,.66,.48-.3,.97-.59,1.45-.89,.76,1.17,2.45,1.13,3.84,1.04,6.35-.42,12.7,.75,18.96,1.93,.88,1.56,1.75,3.13,2.63,4.69,1.1,.05,1.81-1.15,2.07-2.22,.8-3.36-.48-7.13-3.17-9.29-.59-.47-1.26-.89-2.01-.98-.72-.09-1.46,.13-2.18,0-1.92-.35-3.1-3.04-5.03-2.69-.67,.12-1.29,.62-1.95,.47-.86-.19-1.31-1.39-2.19-1.34-.42,.02-.78,.34-1.2,.4-.96,.14-1.51-1.02-2.28-1.62-1.97-1.53-4.57,.91-7.04,1.24-2.35,.31-2.69-1.52-4.37-2.25-1.59-.69-2.72-.01-4.26,.85-3.37,1.88-6.19,4.77-7.92,8.22Z"/><path class="cls-31" d="M94.61,116.86c2.53-2.08,5.69-3.2,8.81-4.21,.83-.27,2.13-.21,2.12,.66,.48-.3,.97-.59,1.45-.89,.24,.37,.59,.61,.98,.78,.09-1.54,.19-3.07,.28-4.61,.1-1.56,.17-3.18-.24-4.66-.19,.05-.39,.09-.58,.11-2.35,.31-2.69-1.52-4.37-2.25-1.59-.69-2.72-.01-4.26,.84-3.37,1.88-6.19,4.77-7.92,8.22,.36,.06,.72,.12,1.08,.18-.65,.91-1.29,1.82-1.94,2.74,.34,.31,.67,.62,1.01,.94-.68,1.22-1.09,2.59-1.18,3.98,.06-.51,.33-.98,.73-1.29-.77,1.42-.73,3.25,.12,4.62,.88-1.99,2.23-3.77,3.9-5.15Z"/><path class="cls-23" d="M91.34,137.33c.34,2.14,.69,4.32,1.68,6.25,.83,1.61,2.09,2.99,3.61,3.96,.41,.26,.85,.5,1.19,.86,.67,.71,.86,1.78,1.58,2.43,.83,.75,2.08,.7,3.2,.75,2.9,.12,5.68,1.16,8.52,1.79,3.63,.82,7.4,.98,11.09,.48,1.39-.19,2.81-.49,4-1.25,.98-.63,1.75-1.54,2.49-2.44,2.96-3.55,6.02-7.3,6.98-11.83,.93-4.38-.24-8.9-1.4-13.22-1.63,1.56-1.53,4.14-2.07,6.33-1.19,4.81-6.42,8.23-11.3,7.4-.61-.1-1.22-.26-1.84-.23-.64,.03-1.24,.27-1.87,.35-2.1,.26-3.97-1.16-5.84-2.15-1.87-.99-4.55-1.4-5.79,.31-.53,.74-.72,1.82-1.56,2.2-1.21,.56-2.35-.84-3.07-1.97s-2.31-2.24-3.2-1.25c.05-.58,.1-1.16,.14-1.74-1.27-1.12-4.84-5.56-6.7-4.62-1.81,.92-.08,6.05,.16,7.59Z"/><path class="cls-31" d="M111.13,153.37c.16,.04,.32,.06,.48,.1-.45-1.57-1.19-2.98-2.56-3.82-.89-.55-2-.82-2.59-1.68-.53-.76-.49-1.76-.44-2.69,.18-2.99,.37-5.98,.55-8.98-.38,.19-.73,.44-1,.82-.53,.74-.73,1.82-1.56,2.2-1.21,.56-2.35-.84-3.07-1.97-.72-1.13-2.31-2.24-3.2-1.25,.05-.58,.1-1.16,.14-1.74-1.27-1.12-4.84-5.56-6.7-4.62-1.81,.92-.08,6.05,.16,7.59,.34,2.14,.69,4.32,1.68,6.25,.83,1.61,2.09,2.99,3.61,3.96,.41,.26,.85,.5,1.19,.86,.67,.71,.86,1.78,1.58,2.43,.83,.75,2.08,.7,3.2,.75,2.9,.12,5.68,1.16,8.52,1.79Z"/><path d="M130.29,79.58c.05,.08,.11,.16,.2,.2,.08,.04,.17,.04,.25,.03,1.71-.04,3.42-.07,5.13-.11,.26,0,.53-.01,.77-.12,.3-.13,.52-.39,.69-.66,.35-.54,.57-1.26,.25-1.82-.16-.28-.42-.47-.69-.64-1.61-1.03-3.56-1.42-5.47-1.34-2.11,.08-2.01,3.14-1.14,4.45Z"/><path class="cls-45" d="M131.9,74.92c1.15,.05,2.28,.35,3.38,.71,2.62,.85,5.15,1.98,7.53,3.37-2.98-1.16-6.02-2.17-9.11-3.02-1.12-.31-2.28-.6-3.44-.53-1.07,.06-2.1,.43-3.11,.79-.84,.3-1.7,.57-2.52,.93,2.3-1.12,4.65-2.36,7.28-2.25Z"/><path class="cls-34" d="M142.78,80.92c.19-2.79-1.28-5.53-3.45-7.31-2.16-1.78-4.94-2.67-7.71-3.02-2.32-.29-4.68-.23-6.97-.72,.57-.86,1.78-.92,2.8-.89,4.14,.12,8.27,.4,12.39,.83,1.26,.13,2.74,.43,3.25,1.59,.19,.42,.21,.91,.42,1.32,.52,.99,1.85,1.13,2.96,1.17,3.53,.13,7.52,.24,10.9,1.3-1.3,1.33-5.31,1.24-7.21,1.88-2.64,.89-5.15,2.2-7.4,3.86Z"/><path class="cls-10" d="M128.3,79.19c1.16,.69,2.57,.77,3.91,.78,1.99,.02,3.98-.1,5.96-.34,1.21-.15,2.45-.34,3.63-.04,.62,.16,1.2,.45,1.8,.68,1.14,.44,2.37,.68,3.6,.7-1.14-.16-2.27-.45-3.35-.86-1.25-.47-2.47-1.1-3.8-1.24-.83-.09-1.66,.02-2.49,.09-3.32,.28-6.66-.04-9.97-.35,1.03,.83,2.31,1.35,3.63,1.48"/><path class="cls-48" d="M93.06,74.34c-1.52,.19-2.98,.72-4.36,1.39-3.03,1.47-5.7,3.66-7.75,6.33,3.11-1.77,5.98-3.97,9.23-5.45,3.25-1.48,7.09-2.19,10.4-.83,.87,.36,1.72,.91,2.65,1.05-.9-1.07-3.51-1.61-4.85-1.98-1.73-.48-3.53-.73-5.32-.51Z"/><path class="cls-37" d="M90.58,79.6c2.6,.1,5.21-.24,7.7-1.01-1.74,.43-3.54,.61-5.33,.57-1.66-.04-3.43-.41-5.08-.12-1.59,.28-3.29,.78-4.77,1.44,2.39-1.07,4.98-.98,7.48-.88Z"/><path class="cls-40" d="M101.52,76.74c.97,.41,2.02,.66,3.08,.72-1.29-.4-2.56-.84-3.82-1.33,.69,.52,1.48,.91,2.32,1.15"/><path class="cls-39" d="M121.49,78.14c1.67,.26,3.35,.46,5.04,.58-1.83-.67-3.8-1.21-5.72-.83,1.21,.36,2.49,.48,3.74,.34"/><path class="cls-38" d="M111.17,98.02c-.94,.08-1.87,.35-2.71,.79-.29,.15-.62,.46-.46,.75,.4,.25,.91,.26,1.38,.16s.9-.29,1.35-.42c1.02-.3,2.14-.3,3.16,0,.82,.25,1.66,.69,2.5,.51-.52-.66-1.12-1.3-1.9-1.59-.35-.13-.73-.18-1.1-.24-1.16-.16-2.36-.32-3.48,.02-.73,.23-1.38,.66-1.97,1.15,.84-.11,2.4-1.04,3.24-1.15Z"/><path class="cls-28" d="M118.43,93.71c.54,.33,1.09,.67,1.47,1.18,.33,.45,.5,1.01,.59,1.56,.19,1.16,.05,2.41-.6,3.4s-1.86,1.63-3.01,1.41c-.78-.15-1.49-.67-2.29-.65-.1,0-.21,.02-.27,.1-.05,.08-.04,.18-.01,.27,.16,.54,.68,.91,1.22,1.06s1.11,.11,1.67,.07c1.18-.08,2.44-.2,3.38-.92,1.14-.88,1.5-2.53,1.1-3.92s-1.44-2.51-2.64-3.31c-.51-.34-1.05-.63-1.62-.88-.14-.06-.29-.12-.43-.19,.49,.21,.97,.55,1.44,.83Z"/><path class="cls-15" d="M98.79,99.32c-.15-.17-.28-.35-.35-.55-.11-.3-.1-.63-.07-.95,.1-1.28,.41-2.55,.91-3.73-.22,.48-.08,1.04,.1,1.53,.73,1.99,2.13,3.1,3.65,4.48-1.37,.46-3.16,.45-4.24-.77Z"/><path class="cls-36" d="M99.54,100.04c-.19-.06-.38-.14-.54-.26-.18-.14-.29-.34-.39-.55-.17-.36-.27-.74-.33-1.14-.06-.45,.06-.77,.18-1.21,.27-.92,.5-1.8,.67-2.75-.91,1.27-1.52,2.71-1.33,4.31,.1,.85,.56,1.78,1.48,1.93s2.18,.31,3.07-.15c-.93,.18-1.91,.12-2.82-.18Z"/><path class="cls-41" d="M101.54,98.8c.8,.4,1.51,.99,2.05,1.71-1.02,.21-2.14-.63-2.21-1.67"/><path class="cls-28" d="M128.61,104.64c1.5,1.66,2.99,3.31,4.49,4.97,1.57,1.73,3.24,3.8,2.92,6.11,.47-1.78-.48-3.6-1.4-5.2-.74-1.28-1.48-2.56-2.38-3.73-1.33-1.72-3.01-3.19-3.95-5.15-.76-1.58-.98-3.37-1.19-5.11,.08,2.27,.27,4.57,1.06,6.7,.8,2.13,2.27,4.09,4.34,5.03"/><path class="cls-42" d="M96.69,100.11c-2.59,3.01-3.88,6.9-5,10.7,1.45-4.14,3.47-8.07,5.99-11.66-1.14,1.01-2.15,2.16-3,3.42"/><path class="cls-28" d="M101.15,116.15c1.56-.87,3.34-1.54,5.1-1.25,.85,.14,1.67,.5,2.53,.44,.64-.04,1.23-.3,1.86-.44,1.35-.3,2.76,0,4.1,.35,4.54,1.16,9.06,2.82,13.74,2.68-2.64,.64-5.32,1.3-7.71,2.61-1.05,.58-2.04,1.28-3.12,1.8-5.18,2.46-12.39,2.52-17.25-.85-.29-.2-3.83-2.57-3.68-2.7,1.12-1.04,3.07-1.87,4.44-2.64Z"/><path class="cls-43" d="M98.6,119.13l6.31-.61c1.03-.1,2.07-.2,3.1-.12,.87,.07,1.72,.27,2.59,.32,.9,.05,1.81-.05,2.71-.13,.56-.05,1.15-.18,1.7-.17,.7,.02,1.41,.14,2.11,.21,.48,.05,.95,.1,1.43,.12,.66,.03,1.33,0,1.99-.04,.81-.04,1.61-.08,2.42-.12,1.66-.08,3.33-.16,4.97-.42-1.23,.42-2.48,.85-3.78,.86-.45,0-.9-.04-1.36-.08-1.22-.09-2.44-.07-3.65,0s-2.44,.3-3.65,.33c-2.36,.06-4.76,.04-7.14,.06-1.93,.02-3.87,.03-5.8,.05-1.9,.02-3.83,.03-5.67-.47,1.15,.03,2.31,.07,3.46,.1"/><path class="cls-23" d="M102.44,126.53c1.62,.21,3.25,.41,4.88,.46,1.45,.04,2.91-.04,4.36-.12,1.98-.11,4-.23,5.83-.97,.68-.27,1.33-.63,2.03-.81,1.05-.26,2.19-.1,3.22-.46,1.13-.4,2.01-1.39,3.19-1.62-.88,1.39-2.14,2.54-3.6,3.28-.88,.45-1.85,.76-2.61,1.39-.62,.52-1.07,1.23-1.7,1.74-1.41,1.16-3.49,1.2-4.9,2.35-.37,.3-.69,.67-1.09,.93s-.94,.38-1.36,.14c-.31-.18-.48-.52-.76-.75-.65-.55-1.61-.35-2.45-.36-1.97-.04-4.32-1.4-6.07-2.25-.49-.24-1-.51-1.25-.99-.06-.12-.11-.25-.2-.34-.16-.16-.42-.16-.64-.21-.33-.07-.63-.28-.81-.57-.14-.22-.21-.48-.35-.7-.19-.28-.49-.47-.74-.7-.52-.48-.82-1.18-.82-1.88,1.8,1.16,3.7,2.16,5.84,2.44Z"/><path class="cls-31" d="M106.84,131.67c.1-1.56,.19-3.12,.29-4.69-1.57-.06-3.13-.25-4.69-.45-2.14-.27-4.04-1.27-5.84-2.44,0,.7,.31,1.4,.82,1.88,.25,.23,.55,.42,.74,.7,.15,.22,.21,.48,.35,.7,.18,.29,.48,.5,.81,.57,.22,.05,.48,.05,.64,.21,.09,.09,.14,.22,.2,.34,.25,.48,.76,.75,1.25,.99,1.56,.76,3.6,1.92,5.42,2.19Z"/><path class="cls-22" d="M173.68,80.56c1.55,.27,2.7,1.7,3.12,3.22,.42,1.52,.26,3.13,.1,4.7-.34,3.23-.68,6.45-1.02,9.68-.27,2.58-.54,5.17-1.14,7.69-.59,2.53-1.51,5.01-1.65,7.6-.03,.54-.03,1.11-.27,1.6-.16,.32-.41,.58-.65,.83-.88,.91-1.78,1.84-2.92,2.4-1.14,.56-2.57,.67-3.62-.03-2.58-1.73-.97-5.94-.65-8.34,.36-2.69,0-5.06-.18-7.76-.17-2.65-.14-5.31,.09-7.96,.19-2.19,.52-4.37,.98-6.52,.4-1.88,.96-3.68,2.19-5.2,1.25-1.56,3.65-2.26,5.63-1.92Z"/><path class="cls-29" d="M175.01,83.72c-1.03-.13-2.02,.45-2.75,1.18-.86,.86-1.49,1.94-1.82,3.11-.23,.83-.31,1.72-.75,2.45-.5,.84-1.45,1.46-1.58,2.44,1.1-1.29,2.98-1.87,4.61-1.42,.41,.11,.8,.29,1.11,.58,.34,.32,.54,.75,.73,1.17,.38,.82,.76,1.65,1.14,2.47-.43-1.64-.6-3.35-.49-5.04,.14-2.16,.7-4.43-.19-6.4-.18-.39-.49-.8-.91-.77-.25,.01-.46,.18-.65,.34-.86,.75-1.58,1.65-2.12,2.66"/><path class="cls-29" d="M167.59,94.84c-.18,.02-.26,.23-.3,.41-.19,.97-.04,2.01,.43,2.89,.13,.25,.29,.48,.38,.74,.24,.69-.02,1.46-.37,2.11-.35,.65-.8,1.25-1,1.96-.27,.96-.04,1.98,.18,2.95,.18-.57,.36-1.14,.68-1.64s.82-.92,1.4-1.02c.99-.17,2.09,.56,2.94,.03,.67-.42,.72-1.35,.71-2.13,0-.52-.02-1.05-.03-1.57,0-.42-.02-.85-.21-1.22-.32-.64-1.04-.93-1.68-1.25-1.2-.61-2.27-1.5-3.08-2.57-.56,.66-.72,1.63-.4,2.43"/><path class="cls-6" d="M165.82,77.53c1.22,.69,2.59,1.75,2.38,3.13-.08,.5-.51,1.02-1.01,.92-.23-.05-.41-.21-.59-.37-4.07-3.61-9.61-4.97-14.92-6.21-2.04-.48-4.08-.95-6.12-1.43-.19-.04-.62-2.96-.47-3.19,.45-.68,1.73-.09,2.4,.07,2.12,.49,4.22,1.07,6.29,1.76,4.17,1.38,8.21,3.17,12.04,5.32Z"/><path id="glas" class="cls-51" d="M143.81,73.74c.33,1.81,.22,4.14-.24,6.23s-.9,4.2-1.73,6.18c-.16,.39-.44,.54-.98,1.01-.5,.44-1.58,.63-2.24,.77-4.09,.89-7.54,.82-11.72,.61-1.58-.08-3.17-.16-4.75-.25-1.15-.06-2.42-.17-3.22-1.01-.37-.38-.59-.88-.8-1.36-1.21-2.77-2.43-5.55-3.18-8.47-.38-1.49-.65-3.02-.78-4.55,1.11-.99,2.25-1.5,3.62-2.05,1.79-.71,3.72-1.01,5.63-1.23,5.62-.63,11.32-.59,16.93,.13,.92,.12,1.91,.29,2.56,.95,.77,.78,.7,1.97,.9,3.05Z"/><path class="cls-32" d="M121.23,90c5.06,1.6,10.17,3.06,15.31,4.36,4.5,1.14,8.8-.74,13.3,1.04,2.38,.94,4.61,2.67,5.37,5.12,.61,1.97,.19,4.11,.47,6.16,.05,.36,.13,.73,.37,1,.48,.52,1.38,.36,1.88-.14s.69-1.21,.86-1.9c.77-3.05,1.53-6.1,2.3-9.15,.41-1.65,.83-3.36,.52-5.03-.24-1.31-.92-2.5-1.58-3.67-.92-1.61-1.84-3.23-2.77-4.84-.69-1.21-1.45-2.49-2.7-3.13-1.87-.96-4.2-.11-5.82,1.22-2.2,1.8-3.35,4.18-6.13,5.1-.89,.29-1.78,.59-2.67,.88-.39,.13-.77,.26-1.17,.34-.46,.1-.94,.15-1.41,.19-2.29,.21-4.58,.66-6.84,.89-2.4,.25-5.04-.39-7.46-.43-1.26-.02-2.57-.08-3.7-.63-2.04-1-1.37-4.48-3.62-4.71-2.15-.22-.66,2.51-.03,3.57,1.26,2.14,3.24,3.02,5.53,3.74Z"/><path class="cls-3" d="M114.17,72.46c.14,1.54,.4,3.06,.78,4.55,.75,2.92,1.97,5.7,3.18,8.47,.21,.49,.43,.98,.8,1.36,.79,.83,2.07,.95,3.22,1.01,1.58,.08,3.17,.16,4.75,.25,4.18,.22,7.63,.28,11.72-.61,.65-.14,1.74-.33,2.24-.77,.54-.47,.82-.62,.98-1.01,.83-1.98,1.27-4.08,1.73-6.18s.57-4.42,.24-6.23"/><path class="cls-5" d="M113.61,70.21c-.25,1.09-.12,2.27,.37,3.27,.2-.95,.91-1.74,1.75-2.23s1.79-.75,2.74-.97c7.11-1.65,14.58-1.99,21.71-.46,.98,.21,2.13,.49,2.67,1.41,.51,.87,.81,1.87,.86,2.88,.66,.16,1.39,.04,1.96-.34,.12-1.04,.4-2.99-.42-3.85-.54-.57-1.97-.71-2.69-.9-2.28-.59-4.62-.99-6.97-1.21-4.69-.44-9.43-.17-14.07,.6-2.67,.44-5.31,1.05-7.91,1.8Z"/><path class="cls-4" d="M114.22,69.9c-.13,1.22-.11,2.45,.08,3.66-.19-.67-1.63-.79-2.22-.91-.88-.17-1.77-.24-2.67-.22-1.45,.03-3.23,.16-4.3,1.23,.34-.34-.02-1.94-.12-2.35-.04-.2-.34-.78-.17-.96,.14-.15,.93,.06,1.14,.08,1.76,.16,3.54,.06,5.29-.14,.99-.11,1.98-.25,2.97-.39Z"/><path d="M92.72,79.15c.03,.07,.07,.14,.14,.18,.06,.03,.13,.04,.2,.04,2.23,.04,4.47-.38,6.52-1.25,.08-.03,.17-.07,.22-.14,.07-.08,.1-.19,.12-.29,.12-.65-.02-1.35-.37-1.91-.09-.15-.2-.29-.33-.4-.32-.26-.74-.31-1.15-.35-.98-.1-1.96-.19-2.94-.12-.72,.05-2.53,.19-2.8,.97-.34,.99-.03,2.36,.4,3.27Z"/><path id="glas-2" class="cls-51" d="M105.13,73.6c.16,.39,.13,.82,.09,1.24-.36,4.17-.8,8.55-3.14,12.03-.55,.81-1.21,1.58-2.09,2-.6,.29-1.28,.41-1.94,.49-1.71,.21-3.43,.24-5.15,.26-2.06,.03-4.11,.05-6.17,.08-1.62,.02-3.41-.02-4.61-1.1-.96-.86-1.32-2.2-1.63-3.45-.71-2.87-1.43-5.74-2.14-8.61-.29-1.17-.32-2.25,.47-3.15,.44-.51,1.1-.75,1.73-.96,6.27-2.05,12.97-2.46,19.56-2.1,1.12,.06,2.27,.15,3.27,.66s1.82,1.53,1.76,2.65c-.02,.19,.18,.02,0-.03Z"/><path class="cls-9" d="M76.03,76.37c.8,0,1.61-.1,2.38-.31-.49-1.1,.97-3.17,.97-3.17,.46-.29,.99-.42,1.51-.54,6.68-1.59,13.64-2.51,20.41-1.41,.82,.13,1.66,.31,2.36,.75s1.24,1.24,1.17,2.06c.26-.08,.51-.16,.77-.24-.07-.75-.2-1.5-.39-2.24-.07-.28-.16-.56-.34-.77-.3-.34-.78-.42-1.22-.49-4.63-.68-9.32-1.14-13.99-.9-3.12,.16-6.06,.82-9.22,1.56-1.16,.27-3.34,.77-4.2,1.63-.39,.4-.2,3.01-.2,4.05Z"/><path class="cls-50" d="M102.47,86.2c.14-.29,.28-.57,.43-.85,.27-.51,.51-1.21,.08-1.59-2.86,1.36-5.8,4.25-8.97,4.71-2.18,.31-4.56,.43-6.77,.45-1.94,.02-4.02-.17-5.52-1.4-.4-.32-1-.71-1.34-.32-.12,.14-.14,.33-.16,.51-.24,2.41-.49,4.82-.73,7.22-.3,2.95-.52,6.19,1.21,8.6,.52,.72,1.24,1.35,2.11,1.54,.88,.19,1.8-.09,2.63-.44,3.01-1.3,5.42-3.65,7.77-5.94,1.93-1.93,4.11-3.64,5.78-5.81,1.49-1.94,2.39-4.42,3.48-6.67Zm-1.48,2.58l.37-1.31c-.09,.45-.2,.89-.37,1.31Z"/><path class="cls-2" d="M78.35,76.1c.71,2.87,1.43,5.74,2.14,8.61,.31,1.25,.67,2.59,1.63,3.45,1.21,1.08,2.99,1.12,4.61,1.1,2.06-.03,4.11-.05,6.17-.08,1.72-.02,3.44-.05,5.15-.26,.67-.08,1.34-.2,1.94-.49,.88-.42,1.55-1.19,2.09-2,2.34-3.48,2.77-7.85,3.14-12.03,.04-.42,.07-.85-.09-1.24"/><path class="cls-15" d="M103.06,84.84c1.05-.89,1.25-2.39,1.47-3.75,.22-1.36,.64-2.87,1.87-3.49,3.25,2.33,5.52,5.97,6.2,9.9,.13,.74,.2,1.5,.51,2.18,1,2.2,3.16,3.38,5.4,4.31,1.53,.64,2.39,2.55,1.85,4.12-.16,.46-.44,.91-.86,1.16-.88,.55-2.02,.14-3-.21-2.37-.84-4.9-1.22-7.42-1.12-.75,.03-1.5,.11-2.19,.4-.8,.34-1.48,.97-2.33,1.2-1.42,.38-2.91-.5-3.83-1.65-1.23-1.51-1.79-3.54-1.53-5.47,.52-3.77,3.87-6.55,4.97-10.19-.76,1.68-1.05,2.4-1.86,4.05"/><path class="cls-14" d="M104.58,99.55c.13-.04,.26-.1,.39-.15-.18-.25-.36-.5-.51-.77-1.11-2-.88-4.45-.61-6.72,.55-4.58,1.16-9.16,1.81-13.72-.67,.75-.96,1.87-1.13,2.91-.22,1.36-.42,2.86-1.47,3.75l-.74,1.45c.28-.56,.49-1.01,.69-1.43-1.43,2.49-3.41,4.75-3.79,7.57-.26,1.93,.3,3.96,1.53,5.47,.93,1.14,2.41,2.03,3.83,1.65Z"/><path class="cls-26" d="M101.32,98.61c-.77-.48-1.18-1.89-1.35-2.71-.21-.99-.38-1.79-.24-2.84,.29-2.2,1.26-4.28,2.37-6.18,1.06-1.83,2.46-3.61,2.62-5.72-.33,.85-.67,1.86-1.2,2.6-.46,.64-.99,1.25-1.44,1.92-.69,1.01-1.33,1.91-1.91,2.99-.64,1.2-1.15,2.48-1.33,3.84-.3,2.3,.52,4.86,2.48,6.08Z"/><path class="cls-25" d="M109.95,158.26c-4.79-1.48-9.63-2.98-13.97-5.49-1.62-.94-3.2-2.05-4.23-3.61,.48,.99,1.3,1.76,2.14,2.47,1.91,1.61,3.91,3.2,5.91,4.69,2.47,1.83,4.88,3.23,7.92,3.73,.44,.07,4.76,1.2,4.84,.91,.18-.68,.28-1.47,.12-2.16-.78,.03-1.99-.32-2.73-.54Z"/></g><g id="Skjorta_blommig"><g class="cls-16"><path class="cls-17" d="M78.96,283.07c-4.53-.59-9.14,.17-13.64-.55-4.12-.66-8.18-1.7-12.13-3.04-8.06-2.74-15.66-6.73-22.78-11.38-10.95-7.16-20.78-15.88-30.57-24.57-.82-.73-1.69-1.56-1.81-2.65-.1-.91,.37-1.77,.8-2.58,8.51-16.1,8.03-36.41,19.11-50.88,7.63-9.97,19.62-15.54,31.48-19.68,8.89-3.1,18.02-5.62,26.6-9.56,1.73-.79,7.1-4.81,8.49-2.77,.7,1.02,.02,5,.08,6.32,.19,4.64-.46,9.89,.69,14.37,1.45,5.64,3.56,11.1,5.6,16.55,1.43,3.82,3.27,7.69,4.35,11.62,.8,2.9,.29,5.78,1.46,8.68,1.29,3.2,2.58,6.39,3.87,9.59,1.57,3.88,3.14,7.79,3.98,11.9,1.02,4.99,2.01,12.07-.22,16.79-2.56,5.41-3.29,10.79-5.08,16.44-1.69,5.35-3.54,10.68-4.62,16.19-.11,.55-.06,.56-.56,.65-.45,.08-6.67-.64-7.64-.65l-7.45-.78Z"/><path class="cls-13" d="M79.76,182.1c-1.05,1.04-1.73,2.38-2.44,3.68-2,3.62-4.59,7.1-8.26,9.02-.22,.11-.47,.22-.7,.14-.28-.1-.39-.43-.46-.71-.9-3.89,.11-7.95,1.36-11.74,1.13-3.41,2.45-6.75,3.96-10,.69-1.49,1.44-2.99,2.5-4.24s2.49-2.27,4.11-2.56c.98-.17,2.16,.04,2.64,.91,.23,.42,.25,.91,.27,1.39,.14,3.27,.41,6.54,.82,9.79,.06,.5,.53,1.99,.32,2.42-.31,.63-.19,.22-.81,.49-1.22,.51-2.24,.36-3.32,1.43Z"/><path class="cls-13" d="M83.57,177.77c-.61-3.08-.53-1.34-1.22-4.4-.09-.39-.22-.84-.59-1-.23-.1-.49-.06-.73-.02-2.3,.39-4.61,1.1-6.42,2.58-1.6,1.3-3.7-.5-.97,.72,3.12,1.39,6.58,2.08,9.94,2.12Z"/><path class="cls-17" d="M83.35,168.05c-.41,1.33-.83,2.68-.93,4.08-.09,1.15,.04,2.3,.21,3.43,1.57,10.23,7.06,19.37,10.39,29.17,1.29,3.81,2.25,7.72,3.21,11.62,2.47,10.04,4.94,20.08,7.41,30.12,.54-.91,.46-2.04,.36-3.09-.47-5.19-.95-10.38-1.42-15.56-.34-3.74-.69-7.49-1.54-11.14-.71-3.01-1.76-5.93-2.63-8.9-5.14-17.56-3.71-36.31-6.15-54.45-.25-1.88-.49-5.66-2.19-6.65-3.22,6.38-4.59,14.52-6.7,21.38Z"/><path class="cls-21" d="M84.38,168.05c-.41,1.33-.83,2.68-.93,4.08-.09,1.15,.04,2.3,.21,3.43,1.57,10.23,7.06,19.37,10.39,29.17,1.29,3.81,2.25,7.72,3.21,11.62,2.47,10.04,4.94,20.08,7.41,30.12,.54-.91,.46-2.04,.36-3.09-.47-5.19-.95-10.38-1.42-15.56-.34-3.74-.69-7.49-1.54-11.14-.71-3.01-1.76-5.93-2.63-8.9-5.14-17.56-3.71-36.31-6.15-54.45-.11-.8-.08-1.76-.33-2.53-.3-.9-1.01-1.79-1.49-2.61-.16-.28-.33-.57-.42-.88-.06-.2-.09-.42-.21-.59s-.39-.26-.55-.12c-.14,.12-.11,.35-.02,.51,.85,1.55-.52,2.61-1.06,4.01-.71,1.85-1.25,3.78-1.77,5.68-1.04,3.74-1.82,7.57-3.05,11.26Z"/><path class="cls-12" d="M84.38,168.05c-.41,1.33-.83,2.68-.93,4.08-.09,1.15,.04,2.3,.21,3.43,1.57,10.23,7.06,19.37,10.39,29.17,1.29,3.81,2.25,7.72,3.21,11.62,2.47,10.04,4.94,20.08,7.41,30.12,.54-.91,.46-2.04,.36-3.09-.47-5.19-.95-10.38-1.42-15.56-.34-3.74-.69-7.49-1.54-11.14-.71-3.01-1.76-5.93-2.63-8.9-5.14-17.56-3.71-36.31-6.15-54.45-.14-1.05-.13-2.13-.64-3.04-.64-1.16-1.26-2.27-1.69-3.53-.03-.08-.05-.16-.11-.21-.1-.09-.26-.07-.37,0s-.18,.19-.26,.3c.29,.17,.43,.52,.45,.85,.09,1.61-1.23,2.77-1.73,4.18-.63,1.79-1.15,3.62-1.65,5.45-.97,3.57-1.81,7.19-2.9,10.73Z"/><path class="cls-17" d="M212.08,160.55c15.84,6.15,32.23,13.12,43,26.27,2.55,3.12,4.79,6.66,5.48,10.63,.83,4.81-.67,9.7-2.5,14.22-7.2,17.88-19.73,33.56-35.58,44.52-23.13,16-51.75,21.4-79.43,26.34-6.62,1.18-13.24,2.36-19.91,3.18-5.31,0-10.67,.69-16.02,.7-4.7,0-8.37-1.15-12.9-2.59-.78-.25-1.63-.56-2.02-1.28-.28-.52-.24-1.15-.2-1.74,1.22-15.39,6.35-30.14,12.57-44.16,5.9-13.29,8.2-27.81,15.43-40.65,3.48-6.17,7.79-11.83,12.08-17.47,2.2-2.9,4.43-5.82,7.27-8.1,2.18-1.75,4.66-3.08,6.96-4.68,3.52-2.44,6.58-5.48,9.61-8.51,2.08-2.07,4.16-4.14,6.24-6.22,1.66-1.65,3.54-4.37,5.61-5.45,3.29-1.71,9.38,2,12.54,3.13,10.65,3.79,21.24,7.74,31.78,11.83Z"/><path class="cls-17" d="M214.14,160.55c15.84,6.15,32.23,13.12,43,26.27,2.55,3.12,4.79,6.66,5.48,10.63,.83,4.81-.67,9.7-2.5,14.22-7.2,17.88-19.73,33.56-35.58,44.52-23.13,16-51.75,21.4-79.43,26.34-6.62,1.18-13.24,2.36-19.91,3.18-5.31,0-10.67,.69-16.02,.7-4.7,0-8.37-1.15-12.9-2.59-.78-.25-1.63-.56-2.02-1.28-.28-.52-.24-1.15-.2-1.74,1.22-15.39,6.35-30.14,12.57-44.16,5.9-13.29,8.2-27.81,15.43-40.65,3.48-6.17,7.79-11.83,12.08-17.47,2.2-2.9,4.43-5.82,7.27-8.1,2.18-1.75,4.66-3.08,6.96-4.68,3.52-2.44,6.58-5.48,9.61-8.51,2.08-2.07,4.16-4.14,6.24-6.22,1.66-1.65,3.54-4.37,5.61-5.45,3.29-1.71,9.38,2,12.54,3.13,10.65,3.79,21.24,7.74,31.78,11.83Z"/><path class="cls-13" d="M143.23,184.27c-10.62,14.17-17.18,30.9-23.61,47.4-6.19,15.89-13.72,33.66-12.3,50.88,.2,2.4,.07,3.82,.07,3.82-1.59,.21-5.56-.14-7.11-.47-.49-.1-7.36-1.88-7.35-1.91,.76-4.37,1.58-8.75,2.18-13.23,.7-5.19,2.57-10.13,4.43-15.03,3.39-8.93,6.77-17.86,10.16-26.79,1.38-3.64,2.76-7.28,4.14-10.93,2.48-6.55,4.18-13.14,7.5-19.39,2.78-5.24,6.07-10.72,9.62-15.46,3.77-5.04,8.64-9.59,13.04-14.11,.49-.5,1.09-1.04,1.78-.94,.31,.05,.59,.23,.86,.4,3.4,2.24,6.12,2.98,3.47,7-2.02,3.07-4.53,5.92-6.89,8.75Z"/><path class="cls-19" d="M142.2,184.27c-10.62,14.17-17.18,30.9-23.61,47.4-6.19,15.89-13.72,33.66-12.3,50.88,.2,2.4,.02,3.88,.02,3.88-1.59,.21-5.52-.21-7.06-.54-.49-.1-7.36-1.88-7.35-1.91,.76-4.37,1.58-8.75,2.18-13.23,.7-5.19,2.57-10.13,4.43-15.03,3.39-8.93,6.77-17.86,10.16-26.79,1.38-3.64,2.76-7.28,4.14-10.93,2.48-6.55,4.18-13.14,7.5-19.39,3.94-7.42,8.8-14.15,13.19-21.28,.11-.18,.23-.37,.4-.49,.32-.24,.76-.24,1.16-.22,2.32,.1,4.63,.2,6.95,.31,1.29,.06,2.62,.11,3.84-.31,1.09-.38,2.14-1.13,3.28-.96-2.4,2.8-4.57,5.76-6.93,8.6Z"/><path class="cls-17" d="M138.58,176.63c-1.18,.02-2.34,.12-3.47,.44,.77-.22,2.37-3.04,2.98-3.72,1.13-1.24,2.34-2.41,3.62-3.49,1.34-1.13,1.92-1.58,3.53-.74,1.5,.78,3.03,1.74,4.32,2.83,.42,.35,1.62,1.23,1.6,1.86-.02,.7-1.66,2.13-1.97,2.98-.69-.85-2.02-.56-3.1-.34-2.46,.49-5.01,.14-7.51,.19Z"/><path class="cls-13" d="M138.58,176.63c-1.18,.02-2.34,.12-3.47,.44,.77-.22,2.37-3.04,2.98-3.72,1.13-1.24,2.34-2.41,3.62-3.49,1.34-1.13,1.92-1.58,3.53-.74,1.5,.78,3.03,1.74,4.32,2.83,.42,.35,1.62,1.23,1.6,1.86-.02,.7-1.66,2.13-1.97,2.98-.69-.85-2.02-.56-3.1-.34"/><path class="cls-13" d="M163.5,144.23c-1.57,3.49-3.58,6.79-5.91,10.23-5.1,7.54-11.78,12.14-18.55,17.92,5.05,.14,10.03,3.6,13.07,7.42,.9,1.13,1.7,2.38,2.75,3.35,2.36,2.19,5.65,2.71,8.75,3.03,2.48,.26,5.52,.89,6.25,3.45-.39-1.38,.87-4.79,1.11-6.27,.37-2.29,.72-4.59,1.03-6.89,1.23-8.96,3-17.95,3.47-27.08,.05-.96,.09-1.93-.04-2.88-.41-3.09-2.51-5.45-3.9-8.06-.61-1.14-1.3-2.24-1.77-3.46-.29-.75-.5-1.55-.95-2.2s-1.24-1.12-1.96-.88c-.51,4.62-1.68,8.58-3.35,12.31Z"/><path class="cls-17" d="M162.46,141.31c-1.57,3.25-3.58,6.32-5.91,9.52-2.3,3.16-4.71,6.23-7.23,9.22-.81,.96-6.54,8.57-7.52,8.3,3.54,.97,6.89,3.29,9.27,6.08,.9,1.05,1.7,2.21,2.75,3.12,2.36,2.03,5.65,2.52,8.75,2.82,2.48,.24,5.52,.83,6.25,3.21-.39-1.29,.87-4.46,1.11-5.83,.37-2.13,.72-4.27,1.03-6.41,1.23-8.34,3-16.71,3.47-25.21,.05-.89,.09-1.8-.04-2.68-.41-2.87-2.51-5.08-3.9-7.51-.61-1.06-1.3-2.09-1.77-3.22-.29-.7-.5-1.44-.95-2.05s-1.24-1.05-1.96-.82c-.51,4.3-1.68,7.99-3.35,11.46Z"/><path class="cls-17" d="M80.08,157.52c-2.74,4.54-4.69,9.5-6.62,14.44-2.07,5.29-4.16,10.64-4.9,16.27,1,.98,2.84,.42,3.59-.77,.75-1.19,.68-2.7,.46-4.09-.22-1.39-.57-2.79-.3-4.17,.35-1.83,1.76-3.32,3.37-4.24,1.62-.93,3.45-1.38,5.25-1.87,1.1-.3,2.27-.67,2.97-1.58,.43-.56,.62-1.27,.81-1.95,1.04-3.86,2.07-7.71,3.11-11.57,.89-3.33,2.77-7.51,2.73-10.88-3.73-.51-8.82,7.69-10.47,10.41Z"/><path class="cls-11" d="M240.82,179.74c3.44-1.43,7.69-.67,10.43,1.86-3.96,.33-7.55,2.7-10.08,5.77-2.53,3.07-4.11,6.8-5.41,10.56-5.61,16.26-6.39,33.8-5.55,50.98,.06,1.29-.03,2.89-1.2,3.44-2.28-20.63-.5-41.71,5.21-61.66,.91-3.19,1.98-6.46,4.21-8.92s5.91-3.9,8.95-2.58c1.25-.26,1.97-.69,2.92,.16s1.6,1.98,2.23,3.09c-1.24-.67-2.87-.54-4,.31"/></g></g></svg>