<?xml version="1.0" encoding="UTF-8"?><svg id="SAJA" xmlns="http://www.w3.org/2000/svg" xmlns:xlink="http://www.w3.org/1999/xlink" viewBox="0 0 262 280"><defs><style>.cls-1{fill:none;}.cls-2{fill:#f2f2f2;}.cls-3{fill:#ebebeb;}.cls-4{fill:#f1dfd1;}.cls-5{fill:#fbecdf;}.cls-6{fill:#fdffff;}.cls-7{fill:#b6dec0;}.cls-8{fill:#b1bcbc;}.cls-9{fill:#a7876b;}.cls-10{fill:#d57666;}.cls-11{fill:#dc8c7f;}.cls-12,.cls-13,.cls-14{fill:#d5a38a;}.cls-15{fill:#e0e0e0;}.cls-16{fill:#e29389;}.cls-17{fill:#ddb4a0;}.cls-18{fill:#251a1e;}.cls-19{fill:#1e2337;}.cls-20{fill:#1c1819;}.cls-21{fill:#724534;}.cls-22{fill:#2c3242;}.cls-23{fill:#5a5e6b;}.cls-24{fill:#61261f;}.cls-25{fill:url(#Namnlös_övertoning_2702-3);}.cls-25,.cls-26,.cls-27,.cls-28,.cls-29,.cls-30,.cls-31,.cls-32,.cls-33,.cls-14{opacity:.6;}.cls-26{fill:url(#Namnlös_övertoning_2702-4);}.cls-27{fill:url(#Namnlös_övertoning_2702-2);}.cls-34{fill:url(#Namnlös_övertoning_2702-5);}.cls-34,.cls-35{opacity:.4;}.cls-35{fill:url(#Namnlös_övertoning_2702-6);}.cls-28{fill:url(#Namnlös_övertoning_373-4);}.cls-29{fill:url(#Namnlös_övertoning_373-3);}.cls-30{fill:url(#Namnlös_övertoning_373-2);}.cls-31{fill:url(#Namnlös_övertoning_2702);}.cls-13{opacity:.2;}.cls-32{fill:url(#Namnlös_övertoning_552);}.cls-33{fill:url(#Namnlös_övertoning_373);}</style><linearGradient id="Namnlös_övertoning_373" x1="107" y1="172.83" x2="176.95" y2="172.83" gradientUnits="userSpaceOnUse"><stop offset="0" stop-color="#c3997d"/><stop offset="1" stop-color="#e7c5a3"/></linearGradient><linearGradient id="Namnlös_övertoning_373-2" x1="105.7" y1="100.59" x2="143.66" y2="100.59" xlink:href="#Namnlös_övertoning_373"/><linearGradient id="Namnlös_övertoning_373-3" x1="99.94" y1="122.81" x2="148.68" y2="122.81" xlink:href="#Namnlös_övertoning_373"/><linearGradient id="Namnlös_övertoning_552" x1="102.92" y1="99.14" x2="107.62" y2="99.14" gradientUnits="userSpaceOnUse"><stop offset="0" stop-color="#c3997d"/><stop offset="1" stop-color="#997756"/></linearGradient><linearGradient id="Namnlös_övertoning_2702" x1="154.66" y1="133.79" x2="165.15" y2="133.79" gradientUnits="userSpaceOnUse"><stop offset="0" stop-color="#bf9072"/><stop offset="1" stop-color="#ddaf8f"/></linearGradient><linearGradient id="Namnlös_övertoning_373-4" x1="106.44" y1="127.39" x2="124.58" y2="127.39" xlink:href="#Namnlös_övertoning_373"/><linearGradient id="Namnlös_övertoning_2702-2" x1="120.22" y1="134.76" x2="131.63" y2="134.76" xlink:href="#Namnlös_övertoning_2702"/><linearGradient id="Namnlös_övertoning_2702-3" x1="116.1" y1="157.47" x2="158.71" y2="157.47" xlink:href="#Namnlös_övertoning_2702"/><linearGradient id="Namnlös_övertoning_2702-4" x1="183.05" y1="119.29" x2="186.44" y2="119.29" xlink:href="#Namnlös_övertoning_2702"/><linearGradient id="Namnlös_övertoning_2702-5" x1="184.9" y1="108.04" x2="189.86" y2="108.04" xlink:href="#Namnlös_övertoning_2702"/><linearGradient id="Namnlös_övertoning_2702-6" x1="191.91" y1="98.5" x2="193.76" y2="98.5" xlink:href="#Namnlös_övertoning_2702"/></defs><g id="BG-3"><circle class="cls-7" cx="131.67" cy="130.77" r="129"/></g><g id="SAJA-2"><path class="cls-4" d="M116.68,148.56c.06-.02,.26,.44,.17-.02,0,3.49,.3,7.7-1.31,10.73-1.72,3.24-4.88,3.12-7.49,4.88-2.74,1.84-2.51,6.89-2.54,9.99-.06,4.8,2.27,9.59,5.42,13.21,1.49,1.7,2.88,3.17,4.74,4.27,2.94,1.72,5.17,4.13,8.33,5.56,4.38,1.98,9.41,2.13,14.16,2.66,4.68,.52,8.38,.11,12.97-.8,11.08-2.2,20.41-9.11,26.68-18.3,2.02-2.96,4.18-5.33,5.11-8.84,.47-1.74,1.59-4.76,.6-6.4-.83-1.38-2.93-1.45-4.4-1.99-1.78-.65-3.43-1.88-4.49-3.46-2.4-3.58-3.02-7.89-2.58-12.16,.09-.92,.06-1.69,.31-2.52-1.43,2.36-4.1,4.64-6.48,6.25-5.66,3.83-10.78,7.17-17.53,8.91-4.82,1.24-10.31,2-15.2,.67-3.64-.99-6.7-3.18-9.69-5.39-3.04-2.24-5.56-4.02-6.71-7.41-.07,.02,.9-.42-.07,.17Z"/><path class="cls-33" d="M116.91,148.29c2.06,1.41,3.7,4.39,5.16,6.43,2.05,2.87,2.49,4.45,1.95,7.94-.46,2.99-.89,5.87-.85,9.05,.04,3.38,1.64,5.25,2.69,8.3,.79,2.31-.51,1.7-1.59,3.15-2.97,4,4.49,7.21,7.18,8.12,3.24,1.1,6.85,1.25,10.26,1.29,8.78,.1,15.75-4.07,23.06-8.47,3.66-2.21,6.26-5.35,10.08-7.33,.71-.37,1.31-.83,2.09-.89,.24,1.74-1.16,3.26-1.88,4.73-.94,1.91-1.71,3.66-3.1,5.33-3.63,4.34-8.38,7-13.84,8.46-3.36,.9-7.03,2.32-10.49,2.6-3.74,.31-7.33,.46-11.08,.34-3.7-.11-7.11-1.12-10.52-2.44-2.57-.99-5.47-1.75-7.71-3.44-7.31-5.53-12.95-14.79-10.85-24.07,.43-1.89,.71-3.95,2.54-4.71,1.51-.63,3.26-.56,4.56-1.95,1.62-1.75,1.3-4.06,1.52-6.26s.85-4.39,.85-6.17Z"/><path class="cls-5" d="M121.16,46.5c-5.18,5.73-10.64,12.35-12.6,19.94-2.3,8.92-1.59,18.73-2.63,27.8-.51,4.44,.02,8.93,.01,13.39,0,2.68-.13,5.37,.03,8.04,.36,5.87,2.27,11.59,3.93,17.2,.93,3.15,2.37,6.21,3.56,9.32,.3,.78,.6,1.62,.9,2.38,1,2.5,2.5,4.53,4.09,6.66,1.92,2.57,3.8,5.17,5.93,7.58,1.61,1.82,3.37,3.22,5.35,4.49,1.77,1.13,3.74,2.46,5.61,3.32,3.72,1.71,7.65,.2,11.37-.66,3.95-.92,7.77-2.01,10.77-4.91,1.9-1.84,3.99-3.59,5.77-5.52,3.63-3.93,8.05-7.8,11.02-12.07,3.88-5.57,5.94-12.89,6.98-19.54,1.23-7.94,3.24-15.78,4.57-23.65,1.03-6.1,.93-12.38,1.71-18.47,.72-5.54,.68-10.5-2.6-15.33-3.37-4.97-8.75-10.86-14.31-13.07-3.69-1.46-7.45-2.47-11.41-2.41-3.73,.05-6.32,.62-10.04-.48-3.39-1-6.23-1.61-9.8-1.64-4.26-.03-8.15-2.14-12.39-2.61-2.46-.27-5.66-.89-7.72,.65,.12-.02,.24,0,.36,.06,.08,.24-.11,.27,1.51-.46Z"/><path class="cls-30" d="M126.35,46.88c-.61-.25-1.19-.56-1.76-.89-1.9-.17-3.88-.15-5.31,.92,.12-.02,.24,0,.36,.06,.08,.24-.11,.27,1.51-.46-5.18,5.73-10.64,12.35-12.6,19.94-2.3,8.92-1.59,18.73-2.63,27.8-.51,4.44,.02,8.93,.01,13.39,0,2.68-.13,5.37,.03,8.04,.36,5.87,2.27,11.59,3.93,17.2,.93,3.15,2.37,6.21,3.56,9.32,.3,.78,.6,1.62,.9,2.38,1,2.5,2.5,4.53,4.09,6.66,.99,1.33,1.98,2.67,2.99,3.99,.54,.06,1.09,.08,1.65,.01-4.97-7.06-7.2-16-6.13-24.57,.31-2.48,.88-4.95,.66-7.44-.36-3.92-2.66-7.43-3.32-11.31-.66-3.88,1.57-8.9,5.5-8.67-1.64-.81-3.27-1.61-4.91-2.42-1.14-5.92,2.75-12.39,8.51-14.17-5.88-2.87-8.35-11.09-5.03-16.73,2.07-3.52,5.75-5.71,9.31-7.71,3.66-2.06,7.29-3.74,11.25-5.11,3.4-1.18,5.97-.89,4.08-4.35-3.12-5.72-11.71-3.82-16.67-5.87Z"/><path class="cls-9" d="M171.01,105.04c-1.64-.27-2.71,.2-4.24,.79s-3.27,1.14-4.96,1.14c-1.28,0-2.54,.06-3.81,.06,1.83,.32,3.6,.89,5.52,.63,1.88-.26,3.57-.99,5.32-1.73,.95-.4,1.93-.79,2.96-.83-.94-.12-1.92-.12-2.91-.12"/><path class="cls-29" d="M145.62,81.15c-.91,9.71-2.1,19.21-2.93,28.86-.85,9.84-2.04,19.1-2.06,29.03,0,4.85-.26,9.65-.02,14.68,.23,4.71,1.05,9.18,0,13.67-1.53,6.53,3.33,34.85-1.75,36.96-5.73,2.39-25.6-9.41-29.62-12.8-9.17-7.73-9.7-13.88-9.13-24.93,3.34-.87,12.2-3.58,14.45-5.9,2.81-2.9,1.93-10.16,.8-12.9-4.19-10.15-7.7-19.32-9.2-29.8-1.61-11.26-.41-22.27,.61-34.03,.96-11.01,2.51-28.21,8.74-37.6,5.45-8.21,24.89-6.43,30.78,.95,5.41,6.79,.08,25.96-.66,33.82Z"/><path class="cls-14" d="M113.14,100.36c.23,.19,.5,.36,.8,.51,1.06,.5,1.71,1.59,2.78,2.09,.69,.32,1.4,.56,2.11,.73,1.42,.34,2.87,.37,4.29,.67-.62-.29-1.39-.41-2.02-.66-1.11-.43-2.28-.77-3.29-1.32-1.2-.65-2.8-1.01-3.27-2.44s-.76-3.14-.2-4.53c.76-1.87,2.04-3.85,4.08-4.46,.25-.07,1.15-.15,1.15-.49,0-.47-1.46-.6-1.78-.66-1.33-.24-2.55-.2-3.84,.19-1.52,.46-3.04,1.36-3.46,3-.26,1-.07,1.88,.23,2.84,.25,.81,.4,1.88,.87,2.59,.5,.76,.93,1.43,1.55,1.95Z"/><path class="cls-9" d="M117.06,101.6c-.22-.16-.45-.31-.7-.43-.52-.24-1.01-.13-1.56-.08,3.12,2.36,7.03,3.67,10.95,3.67-1.86-.33-3.69-.85-5.44-1.54-.86-.34-1.71-.73-2.54-1.15-.25-.13-.48-.3-.71-.46Z"/><path class="cls-18" d="M127.41,103.65c.79-.43,1.44-1.13,1.74-2.09,.12-.39,.36-1.32,.08-1.68-.32-.42-1.58-.64-2.08-.77-1.42-.38-2.9-.51-4.36-.37-.3,.03-.62,.07-.88,.22-.99,.57-.12,2.86,.36,3.57,1.16,1.71,3.48,2.01,5.14,1.12Z"/><path class="cls-21" d="M126.54,98c-2.59-.79-5.42-.74-7.99,.12-.9,.3-1.58,.86-2.39,1.31-.68,.38-1.43,.87-1.36,1.76,.52,.08,.85-.4,1.36-.45,.71-.07,1.42-.4,2.03-.83,.51-.36,1.17-.3,1.79-.53,1.65-.61,3.62-.71,5.35-.51,1.41,.16,2.8,.56,4.08,1.16,.66,.31,1.29,.67,1.89,1.08,.5,.34,1.1,1.09,1.65,1.26-.53-1.05-1.88-2.01-2.84-2.66-1.1-.75-2.3-1.33-3.57-1.72Z"/><path class="cls-19" d="M124.58,98.44c-1.31-.1-2.64,.03-3.92,.31-1.24,.27-2.65,.62-3.68,1.37-.71,.52-1.62,.67-2.49,.66,.46,0,.9,.27,1.35,.33s.9-.2,1.28-.39c1.06-.54,2.16-.92,3.31-1.22,.44-.11,.87-.17,1.31-.27,.46-.11,.92-.23,1.39-.28,.73-.08,1.47-.1,2.2-.05,.57,.04,1.14,.12,1.7,.24,1.93,.43,3.84,1.35,5.3,2.7-2.4-1.76-4.7-3.15-7.75-3.39Z"/><path d="M125.58,97.65c3.62,.67,6.97,2.79,9.53,5.43-2.69-2.62-6.14-4.49-9.85-5.09-1.72-.28-3.7-.35-5.39,.11-.73,.2-1.43,.53-2.11,.86-.64,.3-1.35,.51-1.96,.89-.48,.3-1.08,.31-1.63,.22-.32-.05-.64-.15-.97-.13,.46-.06,.93-.02,1.39-.11,1-.19,1.73-.92,2.64-1.3,3.27-1.36,5.63-1.39,8.35-.88Z"/><path class="cls-12" d="M136.03,95.96c0-1.15,.32-2.48-.71-3.13-.76-.48-2-.69-2.88-1.17-2.01-1.1-3.87-2.26-6.02-2.94s-4.63-1.4-6.85-1.43c-1.47-.02-2.98,.18-1.26,1.79,.76,.72,1.92,1.01,2.88,1.36,1.63,.6,3.23,1.28,4.84,1.9,2.21,.86,4.48,1.69,6.6,2.71,1.2,.57,2.47,.61,3.4,.91Z"/><path class="cls-24" d="M119.13,90.62c-2.95,0-5.35,.73-8.17,1.61-1.84,.57,.67-1.69,1-1.96,1.31-1.08,2.93-2.55,4.63-2.86,2.04-.37,4.21,.03,6.19,.53,.91,.23,1.9,.44,2.78,.78,.98,.38,1.7,1.15,2.65,1.59,.72,.33,1.52,.4,2.3,.56,1.43,.29,2.63,1.21,2.35,2.84,.51-.14,.9-.61,.96-1.13,.07,.58,.16,1.23,.61,1.6,.45,.38,1.09,.16,1.4-.26,.36,.33,.63,.86,.72,1.35,.1,.55-.1,1.2-.61,1.44-.46,.22-1,.05-1.48-.12-2.12-.75-4.23-1.51-6.35-2.26-2.27-.81-4.23-2.04-6.44-2.92-.82-.33-1.66-.67-2.54-.78Z"/><path class="cls-12" d="M155.13,93.33c-1.3,.44-2.62,1.56-3.41,2.75-1.03,1.55-.26,2.84,1.52,2.05,2.63-1.16,5.25-2.96,7.73-4.55,1.36-.87,3.22-2.28,4.79-2.58-1.52-1.45-4.88,.5-6.49,1.1-2.08,.77-4,1.11-5.79,2.44"/><path class="cls-24" d="M158.01,92.81c-2.22,.78-3.88,2.21-4.52,4.45,.18-1.96,2.14-3.19,3.91-4.04,.74-.36,1.39-.72,2.17-.76,1.02-.06,1.8,.05,2.81-.37s1.95-1.04,2.99-1.42c4.07-1.52,8.36,.3,11.29,3.19,.58,.58,1.04,1.26,1.45,1.96,.27,.47,.37,1.45,.67,1.81-1.86-2.31-4.83-3.52-7.79-3.77-2.95-.24-5.91,.4-8.75,1.26-2.83,.87-5.6,1.97-8.47,2.69-.15,.04-.35,.06-.45-.07-.1-.13,0-.32,.09-.45,.59-.89,1.18-1.78,1.77-2.67-.72,.29-1.05,.69-1.27,1.23,1.11-1.41,2.45-2.35,4.1-3.05Z"/><path class="cls-1" d="M154.46,103.61c2.38-2.27,5.67-3.55,8.96-3.49,3.29,.06,6.53,1.46,8.82,3.81-2.6-1.91-5.82-2.98-9.05-2.98-3.23,0-6.46,1.04-9.07,2.94,.79-.93,1.8-1.65,2.94-2.09"/><path class="cls-21" d="M153.73,104.83c1.55-2.34,4.39-3.45,7.12-4.11,1.48-.36,3.03-.62,4.52-.3,.82,.18,1.58,.53,2.33,.89,1.42,.68,2.97,1.61,3.23,3.16-2.33-1.32-4.83-2.36-7.42-3.07-1.3-.36-2.69-.63-3.97-.22-.57,.18-1.09,.49-1.59,.81-1.29,.81-2.54,1.69-3.74,2.64"/><path class="cls-19" d="M171.97,105.41c-.65-.64-1.38-1.22-2.15-1.71-.72-.46-1.49-.71-2.22-1.1-1.61-.86-3.29-1.7-5.15-1.76-1.55-.05-3.08,.28-4.44,1.03-1.26,.69-2.62,1.73-3.81,2.5-.41,.26-3.15,2.36-3.04,2.65,.75-.43,2.96-2.01,3.65-2.56,1.01-.8,2.11-1.5,3.25-2.09,1.26-.65,2.72-1.31,4.17-1.26,1.36,.05,2.62,.7,3.76,1.45,2.01,1.33,4.02,3.02,6.61,2.75-.8-.42-1.61-.85-2.41-1.27"/><path d="M169.52,101.66c.89,.59,1.65,1.36,2.23,2.25-1.75-.42-3.13-1.74-4.78-2.46-1.76-.77-3.76-.82-5.65-.49s-3.69,1.02-5.48,1.71c2.49-1.28,5.22-2.19,8.02-2.2,1.47,0,2.94,.23,4.28,.84,1.17,.53,2.52,1.08,3.35,2.1-.77-.94-1.68-1.59-2.82-1.99"/><path class="cls-18" d="M158.55,101.84c-.65,.67-.73,1.79-.3,2.62s1.31,1.38,2.23,1.57,1.88,.04,2.77-.25c.61-.2,1.22-.49,1.61-1,.53-.69,.53-1.7,.11-2.46s-1.21-1.28-2.05-1.49-1.74-.14-2.58,.06c-.7,.17-1.4,.45-1.89,.97s-.73,1.34-.41,1.99"/><path class="cls-32" d="M105.66,83.38c-.18-.21-.38-.1-.35-.54-3.13-.9-1.88,3.43-1.71,5.13,.24,2.36,.09,4.81-.02,7.16-.24,4.91-.84,9.69-.6,14.57,.12,2.5,.37,4.56,2.6,6.05,2.14-5.18,.99-12,1.26-17.79,.14-3.01,1.19-5.62,.6-8.62-.34-1.7-1.39-6.72-3.22-6.78-.57,1.16-1.08,2.3,1.44,.84Z"/><path class="cls-20" d="M113.4,55.52c-.62,1.12-1.12,2.26-1.45,3.14-1.55,4.05-2.95,8.2-3.43,12.54-.3,2.75-.23,5.52-.34,8.29-.09,2.42-.33,4.82-.56,7.23-.54,5.66-1.09,11.33-1.63,16.99-.32-4.91-.65-9.81-.97-14.72-.18-2.67-.35-5.33-.53-8-.14-2.07-.27-4.14-.16-6.21,.41-7.31,3.94-14.1,5.02-21.35,.2-1.37,.37-2.87,1.34-3.86,.68-.69,1.67-1.03,2.3-1.76,.68-.78,.85-1.88,1.33-2.8,.53-1.02,1.98-1.64,3.01-2.05-.2,.08,3.4,3.44,3.48,3.69,.81,2.56-2.38,.68-2.34,2.31,0,.3,.29,.53,.39,.81,.17,.49-.21,1.01-.66,1.26s-.98,.33-1.44,.57c-1.31,.69-2.48,2.29-3.38,3.93Z"/><path class="cls-22" d="M116.94,33.97c.99-3.82,4.09-6.79,7.58-8.63,3.49-1.83,7.39-2.7,11.2-3.69,6.26-1.61,12.9-3.58,19.05-1.58-.8,.33-1.59,.65-2.39,.98,7.22-.14,14.47,1.55,20.89,4.86l-4.33-.48c6.72,1.64,12.02,6.66,16.97,11.48-1.19-.96-2.82-1.36-4.32-1.05,5.39,2.3,9.66,7.07,11.36,12.68-1.5-.78-3.08-1.43-4.7-1.92,3.38,1.64,6.08,4.62,7.39,8.14-.62,.01-1.23,.21-1.74,.56,.87,1.53,1.49,3.21,1.83,4.94,.23,1.15,.32,2.39-.17,3.46s-1.74,1.85-2.85,1.47c.56,.83,1.03,1.73,1.4,2.67-3.21,.12-6.52,.23-9.52-.92-4.1-1.58-6.97-5.24-10.4-7.98-1.51-1.2-3.21-2.27-5.11-2.56-1.86-.29-3.9,.14-5.52-.8-.5-.29-.93-.7-1.46-.92-.77-.31-1.63-.19-2.45-.06-2.37,.37-4.73,.75-7.1,1.12-1.22,.19-2.97-.02-3-1.25-3.36,.53-6.96-.85-9.11-3.49-1.64,1.48-4.06,3.02-5.86,1.74-.94-.67-1.59-2.05-2.73-1.91-.79,.1-1.39,.97-2.18,.9-.55-.04-.96-.52-1.33-.93-2.48-2.69-6.51-1.88-8.66-4.27-2.61-2.9-3.69-8.9-2.74-12.56Z"/><path class="cls-20" d="M186.78,75.8c.44,2.81-.13,5.66-.57,8.47-1.25,7.96-1.41,16.09-.48,24.09,.68-3.74,1.36-7.48,2.04-11.22,2.06-1.18,3.63-3.2,4.27-5.5,.43-1.54,.44-3.17,.41-4.77-.06-2.72-.26-5.45-.61-8.15,1.66-1.02,1.68-3.42,1.2-5.31-.48-1.89-1.25-3.9-.51-5.7-.58,1.41-8.01-3.46-9.24-1.25-1,1.79,3.15,7.12,3.5,9.32Z"/><path class="cls-14" d="M143.52,131.83c.65-.46,1.21-1.09,1.96-1.35,1.37-.47,2.82,.41,4.26,.5,1.78,.11,3.54-1.16,4-2.88,.46-1.72-.43-3.7-2.02-4.49,.16,2.21-1.66,4.38-3.86,4.61-.64,.07-1.29,0-1.92,.1-.96,.17-1.78,.76-2.6,1.28-1.31,.84-2.77,1.58-4.32,1.57-1.74-.01-3.21-1.28-4.29-2.52-.87-1-2.55-1.96-1.83-3.6,.4-.89,1.32-1.27,1.95-1.95,1.15-1.23-.04-1.36-1.16-.71-1.8,1.04-4.55,4.27-2.46,6.27,.75,.72,2.11,.92,3.04,1.27,1.4,.53,2.31,1.57,3.62,2.22,1.79,.78,3.98,.85,5.63-.32Z"/><path class="cls-17" d="M139.75,102.85c-.05-.13-.1-.25-.16-.37-.46-1.01-1.55-1.67-1.99-2.65,.75,1.68,1.61,3.84,1.72,5.68s.02,3.86-.33,5.6c-.67,3.35-1.35,6.79-2.71,9.99-.43,1.02-1.14,1.84-1.87,2.66-.62,.7-1.74,1.44-1.98,2.37-.06,.24,.98-.38,.99-.39,.53-.38,.79-1.07,1.24-1.53,.83-.86,1.61-1.54,2.23-2.62,.99-1.71,1.4-3.46,1.95-5.33,.51-1.74,1.07-3.4,1.29-5.23,.09-.75,.2-1.54,.24-2.31,.1-1.93,.09-4.04-.62-5.86Z"/><path class="cls-5" d="M133.63,127.96c-.17-2.03,.71-2.68,2.81-2.81,1.82-.11,3.53,.11,5.23,.51,1.61,.38,3.24,1.15,4.88,.41,1.21-.54,2.26-1.77,3.53-2.2,3.62-1.23,2.45,4.93-.53,5.59-1.61,.35-2.74-.98-4.44-.23-1.34,.6-2.39,1.69-3.82,2.05-1.84,.45-3.34-.03-4.82-1.06-1.28-.89-3.8-2.53-2.71-4.3"/><path class="cls-16" d="M128.33,141.48c-.53-.25-1.02-.57-1.46-.95-.02-.02-.02-.02,0,0,.47,1.05,1.26,1.76,2.04,2.58,.88,.92,1.76,1.85,2.64,2.77,.52,.54,1.03,1.1,1.6,1.59,.61,.51,1.39,.77,2.05,1.2s1.66,.49,2.43,.64c.85,.16,1.69,.08,2.54,.2,1.68,.24,3.41-.27,5-.74s2.98-1.08,4.33-2.02c1.16-.8,2.19-1.74,3.25-2.66,.41-.35,.91-.52,1.35-.82,.53-.37,1.01-.81,1.56-1.15,.23-.14,.48-.26,.73-.36-.82-.04-1.56,.43-2.28,.74-.57,.25-1.12,.18-1.71,.32-1.74,.41-3.46,.96-5.2,1.4-.95,.24-1.84,.51-2.82,.48-.97-.03-1.95-.1-2.92-.19-2.26-.21-4.46-.89-6.63-1.47-.84-.23-1.66-.58-2.54-.63-1.33-.07-2.73-.32-3.96-.91Z"/><path class="cls-11" d="M124.81,138.55c.4-.17,.72,.52,1,.7,1.59,1.05,3.25,1.43,5.16,1.5,1.38,.05,2.72-.26,4.1-.26,1.29,0,2.42,.36,3.58,.74,1.11,.36,2.38,.59,3.62,.53,1.24-.06,2.3-.57,3.56-.68,2.62-.23,4.9,1.47,7.63,.94,1.29-.25,2.33-.53,3.47-1.21,.95-.57,2.4-1.46,3.54-1.34-1.11,.19-2.32,1.15-3.28,1.71s-1.93,1.09-2.97,1.51c-2.62,1.05-5.5,1.65-8.26,1.91-1.27,.12-2.56,.14-3.86,.13-.53,0-1,.11-1.53,.08-.46-.02-.93-.4-1.39-.43-.61-.05-1.07,.15-1.66-.01-.52-.14-1.02-.36-1.53-.49-1.26-.32-2.44-1.08-3.73-1.27-1.76-.26-2.93-.47-4.48-1.42-.62-.38-1.22-.79-1.79-1.25-.43-.35-1.07-.82-1.19-1.4Z"/><path class="cls-10" d="M127.35,140.2c-.74-.74-1.96-2.15-3.17-1.81-.1,.58,.74,.97,1.14,1.18,.58,.3,1.11,.68,1.69,.97,.24,.12,.49,.28,.75,.32-.39-.7-1.03-1.41-1.67-1.92"/><path class="cls-10" d="M124.35,138.76c.07-.33,.69,.32,.82,.41,.37,.23,.77,.4,1.15,.62,.64,.37,1.27,.77,1.92,1.06,1.93,.86,3.93,1.33,5.97,1.89,1.85,.51,3.67,1.2,5.53,1.55,2.16,.41,4.22,.15,6.37-.18,1.19-.19,2.35-.26,3.55-.56,.85-.21,1.78-.41,2.58-.76,1.28-.56,2.58-1.05,3.85-1.66,.63-.3,1.3-.51,1.92-.81,.22-.11,.73-.63,.94-.4-.15,.61-.7,.74-1.24,.96-.77,.31-1.46,.76-2.26,.98-.98,.28-1.95,.7-2.91,1.06-.38,.14-.7,.33-1.07,.47-1.51,.59-3.24,.76-4.82,1.14-2.06,.49-4.55,.37-6.68,.3-2.32-.08-4.62-1.05-6.76-1.87-1.69-.65-3.48-.99-5.14-1.68-.44-.18-.92-.42-1.31-.69-.44-.3-.89-.65-1.41-.81-.42-.13-1-.39-1.01-.93,0-.03,0-.06,0-.08Z"/><path class="cls-12" d="M137.02,106.94c-.35-.26-.23-2.4-.3-3.18-.11-1.11-.19-1.91-.82-2.82-1.34-1.96-3.64-2.66-5.82-3.4-1.4-.48-2.81-1-4.11-1.57,1.68-.08,3.78,.92,5.4,1.38,1.17,.33,2.49,.79,3.54,1.4,1.75,1.01,2.55,4.13,2.55,6.01,0,1.19-.4,2.59-.88,3.42,0-.61,.17-1.11,.22-1.72,.1-1.26-.36-2.39-.11-3.68"/><path class="cls-23" d="M140.49,22.67c4.87-2.74,24.89-1.13,27.31,5.02-8.76-1.85-20.06-8.38-27.31-5.02Z"/><path class="cls-23" d="M171.14,30.06c2.13-.24,4.76,1.38,6.38,2.55,1.4,1.01,3.33,2.46,4.28,3.91-4.25-5.27-11.89-6.42-18.17-5.88,3.87-.64,7.6,.07,11.34,1.16"/><path class="cls-23" d="M166.84,41.2c6.23-2.68,14.07-.61,18.66,4.14-.03-.97-2.75-2.13-3.64-2.58-1.18-.59-2.26-1.05-3.54-1.36-2.59-.62-4.89-1.02-7.6-1.02-1.44,0-2.4,.53-3.89,.81Z"/><path class="cls-23" d="M149.78,52.12c-1.59-3.04-.9-6.56,.35-9.87,1.45-3.84,3.72-6.84,7.79-8.03,1.29-.38,4.05-1.34,5.1-.79-4.11,.81-7.84,3.33-10.13,6.84-1.15,1.77-1.88,3.77-2.26,5.84-.25,1.37-.27,2.76-.14,4.15,.08,.83,.09,3.18,.68,3.8-.59-.62-1.05-1.26-1.4-1.93Z"/><path class="cls-8" d="M105,115.6c-.53,.09-1.18-.15-1.53-.49-.56-.57-1.12-1.87-.9-2.64s1.03-1.24,1.82-1.07c.76,.16,1.14,1.13,1.33,1.81,.19,.68,.38,1.67-.23,2.18-.14,.12-.31,.18-.49,.22Z"/><path class="cls-31" d="M163.5,139.37c-.26,.99-.87,1.96-1.66,2.79,2.99-.68,4.36-4.26,2.41-6.61-.6-.72-1.34-1.32-2.11-1.85-1.06-.72-2.2-1.33-3.29-2.01-.53-.34-1.06-.69-1.55-1.09-.36-.29-.71-.6-1.02-.96-.62-.7-.88-1.65-1.13-2.53-.16-.56-.22-1.17-.48-1.7,.16,.32,.1,.86,.15,1.22,.11,.77,.29,1.47,.62,2.17,.16,.34,.34,.67,.52,1,.3,.55,.66,1.11,1.03,1.62,1.34,1.88,3.3,2.86,5.13,4.18,1.43,1.03,1.74,2.4,1.39,3.76Z"/><path class="cls-28" d="M106.44,119.76c.59,3.56,1.4,6.99,2.4,10.37,.62,1.17,1.39,2.26,2.35,3.08,1.84,1.59,4.66,2.02,7.03,1.72,1.24-.15,2.45-.53,3.56-1.11,.57-.3,1.12-.65,1.63-1.06,.34-.27,.81-.98,1.19-1.14-3,1.22-6.49,1.04-9.42-.29-3.29-1.49-5.01-4.27-6.72-7.31-.3-.53-.48-1.07-.81-1.57-.36-.55-.67-1.14-.93-1.74-.13-.3-.16-.66-.26-.95Z"/><path class="cls-27" d="M131.2,129.82c-1.69,1.39-4.21,1.99-6.28,2.75-2.12,.78-4.58,1.69-4.7,4.42-.06,1.53,1.08,2.01,1.84,3.11-2.04-1.89-.54-4.32,1.49-5.5,1-.58,2.18-.83,3.3-1.22,1.66-.58,4.61-1.88,4.78-3.95-.14,.14-.28,.27-.43,.39Z"/><path class="cls-25" d="M124.45,158.46c-.71-.57-1.48-1.02-2.08-1.71-.3-.34-.6-.7-.87-1.06-.39-.51-.71-1.08-1.13-1.57s-.85-.98-1.29-1.48c-.69-.79-1.27-1.66-1.77-2.58-.25-.45-.47-.92-.68-1.39-.11-.24-.6-1.02-.52-1.27,.04-.13-.03-.18,.08-.29,.02-.02,.98,1.46,1.07,1.6,.27,.47,.6,.85,.91,1.29,.28,.41,.54,.84,.84,1.24,.41,.55,.86,1.06,1.26,1.61,.99,1.38,2.22,2.59,3.35,3.87,.32,.36,.62,.75,.92,1.13,.21,.26,.44,.51,.69,.75,.54,.52,1.02,1.11,1.55,1.62,.62,.59,1.4,1.09,2.13,1.53,1.4,.86,2.84,2.09,4.36,2.72,1.9,.79,4.04,1.14,6.06,1.5,3.29,.58,6.74-.39,9.83-1.59,1.42-.55,2.84-1.09,4.31-1.54,1.57-.48,3.63-1.59,5.25-1.55-1.4,1.2-3.1,1.76-4.74,2.58s-3.1,1.6-4.77,2.25c-6.74,2.64-14.57,2.56-20.13-2.66-2.21-2.07-4.46-4.04-6.43-6.43-1.02-1.24-2.25-2.16-3.17-3.47-.73-1.05-2.27-2.77-2.17-4.1"/><path class="cls-4" d="M193.25,107.17c.87-3.62,.99-7.44,1.78-11.09,.43-2,.28-5.51-2.51-5.64-1.02-.05-1.03,.44-1.34,1.4-.57,1.77-1.81,3.09-2.87,4.55-1.31,1.8-2.13,3.96-2.87,6.04-.71,2-1.47,3.65-1.78,5.74-.29,1.98-.95,3.84-1.03,5.89-.09,2.38-.38,4.18-1.64,6.19,1.35,.4,1.97,1.97,3.3,2.2s3.03-.99,3.85-2.01c.9-1.12,.66-2.66,1.02-3.99,.4-1.52,1.02-2.92,1.78-4.33,.9-1.67,1.85-3.05,2.3-4.94Z"/><path class="cls-26" d="M185.43,120.86c-1.11,.32-2.71-.44-2.32-2.03,.44-1.81,2.95-1.4,3.28,.25,.2,1.01-.29,1.59-.96,1.78Z"/><path class="cls-2" d="M185.15,121.05c-1.11,.32-2.71-.44-2.32-2.03,.44-1.81,2.95-1.4,3.28,.25,.2,1.01-.29,1.59-.96,1.78Z"/><path class="cls-34" d="M185.29,112.68c-.09-.15-.17-.33-.25-.57-.55-1.65,.79-3.63,1.1-5.22,.03-.17,1.21-4.7,1.76-3.75,.48,.83,1.09,1.47,1.61,2.31,1.19,1.9-.87,3.56-1.74,5.26-.48,.93-1.65,3.33-2.47,1.98Z"/><path class="cls-35" d="M193.71,95.46c-.25-.52-.61-1.31-1.18-1.72-1.09,.88-.45,3.42-.21,4.61,.34,1.69-.03,3.23,.23,4.9,1.68-.26,1.13-7.91,1.16-7.79Z"/><path class="cls-23" d="M167.87,53.27c.33-1.13,1.96-2.1,2.94-2.56,1.5-.71,3.29-.79,4.92-.87,2.42-.12,4.63,.37,6.39,2.07-.87-.93-2.95-1.16-4.16-1.19s-2.39,.01-3.6,.25c-1.76,.35-3.73,.88-5.31,1.78-.96,.55-1.36,1.54-2.13,2.29"/><path class="cls-23" d="M157.88,49.26c.43-2.66,1.76-5.75,3.63-7.67,1.31-1.35,2.61-2.68,4.31-3.54,1.06-.54,2.34-1.29,3.55-1.32-2.49,.28-5.1,2.59-6.77,4.33-1.47,1.53-2.96,3.61-3.6,5.66-.15,.47-.25,.98-.41,1.46-.27,.81-.31,1.61-.52,2.42"/><path class="cls-6" d="M101.5,165.01c-12.04,3.2-25.73,5.57-37.24,12.03-8.6,4.82-14.57,11.35-19.68,19.62-1.67,2.71-3.07,5.53-4.88,8.14-4.26,6.12-9.78,14.65-12.19,21.73-2.32,6.79,1.39,12.31,6,17.35,8.97,9.82,21.95,16.96,34.22,21.78,33.72,13.27,76.34,17.35,110.95,5.7,13.86-4.67,26.76-13.66,36.88-24.13,6.25-6.46,13.37-11.97,20.55-17.34,4.95-3.7,16.95-9.48,14.51-17.62-.5-1.66-2.83-3.74-3.72-5.32-.68-1.21-1.13-2.26-1.82-3.47-2.4-4.14-5.22-9.22-8.56-12.68-3.28-3.4-9.46-5.24-13.77-7.04-3.37-1.41-6.77-2.75-10.11-4.22-3.25-1.43-6.8-2.49-9.91-4.22-1.71-.95-3.23-2.15-4.85-3.23-2.23-1.49-4.78-2.73-7.14-3.86-1.55-.74-2.94-1.11-4,.36-1.15,1.6-1.99,3.42-2.89,5.17-1.89,3.69-3.79,7.41-6.36,10.69-6.94,8.83-16.06,11.25-26.85,12.94-15.43,2.41-38.18-1.47-46.74-16.53-2.36-4.16-1.82-12.13-.13-16.52-.2-.62-.28-.02-2.26,.66Z"/><path class="cls-6" d="M141.56,204.34c11.86-.07,25.52-4.74,34.62-12.51,3.62-3.09,6.46-7.64,8.79-11.81,1.79-3.2,5.03-9.31,4.4-13.02-2.94-.51-6.15-2.18-8.67-3.61,5.62,2.76-7.08,18.43-9.75,21.01-9.25,8.91-21.34,11.32-33.8,10.84-5.9-.23-10.92,.41-16.44-2.36-4.97-2.5-9.23-6.57-11.84-11.49-3.12-5.88-6.5-16.94,2.44-18.98-3.72,.85-6.49,1.97-10.21,2.77-2.62,4.72-3.42,13.47-.66,18.91,2.58,5.1,8.25,10.45,12.81,13.98,7.95,6.16,18.72,6.31,28.31,6.26Z"/><path class="cls-15" d="M142.69,205.41c2.56-.22,5.14,.26,7.66-.03,2.87-.32,5.57-1.52,8.34-2.27,1.59-.43,3.04-.87,4.56-1.67,2.11-1.11,4.37-1.55,6.37-2.85,1.77-1.15,3.92-2.21,5.33-3.81,1.25-1.41,2.07-2.75,3.54-4.03,3.29-2.87,6.4-6.13,8.21-10.16,1.39-3.07,2.98-6.15,4.06-9.3,.67-1.94,.49-3.81-1.38-4.64-2.5-1.12-6.17-2.02-8.69-3.25,5.62,2.76-6.04,18.43-8.71,21.01-9.25,8.91-21.34,11.32-33.8,10.84-5.9-.23-10.92,.41-16.44-2.36-4.97-2.5-9.23-6.57-11.84-11.49-1.34-2.52-2.81-6.17-3.04-8.99-.14-1.72,.04-5.3,.7-6.87,.61-1.44,1.61-1.9,2.84-2.79-.4,.3-.79,.27-1.27,.45-.73,.28-1.45,.43-2.21,.64-1.08,.3-2.41,.56-3.38,1.05-4.62,2.37-4.37,9.53-3.66,13.83,.45,2.76,.98,5.71,2.35,8.17,1.73,3.11,4.34,5.63,6.73,8.23,3.98,4.33,8.57,7.26,14.2,8.79,1.68,.46,3.32,.92,5.04,1.15,2,.26,4.07,.2,6.09,.21,2.76,0,5.63,.37,8.4,.13Z"/><path class="cls-6" d="M118.47,201.69c3.99,.28,7.92,1.88,11.95,2.07,3.76,.18,7.38,.6,11.14,.58,11.86-.07,25.52-4.74,34.62-12.51,3.62-3.09,6.46-7.64,8.79-11.81,1.79-3.2,5.03-9.31,4.4-13.02-2.94-.51-6.15-2.18-8.67-3.61,5.62,2.76-7.08,18.43-9.75,21.01-9.25,8.91-21.34,11.32-33.8,10.84-5.9-.23-10.92,.41-16.44-2.36-4.97-2.5-9.23-6.57-11.84-11.49-2.32-4.37-6.41-18.94,2.68-18.84-1.21-.06-6.95,1.89-10.44,2.63-2.62,4.72-3.42,13.47-.66,18.91,2.58,5.1,8.25,10.46,12.81,13.98,3.21,2.49,8.65,5.45,12.88,5.08"/><path class="cls-3" d="M102.19,185.78c-4.1-3.85-4.95-9.48-11.36-10.88-6.97-1.52-11.48-.7-16.87,3.93-2.29,1.97-5.03,4.62-6.91,6.91,1.62-3,3.02-6.63,5.81-8.95-8.06,3.75-15.54,9-22.69,14.19,6.49-6.28,11.12-12.4,19.62-16.19,7.72-3.45,15.11-7.54,23.6-8.9,2.83-.45,5.6-1.25,8.38-1.96,2.88-.73,5.74-1.29,8.69-1.67,.41-.05,1.19-.37,1.53-.03l-.72,.51c-.79,.3-1.61,.91-2.36,1.3-.69,.36-.98,.86-1.34,1.49-.32,.56-.77,1.06-1.1,1.62-.68,1.14-1.21,2.35-1.63,3.6-.87,2.57-1.26,5.29-1.34,8-.09,2.99,.19,6.04,.98,8.93-.12,.12-.25,.24-.37,.37-3.83-3.16-3.93-8.72-6.89-12.57"/><path class="cls-3" d="M224.04,187.78c-7.34,10.56-20.25,18.3-20.92,32.21-.18,3.8-.97,6.75-1.68,10.19,2.04-2.6,3.54-5.62,5.66-8.12,2.37-2.8,5.41-5.05,7.74-7.98,4.11-5.17,5.61-11.47,7.22-17.65,.82-3.15,1.31-6.03,2.86-9-1.75,.42-3.01,1.9-.87,.35Z"/><path class="cls-3" d="M190.74,166.95c1.95,.73,3.8,1.74,5.6,2.86,1.82,1.13,3.55,2.55,5.29,3.8,1.93,1.39,4.21,2.02,6.36,3.03,2.15,1.01,4.2,2.23,6.39,3.18,2.62,1.14,5.39,1.89,8.06,2.94,2.42,.96,4.49,2.27,6.77,3.45,1.02,.53,2.04,.85,3.05,1.44,1.68,1,3.45,2.01,4.95,3.3,1.66,1.44,2.64,3.29,3.85,5.08,1.25,1.86,2.73,3.59,3.59,5.68,.98,2.4,2.01,4.84,3.36,7.04,.58,.95,1.1,2.52,1.94,3.23-.97-1.52-3.48-2.62-4.8-3.86-.78-.73-1.38-1.63-2.09-2.41-.79-.86-1.65-1.56-2.31-2.55-2.69-4.02-4.86-8.01-8.59-11.25-5.19-4.51-10.75-4.95-16.74-7.88-4.01-1.96-8.48-3.3-12.29-5.57-3.3-1.97-5.78-3.94-8.8-6.31-2.98-2.34-5.92-5.17-9.54-6.49-.8-.29-3.22-.73-3.44-1.64,1.24-.23,2.87,.74,4.06,1.13,1.45,.47,2.97,.99,4.42,1.46,.31,.1,.61,.21,.92,.32Z"/><path class="cls-13" d="M160.58,133.44c2.68,1.67,5.89,1.83,9.08,.8,1.98-.64,4.14-1.52,5.62-2.97,2.28-2.22,4.28-5.43,4.49-8.66-1.4,2.75-3.82,4.82-6.2,6.79-.64,.53-1.28,1.06-1.99,1.5-1.89,1.19-4.14,1.73-6.38,1.79-2.23,.06-4.46-.33-6.62-.88,.62,.65,1.29,1.19,1.99,1.62Z"/><path class="cls-24" d="M156.42,106.25c-.56-.56-1.44-.71-2.22-.56-.66,.13-1.41,.46-1.93,.89,.7-.13,1.37-.37,2.08-.45,.35-.04,.7-.06,1.06-.04,.22,.01,.84,0,1.01,.17Z"/><path class="cls-24" d="M131.86,102.96c-.7-1.03-1.44-2.1-2.53-2.71,.49,.21,.83,.66,1.14,1.1,.6,.87,1.15,1.78,1.63,2.73-.37-.14-.79-.1-1.18-.06-.67,.07-1.34,.15-2,.22-.64,.07-1.33,.16-1.79,.62,.33-.15,.71-.15,1.08-.14,.45,0,.89,0,1.34,.01,1.04,.01,2.08,.03,3.11,.2,.65,.11,.43-.15,.14-.58-.31-.46-.62-.92-.94-1.38Z"/><g><path d="M163.49,101.02c.96-.19,1.81-.87,2.19-1.77"/><path d="M166.19,101.82l-.18,.07c.89-.3,1.63-1.04,1.92-1.94"/><path d="M121.45,98.73c-.67-.49-1.06-1.33-1-2.15"/><path d="M119.39,99.64c-.84-.61-1.31-1.7-1.17-2.72"/></g></g></svg>