<?xml version="1.0" encoding="UTF-8"?><svg id="Sandra" xmlns="http://www.w3.org/2000/svg" xmlns:xlink="http://www.w3.org/1999/xlink" viewBox="0 0 262 280"><defs><style>.cls-1,.cls-2,.cls-3,.cls-4,.cls-5,.cls-6,.cls-7,.cls-8{fill:none;}.cls-2,.cls-9{opacity:.5;}.cls-10{fill:url(#Namnlös_övertoning_50-2);}.cls-11{fill:url(#Namnlös_övertoning_24-3);}.cls-12{fill:url(#Namnlös_övertoning_24-5);}.cls-13{fill:url(#Namnlös_övertoning_24-7);}.cls-14{fill:url(#Namnlös_övertoning_24-6);}.cls-15{fill:url(#Namnlös_övertoning_24-9);}.cls-16{fill:url(#Namnlös_övertoning_24-8);}.cls-17{fill:url(#Namnlös_övertoning_24-4);}.cls-18{fill:url(#Namnlös_övertoning_24-2);}.cls-19{fill:url(#Namnlös_övertoning_2249);}.cls-20{fill:url(#linear-gradient);}.cls-3{stroke:url(#linear-gradient-3);}.cls-3,.cls-4,.cls-5,.cls-6,.cls-7,.cls-8{stroke-linecap:round;}.cls-3,.cls-4,.cls-5,.cls-7,.cls-8{stroke-linejoin:round;}.cls-4{stroke:url(#linear-gradient-2);}.cls-5{opacity:.6;stroke:url(#linear-gradient-4);}.cls-21{fill:#f6f3ef;}.cls-22{fill:#693f47;}.cls-23{fill:#ecceb7;}.cls-24{fill:#eaeaea;}.cls-25{fill:#fff;}.cls-26{fill:#fcfaf9;}.cls-27{fill:#bf9477;}.cls-28{fill:#d1b29e;}.cls-29{fill:#d9ad96;}.cls-30,.cls-9,.cls-31{fill:#c98969;}.cls-32{fill:#d5e9f6;}.cls-33{fill:#4a3010;}.cls-34{fill:#4e2303;}.cls-35{fill:url(#Namnlös_övertoning_373);}.cls-36{fill:url(#Namnlös_övertoning_130);}.cls-37{fill:url(#Namnlös_övertoning_133);}.cls-38{fill:url(#Namnlös_övertoning_134);}.cls-39{fill:url(#Namnlös_övertoning_373-3);}.cls-40{fill:url(#Namnlös_övertoning_373-2);}.cls-41{fill:url(#Namnlös_övertoning_51);}.cls-42{fill:url(#Namnlös_övertoning_50);}.cls-43{fill:url(#Namnlös_övertoning_92);}.cls-44{fill:url(#Namnlös_övertoning_25);}.cls-45{fill:url(#Namnlös_övertoning_26);}.cls-46{fill:url(#Namnlös_övertoning_24);}.cls-47{fill:url(#Namnlös_övertoning_27);}.cls-6{stroke:#321914;stroke-miterlimit:10;stroke-width:.75px;}.cls-7{stroke:url(#Namnlös_övertoning_178);}.cls-8{stroke:url(#Namnlös_övertoning_432);}.cls-48{opacity:.57;}.cls-48,.cls-49,.cls-50,.cls-51{fill:#d5a38a;}.cls-31{opacity:.7;}.cls-49{opacity:.3;}.cls-50{opacity:.4;}.cls-51{opacity:.98;}</style><linearGradient id="Namnlös_övertoning_373" x1="79.08" y1="197.34" x2="199.04" y2="197.34" gradientUnits="userSpaceOnUse"><stop offset="0" stop-color="#c3997d"/><stop offset="1" stop-color="#e7c5a3"/></linearGradient><linearGradient id="Namnlös_övertoning_373-2" x1="157.01" y1="157.05" x2="158.31" y2="157.05" xlink:href="#Namnlös_övertoning_373"/><linearGradient id="Namnlös_övertoning_373-3" x1="157.44" y1="157.68" x2="192.75" y2="157.68" xlink:href="#Namnlös_övertoning_373"/><linearGradient id="Namnlös_övertoning_134" x1="81.11" y1="126.48" x2="94.58" y2="126.48" gradientUnits="userSpaceOnUse"><stop offset="0" stop-color="#604942"/><stop offset="1" stop-color="#000"/></linearGradient><linearGradient id="Namnlös_övertoning_24" x1="64.24" y1="98.88" x2="138.64" y2="98.88" gradientUnits="userSpaceOnUse"><stop offset="0" stop-color="#1d1210"/><stop offset="1" stop-color="#4f231b"/></linearGradient><linearGradient id="linear-gradient" x1="119.84" y1="94.17" x2="152.36" y2="94.17" gradientUnits="userSpaceOnUse"><stop offset="0" stop-color="#56391e"/><stop offset="1" stop-color="#81624a"/></linearGradient><linearGradient id="Namnlös_övertoning_24-2" x1="78.54" y1="63.28" x2="132.62" y2="63.28" xlink:href="#Namnlös_övertoning_24"/><linearGradient id="Namnlös_övertoning_24-3" x1="127.79" y1="70.02" x2="137.77" y2="70.02" xlink:href="#Namnlös_övertoning_24"/><linearGradient id="Namnlös_övertoning_24-4" x1="118.72" y1="69.19" x2="145.05" y2="69.19" xlink:href="#Namnlös_övertoning_24"/><linearGradient id="Namnlös_övertoning_92" x1="104.57" y1="54.83" x2="164.22" y2="54.83" gradientUnits="userSpaceOnUse"><stop offset=".59" stop-color="#41231d"/><stop offset="1" stop-color="#4f231b"/></linearGradient><linearGradient id="Namnlös_övertoning_25" x1="118.71" y1="68.86" x2="173.7" y2="68.86" gradientUnits="userSpaceOnUse"><stop offset="0" stop-color="#4f231b"/><stop offset="1" stop-color="#1d1210"/></linearGradient><linearGradient id="Namnlös_övertoning_24-5" x1="79.97" y1="64.97" x2="135.91" y2="64.97" xlink:href="#Namnlös_övertoning_24"/><linearGradient id="Namnlös_övertoning_27" x1="134.21" y1="100.96" x2="197.6" y2="100.96" gradientUnits="userSpaceOnUse"><stop offset="0" stop-color="#4f231b"/><stop offset="1" stop-color="#1d1210"/></linearGradient><linearGradient id="Namnlös_övertoning_26" x1="130.62" y1="68.37" x2="168.33" y2="68.37" gradientUnits="userSpaceOnUse"><stop offset="0" stop-color="#4f231b"/><stop offset="1" stop-color="#1d1210"/></linearGradient><linearGradient id="Namnlös_övertoning_2249" x1="103.33" y1="147.94" x2="136.1" y2="147.94" gradientUnits="userSpaceOnUse"><stop offset="0" stop-color="#543430"/><stop offset="1" stop-color="#b26b50"/></linearGradient><linearGradient id="Namnlös_övertoning_50" x1="102.68" y1="150.69" x2="136.9" y2="150.69" gradientUnits="userSpaceOnUse"><stop offset="0" stop-color="#be7161"/><stop offset=".5" stop-color="#d98173"/><stop offset="1" stop-color="#be7161"/></linearGradient><linearGradient id="Namnlös_övertoning_50-2" x1="102.12" y1="144.01" x2="136.23" y2="144.01" xlink:href="#Namnlös_övertoning_50"/><linearGradient id="Namnlös_övertoning_51" x1="81.89" y1="96.91" x2="105.96" y2="96.91" gradientUnits="userSpaceOnUse"><stop offset="0" stop-color="#81624a"/><stop offset="1" stop-color="#56391e"/></linearGradient><linearGradient id="Namnlös_övertoning_133" x1="125.09" y1="104.8" x2="146.72" y2="104.8" gradientUnits="userSpaceOnUse"><stop offset="0" stop-color="#9f624a"/><stop offset=".02" stop-color="#9b5f47"/><stop offset=".17" stop-color="#7c4b30"/><stop offset=".33" stop-color="#643b1f"/><stop offset=".49" stop-color="#532f12"/><stop offset=".67" stop-color="#49290b"/><stop offset=".9" stop-color="#462709"/></linearGradient><linearGradient id="Namnlös_övertoning_130" x1="86.44" y1="106.07" x2="106.26" y2="106.07" gradientUnits="userSpaceOnUse"><stop offset=".1" stop-color="#462709"/><stop offset=".33" stop-color="#49290b"/><stop offset=".51" stop-color="#532f12"/><stop offset=".67" stop-color="#643b1f"/><stop offset=".83" stop-color="#7c4b30"/><stop offset=".98" stop-color="#9b5f47"/><stop offset="1" stop-color="#9f624a"/></linearGradient><linearGradient id="Namnlös_övertoning_24-6" x1="174.33" y1="86.05" x2="197.6" y2="86.05" xlink:href="#Namnlös_övertoning_24"/><linearGradient id="Namnlös_övertoning_24-7" x1="179.89" y1="120.71" x2="193.03" y2="120.71" xlink:href="#Namnlös_övertoning_24"/><linearGradient id="Namnlös_övertoning_24-8" x1="68.52" y1="106.58" x2="78.57" y2="106.58" xlink:href="#Namnlös_övertoning_24"/><linearGradient id="Namnlös_övertoning_24-9" x1="72.89" y1="133.49" x2="82.03" y2="133.49" xlink:href="#Namnlös_övertoning_24"/><linearGradient id="Namnlös_övertoning_178" x1="115.78" y1="207.76" x2="174.86" y2="207.76" gradientUnits="userSpaceOnUse"><stop offset=".01" stop-color="#d1d6ba"/><stop offset=".41" stop-color="#c5b793"/><stop offset=".75" stop-color="#bda47b"/><stop offset=".95" stop-color="#bb9d72"/><stop offset="1" stop-color="#bb9d72"/></linearGradient><linearGradient id="Namnlös_övertoning_432" x1="102.19" y1="217.67" x2="111.88" y2="217.67" gradientUnits="userSpaceOnUse"><stop offset=".23" stop-color="#c8a184"/><stop offset=".51" stop-color="#cab194"/><stop offset=".99" stop-color="#d1d6ba"/></linearGradient><linearGradient id="linear-gradient-2" x1="110.21" y1="241.24" x2="117.47" y2="241.24" gradientUnits="userSpaceOnUse"><stop offset="0" stop-color="#bb9d72"/><stop offset=".21" stop-color="#bda47b"/><stop offset=".56" stop-color="#c5b793"/><stop offset=".99" stop-color="#d1d6ba"/></linearGradient><linearGradient id="linear-gradient-3" x1="109.69" y1="242.82" x2="115.02" y2="242.82" xlink:href="#linear-gradient-2"/><linearGradient id="linear-gradient-4" x1="169.76" y1="131.89" x2="175.13" y2="131.89" xlink:href="#linear-gradient-2"/></defs><g id="BG-3"><circle class="cls-32" cx="131.31" cy="131.48" r="129"/></g><g id="Sandra-2"><path class="cls-35" d="m79.3,202.84c.24-5.7.82-11.8,4.44-16.22,3.09-3.78,7.87-5.67,12.46-7.33,2.57-.93,5.26-1.9,7.11-3.9s2.52-5.4.69-7.43c5.31,1.18,10.75,2.37,16.15,1.65,7.99-1.07,14.8-6.15,21-11.31,5.51-4.59,10.95-9.49,14.57-15.68,4.72-8.07,6.14-17.94,11.95-25.26.87-1.1,2.88,4.08,2.97,4.87.25,2.29-.94,4.85-1.48,7.1-.66,2.8-1.22,5.61-1.68,8.45-.91,5.63-1.42,11.33-1.51,17.04-.04,2.56-.27,5.57-.04,8.43.15,1.95.51,3.84,1.28,5.47,1.32,2.8,4.22,4.6,6.5,6.55,3.87,3.32,8,6.11,12.42,8.64,3.09,1.77,6.28,3.47,8.82,5.96s4.39,5.95,4.06,9.49c-.6,6.42-8.12,11.51-12.29,15.78-5.5,5.64-10.95,11.32-16.24,17.16-6.28,6.93-12.33,14.06-17.94,21.55-2.8,3.74-5.49,7.57-8.03,11.49-1.03,1.59-2.27,3.03-3.16,4.69-1.58,2.95-4.7,5-7.86,6.01-2.45.78-5.04,1.05-7.6,1.21-2.7.17-5.41.23-8.12.18-2.03-.04-4.71.17-6.68.02-5.26-.4-9.71-.77-14.99-1.14-3.01-.21-6.25-.6-8.47-2.65-2.77-2.56-3.18-7.94-3.86-11.44-.94-4.85-1.75-9.72-2.41-14.62-1.31-9.68-2.06-19.44-2.24-29.21-.1-5.18-.04-10.36.18-15.53Z"/><g><path class="cls-40" d="m158.09,158.06c-.21-1.78-.57-3.53-1.08-5.25l1.3,8.49c0-.21,0-.41-.01-.62-.09-.87-.16-1.75-.21-2.62Z"/><path class="cls-39" d="m177.07,179.89c-1.9-1.46-3.31-3.35-4.38-5.47-2.06-1.65-4.36-3.32-5.48-5.71-.77-1.63-1.13-3.52-1.28-5.47-.22-2.86,0-5.87.04-8.43.1-5.71.6-11.41,1.51-17.04.46-2.84,1.02-5.65,1.68-8.45.08-.35.19-.72.29-1.08-.46-.52-1.06-.87-1.83-.94-1.12-.11-2.19.47-3.06,1.18-2.95,2.42-4.22,6.31-5.04,10.05-1.4,6.41-1.87,13.01-1.44,19.55.1.87.18,1.74.21,2.62.1,1.01.23,2.02.38,3.02l-.37-2.4c.02,1.33-.02,2.66-.17,3.98-.32,2.97-1.06,5.98-.49,8.92,1.28,6.59,8.56,10.21,15.21,11.15,6.65.93,13.65.24,19.89,2.75-.15-.15-.3-.29-.45-.43-1.47-1.06-3.04-1.99-4.62-2.89-3.55-1.56-7.53-2.52-10.61-4.88Z"/></g><path class="cls-38" d="m85.17,138.55c-1.3-3.53-2.91-7.2-3.42-10.92-.59-4.24-.64-8.64-.64-12.91,0-8.47.8-16.94,2.41-25.25,1.18,5.94,2.37,11.9,3.05,17.92s2.13,10.89,3.53,16.55c2.83,11.47,4.35,23.26,4.48,35.08.02,1.5.01,3.01-.21,4.49-3.06-8.32-6.13-16.63-9.19-24.95Z"/><path class="cls-46" d="m137.02,23.53c-7.36-4.97-17.46-3.67-25.4.32s-16.81,9.02-24.03,14.2c-5.32,3.82-8.77,8.38-13.02,13.37-4.03,4.74-8.1,10.9-9.55,16.95-1.56,6.55-.42,13.17.31,19.86.64,5.88,2.29,11.67,2.12,17.58-.18,6.17-2.33,12.28-1.55,18.4,1.15,8.96,7.29,15.83,11.67,23.41,4.72,8.16,8.85,16.67,12.34,25.43l1.52-2.27c2.75,2.09,5.5,4.18,8.24,6.27.33.25.69.52,1.11.53.52.02.95-.35,1.34-.7,1.87-1.69,3.91-3.84,3.5-6.33-.42-2.55-3.13-3.9-5.03-5.65-1.17-1.07-2.08-2.39-2.95-3.71-4.8-7.3-7.51-15.19-11.31-22.95s-3.07-17.55-2.64-25.64c.25-4.73.82-9.54-.16-14.17-.7-3.31-2.18-6.5-2.15-9.88.01-1.5.33-2.99.66-4.46,2.4-10.89,5.38-21.88,11.41-31.26,6.03-9.38,15.61-17.05,26.69-18.33,5.07-.58,10.53.11,15-2.36,1.49-.82,2.86-2.06,3.34-3.7.75-2.6-1.04-5.39-3.42-6.69s-5.19-1.46-7.89-1.59"/><path class="cls-23" d="m82.04,96.23c.06,2.56,0,4.95.89,7.42.2.56.43,1.11.48,1.7.04.47-.05.95-.12,1.42-.34,2.11-.48,4.25-.46,6.39.01,1.63-.25,3.09-.02,4.72.93,6.7,2.3,13.34,4.01,19.88.86,3.27,1.8,6.53,2.82,9.75s2.73,5.74,4.3,8.59c2.41,4.38,5.47,8.36,8.81,12.06s6.56,7.45,11.06,9.46c6.13,2.74,13.47,1.51,19.35-1.72,5.88-3.24,10.55-8.27,14.88-13.39,9.82-11.61,18.69-24.65,21.8-39.54,2.02-9.71-.13-18.81.5-28.42.5-7.75-1.7-14.47-5.25-21.47-1.2-2.37-2.57-4.7-4.45-6.58-2.09-2.09-4.72-3.54-7.43-4.72-16.4-7.16-39.54-6.98-55.19,1.77-5.22,2.92-9.4,7.48-12.11,12.79-2.97,5.83-3.8,12.41-3.86,18.89,0,.34,0,.68,0,1.03Z"/><path class="cls-20" d="m122.25,95.77c3.78-1.3,7.56-2.6,11.35-3.9,2.02-.69,4.05-1.39,6.14-1.79,4.41-.84,9.36-.17,12.62,2.91-2.83,1.18-5.89-.99-8.95-1.31-2.38-.25-4.71.63-6.95,1.47-5.47,2.04-11.01,3.86-16.62,5.46.82-1.8,2.68-2.9,4.54-3.59s3.83-1.12,5.53-2.14"/><path class="cls-29" d="m117.95,73.84c-3.15-6.64-19.62-.82-24.4.49-2.65.73-5.44,1.57-7.99,2.71-2.68,5.65-3.47,11.94-3.52,18.16,0,.34,0,.68,0,1.03.06,2.56,0,4.95.89,7.42.2.56.43,1.11.48,1.7.04.47-.05.95-.12,1.42-.34,2.11-.48,4.25-.46,6.39.01,1.63-.25,3.09-.02,4.72.93,6.7,2.3,13.34,4.01,19.88.86,3.27,1.8,6.52,2.82,9.75.97,3.09,2.73,5.74,4.3,8.59,2.41,4.38,5.47,8.36,8.81,12.06,3.25,3.6,6.56,7.45,11.06,9.46,2.1.94,4.34,1.4,6.62,1.49-6.2-32.9-9.4-64.57-2.44-97.8.52-2.48,1.06-5.16-.02-7.45Z"/><path class="cls-27" d="m105.59,173.79c.08,8.25,1.12,16.62-.73,24.66,4.2-5.63,5.96-13.01,4.77-19.93-.39-2.27-1.25-5.68-3.56-6.58-.48.56-.48,1.12-.48,1.85Z"/><path class="cls-27" d="m172.32,96.53c.5-7.75-1.7-14.47-5.25-21.47-1.2-2.37-2.57-4.7-4.45-6.58-.36-.36-.74-.69-1.13-1.02,1.44,1.69,2.58,3.62,3.58,5.6,3.56,7.01,5.76,13.72,5.25,21.47-.62,9.61,1.52,18.71-.5,28.42-3.1,14.89-11.98,27.93-21.8,39.54-4.33,5.13-9,10.15-14.88,13.39-2.67,1.47-5.69,1.85-8.43,3.08-2.49,1.12-5.04.52-7.69.04-.7-.13-1.41-.27-2.07-.56-.73-.32-1.38-.81-2.01-1.29-1.41-1.07-2.83-2.15-4.19-3.28-1.24-1.03-2.33-2.32-3.63-3.26,1.26.92,1.98,2.47,2.68,3.82s1.59,2.19,2.82,3.16c3.61,2.83,9.21,3.73,13.65,3.5,3.81-.19,7.55-1.37,10.88-3.21,5.88-3.24,10.55-8.27,14.88-13.39,9.82-11.61,18.69-24.65,21.8-39.54,2.02-9.71-.12-18.81.5-28.42Z"/><path class="cls-18" d="m85.96,90.19c2.64,2.76,6.57,4.24,10.37,3.91-.28-1.53-.19-3.65,1.33-3.97,1.63-.34,2.66,1.91,4.3,2.23,1.91.37,3.14-1.93,3.7-3.79,1.31.65,2.67,1.32,4.13,1.42s3.08-.5,3.74-1.81c.84.97,1.76,1.99,3,2.3s2.84-.49,2.81-1.78c2.36,1.11,4.91,1.82,7.5,2.11-3.49-19.5-1.47-39.96,5.77-58.4-11.65,6.5-22.33,14.57-32.97,22.62-3.88,2.94-7.79,5.89-11.05,9.51-4.17,4.64-7.14,10.33-8.66,16.37-.55,2.18-2.05,6.99-1.08,9.2,1.49,3.4,4.23.73,7.1.07Z"/><path class="cls-11" d="m130.03,58.54c.84.99.9,2.67,1.25,3.92,1.87,6.52,5.84,12.47,6.48,19.23-2.85-7.97-6.19-15.77-9.98-23.34"/><path class="cls-17" d="m130.37,58.95c6.23,7.6,8.35,17.72,10.26,27.38.83-9.26-2.89-18.25-6.54-26.79,3.99,4.33,5.8,10.21,6.92,15.99s1.68,11.71,3.68,17.24c1.08-11.72-.18-24.03-6.14-34.17-2.62-4.46-6.05-8.36-9.47-12.24-.23-.27-.48-.54-.82-.66-.32-.11-.66-.05-.99.01-2.35.47-11.17,3.76-7.8,6.55,1.72,1.42,3.83,2.23,5.53,3.84,1.92,1.81,3.61,3.86,5.01,6.08"/><path class="cls-43" d="m119.14,73.58c-3.4.9-6.8,1.8-10.2,2.7-.71.19-1.46.38-2.18.22-1.47-.32-2.29-2.01-2.18-3.51s.91-2.84,1.67-4.14c6.27-10.8,10.71-22.61,17.26-33.24,2.38-3.86,5.08-7.6,8.66-10.37,3.58-2.77,6.72-4.03,11.2-3.37,4.46-1.04,9.45.66,12.35,4.21,1.16,1.42,1.99,3.07,2.75,4.74,1.96,4.26,3.55,8.69,4.77,13.22,1,3.74,1.69,7.95-.24,11.31-2.42,4.2-7.88,5.38-12.71,5.76-6.57.53-13.44,1.76-17.5,7.39-3.62,5.01-2.91,15.41-3.02,17.67-.47-2.37-.95-4.75-1.42-7.12-.41-2.04-.82-4.14-.4-6.18-1.49,4.28-.62,9.69-1.21,13.41-.49-3.18-.97-6.35-1.46-9.53-1.84,4.28-4.59,8.17-8.01,11.34.93-2.26.94-4.85,1.2-7.27.31-2.95.63-5.9.94-8.85.19.2.02,1.55-.25,1.62Z"/><path class="cls-44" d="m158.28,106.48l3.35-2.26c-.07,1.13,1,2.19,2.12,2.11.09-1.69.21-3.45,1.06-4.91s2.69-2.5,4.26-1.87c.39.15.74.4,1.14.52,1.46.46,2.99-.86,3.35-2.35s-.07-3.04-.44-4.52c-1.64-6.61-1.89-13.52-3.77-20.06-1.96-6.83-5.64-13-9.86-18.67-2.11-2.83-4.36-5.55-6.66-8.24s-4.16-5.45-6.83-7.82c-2.6-2.31-5.42-4.52-8.66-5.84-2.41-.98-6.31-2.28-8.54-.25-1.28,1.16-1.39,3.09-1.51,4.81-.94,13.57-7.86,26.22-8.59,39.81.66-4.13,1.95-8.15,3.81-11.89-.71,3.62-.46,7.44.74,10.93,2.15-4.26,1.18-9.61,3.42-13.82.41,2.84.94,5.67,1.58,8.47.24-3.43.97-6.83,2.16-10.06.89,5.11,4.91,9.21,6.08,14.26-.37-2.82-.73-5.63-1.1-8.45,2.7,4.11,4.31,8.93,4.6,13.84.61-2.29,1.03-4.64,1.25-7,.57,2.8,1.03,5.62,1.37,8.45.2,1.69,1.9,4.93,1.13,6.42.89-1.72,1.07-2.33,1.68-4.17,1.46,2.93,2.71,5.96,3.72,9.08l1.58-3.04c-.64,1.24,5.41,4.59,5.86,5.9s.2,3.02.36,4.37c.25,2.12.69,4.22,1.32,6.26Z"/><path class="cls-12" d="m94.37,90.79c-.63,1.06-1.3,2.17-2.37,2.79s-2.65.53-3.31-.51c-.22-.35-.34-.8-.69-1.02-.39-.25-.9-.11-1.32.08-3.96,1.8-4.79,6.95-5.09,11.29-2.94-3.76-1.14-9.13-.17-13.8,1.7-8.16.38-16.7,1.93-24.89.91-4.79,2.79-9.37,5.18-13.61,4.66-8.26,11.44-15.43,19.82-19.87,8.38-4.44,18.39-6.01,27.56-3.59-2.4-.63-6.49,10.99-7.2,12.42-2.63,5.34-4.73,10.95-6.28,16.7-3.16,11.72-3.4,23.24-2.58,35.25-3.95-4.85-7.42-.66-12.27-.95-1.27-.07-2.38-1.05-3.48-1.15-2.37-.21-1.4.56-3.27,1.84-.87.59-7.6.95-6.47-.97Z"/><path class="cls-47" d="m149.29,20.08c3.87.3,7.49,2.19,10.46,4.69,4.28,3.61,7.33,8.43,10.32,13.16,6.44,10.21,12.88,20.42,19.32,30.63,4.59,7.27,9.36,15.41,7.97,23.9-.36,2.19-1.13,4.31-1.22,6.52-.11,2.73.83,5.38,1.1,8.1.39,3.84-.54,7.67-1.46,11.42-1.48,6.01-2.95,12.03-4.43,18.04-.56,2.28-1.13,4.58-2.22,6.65-.82,1.55-1.92,2.94-2.8,4.46-2.67,4.62-3.28,10.95-3.97,16.18-.79,5.96-.98,12.01-.56,18.01-3.01-1.64-6.03-3.28-9.04-4.91-1.41-.77-2.84-1.55-4.01-2.65-2.42-2.28-3.44-5.68-3.88-8.97-1.11-8.19.73-16.34,1.75-24.44.88-6.93,1.05-14.11,1.05-21.08-.01-8.41-.04-16.94-2.21-25.07-1.11-4.17-2.77-8.17-4.5-12.13-2.29-5.24-4.71-10.41-7.26-15.53-1.64-3.28-3.35-6.57-5.68-9.4-4-4.84-9.79-8.33-12.42-14.03-1.58-3.43-1.83-7.45-.67-11.05.87-2.7,2.99-5.42,5.83-5.4.76-1.24-1.38-2.65-.99-4.04.23-.81,1.18-1.14,2-1.32,2.96-.65,6-.94,9.03-.89"/><path class="cls-45" d="m153.57,95.06c.38-.76.76-1.52,1.13-2.29,3.08,4.49,4.98,9.78,5.46,15.21,2.68-.31,4.48-2.89,5.55-5.36,2.79-6.45,3.1-13.75,2.07-20.7s-3.34-13.64-5.63-20.28c-1.21-3.5-2.42-7.01-3.63-10.51-2.71-7.83-5.9-16.29-12.99-20.58-2.1-1.27-4.58-2.11-6.99-1.67-1.33.24-2.56.87-3.68,1.62-4.87,3.27-5.25,8.56-2.63,13.61,1.33,2.56,3.21,4.78,4.83,7.16,2.23,3.29,3.98,6.9,5.17,10.69,1.13,3.59.99,7.18,1.96,10.71,1.1,4.01,2.29,8,3.83,11.87.73,1.84,1.54,3.66,2.46,5.42.31.6,3.26,4.78,3.1,5.1Z"/><path class="cls-1" d="m138.81,98.08c1.46.08,2.93.28,4.24.94,2.17,1.09,3.63,3.15,5.86,4.15-.91.11-1.85.12-2.77.32-2.6.56-4.95,1.97-7.54,2.55-3.96.89-8.2-.2-12.11.87-.38.1-.89.18-1.08-.16-.07-.13-.08-.29-.07-.44.09-1.34.77-1.8,1.59-2.66,3.55-3.73,6.47-5.85,11.87-5.56Z"/><path class="cls-1" d="m100.27,108.52c-2.08.25-4.18.5-6.26.27-2.12-.23-3.73-1.43-5.34-2.74-.59-.48-1.18-.96-1.77-1.44.97-.64,1.16-2.2,2.37-2.5,1.09-.27,2.37-.43,3.5-.59,2.63-.38,5.3-.13,7.94.16.48.05.96.11,1.42.23,1.66.46,3.18,1.86,4.1,3.27.35.53.62,1.13.63,1.77,0,.18-.03.38-.17.5-.08.06-.18.09-.28.11-.55.12-1.11.15-1.67.24-.36.06-.68.24-1.05.29-1.13.17-2.27.29-3.4.42Z"/><path class="cls-31" d="m127.17,127.01c.55,1.09.76,2.34.14,3.44-.66,1.15-1.82,2.35-3.18,2.59-.18.03-.37.04-.55-.01-.11-.03-.21-.09-.31-.15-1.19-.66-2.42-.87-3.76-.99-1.66-.14-3.41,1.71-4.38,2.89-.1.12-.32.24-.39.1-.02-.05,0-.11,0-.17.39-1.22,1.44-2.14,2.6-2.67,2.12-.96,4.53-.97,6.67-.03.72.32,1.25-.05,1.72-.64.7-.88,1.13-2.05.89-3.15-.1-.45-.29-.86-.49-1.27-.52-1.05-1.1-2.12-1.93-2.94,1.05.33,1.83,1.29,2.45,2.16.19.27.36.55.51.85Z"/><path class="cls-31" d="m140.07,142.71c.26.39.52.79.64,1.23.29,1.04-.21,2.12-.7,3.08,3.17-.63,1.63-4.65.77-6.56-1.4-3.1-3.17-5.8-5.84-7.93-1.6-1.28-3.2-2.56-4.8-3.83-1.01-.81-2.03-1.62-3.17-2.25.63,1.25,1.62,2.28,2.59,3.29,1.93,1.99,3.95,3.91,5.65,6.12s3.31,4.52,4.86,6.86Z"/><path class="cls-19" d="m127.59,148.83c-3.07,1.25-6.12,2.64-9.38,3.25s-6.82.38-9.59-1.44c-.6-.4-1.16-.87-1.6-1.44-.46-.62-.77-1.35-1.27-1.94-.6-.71-1.49-1.17-2.41-1.26,3.38-1.49,7.23-1.24,10.91-1.52,4.51-.34,9.05-1.51,13.5-.71,2.31.42,4.56,1.36,6.9,1.18.55-.04.91.14,1.45.22-.69.5-1.55.79-2.32,1.15-.48.22-.95.43-1.44.62-.42.16-.86.25-1.27.4-.28.11-.5.31-.78.43-.89.38-1.8.69-2.7,1.06Z"/><path class="cls-24" d="m109.22,148c.12.03.23.06.35.09.24.06.92.24,1-.16.01-.06,0-.12-.02-.18-.15-.52-.2-1.06-.16-1.6.03-.37.36-1.1.22-1.41-.03-.08-1.49.09-1.65.1-.28.02-.57.04-.84.1-.31.06-.24.19-.18.47.11.55.25,1.09.45,1.61.05.13.15.21.19.35.04.15.1.29.18.42.02.04.04.07.07.09.03.02.07.03.1.04.1.03.2.05.3.08Z"/><path class="cls-25" d="m110.13,146.41c0-.98.34-1.8,1.05-1.78.55.02,1.1.11,1.62.29.25.08.51.2.64.43.11.18.11.4.12.61.02,1.13,0,2.35-.7,3.24-.08.11-.18.21-.3.28-.12.07-.25.1-.38.1-1.33.08-2.06-1.72-2.05-3.18Z"/><path class="cls-25" d="m113.25,149.13c.58,1.22.62,1.27,1.4,1.31,1.11.05,2.52.14,2.8-.61.26-.71.27-1.35.3-2.11s-.09-2.39-.58-2.97c-.67-.79-3.52-.7-4.37.17-.96.98-.07,3.12.44,4.22Z"/><path class="cls-25" d="m117.94,149.93c.11.12.25.22.4.3.81.42,2.26.1,3.09-.08.18-.04.36-.1.52-.2.19-.13.33-.32.45-.52.78-1.39.42-3.18-.38-4.56-.22-.37-.51-.77-.94-.82-.17-.02-.34.02-.51.06-.67.15-1.34.22-2,.43-.09.03-.19.06-.26.12-.07.06-.1.14-.14.22-.37.82-.63,1.68-.78,2.57-.13.75-.02,1.86.57,2.48Z"/><path class="cls-24" d="m126.11,145.67c-.02.11-.02.22-.02.33.03.47.29.9.63,1.23.44.42,1.2,1.07,1.84.85.4-.14.79-.29,1.18-.44.33-.19.39-1.12.4-1.45.01-.55.13-1.04.25-1.58.02-.1.04-.21-.02-.29-.04-.06-.11-.08-.17-.1-.62-.2-1.23-.22-1.88-.25-.58-.03-1.16-.23-1.73-.07-.02.62-.4,1.19-.48,1.79Z"/><path class="cls-25" d="m122.56,144.9c-.17.61-.31,1.24-.29,1.87.02.7.24,1.54.79,2.02s1.73.3,2.49.36c.09,0,.18.01.26-.02.09-.04.15-.12.2-.21.45-.74.59-1.64.52-2.5s-.34-1.7-.67-2.5c-.04-.11-.09-.22-.18-.29-.39-.3-1.99-.02-2.44.09-.1.02-.2.05-.28.12-.1.08-.14.22-.18.34-.07.24-.15.47-.21.71Z"/><path class="cls-31" d="m137.93,144.38c-1.14-.72-2.93-.32-3.97.4.48.01.99.04,1.36.34.08.07.16.14.24.21.36.26.85.19,1.26.32.53.17.92.68.95,1.23,0,.11,0,.22.04.31s.15.18.25.15c.08-.02.12-.1.15-.17.19-.41.28-.9.3-1.35.03-.45-.1-1.05-.47-1.35-.04-.03-.09-.07-.13-.1Z"/><path class="cls-42" d="m119.6,150.42c-.68.07-1.37.1-2.04.25-.48.11-.95.27-1.44.37-1.11.23-2.25.11-3.37-.02-2.32-.26-4.34-.81-5.49-3.03-.26-.51-.46-1.09-.91-1.46-.51-.42-1.22-.47-1.89-.5-.59-.03-1.19-.05-1.78-.08.28.22.34.4.49.71,1.03,2.16,1.93,4.33,3.66,6.05.68.68,1.46,1.26,2.23,1.84.54.41,1.09.82,1.71,1.09,1.33.59,2.81.48,4.23.36.62-.05,1.2-.13,1.8-.25.69-.14,1.35.03,2.04.12,1.49.2,3.03-.06,4.38-.72.47-.23.91-.51,1.35-.78.92-.58,1.93-1.1,2.8-1.75.8-.6,1.61-1.21,2.41-1.82,2.38-1.8,4.73-3.65,7.12-5.42-.3.01-.6-.11-.9-.1-.39,0-.73.2-1.06.36-.41.19-.82.37-1.24.54-.74.29-1.62.69-2.42.75-.76.06-1.5.4-2.21.66-1.6.59-3.19,1.23-4.81,1.76-1.51.5-3.06.9-4.64,1.07Z"/><path class="cls-10" d="m132.9,144.24c-1.38-.43-2.67-1.11-4.06-1.5-1.09-.31-2.23-.43-3.36-.54-1.87-.18-3.77-.33-5.61.03-2.2.43-4.34,1.57-6.56,1.26-.68-.1-1.33-.33-2-.47-3.24-.69-6.58.78-9.19,2.81,3.29.76,6.62-1.41,9.98-1.09,1.27.12,2.49.6,3.77.59,1.06,0,2.08-.33,3.1-.6,3.36-.87,6.91-1.02,10.34-.43.58.1,1.16.24,1.73.38.31.07.63.17.95.22.2.03.4,0,.6.05.62.14,1.19.31,1.83.36.31.02.62.03.94.01.27-.01.61-.12.88-.09-.63-.07-1.23-.28-1.81-.53-.25-.11-.51-.27-.78-.33-.25-.06-.51-.05-.75-.13Z"/><path class="cls-41" d="m84.13,96.98c.29-.05.57-.09.86-.14-.89.19-1.81.29-2.72.28-.1,0-.21,0-.29-.07-.22-.16-.04-.51.17-.7,1.46-1.32,4.33-2.26,6.27-2.18,1.09.04,2.13.41,3.2.62,4.27.82,12.37-.25,14.34,4.86-1.61-.37-3.23-.74-4.84-1.12-4.38-1.01-8.75-1.48-13.19-2.22-1.64-.27-2.7-.58-3.79.67Z"/><path class="cls-37" d="m125.95,106.79c2.78-.99,5.83-.8,8.78-.77s6.46.33,8.56-1.75c1.3-1.29,2.66-1.24,3.43-1.35-.7-.35-1.94-.35-2.66-.06s-1.87.81-2.55,1.2c-.94.54-1.51.72-2.57.94-2.08.44-4.66.25-6.78.2s-4.34.07-6.2,1.1c-.39-.49-.03-1.21.41-1.66s1-.89,1.02-1.51c-1,.67-1.78,1.65-2.2,2.77-.12.32-.18.76.11.95.17.1.38.08.57.05,1.07-.17,2.14-.33,3.21-.5"/><path class="cls-36" d="m105.87,105.68c.25.37.49.81.36,1.23-.13.41-.57.65-1,.7s-.86-.06-1.28-.11c-1.54-.18-3.07.35-4.59.67-2.51.53-5.14.46-7.62-.19-.6-.16-1.19-.35-1.72-.66-.6-.35-1.1-.85-1.66-1.28-.59-.45-1.23-.83-1.91-1.13,1.72-.12,3.11,1.28,4.65,2.06,2.06,1.05,4.51.98,6.8.65s4.58-.89,6.89-.75c.33.02.81-.09.76-.42-.01-.07-.05-.13-.08-.19-.53-.87-1.12-1.73-1.59-2.63.67-.21,1.67,1.55,2,2.04Z"/><path d="m98.27,100.79c-1.97-.19-3.59-.34-5.55-.06-1.21.17-2.4.48-3.55.89s-2.16,1.21-3.23,1.86c.37-.22.97-.25,1.39-.3.52-.06,1.04-.33,1.53-.5,1.09-.39,2.18-.78,3.32-.98,1.69-.3,3.42-.38,5.13-.22.43.04.86.09,1.28.15,1.67.25,2.23.44,2.56.54.7.22,1.51.59,1.78.76.35.22.68.45.99.72s.59.59.88.9c.2.21.41.44.63.63.01-.12-.09-.27-.15-.36-.07-.12-.14-.23-.22-.34-.16-.22-.34-.43-.53-.63-.34-.36-.71-.68-1.08-1.01-.71-.63-1.69-1.11-2.55-1.47-.82-.35-1.78-.48-2.65-.57Z"/><path d="m130.88,99.89c.95-.51,2.1-1.11,3.16-1.3,1.79-.33,3.31-.32,5.32.03,1.79.32,3.59.75,5.1,1.76,1.5,1.01,2.82,2.5,4.62,2.74-1.69-.16-3.34-.7-4.79-1.57-.68-.41-1.31-.89-1.99-1.29-2.87-1.7-6.54-1.99-9.63-.74-1.79.72-3.12,2.03-4.75,2.98.59-1.06,1.92-2.05,2.96-2.61Z"/><path class="cls-34" d="m143.07,106.63c.05-.55-.32-1.08-.8-1.34-.41-.22-1.68-.53-1.82.09.48.04,2.71.45,2.63,1.26Z"/><path class="cls-34" d="m145.55,105.87c-.11-.51-.64-.8-1.12-1.02-.24-.11-.95-.29-.93-.58.02-.4.6-.2.77-.14.67.21,1.13,1.13,1.29,1.75Z"/><path d="m144.3,98.27c-1.02.62-2.06,1.55-3.37,1.15,1.16-.36,2.29-.48,3.37-1.15Z"/><path d="m89.7,101.67l-2.64-.75c.9.38,1.81.77,2.77.95"/><path class="cls-33" d="m90.51,109.37c.29-.22.62-.38.92-.57.27-.17.55-.37.86-.47.11-.03.22-.06.33-.08.23-.05.58-.2.81-.08-.09-.05-.18-.06-.28-.08-.27-.04-.55-.09-.82-.02-.7.18-1.35.77-1.83,1.29Z"/><path class="cls-33" d="m87.59,108.26c.35,0,.67-.14.96-.31.32-.19.66-.36,1-.51.25-.11.53-.22.8-.18-.1-.05-.21-.06-.31-.06-.47-.01-.94.11-1.34.35-.35.21-.66.71-1.11.71Z"/><path d="m147.88,99.67c-.24.72-.97,1.71-1.66,2.01-.12-1,1.38-1.18,1.66-2.01Z"/><path d="m137.42,103.07c.24.02.49-.04.7-.14.38-.19.69-.54.78-.96.04-.16.04-.34.02-.5-.16-1.09-1.53-1.51-2.34-.83-.93.78-.37,2.35.84,2.44Z"/><path d="m133.92,101.2c0,.86.34,1.69.75,2.46.24.45.52.9.96,1.16.35.21.76.28,1.17.32,1.3.11,2.69-.16,3.69-1.01s1.49-2.35.93-3.53c-.36-.76-1.09-1.31-1.88-1.6s-1.65-.37-2.49-.41c-1.69-.08-3.12.68-3.12,2.61Z"/><path d="m94.34,104.94c.24.72.7,1.34,1.19,1.9.4.44.84.86,1.39,1.06.29.1.6.14.91.14,1.08.02,2.16-.32,3.04-.97.53-.39,1.01-.9,1.23-1.55.39-1.13-.12-2.43-.97-3.23s-1.99-1.15-3.12-1.36c-.91-.16-2.44-.39-3.15.43-.77.88-.89,2.49-.53,3.56Z"/><path d="m131.7,98.27c1.18-.65,3.04-.97,4.38-1.1,1.45-.14,2.46-.1,3.9.11,1.24.18,2.43.61,3.58,1.12.97.43,1.92.92,2.73,1.59-2.04-1.11-4.27-1.83-6.54-2.3-.51-.11-1.5-.2-2.02-.24-1.04-.07-1.6.09-2.62.25-1.5.23-3.02.46-4.42,1.04.87-.37,1.76-.68,2.67-.93"/><path class="cls-22" d="m120.48,131.78c.52-.02,1.05-.03,1.55.09.76.18,1.63.39,1.95,1.2-1.04-.2-2.09-.39-3.15-.37s-2.14.28-2.98.92c-.59.45-1.05,1.06-1.69,1.43-.26.15-.63.24-.83.01-.22-.25-.04-.63.14-.9,1.09-1.65,3.04-2.38,5.01-2.38Z"/><path class="cls-9" d="m101.8,146.63c.04-.4.09-.81.25-1.18.47-1.11,1.69-1.68,2.52-2.55.89-.94,1.31-2.21,1.71-3.44.41-1.28.82-2.56,1.23-3.84.04-.12.08-.26.05-.38-.06-.24-.33-.34-.56-.41-1.02-.3-2.05-.92-2.93-.22-.78.63-1.16,2.91-1.41,3.83-.75,2.77-.51,5.41-.86,8.19Z"/><path class="cls-9" d="m109.45,105.4c.55,1.46.6,3.06.56,4.62-.1,4.25-.72,7.63-2.72,11.41.55-1.04,1.73-1.56,2.18-2.84.41-1.16.53-2.53.77-3.75.61-3.01.8-6.46-.25-9.4-.48-1.35-1.76-3.16-3.31-3.28.83,1.15,2.17,1.65,2.77,3.23Z"/><path class="cls-31" d="m106.14,100.45c1.71,1.57,3.28,3.57,3.38,5.9.04.93-.16,1.85-.38,2.75-.62,2.48-1.47,4.91-2.54,7.23.89-2.84,1.43-5.83,1.18-8.79s-1.34-5.91-3.37-8.09c1.92.44,3.58,1.89,4.27,3.74"/><path class="cls-51" d="m105.79,129.16c-.28-1.82.53-4.12,1.39-5.65.56-1.01,1.29-1.92,1.76-2.97.63-1.4.78-2.96.93-4.48-.48,2.27-1.56,4.4-3.11,6.12-.63.7-.77,1.33-1.3,2.1s-1.08,1.48-1.33,2.32c-.31,1.05-.81,1.96-1,3.06-.04.24-.08.48-.07.73.02.57.29,1.1.61,1.56.52.74,2.3,2.17,3,.85.64-1.21-.62-2.34-.85-3.45-.01-.06-.02-.12-.03-.18Z"/><path class="cls-30" d="m105.38,124.6c-.17.21-.2.84-.3,1.12-.13.39-.29.78-.48,1.15-.42.83-1.01,1.49-1.2,2.44-.17.81-.09,1.69.29,2.42.85,1.65,2.63,1.77,3.94,2.78.27.21.57.36.84.57.48.37.9.61,1.49.75.38.09.76.19,1.14.28-1.43.24-2.9.26-4.33.05-1.31-.19-2.07-.77-3.02-1.69-.4-.39-.78-.8-1.03-1.29-.36-.71-.44-1.54-.38-2.34.07-1.05.28-2.45.84-3.36.62-1,1.45-1.95,2.19-2.87Z"/><path class="cls-22" d="m107.55,133.03c-.16-.37-.43-.72-.81-.85-.27-.09-.57-.07-.82.05-.27.13-.51.41-.46.7.03.2.19.36.36.46s.37.16.56.24c.61.26.98.8,1.45,1.26.36.36.79.72,1.3.71-.3-.17-.48-.5-.64-.8-.39-.74-.87-1.49-1.15-2.28"/><path class="cls-49" d="m144.18,127.31c2.84-2.49,4.6-6.93,6.78-9.68.97-1.23,2.08-2.4,3.5-3.04,5.86-2.67,12.6,2.22,10.5,8.51-.82,2.46-2.58,4.52-4.56,6.2-4.29,3.62-9.75,5.68-15.31,6.41-2.23.29-4.52.38-6.72-.11-2.51-.56-5.33-2.38-7.2-4.1-2.57-2.36-2.95-5.41,1.52-4.45,3.14.67,6.54,3.04,9.75,1.46.63-.31,1.2-.71,1.74-1.18Z"/><path class="cls-2" d="m87.93,121.28c-.65-.28-1.35-.54-2.04-.4-.99.2-1.66,1.21-1.79,2.21s.15,2.01.44,2.98c.93,3.19,1.85,6.38,2.78,9.56.11.37.22.74.43,1.05.41.61,1.14.93,1.86,1.07,1.95.37,3.94-.38,5.67-1.34,3.11-1.72,7.87-4.42,4.12-7.67-3.37-2.92-7.37-5.68-11.47-7.45Z"/><path class="cls-48" d="m141.81,112.2c-2.42,2.37-6.19,2.43-9.57,2.35-2.64-.06-5.29-1.83-7.18-3.6-.37-.35-.75-.77-.78-1.28.02.34,3.78,1.36,4.22,1.5,1.52.47,3.08.86,4.67,1.04,2.88.32,5.76.25,8.64-.01Z"/><path class="cls-9" d="m88.04,112.72c3.86,2.29,8.92,2.41,12.89.31-1.46,2.05-3.93,3.35-6.45,3.37s-5.02-1.21-6.52-3.24c-.31-.41-.57-.85-.89-1.25"/><path class="cls-1" d="m102.53,48.53c-5.7,6.49-10.57,13.8-13.6,21.89s-4.12,17.01-2.35,25.46c.93-16.58,3.75-33.87,13.82-47.07.96-1.26,2.11-2.55,3.66-2.84-1.88,2.5-3.75,5-5.63,7.5"/><path class="cls-14" d="m175.01,72.29c5.39,13.37,13.07,25.82,22.6,36.64-1.1-.17-2.03-.86-2.88-1.57-6.41-5.3-11.2-12.4-14.44-20.06-3.24-7.66-4.99-15.88-5.95-24.15"/><path class="cls-13" d="m193.03,132.31c-3.37-3.9-6.76-7.83-9.32-12.3-1.88-3.28-3.52-7.09-3.82-10.9,4.02,8.02,7.92,15.85,13.14,23.2Z"/><path class="cls-16" d="m77.39,91.71c-1.92,11.68-4.9,23.18-8.87,34.32,3.06-6.09,6.14-12.21,8.08-18.75s2.71-13.55,1.08-20.17"/><path class="cls-15" d="m80.23,124.09c-.29,3.2-.67,6.39-1.24,9.55-1.11,6.09-2.95,12.09-6.11,17.45,3.35-5.68,6.58-10.58,8.06-17.17.73-3.24,1.1-6.56,1.08-9.88-.02-3.04-1.18-5.28-1.53-8.13,1.14,2.46-.04,5.63-.26,8.19Z"/><path class="cls-1" d="m151.69,53.81c-3.52,2.57-7.9,3.61-12.13,4.64-18.1,4.39-36.71,9.96-50.52,22.46-6.58,5.95-12.04,13.87-12.41,22.73.57-4.73-.22-9.52-.09-14.28.19-6.78,2.31-13.49,6.03-19.16,6.8-10.34,18.38-16.59,30.12-20.5,11.22-3.73,22.96-6.55,34.4-9.54,2.89-.76,9.24-1.62,9.9,2.11.76,4.29-1.98,9.11-5.31,11.54Z"/><path class="cls-1" d="m134.72,38.63c-1.68,4.17-5.03,7.48-8.76,9.99s-7.86,4.35-11.85,6.43c-11.78,6.15-22.3,14.45-32.15,23.36,5.4-10.63,13.68-19.46,21.86-28.14,8.37-8.89,19.73-11.97,30.98-16.71.39-.16.86-.32,1.21-.08.39.27.36.85.26,1.32-1.11,5.4-4.76,9.87-8.3,14.1"/><path class="cls-1" d="m93.5,40.13c-14.37,12.82-25.88,30.19-26.96,49.42-.47,8.42,1.06,16.83.97,25.26-.07,6.37-1.05,12.72-.65,19.08.39,6.1,2.07,12.13,1.76,18.24-.09,1.84-.35,3.79.45,5.44.77,1.59,2.37,2.59,3.92,3.45,9.83,5.47,20.79,8.89,31.99,9.99-3.58-3.84-6.94-7.88-10.59-11.66-2.97-3.07-4.62-5.31-6.14-9.45-3.42-9.29-4.84-19.21-5.22-29.06-.23-6.05.23-12.07.14-18.11-.1-6.46.23-12.93,1.47-19.28,2.17-11.15,11.65-20.93,19.41-28.88,6.46-6.62,13.94-12.39,22.49-15.92,2.58-1.06,5.25-1.92,7.69-3.27,3.65-2.02,8.46-6.07,4.2-9.78-2.79-2.42-6.66-3.32-10.35-3.08-3.68.24-7.22,1.52-10.59,3.04-4.31,1.93-8.2,5.03-12.57,6.69-4.41,1.68-7.91,4.73-11.43,7.87Z"/><path class="cls-1" d="m131.92,45.75c4.74,10.77,10.8,21.15,19.36,29.22,2.85,2.69,5.99,5.12,8.38,8.22,2.57,3.34,4.18,7.31,5.75,11.22.5,1.24,1,2.48,1.29,3.79.44,1.98.4,4.02.41,6.05.02,2.72.17,5.45.31,8.17.12,2.26.29,4.66,1.63,6.48.63-2.13,1.13-4.29,1.51-6.48,1.26,2.16,1.96,4.64,2.02,7.14.57-.65.79-1.52.97-2.37,1.43-6.9.74-13.97.02-20.91-.57-5.54-.64-10.91-2.65-16.13-2.35-6.09-4.6-11.55-8.22-17.06-3.87-5.89-7.95-11.74-13.07-16.63-2.53-2.42-5.03-3.94-6.74-7.06-.61-1.12-4.93-8.66-4.23-9.6-2.98,3.94-8.11,9.3-7.49,14.67.19,1.63,1.13,3.27,2.66,3.84"/><path class="cls-1" d="m159.8,25.61c4.05,3.19,5.9,7.99,9.54,11.4,4,3.74,7.2,8.53,10.43,12.96,3.68,5.06,7.64,10.36,10.36,16.02s4.65,11.68,6.41,17.6c1.63,5.5,2.06,10.81,2.85,16.46.92,6.6,1.35,13.27,1.26,19.94-.19-1.28-.69-2.52-1.45-3.57.21,3.23-.31,6.51-1.51,9.52-.53-.77-.9-1.64-1.1-2.55-.9,3.84-1.79,7.68-2.69,11.53.22-1.03.15-2.13-.2-3.13.05,2.83-.31,5.66-1.08,8.38-.82-.72-1.37-1.75-1.52-2.83.34,2.48-.91,5.5-1.58,7.84-.72,2.49-1.12,5.04-1.88,7.56l.14-3.39c-.71,4.33-.94,8.74-.69,13.11.26,4.58.9,9.7-1.99,13.26-.03-2.33-.07-4.67-.1-7,.22,3.86.18,7.73-.14,11.58.22-2.7-5.62-1.82-7.02-3.4-.74.86-1.38,1.81-1.89,2.83.08-.5.16-1.02,0-1.5s-.69-.87-1.17-.72c-.27.09-.47.32-.66.54-.53.65-1.06,1.3-1.59,1.95-.17-1.17-.46-2.33-.85-3.45-.6.76-1.2,1.51-1.8,2.27-.42-1.45-.78-2.92-1.09-4.4-.55.43-1.1.86-1.65,1.3.07-4.54-.65-8.79-1.32-13.2-1.16-7.74,1.25-15.45,2.69-22.95,1.54-8.07,2.51-16.25,2.88-24.45.34-7.48.19-14.97-.06-22.45-.12-3.49.01-6.51-1.36-9.74-1.24-2.91-2.69-5.73-4.37-8.41-3.7-5.92-8.36-11.16-13-16.38-3.35-3.77-6.71-7.54-10.06-11.31-2.21-2.48-4.5-5.13-5.18-8.38-.59-2.82.17-5.64,1.42-8.17,1-2.02,1.86-4.27,3.86-5.41s5.04-2.22,7.41-2.47c3.5-.38,6.96,1,9.76,3.21Z"/><path class="cls-6" d="m121.18,42.09c-10.19,14.18-14.43,32.24-11.57,49.29"/><path class="cls-6" d="m123.42,40.68c-1.92,3.98-3.39,8.19-4.37,12.5-1.96,8.68-1.92,17.67-1.86,26.57.02,3.65.05,7.3.07,10.95"/><path class="cls-26" d="m60.76,188.13c1.63-.38,3.25-.74,4.88-1.1,5.21-1.14,10.69-1.85,15.64-3.79,3.02-1.18,5.71-2.64,8.81-3.67,3.37-1.12,6.75-2.24,10.12-3.36.9-.3,1.81-.6,2.73-.85.19-.05.39-.1.56,0,.33.17.27.67.11,1.01-1.25,2.72-5.74,2.79-8.28,3.87-3.26,1.38-4.66,2.24-7.5,4.36-.58.44-1.11,2.29-1.38,2.96-.37.9-1.5,3.66-1.25,4.61,1.3,4.98.83,8.01.78,13.16-.05,6.03-1.29,12.97-1.08,19,.19,5.66,1.37,10.75,2.33,16.33,2.05,11.83,12.85,24.01,13.97,36.02-5.56,0-20.11-1.59-25.6-2.68-9.58-1.9-17.54-3.69-25.9-8.81-3.78-2.31-7.98-3.04-11.96-4.85-4.43-2.01-7.73-5.31-10.86-8.95-5.06-5.9-9.83-12.23-12.96-19.39-1.18-2.7-3.81-8-3.19-11.02.48-2.31,3.95-4.93,5.44-6.95,2.2-2.99,4.5-5.92,7.15-8.53,6.96-6.85,16.03-11.18,25.34-14.13,3.98-1.26,8.02-2.29,12.09-3.23Z"/><path class="cls-27" d="m87.5,184.59c-.39.53-.82,1.11-1.11,1.71-1.12,2.3-1.28,2.97-1.38,5.39-.57,13.16-2.51,25.1-1.27,38.28,1.23,13.09,9.65,24.44,15.33,36.42-.93-1.96-3.04-10.52-3.72-12.63-1.15-3.53-3.43-5.83-5.22-8.85s-2.09-7.26-2.04-10.64c.11-7.15,2.86-14.32,7.91-19.44,2.19-2.21,4.97-4.56,4.77-7.67-.09-1.45-.85-2.77-1.54-4.05-1.84-3.39-3.36-7.06-3.5-10.91-.2-5.57,3.2-9.31,6.87-13.01,1.15-1.16,2.43-2.06,3.86-2.85,1.04-.57,1.22-.37.64-1.32-.41-.67-1.41-1.28-2-1.81.41.37-11.96,6.49-13,7.08-1.69.97-3.73,3.1-4.59,4.29Z"/><path class="cls-26" d="m223.72,204.8c4.07,1.78,8.43,2.91,12.38,4.94,2.99,1.54,5.7,3.61,8.01,6.05,3.03,3.21,3.26,4.75,2.77,9.03-1.72,15.18-12.21,25.05-24.77,31.96-4.88,2.69-10.17,4.54-15.43,6.38-21.46,7.51-43.57,15.12-66.28,14.18-3.43-.14-17.05.33-20.47.08,12.79-21.47,21.7-25.1,33.66-38.36,9.67-10.73,30.34-24.4,39.76-35.34,1.05-1.22,2.09-2.5,2.63-4.02,1.49-4.19-1.2-8.73-4.38-11.83-2.14-2.08-4.65-3.58-6.97-5.35,7.06.38,14.26,5.83,19.79,9.81,6.22,4.48,12.26,9.39,19.33,12.48Z"/><path class="cls-7" d="m171.71,175.69c.7,0,1.45.49,1.56.84.92,2.95,1.51,5.29.73,8.7-1.21,5.29-5.34,9.78-8.41,14.15-3.39,4.83-7.54,9.1-12.05,12.9-9.74,8.22-21.01,14.45-31.19,22.1-2.24,1.68-3.85,3.77-6.08,5.45"/><path class="cls-8" d="m111.38,239.06c-1.87-8.58-3.74-17.16-5.62-25.74-1.23-5.64-2.46-11.29-3.08-17.03"/><path class="cls-4" d="m115.74,239.43c-1.3-1.07-3.47-.82-4.5.51-.35.45-.58,1.03-.52,1.6.06.57.4,1.09.82,1.48.95.9,2.42,1.27,3.63.79s2.04-1.88,1.74-3.15c-.28-1.22-1.5-2.08-2.75-2.18s-2.48.46-3.42,1.28"/><path class="cls-3" d="m111.07,241.39c-1.05.76-1.19,2.49-.28,3.41.27.28.62.48,1.01.55.8.15,1.63-.32,2.08-.99s.61-1.51.64-2.32c.02-.45-.02-.95-.32-1.29-.17-.19-.41-.31-.65-.38-1.05-.33-2.29.1-2.91,1s-.59,2.21.09,3.08"/><path class="cls-50" d="m125.46,169.48c-1.42-.75-3.15-.76-4.69-.31s-2.94,1.3-4.26,2.22c-.82.57-1.64,1.18-2.16,2.03s-.69,1.98-.17,2.83c.31.51.83.85,1.35,1.15,4.04,2.28,9.3,2.21,13.29-.16.55-.33,1.08-.7,1.47-1.2.99-1.27.84-3.19-.09-4.5s-2.49-2.07-4.08-2.35-3.21-.13-4.81.05"/><path class="cls-5" d="m172.99,129.34c.42.32.82.77,1.11,1.24.4.67.64,1.47.49,2.24s-.79,1.35-1.54,1.57c-.85.25-1.94-.38-2.33-1.17-.65-1.32-.51-1.8-.16-2.61"/><path class="cls-6" d="m111.17,43.97c-10.19,13.86-14.24,32.07-10.88,48.94"/><path class="cls-6" d="m139.91,43.05c9.23,16.14,14.69,34.18,18.57,52.38"/><path class="cls-6" d="m140.43,38.51c4.04,1.32,6.97,4.84,9.16,8.49,6.12,10.19,8.14,22.25,9.83,34.01"/><path class="cls-6" d="m105.04,45.97c-8.22,11.13-12.88,24.85-13.13,38.68"/><path class="cls-48" d="m114.9,164.22c.76-.58,1.64-1.01,2.57-1.24.92-.23,1.87-.29,2.82-.28.97,0,1.96.07,2.88.37s1.8.83,2.36,1.62c.18-.8-.15-1.66-.72-2.26s-1.34-.96-2.13-1.18c-2.41-.68-5.15-.1-7.08,1.5-.63.52-1.21,1.21-1.28,2.02.63-.61,1.44-1.03,2.3-1.2"/><path class="cls-23" d="m114.9,125.07c-1.65-.21-3.42.06-4.73,1.08.17-.13.41-.24.6-.31-.86.38-1.67.89-2.05,1.79s-.16,2.17.68,2.77c.6.43,1.4.48,2.12.36,1.52-.26,2.89-.89,4.44-1.03,1.24-.11,2.33-.05,3.24-1.04,2.31-2.51-2.6-3.41-4.3-3.62Z"/><path class="cls-30" d="m100.02,144.06c-1.18.1-1.67,1.74-1.15,2.68.14.26.36.53.28.82-.38.06-.76-.15-1-.44s-.36-.67-.44-1.05c-.05-.23-.08-.49.03-.7.07-.13.2-.23.33-.31.26-.17,1.79-.99,1.96-1Z"/><path class="cls-28" d="m193.77,189.57c2.31,3.18,4.32,7.4,2.52,10.9-.66,1.28-1.75,2.27-2.83,3.23-6.28,5.63-12.56,11.26-18.84,16.89,3.15-4.74,6.83-9.13,10.94-13.06,2.52-2.41,5.28-4.75,6.71-7.94,1.35-3.01,1.31-6.61-.09-9.59-1.16-2.47-3.12-3.98-5.26-5.5,1.62-1.85,5.9,3.76,6.85,5.07Z"/><path class="cls-21" d="m76.91,197.83c-1.82,6.94-3.96,14.29-5.11,21.28-1.23,7.45.52,15.48,2.08,22.74,2.46,11.39,5.43,22.67,8.91,33.8-2.69-4.28-6.06-7.88-7.88-12.6-2.06-5.36-3.82-10.86-5.09-16.47-2.48-10.98-2.96-22.41-.31-33.4.95-3.96,2.12-7.87,3.5-11.71.81-2.25,4.47-7.84,4.18-10.03,1.06,7.87-.38,16.06-4.07,23.1"/><path class="cls-21" d="m183.09,229.45c-2.19,2.87-6.79,5.09-9.53,7.61-3.29,3.02-6.34,6.29-9.14,9.76-4.76,5.91-11.26,14.25-12.7,21.76,5.49-1.15,11.67-13.36,15-17.72,5.46-7.14,10.92-14.27,16.37-21.41Z"/><path class="cls-21" d="m232.28,229.73c-.89,7.93-1.77,15.87-2.66,23.8-2.11-7.43-2.48-15.35-1.05-22.94.29-1.55.66-3.08,1.23-4.55.7-1.78,2.5-6.46,4.37-3.71,1.29,1.91-.85,7.23-1.3,9.28-1.48,6.8-3.1,13.69-2.64,20.7-.62-9.53.42-19.16,3.06-28.33.4-1.38.83-2.79,1.66-3.93"/><path class="cls-21" d="m31.13,211.61c-3.51,13.94-3.35,28.81.64,42.63-.02-3.26-.05-6.51-.07-9.77-.09-12.97-.18-26.02,1.83-38.83-4.02,7.43-5.83,15.66-5.47,24.1"/></g></svg>