<?xml version="1.0" encoding="UTF-8"?><svg id="THANA" xmlns="http://www.w3.org/2000/svg" xmlns:xlink="http://www.w3.org/1999/xlink" viewBox="0 0 262 280"><defs><style>.cls-1,.cls-2{stroke:#000;stroke-linecap:round;stroke-linejoin:round;}.cls-1,.cls-2,.cls-3{fill:none;}.cls-4{fill:url(#Namnlös_övertoning_85-8);}.cls-5{fill:url(#Namnlös_övertoning_2702);}.cls-6{fill:#f2f2f2;}.cls-7{fill:#ecceb7;}.cls-8{fill:#f5deae;}.cls-9{fill:#e6bea0;}.cls-10{fill:#b1aa97;}.cls-11{fill:#ab8767;}.cls-12{fill:#ccc7b4;}.cls-13{fill:#dad8d2;}.cls-14,.cls-15,.cls-16{fill:#d5a38a;}.cls-17,.cls-18{fill:#c98969;}.cls-19,.cls-20,.cls-21{fill:#2c3242;}.cls-22{fill:url(#Namnlös_övertoning_2702-3);opacity:.84;}.cls-23{fill:url(#Namnlös_övertoning_2702-2);}.cls-23,.cls-24{opacity:.6;}.cls-25{fill:url(#Namnlös_övertoning_85-3);opacity:.37;}.cls-26{fill:url(#Namnlös_övertoning_85-2);opacity:.47;}.cls-24{fill:url(#Namnlös_övertoning_373-2);}.cls-27{fill:url(#Namnlös_övertoning_85-4);}.cls-27,.cls-28{opacity:.21;}.cls-29{fill:url(#Namnlös_övertoning_85-5);}.cls-29,.cls-30{opacity:.53;}.cls-30{fill:url(#Namnlös_övertoning_85-6);}.cls-31{fill:url(#Namnlös_övertoning_85-7);opacity:.49;}.cls-32{fill:url(#Namnlös_övertoning_282);}.cls-33{fill:url(#Namnlös_övertoning_351);}.cls-34{fill:url(#Namnlös_övertoning_373);}.cls-35{fill:url(#Namnlös_övertoning_308);}.cls-36{fill:url(#Namnlös_övertoning_318);}.cls-37{fill:url(#Namnlös_övertoning_247);}.cls-15{opacity:.2;}.cls-2{stroke-width:.25px;}.cls-38{fill:url(#Namnlös_övertoning_247-3);}.cls-39{fill:url(#Namnlös_övertoning_247-2);}.cls-40{fill:url(#Namnlös_övertoning_247-4);}.cls-41,.cls-21{opacity:.4;}.cls-42{fill:url(#Namnlös_övertoning_78);}.cls-3{stroke:url(#Namnlös_övertoning_335);stroke-miterlimit:10;stroke-width:.75px;}.cls-28{fill:url(#Namnlös_övertoning_85);}.cls-16{opacity:.57;}.cls-18{opacity:.71;}.cls-20{opacity:.26;}</style><linearGradient id="Namnlös_övertoning_85" x1="139.75" y1="102.64" x2="149.29" y2="102.64" gradientUnits="userSpaceOnUse"><stop offset="0" stop-color="#aa8260"/><stop offset="1" stop-color="#d0997d"/></linearGradient><linearGradient id="Namnlös_övertoning_373" x1="108.26" y1="156.41" x2="171.07" y2="156.41" gradientUnits="userSpaceOnUse"><stop offset="0" stop-color="#c3997d"/><stop offset="1" stop-color="#e7c5a3"/></linearGradient><linearGradient id="Namnlös_övertoning_78" x1="113.12" y1="151.02" x2="172.04" y2="151.02" gradientUnits="userSpaceOnUse"><stop offset="0" stop-color="#aa8260"/><stop offset="1" stop-color="#ddb5a1"/></linearGradient><linearGradient id="Namnlös_övertoning_85-2" x1="101.73" y1="108.89" x2="150.58" y2="108.89" xlink:href="#Namnlös_övertoning_85"/><linearGradient id="Namnlös_övertoning_373-2" x1="104.37" y1="49.24" x2="183.76" y2="49.24" xlink:href="#Namnlös_övertoning_373"/><linearGradient id="Namnlös_övertoning_2702" x1="122.12" y1="84.59" x2="134.38" y2="84.59" gradientUnits="userSpaceOnUse"><stop offset="0" stop-color="#bf9072"/><stop offset="1" stop-color="#ddaf8f"/></linearGradient><linearGradient id="Namnlös_övertoning_85-3" x1="131.12" y1="103.5" x2="160.68" y2="103.5" xlink:href="#Namnlös_övertoning_85"/><linearGradient id="Namnlös_övertoning_85-4" x1="156.79" y1="103.72" x2="181.36" y2="103.72" xlink:href="#Namnlös_övertoning_85"/><linearGradient id="Namnlös_övertoning_85-5" x1="135.54" y1="128.86" x2="144.63" y2="128.86" xlink:href="#Namnlös_övertoning_85"/><linearGradient id="Namnlös_övertoning_85-6" x1="135.27" y1="128.64" x2="153.4" y2="128.64" xlink:href="#Namnlös_övertoning_85"/><linearGradient id="Namnlös_övertoning_85-7" x1="104.38" y1="106.39" x2="132.7" y2="106.39" xlink:href="#Namnlös_övertoning_85"/><linearGradient id="Namnlös_övertoning_351" x1="127.35" y1="119.78" x2="140.98" y2="119.78" gradientUnits="userSpaceOnUse"><stop offset="0" stop-color="#9b6c44"/><stop offset="1" stop-color="#d0997d"/></linearGradient><linearGradient id="Namnlös_övertoning_85-8" x1="150.42" y1="119.23" x2="161.18" y2="119.23" xlink:href="#Namnlös_övertoning_85"/><linearGradient id="Namnlös_övertoning_318" x1="130.92" y1="117.6" x2="158.71" y2="117.6" gradientUnits="userSpaceOnUse"><stop offset="0" stop-color="#cf907c"/><stop offset=".53" stop-color="#b96751"/><stop offset="1" stop-color="#cf907c"/></linearGradient><linearGradient id="Namnlös_övertoning_308" x1="131.57" y1="122.39" x2="158.82" y2="122.39" gradientUnits="userSpaceOnUse"><stop offset="0" stop-color="#cf907c"/><stop offset=".53" stop-color="#b76751"/><stop offset="1" stop-color="#cf907c"/></linearGradient><linearGradient id="Namnlös_övertoning_282" x1="130.37" y1="119.65" x2="159.4" y2="119.65" gradientUnits="userSpaceOnUse"><stop offset="0" stop-color="#bf6751"/><stop offset=".52" stop-color="#a95b43"/><stop offset="1" stop-color="#bf6751"/></linearGradient><linearGradient id="Namnlös_övertoning_2702-2" x1="153.97" y1="84.24" x2="170.51" y2="84.24" xlink:href="#Namnlös_övertoning_2702"/><linearGradient id="Namnlös_övertoning_2702-3" x1="189.98" y1="83.67" x2="192.06" y2="83.67" xlink:href="#Namnlös_övertoning_2702"/><radialGradient id="Namnlös_övertoning_335" cx="150.37" cy="207.44" fx="150.37" fy="207.44" r="45.63" gradientUnits="userSpaceOnUse"><stop offset="0" stop-color="#2c3242"/><stop offset=".51" stop-color="#dad8d2"/><stop offset="1" stop-color="#2c3242"/></radialGradient><linearGradient id="Namnlös_övertoning_247" x1="169.01" y1="167.52" x2="206.85" y2="167.52" gradientUnits="userSpaceOnUse"><stop offset="0" stop-color="#7b7760"/><stop offset=".91" stop-color="#b1aa97"/></linearGradient><linearGradient id="Namnlös_övertoning_247-2" x1="166.6" y1="76.66" x2="173.48" y2="76.66" xlink:href="#Namnlös_övertoning_247"/><linearGradient id="Namnlös_övertoning_247-3" x1="170.25" y1="78.19" x2="174.11" y2="78.19" xlink:href="#Namnlös_övertoning_247"/><linearGradient id="Namnlös_övertoning_247-4" x1="173.48" y1="78.21" x2="174.81" y2="78.21" xlink:href="#Namnlös_övertoning_247"/></defs><g id="BG-3"><circle class="cls-8" cx="131.65" cy="130.77" r="129"/></g><g id="THANA-2"><path class="cls-28" d="M146.85,100.79c-.38,1.25-2.15,1.22-3.41,.87s-2.97-.57-3.55,.61c-.59,1.2,.77,2.49,2.07,2.82,2.61,.67,5.6-.55,6.98-2.87,.21-.34,.38-.73,.34-1.13-.1-.9-1.3-1.29-2.16-.97-.85,.32-1.46,1.06-2.13,1.67s-1.6,1.12-2.46,.83"/><path class="cls-11" d="M168.14,179.66c.07,.16,.14,.32,.21,.48,1.49-.65,2.51-2.11,3.02-3.66s.57-3.2,.64-4.83c.1-2.63,.2-5.27,.3-7.9,.06-1.48,.11-2.97-.04-4.44-.22-2.12-.82-4.27-1.64-6.24s-1.9-3.48-2.3-5.54c.43,2.18-.9,5.12-1.48,7.19-.67,2.41-.99,4.73-.91,7.23,.12,3.48,.62,6.95,.52,10.44-.09,2.94,.5,4.59,1.68,7.28Z"/><path class="cls-34" d="M168.85,178.23c.52,2.31,1.1,4.93-.22,6.9-1.61,2.41-5.07,2.48-7.96,2.24-4.86-.4-9.71-.92-14.54-1.57-7.73-1.04-15.99-2.69-21.35-8.36-4.25-4.5-5.94-10.77-7.47-16.77-3.02-11.78-6.03-23.56-9.05-35.34,13.87,6.48,29.53,9.06,44.75,7.48,4.24-.44,15.18-4.58,17.58,.68,1.9,4.16-2.53,13.88-3.05,18.21-1.08,8.82-.65,17.83,1.3,26.51Z"/><path class="cls-42" d="M154.35,157.59c-.42,2.58-.48,5.28-1.6,7.64-.31,.66-.74,1.31-1.39,1.63-1.89,.93-3.79-1.52-3.92-3.63-.12-2.11,.5-4.41-.58-6.22-.69-1.15-1.93-1.84-3.14-2.41-5.73-2.74-11.96-4.29-17.73-6.94-4.57-2.1-9.09-5.1-11.87-9.39-4.18-6.47,6.08-1.76,8.51,.07,1.98,1.49,3.65,3.38,5.75,4.69,2.29,1.42,4.96,2.05,7.58,2.63,7.28,1.61,15.29,2.89,21.86-.64,5.11-2.75,8.69-8.13,14.24-9.81-.73,3.42-4.21,5.37-7.06,7.41-4.86,3.47-9.65,8.86-10.64,14.98Z"/><path class="cls-7" d="M110.13,44.29c-5.41,4.34-6.52,12-7.12,18.9-1.67,19.17-2.43,38.75,2.3,57.4,.75,2.96,1.65,5.92,3.26,8.51,2.13,3.43,5.36,6.01,8.58,8.43,5.22,3.93,10.65,7.68,16.73,10.07s12.9,3.34,19.18,1.57c5.14-1.45,8.64-4,11.91-8,3.44-4.2,9.05-6.16,12.21-10.61,1.42-2,2.16-4.68,2.92-7.03,2.29-7.08,3.26-14.52,4.21-21.9,1.84-14.19,3.65-28.83-.18-42.62-.86-3.1-2.02-6.15-3.8-8.83-2.04-3.06-4.83-5.54-7.79-7.71-7.2-5.27-15.59-8.9-24.36-10.52-9.47-1.75-19.61-1.09-28.19,3.29-8.58,4.39-15.32,12.84-16.29,22.42"/><path class="cls-26" d="M143.45,119.86c.15-14.69,.3-29.39,.46-44.08,.14-13.3-1.67-27.78,2.79-40.42,.35-.99,.7-2.05,.42-3.06-.06-.21-.15-.4-.25-.58-9.09-1.46-18.69-.67-26.87,3.51-8.2,4.2-14.71,12.11-16.11,21.18-.43,2.25-.68,4.56-.87,6.78-1.67,19.17-2.43,38.75,2.3,57.4,.72,2.83,2.07,5.51,2.53,8.35,.44,2.7-.38,5.02,.56,7.73,.99,2.85,2.89,5.31,4.31,7.94,2.85,5.32,3.79,11.41,5.09,17.31s3.16,11.95,7.36,16.28c5.57,5.76,11.1,6.34,18.92,6.96,2.18,.17,4.51,.3,6.29,1.58,1.38-16.98-4.65-34.24-6.46-51.03-.57-5.26-.51-10.56-.46-15.85Z"/><path class="cls-16" d="M153.29,77.05c-1.91,5.01,.37,11.63,1.37,16.45-.93-1.33-1.86-2.65-2.79-3.98-1.05-1.5-2.12-3.04-2.67-4.79-1.24-3.94,.37-8.25,2.75-11.63,.98-1.39,2.11-2.72,3.55-3.64,1.64-1.05,3.57-1.54,5.48-1.91,2.94-.57,6.99-.91,9,1.72-4.47,1.24-10.65,1.03-14.29,4.29-1.14,1.02-1.9,2.2-2.39,3.49Z"/><path class="cls-14" d="M129.19,69c-1.64,.3-3.28,.61-4.92,.91-.96,.18-2.22,.86-1.83,1.76,.12,.28,.39,.47,.65,.63,2.59,1.66,5.57,2.64,8.21,4.24,2.63,1.6,5.03,4.09,5.28,7.16,1.62-1.25,2.87-3.03,3.28-5.04,.4-2.01-.1-4.22-1.5-5.72-1.3-1.4-3.19-2.06-4.99-2.66-3.27-1.1-7.2-2.07-9.88,.09"/><path class="cls-24" d="M164.68,58.57c-6.01-1.46-12.13-2.96-17.37-6.24-3.86-2.42-7.21-5.79-11.51-7.29-3.98-1.39-8.35-1.04-12.49-.24-2.89,.56-5.92,1.42-7.87,3.63-3.88,4.4-1.68,12.43-6.73,16-6.8,4.8-3.69-10.62-3.27-13.4,.93-6.1,9.03-16.77,15.4-17.81,1.57-.26,3.18,.05,4.75,.35,10.13,1.94,20,3.89,29.68,7.53,4.89,1.84,9.75,3.74,14.58,5.71,3.27,1.33,6.59,2.73,9.31,4.98,2.65,2.19,7.03,7.64,2.9,9.37s-13.11-1.54-17.39-2.58Z"/><path class="cls-2" d="M134.88,81.28c-1.24-2.54-3.58-3.63-6.27-4.23-3.29-.74-6.13,.33-9.17,1.53-.86,.34-1.27,.76-2.15,1.06s-1.08,.47-2.11,.56"/><path d="M134.88,81.28c-1.24-2.54-3.58-3.63-6.27-4.23-3.29-.74-6.13,.33-9.17,1.53-.86,.34-1.27,.76-2.15,1.06s-1.08,.47-2.11,.56c1.49-.6,2.99-1.44,4.47-2.04,2.49-1,5.09-2.03,7.77-1.85,2.18,.14,4.3,1.12,5.83,2.68"/><path class="cls-2" d="M131.18,76.42c-2.93-.86-6.26-1.56-9.27-.57-1.65,.55-3.25,1.23-4.78,2.05"/><path class="cls-2" d="M116.82,80.33c.96-.15,1.93,.18,2.85,.5,.9,.32,1.81,.64,2.71,.96,.32,.11,.65,.23,.98,.3,.52,.11,1.6,.32,2.13,.32,.64,0,1.15-.07,1.65-.17"/><path d="M122.87,78.46c-.01,1.12,.49,2.3,1.46,2.87,.64,.37,1.52,.56,2.26,.48,2.06-.21,3.35-2.22,2.91-4.2-.06-.26-.16-.54-.4-.68-.15-.09-.33-.11-.5-.12-.46-.04-.91-.08-1.37-.12-.72-.06-1.44-.13-2.16-.07-.57,.05-1.3,.15-1.78,.51-.37,.28-.43,.91-.44,1.34Z"/><path class="cls-5" d="M134.03,83.84c.16-.12,.34-.27,.35-.47,0-.19-.14-.35-.32-.41s-.37-.04-.55,0c-.54,.13-1.01,.45-1.5,.71-1.86,1.01-4.01,1.3-6.11,1.57-.54,.07-1.07,.14-1.61,.16-.73,.03-1.47-.02-2.17-.23,1.09,.55,2.28,.9,3.49,1.03,2.1,.22,4.22-.22,6.19-.96,.9-.34,1.82-.78,2.35-1.58,.06-.09,.12-.2,.12-.31,0-.18-.16-.34-.33-.4s-.36-.04-.55-.02"/><path class="cls-15" d="M169.9,85.25c1.55-.68,3.05-1.69,3.82-3.2-.49,.96-3.67,1.68-4.64,1.95-1.66,.46-3.38,.71-5.1,.75-1.72,.04-3.45-.13-5.13-.51-1.42-.32-2.88-1.19-4.27-1.38,.26,2.14,4.09,2.94,5.73,3.26,3.2,.63,6.59,.44,9.61-.87Z"/><path class="cls-25" d="M156.05,98.9c1.11,1.37,2.21,2.74,3.32,4.11,.46,.57,.93,1.15,1.17,1.84s.21,1.52-.27,2.08c-.38,.45-.97,.65-1.55,.74-1.73,.29-3.51-.17-5.27-.06-2.11,.13-4.11,1.07-6.22,1.19-2.21,.12-4.39-.67-6.61-.63-1.38,.03-2.74,.38-4.12,.47s-2.88-.12-3.91-1.04c-1.32-1.18-1.51-3.16-1.46-4.93,1.22,.73,1.56,2.43,2.76,3.18,1.69,1.05,3.82-.35,5.81-.43,1.89-.08,3.66,1.07,5.55,1,2.26-.09,4.35-1.9,6.55-1.4,.8,.18,1.5,.66,2.28,.91s1.76,.22,2.26-.43c.34-.45,.36-1.06,.36-1.63,0-1.89-.01-3.78-.02-5.67,.74,1.58,1.52,3.21,2.83,4.36,.3,.26,.62,.5,.83,.83,.65,1.04-.1,2.36-.82,3.35"/><path class="cls-27" d="M161.92,99.77c-.96-.61-1.92-1.22-2.88-1.83-.38-.24-.81-.5-1.26-.44-.92,.13-1.14,1.39-.91,2.29,1.2,4.57,7.37,6.2,9.03,10.62,.33,.88,.46,1.84,.88,2.68,.42,.84,1.25,1.59,2.19,1.5,1.28-.13,1.89-1.6,2.23-2.84,1.1-3.91,2.31-7.92,4.87-11.08,1.51-1.86,3.44-3.36,4.77-5.36,.38-.57,.7-1.3,.38-1.9-.4-.75-1.56-.71-2.21-.18s-.96,1.38-1.32,2.14c-1.33,2.76-3.87,4.91-6.82,5.75s-6.24,.37-8.83-1.27c-1.54-.98-3.36-2.4-4.95-1.5,.05,1.33,.01,3.85,.74,4.97,.31,.48,.71,.88,1.12,1.27,1.01,.95,2.09,1.81,3.16,2.69,.53,.44,1.06,.88,1.58,1.34,.95,.83,1.78,1.42,2.48,2.54,.47,.76,.85,1.6,1.45,2.27,.74,.83,2.05,1.5,2.84,.43,.6-.81,.67-1.91,.82-2.87"/><path class="cls-29" d="M144.63,130.85c-.77-.12-1.5-.39-2.22-.66-1.16-.43-2.32-.87-3.48-1.3-1.25-.47-2.56-.98-3.38-2.02"/><path class="cls-30" d="M135.27,126.36c1.9,.46,3.81,.92,5.71,1.38,1.97,.48,3.99,.95,5.99,.67,.89-.13,1.76-.4,2.62-.68,1.27-.41,2.54-.82,3.81-1.22-1.23,1.17-2.47,2.34-3.93,3.2s-3.18,1.39-4.85,1.13"/><path class="cls-31" d="M132.28,96.71c-.36-.19-.8-.07-1.18,.08-.2,.07-.39,.16-.58,.24-.76-.25-1.64-.02-2.44,.29-.46,.14-.9,.33-1.29,.58-1.26,.8-2.19,2.02-3.07,3.24-.22,.28-.43,.56-.62,.85-.9,1.25-1.89,2.49-3.23,3.24-1.74,.98-3.9,1.02-5.81,.44-1.91-.58-3.6-1.72-5.13-3.01-1.01-.85-2-1.79-3.23-2.27-.23-.09-.49-.17-.73-.09-.38,.12-.53,.57-.58,.96-.15,1.44,.57,2.82,1.27,4.09,.79,1.44,1.58,2.88,2.37,4.32,.44,.79,.87,1.59,1.45,2.28,1.44,1.72,3.6,2.62,5.67,3.47,.98,.4,2,.81,3.06,.76,2.61-.13,3.73-2.55,4.86-4.5,.02-.03,.05-.05,.07-.07,.66-.74,1.21-1.56,1.71-2.41,1.04-1.28,2.12-2.54,2.81-4.05,.5-1.09,.71-2.16,1.79-2.76,1.02-.56,1.95-1.53,2.25-2.69,.07-.25,.08-.51,.07-.77,.29-.22,.55-.45,.73-.76,.27-.47,.22-1.19-.26-1.45Z"/><path class="cls-17" d="M125.9,109.4c.38-.37,.74-.75,1.06-1.15,1.09-1.32,1.75-3.11,2.47-4.64,1.07-2.28,2.47-3.9,3.91-5.94-1.75,.83-3.57,1.72-4.7,3.29-.53,.74-.89,1.59-1.36,2.36-.78,1.26-1.86,2.3-2.81,3.45-3.13,3.81-3.72,7.99-3.9,12.79,.14-1.66,.46-3.31,.95-4.9,.15-.49,.32-.97,.58-1.41,.32-.53,.77-.98,1.21-1.41,.82-.81,1.74-1.6,2.59-2.43Z"/><path class="cls-17" d="M163.46,108.97c-1.54-1.28-3.15-2.38-4.38-3.99-.76-.99-1.55-2.08-2.17-3.16s-1.41-5.21-1.14-5.43c.39,1.11,1.66,5.06,2.4,5.87,1.63,1.79,3.4,3.85,4.95,5.18,.8,.69,1.65,1.31,2.36,2.09,2.09,2.3,2.61,5.58,3.05,8.66-.31-2.28-.67-4.67-2.07-6.49-.82-1.07-1.94-1.87-2.98-2.73Z"/><path class="cls-17" d="M132.82,106.73c-1.02-1.31-1.29-3.09-1-4.72s1.07-3.14,2-4.51c-4.31,3.14-3.17,9.5,2.51,9.62,1.85,.04,3.72-.37,5.55-.1,1.21,.17,2.43,.63,3.61,.31,.75-.2,1.38-.7,2.1-.98,1.57-.61,3.31-.14,4.98,.09,1.67,.23,3.65,.06,4.59-1.33,.6-.89,.6-2.1,.17-3.09s-1.1-2.27-1.99-2.87c.67,.87,1.16,2.32,1.33,3.4,.16,1.08-.26,2.32-1.25,2.8-1.99,.97-4.14-1.65-6.33-1.31-1.05,.16-1.87,.98-2.86,1.38-3.38,1.37-7.36-2.42-10.63-.8-.71,.35-1.45,.96-2.2,.71-1.3-.45-1.69-2.72-1.77-3.86-.21,.34-.36,.67-.45,.99,.6,.77,.56,2.48,1.04,3.33,.52,.94-.47,.87,.6,.94Z"/><path class="cls-19" d="M135.15,106.32c-.08,.07-.17,.2-.12,.3,.02,.04,.06,.06,.1,.08,.16,.08,.32,.15,.48,.22,.43,.19,.86,.35,1.31,.44,1.46,.3,2.53-.6,3.93-.45,.08-.23,0-.51-.15-.69s-.35-.28-.55-.37c-1.66-.75-3.51-.85-5,.46Z"/><path class="cls-19" d="M147.84,106.02c.96-.91,4.63-1.8,5.25-.1,.02,.06,.04,.13,.01,.19-.02,.04-.05,.07-.08,.09-.25,.19-.58,.21-.9,.2-1.4-.04-3.09-.68-4.4,0-.05-.15,0-.26,.12-.37Z"/><path class="cls-33" d="M127.42,117.77c-.4,1.2,1.04,1.43,2.11,1.86,2,.81,3.71,2.1,5.89,2.49,.79,.14,1.59,.17,2.39,.21,1.12,.05,2.37,.05,3.18-.73-.17-.31-.52-.48-.84-.63-1.32-.61-2.65-1.22-3.99-1.79-.78-.33-1.57-.65-2.39-.81-1.12-.22-2.27-.15-3.4-.03-.9,.1-1.44-.11-2.05-.83-.13-.15-.28-.33-.48-.29-.15,.03-.24,.17-.3,.31-.04,.09-.08,.17-.11,.26Z"/><path class="cls-4" d="M161.18,117.71c-.04-1.44-1.55-.03-2.02,.21-1.21,.64-2.59,.9-3.94,1.06-1.62,.2-3.26,.29-4.8,.82,1.04,.34,2.08,.67,3.12,1.01,.67,.22,1.62,.65,2.34,.57,.76-.09,1.68-.67,2.39-.96,1.06-.43,2.67-1.01,2.88-2.3,.03-.16,.04-.3,.03-.42Z"/><path class="cls-36" d="M136.78,115.93c1.28-.55,2.72-.71,4.09-.46,1.17,.21,2.31,.71,3.49,.57,.83-.1,1.59-.5,2.4-.69,2.14-.5,4.31,.52,6.28,1.5,1.89,.94,3.63,1.32,5.67,1.69-.3,.46-.8,.75-1.33,.9s-1.08,.17-1.62,.19c-2.76,.09-5.47,.33-8.24,.33-3.98,0-7.97,.02-11.95,.02-.68,0-1.36,0-2.03-.14-.86-.18-1.89-.52-2.62-.94,.79-.57,1.96-.72,2.85-1.22,1.01-.57,1.93-1.29,3.01-1.74Z"/><path class="cls-35" d="M138.84,120.63c-1.92,0-3.84-.3-5.66-.9-.52-.17-1.19-.1-1.61-.37,1.33,1.44,3.67,1.01,5.41,1.08,1.61,.06,3.06-.32,4.67-.28,3.98,.11,7.93-.42,11.91-.42,1.78-.1,3.49,.06,5.25-.34-1.8,1.92-4.48,3.9-6.96,4.81-4.58,1.68-11,1.75-15.31-.73-.09-.05-.19-.11-.28-.17-1.76-1.06-3.17-2.27-4.53-3.77,2.45,.69,4.56,1.24,7.1,1.08Z"/><path class="cls-32" d="M142.27,119.81c2.58-.02,5.16-.04,7.75-.05,2.37-.02,5.07,.22,7.37-.43,.68-.19,1.33-.49,2.02-.62-.36,.7-1.27,.88-2.05,.97-5.45,.59-10.81,.95-16.32,.92-1.73,0-3.53,.04-5.24-.2s-4.06-.42-5.43-1.59c3.97,.55,7.87,1.03,11.9,1Z"/><path class="cls-19" d="M155.49,78.5c.68-.65,1.89-1.3,2.77-1.64,2.43-.94,4.81-1.15,7.35-.56,2.81,.65,4.98,2.4,7.86,2.28-3.93,.03-6.78-2.47-10.71-2.34-1.76,.06-3.12,.24-4.75,.89-.41,.16-1.64,.95-2,1.21-1,.72-1.65,1.79-2.25,2.84-.08,.13-.17,.28-.32,.32-.09-1.12,1.32-2.29,2.05-3.01Z"/><path class="cls-2" d="M171.75,78.78c-1.17,.17-1.61,.42-2.7,.99-.66,.34-1.55,.88-2.25,1.14-.84,.31-1.68,.62-2.56,.81-.88,.18-1.73,.22-2.82,.11"/><path class="cls-2" d="M156.67,76.28c1.57-.74,3.18-1.48,4.9-1.73,1.38-.2,2.8-.07,4.18,.11,.98,.13,1.96,.28,2.9,.59,1.25,.4,2.4,1.04,3.55,1.68"/><path d="M158.67,78.19c-.01,1.28,.75,2.56,2.01,2.98,.32,.11,.67,.12,1.01,.11,.78,0,1.65-.12,2.16-.71,.29-.33,.42-.77,.49-1.2,.16-.94,.08-1.92-.25-2.82-.03-.07-.06-.15-.12-.2-.06-.05-.13-.06-.21-.08-1.1-.21-2.09-.14-3.2,.04-.93,.15-1.58,.16-1.83,1.19-.05,.23-.08,.46-.08,.68Z"/><path class="cls-23" d="M154.3,83.52l.34-.11c.54,.45,1.19,.7,1.86,.94,2.3,.83,4.71,1.46,7.15,1.47s4.95-.64,6.87-2.16c-3.23,.45-6.53,.9-9.74,.31-2.02-.37-3.96-1.14-6.01-1.3-.38-.03-.94,.21-.76,.55,.06,.1,.16,.15,.27,.2,.72,.35,1.44,.69,2.16,1.04"/><path class="cls-21" d="M136.93,70.58c-3.01-2.79-7.51-3.03-11.33-4.52-1.81-.71-3.66-1.74-5.57-1.39-1.32,.24-2.42,1.11-3.58,1.78-2.24,1.29-4.43,2.69-6.68,4.01-.36,.21-.73,.43-.97,.78s-.3,.85-.02,1.16c.98,.56,2.21,.51,3.3,.21s2.11-.82,3.19-1.14c1.67-.5,3.18-.35,4.87-.15,1.51,.18,2.82-.08,4.36-.18,3.32-.21,6.65,.22,9.89,.89,.76,.16,1.69,.27,2.19-.32,.65-.76-.06-1.97-.95-2.43s-1.96-.56-2.74-1.18c.81,.33,3.37,1.92,4.04,2.49Z"/><path class="cls-21" d="M156.74,70.14c-.99,.38-1.99,.84-2.99,1.4-.7,.39-1.52,.84-2.26,.52,1.28-3.51,2.92-4.88,6.39-5.7,1.91-.45,3.77-.87,5.61-1.53,1.33-.48,2.99-1.58,4.44-1.42,.45,.05,.88,.23,1.3,.41,1.57,.66,3.14,1.32,4.71,1.98,1.26,.53,2.97,.91,4.06,1.75,.47,.37,.83,.94,.78,1.53-1.32-.07-2.65-.14-3.97-.2-2.86-.15-5.73,.71-8.44,.32-3.48-.51-6.57-.22-9.63,.94Z"/><path class="cls-20" d="M148.62,113.98c-.76-.09-1.52-.06-2.27,.17-.9,.28-1.71,.74-2.67,.49-.65-.17-1.21-.56-1.94-.68-1.38-.22-3.43-.34-4.78,.16-1.7,.63-3.27,2.01-4.91,2.83-.4,.2-.81,.4-1.26,.47-1.03,.17-2.33-.28-2.98,.54-.32,.4-.33,.95-.41,1.45s-.33,1.07-.83,1.18c-.55,.12-1.04-.39-1.31-.89-.83-1.52-.93-3.41-.27-5,.4-.97,1.19-1.9,2.23-1.99,.98-.09,1.88,.57,2.86,.6,1.48,.06,2.54-1.17,3.74-1.82,1.38-.75,2.93-.56,4.35-1.34,.72-.4,1.42-.94,2.25-.98,.93-.04,1.76,.59,2.69,.72,1.13,.16,2.24-.43,3.38-.54,1.72-.16,3.85,.18,5.4,.97,1.35,.69,2.37,1.96,3.79,2.57,.63,.27,1.32,.38,2,.48,.98,.15,1.99,.3,2.95,.05,.53-.14,1.07-.4,1.6-.27,.59,.15,.94,.73,1.19,1.28,.47,1.06,.74,2.2,.8,3.35,.03,.61-.1,1.37-.68,1.54-.47,.14-.94-.21-1.23-.6s-.49-.86-.87-1.16c-.66-.53-1.61-.37-2.46-.36-1.74,.02-3.12-.94-4.72-1.41-1.89-.55-3.66-1.57-5.64-1.82Z"/><path class="cls-21" d="M112.53,132.85c2.19-.07,4.4,.58,6.2,1.83,6.01,4.19,13.41,13.45,21.57,7.74,.63-.44,1.22-.94,1.92-1.25,.7-.31,1.47-.41,2.22-.51,1.73-.22,3.52-.44,5.18,.09,1.77,.57,3.16,1.92,4.8,2.79,4.09,2.17,8.67-2.09,11.63-4.58,2.1-1.77,4.2-3.54,6.31-5.31,1.33-1.12,2.7-2.28,3.58-3.78,1.15-1.96,1.47-4.45,3.14-5.99,.66,3.27-2,6.19-4.43,8.47-2.57,2.41-5.17,4.8-7.75,7.2-2.31,2.14-4.29,4.61-6.92,6.39-1.97,1.33-4.23,2.46-6.52,3.13-7.32,2.15-15.16,2.11-21.97-1.68-5.53-3.08-7.4-4.66-12.72-8.08-1.42-.92-6.85-5.06-7.67-7.12,1.92,.37,3.85,.73,5.77,1.1,1.16,.22,.18,.17,1.08,.93,1.07,.92,1.03,.47,1.97,1.52"/><path class="cls-9" d="M96.73,76.96c1.27,.23,2.65,.65,3.29,1.77,.35,.6,.43,1.32,.5,2.02,.22,2.17,.44,4.35,.64,6.53,.18,1.9,.05,4.1,.6,5.92,1.08,3.57,.66,7.85,.36,11.54-.1,1.21,.14,3.1-.53,4.15-.73,1.13-2.46,1.21-3.6,.48s-1.78-1.99-2.29-3.24c-.86-2.11-1.47-4.33-1.94-6.56-1.2-5.62-1.58-11.4-1.45-17.15,.05-2.24,.62-5.04,2.81-5.54,1.63-.37,3.15,.85,4.38,1.98"/><path d="M104.58,37.77c1.59,1.32,3.91,.92,5.98,.95,1.79,.03,3.9-.13,5.3,1.22,.79,.77,1.16,2.04,.65,3.02-.54,1.03-1.78,1.42-2.81,1.97-6.87,3.67-4.23,12.92-7.55,18.81-5.3,9.39-4.77,20.84-4.08,31.6-1.22-2.73-1.85-5.73-1.83-8.73,.02-2.09,.09-4.68-1.75-5.67-.33-.18-.7-.29-.98-.54-.34-.31-.47-.79-.59-1.24-1.89-7.53-3.11-15.23-3.64-22.98-.04-.58-.06-1.22,.3-1.67,.29-.36,.77-.53,1.04-.9,.75-1-.44-2.27-.83-3.45-.78-2.37,1.75-4.46,2.49-6.84,.18-.57,.25-1.17,.55-1.68,.35-.59,.94-.97,1.52-1.33,2.74-1.72,5.85-3.52,9.01-2.84,2.14,.46,4.16,2.04,6.29,1.54,1.63-.38,3.16,3.39,3.14,1.72-2.51-1.65-9.21-3.03-12.21-2.93Z"/><path class="cls-9" d="M186.77,79.36c-.12-2.09,1.36-4.17,3.38-4.73,.24-.07,.51-.11,.73,0,.25,.12,.38,.41,.48,.67,1.72,4.47,1.91,9.41,1.26,14.16s-2.11,9.34-3.6,13.89c-.45,1.36-.91,2.74-1.77,3.87s-2.22,2-3.64,1.9c1.7-10.66-.45-22.11,3.95-31.97,.46-1.04,1.15-2.17,2.28-2.34"/><path d="M188.82,50.76c-2.45,3.02-4.89,6.04-7.34,9.07-.24,.3-.5,.62-.58,1-.24,1.04,.81,1.86,1.5,2.68,1.37,1.6,1.55,3.87,1.67,5.97,.43,7.5,.11,14.99,.54,22.49,1.15-4.09,.46-8.71,2.2-12.58,.36-.8,.85-1.54,1.15-2.35,.37-.98,.47-2.03,.55-3.07,.59-7.25,.59-14.54,0-21.79-1.58-.55-3.09,.99-3.88,2.47-.79,1.48-1.56,3.26-3.17,3.7"/><path d="M144.31,43.85c5.12,2.21,10.18,4.58,15.24,6.94,.92,.43,1.84,.86,2.77,1.29,5.18,2.42,10.36,4.84,15.54,7.26,2.41,1.13,5.96,1.9,7.14-.49,.87-1.76-.19-4.48,1.5-5.47-4.6-3.33-9.85-5.64-15.05-7.93-4.32-1.9-8.65-3.8-12.97-5.71-4.25-1.87-8.5-3.74-12.9-5.22-5.77-1.95-12.03-3.17-18.13-2.49-3.12,.35-13.6,2.53-13.24,7.14,.29,3.72,7.87,3.16,10.31,2.96,7.49-.61,12.62-1.4,19.79,1.7Z"/><path d="M188.4,44.38c1.25-1.3,2.08-3,2.35-4.78-1.15,.33-2.3,.65-3.45,.98,.25-1.2,.32-2.44,.19-3.65-1.32,.94-3.09,1.21-4.64,.72,2.07,1.2,3.86,2.88,5.21,4.86,.67,.98,1.63,2.2,2.75,1.81"/><path d="M163.95,21.63c.79-.73,1.39-1.67,1.72-2.7,.4,.83,.66,1.73,.76,2.65-.61,.65-1.43,1.09-2.31,1.23-.18,.03-.37,.04-.54-.03-.37-.16-.44-.7-.24-1.06s.58-.57,.93-.77"/><path d="M178.89,30.92c1.29,.23,2.69-.32,3.48-1.37-.13,.74-.27,1.5-.68,2.13s-1.14,1.11-1.88,.97-1.28-1.06-.87-1.69"/><path class="cls-19" d="M190.01,47.77c-.44-.53-1.11-.78-1.69-1.15-.58-.37-1.11-.99-.99-1.66,.19-1.03,1.67-1.27,2.15-2.2,1.08-2.13-3.54-3.33-4.48-4.9-1.5-2.5-2.47-4.79-4.46-7.13-1.66-1.95-3.36-3.95-5.61-5.17-1.46-.8-3.09-1.24-4.57-2.01-1.77-.92-3.28-2.27-5.02-3.25-2.55-1.44-4.53-.82-7.13-1.6-2.67-.79-4.87-2.7-7.45-3.7-1.88-.73-3.95-.99-5.95-.74-2.63,.32-5.19,.4-7.71,.5-2.63-1.28-6.55-1.07-9.86-.43-1.21,.23-2.34,.52-3.28,.81-8.12,2.49-16.46,10.35-17.23,19.27-.3,3.55,1.15,6.23,4.69,7.33,5.17,1.6,5.7-2.23,9.23-4.51,2.53-1.63,5.82-.11,8.82,.07,2.34,.14,4.63-.58,6.97-.81,4.27-.41,5.39,1.89,8.39,3.98s6.97,3.15,10.38,3.88c4.4,.94,9.19,1.18,12.79,3.88,3.24,2.43,4.94,6.47,8.08,9.03,.79,.65,1.7,1.2,2.72,1.3,2.4,.24,4.59-1.52,6.2-3.05,1.6-1.52,4.23-3.03,5.19-5.05,.41-.86,.44-1.97-.17-2.71Z"/><path d="M122.87,26.94c3.64-1.67,7.78-1.91,11.78-1.71s7.99,.82,11.99,.78c1.49-.02,3.03-.15,4.33-.87,1.3-.73,2.29-2.2,2.02-3.66-.23,1.74-2.19,2.64-3.92,2.99-4.36,.88-8.85,.29-13.28-.08-4.43-.36-9.06-.45-13.12,1.34-3.73,1.65-6.99,5.36-6.9,9.61,.61-3.79,3.72-6.86,7.1-8.41Z"/><path d="M154.69,35c3.64-2.97,5.98-7.37,6.91-11.98-.63,2.1-1.27,4.21-1.9,6.31-.43,1.44-.87,2.89-1.6,4.2-2.19,3.93-6.78,6.06-11.26,6.45-1.39,.12-3.35,.07-4.29-.94,1.59-.97,4.35-.43,6.22-.96,2.16-.61,4.2-1.67,5.93-3.09Z"/><path d="M168.66,34.98c.47-.97,.94-1.95,1.4-2.92,.89-1.86,1.76-4.15,.6-5.85,1.4,7.06-2.75,17.62-10.64,19.06,1.19-1.56,3.37-2.29,4.74-3.8,1.7-1.88,2.8-4.23,3.89-6.49Z"/><path class="cls-2" d="M141.5,44.06c-.62-.5-.99-1.3-.99-2.09,1.79,3.29,5.76,5.12,9.47,4.71s7.06-2.87,8.92-6.12"/><path class="cls-1" d="M185.35,104.8c.98,.68,1.42,1.92,1.62,3.1,.22,1.3,.19,2.73-.55,3.82s-2.39,1.62-3.43,.81"/><path class="cls-1" d="M98.69,106.1c-1.6,1.84-1.77,4.78-.38,6.78,.47,.68,1.26,1.3,2.06,1.07,.59-.17,.96-.75,1.18-1.32,.38-.99,.46-2.08,.24-3.12"/><path class="cls-41" d="M132.1,69.27c-.45-.77-1.4-1.06-2.26-1.28-1.42-.37-2.84-.74-4.26-1.11-.75-.2-1.52-.39-2.29-.33-.74,.06-1.44,.36-2.12,.66-2.21,.99-4.38,2.09-6.49,3.29,2.95-.06,5.84-.69,8.76-1.1s5.94-.6,8.77,.22c-.17-.61-.69-1.1-1.31-1.24"/><path class="cls-41" d="M163.99,67.54c2.61,.53,5.25,.88,7.9,1.05,.82,.05,1.75,.05,2.32-.54-2.19-.06-4.19-1.37-6.38-1.5-.89-.05-1.79,.09-2.67,.26-2,.37-3.98,.82-5.94,1.35-1.65,.44-3.63,.71-4.9,1.91,5.15-1.48,10.58-1.95,15.9-1.4,1.26,.13,2.77,.27,3.83-.58-.53-.79-3.43-.4-4.34-.47-1.8-.14-3.58-.36-5.39-.42-3.09-.12-6.41,.29-8.92,2"/><path class="cls-14" d="M98.64,82.61c-1.08-.65-2.19-1.25-3.33-1.79-.62-.3-1.43-.55-1.92-.06-.33,.32-.34,.84-.33,1.3,.08,2.83,.29,5.65,.66,8.46,.18,1.38,.39,2.76,.41,4.15,.03,1.97-.31,5.24,2.12,5.99,1.25-3.88-1.15-9.09,.6-12.8,.56-1.19,1.1-1.74,2.32-.66,1.73,1.53-.46,5.18,1.59,7.5,.34,.38,.73,.72,.98,1.16s.31,1.04,0,1.43c-.46,.56-1.56,.56-1.66,1.28,.44,.45,.6,1.15,.4,1.75-1.06-1.34-2.67-2.22-3.48-3.72-.8-1.51-.62-3.35-.3-5.03,.34-1.74,.98-3.68,2.61-4.4l-.23,.68"/><path class="cls-14" d="M189.31,98.02c-.17,.61-.36,1.23-.75,1.74s-1.01,.88-1.64,.78c1.36,.2,2.5-15.62,2-17.16-.24-.73-.62-1.43-.69-2.19-.12-1.41,1.06-2.79,2.47-2.9,.62,6.98,.56,12.88-1.39,19.73Z"/><path class="cls-22" d="M190.92,82.87c0-.14-.18-.24-.32-.21s-.25,.14-.33,.26c-.22,.31-.34,.71-.26,1.08s.36,.71,.74,.8c.31,.07,.65-.02,.89-.23s.38-.51,.42-.82c.03-.29-.03-.6-.2-.84s-.45-.41-.75-.42c-.34,0-.67,.2-.85,.49s-.21,.65-.15,.98"/><path class="cls-6" d="M190.72,82.77c0-.13-.16-.22-.29-.19s-.22,.13-.3,.24c-.2,.29-.3,.66-.23,1s.32,.66,.66,.74c.28,.07,.58-.02,.79-.21s.34-.47,.37-.76c.03-.27-.02-.56-.18-.78s-.4-.38-.67-.39c-.31,0-.6,.19-.76,.45s-.19,.6-.13,.91"/><path d="M191.24,47.21c.12-.38,.24-.82,.04-1.16-.19,.2-.35,.43-.49,.67-.17,.29-.32,.59-.5,.88-.37,.61-.85,.94-1.46,1.25,1.19,.2,2.07-.59,2.4-1.63Z"/><path d="M157.75,77.1c.97-.49,2.04-.75,3.1-.98,1.23-.28,2.49-.53,3.76-.43,.76,.06,1.5,.24,2.23,.45,1.7,.48,3.08,1.48,4.77,1.99,.94,.29,1.94,.44,2.92,.31-.23,.13-.48,.22-.73,.27-.32,.06-.65,.06-.97,.04-1-.06-1.99-.32-2.89-.74s-1.69-.69-2.64-.96c-1.26-.36-2.53-.72-3.84-.87-1.3-.15-2.66-.08-3.88,.41"/><path d="M114.62,80.24c.8,.08,1.63-.14,2.26-.64,.11-.08,.5-.1,.67-.16,.28-.11,.56-.23,.83-.35,.55-.23,1.1-.48,1.66-.71,1.14-.48,2.29-.94,3.49-1.24,.83-.21,2-.15,2.73-.5-.41-.49-1.36-.32-1.92-.29-.87,.05-1.74,.17-2.6,.37-1.48,.33-3.13,.78-4.22,1.88-.51,.52-1.05,.79-1.75,.99-.51,.15-1.83,.57-2.33,.31,.36,.19,.76,.3,1.16,.34Z"/><path d="M124.34,174.97c-1.9-2.12-3.45-4.55-4.5-7.21-.41-1.03-.78-2.14-1.63-2.83-.86-.69-2.39-.68-2.85,.32-1.54,3.34,2.83,9.67,3.9,12.75,2.04,5.91,3.96,11.86,5.94,17.79,1.29,3.86,2.58,7.74,3.31,11.75,.85,4.65,.93,9.41,1.75,14.06,2.91,16.46,14.91,30.88,14.76,47.59,13.93-1.55,27.76-4.04,41.36-7.46,.95-.24,1.99-.55,2.5-1.39,.37-.61,.37-1.37,.35-2.08-.46-22.85-1-46.15-8.57-67.72-1.76-5.02-3.9-9.94-5.14-15.11-2.03-8.48-1.69-17.72-5.88-25.36,1.86,7.83,2.02,16.07,.45,23.97-.88,4.45-2.8,9.34-7.06,10.9-1.82,.67-3.82,.61-5.76,.51-5.11-.25-10.2-.68-15.28-1.28-6.57-.78-13.11-4.14-17.65-9.22Z"/><path class="cls-3" d="M121.36,176c9.33,13.64,18.67,27.3,26.87,41.67,6.75,11.83,11.42,24.67,17.19,36.97,1.37,2.92,5.51,13.87,9.72,8.4,2.29-2.97,2.05-7.73,2.34-11.25,.61-7.38,1.06-14.76,1.65-22.14,.72-8.93-.71-17.71-1.2-26.6-.83-15.09-3.47-38.64-8.29-52.97"/><path class="cls-12" d="M52.2,171.44c-7.24,4.36-14.52,8.75-20.91,14.28s-11.9,12.32-14.74,20.29c-.68,1.92-1.21,4.02-.65,5.98,.46,1.62,1.59,2.94,2.7,4.21,9.67,11.09,19.54,22.36,32.02,30.14,5.85,3.65,12.18,6.47,18.62,8.94,24.4,9.35,50.7,13.73,76.82,12.8,1.43-11.64-6.4-22.1-10.82-32.96-6.36-15.64-5.81-33.47-12.45-48.99-.32-.76-.69-1.54-1.36-2.02-.5-.36-1.12-.51-1.73-.61-8.44-1.48-16.4,3.92-24.76,5.77-.97,.21-2.02,.38-2.95,0-2.23-.9-2.29-3.96-2.16-6.36,.25-4.77-.31-9.58-1.62-14.18-.91-3.21-3.32-11.96-6.57-13.59-2.98-1.49-10.93,5.16-13.88,6.93-5.19,3.12-10.38,6.25-15.57,9.37Z"/><path class="cls-10" d="M81.71,196.46c10.02-.82,20.37,3.89,29.93,.77,1.13-.37,2.29-.85,3.45-.65,1.68,.29,2.81,1.88,3.5,3.44,1.39,3.13,1.82,6.58,2.27,9.97,2.7,20.33,6.85,40.46,12.42,60.19,.86-1.47,.46-3.33,.04-4.98-3.35-13.24-5.87-26.67-8.1-40.14-1.99-12.06-3.75-24.3-2.66-36.48-1.99,1.05-4.03-1.59-6.27-1.75-.89-.06-1.76,.28-2.59,.6-9.78,3.75-20.3,5.54-30.77,5.23,1.3,.04,.26-20.05-.29-21.73-1.94,2.74-1.16,7.02-1.12,10.2,.07,5.11,.13,10.22,.2,15.33Z"/><g><path class="cls-13" d="M108.09,128.5c-.75,.3-.18,.07-.05,.15,.04-.03,.07-.05,.11-.08-.02-.02-.03-.05-.06-.07Z"/><path class="cls-13" d="M112.55,145.98l.25,.74c-.08-.25-.16-.5-.25-.74Z"/><path class="cls-13" d="M108.4,130.3c-.32,2.03-.23,4.13,.27,6.13,.41,1.62,1.08,3.17,1.74,4.71,.48,1.12,1.13,2.1,1.56,3.23,.21,.53,.39,1.07,.58,1.61l-4.18-12.51c.18-1.45,.32-2.91,.41-4.38,0-.15,.02-.3-.04-.43-.05-.14-.19-.25-.33-.23-.09,.01-.17,.07-.24,.13,0,0-.02,.01-.02,.02,.42,.41,.35,1.13,.26,1.73Z"/><path class="cls-13" d="M123.2,185.41c-1.75-9.61-3.55-19.31-6.95-28.44,0-.14-.03-.29-.07-.43-.41-1.24-.83-2.48-1.24-3.72-1.55-4.65-3.11-9.3-5.05-13.8-1.17-2.7-1.76-4.85-1.27-7.84,.14-.83,.35-2.66-1-2.55-.32,.03-1.9,1.51-2.26,1.74-.94,.6-1.77,1.45-2.53,2.24-1.58,1.65-2.92,3.5-4.36,5.27-4.47,5.51-9.86,10.27-15.87,14.03-.36,.23-.74,.46-.97,.83-.27,.45-.26,1.01-.24,1.53,.52,13.27,1.38,26.52,2.58,39.74,10.65-.37,21.24-2.55,31.17-6.41,.63-.25,1.3-.51,1.97-.4,1.73,.28,2.61,2.8,4.36,2.69,.91-.06,1.62-.89,1.84-1.78,.22-.89,.06-1.82-.11-2.72Z"/></g><path class="cls-12" d="M192.69,161.12c10.01,2.9,19.17,8.1,28.24,13.24,3.53,2,7.13,4.06,9.82,7.1,2.01,2.26,3.43,4.97,4.72,7.7,3.97,8.4,6.87,17.29,8.62,26.41,.23,1.19,.43,2.41,.2,3.59-.28,1.46-1.2,2.71-2.12,3.88-3.41,4.31-7.26,8.24-11.1,12.16-12.44,12.68-27.61,21.07-44.38,26.95,3.19-8.11,2.31-17.17,1.38-25.83-.69-6.46-1.39-12.93-2.08-19.39-.45-4.2-.9-8.41-1.82-12.54-1.14-5.18-3-10.18-4.58-15.24-4.6-14.68-6.93-29.96-9.07-45.2,5.62,4.31,7.26,12.02,11.57,17.63,3.14,4.09,7.59,6.93,11.44,10.37,3.84,3.44,7.29,7.98,7.25,13.13-.03,4.02-2.19,7.91-1.64,11.9"/><path class="cls-10" d="M200.26,188.82c4.22,21.21,6.88,42.74,7.95,64.35,1.61-.43,1.98-2.52,2-4.19,.19-15.01-2.43-29.89-5.05-44.67-.73-4.13-1.46-8.26-2.19-12.38,.41,2.3,8.53,1.13,9.84,.71,2.57-.82,6.06-2.74,6.92-5.4-2.22-.17-4.51,1.32-6.68,1.86-4.25,1.07-8.52,.46-12.78-.28Z"/><path class="cls-37" d="M178.85,171.52c8.16,8.51,16.77,17.31,27.95,21.08,.59-4.07-3.2-7.23-5.66-10.54-1.96-2.63-3.17-5.73-4.89-8.52-1.9-3.07-4.38-5.71-6.85-8.34-3.34-3.55-6.67-7-10.25-10.3-3.2-2.95-5.28-6.88-7.95-10.31-.59-.76-1.19-1.53-1.95-2.14-.77,2.3,.55,4.7,1.34,6.99,1.4,4.07,.75,8.42,2.1,12.5,1.22,3.7,3.49,6.79,6.16,9.57Z"/><g><path class="cls-13" d="M199.53,164.66c-4.03-2.89-8.74-4.65-13.08-7.06-3.37-1.87-6.64-4.31-8.7-7.51l-.23-1.51c-.71-.31-1-1.14-1.28-1.86-.11-.29-.23-.58-.36-.87-.41-1.35-.83-2.71-1.84-3.66-.26-.24-.57-.42-.9-.54-.53-.59-1.09-1.15-1.7-1.65-.25-.21-.53-.42-.85-.46-.31-.04-.56,.08-.77,.28,.98,.56,.03,1.27-.33,2.2,.09,.19,.22,.41,.36,.66-.05,.15-.09,.3-.1,.48-.01,.23,.03,.46,.1,.68,1.02,1.53,2.05,3.05,3.09,4.56,.27,.37,.54,.74,.81,1.11,0,.04,.02,.08,.03,.12,9.16,13.27,18.98,26.09,29.41,38.39,.59,.69,1.2,1.4,2,1.81,1.51,.76,3.31,.32,4.94-.13,2.06-.58,4.13-1.15,6.19-1.73,1.59-.44,3.43-1.14,3.81-2.75-8.16-5.31-12.71-14.86-20.62-20.54Z"/><path class="cls-13" d="M170.67,145.27c-.32-.44-.65-.92-.81-1.44-.07-.1-.13-.2-.2-.29-.38-.56-.34-1.07-.16-1.51-.13-.25-.21-.45-.22-.55-.05-.58,.15-1.27,.55-1.65-.08-.05-.16-.09-.27-.13-.72,1.79-.24,3.87,.71,5.55,.95,1.68,2.32,3.08,3.52,4.59,.02-.05,.02-.12,0-.2-.28-.41-.56-.82-.84-1.23-.76-1.04-1.52-2.08-2.28-3.12Z"/></g><path class="cls-10" d="M41.94,191.29c-3.38-2.89-8.26-3.9-12.51-2.59-4.25,1.31-7.71,4.9-8.87,9.19,3.01-4.05,6.73-8.48,11.77-8.59,4.49-.09,8.19,3.33,11.28,6.58,16.35,17.14,31.47,36.95,35.7,60.26,.67-7.16-1.74-14.3-5.09-20.66-3.35-6.36-7.66-12.17-11.25-18.41-2.23-3.88-4.18-7.93-6.71-11.63-5.37-7.84-13.33-13.87-22.33-16.91,6.65,1.13,15.2,6.81,19.45,12.04"/><g><path class="cls-39" d="M166.97,75.53c.51,.23,1.02,.48,1.52,.74,.29,.09,.59,.18,.88,.27,1.38,.44,2.74,.91,4.11,1.38-.38-.18-.77-.33-1.16-.49-.56-.22-1.12-.43-1.68-.65-1.33-.51-2.67-.97-4.03-1.39,0,0,.01,0,.02,.01,.11,.04,.23,.07,.34,.12Z"/><path class="cls-38" d="M170.25,77.72c.39,.17,.77,.34,1.16,.49,.47,.19,.95,.36,1.45,.43,.42,.06,.86,.02,1.25-.14-.58,.03-1.18-.1-1.75-.25-.7-.18-1.41-.36-2.11-.54Z"/><path d="M170.46,77.89c.67,.23,1.34,.43,2.03,.59,.7,.17,1.54,.25,2.03-.28-1.65-.6-3.31-1.18-4.98-1.75-.82-.28-1.64-.56-2.46-.83-.73-.24-1.46-.59-2.22-.67-.59-.06-1.19-.05-1.74-.02-1.47,.09-2.93,.47-4.27,1.09-1.97,.91-3.68,2.33-5.01,4.04,.62-.48,1.25-.95,1.88-1.43,.84-.64,1.69-1.29,2.67-1.7,.58-.25,1.2-.4,1.81-.55,.75-.18,1.51-.35,2.28-.4,.91-.05,1.87,.16,2.78,.24,.7,.06,1.2,.06,1.87,.34,1.1,.47,2.21,.94,3.34,1.32Z"/><path class="cls-40" d="M173.48,77.92c.3,.14,.58,.29,.85,.48-.07,.04-.15,.07-.22,.1,.24-.01,.47-.05,.7-.13-.44-.16-.89-.29-1.33-.45Z"/></g><path d="M129.94,76.76c-3.1-1.45-6.81-1.17-9.98,.11-2.22,.9-4.24,2.26-6.5,3.07,.47,.31,1.04,.48,1.61,.46,.77-.02,1.49-.36,2.18-.68,2.73-1.28,5.57-2.54,8.58-2.68,1.2-.06,2.41,.07,3.57,.37,.68,.18,2.11,1.08,2.77,.78-.51-.62-1.51-1.08-2.24-1.43Z"/><path class="cls-18" d="M151.38,72.47c-.78,.77-1.41,1.74-1.95,2.99-.62,1.44-1.01,2.98-1.13,4.54-.12,1.49,.49,3.05,.37,4.46,.26-3.13,.91-6.14,2.18-9.05,.71-1.63,1.7-3.17,3.08-4.3,.53-.43,1.12-.8,1.78-.96-1.84,.53-3.22,1.22-4.32,2.3Z"/></g></svg>