<?xml version="1.0" encoding="UTF-8"?><svg id="Tommy_O" xmlns="http://www.w3.org/2000/svg" xmlns:xlink="http://www.w3.org/1999/xlink" viewBox="0 0 262 280"><defs><style>.cls-1{fill:url(#Namnlös_övertoning_2144);}.cls-2{fill:url(#linear-gradient);}.cls-2,.cls-3,.cls-4,.cls-5,.cls-6,.cls-7{opacity:.67;}.cls-8{fill:#ecceb7;}.cls-9{fill:#b6dec0;}.cls-10,.cls-11{fill:#d0997d;}.cls-12{fill:#c4805c;}.cls-13{fill:#c58260;}.cls-14{fill:#d9ad96;}.cls-15{fill:#251a1e;}.cls-16{fill:#40433c;}.cls-17{fill:#5e5c5b;}.cls-18{fill:url(#Namnlös_övertoning_373);}.cls-19{fill:url(#Namnlös_övertoning_131);}.cls-20{fill:url(#Namnlös_övertoning_2144-2);}.cls-21{fill:url(#Namnlös_övertoning_373-3);}.cls-22{fill:url(#Namnlös_övertoning_373-2);}.cls-23{fill:url(#Namnlös_övertoning_131-2);}.cls-24{fill:url(#linear-gradient-20);opacity:.38;}.cls-25{fill:url(#linear-gradient-13);}.cls-25,.cls-26,.cls-27,.cls-28{opacity:.65;}.cls-26{fill:url(#linear-gradient-17);}.cls-27{fill:url(#linear-gradient-19);}.cls-28{fill:url(#linear-gradient-18);}.cls-29{fill:url(#linear-gradient-9);}.cls-30{fill:url(#linear-gradient-6);}.cls-31{fill:url(#linear-gradient-5);}.cls-32{fill:url(#linear-gradient-12);}.cls-32,.cls-33,.cls-34{opacity:.74;}.cls-33{fill:url(#linear-gradient-11);}.cls-34{fill:url(#linear-gradient-21);}.cls-35{fill:url(#Namnlös_övertoning_73);}.cls-36{fill:url(#linear-gradient-14);}.cls-37{fill:url(#linear-gradient-22);}.cls-38{fill:url(#linear-gradient-15);}.cls-39{fill:url(#linear-gradient-16);}.cls-40{fill:url(#linear-gradient-10);}.cls-3{fill:url(#linear-gradient-7);}.cls-4{fill:url(#linear-gradient-8);}.cls-5{fill:url(#linear-gradient-3);}.cls-6{fill:url(#linear-gradient-2);}.cls-7{fill:url(#linear-gradient-4);}.cls-41{fill:#c68360;opacity:.5;}.cls-11,.cls-42{opacity:.64;}.cls-42{fill:#c27a55;}</style><linearGradient id="Namnlös_övertoning_373" x1="85.22" y1="169.65" x2="180.16" y2="169.65" gradientUnits="userSpaceOnUse"><stop offset="0" stop-color="#c3997d"/><stop offset="1" stop-color="#e7c5a3"/></linearGradient><linearGradient id="linear-gradient" x1="85.22" y1="169.63" x2="135.08" y2="169.63" gradientUnits="userSpaceOnUse"><stop offset="0" stop-color="#aa785d"/><stop offset="1" stop-color="#d0997d"/></linearGradient><linearGradient id="Namnlös_övertoning_373-2" x1="87.86" y1="101.82" x2="78.24" y2="93.15" xlink:href="#Namnlös_övertoning_373"/><linearGradient id="linear-gradient-2" x1="85.04" y1="95.15" x2="82.41" y2="92.64" xlink:href="#linear-gradient"/><linearGradient id="linear-gradient-3" x1="88.14" y1="105.62" x2="91.7" y2="105.62" xlink:href="#linear-gradient"/><linearGradient id="Namnlös_övertoning_373-3" x1="180.86" y1="95.49" x2="190.94" y2="95.49" xlink:href="#Namnlös_övertoning_373"/><linearGradient id="linear-gradient-4" x1="183.27" y1="98.2" x2="181.98" y2="101.36" xlink:href="#linear-gradient"/><linearGradient id="Namnlös_övertoning_2144" x1="111.42" y1="79.06" x2="120.39" y2="103.96" gradientUnits="userSpaceOnUse"><stop offset="0" stop-color="#c3997d"/><stop offset=".02" stop-color="#40250c"/><stop offset="1" stop-color="#d9bdb4"/></linearGradient><linearGradient id="Namnlös_övertoning_2144-2" x1="153.09" y1="76.14" x2="166.03" y2="99.94" xlink:href="#Namnlös_övertoning_2144"/><linearGradient id="linear-gradient-5" x1="100.95" y1="79.85" x2="126.89" y2="79.85" gradientUnits="userSpaceOnUse"><stop offset="0" stop-color="#766960"/><stop offset=".62" stop-color="#897b73"/><stop offset="1" stop-color="#95877f"/></linearGradient><linearGradient id="linear-gradient-6" x1="144.2" y1="76.68" x2="170.42" y2="76.68" gradientUnits="userSpaceOnUse"><stop offset="0" stop-color="#877d73"/><stop offset=".46" stop-color="#897b73"/><stop offset="1" stop-color="#a29994"/></linearGradient><linearGradient id="linear-gradient-7" x1="122.78" y1="106.31" x2="128.72" y2="106.31" xlink:href="#linear-gradient"/><linearGradient id="linear-gradient-8" x1="146.6" y1="105.09" x2="150.25" y2="105.09" xlink:href="#linear-gradient"/><linearGradient id="Namnlös_övertoning_73" x1="136.96" y1="109.61" x2="136.84" y2="99.99" gradientUnits="userSpaceOnUse"><stop offset="0" stop-color="#d0997d"/><stop offset="1" stop-color="#f5c5a3"/></linearGradient><linearGradient id="linear-gradient-9" x1="130.1" y1="105.2" x2="131.07" y2="110.61" gradientUnits="userSpaceOnUse"><stop offset="0" stop-color="#c3997d"/><stop offset=".02" stop-color="#40250c"/><stop offset="1" stop-color="#d9bdb4"/></linearGradient><linearGradient id="linear-gradient-10" x1="142.9" y1="104.64" x2="142.09" y2="111.06" xlink:href="#linear-gradient-9"/><linearGradient id="linear-gradient-11" x1="100.36" y1="157.7" x2="166.37" y2="160.39" gradientUnits="userSpaceOnUse"><stop offset="0" stop-color="#aca1a4" stop-opacity=".33"/><stop offset=".55" stop-color="#9e897a"/><stop offset="1" stop-color="#c6b5aa"/></linearGradient><linearGradient id="linear-gradient-12" x1="91.02" y1="99.9" x2="180.05" y2="131.48" gradientUnits="userSpaceOnUse"><stop offset="0" stop-color="#aca1a4" stop-opacity=".33"/><stop offset=".51" stop-color="#9e897a"/><stop offset="1" stop-color="#d0c2bf"/></linearGradient><linearGradient id="Namnlös_övertoning_131" x1="119.91" y1="123.82" x2="152.71" y2="123.82" gradientUnits="userSpaceOnUse"><stop offset="0" stop-color="#bf6851"/><stop offset="1" stop-color="#d29e82"/></linearGradient><linearGradient id="Namnlös_övertoning_131-2" x1="118.88" y1="129.03" x2="153.65" y2="129.03" xlink:href="#Namnlös_övertoning_131"/><linearGradient id="linear-gradient-13" x1="123.71" y1="135.81" x2="149.07" y2="135.81" gradientUnits="userSpaceOnUse"><stop offset="0" stop-color="#5e5550"/><stop offset=".62" stop-color="#897b73"/><stop offset="1" stop-color="#95877f"/></linearGradient><linearGradient id="linear-gradient-14" x1="120.3" y1="93.77" x2="155.75" y2="19.97" gradientUnits="userSpaceOnUse"><stop offset="0" stop-color="#766960"/><stop offset=".58" stop-color="#b4b0ae"/><stop offset="1" stop-color="#e5d9d1"/></linearGradient><linearGradient id="linear-gradient-15" x1="120.88" y1="51.65" x2="147.75" y2="16.27" gradientUnits="userSpaceOnUse"><stop offset="0" stop-color="#766960"/><stop offset=".83" stop-color="#9a9693"/><stop offset="1" stop-color="#cfd1d0"/></linearGradient><linearGradient id="linear-gradient-16" x1="164.48" y1="48.71" x2="170.91" y2="40.23" xlink:href="#linear-gradient-15"/><linearGradient id="linear-gradient-17" x1="128.87" y1="115.36" x2="114.31" y2="126.18" gradientUnits="userSpaceOnUse"><stop offset=".16" stop-color="#5e5550"/><stop offset=".62" stop-color="#897b73"/><stop offset="1" stop-color="#b19a91"/></linearGradient><linearGradient id="linear-gradient-18" x1="199.65" y1="116.62" x2="184.13" y2="124.99" gradientTransform="translate(343.82) rotate(-180) scale(1 -1)" gradientUnits="userSpaceOnUse"><stop offset="0" stop-color="#706861"/><stop offset=".48" stop-color="#897b73"/><stop offset="1" stop-color="#b19a91"/></linearGradient><linearGradient id="linear-gradient-19" x1="136.21" y1="119.06" x2="141.12" y2="112.59" xlink:href="#linear-gradient-13"/><linearGradient id="linear-gradient-20" x1="136.99" y1="119.25" x2="137.1" y2="159" gradientUnits="userSpaceOnUse"><stop offset="0" stop-color="#aca1a4" stop-opacity=".33"/><stop offset=".62" stop-color="#c2b8bb"/><stop offset="1" stop-color="#ece2db"/></linearGradient><linearGradient id="linear-gradient-21" x1="163.35" y1="154.47" x2="109.51" y2="153.17" gradientUnits="userSpaceOnUse"><stop offset="0" stop-color="#aca1a4" stop-opacity=".33"/><stop offset=".55" stop-color="#9e897a"/><stop offset="1" stop-color="#af9b8e"/></linearGradient><linearGradient id="linear-gradient-22" x1="118.85" y1="126.11" x2="155" y2="126.11" gradientUnits="userSpaceOnUse"><stop offset="0" stop-color="#c8685b"/><stop offset="1" stop-color="#c16962"/></linearGradient></defs><circle id="BG-3" class="cls-9" cx="131.32" cy="129.91" r="129"/><path class="cls-18" d="M96.48,131.9s2.25,16.61,2.25,20.84c0,0,.56,11.26-.56,13.51,0,0-7.32,11.54-12.95,13.51,0,0,3.1,11.26,16.05,19.43,0,0,13.51,6.76,33.79,8.17,0,0,15.49,.84,29.28-6.48,0,0,16.89-9.57,15.77-16.89,0,0-3.66-3.38-4.79-5.07,0,0-2.25-1.41-1.69-5.35,0,0,4.22-34.35,5.35-39.14,0,0-3.9,8.26-7.72,12.29,0,0-17.62,11.08-25.22,11.08,0,0-11.26,3.38-19.15-.84,0,0-18.58-5.07-23.09-8.45,0,0-7.32-8.17-7.32-16.61Z"/><path class="cls-2" d="M135.06,207.36c-22.88,.03-33.79-8.17-33.79-8.17-12.95-8.17-16.05-19.43-16.05-19.43,5.63-1.97,12.95-13.51,12.95-13.51,1.13-2.25,.56-13.51,.56-13.51,0-4.22-2.25-20.84-2.25-20.84,0,8.45,7.32,16.61,7.32,16.61,4.5,3.38,23.09,8.45,23.09,8.45,0,0,8.73,32.57,8.17,50.4Z"/><path class="cls-22" d="M91.13,89.39s-1.69-4.5-3.66-5.63c0,0-3.66-1.97-4.79,3.66,0,0-1.13,4.5-1.13,7.04,0,0,.56,4.5,1.97,8.73,0,0,.56,2.53,1.69,4.79,0,0,1.41,3.94,1.69,7.6,0,0,3.1,8.73,7.6,8.45,0,0-3.1-13.51-2.82-18.86,0,0-1.41-14.64-.56-15.77Z"/><path class="cls-6" d="M86.06,98.38s1.41-5.57,1.41-8.51c0,0-.31-4.22-2.57-4.55,0,0-1.94,.62-.81,8.48,0,0-.28,6.22,2.25,12.77,0,0-1.15-4.92-.28-8.19Z"/><path class="cls-5" d="M89.44,99.81s-2.25,4.22-.84,9.85c0,0,1.97,2.25,3.1,1.69,0,0-1.97-7.04-2.25-11.54Z"/><path class="cls-21" d="M181.09,82.34s.14-5.06,3.8-6.47c0,0,3.66-1.41,5.07,3.66,0,0,1.41,4.5,.84,7.32,0,0-.84,5.63-2.25,8.17,0,0,.28,5.63-1.13,9.01,0,0,0,5.63-1.41,6.76,0,0-1.69,4.5-4.5,4.5,0,0-1.12-11.26-.42-14.36v-18.59Z"/><path class="cls-10" d="M184.89,84.32s.94-3.7,2.82-4.79c0,0,2.53,1.69,1.13,7.6,0,0-.56,3.1-.84,5.63,0,0-3.1-5.07-3.1-8.45Z"/><path class="cls-7" d="M182.64,89.67s-.21,1.07,.02,2.76c.14,1.04,.46,2.32,1.11,3.72,0,0,.84,4.18-.28,7.58,0,0-1.13,3.77,.84,1.9,0,0,2.01-3.98,1.57-7.72,0,0-.73-7.11-3.26-8.24Z"/><path class="cls-8" d="M115.35,31.67s-16.61,5.63-21.4,25.62c0,0-5.35,14.08-3.94,38.86,0,0,.84,15.77,3.1,23.65,0,0,2.25,19.43,9.31,26.73,0,0,5.33,6.49,21.1,9.59,0,0,13.8,7.32,30.25-.41,0,0,11.7-4.1,15.93-7.76,0,0,7.6-5.07,9.29-13.51,0,0,1.97-12.39,1.97-20.55,0,0,.38-15.49,0-22.52,0,0,1.97-23.09-6.76-40.66,0,0-7.6-18.18-20.46-20.64,0,0-25.15-4.86-38.38,1.61Z"/><path class="cls-8" d="M115.35,31.67s-16.61,5.63-21.4,25.62c0,0-5.35,14.08-3.94,38.86,0,0,.84,15.77,3.1,23.65,0,0,2.25,19.43,9.31,26.73,0,0,5.33,6.49,21.1,9.59,0,0,13.8,7.32,30.25-.41,0,0,11.7-4.1,15.93-7.76,0,0,7.6-5.07,9.29-13.51,0,0,1.97-12.39,1.97-20.55,0,0,.38-15.49,0-22.52,0,0,1.97-23.09-6.76-40.66,0,0-7.6-18.18-20.46-20.64,0,0-25.15-4.86-38.38,1.61Z"/><path class="cls-14" d="M136.03,140.35c.34-2.08,.63-5.35,.63-5.35,.47-3.47,.27-8.92,.55-13.14,.28-4.22-2.02-44.3-2.02-44.3-1.83-8.02,.83-49.25,.83-49.25-7.14-.12-15,.58-20.68,3.35,0,0-16.61,5.63-21.4,25.62,0,0-5.35,14.08-3.94,38.86,0,0,.84,15.77,3.1,23.65,0,0,2.25,19.43,9.31,26.73,0,0,5.33,6.49,21.1,9.59,0,0,4.55,4.09,13.73,3.87,0,0-2.46-12.04-1.21-19.64Z"/><path class="cls-8" d="M138.99,159.24c4.39-.11,9.44-1.03,14.77-3.53,0,0,11.7-4.1,15.93-7.76,0,0,7.6-5.07,9.29-13.51,0,0,1.97-12.39,1.97-20.55,0,0,.38-15.49,0-22.52,0,0,1.97-23.09-6.76-40.66,0,0-7.6-18.18-20.46-20.64,0,0-8.2-1.59-17.7-1.74"/><path class="cls-1" d="M124.09,84.64c3.16,2.85,3.65,1.51,3.65,1.51-.28-1.08-2.82-2.73-2.82-2.73-2.93-1.76-5.38-1.84-5.38-1.84-2.25-.56-6.46,.63-6.46,.63-3.38,.56-5.43,3.14-5.43,3.14-3.27,3.22-6.38,3.75-6.38,3.75,0,0,3.66,.94,6.48-2.96,0,0,1.41-2.45,3.66-2.73,0,0,2.12-1.16,7.6-.93,0,0,3.38,.61,5.08,2.15Z"/><path class="cls-15" d="M104.89,88.61s3.18-1.19,4.4-2.6c0,0,2.09-3.02,7.25-3.17,0,0,3.28-.49,5.84,1.27,0,0,.89,.86,2.11,1.33,0,0,1.9,1.16,2.86,1.28,0,0-1.03,.66-3.28-.38,0,0-1.22-.56-2.63-1.69,0,0-1.45-1.01-4.41-.82,0,0-5.63,.16-7.12,3.13,0,0-2.41,2.06-5.02,1.66Z"/><path class="cls-15" d="M114.22,83.83s-1.69,1.13-1.62,2.32c0,0-.35,2.18,1.2,2.82,0,0,1.41,.07,2.39-.07,0,0,2.67-.35,3.52-.63,0,0,1.06-.92,.28-3.17,0,0-.32-.91-1.13-1.41,0,0-3.59-.35-4.65,.14Z"/><path class="cls-15" d="M145.32,84.5s2.12-.32,3.67-2.01c0,0,1.76-2.72,5.42-2.89,0,0,3.52-.77,7.06,1,0,0,1.36,1.03,2.26,1.78,0,0,1.66,1.49,3.49,1.84,0,0-3.66,.52-4.5-.68,0,0-1.83-2.6-4.72-2.96,0,0-2.53-.56-5.66,.49,0,0-1.94,1.41-3.49,2.82,0,0-.92,1.09-3.53,.6Z"/><path class="cls-15" d="M153.5,80.52s-1.83,1.27-1.55,2.67c0,0-.07,1.64,1.34,2.12,0,0,2,.88,5.88-.31,0,0,.62-.85,.67-2.02,0,0,.14-1.85-1.13-2.67,0,0-3.57-.7-5.21,.21Z"/><path class="cls-20" d="M143.29,83.56s.07,1.38,5.98-2.85c0,0,1.9-1.33,4.93-1.82,0,0,3.96-.64,6.7,.77,0,0,3.85,1.66,5.05,3.81,0,0,1.6,1.78,5.33,.65,0,0-3.9-.17-5.17-1.83,0,0-1.52-1.56-4.93-3.05,0,0-2.43-1.3-7.34-1.04,0,0-3.25-.08-5.99,2.31,0,0-3.09,2.57-4.57,3.05Z"/><path class="cls-13" d="M126.33,89.67s-3.38,7.04-15.2,7.88c0,0-4.79-.18-7.04-2.06,0,0,16.05,2.62,22.24-5.82Z"/><path class="cls-12" d="M126.49,68.92c.14,.29,.76,.64,1,.91,.33,.38,.61,.81,.84,1.26,.47,.93,.72,1.97,.73,3.01,.01,1.91-1.19,4.08-2.6,5.32,.65-1.61,.91-3.53,1.01-5.25s-.2-3.63-.97-5.26Z"/><path class="cls-10" d="M142.43,69.2c.26,.11,.16,1.01,.16,1.23,0,1.08-.09,2.16,.09,3.24,.27,1.56,.86,2.96,1.81,4.22-1.22-.53-1.85-.66-2.31-2.07-.58-1.8-.65-3.76-.24-5.6,.05-.21,.13-1.04,.43-1.02,.02,0,.03,0,.05,.01Z"/><path class="cls-31" d="M126.89,79.53s-7.04-1.69-11.26,0c0,0-5.98,1.41-10.73,2.82,0,0-2.78,1.15-3.91,2.97,0,0-.56-4.04,2.82-7.31,0,0,5.67-2.98,8.76-3.26,0,0,5.31-.83,8.69,0,0,0,5.63,0,5.63,4.79Z"/><path class="cls-30" d="M144.21,77.83s4.92-1.78,11.67-1.73c0,0,5.78,.22,10.57,2.97,0,0,2.72,1.17,3.94,2.18,0,0,.49-2.51-2.42-6.31,0,0-6.17-3.08-9.27-2.77,0,0-3.11-.31-9.43,.43,0,0-5.19-.5-5.07,5.23Z"/><path class="cls-3" d="M128.72,111.21s-1.97,.56-3.38-2.82c0,0-1.13-3-.14-4.67,0,0-.14-1.1,1.69-2.51,0,0-2.67,.56-3.38,1.97,0,0-1.97,3.38,.56,6.76,0,0,.84,2.11,4.65,1.27Z"/><path class="cls-4" d="M146.6,100.65s2.25,3.1,2.25,4.79c0,0,.84,2.25-1.41,4.08,0,0,3.52-1.69,2.67-5.35,0,0-1.13-2.82-3.52-3.52Z"/><path class="cls-35" d="M131.68,110.79s-5.21,1.2-6.34-2.39c0,0-1.83-2.53,.99-5.07,0,0,1.07-.74,1.41-.28,0,0,.19,1.29,.99,1.27,0,0,6.24,2.53,10.28-.14,0,0,3.29-2.06,6.05-1.83,0,0,2.23,.45,3.03,1.62,0,0,1.53,1.57,.83,3.32,0,0-.48,2.24-2.31,2.8,0,0-2.68,.21-2.53-.63,0,0,1.67-.35,1.81-2.1,0,0,.1-2.78-2.17-1.98,0,0-3.9,.54-3.83,2.09,0,0,.32,1.29,.03,1.99-.81,.82-1.27,1.53-3.08,1.47,0,0-2.48,.06-3.19-2.1,0,0-.81-1.52-1.9-2.32,0,0-2.25-1.41-4.01-.07,0,0-1.27,1.69,2.11,3.38,0,0,2.25,.14,1.83,.99Z"/><path class="cls-29" d="M133.12,107.56s-.7-1.06-2.18-1.06c0,0-1.41-.35-2.11-.77,0,0-1.2-.14-1.06,1.13,0,0-.07,1.55,1.34,2.04,0,0,1.69,.84,2.53,.56,0,0,2.18-.84,1.48-1.9Z"/><path class="cls-40" d="M140.19,106.49s-1.97,1.13-1.34,2.46c0,0,.92,.21,1.55-.77,0,0,1.55-1.2,2.39-.21,0,0,.35,1.83,1.76,1.13,0,0,2.22-.56,1.62-2.6,0,0-.07-1.2-1.41-1.41,0,0-2.53,0-4.58,1.41Z"/><path class="cls-17" d="M77.34,183.15s4.22-1.13,8.27-5.07c0,0,1.58,13.23,19.88,21.96,0,0,17.29,7.88,31.17,6.76,0,0,20.64-.56,27.96-7.32,0,0,13.8-8.17,15.49-15.49,0,0,1.41,.28,3.66,2.53,0,0,3.38,3.66,5.07,3.94,0,0,1.55-.11,.42,1.3,0,0-8.02,12.21-23.79,18.97,0,0-10.42,5.07-28.16,6.19,0,0-22.56-1.69-32.42-6.76,0,0-15.73-5.07-26.43-22.24,0,0-2.03-3.09-1.13-4.79Z"/><path class="cls-17" d="M77.62,184.84s-3.1,.56-5.35,1.97c0,0-16.86,10.7-22.21,10.7,0,0-21.08,5.03-26.15,10.66,0,0-12.39,6.99-15.2,18.81,0,0-3.4,3.63-3.4,9.45,0,0,11.29,23.48,31,30.37,0,0,28.93,4.7,61.03,10.05,0,0,51.26,5.72,99.94-6.22,0,0,29.14-8.99,44.68-21.54,0,0,12.11-6.19,9.85-14.08,0,0-2.34-4.59-6-9.66,0,0-5.07-14.64-12.38-18.79,0,0-27.97-8.78-31.91-9.34,0,0-11.26-2.46-12.25-5.46,0,0-10.55,18.44-36.18,22.93,0,0-22.6,4.57-46.92-3.92,0,0-17-6.8-28.54-25.94Z"/><path class="cls-33" d="M101.08,157.24s6.76,12.92,16.9,18.93c0,0,8.25,8.1,23.27,6.22,0,0,13.75-.6,22.39-8.86,0,0,8.78-7.32,12.42-18.8,0,0,2.36-10.26,1.99-17.39,0,0-7.75,14.6-27.06,19.44-1.54,3.21-20.29,5.93-26.22,.02,0,0-22.93-4.44-27.43-17.96,0,0,.8,12.91,3.75,18.4Z"/><path class="cls-16" d="M22.4,210.18s9.01,6.76,11.26,25.9c0,0,5.26,18.77,4.88,28.16,0,0,1.88-21.4-4.13-39.42,0,0-9.39-22.15-12.01-14.64Z"/><path class="cls-16" d="M233.42,207.74s4.13,8.68,.75,20.69c0,0,4.88-6.76,2.63-18.77,0,0-1.12-1.96-3.37-1.92Z"/><path class="cls-16" d="M77.62,184.84l-2.25,.59s5.44,15.92,31.49,26.74c0,0,29.8,7.58,49.03,1.95,0,0,16.89-.93,35.48-20.36,0,0,0-1.25-2.11-1.99,0,0-23.79,21.22-34.77,20.94,0,0-13.8,1.97-20.55,1.13,0,0-22.81-.84-26.47-3.94,0,0-26.75-12.95-29.85-25.06Z"/><path class="cls-10" d="M147.6,85.32s10.29,1,16.73-.52c0,0-8.83,3.28-16.73,.52Z"/><path class="cls-11" d="M116.79,34.57s-17.62,12.24-14.11,20.36c0,0,.44,4.61,5.22,5.49,0,0,14.08-2.27,16.85,7.68,0,0,2.32,6.53-3.19,4.19,0,0-14.05-1.77-21.18,3.76,0,0-6.77,13.62-2.01,23.76,0,0,2.9,7.82,10.24,12.56,0,0,2.73,8.75-5.85,11.32,0,0-5.27,2.8,.59,13.89,0,0,3.22,12.28,11.53,16.22,0,0-17.55-4.26-18.55-22.91,0,0-7.9-30.23-5.19-41.49,3.38,2.86,2.47,1.3,2.07-7.65,0,0-1.75-17.17,3-26.98,0,0,2.75-14.31,20.59-20.19Z"/><path class="cls-32" d="M129.42,112.76s-4.13-2.46-9.76,.94c0,0-5.03,2.73-6.16,6.43,0,0-3.98,8.21-7.36,7.51,0,0-4.26,.6-5.2-6.91,0,0-1.13-7.75-3.81-11.5,0,0-2.25-18.52-7.13-18.5,0,0,1.2,18.8,1.68,24.57,0,0,.17,5.33,2.48,10.97,0,0,3.93,14.74,6.78,18.49,0,0,2.15,5.28,8.93,6.73,0,0,6.61,5.6,15.62,5.88,0,0,6.75,7.54,24.2,1.2,0,0,13.23-3.3,17.52-8.88,0,0,9.88-5.96,11.76-15.25,0,0,2.99-17.25,2.25-22.47,0,0,.03-22.9-.36-26.65,0,0-1.88,9-2.26,12.59,0,0-4.13,4.01-3.38,7.18,0,0,.23,5.64-2.02,9.11,0,0-1.92,8.69-6.99,9.5,0,0-2.28,.32-5.36-3.72,0,0-.85-1.15-4.58-5.27,0,0-6.04-5.83-11.81-2.63,0,0-2.93-1.4-4.53-1.1,0,0-4,1.85-6.01,.46,0,0-1.69-1.03-4.5,1.32Z"/><path class="cls-19" d="M121.14,125.32c.65-.43,1.42-.71,2.15-1.05,1.9-.89,3.8-1.77,5.71-2.64,0,0,1.97-1.41,4.08-.7,0,0,4.38,2.25,7.18,.56,0,0,1.9-.99,3.03-.56,0,0,4.78,1.9,9.42,5.52,0,0-3.58,.39-5.55,.11,0,0-3.59-.56-5.28-.84,0,0-2.7,.89-5.23,.74,0,0-2.59-.71-4.6-1.13,0,0-2.61,.4-4.37,.95-.9,.28-2.16,.12-3.09,.16-1.61,.07-2.96-.13-4.52,.46-.02-.1-.08-.19-.16-.24,.3-.6,.73-1.02,1.23-1.35Z"/><path class="cls-23" d="M120.14,127.1c1.87,1.73,3.69,3.85,6.18,4.42,0,0,2.16,.75,4.79,.38,0,0,3.38-.17,5.16,.11,0,0,3.07-.17,4.39,.3,1.92,0,4.06,.33,5.94-.77,1.07-.46,2.12-.96,3.16-1.49,.77-.39,1.53-.79,2.26-1.26,.77-.49,1.24-1.72,1.64-2.51-1.18,.51-2.46,.21-3.69,.24-1.47,.04-2.92-.28-4.38-.39-1.7-.14-3.39-.27-5.09-.42,0,0-5.14,1.63-7.3,.12-1.59-.01-3.17,0-4.76,.05-1.34,.03-2.68,.09-4.01,.18s-2.73,.3-4.08,.05c-.49-.09-.99-.22-1.47-.09,.43,.33,.85,.7,1.26,1.08Z"/><path class="cls-25" d="M123.41,137.62s.71-6.45,10.66-4.54c0,0,4.87,.17,6,.08,0,0,9.52-.81,8.63,4.2,0,0-.14,2.72-6.52,.94,0,0-4-1.73-6.16-1.6,0,0-4.35-.28-6.7,1.13,0,0-5.73,2.52-5.92-.2Z"/><path class="cls-36" d="M87.47,83.76s-1.13-8.17-.28-13.23c0,0-1.41-3.38-.84-7.32,0,0,.56-6.76,.84-9.57,0,0-.36-3.66,.94-7.6,0,0-.38-4.5,1.31-7.6,0,0,.56-4.5,5.07-7.04,0,0,4.22-5.63,9.29-7.6,0,0,1.97,.56,4.79-1.97,0,0,.84-1.41,5.91-2.53,0,0,4.88-2.25,8.91-1.97,0,0,4.46-1.69,10.02-.84,0,0,4.75-1.41,9.1,1.97,0,0,5.46-1.97,7.72,.56,0,0,3.87,0,6.02,4.5,0,0,1.87,.56,3.28,1.13,0,0,5.07,1.97,6.76,3.38,0,0,2.82,1.41,4.5,4.79,0,0,1.13,3.1,1.97,5.35,0,0,4.5,3.94,5.63,5.91,0,0,3.2,9.01,4.13,12.11,0,0,1.92,4.79,1.71,9.01,0,0,2.18,8.45,0,12.11-2.18,3.66,0,0,0,0,0,0-3.9,7.16-3.4,10.79,0,0-4.13-13.05-5.82-19.52,0,0-.56-5.91-3.1-10.42,0,0-2.25-8.45-4.22-11.83,0,0-2.82-7.88-9.85-12.11,0,0-4.64-1.41-8.79-.56,0,0-14.86-.84-21.33-.84,0,0-10.14-.28-14.64,2.25,0,0-12.67,5.63-16.89,19.71,0,0-3.38,11.75-3.24,25.09,0,0,1.41,9.4-.14,11.79,0,0-3.24-2.67-3.87-6.62,0,0-.42-1.69-1.48-1.27Z"/><path class="cls-38" d="M155.7,31.33s-.1-.34-1.04-.94c-.74-.47-1.99-1.08-4.11-1.81,0,0,1.21,2.96-3.4,1.87,0,0-.77-2.41-3.51-2.96,0,0,.88,1.87-1.87,2.41,0,0-4.17-3.18-6.7-2.63,0,0,3.57,3.84,.96,3.84,0,0-2.39-4.28-6.45-2.8,0,0,3.4,.49,2.96,1.7,0,0-4.61-1.21-6.26-.44,0,0,1.1-.22,.88,.44,0,0-2.63-.88-4.28,.33,0,0,1.54-.11,1.54,.22,0,0-7.9-.33-9.77,1.98,0,0,1.43-.77,2.52-.66,0,0-4.83,1.43-6.8,3.18,0,0-6.7,3.62-7.57,6.15,0,0,1.76-1.98,2.52-1.98,0,0-6.26,6.14-6.8,8.56,0,0,1.25-2.41,2.44-2.85,0,0-2.98,3.51-3.09,4.94,0,0,2.52-4.83,6.59-8.01,0,0,4.58-5.05,9.48-5.93,0,0,6.77-3.84,11.59-2.96,0,0,9.33-.44,12.18,.55,0,0,8.08-.33,11.37,.11,0,0,7.61-.08,10.42,1.65,0,0-.76-1.4-1.75-2.38-.78-.77-.83-3.67-2.04-1.58Z"/><path class="cls-39" d="M159.91,35.47s2.21,1.41,3.31,.75c0,0-.75,.42,.5,1.37,0,0-.44,.88,1.54,1.76,0,0-.22,2.27,.88,1.98,0,0,0,1.76,1.54,2.85,0,0-1.1,1.1,.88,2.2,0,0-.66,1.76,1.54,3.29,0,0,1.08,1.91,1.21,4.25,0,0-.31,1.14,.66,4.23,0,0-2.27-7.97-4.64-11.99,0,0-.95-1.98-2.49-3.73,0,0-.95-3.33-4.9-6.95Z"/><path class="cls-26" d="M126.6,114.34s-5.4-1.02-12.43,6.89c0,0-1.39,1.1-.25,4.49,0,0,0,2.54,4.79,2.98-1.44-3.36,.15-4.99,2.2-5.63,0,0,4.54-.9,7.03-2.05,0,0,3.39-1.1,4.17-2.41,0,0,.64-4.58-.78-4.27,0,0-2.95,.54-4.72,.01Z"/><path class="cls-28" d="M147.97,114.56s7.26-1.52,11.5,6.77c0,0,.64,2.29,.36,5.01,0,0-.56,3.09-4.68,2.59,.21-2.59-.15-4.56-2.59-5,0,0-4.39-2.05-7.53-3.33,0,0-1.79-.47-2.57-1.79,0,0-.64-4.58,.78-4.27,0,0,2.95,.54,4.72,.01Z"/><path class="cls-27" d="M133.86,113.98s-.9,2.63-.49,5.05c0,0-.28,1.9,3.87,2.2,0,0,3.42,.66,4.52-1.32,0,0,0-3.73-.66-5.93,0,0-6.8,1.54-7.24,0Z"/><path class="cls-24" d="M96.61,125.71s3.22-.76,5.85,3.63c0,0,3.51,4.2,4.68,7.61,0,0,2.63,4.98,9.27,5.45,0,0,4.48,.99,10.47-1.36,0,0,9.07-2.93,18.43-.29,0,0,5.26,2.93,11.99,2.05,0,0,7.86-2.93,9.91-4.39,0,0,3.73-4.76,4.32-9.73,0,0,2.93-4.32,6.54-2.35,0,0,1.45,3.91-.69,8.86-2.9,6.72-4.98,8.49-4.98,8.49,0,0-.59,5.85-14.93,9.37,0,0-7.59,2.96-9.07,4.7-1.47,1.73,0,0,0,0,0,0-6.31,1.52-11.5,1.48-5.19-.04,0,0,0,0,0,0-7.27,.76-10.03-2.27s0,0,0,0c0,0-7.62-4.2-13.39-4.79-5.77-.59,0,0,0,0,0,0-10.45-3.22-12.79-9.37-2.34-6.15,0,0,0,0,0,0-8.2-19.56-4.1-17.1Z"/><path class="cls-34" d="M117.88,163.73s8.21,9.2,23.23,7.32c0,0,12.44-1.69,21.07-9.95,0,0,15.43-15.31,15.87-23.76,0,0-7.75,14.6-27.06,19.44-1.54,3.21-20.29,5.93-26.22,.02,0,0-22.93-4.44-27.43-17.96,0,0,1.92,14.95,20.55,24.88Z"/><path class="cls-37" d="M119.86,126.86s-1.57-1.16-.8-2.16c.34-.44,1.19,.37,2.47,.82,0,0,.92,.15,2.96,.03,0,0,3.09,.23,4.69-.18,0,0,1.5-.22,3-.22s2.25,1.03,4.6,1.13c0,0,6.01-1.09,6.39-.68,0,0,1.6-.07,5.44,.87,0,0,2.06,.47,3.85,0,0,0,1.64-1.12,2.09-1.04,.86,.15,.44,2.32-.8,2.2,0,0-.09-.26-1.02-.37,0,0-3.59-.62-7.77-.97-2.53,.1-3.18,.02-6.25,.49,0,0-3.14,.35-6.8-.78,0,0-2.91-.15-5.16,.24,0,0-2.37-.36-5.35-.21,0,0-.44,1.12-1.53,.84Z"/><path class="cls-41" d="M143.56,78.91c-1.99,.67-3.29,2.93-2.89,4.98s2.47,3.65,4.56,3.52c-1.49-2.53-1.48-4.87,.47-7.09,.41-.46,.9-1.04,.69-1.61-.15-.39-.59-.61-1.01-.61s-.82,.16-1.2,.31c-.99,.4-1.87,.71-2.48,1.64-1.18,1.82-1.49,3.9-.46,5.89,1.29,2.48,4.29,3.83,6.67,5.02,3.34,1.67,7.38,.74,10.91,.68-3.76,.06-7.63-.29-10.99-1.96s-3.95-7.04-4.27-10.79Z"/><path class="cls-42" d="M127.83,80.05c1.68,.64,2.99,2.18,3.35,3.94s-.23,3.69-1.53,4.94c1.22-2.97,.63-6.6-1.48-9.02"/></svg>