<?xml version="1.0" encoding="UTF-8"?>
<svg width="350px" height="350px" viewBox="0 0 350 350" version="1.1" xmlns="http://www.w3.org/2000/svg" xmlns:xlink="http://www.w3.org/1999/xlink">
    <!-- Generator: Sketch 48.2 (47327) - http://www.bohemiancoding.com/sketch -->
    <title>Useit logotyp</title>
    <desc></desc>
    <defs></defs>
    <g id="Artboard" stroke="none" stroke-width="1" fill="none" fill-rule="evenodd" transform="translate(-197.000000, -102.000000)">
        <g id="Group" transform="translate(197.000000, 102.000000)">
            <rect id="Rectangle" fill="#FFFFFF" x="5" y="5" width="340" height="340"></rect>
            <path d="M120.737969,72 L131.073846,72 L131.073846,135.021625 C131.073846,147.242548 120.858154,157.067212 108.238769,157.067212 L106.195631,157.067212 C93.4560616,157.067212 83.3605538,147.122735 83.3605538,134.901812 L83.3605538,72 L93.5762462,72 L93.5762462,135.021625 C93.5762462,141.970777 99.2249232,147.601987 106.556185,147.601987 L107.878216,147.601987 C115.209477,147.601987 120.737969,142.09059 120.737969,135.141438 L120.737969,72 Z M197.313508,113.09585 L187.338185,113.09585 C187.338185,108.063705 182.891354,103.390999 177.723415,103.390999 L175.439908,103.390999 C170.752708,103.390999 166.426061,106.506137 166.426061,110.699591 C166.426061,122.800701 197.073139,118.127995 197.073139,139.814144 C197.073139,149.399182 187.578554,157.067212 177.122492,157.067212 L174.478431,157.067212 C162.339785,157.067212 154.167231,147.841613 154.167231,138.376388 L154.167231,136.938632 L163.782,136.938632 L163.782,138.016949 C163.782,143.648159 168.829754,148.440678 174.838985,148.440678 L177.002308,148.440678 C182.5308,148.440678 187.218,144.606663 187.218,139.574518 C187.218,126.874342 156.330554,130.947984 156.330554,111.418469 C156.330554,101.473992 164.983846,94.7644652 175.439908,94.7644652 L177.723415,94.7644652 C190.823539,94.7644652 197.313508,105.42782 197.313508,113.09585 Z M257.303569,137.537697 L267.158708,137.537697 C267.158708,146.763296 258.144861,157.067212 245.525477,157.067212 L243.482338,157.067212 C230.742769,157.067212 220.647261,147.122735 220.647261,134.901812 L220.647261,116.69024 C220.647261,104.469316 230.742769,94.7644652 243.482338,94.7644652 L245.645661,94.7644652 C258.265046,94.7644652 268,104.469316 268,116.69024 L268,128.911163 L230.382215,128.911163 L230.382215,135.500877 C230.382215,142.689655 236.271261,148.560491 243.842892,148.560491 L245.164923,148.560491 C252.736554,148.560491 257.303569,142.210403 257.303569,137.537697 Z M230.382215,116.330801 L230.382215,120.164816 L258.505415,120.164816 L258.505415,116.330801 C258.505415,109.142022 252.856738,103.390999 245.285108,103.390999 L243.842892,103.390999 C236.271261,103.390999 230.382215,109.142022 230.382215,116.330801 Z M83,224.402104 L83,215.77557 L113.046154,215.77557 L113.046154,267.055523 L131.4344,267.055523 L131.4344,275.682057 L83,275.682057 L83,267.055523 L103.431385,267.055523 L103.431385,224.402104 L83,224.402104 Z M102.229539,197.144652 L102.229539,197.144652 C102.229539,194.200048 104.616612,191.812975 107.561216,191.812975 L107.954846,191.812975 C110.89945,191.812975 113.286523,194.200048 113.286523,197.144652 L113.286523,197.144652 C113.286523,200.089256 110.89945,202.47633 107.954846,202.47633 L107.561216,202.47633 C104.616612,202.47633 102.229539,200.089256 102.229539,197.144652 Z M154.167231,257.590298 L154.167231,224.402104 L154.167231,215.77557 L154.167231,198.762127 L163.902185,198.762127 L163.902185,215.77557 L197.313508,215.77557 L197.313508,224.402104 L163.902185,224.402104 L163.902185,256.87142 C163.902185,262.862069 168.589385,268.253653 175.199538,268.253653 L176.401385,268.253653 C182.410615,268.253653 187.338185,262.862069 187.338185,256.87142 L197.193323,256.87142 C197.193323,268.253653 189.741877,277 176.040831,277 L174.838985,277 C161.738861,277 154.167231,268.253653 154.167231,257.590298 Z M238.434584,269.811222 L238.434584,269.811222 C238.434584,266.568848 241.063047,263.940386 244.30542,263.940386 L244.341841,263.940386 C247.584214,263.940386 250.212677,266.568848 250.212677,269.811222 L250.212677,269.811222 C250.212677,273.053595 247.584214,275.682057 244.341841,275.682057 L244.30542,275.682057 C241.063047,275.682057 238.434584,273.053595 238.434584,269.811222 Z" id="Use-it." fill="#000000"></path>
            <g id="Group-15" fill="#000000">
                <rect id="Rectangle-9" x="0" y="0" width="10" height="350"></rect>
                <rect id="Rectangle-9-Copy-2" x="340" y="0" width="10" height="350"></rect>
                <rect id="Rectangle-9-Copy" x="0" y="0" width="350" height="10"></rect>
                <rect id="Rectangle-9-Copy-3" x="0" y="340" width="350" height="10"></rect>
            </g>
        </g>
    </g>
</svg>