<svg width="351" height="352" viewBox="0 0 351 352" fill="none" xmlns="http://www.w3.org/2000/svg">
<g clip-path="url(#clip0_27_2)">
<path d="M344.2 345.3H16C10.5 345.3 6 340.8 6 335.3V16.7C6 11.2 10.5 6.69995 16 6.69995H334.2C339.7 6.69995 344.2 11.2 344.2 16.7V345.3Z" fill="#040C20" stroke="#EEEEEE" stroke-width="11.643"/>
<path d="M120.7 75H131V138C131 150.2 120.8 160 108.2 160H106.2C93.5 160 83.4 150.1 83.4 137.8V75H93.6V138C93.6 144.9 99.2 150.6 106.6 150.6H107.9C115.2 150.6 120.8 145.1 120.8 138.1V75H120.7ZM197.3 116.1H187.3C187.3 111.1 182.9 106.4 177.7 106.4H175.4C170.7 106.4 166.4 109.5 166.4 113.7C166.4 125.8 197 121.1 197 142.8C197 152.4 187.5 160.1 177 160.1H174.4C162.3 160.1 154.1 150.9 154.1 141.4V140H163.7V141.1C163.7 146.7 168.7 151.5 174.8 151.5H177C182.5 151.5 187.2 147.7 187.2 142.6C187.2 129.9 156.3 134 156.3 114.4C156.3 104.5 165 97.7 175.4 97.7H177.7C190.8 97.8 197.3 108.4 197.3 116.1ZM257.3 140.5H267.2C267.2 149.7 258.2 160 245.6 160H243.6C230.9 160 220.8 150.1 220.8 137.8V119.6C220.8 107.4 230.9 97.7 243.6 97.7H245.8C258.4 97.7 268.2 107.4 268.2 119.6V131.8H230.6V138.4C230.6 145.6 236.5 151.5 244.1 151.5H245.4C252.7 151.6 257.3 145.2 257.3 140.5ZM230.4 119.3V123.1H258.5V119.3C258.5 112.1 252.9 106.4 245.3 106.4H243.9C236.3 106.4 230.4 112.1 230.4 119.3ZM83 227.4V218.8H113V270.1H131.4V278.7H83V270.1H103.4V227.4H83ZM102.2 200.1C102.2 197.2 104.6 194.8 107.5 194.8H107.9C110.8 194.8 113.2 197.2 113.2 200.1C113.2 203 110.8 205.4 107.9 205.4H107.5C104.6 205.5 102.2 203.1 102.2 200.1ZM154.2 260.6V227.4V218.8V201.8H163.9V218.8H197.3V227.4H163.9V259.9C163.9 265.9 168.6 271.3 175.2 271.3H176.4C182.4 271.3 187.3 265.9 187.3 259.9H197.2C197.2 271.3 189.7 280 176 280H174.8C161.7 280 154.2 271.3 154.2 260.6ZM238.4 272.8C238.4 269.6 241 266.9 244.3 266.9C247.5 266.9 250.2 269.5 250.2 272.8C250.2 276 247.6 278.7 244.3 278.7C241.1 278.7 238.4 276.1 238.4 272.8Z" fill="#EEEEEE"/>
</g>
<defs>
<clipPath id="clip0_27_2">
<rect width="351" height="352" fill="white"/>
</clipPath>
</defs>
</svg>
