<?xml version="1.0" encoding="UTF-8"?>
<svg viewBox="0 0 351 352" version="1.1" xmlns="http://www.w3.org/2000/svg" xmlns:xlink="http://www.w3.org/1999/xlink">
    <g id="Gul-med-border" stroke="none" stroke-width="1" fill="none" fill-rule="evenodd">
        <g id="useit-NEW" transform="translate(6.000000, 6.000000)" fill-rule="nonzero">
            <g id="Lager_4" fill="#FBF3DF" stroke="#111111" stroke-width="11.643">
                <path d="M338.2,339.3 L10,339.3 C4.5,339.3 0,334.8 0,329.3 L0,10.7 C0,5.2 4.5,0.7 10,0.7 L328.2,0.7 C333.7,0.7 338.2,5.2 338.2,10.7 L338.2,339.3 Z" id="Path"></path>
            </g>
            <g id="Lager_3" transform="translate(77.000000, 69.000000)" fill="#111111">
                <path d="M37.7,0 L48,0 L48,63 C48,75.2 37.8,85 25.2,85 L23.2,85 C10.5,85 0.4,75.1 0.4,62.8 L0.4,0 L10.6,0 L10.6,63 C10.6,69.9 16.2,75.6 23.6,75.6 L24.9,75.6 C32.2,75.6 37.8,70.1 37.8,63.1 L37.8,0 L37.7,0 Z M114.3,41.1 L104.3,41.1 C104.3,36.1 99.9,31.4 94.7,31.4 L92.4,31.4 C87.7,31.4 83.4,34.5 83.4,38.7 C83.4,50.8 114,46.1 114,67.8 C114,77.4 104.5,85.1 94,85.1 L91.4,85.1 C79.3,85.1 71.1,75.9 71.1,66.4 L71.1,65 L80.7,65 L80.7,66.1 C80.7,71.7 85.7,76.5 91.8,76.5 L94,76.5 C99.5,76.5 104.2,72.7 104.2,67.6 C104.2,54.9 73.3,59 73.3,39.4 C73.3,29.5 82,22.7 92.4,22.7 L94.7,22.7 C107.8,22.8 114.3,33.4 114.3,41.1 Z M174.3,65.5 L184.2,65.5 C184.2,74.7 175.2,85 162.6,85 L160.6,85 C147.9,85 137.8,75.1 137.8,62.8 L137.8,44.6 C137.8,32.4 147.9,22.7 160.6,22.7 L162.8,22.7 C175.4,22.7 185.2,32.4 185.2,44.6 L185.2,56.8 L147.6,56.8 L147.6,63.4 C147.6,70.6 153.5,76.5 161.1,76.5 L162.4,76.5 C169.7,76.6 174.3,70.2 174.3,65.5 Z M147.4,44.3 L147.4,48.1 L175.5,48.1 L175.5,44.3 C175.5,37.1 169.9,31.4 162.3,31.4 L160.9,31.4 C153.3,31.4 147.4,37.1 147.4,44.3 Z M0,152.4 L0,143.8 L30,143.8 L30,195.1 L48.4,195.1 L48.4,203.7 L0,203.7 L0,195.1 L20.4,195.1 L20.4,152.4 L0,152.4 L0,152.4 Z M19.2,125.1 L19.2,125.1 C19.2,122.2 21.6,119.8 24.5,119.8 L24.9,119.8 C27.8,119.8 30.2,122.2 30.2,125.1 L30.2,125.1 C30.2,128 27.8,130.4 24.9,130.4 L24.5,130.4 C21.6,130.5 19.2,128.1 19.2,125.1 Z M71.2,185.6 L71.2,152.4 L71.2,143.8 L71.2,126.8 L80.9,126.8 L80.9,143.8 L114.3,143.8 L114.3,152.4 L80.9,152.4 L80.9,184.9 C80.9,190.9 85.6,196.3 92.2,196.3 L93.4,196.3 C99.4,196.3 104.3,190.9 104.3,184.9 L114.2,184.9 C114.2,196.3 106.7,205 93,205 L91.8,205 C78.7,205 71.2,196.3 71.2,185.6 Z M155.4,197.8 L155.4,197.8 C155.4,194.6 158,191.9 161.3,191.9 L161.3,191.9 C164.5,191.9 167.2,194.5 167.2,197.8 L167.2,197.8 C167.2,201 164.6,203.7 161.3,203.7 L161.3,203.7 C158.1,203.7 155.4,201.1 155.4,197.8 Z" id="Use-it."></path>
            </g>
        </g>
    </g>
</svg>